<?xml version="1.0" standalone="no"?>
<!DOCTYPE svg PUBLIC "-//W3C//DTD SVG 1.1//EN" "http://www.w3.org/Graphics/SVG/1.1/DTD/svg11.dtd" >
<svg xmlns="http://www.w3.org/2000/svg" xmlns:xlink="http://www.w3.org/1999/xlink" version="1.1">
<metadata>
Created by FontForge 20190801 at Thu Aug 15 14:09:24 2013
 By Jimmy Wärting
2013 published by FontShop International GmbH
</metadata>
<defs>
<font id="MarkPro-MediumItalic" horiz-adv-x="1200" >
  <font-face 
    font-family="MarkPro-MediumItalic"
    font-weight="500"
    font-style="italic"
    font-stretch="normal"
    units-per-em="2000"
    panose-1="2 11 6 4 2 1 1 1 1 2"
    ascent="1580"
    descent="-420"
    x-height="958"
    cap-height="1400"
    bbox="-1346 -465 2992 2212"
    underline-thickness="136"
    underline-position="-260"
    slope="-12"
    stemh="190"
    stemv="210"
    unicode-range="U+000D-FEFF"
  />
<missing-glyph horiz-adv-x="1183" 
d="M51 0v1400h1081v-1400h-1081zM241 190h701v1020h-701v-1020z" />
    <glyph glyph-name=".notdef" horiz-adv-x="1183" 
d="M51 0v1400h1081v-1400h-1081zM241 190h701v1020h-701v-1020z" />
    <glyph glyph-name=".null" horiz-adv-x="0" 
 />
    <glyph glyph-name=".null" horiz-adv-x="0" 
 />
    <glyph glyph-name="CR" unicode="&#xd;" horiz-adv-x="540" 
 />
    <glyph glyph-name="space" unicode=" " horiz-adv-x="540" 
 />
    <glyph glyph-name="exclam" unicode="!" horiz-adv-x="510" 
d="M578 1400l-234 -938h-180l156 938h258zM194 325c93 0 174 -80 174 -174s-81 -176 -174 -176s-175 82 -175 176s82 174 175 174z" />
    <glyph glyph-name="quotedbl" unicode="&#x22;" horiz-adv-x="1085" 
d="M458 1440h210l-116 -545h-210zM828 1440h210l-116 -545h-210z" />
    <glyph glyph-name="numbersign" unicode="#" horiz-adv-x="1407" 
d="M312 1044h223l120 356h196l-120 -356h269l120 356h196l-120 -356h223l-63 -186h-222l-104 -309h221l-61 -186h-222l-122 -363h-196l122 363h-269l-122 -363h-196l122 363h-223l62 186h223l104 309h-224zM669 858l-104 -309h269l104 309h-269z" />
    <glyph glyph-name="dollar" unicode="$" horiz-adv-x="1400" 
d="M1332 1234l-120 -174c-87 57 -173 91 -255 108l-81 -382c191 -43 353 -139 353 -344c0 -247 -209 -414 -517 -426l-41 -197h-194l44 211c-124 22 -274 72 -383 172l128 174c77 -81 198 -124 298 -144l80 376c-203 39 -349 151 -349 343c0 220 165 431 514 436l39 184h194
l-42 -200c110 -21 223 -62 332 -137zM524 979c0 -85 61 -132 165 -157l76 359c-174 -13 -241 -109 -241 -202zM1003 417c0 77 -57 123 -173 154l-74 -348c142 16 247 85 247 194z" />
    <glyph glyph-name="percent" unicode="%" horiz-adv-x="2006" 
d="M606 1425c206 0 354 -145 354 -349c0 -220 -175 -406 -402 -406c-207 0 -355 145 -355 349c0 220 175 406 403 406zM595 1240c-115 0 -195 -96 -195 -210c0 -103 70 -175 168 -175c115 0 195 96 195 210c0 103 -70 175 -168 175zM1694 1400l-1055 -1400h-232l1055 1400
h232zM1543 729c206 0 354 -145 354 -349c0 -220 -175 -406 -402 -406c-207 0 -355 145 -355 349c0 220 175 406 403 406zM1532 544c-115 0 -195 -96 -195 -210c0 -103 70 -175 168 -175c115 0 195 96 195 210c0 103 -70 175 -168 175z" />
    <glyph glyph-name="ampersand" unicode="&#x26;" horiz-adv-x="1420" 
d="M1140 770l151 -109l-266 -343l255 -318h-273l-124 157c-108 -103 -238 -182 -412 -182c-237 0 -404 121 -404 341s167 346 345 445c-78 111 -115 193 -115 292c0 189 118 372 397 372c211 0 365 -123 365 -299c0 -198 -168 -314 -347 -415l192 -242zM494 165
c106 0 184 47 273 140l-240 304c-132 -76 -237 -157 -237 -273c0 -106 83 -171 204 -171zM515 1048c0 -44 19 -92 86 -189c133 71 239 142 239 246c0 80 -54 127 -157 127c-121 0 -168 -85 -168 -184z" />
    <glyph glyph-name="quotesingle" unicode="'" horiz-adv-x="715" 
d="M458 1440h210l-116 -545h-210z" />
    <glyph glyph-name="parenleft" unicode="(" horiz-adv-x="785" 
d="M801 1437l72 -188c-320 -121 -517 -488 -517 -830c0 -224 77 -394 233 -525l-109 -181c-235 178 -350 410 -350 702c0 428 260 875 671 1022z" />
    <glyph glyph-name="parenright" unicode=")" horiz-adv-x="785" 
d="M22 -299l-72 188c320 121 517 488 517 830c0 224 -77 394 -233 525l109 181c235 -178 350 -410 350 -702c0 -428 -260 -875 -671 -1022z" />
    <glyph glyph-name="asterisk" unicode="*" horiz-adv-x="944" 
d="M310 1292l231 -108l54 256h161l-58 -273l264 55l16 -157l-265 -55l102 -214l-143 -80l-103 214l-188 -189l-111 107l189 191l-228 106z" />
    <glyph glyph-name="plus" unicode="+" 
d="M601 83h-194l75 355h-352l40 190h353l76 355h194l-76 -355h353l-40 -190h-354z" />
    <glyph glyph-name="comma" unicode="," horiz-adv-x="495" 
d="M109 271h245l-223 -545h-193z" />
    <glyph glyph-name="hyphen" unicode="-" horiz-adv-x="821" 
d="M726 628l-40 -190h-568l40 190h568z" />
    <glyph glyph-name="period" unicode="." horiz-adv-x="510" 
d="M189 325c93 0 174 -80 174 -174s-81 -176 -174 -176s-175 82 -175 176s82 174 175 174z" />
    <glyph glyph-name="slash" unicode="/" horiz-adv-x="1007" 
d="M1165 1540l-1063 -1740h-239l1063 1740h239z" />
    <glyph glyph-name="zero" unicode="0" horiz-adv-x="1413" 
d="M857 1425c321 0 500 -237 500 -554c0 -415 -266 -896 -708 -896c-321 0 -500 241 -500 554c0 410 266 896 708 896zM846 1217c-304 0 -467 -383 -467 -672c0 -217 104 -362 281 -362c304 0 467 379 467 672c0 221 -104 362 -281 362z" />
    <glyph glyph-name="one" unicode="1" horiz-adv-x="802" 
d="M816 1422l-303 -1422h-220l233 1098l-364 -131l50 236z" />
    <glyph glyph-name="two" unicode="2" horiz-adv-x="1093" 
d="M369 1063l-141 135c81 111 244 226 434 226c290 0 427 -185 427 -379c0 -181 -98 -319 -278 -479l-407 -360h550l-44 -206h-879l36 169l587 526c158 141 209 227 209 332c0 93 -67 190 -215 190c-107 0 -210 -65 -279 -154z" />
    <glyph glyph-name="three" unicode="3" horiz-adv-x="1113" 
d="M350 1063l-136 149c102 125 241 212 461 212c266 0 428 -139 428 -341c0 -171 -103 -309 -281 -383c106 -50 173 -139 173 -266c0 -260 -220 -458 -530 -458c-211 0 -371 72 -456 187l149 143c70 -85 189 -128 310 -128c192 0 306 112 306 257c0 119 -101 171 -248 171
h-157l43 199h137c188 0 328 112 328 246c0 106 -94 171 -223 171c-141 0 -241 -81 -304 -159z" />
    <glyph glyph-name="four" unicode="4" horiz-adv-x="1140" 
d="M959 854l-80 -376h214l-44 -206h-214l-58 -272h-217l58 272h-615l36 175l678 951h256l-658 -920h347l80 376h217z" />
    <glyph glyph-name="five" unicode="5" horiz-adv-x="1129" 
d="M1121 1400l-43 -205h-559l-79 -338h135c342 0 473 -228 430 -466c-54 -296 -277 -416 -522 -416c-197 0 -356 74 -462 224l162 127c83 -107 188 -144 308 -144c166 0 272 95 291 225c19 123 -31 245 -261 245h-330l171 748h759z" />
    <glyph glyph-name="six" unicode="6" horiz-adv-x="1162" 
d="M994 1400l-423 -501c18 4 38 7 64 7c237 0 446 -181 446 -430c0 -273 -224 -500 -533 -500c-265 0 -482 171 -482 435c0 120 40 242 173 403l482 586h273zM588 705c-178 0 -296 -128 -296 -284c0 -144 111 -244 269 -244c172 0 294 127 294 286c0 152 -121 242 -267 242z
" />
    <glyph glyph-name="seven" unicode="7" horiz-adv-x="1075" 
d="M1196 1400l-33 -178l-739 -1222h-258l736 1195h-691l43 205h942z" />
    <glyph glyph-name="eight" unicode="8" horiz-adv-x="1231" 
d="M772 1424c226 0 453 -134 453 -360c0 -160 -107 -301 -294 -371c109 -56 181 -147 181 -266c0 -254 -225 -451 -565 -451c-252 0 -477 136 -477 355c0 173 108 319 306 386c-90 53 -150 136 -150 248c0 239 198 459 546 459zM620 609c-196 0 -318 -112 -318 -247
c0 -114 115 -185 257 -185c200 0 327 106 327 246c0 119 -120 186 -266 186zM758 1222c-196 0 -304 -111 -304 -245c0 -114 97 -178 235 -178c188 0 307 108 307 239c0 118 -117 184 -238 184z" />
    <glyph glyph-name="nine" unicode="9" horiz-adv-x="1162" 
d="M262 0l423 500c-18 -4 -39 -6 -64 -6c-237 0 -446 181 -446 430c0 273 224 500 533 500c265 0 482 -171 482 -435c0 -120 -40 -242 -173 -403l-482 -586h-273zM668 695c178 0 296 128 296 284c0 144 -111 244 -269 244c-172 0 -294 -127 -294 -286
c0 -152 121 -242 267 -242z" />
    <glyph glyph-name="colon" unicode=":" horiz-adv-x="510" 
d="M326 983c93 0 174 -80 174 -174s-81 -176 -174 -176s-175 82 -175 176s82 174 175 174zM185 325c93 0 174 -80 174 -174s-81 -176 -174 -176s-175 82 -175 176s82 174 175 174z" />
    <glyph glyph-name="semicolon" unicode=";" horiz-adv-x="495" 
d="M315 983c93 0 174 -80 174 -174s-81 -176 -174 -176s-175 82 -175 176s82 174 175 174zM109 271h245l-223 -545h-193z" />
    <glyph glyph-name="less" unicode="&#x3c;" 
d="M177 431l44 205l896 380l-51 -240l-653 -258l543 -259l-45 -208z" />
    <glyph glyph-name="equal" unicode="=" 
d="M1039 428l-41 -190h-900l41 190h900zM1124 828l-41 -190h-900l41 190h900z" />
    <glyph glyph-name="greater" unicode="&#x3e;" 
d="M1052 636l-44 -205l-896 -380l51 240l653 258l-543 259l45 208z" />
    <glyph glyph-name="question" unicode="?" horiz-adv-x="867" 
d="M375 462h-190l68 322h116c217 0 313 93 313 225c0 131 -136 197 -339 197c-31 0 -60 -2 -83 -3l10 215c31 3 73 5 113 5c318 0 537 -149 537 -386c0 -247 -172 -425 -510 -450zM229 325c93 0 174 -80 174 -174s-81 -176 -174 -176s-175 82 -175 176s82 174 175 174z" />
    <glyph glyph-name="at" unicode="@" horiz-adv-x="1904" 
d="M1263 -47l86 -136c-148 -95 -291 -132 -463 -132c-435 0 -742 293 -742 719c0 491 369 905 902 905c415 0 732 -272 732 -681c0 -319 -162 -545 -392 -545c-127 0 -197 64 -232 134c-60 -71 -145 -119 -258 -119c-205 0 -351 150 -351 362c0 240 174 442 403 442
c114 0 201 -44 253 -123l23 104h178l-90 -414c-8 -36 -12 -68 -12 -95c0 -87 39 -127 101 -127c110 0 187 156 187 377c0 313 -230 518 -556 518c-418 0 -696 -333 -696 -729c0 -352 234 -560 565 -560c138 0 246 29 362 100zM960 731c-134 0 -229 -117 -229 -257
c0 -127 82 -208 199 -208c135 0 231 118 231 258c0 125 -83 207 -201 207z" />
    <glyph glyph-name="A" unicode="A" horiz-adv-x="1448" 
d="M1059 1400l249 -1400h-233l-61 357h-622l-211 -357h-245l841 1400h282zM876 1174l-357 -603h459z" />
    <glyph glyph-name="B" unicode="B" horiz-adv-x="1377" 
d="M377 1400h518c264 0 453 -117 453 -343c0 -162 -103 -297 -256 -346c117 -53 197 -189 162 -344c-70 -309 -290 -367 -615 -367h-560zM757 600h-320l-82 -388h319c184 0 314 30 345 170c37 166 -80 218 -262 218zM851 1188h-288l-81 -377h291c249 0 344 86 344 225
c0 121 -125 152 -266 152z" />
    <glyph glyph-name="C" unicode="C" horiz-adv-x="1458" 
d="M1188 339l149 -145c-138 -139 -314 -220 -515 -220c-384 0 -670 273 -670 663c0 452 345 788 780 788c146 0 403 -35 558 -268l-173 -139c-85 121 -223 190 -398 190c-288 0 -530 -241 -530 -553c0 -273 195 -464 447 -464c136 0 259 59 352 148z" />
    <glyph glyph-name="D" unicode="D" horiz-adv-x="1542" 
d="M377 1400h471c397 0 644 -234 644 -598c0 -437 -318 -802 -856 -802h-557zM822 1186h-260l-207 -972h307c371 0 591 251 591 567c0 241 -138 405 -431 405z" />
    <glyph glyph-name="E" unicode="E" horiz-adv-x="1321" 
d="M1221 811l-45 -212h-739l-82 -387h774l-45 -212h-1005l298 1400h989l-45 -212h-758l-81 -377h739z" />
    <glyph glyph-name="F" unicode="F" horiz-adv-x="1270" 
d="M1210 812l-46 -214h-727l-127 -598h-231l298 1400h981l-46 -214h-750l-79 -374h727z" />
    <glyph glyph-name="G" unicode="G" horiz-adv-x="1609" 
d="M1451 1197l-170 -154c-80 103 -204 165 -359 165c-295 0 -536 -234 -536 -567c0 -276 185 -450 448 -450c239 0 395 127 456 354h-376l45 209h597c0 -18 -3 -45 -6 -68c-51 -414 -331 -712 -737 -712c-379 0 -664 266 -664 646c0 460 348 805 792 805
c129 0 363 -36 510 -228z" />
    <glyph glyph-name="H" unicode="H" horiz-adv-x="1563" 
d="M608 1400l-125 -588h739l126 588h231l-299 -1400h-231l127 598h-739l-127 -598h-231l298 1400h231z" />
    <glyph glyph-name="I" unicode="I" horiz-adv-x="592" 
d="M608 1400l-298 -1400h-231l298 1400h231z" />
    <glyph glyph-name="J" unicode="J" horiz-adv-x="1096" 
d="M1117 1400l-195 -937c-68 -328 -236 -488 -519 -488c-177 0 -335 82 -423 220l165 147c52 -82 147 -150 267 -150c160 0 244 105 290 324l185 884h230z" />
    <glyph glyph-name="K" unicode="K" horiz-adv-x="1380" 
d="M608 1400l-126 -589h107l605 589h303l-733 -693l529 -707h-274l-444 597h-138l-127 -597h-231l298 1400h231z" />
    <glyph glyph-name="L" unicode="L" 
d="M608 1400l-253 -1186h753l-46 -214h-983l298 1400h231z" />
    <glyph glyph-name="M" unicode="M" horiz-adv-x="1842" 
d="M1858 1400l-298 -1400h-230l242 1132l-592 -995h-238l-192 1000l-241 -1137h-230l298 1400h335l185 -1005l604 1005h357z" />
    <glyph glyph-name="N" unicode="N" horiz-adv-x="1562" 
d="M1578 1400l-298 -1400h-211l-538 1046l-222 -1046h-230l298 1400h212l537 -1045l222 1045h230z" />
    <glyph glyph-name="O" unicode="O" horiz-adv-x="1666" 
d="M939 1425c382 0 672 -258 672 -649c0 -436 -329 -802 -790 -802c-382 0 -672 258 -672 650c0 435 329 801 790 801zM921 1208c-318 0 -535 -269 -535 -567c0 -272 187 -450 454 -450c316 0 534 269 534 568c0 271 -188 449 -453 449z" />
    <glyph glyph-name="P" unicode="P" horiz-adv-x="1282" 
d="M730 550h-303l-117 -550h-231l298 1400h467c302 0 457 -153 457 -373c0 -290 -207 -477 -571 -477zM822 1187h-260l-90 -424h268c218 0 325 84 325 243c0 118 -78 181 -243 181z" />
    <glyph glyph-name="Q" unicode="Q" horiz-adv-x="1691" 
d="M939 1425c382 0 672 -258 672 -649c0 -195 -66 -376 -180 -517l173 -259h-254l-77 113c-125 -88 -279 -139 -452 -139c-382 0 -672 258 -672 650c0 435 329 801 790 801zM921 1208c-318 0 -535 -269 -535 -567c0 -272 187 -450 454 -450c120 0 226 39 311 103l-243 361
h259l129 -194c50 88 78 191 78 298c0 271 -188 449 -453 449z" />
    <glyph glyph-name="R" unicode="R" horiz-adv-x="1341" 
d="M377 1400h510c300 0 459 -154 459 -359c0 -188 -124 -452 -537 -452h-21l416 -589h-269l-398 589h-102l-125 -589h-231zM865 1186h-303l-83 -392h337c242 0 292 122 292 222c0 104 -82 170 -243 170z" />
    <glyph glyph-name="S" unicode="S" horiz-adv-x="1333" 
d="M1322 1264l-126 -183c-148 98 -292 130 -425 130c-218 0 -300 -110 -300 -218c0 -101 82 -151 219 -176l104 -19c221 -39 419 -139 419 -373c0 -271 -237 -451 -581 -451c-133 0 -397 42 -567 197l135 183c120 -127 344 -166 443 -166c185 0 333 77 333 211
c0 97 -85 150 -261 182l-108 20c-217 39 -376 157 -376 363c0 235 178 461 554 461c173 0 360 -39 537 -161z" />
    <glyph glyph-name="T" unicode="T" horiz-adv-x="1184" 
d="M1344 1400l-46 -214h-434l-252 -1186h-231l252 1186h-447l46 214h1112z" />
    <glyph glyph-name="U" unicode="U" horiz-adv-x="1478" 
d="M1512 1400l-182 -858c-87 -414 -333 -567 -660 -567c-281 0 -506 140 -506 438c0 46 6 96 17 150l179 837h231l-178 -831c-9 -44 -13 -83 -13 -118c0 -185 119 -259 297 -259c193 0 349 98 406 367l178 841h231z" />
    <glyph glyph-name="V" unicode="V" horiz-adv-x="1414" 
d="M1572 1400l-826 -1400h-281l-231 1400h230l182 -1174l684 1174h242z" />
    <glyph glyph-name="W" unicode="W" horiz-adv-x="2176" 
d="M2311 1400l-717 -1400h-274l-96 1087l-560 -1087h-284l-123 1400h230l86 -1147l586 1147h248l97 -1136l568 1136h239z" />
    <glyph glyph-name="X" unicode="X" horiz-adv-x="1340" 
d="M1474 1400l-633 -700l334 -700h-252l-237 524l-463 -524h-283l644 714l-326 686h252l230 -511l451 511h283z" />
    <glyph glyph-name="Y" unicode="Y" horiz-adv-x="1316" 
d="M1500 1400l-710 -833l-120 -567h-231l124 585l-356 815h244l260 -618l504 618h285z" />
    <glyph glyph-name="Z" unicode="Z" horiz-adv-x="1298" 
d="M1367 1400l-38 -181l-939 -1005h762l-46 -214h-1064l41 190l936 996h-760l46 214h1062z" />
    <glyph glyph-name="bracketleft" unicode="[" horiz-adv-x="762" 
d="M573 -69l-41 -194h-509l354 1663h509l-41 -194h-294l-271 -1275h293z" />
    <glyph glyph-name="backslash" unicode="\" horiz-adv-x="1747" 
d="M1356 -200l-1063 1740h239l1063 -1740h-239z" />
    <glyph glyph-name="bracketright" unicode="]" horiz-adv-x="762" 
d="M227 1206l41 194h509l-354 -1663h-509l41 194h293l271 1275h-292z" />
    <glyph glyph-name="asciicircum" unicode="^" 
d="M434 635h-223l357 765h204l357 -765h-228l-234 542z" />
    <glyph glyph-name="underscore" unicode="_" horiz-adv-x="940" 
d="M819 -113l-40 -190h-950l40 190h950z" />
    <glyph glyph-name="grave" unicode="`" horiz-adv-x="1000" 
d="M829 1110h-206l-251 300h266z" />
    <glyph glyph-name="a" unicode="a" horiz-adv-x="1211" 
d="M618 983c155 0 252 -55 308 -139l25 114h209l-204 -958h-208l18 85c-68 -65 -154 -111 -279 -111c-235 0 -413 185 -413 435c0 304 232 574 544 574zM540 172c170 0 301 132 322 307s-76 307 -246 307c-186 0 -326 -162 -326 -354c0 -146 89 -260 250 -260z" />
    <glyph glyph-name="b" unicode="b" horiz-adv-x="1213" 
d="M595 -25c-155 0 -253 54 -308 139l-25 -114h-211l306 1440h211l-113 -526c63 42 142 70 241 70c253 0 443 -185 443 -435c0 -304 -232 -574 -544 -574zM673 786c-170 0 -301 -132 -322 -307s76 -307 246 -307c186 0 326 162 326 354c0 146 -89 260 -250 260z" />
    <glyph glyph-name="c" unicode="c" horiz-adv-x="1015" 
d="M1015 792l-164 -118c-85 104 -179 111 -236 111c-181 0 -321 -156 -321 -341c0 -160 111 -270 251 -270c88 0 171 31 236 96l120 -138c-94 -102 -227 -155 -365 -155c-278 0 -458 197 -458 452c0 300 230 552 547 552c177 0 308 -64 390 -189z" />
    <glyph glyph-name="d" unicode="d" horiz-adv-x="1213" 
d="M618 983c155 0 252 -55 308 -139l127 596h211l-306 -1440h-210l18 85c-68 -65 -154 -111 -279 -111c-235 0 -413 185 -413 435c0 304 232 574 544 574zM540 172c170 0 301 132 322 307s-76 307 -246 307c-186 0 -326 -162 -326 -354c0 -146 89 -260 250 -260z" />
    <glyph glyph-name="e" unicode="e" horiz-adv-x="1079" 
d="M811 247l89 -155c-116 -84 -228 -118 -378 -118c-290 0 -451 180 -451 420c0 248 163 589 544 589c241 0 402 -146 402 -385c0 -68 -16 -148 -36 -196h-697c1 -154 94 -245 261 -245c104 0 185 33 266 90zM604 797c-177 0 -261 -118 -297 -237h500c2 13 2 23 2 32
c0 134 -83 205 -205 205z" />
    <glyph glyph-name="f" unicode="f" horiz-adv-x="813" 
d="M858 958l-40 -190h-309l-163 -768h-212l163 768h-189l40 190h189l39 181c43 201 163 326 359 326c106 0 189 -33 250 -82l-102 -163c-48 33 -107 48 -150 48c-67 0 -128 -49 -151 -157l-33 -153h309z" />
    <glyph glyph-name="g" unicode="g" horiz-adv-x="1209" 
d="M1158 958l-191 -897c-64 -300 -249 -471 -518 -471c-179 0 -324 48 -445 139l106 170c89 -74 208 -120 343 -120c165 0 273 121 305 277l2 12c-63 -44 -141 -69 -245 -69c-253 0 -438 182 -438 422c0 312 233 562 539 562c156 0 253 -55 308 -139l25 114h209zM538 195
c189 0 322 138 322 337c0 149 -101 254 -246 254c-188 0 -320 -140 -320 -343c0 -146 100 -248 244 -248z" />
    <glyph glyph-name="h" unicode="h" horiz-adv-x="1183" 
d="M720 983c212 0 345 -136 345 -331c0 -34 -4 -70 -12 -107l-117 -545h-211l116 542c6 26 9 51 9 75c0 96 -50 167 -179 167c-136 0 -259 -82 -297 -262l-111 -522h-212l307 1440h210l-117 -554c87 77 186 97 269 97z" />
    <glyph glyph-name="i" unicode="i" horiz-adv-x="518" 
d="M467 958l-204 -958h-212l204 958h212zM430 1437c83 0 148 -65 148 -148s-65 -146 -148 -146s-146 63 -146 146s63 148 146 148z" />
    <glyph glyph-name="j" unicode="j" horiz-adv-x="529" 
d="M477 958l-230 -1085c-42 -197 -170 -292 -326 -292c-64 0 -127 17 -168 38l76 173c27 -11 56 -14 79 -14c59 0 115 41 133 123l224 1057h212zM440 1437c83 0 148 -65 148 -148s-65 -146 -148 -146s-146 63 -146 146s63 148 146 148z" />
    <glyph glyph-name="k" unicode="k" horiz-adv-x="1053" 
d="M569 1440l-180 -846h95l359 364h273l-480 -471l305 -487h-236l-246 404h-110l-86 -404h-212l306 1440h212z" />
    <glyph glyph-name="l" unicode="l" horiz-adv-x="518" 
d="M569 1440l-306 -1440h-212l306 1440h212z" />
    <glyph glyph-name="m" unicode="m" horiz-adv-x="1859" 
d="M1407 983c205 0 335 -135 335 -326c0 -32 -3 -66 -11 -101l-120 -556h-211l116 542c6 26 9 51 9 75c0 93 -47 167 -182 167s-255 -82 -294 -262l-114 -522h-210l116 542c27 124 -3 242 -171 242c-136 0 -259 -82 -297 -262l-111 -522h-211l204 958h209l-21 -97
c91 98 199 122 289 122c143 0 249 -66 301 -171c108 134 252 171 374 171z" />
    <glyph glyph-name="n" unicode="n" horiz-adv-x="1183" 
d="M732 983c204 0 334 -135 334 -326c0 -32 -3 -66 -11 -101l-119 -556h-211l116 542c6 26 9 51 9 75c0 93 -47 167 -180 167c-136 0 -259 -82 -297 -262l-111 -522h-211l204 958h209l-21 -97c91 98 199 122 289 122z" />
    <glyph glyph-name="o" unicode="o" horiz-adv-x="1184" 
d="M634 983c281 0 472 -194 472 -456c0 -302 -237 -553 -556 -553c-279 0 -472 192 -472 457c0 301 237 552 556 552zM617 786c-186 0 -324 -156 -324 -342c0 -161 112 -273 271 -273c188 0 327 156 327 342c0 161 -112 273 -274 273z" />
    <glyph glyph-name="p" unicode="p" horiz-adv-x="1212" 
d="M594 -25c-155 0 -252 54 -308 138l-108 -513h-212l289 1358h209l-19 -86c68 65 155 112 280 112c235 0 413 -185 413 -435c0 -304 -232 -574 -544 -574zM672 786c-170 0 -301 -132 -322 -307s76 -307 246 -307c186 0 326 162 326 354c0 146 -89 260 -250 260z" />
    <glyph glyph-name="q" unicode="q" horiz-adv-x="1211" 
d="M618 983c155 0 252 -55 308 -139l25 114h209l-289 -1358h-212l94 441c-62 -41 -139 -67 -236 -67c-253 0 -443 185 -443 435c0 304 232 574 544 574zM540 172c170 0 301 132 322 307s-76 307 -246 307c-186 0 -326 -162 -326 -354c0 -146 89 -260 250 -260z" />
    <glyph glyph-name="r" unicode="r" horiz-adv-x="834" 
d="M464 958l-21 -97c91 98 199 122 289 122c51 0 111 -12 156 -34l-81 -199c-34 22 -87 34 -137 34c-136 0 -259 -82 -297 -262l-111 -522h-211l204 958h209z" />
    <glyph glyph-name="s" unicode="s" horiz-adv-x="959" 
d="M947 878l-110 -160c-74 47 -204 82 -301 82c-111 0 -180 -39 -187 -104c-9 -83 56 -102 138 -115l69 -11c224 -37 315 -144 298 -291c-20 -174 -176 -303 -427 -303c-140 0 -309 41 -430 130l116 155c83 -59 185 -103 311 -103c132 0 206 45 214 117
c6 57 -38 92 -141 108l-72 11c-216 31 -311 140 -294 291c22 190 177 297 407 297c166 0 308 -39 409 -104z" />
    <glyph glyph-name="t" unicode="t" horiz-adv-x="894" 
d="M901 958l-41 -190h-357l-86 -405c-28 -132 29 -191 122 -191c57 0 114 18 174 55l86 -162c-77 -52 -168 -90 -285 -90c-241 0 -361 143 -308 392l85 401h-184l41 190h184l62 290h212l-62 -290h357z" />
    <glyph glyph-name="u" unicode="u" horiz-adv-x="1169" 
d="M1127 958l-119 -561c-64 -305 -274 -422 -512 -422c-216 0 -376 122 -376 340c0 34 4 71 12 110l113 533h212l-115 -542c-6 -28 -9 -54 -9 -77c0 -119 77 -167 188 -167c129 0 244 77 283 262l111 524h212z" />
    <glyph glyph-name="v" unicode="v" horiz-adv-x="1044" 
d="M1128 958l-573 -958h-248l-187 958h215l131 -751l433 751h229z" />
    <glyph glyph-name="w" unicode="w" horiz-adv-x="1635" 
d="M1017 958l89 -725l375 725h229l-517 -958h-249l-81 716l-367 -716h-246l-121 958h211l76 -723l368 723h233z" />
    <glyph glyph-name="x" unicode="x" horiz-adv-x="1030" 
d="M1079 958l-443 -485l262 -473h-231l-176 328l-290 -328h-251l448 490l-266 468h233l173 -330l289 330h252z" />
    <glyph glyph-name="y" unicode="y" horiz-adv-x="1083" 
d="M1176 958l-957 -1364h-240l446 622l-310 742h222l222 -553l379 553h238z" />
    <glyph glyph-name="z" unicode="z" horiz-adv-x="1010" 
d="M995 958l-35 -159l-615 -609h511l-40 -190h-795l34 164l624 604h-511l41 190h786z" />
    <glyph glyph-name="braceleft" unicode="{" horiz-adv-x="871" 
d="M975 1400l-42 -194h-28c-152 0 -231 -54 -256 -204l-18 -108c-31 -185 -114 -284 -258 -335c116 -62 154 -182 120 -315l-28 -108c-36 -139 38 -204 170 -204h48l-42 -194h-48c-289 0 -394 210 -332 449l21 81c34 130 -36 204 -175 204l42 194c169 0 239 74 263 224
l21 128c41 258 205 382 494 382h48z" />
    <glyph glyph-name="bar" unicode="|" horiz-adv-x="715" 
d="M659 1400l-354 -1665h-210l354 1665h210z" />
    <glyph glyph-name="braceright" unicode="}" horiz-adv-x="871" 
d="M-66 -262l42 194h28c152 0 231 54 256 204l18 108c31 185 114 284 258 335c-117 61 -155 182 -120 315l28 108c36 139 -38 204 -170 204h-48l42 194h48c289 0 394 -210 332 -449l-21 -81c-34 -130 36 -204 175 -204l-42 -194c-169 0 -239 -74 -263 -224l-21 -128
c-41 -258 -205 -382 -494 -382h-48z" />
    <glyph glyph-name="asciitilde" unicode="~" 
d="M982 656l92 -142c-96 -76 -185 -113 -302 -113c-174 0 -218 78 -353 78c-66 0 -113 -25 -178 -75l-92 142c96 76 186 113 302 113c175 0 218 -78 353 -78c66 0 113 25 178 75z" />
    <glyph glyph-name="uni00A0" unicode="&#xa0;" horiz-adv-x="540" 
 />
    <glyph glyph-name="exclamdown" unicode="&#xa1;" horiz-adv-x="510" 
d="M-68 -442l234 938h180l-156 -938h-258zM316 633c-93 0 -174 80 -174 174s81 176 174 176s175 -82 175 -176s-82 -174 -175 -174z" />
    <glyph glyph-name="cent" unicode="&#xa2;" horiz-adv-x="1400" 
d="M1261 1015l-158 -118c-46 52 -93 80 -136 94l-127 -595c71 10 137 40 191 92l115 -137c-90 -96 -217 -147 -348 -153l-42 -198h-194l47 223c-190 61 -305 226 -305 429c0 285 213 525 513 547l43 201h194l-46 -215c108 -26 192 -83 253 -170zM517 666
c0 -110 54 -197 135 -241l122 573c-150 -36 -257 -173 -257 -332z" />
    <glyph glyph-name="sterling" unicode="&#xa3;" horiz-adv-x="1400" 
d="M1172 206l-44 -206h-1033l44 206h159l84 399h-159l41 190h158l31 147c70 331 278 482 531 482c167 0 295 -54 371 -160l-162 -138c-54 61 -134 91 -224 91c-141 0 -257 -75 -309 -328l-20 -94h490l-41 -190h-489l-83 -399h655z" />
    <glyph glyph-name="currency" unicode="&#xa4;" horiz-adv-x="1400" 
d="M1228 1210l103 -130l-168 -138c42 -77 61 -169 49 -266c-12 -100 -55 -190 -118 -262l96 -121l-140 -115l-96 122c-79 -43 -169 -66 -263 -61c-98 5 -184 39 -253 94l-172 -144l-103 131l169 139c-42 77 -60 168 -48 265c12 99 54 188 116 260l-96 123l139 116l98 -125
c79 44 170 67 264 62c96 -5 182 -38 250 -92zM712 410c162 -9 307 113 327 275c20 161 -93 296 -255 304c-163 9 -307 -113 -327 -274c-20 -162 92 -297 255 -305z" />
    <glyph glyph-name="yen" unicode="&#xa5;" horiz-adv-x="1400" 
d="M1171 453l-37 -173h-366l-60 -280h-217l60 280h-366l37 173h366l33 156h-367l39 173h280l-284 618h243l233 -547l461 547h267l-539 -618h288l-39 -173h-365l-33 -156h366z" />
    <glyph glyph-name="brokenbar" unicode="&#xa6;" horiz-adv-x="715" 
d="M659 1400l-148 -694h-210l148 694h210zM453 429l-148 -694h-210l148 694h210z" />
    <glyph glyph-name="section" unicode="&#xa7;" horiz-adv-x="1235" 
d="M1263 1292l-127 -162c-92 58 -204 98 -339 98c-154 0 -275 -65 -291 -148c-24 -122 67 -160 215 -179l78 -10c242 -31 370 -164 330 -356c-22 -107 -89 -183 -182 -236c63 -62 91 -147 70 -256c-43 -215 -275 -344 -527 -344c-173 0 -375 55 -480 161l137 159
c70 -68 207 -124 355 -124c152 0 282 60 300 151c23 114 -75 151 -245 177l-91 14c-196 30 -334 146 -296 329c23 113 90 192 185 247c-60 58 -88 144 -65 262c42 210 258 349 518 349c189 0 345 -50 455 -132zM591 714c-24 3 -47 7 -69 13c-75 -31 -128 -84 -141 -147
c-23 -104 69 -139 217 -158l80 -10c40 -5 78 -13 113 -24c71 30 122 77 133 128c24 114 -74 166 -243 187z" />
    <glyph glyph-name="dieresis" unicode="&#xa8;" horiz-adv-x="1020" 
d="M476 1399c83 0 148 -65 148 -148s-65 -146 -148 -146s-146 63 -146 146s63 148 146 148zM876 1399c83 0 148 -65 148 -148s-65 -146 -148 -146s-146 63 -146 146s63 148 146 148z" />
    <glyph glyph-name="copyright" unicode="&#xa9;" horiz-adv-x="1900" 
d="M942 -98c-417 0 -768 318 -768 753c0 448 383 863 882 863c417 0 768 -318 768 -753c0 -448 -383 -863 -882 -863zM1042 1334c-387 0 -676 -325 -676 -668c0 -337 270 -580 590 -580c387 0 676 325 676 668c0 337 -270 580 -590 580zM1407 943l-169 -97
c-41 70 -110 114 -205 114c-147 0 -253 -126 -253 -275c0 -143 99 -224 217 -224c81 0 153 38 206 103l127 -118c-85 -105 -201 -168 -343 -168c-215 0 -406 144 -406 395c0 255 191 470 462 470c163 0 299 -76 364 -200z" />
    <glyph glyph-name="ordfeminine" unicode="&#xaa;" horiz-adv-x="757" 
d="M499 1282c181 0 285 -93 285 -241c0 -24 -3 -50 -8 -76l-80 -377h-169l10 49c-49 -40 -111 -67 -184 -67c-133 0 -224 80 -224 193c0 140 110 233 293 233h187c2 8 2 17 2 25c0 69 -45 108 -143 108c-74 0 -132 -27 -183 -56l-47 140c83 49 162 69 261 69zM403 713
c55 0 116 27 163 72l18 84h-147c-78 0 -124 -34 -124 -85c0 -43 32 -71 90 -71z" />
    <glyph glyph-name="guillemotleft" unicode="&#xab;" horiz-adv-x="1062" 
d="M1035 912l-286 -401l102 -357h-213l-108 379l270 379h235zM610 912l-286 -401l102 -357h-213l-108 379l270 379h235z" />
    <glyph glyph-name="logicalnot" unicode="&#xac;" 
d="M957 128h-194l65 310h-705l40 190h900z" />
    <glyph glyph-name="uni00AD" unicode="&#xad;" horiz-adv-x="821" 
d="M726 628l-40 -190h-568l40 190h568z" />
    <glyph glyph-name="registered" unicode="&#xae;" horiz-adv-x="1067" 
d="M673 1442c232 0 430 -174 430 -420c0 -252 -214 -481 -489 -481c-233 0 -432 174 -432 421c0 252 215 480 491 480zM621 667c194 0 343 168 343 348c0 176 -137 301 -298 301c-197 0 -346 -168 -346 -347c0 -178 139 -302 301 -302zM521 1195h183c109 0 163 -72 147 -144
c-14 -64 -67 -104 -149 -113l109 -141h-128l-96 139h-9l-29 -139h-112zM692 1098h-80l-15 -73h79c34 0 56 10 61 34c6 25 -11 39 -45 39z" />
    <glyph glyph-name="macron" unicode="&#xaf;" horiz-adv-x="1000" 
d="M336 1165l36 170h620l-36 -170h-620z" />
    <glyph glyph-name="degree" unicode="&#xb0;" horiz-adv-x="832" 
d="M512 688c-196 0 -346 152 -346 341c0 214 165 394 399 394c195 0 347 -152 347 -342c0 -213 -175 -393 -400 -393zM523 857c104 0 207 93 207 212c0 102 -80 185 -176 185c-106 0 -207 -94 -207 -213c0 -103 78 -184 176 -184z" />
    <glyph glyph-name="plusminus" unicode="&#xb1;" 
d="M656 283h-194l56 265h-352l40 190h353l69 325h194l-69 -325h353l-40 -190h-354zM989 190l-40 -190h-900l40 190h900z" />
    <glyph glyph-name="twosuperior" unicode="&#xb2;" horiz-adv-x="718" 
d="M337 1179l-105 105c55 64 146 130 277 130c181 0 265 -115 265 -232c0 -107 -50 -181 -178 -287l-179 -149h295l-34 -158h-545l29 135l323 271c86 71 113 116 113 166c0 49 -38 92 -111 92c-63 0 -108 -31 -150 -73z" />
    <glyph glyph-name="threesuperior" unicode="&#xb3;" horiz-adv-x="717" 
d="M308 1182l-86 120c67 68 153 112 283 112c166 0 268 -92 268 -207c0 -94 -63 -178 -163 -217c65 -30 101 -86 101 -154c0 -145 -124 -262 -325 -262c-130 0 -226 43 -278 115l113 107c38 -46 100 -69 168 -69c98 0 149 49 149 113c0 55 -54 83 -130 83h-90l32 150h85
c98 0 160 49 160 109c0 49 -46 79 -114 79c-73 0 -133 -38 -173 -79z" />
    <glyph glyph-name="acute" unicode="&#xb4;" horiz-adv-x="1000" 
d="M619 1110h-213l220 300h273z" />
    <glyph glyph-name="mu" unicode="&#xb5;" horiz-adv-x="1184" 
d="M168 -400h-212l292 1358h211l-116 -542c-6 -26 -9 -51 -9 -75c0 -93 47 -167 180 -167c136 0 259 82 297 262l111 522h211l-204 -958h-209l21 97c-91 -98 -199 -122 -289 -122c-76 0 -141 19 -194 51z" />
    <glyph glyph-name="paragraph" unicode="&#xb6;" horiz-adv-x="1272" 
d="M484 0l134 629c-254 7 -384 145 -384 344c0 180 111 427 499 427h215l-298 -1400h-166zM751 0l298 1400h166l-298 -1400h-166z" />
    <glyph glyph-name="periodcentered" unicode="&#xb7;" horiz-adv-x="617" 
d="M326 708c93 0 174 -80 174 -174s-81 -176 -174 -176s-175 82 -175 176s82 174 175 174z" />
    <glyph glyph-name="cedilla" unicode="&#xb8;" horiz-adv-x="1000" 
d="M570 7l-162 -328h-235l181 328h216z" />
    <glyph glyph-name="onesuperior" unicode="&#xb9;" horiz-adv-x="545" 
d="M600 1413l-175 -825h-170l126 589l-199 -65l37 177z" />
    <glyph glyph-name="ordmasculine" unicode="&#xba;" horiz-adv-x="853" 
d="M549 1282c196 0 337 -133 337 -323c0 -212 -167 -389 -392 -389c-195 0 -337 132 -337 324c0 211 166 388 392 388zM536 1121c-115 0 -202 -98 -202 -217c0 -102 70 -173 170 -173c117 0 205 98 205 217c0 102 -71 173 -173 173z" />
    <glyph glyph-name="guillemotright" unicode="&#xbb;" horiz-adv-x="1062" 
d="M50 154l286 401l-102 357h213l108 -379l-270 -379h-235zM475 154l286 401l-102 357h213l108 -379l-270 -379h-235z" />
    <glyph glyph-name="onequarter" unicode="&#xbc;" horiz-adv-x="1639" 
d="M1440 1400l-1055 -1400h-221l1055 1400h221zM1500 517l-46 -214h111l-33 -159h-112l-30 -144h-170l30 144h-356l28 136l368 531h195l-352 -508h151l46 214h170zM600 1413l-175 -825h-170l126 589l-199 -65l37 177z" />
    <glyph glyph-name="onehalf" unicode="&#xbd;" horiz-adv-x="1745" 
d="M1440 1400l-1055 -1400h-221l1055 1400h221zM1239 591l-105 105c55 64 146 130 277 130c181 0 265 -115 265 -232c0 -107 -50 -181 -178 -287l-179 -149h295l-34 -158h-545l29 135l323 271c86 71 113 116 113 166c0 49 -38 92 -111 92c-63 0 -108 -31 -150 -73zM600 1413
l-175 -825h-170l126 589l-199 -65l37 177z" />
    <glyph glyph-name="threequarters" unicode="&#xbe;" horiz-adv-x="1791" 
d="M1592 1400l-1055 -1400h-221l1055 1400h221zM1652 517l-46 -214h111l-33 -159h-112l-30 -144h-170l30 144h-356l28 136l368 531h195l-352 -508h151l46 214h170zM308 1182l-86 120c67 68 153 112 283 112c166 0 268 -92 268 -207c0 -94 -63 -178 -163 -217
c65 -30 101 -86 101 -154c0 -145 -124 -262 -325 -262c-130 0 -226 43 -278 115l113 107c38 -46 100 -69 168 -69c98 0 149 49 149 113c0 55 -54 83 -130 83h-90l32 150h85c98 0 160 49 160 109c0 49 -46 79 -114 79c-73 0 -133 -38 -173 -79z" />
    <glyph glyph-name="questiondown" unicode="&#xbf;" horiz-adv-x="867" 
d="M492 496h190l-68 -322h-116c-217 0 -313 -93 -313 -225c0 -131 136 -197 339 -197c31 0 60 2 83 3l-10 -215c-31 -3 -73 -5 -113 -5c-318 0 -537 149 -537 386c0 246 171 425 510 450zM638 633c-93 0 -174 80 -174 174s81 176 174 176s175 -82 175 -176
s-82 -174 -175 -174z" />
    <glyph glyph-name="Agrave" unicode="&#xc0;" horiz-adv-x="1448" 
d="M1059 1400l249 -1400h-233l-61 357h-622l-211 -357h-245l841 1400h282zM876 1174l-357 -603h459zM855 1525l-251 300h266l191 -300h-206z" />
    <glyph glyph-name="Aacute" unicode="&#xc1;" horiz-adv-x="1448" 
d="M1059 1400l249 -1400h-233l-61 357h-622l-211 -357h-245l841 1400h282zM876 1174l-357 -603h459zM985 1525h-213l220 300h273z" />
    <glyph glyph-name="Acircumflex" unicode="&#xc2;" horiz-adv-x="1448" 
d="M1059 1400l249 -1400h-233l-61 357h-622l-211 -357h-245l841 1400h282zM876 1174l-357 -603h459zM1261 1515h-219l-91 166l-156 -166h-234l263 300h286z" />
    <glyph glyph-name="Atilde" unicode="&#xc3;" horiz-adv-x="1448" 
d="M1059 1400l249 -1400h-233l-61 357h-622l-211 -357h-245l841 1400h282zM876 1174l-357 -603h459zM665 1542l-100 141c77 76 149 108 246 108c142 0 197 -68 257 -68c49 0 91 26 145 69l99 -141c-76 -76 -149 -108 -246 -108c-139 0 -194 68 -257 68
c-49 0 -91 -26 -144 -69z" />
    <glyph glyph-name="Adieresis" unicode="&#xc4;" horiz-adv-x="1448" 
d="M1059 1400l249 -1400h-233l-61 357h-622l-211 -357h-245l841 1400h282zM876 1174l-357 -603h459zM762 1814c83 0 148 -65 148 -148s-65 -146 -148 -146s-146 63 -146 146s63 148 146 148zM1162 1814c83 0 148 -65 148 -148s-65 -146 -148 -146s-146 63 -146 146
s63 148 146 148z" />
    <glyph glyph-name="Aring" unicode="&#xc5;" horiz-adv-x="1448" 
d="M1059 1400l249 -1400h-233l-61 357h-622l-211 -357h-245l841 1400h282zM876 1174l-357 -603h459zM948 1498c-136 0 -248 109 -248 245c0 134 112 244 248 244c137 0 249 -110 249 -244c0 -136 -112 -245 -249 -245zM948 1630c60 0 110 49 110 113c0 62 -50 111 -110 111
c-59 0 -109 -49 -109 -111c0 -64 50 -113 109 -113z" />
    <glyph glyph-name="AE" unicode="&#xc6;" horiz-adv-x="2298" 
d="M2106 212l-45 -212h-1005l68 321h-606l-302 -321h-288l1325 1400h1090l-45 -212h-758l-81 -377h739l-45 -212h-739l-82 -387h774zM720 535h450l131 615z" />
    <glyph glyph-name="Ccedilla" unicode="&#xc7;" horiz-adv-x="1458" 
d="M1208 359l129 -165c-121 -122 -271 -198 -441 -216l-147 -299h-245l170 309c-307 60 -522 311 -522 649c0 452 345 788 780 788c146 0 403 -35 558 -268l-173 -139c-85 121 -223 190 -398 190c-288 0 -530 -241 -530 -553c0 -273 195 -464 447 -464c146 0 277 69 372 168
z" />
    <glyph glyph-name="Egrave" unicode="&#xc8;" horiz-adv-x="1321" 
d="M1221 811l-45 -212h-739l-82 -387h774l-45 -212h-1005l298 1400h989l-45 -212h-758l-81 -377h739zM806 1525l-251 300h266l191 -300h-206z" />
    <glyph glyph-name="Eacute" unicode="&#xc9;" horiz-adv-x="1321" 
d="M1221 811l-45 -212h-739l-82 -387h774l-45 -212h-1005l298 1400h989l-45 -212h-758l-81 -377h739zM936 1525h-213l220 300h273z" />
    <glyph glyph-name="Ecircumflex" unicode="&#xca;" horiz-adv-x="1321" 
d="M1221 811l-45 -212h-739l-82 -387h774l-45 -212h-1005l298 1400h989l-45 -212h-758l-81 -377h739zM1212 1515h-219l-91 166l-156 -166h-234l263 300h286z" />
    <glyph glyph-name="Edieresis" unicode="&#xcb;" horiz-adv-x="1321" 
d="M1221 811l-45 -212h-739l-82 -387h774l-45 -212h-1005l298 1400h989l-45 -212h-758l-81 -377h739zM713 1814c83 0 148 -65 148 -148s-65 -146 -148 -146s-146 63 -146 146s63 148 146 148zM1113 1814c83 0 148 -65 148 -148s-65 -146 -148 -146s-146 63 -146 146
s63 148 146 148z" />
    <glyph glyph-name="Igrave" unicode="&#xcc;" horiz-adv-x="592" 
d="M608 1400l-298 -1400h-231l298 1400h231zM429 1525l-251 300h266l191 -300h-206z" />
    <glyph glyph-name="Iacute" unicode="&#xcd;" horiz-adv-x="592" 
d="M608 1400l-298 -1400h-231l298 1400h231zM559 1525h-213l220 300h273z" />
    <glyph glyph-name="Icircumflex" unicode="&#xce;" horiz-adv-x="592" 
d="M608 1400l-298 -1400h-231l298 1400h231zM835 1515h-219l-91 166l-156 -166h-234l263 300h286z" />
    <glyph glyph-name="Idieresis" unicode="&#xcf;" horiz-adv-x="592" 
d="M608 1400l-298 -1400h-231l298 1400h231zM336 1814c83 0 148 -65 148 -148s-65 -146 -148 -146s-146 63 -146 146s63 148 146 148zM736 1814c83 0 148 -65 148 -148s-65 -146 -148 -146s-146 63 -146 146s63 148 146 148z" />
    <glyph glyph-name="Eth" unicode="&#xd0;" horiz-adv-x="1665" 
d="M500 1400h471c397 0 644 -234 644 -598c0 -437 -318 -802 -856 -802h-557l127 598h-195l46 214h195zM954 812l-46 -214h-348l-82 -384h307c371 0 591 251 591 567c0 241 -138 405 -431 405h-260l-79 -374h348z" />
    <glyph glyph-name="Ntilde" unicode="&#xd1;" horiz-adv-x="1562" 
d="M1578 1400l-298 -1400h-211l-538 1046l-222 -1046h-230l298 1400h212l537 -1045l222 1045h230zM709 1542l-100 141c77 76 149 108 246 108c142 0 197 -68 257 -68c49 0 91 26 145 69l99 -141c-76 -76 -149 -108 -246 -108c-139 0 -194 68 -257 68c-49 0 -91 -26 -144 -69
z" />
    <glyph glyph-name="Ograve" unicode="&#xd2;" horiz-adv-x="1666" 
d="M939 1425c382 0 672 -258 672 -649c0 -436 -329 -802 -790 -802c-382 0 -672 258 -672 650c0 435 329 801 790 801zM921 1208c-318 0 -535 -269 -535 -567c0 -272 187 -450 454 -450c316 0 534 269 534 568c0 271 -188 449 -453 449zM895 1525l-251 300h266l191 -300
h-206z" />
    <glyph glyph-name="Oacute" unicode="&#xd3;" horiz-adv-x="1666" 
d="M939 1425c382 0 672 -258 672 -649c0 -436 -329 -802 -790 -802c-382 0 -672 258 -672 650c0 435 329 801 790 801zM921 1208c-318 0 -535 -269 -535 -567c0 -272 187 -450 454 -450c316 0 534 269 534 568c0 271 -188 449 -453 449zM1025 1525h-213l220 300h273z" />
    <glyph glyph-name="Ocircumflex" unicode="&#xd4;" horiz-adv-x="1666" 
d="M939 1425c382 0 672 -258 672 -649c0 -436 -329 -802 -790 -802c-382 0 -672 258 -672 650c0 435 329 801 790 801zM921 1208c-318 0 -535 -269 -535 -567c0 -272 187 -450 454 -450c316 0 534 269 534 568c0 271 -188 449 -453 449zM1301 1515h-219l-91 166l-156 -166
h-234l263 300h286z" />
    <glyph glyph-name="Otilde" unicode="&#xd5;" horiz-adv-x="1666" 
d="M939 1425c382 0 672 -258 672 -649c0 -436 -329 -802 -790 -802c-382 0 -672 258 -672 650c0 435 329 801 790 801zM921 1208c-318 0 -535 -269 -535 -567c0 -272 187 -450 454 -450c316 0 534 269 534 568c0 271 -188 449 -453 449zM705 1542l-100 141
c77 76 149 108 246 108c142 0 197 -68 257 -68c49 0 91 26 145 69l99 -141c-76 -76 -149 -108 -246 -108c-139 0 -194 68 -257 68c-49 0 -91 -26 -144 -69z" />
    <glyph glyph-name="Odieresis" unicode="&#xd6;" horiz-adv-x="1666" 
d="M939 1425c382 0 672 -258 672 -649c0 -436 -329 -802 -790 -802c-382 0 -672 258 -672 650c0 435 329 801 790 801zM921 1208c-318 0 -535 -269 -535 -567c0 -272 187 -450 454 -450c316 0 534 269 534 568c0 271 -188 449 -453 449zM802 1814c83 0 148 -65 148 -148
s-65 -146 -148 -146s-146 63 -146 146s63 148 146 148zM1202 1814c83 0 148 -65 148 -148s-65 -146 -148 -146s-146 63 -146 146s63 148 146 148z" />
    <glyph glyph-name="multiply" unicode="&#xd7;" 
d="M960 247l-148 -123l-217 274l-360 -298l-117 147l347 286l-225 286l148 123l217 -274l360 298l117 -147l-347 -286z" />
    <glyph glyph-name="Oslash" unicode="&#xd8;" horiz-adv-x="1666" 
d="M939 1425c175 0 332 -55 449 -152l174 155l134 -152l-176 -156c58 -97 91 -213 91 -344c0 -436 -329 -802 -790 -802c-168 0 -317 50 -433 138l-157 -140l-134 151l154 137c-65 101 -102 223 -102 364c0 435 329 801 790 801zM921 1208c-318 0 -535 -269 -535 -567
c0 -82 17 -156 48 -218l777 692c-76 59 -176 93 -290 93zM1374 759c0 72 -14 138 -39 196l-769 -685c74 -51 167 -79 274 -79c316 0 534 269 534 568z" />
    <glyph glyph-name="Ugrave" unicode="&#xd9;" horiz-adv-x="1478" 
d="M1512 1400l-182 -858c-87 -414 -333 -567 -660 -567c-281 0 -506 140 -506 438c0 46 6 96 17 150l179 837h231l-178 -831c-9 -44 -13 -83 -13 -118c0 -185 119 -259 297 -259c193 0 349 98 406 367l178 841h231zM873 1525l-251 300h266l191 -300h-206z" />
    <glyph glyph-name="Uacute" unicode="&#xda;" horiz-adv-x="1478" 
d="M1512 1400l-182 -858c-87 -414 -333 -567 -660 -567c-281 0 -506 140 -506 438c0 46 6 96 17 150l179 837h231l-178 -831c-9 -44 -13 -83 -13 -118c0 -185 119 -259 297 -259c193 0 349 98 406 367l178 841h231zM1003 1525h-213l220 300h273z" />
    <glyph glyph-name="Ucircumflex" unicode="&#xdb;" horiz-adv-x="1478" 
d="M1512 1400l-182 -858c-87 -414 -333 -567 -660 -567c-281 0 -506 140 -506 438c0 46 6 96 17 150l179 837h231l-178 -831c-9 -44 -13 -83 -13 -118c0 -185 119 -259 297 -259c193 0 349 98 406 367l178 841h231zM1279 1515h-219l-91 166l-156 -166h-234l263 300h286z" />
    <glyph glyph-name="Udieresis" unicode="&#xdc;" horiz-adv-x="1478" 
d="M1512 1400l-182 -858c-87 -414 -333 -567 -660 -567c-281 0 -506 140 -506 438c0 46 6 96 17 150l179 837h231l-178 -831c-9 -44 -13 -83 -13 -118c0 -185 119 -259 297 -259c193 0 349 98 406 367l178 841h231zM780 1814c83 0 148 -65 148 -148s-65 -146 -148 -146
s-146 63 -146 146s63 148 146 148zM1180 1814c83 0 148 -65 148 -148s-65 -146 -148 -146s-146 63 -146 146s63 148 146 148z" />
    <glyph glyph-name="Yacute" unicode="&#xdd;" horiz-adv-x="1316" 
d="M1500 1400l-710 -833l-120 -567h-231l124 585l-356 815h244l260 -618l504 618h285zM900 1525h-213l220 300h273z" />
    <glyph glyph-name="Thorn" unicode="&#xde;" horiz-adv-x="1305" 
d="M608 1400l-55 -260h259c302 0 457 -153 457 -373c0 -290 -207 -477 -571 -477h-327l-61 -290h-231l298 1400h231zM790 927h-283l-90 -424h291c218 0 325 84 325 243c0 118 -78 181 -243 181z" />
    <glyph glyph-name="germandbls" unicode="&#xdf;" horiz-adv-x="1208" 
d="M44 0l213 1005c62 295 237 460 533 460c238 0 414 -155 414 -358c0 -182 -131 -334 -298 -378c137 -32 235 -199 203 -360c-61 -305 -277 -394 -501 -394c-97 0 -169 16 -227 39l67 186c43 -19 100 -30 153 -30c149 0 268 51 296 214c25 145 -71 243 -268 243h-38l42 190
h1c110 0 187 17 252 63c67 47 103 135 103 203c0 116 -106 185 -210 185c-157 0 -271 -79 -315 -286l-208 -982h-212z" />
    <glyph glyph-name="agrave" unicode="&#xe0;" horiz-adv-x="1211" 
d="M618 983c155 0 252 -55 308 -139l25 114h209l-204 -958h-208l18 85c-68 -65 -154 -111 -279 -111c-235 0 -413 185 -413 435c0 304 232 574 544 574zM540 172c170 0 301 132 322 307s-76 307 -246 307c-186 0 -326 -162 -326 -354c0 -146 89 -260 250 -260zM625 1110
l-251 300h266l191 -300h-206z" />
    <glyph glyph-name="aacute" unicode="&#xe1;" horiz-adv-x="1211" 
d="M618 983c155 0 252 -55 308 -139l25 114h209l-204 -958h-208l18 85c-68 -65 -154 -111 -279 -111c-235 0 -413 185 -413 435c0 304 232 574 544 574zM540 172c170 0 301 132 322 307s-76 307 -246 307c-186 0 -326 -162 -326 -354c0 -146 89 -260 250 -260zM743 1110
h-213l220 300h273z" />
    <glyph glyph-name="acircumflex" unicode="&#xe2;" horiz-adv-x="1211" 
d="M618 983c155 0 252 -55 308 -139l25 114h209l-204 -958h-208l18 85c-68 -65 -154 -111 -279 -111c-235 0 -413 185 -413 435c0 304 232 574 544 574zM540 172c170 0 301 132 322 307s-76 307 -246 307c-186 0 -326 -162 -326 -354c0 -146 89 -260 250 -260zM1026 1100
h-219l-91 166l-156 -166h-234l263 300h286z" />
    <glyph glyph-name="atilde" unicode="&#xe3;" horiz-adv-x="1211" 
d="M618 983c155 0 252 -55 308 -139l25 114h209l-204 -958h-208l18 85c-68 -65 -154 -111 -279 -111c-235 0 -413 185 -413 435c0 304 232 574 544 574zM540 172c170 0 301 132 322 307s-76 307 -246 307c-186 0 -326 -162 -326 -354c0 -146 89 -260 250 -260zM417 1127
l-100 141c77 76 149 108 246 108c142 0 197 -68 257 -68c49 0 91 26 145 69l99 -141c-76 -76 -149 -108 -246 -108c-139 0 -194 68 -257 68c-49 0 -91 -26 -144 -69z" />
    <glyph glyph-name="adieresis" unicode="&#xe4;" horiz-adv-x="1211" 
d="M618 983c155 0 252 -55 308 -139l25 114h209l-204 -958h-208l18 85c-68 -65 -154 -111 -279 -111c-235 0 -413 185 -413 435c0 304 232 574 544 574zM540 172c170 0 301 132 322 307s-76 307 -246 307c-186 0 -326 -162 -326 -354c0 -146 89 -260 250 -260zM514 1399
c83 0 148 -65 148 -148s-65 -146 -148 -146s-146 63 -146 146s63 148 146 148zM914 1399c83 0 148 -65 148 -148s-65 -146 -148 -146s-146 63 -146 146s63 148 146 148z" />
    <glyph glyph-name="aring" unicode="&#xe5;" horiz-adv-x="1211" 
d="M618 983c155 0 252 -55 308 -139l25 114h209l-204 -958h-208l18 85c-68 -65 -154 -111 -279 -111c-235 0 -413 185 -413 435c0 304 232 574 544 574zM540 172c170 0 301 132 322 307s-76 307 -246 307c-186 0 -326 -162 -326 -354c0 -146 89 -260 250 -260zM690 1083
c-136 0 -248 109 -248 245c0 134 112 244 248 244c137 0 249 -110 249 -244c0 -136 -112 -245 -249 -245zM690 1215c60 0 110 49 110 113c0 62 -50 111 -110 111c-59 0 -109 -49 -109 -111c0 -64 50 -113 109 -113z" />
    <glyph glyph-name="ae" unicode="&#xe6;" horiz-adv-x="1735" 
d="M1467 247l89 -155c-116 -84 -228 -118 -378 -118c-180 0 -310 69 -383 179c-102 -102 -228 -178 -399 -178c-208 0 -338 105 -338 278c0 198 161 315 406 315h287c3 20 5 39 5 57c0 108 -70 168 -220 168c-101 0 -179 -35 -246 -74l-77 164c117 73 227 100 360 100
c164 0 275 -55 331 -156c88 100 209 156 367 156c241 0 402 -146 402 -385c0 -68 -16 -148 -36 -196h-697c1 -154 94 -245 261 -245c104 0 185 33 266 90zM1260 797c-177 0 -261 -118 -297 -237h500c2 15 2 24 2 32c0 134 -83 205 -205 205zM435 157c92 0 205 44 300 145
c-5 29 -8 60 -8 92v15h-246c-123 0 -196 -50 -196 -135c0 -74 56 -117 150 -117z" />
    <glyph glyph-name="ccedilla" unicode="&#xe7;" horiz-adv-x="1015" 
d="M1015 792l-164 -118c-85 104 -179 111 -236 111c-181 0 -321 -156 -321 -341c0 -160 111 -270 251 -270c88 0 171 31 236 96l120 -138c-76 -83 -177 -132 -286 -149l-150 -304h-235l173 315c-201 51 -325 223 -325 435c0 300 230 552 547 552c177 0 308 -64 390 -189z
" />
    <glyph glyph-name="egrave" unicode="&#xe8;" horiz-adv-x="1079" 
d="M811 247l89 -155c-116 -84 -228 -118 -378 -118c-290 0 -451 180 -451 420c0 248 163 589 544 589c241 0 402 -146 402 -385c0 -68 -16 -148 -36 -196h-697c1 -154 94 -245 261 -245c104 0 185 33 266 90zM604 797c-177 0 -261 -118 -297 -237h500c2 13 2 23 2 32
c0 134 -83 205 -205 205zM594 1110l-251 300h266l191 -300h-206z" />
    <glyph glyph-name="eacute" unicode="&#xe9;" horiz-adv-x="1079" 
d="M811 247l89 -155c-116 -84 -228 -118 -378 -118c-290 0 -451 180 -451 420c0 248 163 589 544 589c241 0 402 -146 402 -385c0 -68 -16 -148 -36 -196h-697c1 -154 94 -245 261 -245c104 0 185 33 266 90zM604 797c-177 0 -261 -118 -297 -237h500c2 13 2 23 2 32
c0 134 -83 205 -205 205zM712 1110h-213l220 300h273z" />
    <glyph glyph-name="ecircumflex" unicode="&#xea;" horiz-adv-x="1079" 
d="M811 247l89 -155c-116 -84 -228 -118 -378 -118c-290 0 -451 180 -451 420c0 248 163 589 544 589c241 0 402 -146 402 -385c0 -68 -16 -148 -36 -196h-697c1 -154 94 -245 261 -245c104 0 185 33 266 90zM604 797c-177 0 -261 -118 -297 -237h500c2 13 2 23 2 32
c0 134 -83 205 -205 205zM995 1100h-219l-91 166l-156 -166h-234l263 300h286z" />
    <glyph glyph-name="edieresis" unicode="&#xeb;" horiz-adv-x="1079" 
d="M811 247l89 -155c-116 -84 -228 -118 -378 -118c-290 0 -451 180 -451 420c0 248 163 589 544 589c241 0 402 -146 402 -385c0 -68 -16 -148 -36 -196h-697c1 -154 94 -245 261 -245c104 0 185 33 266 90zM604 797c-177 0 -261 -118 -297 -237h500c2 13 2 23 2 32
c0 134 -83 205 -205 205zM483 1399c83 0 148 -65 148 -148s-65 -146 -148 -146s-146 63 -146 146s63 148 146 148zM883 1399c83 0 148 -65 148 -148s-65 -146 -148 -146s-146 63 -146 146s63 148 146 148z" />
    <glyph glyph-name="igrave" unicode="&#xec;" horiz-adv-x="518" 
d="M467 958l-204 -958h-212l204 958h212zM333 1110l-251 300h266l191 -300h-206z" />
    <glyph glyph-name="iacute" unicode="&#xed;" horiz-adv-x="518" 
d="M467 958l-204 -958h-212l204 958h212zM451 1110h-213l220 300h273z" />
    <glyph glyph-name="icircumflex" unicode="&#xee;" horiz-adv-x="518" 
d="M467 958l-204 -958h-212l204 958h212zM734 1100h-219l-91 166l-156 -166h-234l263 300h286z" />
    <glyph glyph-name="idieresis" unicode="&#xef;" horiz-adv-x="518" 
d="M467 958l-204 -958h-212l204 958h212zM222 1399c83 0 148 -65 148 -148s-65 -146 -148 -146s-146 63 -146 146s63 148 146 148zM622 1399c83 0 148 -65 148 -148s-65 -146 -148 -146s-146 63 -146 146s63 148 146 148z" />
    <glyph glyph-name="eth" unicode="&#xf0;" horiz-adv-x="1186" 
d="M976 1421l69 -129l-170 -92c166 -174 239 -391 239 -605c0 -44 -4 -88 -10 -134c-35 -282 -268 -487 -540 -487c-286 0 -488 194 -488 451c0 286 230 528 514 528c123 0 227 -43 300 -119c-34 99 -98 191 -189 272l-221 -120l-68 129l158 85c-59 35 -124 66 -196 92
l96 165c112 -42 208 -94 289 -154zM613 756c-230 0 -320 -194 -320 -319c0 -155 118 -266 285 -266c235 0 321 193 321 317c0 160 -119 268 -286 268z" />
    <glyph glyph-name="ntilde" unicode="&#xf1;" horiz-adv-x="1183" 
d="M732 983c204 0 334 -135 334 -326c0 -32 -3 -66 -11 -101l-119 -556h-211l116 542c6 26 9 51 9 75c0 93 -47 167 -180 167c-136 0 -259 -82 -297 -262l-111 -522h-211l204 958h209l-21 -97c91 98 199 122 289 122zM454 1127l-100 141c77 76 149 108 246 108
c142 0 197 -68 257 -68c49 0 91 26 145 69l99 -141c-76 -76 -149 -108 -246 -108c-139 0 -194 68 -257 68c-49 0 -91 -26 -144 -69z" />
    <glyph glyph-name="ograve" unicode="&#xf2;" horiz-adv-x="1184" 
d="M634 983c281 0 472 -194 472 -456c0 -302 -237 -553 -556 -553c-279 0 -472 192 -472 457c0 301 237 552 556 552zM617 786c-186 0 -324 -156 -324 -342c0 -161 112 -273 271 -273c188 0 327 156 327 342c0 161 -112 273 -274 273zM619 1110l-251 300h266l191 -300h-206z
" />
    <glyph glyph-name="oacute" unicode="&#xf3;" horiz-adv-x="1184" 
d="M634 983c281 0 472 -194 472 -456c0 -302 -237 -553 -556 -553c-279 0 -472 192 -472 457c0 301 237 552 556 552zM617 786c-186 0 -324 -156 -324 -342c0 -161 112 -273 271 -273c188 0 327 156 327 342c0 161 -112 273 -274 273zM737 1110h-213l220 300h273z" />
    <glyph glyph-name="ocircumflex" unicode="&#xf4;" horiz-adv-x="1184" 
d="M634 983c281 0 472 -194 472 -456c0 -302 -237 -553 -556 -553c-279 0 -472 192 -472 457c0 301 237 552 556 552zM617 786c-186 0 -324 -156 -324 -342c0 -161 112 -273 271 -273c188 0 327 156 327 342c0 161 -112 273 -274 273zM1020 1100h-219l-91 166l-156 -166
h-234l263 300h286z" />
    <glyph glyph-name="otilde" unicode="&#xf5;" horiz-adv-x="1184" 
d="M634 983c281 0 472 -194 472 -456c0 -302 -237 -553 -556 -553c-279 0 -472 192 -472 457c0 301 237 552 556 552zM617 786c-186 0 -324 -156 -324 -342c0 -161 112 -273 271 -273c188 0 327 156 327 342c0 161 -112 273 -274 273zM411 1127l-100 141
c77 76 149 108 246 108c142 0 197 -68 257 -68c49 0 91 26 145 69l99 -141c-76 -76 -149 -108 -246 -108c-139 0 -194 68 -257 68c-49 0 -91 -26 -144 -69z" />
    <glyph glyph-name="odieresis" unicode="&#xf6;" horiz-adv-x="1184" 
d="M634 983c281 0 472 -194 472 -456c0 -302 -237 -553 -556 -553c-279 0 -472 192 -472 457c0 301 237 552 556 552zM617 786c-186 0 -324 -156 -324 -342c0 -161 112 -273 271 -273c188 0 327 156 327 342c0 161 -112 273 -274 273zM508 1399c83 0 148 -65 148 -148
s-65 -146 -148 -146s-146 63 -146 146s63 148 146 148zM908 1399c83 0 148 -65 148 -148s-65 -146 -148 -146s-146 63 -146 146s63 148 146 148z" />
    <glyph glyph-name="divide" unicode="&#xf7;" 
d="M1081 628l-40 -190h-900l40 190h900zM672 1013c77 0 144 -66 144 -144c0 -77 -67 -145 -144 -145s-145 68 -145 145c0 78 68 144 145 144zM562 342c77 0 144 -66 144 -144c0 -77 -67 -145 -144 -145s-145 68 -145 145c0 78 68 144 145 144z" />
    <glyph glyph-name="oslash" unicode="&#xf8;" horiz-adv-x="1184" 
d="M634 983c116 0 216 -33 294 -90l125 111l114 -129l-123 -110c40 -69 62 -149 62 -238c0 -302 -237 -553 -556 -553c-115 0 -215 32 -294 89l-125 -111l-115 128l124 111c-40 68 -62 150 -62 240c0 301 237 552 556 552zM617 786c-186 0 -324 -156 -324 -342
c0 -37 6 -71 17 -102l455 406c-41 24 -92 38 -148 38zM891 513c0 36 -6 70 -17 101l-455 -406c41 -24 90 -37 145 -37c188 0 327 156 327 342z" />
    <glyph glyph-name="ugrave" unicode="&#xf9;" horiz-adv-x="1169" 
d="M1127 958l-119 -561c-64 -305 -274 -422 -512 -422c-216 0 -376 122 -376 340c0 34 4 71 12 110l113 533h212l-115 -542c-6 -28 -9 -54 -9 -77c0 -119 77 -167 188 -167c129 0 244 77 283 262l111 524h212zM658 1110l-251 300h266l191 -300h-206z" />
    <glyph glyph-name="uacute" unicode="&#xfa;" horiz-adv-x="1169" 
d="M1127 958l-119 -561c-64 -305 -274 -422 -512 -422c-216 0 -376 122 -376 340c0 34 4 71 12 110l113 533h212l-115 -542c-6 -28 -9 -54 -9 -77c0 -119 77 -167 188 -167c129 0 244 77 283 262l111 524h212zM776 1110h-213l220 300h273z" />
    <glyph glyph-name="ucircumflex" unicode="&#xfb;" horiz-adv-x="1169" 
d="M1127 958l-119 -561c-64 -305 -274 -422 -512 -422c-216 0 -376 122 -376 340c0 34 4 71 12 110l113 533h212l-115 -542c-6 -28 -9 -54 -9 -77c0 -119 77 -167 188 -167c129 0 244 77 283 262l111 524h212zM1059 1100h-219l-91 166l-156 -166h-234l263 300h286z" />
    <glyph glyph-name="udieresis" unicode="&#xfc;" horiz-adv-x="1169" 
d="M1127 958l-119 -561c-64 -305 -274 -422 -512 -422c-216 0 -376 122 -376 340c0 34 4 71 12 110l113 533h212l-115 -542c-6 -28 -9 -54 -9 -77c0 -119 77 -167 188 -167c129 0 244 77 283 262l111 524h212zM547 1399c83 0 148 -65 148 -148s-65 -146 -148 -146
s-146 63 -146 146s63 148 146 148zM947 1399c83 0 148 -65 148 -148s-65 -146 -148 -146s-146 63 -146 146s63 148 146 148z" />
    <glyph glyph-name="yacute" unicode="&#xfd;" horiz-adv-x="1083" 
d="M1176 958l-957 -1364h-240l446 622l-310 742h222l222 -553l379 553h238zM708 1110h-213l220 300h273z" />
    <glyph glyph-name="thorn" unicode="&#xfe;" horiz-adv-x="1212" 
d="M594 -25c-155 0 -252 54 -308 138l-108 -513h-212l391 1840h212l-112 -525c62 42 140 69 238 69c253 0 443 -185 443 -435c0 -304 -232 -574 -544 -574zM672 786c-170 0 -301 -132 -322 -307s76 -307 246 -307c186 0 326 162 326 354c0 146 -89 260 -250 260z" />
    <glyph glyph-name="ydieresis" unicode="&#xff;" horiz-adv-x="1083" 
d="M1176 958l-957 -1364h-240l446 622l-310 742h222l222 -553l379 553h238zM479 1399c83 0 148 -65 148 -148s-65 -146 -148 -146s-146 63 -146 146s63 148 146 148zM879 1399c83 0 148 -65 148 -148s-65 -146 -148 -146s-146 63 -146 146s63 148 146 148z" />
    <glyph glyph-name="Amacron" unicode="&#x100;" horiz-adv-x="1448" 
d="M1059 1400l249 -1400h-233l-61 357h-622l-211 -357h-245l841 1400h282zM876 1174l-357 -603h459zM626 1580l36 170h620l-36 -170h-620z" />
    <glyph glyph-name="amacron" unicode="&#x101;" horiz-adv-x="1211" 
d="M618 983c155 0 252 -55 308 -139l25 114h209l-204 -958h-208l18 85c-68 -65 -154 -111 -279 -111c-235 0 -413 185 -413 435c0 304 232 574 544 574zM540 172c170 0 301 132 322 307s-76 307 -246 307c-186 0 -326 -162 -326 -354c0 -146 89 -260 250 -260zM387 1165
l36 170h620l-36 -170h-620z" />
    <glyph glyph-name="Abreve" unicode="&#x102;" horiz-adv-x="1448" 
d="M1059 1400l249 -1400h-233l-61 357h-622l-211 -357h-245l841 1400h282zM876 1174l-357 -603h459zM621 1799l170 51c13 -119 69 -173 164 -173c89 0 162 54 223 173l166 -51c-97 -197 -225 -299 -408 -299c-179 0 -299 102 -315 299z" />
    <glyph glyph-name="abreve" unicode="&#x103;" horiz-adv-x="1211" 
d="M618 983c155 0 252 -55 308 -139l25 114h209l-204 -958h-208l18 85c-68 -65 -154 -111 -279 -111c-235 0 -413 185 -413 435c0 304 232 574 544 574zM540 172c170 0 301 132 322 307s-76 307 -246 307c-186 0 -326 -162 -326 -354c0 -146 89 -260 250 -260zM363 1384
l170 51c13 -119 69 -173 164 -173c89 0 162 54 223 173l166 -51c-97 -197 -225 -299 -408 -299c-179 0 -299 102 -315 299z" />
    <glyph glyph-name="Aogonek" unicode="&#x104;" horiz-adv-x="1448" 
d="M1158 -201l94 -136c-67 -58 -136 -82 -210 -82c-132 0 -224 68 -224 176c0 115 89 192 252 268l-56 332h-622l-211 -357h-245l841 1400h282l249 -1400h-73c-154 -75 -213 -138 -213 -193c0 -29 19 -46 51 -46c31 0 58 15 85 38zM876 1174l-357 -603h459z" />
    <glyph glyph-name="aogonek" unicode="&#x105;" horiz-adv-x="1211" 
d="M879 -201l94 -136c-67 -58 -136 -82 -210 -82c-132 0 -224 68 -224 176c0 104 74 177 210 247l17 81c-68 -65 -154 -111 -279 -111c-235 0 -413 185 -413 435c0 304 232 574 544 574c155 0 252 -55 308 -139l25 114h209l-204 -958c-154 -75 -213 -138 -213 -193
c0 -29 19 -46 51 -46c31 0 58 15 85 38zM540 172c170 0 301 132 322 307s-76 307 -246 307c-186 0 -326 -162 -326 -354c0 -146 89 -260 250 -260z" />
    <glyph glyph-name="Cacute" unicode="&#x106;" horiz-adv-x="1458" 
d="M1188 339l149 -145c-138 -139 -314 -220 -515 -220c-384 0 -670 273 -670 663c0 452 345 788 780 788c146 0 403 -35 558 -268l-173 -139c-85 121 -223 190 -398 190c-288 0 -530 -241 -530 -553c0 -273 195 -464 447 -464c136 0 259 59 352 148zM1004 1525h-213l220 300
h273z" />
    <glyph glyph-name="cacute" unicode="&#x107;" horiz-adv-x="1015" 
d="M1015 792l-164 -118c-85 104 -179 111 -236 111c-181 0 -321 -156 -321 -341c0 -160 111 -270 251 -270c88 0 171 31 236 96l120 -138c-94 -102 -227 -155 -365 -155c-278 0 -458 197 -458 452c0 300 230 552 547 552c177 0 308 -64 390 -189zM705 1110h-213l220 300h273
z" />
    <glyph glyph-name="Ccircumflex" unicode="&#x108;" horiz-adv-x="1458" 
d="M1188 339l149 -145c-138 -139 -314 -220 -515 -220c-384 0 -670 273 -670 663c0 452 345 788 780 788c146 0 403 -35 558 -268l-173 -139c-85 121 -223 190 -398 190c-288 0 -530 -241 -530 -553c0 -273 195 -464 447 -464c136 0 259 59 352 148zM1280 1515h-219l-91 166
l-156 -166h-234l263 300h286z" />
    <glyph glyph-name="ccircumflex" unicode="&#x109;" horiz-adv-x="1015" 
d="M1015 792l-164 -118c-85 104 -179 111 -236 111c-181 0 -321 -156 -321 -341c0 -160 111 -270 251 -270c88 0 171 31 236 96l120 -138c-94 -102 -227 -155 -365 -155c-278 0 -458 197 -458 452c0 300 230 552 547 552c177 0 308 -64 390 -189zM988 1100h-219l-91 166
l-156 -166h-234l263 300h286z" />
    <glyph glyph-name="Cdotaccent" unicode="&#x10a;" horiz-adv-x="1458" 
d="M1188 339l149 -145c-138 -139 -314 -220 -515 -220c-384 0 -670 273 -670 663c0 452 345 788 780 788c146 0 403 -35 558 -268l-173 -139c-85 121 -223 190 -398 190c-288 0 -530 -241 -530 -553c0 -273 195 -464 447 -464c136 0 259 59 352 148zM973 1827
c87 0 155 -68 155 -156c0 -87 -68 -153 -155 -153c-88 0 -154 66 -154 153c0 88 66 156 154 156z" />
    <glyph glyph-name="cdotaccent" unicode="&#x10b;" horiz-adv-x="1015" 
d="M1015 792l-164 -118c-85 104 -179 111 -236 111c-181 0 -321 -156 -321 -341c0 -160 111 -270 251 -270c88 0 171 31 236 96l120 -138c-94 -102 -227 -155 -365 -155c-278 0 -458 197 -458 452c0 300 230 552 547 552c177 0 308 -64 390 -189zM684 1437
c83 0 148 -65 148 -148s-65 -146 -148 -146s-146 63 -146 146s63 148 146 148z" />
    <glyph glyph-name="Ccaron" unicode="&#x10c;" horiz-adv-x="1458" 
d="M1188 339l149 -145c-138 -139 -314 -220 -515 -220c-384 0 -670 273 -670 663c0 452 345 788 780 788c146 0 403 -35 558 -268l-173 -139c-85 121 -223 190 -398 190c-288 0 -530 -241 -530 -553c0 -273 195 -464 447 -464c136 0 259 59 352 148zM654 1815h219l91 -166
l156 166h234l-263 -300h-286z" />
    <glyph glyph-name="ccaron" unicode="&#x10d;" horiz-adv-x="1015" 
d="M1015 792l-164 -118c-85 104 -179 111 -236 111c-181 0 -321 -156 -321 -341c0 -160 111 -270 251 -270c88 0 171 31 236 96l120 -138c-94 -102 -227 -155 -365 -155c-278 0 -458 197 -458 452c0 300 230 552 547 552c177 0 308 -64 390 -189zM351 1400h219l91 -166
l156 166h234l-263 -300h-286z" />
    <glyph glyph-name="Dcaron" unicode="&#x10e;" horiz-adv-x="1542" 
d="M377 1400h471c397 0 644 -234 644 -598c0 -437 -318 -802 -856 -802h-557zM822 1186h-260l-207 -972h307c371 0 591 251 591 567c0 241 -138 405 -431 405zM598 1815h219l91 -166l156 166h234l-263 -300h-286z" />
    <glyph glyph-name="dcaron" unicode="&#x10f;" horiz-adv-x="1320" 
d="M618 983c155 0 252 -55 308 -139l127 596h211l-306 -1440h-210l18 85c-68 -65 -154 -111 -279 -111c-235 0 -413 185 -413 435c0 304 232 574 544 574zM540 172c170 0 301 132 322 307s-76 307 -246 307c-186 0 -326 -162 -326 -354c0 -146 89 -260 250 -260zM1479 1050
h-174l82 390h234z" />
    <glyph glyph-name="Dcroat" unicode="&#x110;" horiz-adv-x="1665" 
d="M500 1400h471c397 0 644 -234 644 -598c0 -437 -318 -802 -856 -802h-557l127 598h-195l46 214h195zM954 812l-46 -214h-348l-82 -384h307c371 0 591 251 591 567c0 241 -138 405 -431 405h-260l-79 -374h348z" />
    <glyph glyph-name="dcroat" unicode="&#x111;" horiz-adv-x="1213" 
d="M1389 1288l-38 -190h-160l-233 -1098h-210l18 85c-68 -65 -154 -111 -279 -111c-235 0 -413 185 -413 435c0 304 232 574 544 574c155 0 252 -55 308 -139l54 254h-345l38 190h347l33 152h211l-33 -152h158zM540 172c170 0 301 132 322 307s-76 307 -246 307
c-186 0 -326 -162 -326 -354c0 -146 89 -260 250 -260z" />
    <glyph glyph-name="Emacron" unicode="&#x112;" horiz-adv-x="1321" 
d="M1221 811l-45 -212h-739l-82 -387h774l-45 -212h-1005l298 1400h989l-45 -212h-758l-81 -377h739zM577 1580l36 170h620l-36 -170h-620z" />
    <glyph glyph-name="emacron" unicode="&#x113;" horiz-adv-x="1079" 
d="M811 247l89 -155c-116 -84 -228 -118 -378 -118c-290 0 -451 180 -451 420c0 248 163 589 544 589c241 0 402 -146 402 -385c0 -68 -16 -148 -36 -196h-697c1 -154 94 -245 261 -245c104 0 185 33 266 90zM604 797c-177 0 -261 -118 -297 -237h500c2 13 2 23 2 32
c0 134 -83 205 -205 205zM356 1165l36 170h620l-36 -170h-620z" />
    <glyph glyph-name="Ebreve" unicode="&#x114;" horiz-adv-x="1321" 
d="M1221 811l-45 -212h-739l-82 -387h774l-45 -212h-1005l298 1400h989l-45 -212h-758l-81 -377h739zM572 1799l170 51c13 -119 69 -173 164 -173c89 0 162 54 223 173l166 -51c-97 -197 -225 -299 -408 -299c-179 0 -299 102 -315 299z" />
    <glyph glyph-name="ebreve" unicode="&#x115;" horiz-adv-x="1079" 
d="M811 247l89 -155c-116 -84 -228 -118 -378 -118c-290 0 -451 180 -451 420c0 248 163 589 544 589c241 0 402 -146 402 -385c0 -68 -16 -148 -36 -196h-697c1 -154 94 -245 261 -245c104 0 185 33 266 90zM604 797c-177 0 -261 -118 -297 -237h500c2 13 2 23 2 32
c0 134 -83 205 -205 205zM332 1384l170 51c13 -119 69 -173 164 -173c89 0 162 54 223 173l166 -51c-97 -197 -225 -299 -408 -299c-179 0 -299 102 -315 299z" />
    <glyph glyph-name="Edotaccent" unicode="&#x116;" horiz-adv-x="1321" 
d="M1221 811l-45 -212h-739l-82 -387h774l-45 -212h-1005l298 1400h989l-45 -212h-758l-81 -377h739zM905 1827c87 0 155 -68 155 -156c0 -87 -68 -153 -155 -153c-88 0 -154 66 -154 153c0 88 66 156 154 156z" />
    <glyph glyph-name="edotaccent" unicode="&#x117;" horiz-adv-x="1079" 
d="M811 247l89 -155c-116 -84 -228 -118 -378 -118c-290 0 -451 180 -451 420c0 248 163 589 544 589c241 0 402 -146 402 -385c0 -68 -16 -148 -36 -196h-697c1 -154 94 -245 261 -245c104 0 185 33 266 90zM604 797c-177 0 -261 -118 -297 -237h500c2 13 2 23 2 32
c0 134 -83 205 -205 205zM691 1437c83 0 148 -65 148 -148s-65 -146 -148 -146s-146 63 -146 146s63 148 146 148z" />
    <glyph glyph-name="Eogonek" unicode="&#x118;" horiz-adv-x="1321" 
d="M1221 811l-45 -212h-739l-82 -387h774l-45 -212h-131c-143 -57 -183 -120 -183 -174c0 -38 31 -65 89 -65c45 0 87 15 128 42l80 -146c-73 -50 -158 -75 -242 -75c-170 0 -272 86 -272 200c0 87 42 158 152 218h-626l298 1400h989l-45 -212h-758l-81 -377h739z" />
    <glyph glyph-name="eogonek" unicode="&#x119;" horiz-adv-x="1079" 
d="M768 -198l94 -141c-65 -53 -147 -80 -229 -80c-179 0 -294 97 -294 224c0 58 20 120 95 175c-234 33 -363 199 -363 414c0 248 163 589 544 589c241 0 402 -146 402 -385c0 -68 -16 -148 -36 -196h-697c1 -154 94 -245 261 -245c104 0 185 33 266 90l89 -155
c-63 -46 -125 -75 -191 -97c-134 -45 -162 -111 -162 -158c0 -46 35 -77 98 -77c45 0 84 15 123 42zM604 797c-177 0 -261 -118 -297 -237h500c2 13 2 23 2 32c0 134 -83 205 -205 205z" />
    <glyph glyph-name="Ecaron" unicode="&#x11a;" horiz-adv-x="1321" 
d="M1221 811l-45 -212h-739l-82 -387h774l-45 -212h-1005l298 1400h989l-45 -212h-758l-81 -377h739zM586 1815h219l91 -166l156 166h234l-263 -300h-286z" />
    <glyph glyph-name="ecaron" unicode="&#x11b;" horiz-adv-x="1079" 
d="M811 247l89 -155c-116 -84 -228 -118 -378 -118c-290 0 -451 180 -451 420c0 248 163 589 544 589c241 0 402 -146 402 -385c0 -68 -16 -148 -36 -196h-697c1 -154 94 -245 261 -245c104 0 185 33 266 90zM604 797c-177 0 -261 -118 -297 -237h500c2 13 2 23 2 32
c0 134 -83 205 -205 205zM358 1400h219l91 -166l156 166h234l-263 -300h-286z" />
    <glyph glyph-name="Gcircumflex" unicode="&#x11c;" horiz-adv-x="1609" 
d="M1451 1197l-170 -154c-80 103 -204 165 -359 165c-295 0 -536 -234 -536 -567c0 -276 185 -450 448 -450c239 0 395 127 456 354h-376l45 209h597c0 -18 -3 -45 -6 -68c-51 -414 -331 -712 -737 -712c-379 0 -664 266 -664 646c0 460 348 805 792 805
c129 0 363 -36 510 -228zM1287 1515h-219l-91 166l-156 -166h-234l263 300h286z" />
    <glyph glyph-name="gcircumflex" unicode="&#x11d;" horiz-adv-x="1209" 
d="M1158 958l-191 -897c-64 -300 -249 -471 -518 -471c-179 0 -324 48 -445 139l106 170c89 -74 208 -120 343 -120c165 0 273 121 305 277l2 12c-63 -44 -141 -69 -245 -69c-253 0 -438 182 -438 422c0 312 233 562 539 562c156 0 253 -55 308 -139l25 114h209zM538 195
c189 0 322 138 322 337c0 149 -101 254 -246 254c-188 0 -320 -140 -320 -343c0 -146 100 -248 244 -248zM1016 1100h-219l-91 166l-156 -166h-234l263 300h286z" />
    <glyph glyph-name="Gbreve" unicode="&#x11e;" horiz-adv-x="1609" 
d="M1451 1197l-170 -154c-80 103 -204 165 -359 165c-295 0 -536 -234 -536 -567c0 -276 185 -450 448 -450c239 0 395 127 456 354h-376l45 209h597c0 -18 -3 -45 -6 -68c-51 -414 -331 -712 -737 -712c-379 0 -664 266 -664 646c0 460 348 805 792 805
c129 0 363 -36 510 -228zM647 1799l170 51c13 -119 69 -173 164 -173c89 0 162 54 223 173l166 -51c-97 -197 -225 -299 -408 -299c-179 0 -299 102 -315 299z" />
    <glyph glyph-name="gbreve" unicode="&#x11f;" horiz-adv-x="1209" 
d="M1158 958l-191 -897c-64 -300 -249 -471 -518 -471c-179 0 -324 48 -445 139l106 170c89 -74 208 -120 343 -120c165 0 273 121 305 277l2 12c-63 -44 -141 -69 -245 -69c-253 0 -438 182 -438 422c0 312 233 562 539 562c156 0 253 -55 308 -139l25 114h209zM538 195
c189 0 322 138 322 337c0 149 -101 254 -246 254c-188 0 -320 -140 -320 -343c0 -146 100 -248 244 -248zM353 1384l170 51c13 -119 69 -173 164 -173c89 0 162 54 223 173l166 -51c-97 -197 -225 -299 -408 -299c-179 0 -299 102 -315 299z" />
    <glyph glyph-name="Gdotaccent" unicode="&#x120;" horiz-adv-x="1609" 
d="M1451 1197l-170 -154c-80 103 -204 165 -359 165c-295 0 -536 -234 -536 -567c0 -276 185 -450 448 -450c239 0 395 127 456 354h-376l45 209h597c0 -18 -3 -45 -6 -68c-51 -414 -331 -712 -737 -712c-379 0 -664 266 -664 646c0 460 348 805 792 805
c129 0 363 -36 510 -228zM980 1827c87 0 155 -68 155 -156c0 -87 -68 -153 -155 -153c-88 0 -154 66 -154 153c0 88 66 156 154 156z" />
    <glyph glyph-name="gdotaccent" unicode="&#x121;" horiz-adv-x="1209" 
d="M1158 958l-191 -897c-64 -300 -249 -471 -518 -471c-179 0 -324 48 -445 139l106 170c89 -74 208 -120 343 -120c165 0 273 121 305 277l2 12c-63 -44 -141 -69 -245 -69c-253 0 -438 182 -438 422c0 312 233 562 539 562c156 0 253 -55 308 -139l25 114h209zM538 195
c189 0 322 138 322 337c0 149 -101 254 -246 254c-188 0 -320 -140 -320 -343c0 -146 100 -248 244 -248zM712 1437c83 0 148 -65 148 -148s-65 -146 -148 -146s-146 63 -146 146s63 148 146 148z" />
    <glyph glyph-name="Gcommaaccent" unicode="&#x122;" horiz-adv-x="1609" 
d="M1451 1197l-170 -154c-80 103 -204 165 -359 165c-295 0 -536 -234 -536 -567c0 -276 185 -450 448 -450c239 0 395 127 456 354h-376l45 209h597c0 -18 -3 -45 -6 -68c-51 -414 -331 -712 -737 -712c-379 0 -664 266 -664 646c0 460 348 805 792 805
c129 0 363 -36 510 -228zM628 -87h234l-151 -368h-198z" />
    <glyph glyph-name="gcommaaccent" unicode="&#x123;" horiz-adv-x="1209" 
d="M1158 958l-191 -897c-64 -300 -249 -471 -518 -471c-179 0 -324 48 -445 139l106 170c89 -74 208 -120 343 -120c165 0 273 121 305 277l2 12c-63 -44 -141 -69 -245 -69c-253 0 -438 182 -438 422c0 312 233 562 539 562c156 0 253 -55 308 -139l25 114h209zM538 195
c189 0 322 138 322 337c0 149 -101 254 -246 254c-188 0 -320 -140 -320 -343c0 -146 100 -248 244 -248zM792 1110h-234l151 368h198z" />
    <glyph glyph-name="Hcircumflex" unicode="&#x124;" horiz-adv-x="1563" 
d="M608 1400l-125 -588h739l126 588h231l-299 -1400h-231l127 598h-739l-127 -598h-231l298 1400h231zM1325 1515h-219l-91 166l-156 -166h-234l263 300h286z" />
    <glyph glyph-name="hcircumflex" unicode="&#x125;" horiz-adv-x="1183" 
d="M720 983c212 0 345 -136 345 -331c0 -34 -4 -70 -12 -107l-117 -545h-211l116 542c6 26 9 51 9 75c0 96 -50 167 -179 167c-136 0 -259 -82 -297 -262l-111 -522h-212l307 1440h210l-117 -554c87 77 186 97 269 97zM1143 1542h-219l-91 166l-156 -166h-234l263 300h286z
" />
    <glyph glyph-name="Hbar" unicode="&#x126;" horiz-adv-x="1580" 
d="M1673 1180l-38 -190h-133l-211 -990h-231l127 598h-739l-127 -598h-231l210 990h-135l38 190h138l47 220h231l-47 -220h740l47 220h231l-47 -220h130zM494 812h739l38 178h-739z" />
    <glyph glyph-name="hbar" unicode="&#x127;" horiz-adv-x="1183" 
d="M892 1288l-38 -190h-358l-45 -212c87 77 186 97 269 97c212 0 345 -136 345 -331c0 -34 -4 -70 -12 -107l-117 -545h-211l116 542c6 26 9 51 9 75c0 96 -50 167 -179 167c-136 0 -259 -82 -297 -262l-111 -522h-212l234 1098h-147l38 190h149l33 152h210l-32 -152h356z
" />
    <glyph glyph-name="Itilde" unicode="&#x128;" horiz-adv-x="592" 
d="M608 1400l-298 -1400h-231l298 1400h231zM239 1542l-100 141c77 76 149 108 246 108c142 0 197 -68 257 -68c49 0 91 26 145 69l99 -141c-76 -76 -149 -108 -246 -108c-139 0 -194 68 -257 68c-49 0 -91 -26 -144 -69z" />
    <glyph glyph-name="itilde" unicode="&#x129;" horiz-adv-x="518" 
d="M467 958l-204 -958h-212l204 958h212zM125 1127l-100 141c77 76 149 108 246 108c142 0 197 -68 257 -68c49 0 91 26 145 69l99 -141c-76 -76 -149 -108 -246 -108c-139 0 -194 68 -257 68c-49 0 -91 -26 -144 -69z" />
    <glyph glyph-name="Imacron" unicode="&#x12a;" horiz-adv-x="592" 
d="M608 1400l-298 -1400h-231l298 1400h231zM200 1580l36 170h620l-36 -170h-620z" />
    <glyph glyph-name="imacron" unicode="&#x12b;" horiz-adv-x="518" 
d="M467 958l-204 -958h-212l204 958h212zM95 1165l36 170h620l-36 -170h-620z" />
    <glyph glyph-name="Ibreve" unicode="&#x12c;" horiz-adv-x="592" 
d="M608 1400l-298 -1400h-231l298 1400h231zM195 1799l170 51c13 -119 69 -173 164 -173c89 0 162 54 223 173l166 -51c-97 -197 -225 -299 -408 -299c-179 0 -299 102 -315 299z" />
    <glyph glyph-name="ibreve" unicode="&#x12d;" horiz-adv-x="518" 
d="M467 958l-204 -958h-212l204 958h212zM71 1384l170 51c13 -119 69 -173 164 -173c89 0 162 54 223 173l166 -51c-97 -197 -225 -299 -408 -299c-179 0 -299 102 -315 299z" />
    <glyph glyph-name="Iogonek" unicode="&#x12e;" horiz-adv-x="592" 
d="M283 -207l94 -141c-61 -51 -124 -71 -191 -71c-139 0 -239 73 -239 185c0 83 37 156 165 234h-33l298 1400h231l-298 -1400c-127 -78 -162 -148 -162 -192c0 -30 20 -49 56 -49c28 0 54 13 79 34z" />
    <glyph glyph-name="iogonek" unicode="&#x12f;" horiz-adv-x="518" 
d="M467 958l-204 -958c-128 -79 -163 -148 -163 -192c0 -30 20 -49 56 -49c28 0 54 13 79 34l94 -141c-61 -51 -124 -71 -191 -71c-139 0 -239 73 -239 185c0 83 37 156 165 234h-13l204 958h212zM430 1437c83 0 148 -65 148 -148s-65 -146 -148 -146s-146 63 -146 146
s63 148 146 148z" />
    <glyph glyph-name="Idotaccent" unicode="&#x130;" horiz-adv-x="592" 
d="M608 1400l-298 -1400h-231l298 1400h231zM528 1827c87 0 155 -68 155 -156c0 -87 -68 -153 -155 -153c-88 0 -154 66 -154 153c0 88 66 156 154 156z" />
    <glyph glyph-name="dotlessi" unicode="&#x131;" horiz-adv-x="518" 
d="M467 958l-204 -958h-212l204 958h212z" />
    <glyph glyph-name="IJ" unicode="&#x132;" horiz-adv-x="1688" 
d="M608 1400l-298 -1400h-231l298 1400h231zM1709 1400l-195 -937c-68 -328 -236 -488 -519 -488c-177 0 -335 82 -423 220l165 147c52 -82 147 -150 267 -150c160 0 244 105 290 324l185 884h230z" />
    <glyph glyph-name="ij" unicode="&#x133;" horiz-adv-x="1047" 
d="M995 958l-230 -1085c-42 -197 -170 -292 -326 -292c-64 0 -127 17 -168 38l76 173c27 -11 56 -14 79 -14c59 0 115 41 133 123l224 1057h212zM958 1437c83 0 148 -65 148 -148s-65 -146 -148 -146s-146 63 -146 146s63 148 146 148zM467 958l-204 -958h-212l204 958h212z
M430 1437c83 0 148 -65 148 -148s-65 -146 -148 -146s-146 63 -146 146s63 148 146 148z" />
    <glyph glyph-name="Jcircumflex" unicode="&#x134;" horiz-adv-x="1096" 
d="M1117 1400l-195 -937c-68 -328 -236 -488 -519 -488c-177 0 -335 82 -423 220l165 147c52 -82 147 -150 267 -150c160 0 244 105 290 324l185 884h230zM1345 1515h-219l-91 166l-156 -166h-234l263 300h286z" />
    <glyph glyph-name="jcircumflex" unicode="&#x135;" horiz-adv-x="529" 
d="M477 958l-230 -1085c-42 -197 -170 -292 -326 -292c-64 0 -127 17 -168 38l76 173c27 -11 56 -14 79 -14c59 0 115 41 133 123l224 1057h212zM744 1100h-219l-91 166l-156 -166h-234l263 300h286z" />
    <glyph glyph-name="Kcommaaccent" unicode="&#x136;" horiz-adv-x="1380" 
d="M608 1400l-126 -589h107l605 589h303l-733 -693l529 -707h-274l-444 597h-138l-127 -597h-231l298 1400h231zM522 -87h234l-151 -368h-198z" />
    <glyph glyph-name="kcommaaccent" unicode="&#x137;" horiz-adv-x="1053" 
d="M569 1440l-180 -846h95l359 364h273l-480 -471l305 -487h-236l-246 404h-110l-86 -404h-212l306 1440h212zM344 -87h234l-151 -368h-198z" />
    <glyph glyph-name="kgreenlandic" unicode="&#x138;" horiz-adv-x="1052" 
d="M635 487l305 -487h-236l-246 404h-109l-86 -404h-212l204 958h212l-78 -364h94l359 364h273z" />
    <glyph glyph-name="Lacute" unicode="&#x139;" 
d="M608 1400l-253 -1186h753l-46 -214h-983l298 1400h231zM559 1525h-213l220 300h273z" />
    <glyph glyph-name="lacute" unicode="&#x13a;" horiz-adv-x="518" 
d="M569 1440l-306 -1440h-212l306 1440h212zM521 1525h-213l220 300h273z" />
    <glyph glyph-name="Lcommaaccent" unicode="&#x13b;" 
d="M608 1400l-253 -1186h753l-46 -214h-983l298 1400h231zM478 -87h234l-151 -368h-198z" />
    <glyph glyph-name="lcommaaccent" unicode="&#x13c;" horiz-adv-x="518" 
d="M569 1440l-306 -1440h-212l306 1440h212zM25 -87h234l-151 -368h-198z" />
    <glyph glyph-name="Lcaron" unicode="&#x13d;" 
d="M608 1400l-253 -1186h753l-46 -214h-983l298 1400h231zM898 1010h-174l82 390h234z" />
    <glyph glyph-name="lcaron" unicode="&#x13e;" horiz-adv-x="625" 
d="M569 1440l-306 -1440h-212l306 1440h212zM784 1050h-174l82 390h234z" />
    <glyph glyph-name="Ldot" unicode="&#x13f;" 
d="M608 1400l-253 -1186h753l-46 -214h-983l298 1400h231zM906 861c87 0 155 -68 155 -156c0 -87 -68 -153 -155 -153c-88 0 -154 66 -154 153c0 88 66 156 154 156z" />
    <glyph glyph-name="ldot" unicode="&#x140;" horiz-adv-x="680" 
d="M569 1440l-306 -1440h-212l306 1440h212zM648 878c83 0 148 -65 148 -148s-65 -146 -148 -146s-146 63 -146 146s63 148 146 148z" />
    <glyph glyph-name="Lslash" unicode="&#x141;" horiz-adv-x="1338" 
d="M746 1400l-117 -549l468 232l-53 -252l-469 -233l-82 -384h753l-46 -214h-983l100 471l-234 -116l53 252l235 116l144 677h231z" />
    <glyph glyph-name="lslash" unicode="&#x142;" horiz-adv-x="674" 
d="M643 1440l-108 -509l215 118l-49 -229l-215 -118l-149 -702h-212l121 571l-205 -112l49 229l205 112l136 640h212z" />
    <glyph glyph-name="Nacute" unicode="&#x143;" horiz-adv-x="1562" 
d="M1578 1400l-298 -1400h-211l-538 1046l-222 -1046h-230l298 1400h212l537 -1045l222 1045h230zM1029 1525h-213l220 300h273z" />
    <glyph glyph-name="nacute" unicode="&#x144;" horiz-adv-x="1183" 
d="M732 983c204 0 334 -135 334 -326c0 -32 -3 -66 -11 -101l-119 -556h-211l116 542c6 26 9 51 9 75c0 93 -47 167 -180 167c-136 0 -259 -82 -297 -262l-111 -522h-211l204 958h209l-21 -97c91 98 199 122 289 122zM780 1110h-213l220 300h273z" />
    <glyph glyph-name="Ncommaaccent" unicode="&#x145;" horiz-adv-x="1562" 
d="M1578 1400l-298 -1400h-211l-538 1046l-222 -1046h-230l298 1400h212l537 -1045l222 1045h230zM578 -87h234l-151 -368h-198z" />
    <glyph glyph-name="ncommaaccent" unicode="&#x146;" horiz-adv-x="1183" 
d="M732 983c204 0 334 -135 334 -326c0 -32 -3 -66 -11 -101l-119 -556h-211l116 542c6 26 9 51 9 75c0 93 -47 167 -180 167c-136 0 -259 -82 -297 -262l-111 -522h-211l204 958h209l-21 -97c91 98 199 122 289 122zM362 -87h234l-151 -368h-198z" />
    <glyph glyph-name="Ncaron" unicode="&#x147;" horiz-adv-x="1562" 
d="M1578 1400l-298 -1400h-211l-538 1046l-222 -1046h-230l298 1400h212l537 -1045l222 1045h230zM679 1815h219l91 -166l156 166h234l-263 -300h-286z" />
    <glyph glyph-name="ncaron" unicode="&#x148;" horiz-adv-x="1183" 
d="M732 983c204 0 334 -135 334 -326c0 -32 -3 -66 -11 -101l-119 -556h-211l116 542c6 26 9 51 9 75c0 93 -47 167 -180 167c-136 0 -259 -82 -297 -262l-111 -522h-211l204 958h209l-21 -97c91 98 199 122 289 122zM426 1400h219l91 -166l156 166h234l-263 -300h-286z" />
    <glyph glyph-name="napostrophe" unicode="&#x149;" horiz-adv-x="1452" 
d="M357 1440h245l-223 -545h-193zM1001 983c204 0 334 -135 334 -326c0 -32 -3 -66 -11 -101l-119 -556h-211l116 542c6 26 9 51 9 75c0 93 -47 167 -180 167c-136 0 -259 -82 -297 -262l-111 -522h-211l204 958h209l-21 -97c91 98 199 122 289 122z" />
    <glyph glyph-name="Eng" unicode="&#x14a;" horiz-adv-x="1562" 
d="M1578 1400l-314 -1474c-45 -214 -178 -345 -401 -345c-113 0 -213 29 -277 80l106 187c45 -32 99 -50 172 -50c102 0 161 65 184 178l9 46l-526 1024l-222 -1046h-230l298 1400h212l537 -1045l222 1045h230z" />
    <glyph glyph-name="eng" unicode="&#x14b;" horiz-adv-x="1185" 
d="M732 983c204 0 334 -135 334 -326c0 -32 -3 -66 -11 -101l-131 -613c-42 -197 -170 -292 -326 -292c-64 0 -127 17 -168 38l76 173c27 -11 56 -14 79 -14c59 0 115 41 133 123l123 571c6 26 9 51 9 75c0 93 -47 167 -180 167c-136 0 -259 -82 -297 -262l-111 -522h-211
l204 958h209l-21 -97c91 98 199 122 289 122z" />
    <glyph glyph-name="Omacron" unicode="&#x14c;" horiz-adv-x="1666" 
d="M939 1425c382 0 672 -258 672 -649c0 -436 -329 -802 -790 -802c-382 0 -672 258 -672 650c0 435 329 801 790 801zM921 1208c-318 0 -535 -269 -535 -567c0 -272 187 -450 454 -450c316 0 534 269 534 568c0 271 -188 449 -453 449zM666 1580l36 170h620l-36 -170h-620z
" />
    <glyph glyph-name="omacron" unicode="&#x14d;" horiz-adv-x="1184" 
d="M634 983c281 0 472 -194 472 -456c0 -302 -237 -553 -556 -553c-279 0 -472 192 -472 457c0 301 237 552 556 552zM617 786c-186 0 -324 -156 -324 -342c0 -161 112 -273 271 -273c188 0 327 156 327 342c0 161 -112 273 -274 273zM381 1165l36 170h620l-36 -170h-620z
" />
    <glyph glyph-name="Obreve" unicode="&#x14e;" horiz-adv-x="1666" 
d="M939 1425c382 0 672 -258 672 -649c0 -436 -329 -802 -790 -802c-382 0 -672 258 -672 650c0 435 329 801 790 801zM921 1208c-318 0 -535 -269 -535 -567c0 -272 187 -450 454 -450c316 0 534 269 534 568c0 271 -188 449 -453 449zM661 1799l170 51
c13 -119 69 -173 164 -173c89 0 162 54 223 173l166 -51c-97 -197 -225 -299 -408 -299c-179 0 -299 102 -315 299z" />
    <glyph glyph-name="obreve" unicode="&#x14f;" horiz-adv-x="1184" 
d="M634 983c281 0 472 -194 472 -456c0 -302 -237 -553 -556 -553c-279 0 -472 192 -472 457c0 301 237 552 556 552zM617 786c-186 0 -324 -156 -324 -342c0 -161 112 -273 271 -273c188 0 327 156 327 342c0 161 -112 273 -274 273zM357 1384l170 51
c13 -119 69 -173 164 -173c89 0 162 54 223 173l166 -51c-97 -197 -225 -299 -408 -299c-179 0 -299 102 -315 299z" />
    <glyph glyph-name="Ohungarumlaut" unicode="&#x150;" horiz-adv-x="1666" 
d="M939 1425c382 0 672 -258 672 -649c0 -436 -329 -802 -790 -802c-382 0 -672 258 -672 650c0 435 329 801 790 801zM921 1208c-318 0 -535 -269 -535 -567c0 -272 187 -450 454 -450c316 0 534 269 534 568c0 271 -188 449 -453 449zM1246 1525h-216l231 300h251z
M904 1525h-219l209 300h243z" />
    <glyph glyph-name="ohungarumlaut" unicode="&#x151;" horiz-adv-x="1184" 
d="M634 983c281 0 472 -194 472 -456c0 -302 -237 -553 -556 -553c-279 0 -472 192 -472 457c0 301 237 552 556 552zM617 786c-186 0 -324 -156 -324 -342c0 -161 112 -273 271 -273c188 0 327 156 327 342c0 161 -112 273 -274 273zM940 1110h-216l231 300h251zM598 1110
h-219l209 300h243z" />
    <glyph glyph-name="OE" unicode="&#x152;" horiz-adv-x="2193" 
d="M2093 811l-45 -212h-739l-82 -387h774l-45 -212h-1168c-397 0 -644 234 -644 598c0 437 318 802 856 802h1238l-45 -212h-758l-81 -377h739zM383 619c0 -241 138 -405 431 -405h182l207 972h-229c-371 0 -591 -251 -591 -567z" />
    <glyph glyph-name="oe" unicode="&#x153;" horiz-adv-x="1883" 
d="M1615 247l89 -155c-116 -84 -228 -118 -378 -118c-176 0 -301 71 -370 185c-97 -115 -240 -185 -406 -185c-279 0 -472 192 -472 457c0 301 237 552 556 552c169 0 304 -77 381 -200c85 117 217 200 404 200c241 0 402 -146 402 -385c0 -68 -16 -148 -36 -196h-697
c1 -154 94 -245 261 -245c104 0 185 33 266 90zM617 786c-186 0 -324 -156 -324 -342c0 -161 112 -273 271 -273c188 0 327 156 327 342c0 161 -112 273 -274 273zM1408 797c-177 0 -261 -118 -297 -237h500c2 13 2 22 2 32c0 134 -83 205 -205 205z" />
    <glyph glyph-name="Racute" unicode="&#x154;" horiz-adv-x="1341" 
d="M377 1400h510c300 0 459 -154 459 -359c0 -188 -124 -452 -537 -452h-21l416 -589h-269l-398 589h-102l-125 -589h-231zM865 1186h-303l-83 -392h337c242 0 292 122 292 222c0 104 -82 170 -243 170zM893 1525h-213l220 300h273z" />
    <glyph glyph-name="racute" unicode="&#x155;" horiz-adv-x="834" 
d="M464 958l-21 -97c91 98 199 122 289 122c51 0 111 -12 156 -34l-81 -199c-34 22 -87 34 -137 34c-136 0 -259 -82 -297 -262l-111 -522h-211l204 958h209zM644 1110h-213l220 300h273z" />
    <glyph glyph-name="Rcommaaccent" unicode="&#x156;" horiz-adv-x="1341" 
d="M377 1400h510c300 0 459 -154 459 -359c0 -188 -124 -452 -537 -452h-21l416 -589h-269l-398 589h-102l-125 -589h-231zM865 1186h-303l-83 -392h337c242 0 292 122 292 222c0 104 -82 170 -243 170zM500 -87h234l-151 -368h-198z" />
    <glyph glyph-name="rcommaaccent" unicode="&#x157;" horiz-adv-x="834" 
d="M464 958l-21 -97c91 98 199 122 289 122c51 0 111 -12 156 -34l-81 -199c-34 22 -87 34 -137 34c-136 0 -259 -82 -297 -262l-111 -522h-211l204 958h209zM25 -87h234l-151 -368h-198z" />
    <glyph glyph-name="Rcaron" unicode="&#x158;" horiz-adv-x="1341" 
d="M377 1400h510c300 0 459 -154 459 -359c0 -188 -124 -452 -537 -452h-21l416 -589h-269l-398 589h-102l-125 -589h-231zM865 1186h-303l-83 -392h337c242 0 292 122 292 222c0 104 -82 170 -243 170zM543 1815h219l91 -166l156 166h234l-263 -300h-286z" />
    <glyph glyph-name="rcaron" unicode="&#x159;" horiz-adv-x="834" 
d="M464 958l-21 -97c91 98 199 122 289 122c51 0 111 -12 156 -34l-81 -199c-34 22 -87 34 -137 34c-136 0 -259 -82 -297 -262l-111 -522h-211l204 958h209zM290 1400h219l91 -166l156 166h234l-263 -300h-286z" />
    <glyph glyph-name="Sacute" unicode="&#x15a;" horiz-adv-x="1333" 
d="M1322 1264l-126 -183c-148 98 -292 130 -425 130c-218 0 -300 -110 -300 -218c0 -101 82 -151 219 -176l104 -19c221 -39 419 -139 419 -373c0 -271 -237 -451 -581 -451c-133 0 -397 42 -567 197l135 183c120 -127 344 -166 443 -166c185 0 333 77 333 211
c0 97 -85 150 -261 182l-108 20c-217 39 -376 157 -376 363c0 235 178 461 554 461c173 0 360 -39 537 -161zM880 1525h-213l220 300h273z" />
    <glyph glyph-name="sacute" unicode="&#x15b;" horiz-adv-x="959" 
d="M947 878l-110 -160c-74 47 -204 82 -301 82c-111 0 -180 -39 -187 -104c-9 -83 56 -102 138 -115l69 -11c224 -37 315 -144 298 -291c-20 -174 -176 -303 -427 -303c-140 0 -309 41 -430 130l116 155c83 -59 185 -103 311 -103c132 0 206 45 214 117
c6 57 -38 92 -141 108l-72 11c-216 31 -311 140 -294 291c22 190 177 297 407 297c166 0 308 -39 409 -104zM656 1110h-213l220 300h273z" />
    <glyph glyph-name="Scircumflex" unicode="&#x15c;" horiz-adv-x="1333" 
d="M1322 1264l-126 -183c-148 98 -292 130 -425 130c-218 0 -300 -110 -300 -218c0 -101 82 -151 219 -176l104 -19c221 -39 419 -139 419 -373c0 -271 -237 -451 -581 -451c-133 0 -397 42 -567 197l135 183c120 -127 344 -166 443 -166c185 0 333 77 333 211
c0 97 -85 150 -261 182l-108 20c-217 39 -376 157 -376 363c0 235 178 461 554 461c173 0 360 -39 537 -161zM1156 1515h-219l-91 166l-156 -166h-234l263 300h286z" />
    <glyph glyph-name="scircumflex" unicode="&#x15d;" horiz-adv-x="959" 
d="M947 878l-110 -160c-74 47 -204 82 -301 82c-111 0 -180 -39 -187 -104c-9 -83 56 -102 138 -115l69 -11c224 -37 315 -144 298 -291c-20 -174 -176 -303 -427 -303c-140 0 -309 41 -430 130l116 155c83 -59 185 -103 311 -103c132 0 206 45 214 117
c6 57 -38 92 -141 108l-72 11c-216 31 -311 140 -294 291c22 190 177 297 407 297c166 0 308 -39 409 -104zM939 1100h-219l-91 166l-156 -166h-234l263 300h286z" />
    <glyph glyph-name="Scedilla" unicode="&#x15e;" horiz-adv-x="1333" 
d="M1322 1264l-126 -183c-148 98 -292 130 -425 130c-218 0 -300 -110 -300 -218c0 -101 82 -151 219 -176l104 -19c221 -39 419 -139 419 -373c0 -231 -172 -395 -435 -439l-151 -307h-245l165 300c-141 14 -343 65 -482 192l135 183c120 -127 344 -166 443 -166
c185 0 333 77 333 211c0 97 -85 150 -261 182l-108 20c-217 39 -376 157 -376 363c0 235 178 461 554 461c173 0 360 -39 537 -161z" />
    <glyph glyph-name="scedilla" unicode="&#x15f;" horiz-adv-x="959" 
d="M947 878l-110 -160c-74 47 -204 82 -301 82c-111 0 -180 -39 -187 -104c-9 -83 56 -102 138 -115l69 -11c224 -37 315 -144 298 -291s-131 -262 -318 -294l-151 -306h-235l168 305c-112 16 -230 55 -321 122l116 155c83 -59 185 -103 311 -103c132 0 206 45 214 117
c6 57 -38 92 -141 108l-72 11c-216 31 -311 140 -294 291c22 190 177 297 407 297c166 0 308 -39 409 -104z" />
    <glyph glyph-name="Scaron" unicode="&#x160;" horiz-adv-x="1333" 
d="M1322 1264l-126 -183c-148 98 -292 130 -425 130c-218 0 -300 -110 -300 -218c0 -101 82 -151 219 -176l104 -19c221 -39 419 -139 419 -373c0 -271 -237 -451 -581 -451c-133 0 -397 42 -567 197l135 183c120 -127 344 -166 443 -166c185 0 333 77 333 211
c0 97 -85 150 -261 182l-108 20c-217 39 -376 157 -376 363c0 235 178 461 554 461c173 0 360 -39 537 -161zM530 1815h219l91 -166l156 166h234l-263 -300h-286z" />
    <glyph glyph-name="scaron" unicode="&#x161;" horiz-adv-x="959" 
d="M947 878l-110 -160c-74 47 -204 82 -301 82c-111 0 -180 -39 -187 -104c-9 -83 56 -102 138 -115l69 -11c224 -37 315 -144 298 -291c-20 -174 -176 -303 -427 -303c-140 0 -309 41 -430 130l116 155c83 -59 185 -103 311 -103c132 0 206 45 214 117
c6 57 -38 92 -141 108l-72 11c-216 31 -311 140 -294 291c22 190 177 297 407 297c166 0 308 -39 409 -104zM302 1400h219l91 -166l156 166h234l-263 -300h-286z" />
    <glyph glyph-name="Tcommaaccent" unicode="&#x162;" horiz-adv-x="1184" 
d="M1344 1400l-46 -214h-434l-252 -1186h-5l-158 -321h-245l177 321l252 1186h-447l46 214h1112z" />
    <glyph glyph-name="tcommaaccent" unicode="&#x163;" horiz-adv-x="894" 
d="M901 958l-41 -190h-357l-86 -405c-28 -132 29 -191 122 -191c67 0 138 29 193 67l67 -174c-67 -46 -145 -80 -241 -88l-147 -298h-235l178 323c-131 52 -188 179 -148 365l85 401h-184l41 190h184l62 290h212l-62 -290h357z" />
    <glyph glyph-name="Tcaron" unicode="&#x164;" horiz-adv-x="1184" 
d="M1344 1400l-46 -214h-434l-252 -1186h-231l252 1186h-447l46 214h1112zM512 1815h219l91 -166l156 166h234l-263 -300h-286z" />
    <glyph glyph-name="tcaron" unicode="&#x165;" horiz-adv-x="894" 
d="M901 958l-41 -190h-357l-86 -405c-28 -132 29 -191 122 -191c57 0 114 18 174 55l86 -162c-77 -52 -168 -90 -285 -90c-241 0 -361 143 -308 392l85 401h-184l41 190h184l62 290h212l-62 -290h357zM825 1050h-174l82 390h234z" />
    <glyph glyph-name="Tbar" unicode="&#x166;" horiz-adv-x="1184" 
d="M1066 812l-46 -214h-281l-127 -598h-231l127 598h-262l46 214h261l80 374h-447l46 214h1112l-46 -214h-434l-80 -374h282z" />
    <glyph glyph-name="tbar" unicode="&#x167;" horiz-adv-x="894" 
d="M901 958l-41 -190h-357l-34 -159h295l-40 -190h-295l-12 -56c-28 -132 29 -191 122 -191c67 0 138 29 193 67l67 -174c-77 -52 -168 -90 -285 -90c-241 0 -361 143 -308 392l11 52h-140l40 190h140l34 159h-184l41 190h184l62 290h212l-62 -290h357z" />
    <glyph glyph-name="Utilde" unicode="&#x168;" horiz-adv-x="1478" 
d="M1512 1400l-182 -858c-87 -414 -333 -567 -660 -567c-281 0 -506 140 -506 438c0 46 6 96 17 150l179 837h231l-178 -831c-9 -44 -13 -83 -13 -118c0 -185 119 -259 297 -259c193 0 349 98 406 367l178 841h231zM683 1542l-100 141c77 76 149 108 246 108
c142 0 197 -68 257 -68c49 0 91 26 145 69l99 -141c-76 -76 -149 -108 -246 -108c-139 0 -194 68 -257 68c-49 0 -91 -26 -144 -69z" />
    <glyph glyph-name="utilde" unicode="&#x169;" horiz-adv-x="1169" 
d="M1127 958l-119 -561c-64 -305 -274 -422 -512 -422c-216 0 -376 122 -376 340c0 34 4 71 12 110l113 533h212l-115 -542c-6 -28 -9 -54 -9 -77c0 -119 77 -167 188 -167c129 0 244 77 283 262l111 524h212zM450 1127l-100 141c77 76 149 108 246 108
c142 0 197 -68 257 -68c49 0 91 26 145 69l99 -141c-76 -76 -149 -108 -246 -108c-139 0 -194 68 -257 68c-49 0 -91 -26 -144 -69z" />
    <glyph glyph-name="Umacron" unicode="&#x16a;" horiz-adv-x="1478" 
d="M1512 1400l-182 -858c-87 -414 -333 -567 -660 -567c-281 0 -506 140 -506 438c0 46 6 96 17 150l179 837h231l-178 -831c-9 -44 -13 -83 -13 -118c0 -185 119 -259 297 -259c193 0 349 98 406 367l178 841h231zM644 1580l36 170h620l-36 -170h-620z" />
    <glyph glyph-name="umacron" unicode="&#x16b;" horiz-adv-x="1169" 
d="M1127 958l-119 -561c-64 -305 -274 -422 -512 -422c-216 0 -376 122 -376 340c0 34 4 71 12 110l113 533h212l-115 -542c-6 -28 -9 -54 -9 -77c0 -119 77 -167 188 -167c129 0 244 77 283 262l111 524h212zM420 1165l36 170h620l-36 -170h-620z" />
    <glyph glyph-name="Ubreve" unicode="&#x16c;" horiz-adv-x="1478" 
d="M1512 1400l-182 -858c-87 -414 -333 -567 -660 -567c-281 0 -506 140 -506 438c0 46 6 96 17 150l179 837h231l-178 -831c-9 -44 -13 -83 -13 -118c0 -185 119 -259 297 -259c193 0 349 98 406 367l178 841h231zM639 1799l170 51c13 -119 69 -173 164 -173
c89 0 162 54 223 173l166 -51c-97 -197 -225 -299 -408 -299c-179 0 -299 102 -315 299z" />
    <glyph glyph-name="ubreve" unicode="&#x16d;" horiz-adv-x="1169" 
d="M1127 958l-119 -561c-64 -305 -274 -422 -512 -422c-216 0 -376 122 -376 340c0 34 4 71 12 110l113 533h212l-115 -542c-6 -28 -9 -54 -9 -77c0 -119 77 -167 188 -167c129 0 244 77 283 262l111 524h212zM396 1384l170 51c13 -119 69 -173 164 -173
c89 0 162 54 223 173l166 -51c-97 -197 -225 -299 -408 -299c-179 0 -299 102 -315 299z" />
    <glyph glyph-name="Uring" unicode="&#x16e;" horiz-adv-x="1478" 
d="M1512 1400l-182 -858c-87 -414 -333 -567 -660 -567c-281 0 -506 140 -506 438c0 46 6 96 17 150l179 837h231l-178 -831c-9 -44 -13 -83 -13 -118c0 -185 119 -259 297 -259c193 0 349 98 406 367l178 841h231zM966 1498c-136 0 -248 109 -248 245
c0 134 112 244 248 244c137 0 249 -110 249 -244c0 -136 -112 -245 -249 -245zM966 1630c60 0 110 49 110 113c0 62 -50 111 -110 111c-59 0 -109 -49 -109 -111c0 -64 50 -113 109 -113z" />
    <glyph glyph-name="uring" unicode="&#x16f;" horiz-adv-x="1169" 
d="M1127 958l-119 -561c-64 -305 -274 -422 -512 -422c-216 0 -376 122 -376 340c0 34 4 71 12 110l113 533h212l-115 -542c-6 -28 -9 -54 -9 -77c0 -119 77 -167 188 -167c129 0 244 77 283 262l111 524h212zM723 1083c-136 0 -248 109 -248 245c0 134 112 244 248 244
c137 0 249 -110 249 -244c0 -136 -112 -245 -249 -245zM723 1215c60 0 110 49 110 113c0 62 -50 111 -110 111c-59 0 -109 -49 -109 -111c0 -64 50 -113 109 -113z" />
    <glyph glyph-name="Uhungarumlaut" unicode="&#x170;" horiz-adv-x="1478" 
d="M1512 1400l-182 -858c-87 -414 -333 -567 -660 -567c-281 0 -506 140 -506 438c0 46 6 96 17 150l179 837h231l-178 -831c-9 -44 -13 -83 -13 -118c0 -185 119 -259 297 -259c193 0 349 98 406 367l178 841h231zM1224 1525h-216l231 300h251zM882 1525h-219l209 300h243z
" />
    <glyph glyph-name="uhungarumlaut" unicode="&#x171;" horiz-adv-x="1169" 
d="M1127 958l-119 -561c-64 -305 -274 -422 -512 -422c-216 0 -376 122 -376 340c0 34 4 71 12 110l113 533h212l-115 -542c-6 -28 -9 -54 -9 -77c0 -119 77 -167 188 -167c129 0 244 77 283 262l111 524h212zM979 1110h-216l231 300h251zM637 1110h-219l209 300h243z" />
    <glyph glyph-name="Uogonek" unicode="&#x172;" horiz-adv-x="1478" 
d="M999 -198l94 -141c-65 -53 -147 -80 -229 -80c-179 0 -294 93 -294 214c0 68 22 128 91 180c-277 3 -497 143 -497 438c0 46 6 96 17 150l179 837h231l-178 -831c-9 -44 -13 -83 -13 -118c0 -185 119 -259 297 -259c193 0 349 98 406 367l178 841h231l-182 -858
c-61 -288 -197 -443 -382 -522c-138 -59 -170 -133 -170 -186c0 -43 35 -74 98 -74c45 0 84 15 123 42z" />
    <glyph glyph-name="uogonek" unicode="&#x173;" horiz-adv-x="1169" 
d="M781 -198l94 -141c-65 -53 -147 -80 -229 -80c-179 0 -294 93 -294 214c0 69 23 130 94 183c-190 17 -326 136 -326 337c0 34 4 71 12 110l113 533h212l-115 -542c-6 -28 -9 -54 -9 -77c0 -119 77 -167 188 -167c129 0 244 77 283 262l111 524h212l-119 -561
c-44 -208 -152 -322 -291 -384c-126 -56 -157 -128 -157 -179c0 -43 35 -74 98 -74c45 0 84 15 123 42z" />
    <glyph glyph-name="Wcircumflex" unicode="&#x174;" horiz-adv-x="2176" 
d="M2311 1400l-717 -1400h-274l-96 1087l-560 -1087h-284l-123 1400h230l86 -1147l586 1147h248l97 -1136l568 1136h239zM1626 1515h-219l-91 166l-156 -166h-234l263 300h286z" />
    <glyph glyph-name="wcircumflex" unicode="&#x175;" horiz-adv-x="1635" 
d="M1017 958l89 -725l375 725h229l-517 -958h-249l-81 716l-367 -716h-246l-121 958h211l76 -723l368 723h233zM1274 1100h-219l-91 166l-156 -166h-234l263 300h286z" />
    <glyph glyph-name="Ycircumflex" unicode="&#x176;" horiz-adv-x="1316" 
d="M1500 1400l-710 -833l-120 -567h-231l124 585l-356 815h244l260 -618l504 618h285zM1176 1515h-219l-91 166l-156 -166h-234l263 300h286z" />
    <glyph glyph-name="ycircumflex" unicode="&#x177;" horiz-adv-x="1083" 
d="M1176 958l-957 -1364h-240l446 622l-310 742h222l222 -553l379 553h238zM991 1100h-219l-91 166l-156 -166h-234l263 300h286z" />
    <glyph glyph-name="Ydieresis" unicode="&#x178;" horiz-adv-x="1316" 
d="M1500 1400l-710 -833l-120 -567h-231l124 585l-356 815h244l260 -618l504 618h285zM677 1814c83 0 148 -65 148 -148s-65 -146 -148 -146s-146 63 -146 146s63 148 146 148zM1077 1814c83 0 148 -65 148 -148s-65 -146 -148 -146s-146 63 -146 146s63 148 146 148z" />
    <glyph glyph-name="Zacute" unicode="&#x179;" horiz-adv-x="1298" 
d="M1367 1400l-38 -181l-939 -1005h762l-46 -214h-1064l41 190l936 996h-760l46 214h1062zM876 1525h-213l220 300h273z" />
    <glyph glyph-name="zacute" unicode="&#x17a;" horiz-adv-x="1010" 
d="M995 958l-35 -159l-615 -609h511l-40 -190h-795l34 164l624 604h-511l41 190h786zM666 1110h-213l220 300h273z" />
    <glyph glyph-name="Zdotaccent" unicode="&#x17b;" horiz-adv-x="1298" 
d="M1367 1400l-38 -181l-939 -1005h762l-46 -214h-1064l41 190l936 996h-760l46 214h1062zM845 1827c87 0 155 -68 155 -156c0 -87 -68 -153 -155 -153c-88 0 -154 66 -154 153c0 88 66 156 154 156z" />
    <glyph glyph-name="zdotaccent" unicode="&#x17c;" horiz-adv-x="1010" 
d="M995 958l-35 -159l-615 -609h511l-40 -190h-795l34 164l624 604h-511l41 190h786zM645 1437c83 0 148 -65 148 -148s-65 -146 -148 -146s-146 63 -146 146s63 148 146 148z" />
    <glyph glyph-name="Zcaron" unicode="&#x17d;" horiz-adv-x="1298" 
d="M1367 1400l-38 -181l-939 -1005h762l-46 -214h-1064l41 190l936 996h-760l46 214h1062zM526 1815h219l91 -166l156 166h234l-263 -300h-286z" />
    <glyph glyph-name="zcaron" unicode="&#x17e;" horiz-adv-x="1010" 
d="M995 958l-35 -159l-615 -609h511l-40 -190h-795l34 164l624 604h-511l41 190h786zM312 1400h219l91 -166l156 166h234l-263 -300h-286z" />
    <glyph glyph-name="longs" unicode="&#x17f;" horiz-adv-x="622" 
d="M894 1383l-102 -163c-48 33 -107 48 -150 48c-67 0 -128 -49 -151 -157l-236 -1111h-212l242 1139c43 201 163 326 359 326c106 0 189 -33 250 -82z" />
    <glyph glyph-name="uni018F" unicode="&#x18f;" horiz-adv-x="1590" 
d="M423 994l-132 168c164 162 346 263 593 263c381 0 651 -268 651 -649c0 -437 -329 -802 -759 -802c-385 0 -630 264 -630 630c0 66 10 127 21 196h1129c-19 242 -191 408 -428 408c-184 0 -321 -82 -445 -214zM794 191c226 0 416 168 480 397h-886
c3 -223 163 -397 406 -397z" />
    <glyph glyph-name="florin" unicode="&#x192;" horiz-adv-x="1400" 
d="M1141 821l-40 -192h-269l-69 -310c-51 -228 -136 -343 -343 -343c-100 0 -173 26 -231 63l92 169c35 -24 89 -43 138 -43c86 0 117 56 139 154l70 310h-256l40 192h259l59 260c51 227 136 343 343 343c100 0 172 -26 231 -63l-93 -169c-35 24 -88 43 -138 43
c-86 0 -117 -56 -139 -154l-59 -260h266z" />
    <glyph glyph-name="uni01B5" unicode="&#x1b5;" horiz-adv-x="1298" 
d="M1367 1400l-38 -181l-391 -419h180l-44 -207h-330l-354 -379h762l-46 -214h-1064l41 190l385 410h-192l44 207h343l356 379h-760l46 214h1062z" />
    <glyph glyph-name="uni01B6" unicode="&#x1b6;" horiz-adv-x="1010" 
d="M995 958l-35 -159l-238 -235h117l-34 -160h-245l-215 -214h511l-40 -190h-795l34 164l255 247h-128l34 160h259l204 197h-511l41 190h786z" />
    <glyph glyph-name="uni01CD" unicode="&#x1cd;" horiz-adv-x="1448" 
d="M1059 1400l249 -1400h-233l-61 357h-622l-211 -357h-245l841 1400h282zM876 1174l-357 -603h459zM635 1815h219l91 -166l156 166h234l-263 -300h-286z" />
    <glyph glyph-name="uni01CE" unicode="&#x1ce;" horiz-adv-x="1211" 
d="M618 983c155 0 252 -55 308 -139l25 114h209l-204 -958h-208l18 85c-68 -65 -154 -111 -279 -111c-235 0 -413 185 -413 435c0 304 232 574 544 574zM540 172c170 0 301 132 322 307s-76 307 -246 307c-186 0 -326 -162 -326 -354c0 -146 89 -260 250 -260zM389 1400h219
l91 -166l156 166h234l-263 -300h-286z" />
    <glyph glyph-name="uni01CF" unicode="&#x1cf;" horiz-adv-x="592" 
d="M608 1400l-298 -1400h-231l298 1400h231zM209 1815h219l91 -166l156 166h234l-263 -300h-286z" />
    <glyph glyph-name="uni01D0" unicode="&#x1d0;" horiz-adv-x="518" 
d="M467 958l-204 -958h-212l204 958h212zM97 1400h219l91 -166l156 166h234l-263 -300h-286z" />
    <glyph glyph-name="uni01D1" unicode="&#x1d1;" horiz-adv-x="1666" 
d="M939 1425c382 0 672 -258 672 -649c0 -436 -329 -802 -790 -802c-382 0 -672 258 -672 650c0 435 329 801 790 801zM921 1208c-318 0 -535 -269 -535 -567c0 -272 187 -450 454 -450c316 0 534 269 534 568c0 271 -188 449 -453 449zM675 1815h219l91 -166l156 166h234
l-263 -300h-286z" />
    <glyph glyph-name="uni01D2" unicode="&#x1d2;" horiz-adv-x="1184" 
d="M634 983c281 0 472 -194 472 -456c0 -302 -237 -553 -556 -553c-279 0 -472 192 -472 457c0 301 237 552 556 552zM617 786c-186 0 -324 -156 -324 -342c0 -161 112 -273 271 -273c188 0 327 156 327 342c0 161 -112 273 -274 273zM383 1400h219l91 -166l156 166h234
l-263 -300h-286z" />
    <glyph glyph-name="uni01D3" unicode="&#x1d3;" horiz-adv-x="1478" 
d="M1512 1400l-182 -858c-87 -414 -333 -567 -660 -567c-281 0 -506 140 -506 438c0 46 6 96 17 150l179 837h231l-178 -831c-9 -44 -13 -83 -13 -118c0 -185 119 -259 297 -259c193 0 349 98 406 367l178 841h231zM653 1815h219l91 -166l156 166h234l-263 -300h-286z" />
    <glyph glyph-name="uni01D4" unicode="&#x1d4;" horiz-adv-x="1169" 
d="M1127 958l-119 -561c-64 -305 -274 -422 -512 -422c-216 0 -376 122 -376 340c0 34 4 71 12 110l113 533h212l-115 -542c-6 -28 -9 -54 -9 -77c0 -119 77 -167 188 -167c129 0 244 77 283 262l111 524h212zM422 1400h219l91 -166l156 166h234l-263 -300h-286z" />
    <glyph glyph-name="uni01D5" unicode="&#x1d5;" horiz-adv-x="1478" 
d="M1512 1400l-182 -858c-87 -414 -333 -567 -660 -567c-281 0 -506 140 -506 438c0 46 6 96 17 150l179 837h231l-178 -831c-9 -44 -13 -83 -13 -118c0 -185 119 -259 297 -259c193 0 349 98 406 367l178 841h231zM714 1917l36 170h620l-36 -170h-620zM780 1814
c83 0 148 -65 148 -148s-65 -146 -148 -146s-146 63 -146 146s63 148 146 148zM1180 1814c83 0 148 -65 148 -148s-65 -146 -148 -146s-146 63 -146 146s63 148 146 148z" />
    <glyph glyph-name="uni01D6" unicode="&#x1d6;" horiz-adv-x="1169" 
d="M1127 958l-119 -561c-64 -305 -274 -422 -512 -422c-216 0 -376 122 -376 340c0 34 4 71 12 110l113 533h212l-115 -542c-6 -28 -9 -54 -9 -77c0 -119 77 -167 188 -167c129 0 244 77 283 262l111 524h212zM547 1399c83 0 148 -65 148 -148s-65 -146 -148 -146
s-146 63 -146 146s63 148 146 148zM947 1399c83 0 148 -65 148 -148s-65 -146 -148 -146s-146 63 -146 146s63 148 146 148zM491 1515l36 170h620l-36 -170h-620z" />
    <glyph glyph-name="uni01D7" unicode="&#x1d7;" horiz-adv-x="1478" 
d="M1512 1400l-182 -858c-87 -414 -333 -567 -660 -567c-281 0 -506 140 -506 438c0 46 6 96 17 150l179 837h231l-178 -831c-9 -44 -13 -83 -13 -118c0 -185 119 -259 297 -259c193 0 349 98 406 367l178 841h231zM1073 1912h-213l220 300h273zM780 1814
c83 0 148 -65 148 -148s-65 -146 -148 -146s-146 63 -146 146s63 148 146 148zM1180 1814c83 0 148 -65 148 -148s-65 -146 -148 -146s-146 63 -146 146s63 148 146 148z" />
    <glyph glyph-name="uni01D8" unicode="&#x1d8;" horiz-adv-x="1169" 
d="M1127 958l-119 -561c-64 -305 -274 -422 -512 -422c-216 0 -376 122 -376 340c0 34 4 71 12 110l113 533h212l-115 -542c-6 -28 -9 -54 -9 -77c0 -119 77 -167 188 -167c129 0 244 77 283 262l111 524h212zM547 1399c83 0 148 -65 148 -148s-65 -146 -148 -146
s-146 63 -146 146s63 148 146 148zM947 1399c83 0 148 -65 148 -148s-65 -146 -148 -146s-146 63 -146 146s63 148 146 148zM850 1510h-213l220 300h273z" />
    <glyph glyph-name="uni01D9" unicode="&#x1d9;" horiz-adv-x="1478" 
d="M1512 1400l-182 -858c-87 -414 -333 -567 -660 -567c-281 0 -506 140 -506 438c0 46 6 96 17 150l179 837h231l-178 -831c-9 -44 -13 -83 -13 -118c0 -185 119 -259 297 -259c193 0 349 98 406 367l178 841h231zM723 2202h219l91 -166l156 166h234l-263 -300h-286z
M780 1814c83 0 148 -65 148 -148s-65 -146 -148 -146s-146 63 -146 146s63 148 146 148zM1180 1814c83 0 148 -65 148 -148s-65 -146 -148 -146s-146 63 -146 146s63 148 146 148z" />
    <glyph glyph-name="uni01DA" unicode="&#x1da;" horiz-adv-x="1169" 
d="M1127 958l-119 -561c-64 -305 -274 -422 -512 -422c-216 0 -376 122 -376 340c0 34 4 71 12 110l113 533h212l-115 -542c-6 -28 -9 -54 -9 -77c0 -119 77 -167 188 -167c129 0 244 77 283 262l111 524h212zM547 1399c83 0 148 -65 148 -148s-65 -146 -148 -146
s-146 63 -146 146s63 148 146 148zM947 1399c83 0 148 -65 148 -148s-65 -146 -148 -146s-146 63 -146 146s63 148 146 148zM500 1800h219l91 -166l156 166h234l-263 -300h-286z" />
    <glyph glyph-name="uni01DB" unicode="&#x1db;" horiz-adv-x="1478" 
d="M1512 1400l-182 -858c-87 -414 -333 -567 -660 -567c-281 0 -506 140 -506 438c0 46 6 96 17 150l179 837h231l-178 -831c-9 -44 -13 -83 -13 -118c0 -185 119 -259 297 -259c193 0 349 98 406 367l178 841h231zM943 1912l-251 300h266l191 -300h-206zM780 1814
c83 0 148 -65 148 -148s-65 -146 -148 -146s-146 63 -146 146s63 148 146 148zM1180 1814c83 0 148 -65 148 -148s-65 -146 -148 -146s-146 63 -146 146s63 148 146 148z" />
    <glyph glyph-name="uni01DC" unicode="&#x1dc;" horiz-adv-x="1169" 
d="M1127 958l-119 -561c-64 -305 -274 -422 -512 -422c-216 0 -376 122 -376 340c0 34 4 71 12 110l113 533h212l-115 -542c-6 -28 -9 -54 -9 -77c0 -119 77 -167 188 -167c129 0 244 77 283 262l111 524h212zM547 1399c83 0 148 -65 148 -148s-65 -146 -148 -146
s-146 63 -146 146s63 148 146 148zM947 1399c83 0 148 -65 148 -148s-65 -146 -148 -146s-146 63 -146 146s63 148 146 148zM720 1510l-251 300h266l191 -300h-206z" />
    <glyph glyph-name="uni01E2" unicode="&#x1e2;" horiz-adv-x="2298" 
d="M2106 212l-45 -212h-1005l68 321h-606l-302 -321h-288l1325 1400h1090l-45 -212h-758l-81 -377h739l-45 -212h-739l-82 -387h774zM720 535h450l131 615zM1465 1580l36 170h620l-36 -170h-620z" />
    <glyph glyph-name="uni01E3" unicode="&#x1e3;" horiz-adv-x="1735" 
d="M1467 247l89 -155c-116 -84 -228 -118 -378 -118c-180 0 -310 69 -383 179c-102 -102 -228 -178 -399 -178c-208 0 -338 105 -338 278c0 198 161 315 406 315h287c3 20 5 39 5 57c0 108 -70 168 -220 168c-101 0 -179 -35 -246 -74l-77 164c117 73 227 100 360 100
c164 0 275 -55 331 -156c88 100 209 156 367 156c241 0 402 -146 402 -385c0 -68 -16 -148 -36 -196h-697c1 -154 94 -245 261 -245c104 0 185 33 266 90zM1260 797c-177 0 -261 -118 -297 -237h500c2 15 2 24 2 32c0 134 -83 205 -205 205zM435 157c92 0 205 44 300 145
c-5 29 -8 60 -8 92v15h-246c-123 0 -196 -50 -196 -135c0 -74 56 -117 150 -117zM650 1165l36 170h620l-36 -170h-620z" />
    <glyph glyph-name="Gcaron" unicode="&#x1e6;" horiz-adv-x="1609" 
d="M1451 1197l-170 -154c-80 103 -204 165 -359 165c-295 0 -536 -234 -536 -567c0 -276 185 -450 448 -450c239 0 395 127 456 354h-376l45 209h597c0 -18 -3 -45 -6 -68c-51 -414 -331 -712 -737 -712c-379 0 -664 266 -664 646c0 460 348 805 792 805
c129 0 363 -36 510 -228zM661 1815h219l91 -166l156 166h234l-263 -300h-286z" />
    <glyph glyph-name="gcaron" unicode="&#x1e7;" horiz-adv-x="1209" 
d="M1158 958l-191 -897c-64 -300 -249 -471 -518 -471c-179 0 -324 48 -445 139l106 170c89 -74 208 -120 343 -120c165 0 273 121 305 277l2 12c-63 -44 -141 -69 -245 -69c-253 0 -438 182 -438 422c0 312 233 562 539 562c156 0 253 -55 308 -139l25 114h209zM538 195
c189 0 322 138 322 337c0 149 -101 254 -246 254c-188 0 -320 -140 -320 -343c0 -146 100 -248 244 -248zM379 1400h219l91 -166l156 166h234l-263 -300h-286z" />
    <glyph glyph-name="Aringacute" unicode="&#x1fa;" horiz-adv-x="1448" 
d="M181 0h-245l810 1349c-45 44 -73 105 -73 174c0 134 112 244 248 244c137 0 249 -110 249 -244c0 -80 -39 -151 -98 -195l236 -1328h-233l-61 357h-622zM876 1174l-357 -603h459zM958 1835h-213l220 300h273zM921 1410c60 0 110 49 110 113c0 62 -50 111 -110 111
c-59 0 -109 -49 -109 -111c0 -64 50 -113 109 -113z" />
    <glyph glyph-name="aringacute" unicode="&#x1fb;" horiz-adv-x="1211" 
d="M618 983c155 0 252 -55 308 -139l25 114h209l-204 -958h-208l18 85c-68 -65 -154 -111 -279 -111c-235 0 -413 185 -413 435c0 304 232 574 544 574zM540 172c170 0 301 132 322 307s-76 307 -246 307c-186 0 -326 -162 -326 -354c0 -146 89 -260 250 -260zM727 1043
c-136 0 -248 109 -248 245c0 134 112 244 248 244c137 0 249 -110 249 -244c0 -136 -112 -245 -249 -245zM727 1175c60 0 110 49 110 113c0 62 -50 111 -110 111c-59 0 -109 -49 -109 -111c0 -64 50 -113 109 -113zM765 1587h-213l220 300h273z" />
    <glyph glyph-name="AEacute" unicode="&#x1fc;" horiz-adv-x="2298" 
d="M2106 212l-45 -212h-1005l68 321h-606l-302 -321h-288l1325 1400h1090l-45 -212h-758l-81 -377h739l-45 -212h-739l-82 -387h774zM720 535h450l131 615zM1824 1525h-213l220 300h273z" />
    <glyph glyph-name="aeacute" unicode="&#x1fd;" horiz-adv-x="1735" 
d="M1467 247l89 -155c-116 -84 -228 -118 -378 -118c-180 0 -310 69 -383 179c-102 -102 -228 -178 -399 -178c-208 0 -338 105 -338 278c0 198 161 315 406 315h287c3 20 5 39 5 57c0 108 -70 168 -220 168c-101 0 -179 -35 -246 -74l-77 164c117 73 227 100 360 100
c164 0 275 -55 331 -156c88 100 209 156 367 156c241 0 402 -146 402 -385c0 -68 -16 -148 -36 -196h-697c1 -154 94 -245 261 -245c104 0 185 33 266 90zM1260 797c-177 0 -261 -118 -297 -237h500c2 15 2 24 2 32c0 134 -83 205 -205 205zM435 157c92 0 205 44 300 145
c-5 29 -8 60 -8 92v15h-246c-123 0 -196 -50 -196 -135c0 -74 56 -117 150 -117zM1006 1110h-213l220 300h273z" />
    <glyph glyph-name="Oslashacute" unicode="&#x1fe;" horiz-adv-x="1666" 
d="M939 1425c175 0 332 -55 449 -152l174 155l134 -152l-176 -156c58 -97 91 -213 91 -344c0 -436 -329 -802 -790 -802c-168 0 -317 50 -433 138l-157 -140l-134 151l154 137c-65 101 -102 223 -102 364c0 435 329 801 790 801zM921 1208c-318 0 -535 -269 -535 -567
c0 -82 17 -156 48 -218l777 692c-76 59 -176 93 -290 93zM1374 759c0 72 -14 138 -39 196l-769 -685c74 -51 167 -79 274 -79c316 0 534 269 534 568zM1031 1525h-213l220 300h273z" />
    <glyph glyph-name="oslashacute" unicode="&#x1ff;" horiz-adv-x="1184" 
d="M634 983c116 0 216 -33 294 -90l125 111l114 -129l-123 -110c40 -69 62 -149 62 -238c0 -302 -237 -553 -556 -553c-115 0 -215 32 -294 89l-125 -111l-115 128l124 111c-40 68 -62 150 -62 240c0 301 237 552 556 552zM617 786c-186 0 -324 -156 -324 -342
c0 -37 6 -71 17 -102l455 406c-41 24 -92 38 -148 38zM891 513c0 36 -6 70 -17 101l-455 -406c41 -24 90 -37 145 -37c188 0 327 156 327 342zM756 1110h-213l220 300h273z" />
    <glyph glyph-name="Scommaaccent" unicode="&#x218;" horiz-adv-x="1333" 
d="M1322 1264l-126 -183c-148 98 -292 130 -425 130c-218 0 -300 -110 -300 -218c0 -101 82 -151 219 -176l104 -19c221 -39 419 -139 419 -373c0 -271 -237 -451 -581 -451c-133 0 -397 42 -567 197l135 183c120 -127 344 -166 443 -166c185 0 333 77 333 211
c0 97 -85 150 -261 182l-108 20c-217 39 -376 157 -376 363c0 235 178 461 554 461c173 0 360 -39 537 -161zM541 -87h234l-151 -368h-198z" />
    <glyph glyph-name="scommaaccent" unicode="&#x219;" horiz-adv-x="959" 
d="M947 878l-110 -160c-74 47 -204 82 -301 82c-111 0 -180 -39 -187 -104c-9 -83 56 -102 138 -115l69 -11c224 -37 315 -144 298 -291c-20 -174 -176 -303 -427 -303c-140 0 -309 41 -430 130l116 155c83 -59 185 -103 311 -103c132 0 206 45 214 117
c6 57 -38 92 -141 108l-72 11c-216 31 -311 140 -294 291c22 190 177 297 407 297c166 0 308 -39 409 -104zM306 -87h234l-151 -368h-198z" />
    <glyph glyph-name="uni021A" unicode="&#x21a;" horiz-adv-x="1184" 
d="M1344 1400l-46 -214h-434l-252 -1186h-231l252 1186h-447l46 214h1112zM363 -87h234l-151 -368h-198z" />
    <glyph glyph-name="uni021B" unicode="&#x21b;" horiz-adv-x="894" 
d="M901 958l-41 -190h-357l-86 -405c-28 -132 29 -191 122 -191c57 0 114 18 174 55l86 -162c-77 -52 -168 -90 -285 -90c-241 0 -361 143 -308 392l85 401h-184l41 190h184l62 290h212l-62 -290h357zM332 -87h234l-151 -368h-198z" />
    <glyph glyph-name="uni0232" unicode="&#x232;" horiz-adv-x="1316" 
d="M1500 1400l-710 -833l-120 -567h-231l124 585l-356 815h244l260 -618l504 618h285zM541 1580l36 170h620l-36 -170h-620z" />
    <glyph glyph-name="uni0233" unicode="&#x233;" horiz-adv-x="1083" 
d="M1176 958l-957 -1364h-240l446 622l-310 742h222l222 -553l379 553h238zM352 1165l36 170h620l-36 -170h-620z" />
    <glyph glyph-name="uni0237" unicode="&#x237;" horiz-adv-x="529" 
d="M477 958l-230 -1085c-42 -197 -170 -292 -326 -292c-64 0 -127 17 -168 38l76 173c27 -11 56 -14 79 -14c59 0 115 41 133 123l224 1057h212z" />
    <glyph glyph-name="uni0259" unicode="&#x259;" horiz-adv-x="1079" 
d="M268 711l-89 155c116 84 228 118 378 118c290 0 451 -180 451 -420c0 -248 -163 -589 -544 -589c-241 0 -402 146 -402 385c0 68 16 148 36 196h697c-1 154 -94 245 -261 245c-104 0 -185 -33 -266 -90zM475 161c177 0 261 118 297 237h-500c-2 -13 -2 -23 -2 -32
c0 -134 83 -205 205 -205z" />
    <glyph glyph-name="uni02BB" unicode="&#x2bb;" horiz-adv-x="495" 
d="M431 895h-245l223 545h193z" />
    <glyph glyph-name="afii57929" unicode="&#x2bc;" horiz-adv-x="495" 
d="M357 1440h245l-223 -545h-193z" />
    <glyph glyph-name="uni02BE" unicode="&#x2be;" horiz-adv-x="564" 
d="M293 1264l41 191c181 -19 312 -173 312 -359c0 -219 -175 -398 -404 -398c-25 0 -38 1 -68 6l41 190c12 -3 24 -4 40 -4c99 0 186 91 186 202c0 93 -65 166 -148 172z" />
    <glyph glyph-name="uni02BF" unicode="&#x2bf;" horiz-adv-x="564" 
d="M525 888l-41 -191c-181 19 -312 173 -312 359c0 219 175 398 404 398c25 0 38 -1 68 -6l-41 -190c-12 3 -24 4 -40 4c-99 0 -186 -91 -186 -202c0 -93 65 -166 148 -172z" />
    <glyph glyph-name="circumflex" unicode="&#x2c6;" horiz-adv-x="1000" 
d="M974 1100h-219l-91 166l-156 -166h-234l263 300h286z" />
    <glyph glyph-name="caron" unicode="&#x2c7;" horiz-adv-x="1000" 
d="M326 1400h219l91 -166l156 166h234l-263 -300h-286z" />
    <glyph glyph-name="breve" unicode="&#x2d8;" horiz-adv-x="1000" 
d="M324 1384l170 51c13 -119 69 -173 164 -173c89 0 162 54 223 173l166 -51c-97 -197 -225 -299 -408 -299c-179 0 -299 102 -315 299z" />
    <glyph glyph-name="dotaccent" unicode="&#x2d9;" horiz-adv-x="606" 
d="M474 1437c83 0 148 -65 148 -148s-65 -146 -148 -146s-146 63 -146 146s63 148 146 148z" />
    <glyph glyph-name="ring" unicode="&#x2da;" horiz-adv-x="1000" 
d="M680 1083c-136 0 -248 109 -248 245c0 134 112 244 248 244c137 0 249 -110 249 -244c0 -136 -112 -245 -249 -245zM680 1215c60 0 110 49 110 113c0 62 -50 111 -110 111c-59 0 -109 -49 -109 -111c0 -64 50 -113 109 -113z" />
    <glyph glyph-name="ogonek" unicode="&#x2db;" horiz-adv-x="1108" 
d="M813 -198l94 -141c-65 -53 -147 -80 -229 -80c-179 0 -294 93 -294 214c0 126 76 223 384 301l21 -62c-162 -68 -197 -143 -197 -200c0 -43 35 -74 98 -74c45 0 84 15 123 42z" />
    <glyph glyph-name="tilde" unicode="&#x2dc;" horiz-adv-x="1000" 
d="M402 1127l-100 141c77 76 149 108 246 108c142 0 197 -68 257 -68c49 0 91 26 145 69l99 -141c-76 -76 -149 -108 -246 -108c-139 0 -194 68 -257 68c-49 0 -91 -26 -144 -69z" />
    <glyph glyph-name="hungarumlaut" unicode="&#x2dd;" horiz-adv-x="1000" 
d="M823 1110h-216l231 300h251zM481 1110h-219l209 300h243z" />
    <glyph glyph-name="gravecomb" unicode="&#x300;" horiz-adv-x="1" 
d="M-565 1110l-251 300h266l191 -300h-206z" />
    <glyph glyph-name="acutecomb" unicode="&#x301;" horiz-adv-x="1" 
d="M-447 1110h-213l220 300h273z" />
    <glyph glyph-name="uni0302" unicode="&#x302;" horiz-adv-x="1" 
d="M-164 1100h-219l-91 166l-156 -166h-234l263 300h286z" />
    <glyph glyph-name="tildecomb" unicode="&#x303;" horiz-adv-x="1" 
d="M-773 1127l-100 141c77 76 149 108 246 108c142 0 197 -68 257 -68c49 0 91 26 145 69l99 -141c-76 -76 -149 -108 -246 -108c-139 0 -194 68 -257 68c-49 0 -91 -26 -144 -69z" />
    <glyph glyph-name="uni0304" unicode="&#x304;" horiz-adv-x="1" 
d="M-803 1165l36 170h620l-36 -170h-620z" />
    <glyph glyph-name="uni0306" unicode="&#x306;" horiz-adv-x="1" 
d="M-827 1384l170 51c13 -119 69 -173 164 -173c89 0 162 54 223 173l166 -51c-97 -197 -225 -299 -408 -299c-179 0 -299 102 -315 299z" />
    <glyph glyph-name="uni0307" unicode="&#x307;" horiz-adv-x="1" 
d="M-468 1437c83 0 148 -65 148 -148s-65 -146 -148 -146s-146 63 -146 146s63 148 146 148z" />
    <glyph glyph-name="uni0308" unicode="&#x308;" horiz-adv-x="1" 
d="M-676 1399c83 0 148 -65 148 -148s-65 -146 -148 -146s-146 63 -146 146s63 148 146 148zM-276 1399c83 0 148 -65 148 -148s-65 -146 -148 -146s-146 63 -146 146s63 148 146 148z" />
    <glyph glyph-name="uni030A" unicode="&#x30a;" horiz-adv-x="1" 
d="M-500 1083c-136 0 -248 109 -248 245c0 134 112 244 248 244c137 0 249 -110 249 -244c0 -136 -112 -245 -249 -245zM-500 1215c60 0 110 49 110 113c0 62 -50 111 -110 111c-59 0 -109 -49 -109 -111c0 -64 50 -113 109 -113z" />
    <glyph glyph-name="uni030B" unicode="&#x30b;" horiz-adv-x="1" 
d="M-244 1110h-216l231 300h251zM-586 1110h-219l209 300h243z" />
    <glyph glyph-name="uni030C" unicode="&#x30c;" horiz-adv-x="1" 
d="M-801 1400h219l91 -166l156 166h234l-263 -300h-286z" />
    <glyph glyph-name="uni0312" unicode="&#x312;" horiz-adv-x="1" 
d="M-388 1110h-234l151 368h198z" />
    <glyph glyph-name="dotbelowcomb" unicode="&#x323;" horiz-adv-x="1" 
d="M-551 -123c83 0 148 -65 148 -148s-65 -146 -148 -146s-146 63 -146 146s63 148 146 148z" />
    <glyph glyph-name="uni0326" unicode="&#x326;" horiz-adv-x="1" 
d="M-682 -87h234l-151 -368h-198z" />
    <glyph glyph-name="uni0327" unicode="&#x327;" horiz-adv-x="1" 
d="M-351 7l-162 -328h-235l181 328h216z" />
    <glyph glyph-name="uni0328" unicode="&#x328;" horiz-adv-x="1" 
d="M-382 -198l94 -141c-65 -53 -147 -80 -229 -80c-179 0 -294 93 -294 214c0 126 76 223 384 301l21 -62c-162 -68 -197 -143 -197 -200c0 -43 35 -74 98 -74c45 0 84 15 123 42z" />
    <glyph glyph-name="uni032E" unicode="&#x32e;" horiz-adv-x="1" 
d="M-932 -133l170 51c13 -119 69 -173 164 -173c89 0 162 54 223 173l166 -51c-97 -197 -225 -299 -408 -299c-179 0 -299 102 -315 299z" />
    <glyph glyph-name="uni0331" unicode="&#x331;" horiz-adv-x="1" 
d="M-934 -350l36 170h620l-36 -170h-620z" />
    <glyph glyph-name="uni0335" unicode="&#x335;" horiz-adv-x="1" 
d="M-215 628l-38 -190h-716l38 190h716z" />
    <glyph glyph-name="uni0336" unicode="&#x336;" horiz-adv-x="1" 
d="M162 628l-38 -190h-1470l38 190h1470z" />
    <glyph glyph-name="uni0394" unicode="&#x394;" horiz-adv-x="1392" 
d="M1034 1400l221 -1225l-37 -175h-1247l37 175l744 1225h282zM1020 214l-165 961l-574 -961h739z" />
    <glyph glyph-name="uni03A9" unicode="&#x3a9;" horiz-adv-x="1716" 
d="M1624 214l-46 -214h-616l41 192c244 70 399 305 399 561c0 263 -193 456 -468 456c-309 0 -534 -252 -534 -563c0 -221 119 -388 306 -447l-42 -199h-618l46 214h279c-133 113 -207 270 -207 451c0 407 339 759 781 760c412 0 696 -273 696 -652
c0 -214 -91 -413 -267 -559h250z" />
    <glyph glyph-name="uni03BC" unicode="&#x3bc;" horiz-adv-x="1184" 
d="M168 -400h-212l292 1358h211l-116 -542c-6 -26 -9 -51 -9 -75c0 -93 47 -167 180 -167c136 0 259 82 297 262l111 522h211l-204 -958h-209l21 97c-91 -98 -199 -122 -289 -122c-76 0 -141 19 -194 51z" />
    <glyph glyph-name="pi" unicode="&#x3c0;" horiz-adv-x="1181" 
d="M1138 958l-204 -958h-210l163 768h-463l-163 -768h-210l204 958h883z" />
    <glyph glyph-name="uni1E0C" unicode="&#x1e0c;" horiz-adv-x="1542" 
d="M377 1400h471c397 0 644 -234 644 -598c0 -437 -318 -802 -856 -802h-557zM822 1186h-260l-207 -972h307c371 0 591 251 591 567c0 241 -138 405 -431 405zM640 -123c83 0 148 -65 148 -148s-65 -146 -148 -146s-146 63 -146 146s63 148 146 148z" />
    <glyph glyph-name="uni1E0D" unicode="&#x1e0d;" horiz-adv-x="1213" 
d="M618 983c155 0 252 -55 308 -139l127 596h211l-306 -1440h-210l18 85c-68 -65 -154 -111 -279 -111c-235 0 -413 185 -413 435c0 304 232 574 544 574zM540 172c170 0 301 132 322 307s-76 307 -246 307c-186 0 -326 -162 -326 -354c0 -146 89 -260 250 -260zM486 -123
c83 0 148 -65 148 -148s-65 -146 -148 -146s-146 63 -146 146s63 148 146 148z" />
    <glyph glyph-name="uni1E0E" unicode="&#x1e0e;" horiz-adv-x="1542" 
d="M377 1400h471c397 0 644 -234 644 -598c0 -437 -318 -802 -856 -802h-557zM822 1186h-260l-207 -972h307c371 0 591 251 591 567c0 241 -138 405 -431 405zM316 -350l36 170h620l-36 -170h-620z" />
    <glyph glyph-name="uni1E0F" unicode="&#x1e0f;" horiz-adv-x="1213" 
d="M618 983c155 0 252 -55 308 -139l127 596h211l-306 -1440h-210l18 85c-68 -65 -154 -111 -279 -111c-235 0 -413 185 -413 435c0 304 232 574 544 574zM540 172c170 0 301 132 322 307s-76 307 -246 307c-186 0 -326 -162 -326 -354c0 -146 89 -260 250 -260zM161 -350
l36 170h620l-36 -170h-620z" />
    <glyph glyph-name="uni1E24" unicode="&#x1e24;" horiz-adv-x="1563" 
d="M608 1400l-125 -588h739l126 588h231l-299 -1400h-231l127 598h-739l-127 -598h-231l298 1400h231zM619 -123c83 0 148 -65 148 -148s-65 -146 -148 -146s-146 63 -146 146s63 148 146 148z" />
    <glyph glyph-name="uni1E25" unicode="&#x1e25;" horiz-adv-x="1183" 
d="M720 983c212 0 345 -136 345 -331c0 -34 -4 -70 -12 -107l-117 -545h-211l116 542c6 26 9 51 9 75c0 96 -50 167 -179 167c-136 0 -259 -82 -297 -262l-111 -522h-212l307 1440h210l-117 -554c87 77 186 97 269 97zM436 -123c83 0 148 -65 148 -148s-65 -146 -148 -146
s-146 63 -146 146s63 148 146 148z" />
    <glyph glyph-name="uni1E28" unicode="&#x1e28;" horiz-adv-x="1563" 
d="M608 1400l-125 -588h739l126 588h231l-299 -1400h-231l127 598h-739l-127 -598h-4l-158 -321h-245l177 321h-1l298 1400h231z" />
    <glyph glyph-name="uni1E29" unicode="&#x1e29;" horiz-adv-x="1183" 
d="M261 0l-156 -321h-235l183 321h-2l307 1440h210l-117 -554c87 77 186 97 269 97c212 0 345 -136 345 -331c0 -34 -4 -70 -12 -107l-117 -545h-211l116 542c6 26 9 51 9 75c0 96 -50 167 -179 167c-136 0 -259 -82 -297 -262l-111 -522h-2z" />
    <glyph glyph-name="uni1E2A" unicode="&#x1e2a;" horiz-adv-x="1563" 
d="M608 1400l-125 -588h739l126 588h231l-299 -1400h-231l127 598h-739l-127 -598h-231l298 1400h231zM297 -133l170 51c13 -119 69 -173 164 -173c89 0 162 54 223 173l166 -51c-97 -197 -225 -299 -408 -299c-179 0 -299 102 -315 299z" />
    <glyph glyph-name="uni1E2B" unicode="&#x1e2b;" horiz-adv-x="1183" 
d="M720 983c212 0 345 -136 345 -331c0 -34 -4 -70 -12 -107l-117 -545h-211l116 542c6 26 9 51 9 75c0 96 -50 167 -179 167c-136 0 -259 -82 -297 -262l-111 -522h-212l307 1440h210l-117 -554c87 77 186 97 269 97zM113 -133l170 51c13 -119 69 -173 164 -173
c89 0 162 54 223 173l166 -51c-97 -197 -225 -299 -408 -299c-179 0 -299 102 -315 299z" />
    <glyph glyph-name="uni1E32" unicode="&#x1e32;" horiz-adv-x="1380" 
d="M608 1400l-126 -589h107l605 589h303l-733 -693l529 -707h-274l-444 597h-138l-127 -597h-231l298 1400h231zM596 -123c83 0 148 -65 148 -148s-65 -146 -148 -146s-146 63 -146 146s63 148 146 148z" />
    <glyph glyph-name="uni1E33" unicode="&#x1e33;" horiz-adv-x="1053" 
d="M569 1440l-180 -846h95l359 364h273l-480 -471l305 -487h-236l-246 404h-110l-86 -404h-212l306 1440h212zM417 -123c83 0 148 -65 148 -148s-65 -146 -148 -146s-146 63 -146 146s63 148 146 148z" />
    <glyph glyph-name="uni1E36" unicode="&#x1e36;" 
d="M608 1400l-253 -1186h753l-46 -214h-983l298 1400h231zM552 -123c83 0 148 -65 148 -148s-65 -146 -148 -146s-146 63 -146 146s63 148 146 148z" />
    <glyph glyph-name="uni1E37" unicode="&#x1e37;" horiz-adv-x="518" 
d="M569 1440l-306 -1440h-212l306 1440h212zM98 -123c83 0 148 -65 148 -148s-65 -146 -148 -146s-146 63 -146 146s63 148 146 148z" />
    <glyph glyph-name="uni1E38" unicode="&#x1e38;" 
d="M608 1400l-253 -1186h753l-46 -214h-983l298 1400h231zM552 -123c83 0 148 -65 148 -148s-65 -146 -148 -146s-146 63 -146 146s63 148 146 148zM200 1580l36 170h620l-36 -170h-620z" />
    <glyph glyph-name="uni1E39" unicode="&#x1e39;" horiz-adv-x="518" 
d="M569 1440l-306 -1440h-212l306 1440h212zM188 1607l36 170h620l-36 -170h-620zM98 -123c83 0 148 -65 148 -148s-65 -146 -148 -146s-146 63 -146 146s63 148 146 148z" />
    <glyph glyph-name="uni1E3A" unicode="&#x1e3a;" 
d="M608 1400l-253 -1186h753l-46 -214h-983l298 1400h231zM228 -350l36 170h620l-36 -170h-620z" />
    <glyph glyph-name="uni1E3B" unicode="&#x1e3b;" horiz-adv-x="518" 
d="M569 1440l-306 -1440h-212l306 1440h212zM-227 -350l36 170h620l-36 -170h-620z" />
    <glyph glyph-name="uni1E40" unicode="&#x1e40;" horiz-adv-x="1842" 
d="M1858 1400l-298 -1400h-230l242 1132l-592 -995h-238l-192 1000l-241 -1137h-230l298 1400h335l185 -1005l604 1005h357zM1125 1827c87 0 155 -68 155 -156c0 -87 -68 -153 -155 -153c-88 0 -154 66 -154 153c0 88 66 156 154 156z" />
    <glyph glyph-name="uni1E41" unicode="&#x1e41;" horiz-adv-x="1859" 
d="M1407 983c205 0 335 -135 335 -326c0 -32 -3 -66 -11 -101l-120 -556h-211l116 542c6 26 9 51 9 75c0 93 -47 167 -182 167s-255 -82 -294 -262l-114 -522h-210l116 542c27 124 -3 242 -171 242c-136 0 -259 -82 -297 -262l-111 -522h-211l204 958h209l-21 -97
c91 98 199 122 289 122c143 0 249 -66 301 -171c108 134 252 171 374 171zM1103 1437c83 0 148 -65 148 -148s-65 -146 -148 -146s-146 63 -146 146s63 148 146 148z" />
    <glyph glyph-name="uni1E42" unicode="&#x1e42;" horiz-adv-x="1842" 
d="M1858 1400l-298 -1400h-230l242 1132l-592 -995h-238l-192 1000l-241 -1137h-230l298 1400h335l185 -1005l604 1005h357zM789 -123c83 0 148 -65 148 -148s-65 -146 -148 -146s-146 63 -146 146s63 148 146 148z" />
    <glyph glyph-name="uni1E43" unicode="&#x1e43;" horiz-adv-x="1859" 
d="M1407 983c205 0 335 -135 335 -326c0 -32 -3 -66 -11 -101l-120 -556h-211l116 542c6 26 9 51 9 75c0 93 -47 167 -182 167s-255 -82 -294 -262l-114 -522h-210l116 542c27 124 -3 242 -171 242c-136 0 -259 -82 -297 -262l-111 -522h-211l204 958h209l-21 -97
c91 98 199 122 289 122c143 0 249 -66 301 -171c108 134 252 171 374 171zM771 -123c83 0 148 -65 148 -148s-65 -146 -148 -146s-146 63 -146 146s63 148 146 148z" />
    <glyph glyph-name="uni1E44" unicode="&#x1e44;" horiz-adv-x="1562" 
d="M1578 1400l-298 -1400h-211l-538 1046l-222 -1046h-230l298 1400h212l537 -1045l222 1045h230zM998 1827c87 0 155 -68 155 -156c0 -87 -68 -153 -155 -153c-88 0 -154 66 -154 153c0 88 66 156 154 156z" />
    <glyph glyph-name="uni1E45" unicode="&#x1e45;" horiz-adv-x="1183" 
d="M732 983c204 0 334 -135 334 -326c0 -32 -3 -66 -11 -101l-119 -556h-211l116 542c6 26 9 51 9 75c0 93 -47 167 -180 167c-136 0 -259 -82 -297 -262l-111 -522h-211l204 958h209l-21 -97c91 98 199 122 289 122zM759 1437c83 0 148 -65 148 -148s-65 -146 -148 -146
s-146 63 -146 146s63 148 146 148z" />
    <glyph glyph-name="uni1E46" unicode="&#x1e46;" horiz-adv-x="1562" 
d="M1578 1400l-298 -1400h-211l-538 1046l-222 -1046h-230l298 1400h212l537 -1045l222 1045h230zM652 -123c83 0 148 -65 148 -148s-65 -146 -148 -146s-146 63 -146 146s63 148 146 148z" />
    <glyph glyph-name="uni1E47" unicode="&#x1e47;" horiz-adv-x="1183" 
d="M732 983c204 0 334 -135 334 -326c0 -32 -3 -66 -11 -101l-119 -556h-211l116 542c6 26 9 51 9 75c0 93 -47 167 -180 167c-136 0 -259 -82 -297 -262l-111 -522h-211l204 958h209l-21 -97c91 98 199 122 289 122zM435 -123c83 0 148 -65 148 -148s-65 -146 -148 -146
s-146 63 -146 146s63 148 146 148z" />
    <glyph glyph-name="uni1E48" unicode="&#x1e48;" horiz-adv-x="1562" 
d="M1578 1400l-298 -1400h-211l-538 1046l-222 -1046h-230l298 1400h212l537 -1045l222 1045h230zM328 -350l36 170h620l-36 -170h-620z" />
    <glyph glyph-name="uni1E49" unicode="&#x1e49;" horiz-adv-x="1183" 
d="M732 983c204 0 334 -135 334 -326c0 -32 -3 -66 -11 -101l-119 -556h-211l116 542c6 26 9 51 9 75c0 93 -47 167 -180 167c-136 0 -259 -82 -297 -262l-111 -522h-211l204 958h209l-21 -97c91 98 199 122 289 122zM110 -350l36 170h620l-36 -170h-620z" />
    <glyph glyph-name="uni1E58" unicode="&#x1e58;" horiz-adv-x="1341" 
d="M377 1400h510c300 0 459 -154 459 -359c0 -188 -124 -452 -537 -452h-21l416 -589h-269l-398 589h-102l-125 -589h-231zM865 1186h-303l-83 -392h337c242 0 292 122 292 222c0 104 -82 170 -243 170zM862 1827c87 0 155 -68 155 -156c0 -87 -68 -153 -155 -153
c-88 0 -154 66 -154 153c0 88 66 156 154 156z" />
    <glyph glyph-name="uni1E59" unicode="&#x1e59;" horiz-adv-x="834" 
d="M464 958l-21 -97c91 98 199 122 289 122c51 0 111 -12 156 -34l-81 -199c-34 22 -87 34 -137 34c-136 0 -259 -82 -297 -262l-111 -522h-211l204 958h209zM623 1437c83 0 148 -65 148 -148s-65 -146 -148 -146s-146 63 -146 146s63 148 146 148z" />
    <glyph glyph-name="uni1E5A" unicode="&#x1e5a;" horiz-adv-x="1341" 
d="M377 1400h510c300 0 459 -154 459 -359c0 -188 -124 -452 -537 -452h-21l416 -589h-269l-398 589h-102l-125 -589h-231zM865 1186h-303l-83 -392h337c242 0 292 122 292 222c0 104 -82 170 -243 170zM574 -123c83 0 148 -65 148 -148s-65 -146 -148 -146
s-146 63 -146 146s63 148 146 148z" />
    <glyph glyph-name="uni1E5B" unicode="&#x1e5b;" horiz-adv-x="834" 
d="M464 958l-21 -97c91 98 199 122 289 122c51 0 111 -12 156 -34l-81 -199c-34 22 -87 34 -137 34c-136 0 -259 -82 -297 -262l-111 -522h-211l204 958h209zM98 -123c83 0 148 -65 148 -148s-65 -146 -148 -146s-146 63 -146 146s63 148 146 148z" />
    <glyph glyph-name="uni1E5C" unicode="&#x1e5c;" horiz-adv-x="1341" 
d="M377 1400h510c300 0 459 -154 459 -359c0 -188 -124 -452 -537 -452h-21l416 -589h-269l-398 589h-102l-125 -589h-231zM865 1186h-303l-83 -392h337c242 0 292 122 292 222c0 104 -82 170 -243 170zM574 -123c83 0 148 -65 148 -148s-65 -146 -148 -146
s-146 63 -146 146s63 148 146 148zM534 1580l36 170h620l-36 -170h-620z" />
    <glyph glyph-name="uni1E5D" unicode="&#x1e5d;" horiz-adv-x="834" 
d="M464 958l-21 -97c91 98 199 122 289 122c51 0 111 -12 156 -34l-81 -199c-34 22 -87 34 -137 34c-136 0 -259 -82 -297 -262l-111 -522h-211l204 958h209zM288 1165l36 170h620l-36 -170h-620zM98 -123c83 0 148 -65 148 -148s-65 -146 -148 -146s-146 63 -146 146
s63 148 146 148z" />
    <glyph glyph-name="uni1E5E" unicode="&#x1e5e;" horiz-adv-x="1341" 
d="M377 1400h510c300 0 459 -154 459 -359c0 -188 -124 -452 -537 -452h-21l416 -589h-269l-398 589h-102l-125 -589h-231zM865 1186h-303l-83 -392h337c242 0 292 122 292 222c0 104 -82 170 -243 170zM250 -350l36 170h620l-36 -170h-620z" />
    <glyph glyph-name="uni1E5F" unicode="&#x1e5f;" horiz-adv-x="834" 
d="M464 958l-21 -97c91 98 199 122 289 122c51 0 111 -12 156 -34l-81 -199c-34 22 -87 34 -137 34c-136 0 -259 -82 -297 -262l-111 -522h-211l204 958h209zM-227 -350l36 170h620l-36 -170h-620z" />
    <glyph glyph-name="uni1E62" unicode="&#x1e62;" horiz-adv-x="1333" 
d="M1322 1264l-126 -183c-148 98 -292 130 -425 130c-218 0 -300 -110 -300 -218c0 -101 82 -151 219 -176l104 -19c221 -39 419 -139 419 -373c0 -271 -237 -451 -581 -451c-133 0 -397 42 -567 197l135 183c120 -127 344 -166 443 -166c185 0 333 77 333 211
c0 97 -85 150 -261 182l-108 20c-217 39 -376 157 -376 363c0 235 178 461 554 461c173 0 360 -39 537 -161zM615 -123c83 0 148 -65 148 -148s-65 -146 -148 -146s-146 63 -146 146s63 148 146 148z" />
    <glyph glyph-name="uni1E63" unicode="&#x1e63;" horiz-adv-x="959" 
d="M947 878l-110 -160c-74 47 -204 82 -301 82c-111 0 -180 -39 -187 -104c-9 -83 56 -102 138 -115l69 -11c224 -37 315 -144 298 -291c-20 -174 -176 -303 -427 -303c-140 0 -309 41 -430 130l116 155c83 -59 185 -103 311 -103c132 0 206 45 214 117
c6 57 -38 92 -141 108l-72 11c-216 31 -311 140 -294 291c22 190 177 297 407 297c166 0 308 -39 409 -104zM379 -123c83 0 148 -65 148 -148s-65 -146 -148 -146s-146 63 -146 146s63 148 146 148z" />
    <glyph glyph-name="uni1E6C" unicode="&#x1e6c;" horiz-adv-x="1184" 
d="M1344 1400l-46 -214h-434l-252 -1186h-231l252 1186h-447l46 214h1112zM437 -123c83 0 148 -65 148 -148s-65 -146 -148 -146s-146 63 -146 146s63 148 146 148z" />
    <glyph glyph-name="uni1E6D" unicode="&#x1e6d;" horiz-adv-x="894" 
d="M901 958l-41 -190h-357l-86 -405c-28 -132 29 -191 122 -191c57 0 114 18 174 55l86 -162c-77 -52 -168 -90 -285 -90c-241 0 -361 143 -308 392l85 401h-184l41 190h184l62 290h212l-62 -290h357zM405 -123c83 0 148 -65 148 -148s-65 -146 -148 -146s-146 63 -146 146
s63 148 146 148z" />
    <glyph glyph-name="uni1E6E" unicode="&#x1e6e;" horiz-adv-x="1184" 
d="M1344 1400l-46 -214h-434l-252 -1186h-231l252 1186h-447l46 214h1112zM113 -350l36 170h620l-36 -170h-620z" />
    <glyph glyph-name="uni1E6F" unicode="&#x1e6f;" horiz-adv-x="894" 
d="M901 958l-41 -190h-357l-86 -405c-28 -132 29 -191 122 -191c57 0 114 18 174 55l86 -162c-77 -52 -168 -90 -285 -90c-241 0 -361 143 -308 392l85 401h-184l41 190h184l62 290h212l-62 -290h357zM80 -350l36 170h620l-36 -170h-620z" />
    <glyph glyph-name="Wgrave" unicode="&#x1e80;" horiz-adv-x="2176" 
d="M2311 1400l-717 -1400h-274l-96 1087l-560 -1087h-284l-123 1400h230l86 -1147l586 1147h248l97 -1136l568 1136h239zM1220 1525l-251 300h266l191 -300h-206z" />
    <glyph glyph-name="wgrave" unicode="&#x1e81;" horiz-adv-x="1635" 
d="M1017 958l89 -725l375 725h229l-517 -958h-249l-81 716l-367 -716h-246l-121 958h211l76 -723l368 723h233zM873 1110l-251 300h266l191 -300h-206z" />
    <glyph glyph-name="Wacute" unicode="&#x1e82;" horiz-adv-x="2176" 
d="M2311 1400l-717 -1400h-274l-96 1087l-560 -1087h-284l-123 1400h230l86 -1147l586 1147h248l97 -1136l568 1136h239zM1350 1525h-213l220 300h273z" />
    <glyph glyph-name="wacute" unicode="&#x1e83;" horiz-adv-x="1635" 
d="M1017 958l89 -725l375 725h229l-517 -958h-249l-81 716l-367 -716h-246l-121 958h211l76 -723l368 723h233zM991 1110h-213l220 300h273z" />
    <glyph glyph-name="Wdieresis" unicode="&#x1e84;" horiz-adv-x="2176" 
d="M2311 1400l-717 -1400h-274l-96 1087l-560 -1087h-284l-123 1400h230l86 -1147l586 1147h248l97 -1136l568 1136h239zM1127 1814c83 0 148 -65 148 -148s-65 -146 -148 -146s-146 63 -146 146s63 148 146 148zM1527 1814c83 0 148 -65 148 -148s-65 -146 -148 -146
s-146 63 -146 146s63 148 146 148z" />
    <glyph glyph-name="wdieresis" unicode="&#x1e85;" horiz-adv-x="1635" 
d="M1017 958l89 -725l375 725h229l-517 -958h-249l-81 716l-367 -716h-246l-121 958h211l76 -723l368 723h233zM762 1399c83 0 148 -65 148 -148s-65 -146 -148 -146s-146 63 -146 146s63 148 146 148zM1162 1399c83 0 148 -65 148 -148s-65 -146 -148 -146
s-146 63 -146 146s63 148 146 148z" />
    <glyph glyph-name="uni1E88" unicode="&#x1e88;" horiz-adv-x="2176" 
d="M2311 1400l-717 -1400h-274l-96 1087l-560 -1087h-284l-123 1400h230l86 -1147l586 1147h248l97 -1136l568 1136h239zM956 -123c83 0 148 -65 148 -148s-65 -146 -148 -146s-146 63 -146 146s63 148 146 148z" />
    <glyph glyph-name="uni1E89" unicode="&#x1e89;" horiz-adv-x="1635" 
d="M1017 958l89 -725l375 725h229l-517 -958h-249l-81 716l-367 -716h-246l-121 958h211l76 -723l368 723h233zM672 -123c83 0 148 -65 148 -148s-65 -146 -148 -146s-146 63 -146 146s63 148 146 148z" />
    <glyph glyph-name="uni1E92" unicode="&#x1e92;" horiz-adv-x="1298" 
d="M1367 1400l-38 -181l-939 -1005h762l-46 -214h-1064l41 190l936 996h-760l46 214h1062zM546 -123c83 0 148 -65 148 -148s-65 -146 -148 -146s-146 63 -146 146s63 148 146 148z" />
    <glyph glyph-name="uni1E93" unicode="&#x1e93;" horiz-adv-x="1010" 
d="M995 958l-35 -159l-615 -609h511l-40 -190h-795l34 164l624 604h-511l41 190h786zM375 -123c83 0 148 -65 148 -148s-65 -146 -148 -146s-146 63 -146 146s63 148 146 148z" />
    <glyph glyph-name="uni1E94" unicode="&#x1e94;" horiz-adv-x="1298" 
d="M1367 1400l-38 -181l-939 -1005h762l-46 -214h-1064l41 190l936 996h-760l46 214h1062zM222 -350l36 170h620l-36 -170h-620z" />
    <glyph glyph-name="uni1E95" unicode="&#x1e95;" horiz-adv-x="1010" 
d="M995 958l-35 -159l-615 -609h511l-40 -190h-795l34 164l624 604h-511l41 190h786zM50 -350l36 170h620l-36 -170h-620z" />
    <glyph glyph-name="uni1E96" unicode="&#x1e96;" horiz-adv-x="1183" 
d="M720 983c212 0 345 -136 345 -331c0 -34 -4 -70 -12 -107l-117 -545h-211l116 542c6 26 9 51 9 75c0 96 -50 167 -179 167c-136 0 -259 -82 -297 -262l-111 -522h-212l307 1440h210l-117 -554c87 77 186 97 269 97zM111 -350l36 170h620l-36 -170h-620z" />
    <glyph glyph-name="uni1E9E" unicode="&#x1e9e;" horiz-adv-x="1456" 
d="M60 0l197 931c55 262 259 494 608 494c243 0 451 -106 548 -294l-410 -356c227 -59 358 -200 327 -419c-34 -241 -266 -382 -528 -382c-98 0 -230 17 -343 58l83 211c92 -38 181 -50 260 -50c171 0 274 63 291 180c19 134 -99 228 -301 228h-120l38 176l408 359
c-77 64 -185 72 -267 72c-191 0 -333 -133 -370 -308l-190 -900h-231z" />
    <glyph glyph-name="Ygrave" unicode="&#x1ef2;" horiz-adv-x="1316" 
d="M1500 1400l-710 -833l-120 -567h-231l124 585l-356 815h244l260 -618l504 618h285zM770 1525l-251 300h266l191 -300h-206z" />
    <glyph glyph-name="ygrave" unicode="&#x1ef3;" horiz-adv-x="1083" 
d="M1176 958l-957 -1364h-240l446 622l-310 742h222l222 -553l379 553h238zM590 1110l-251 300h266l191 -300h-206z" />
    <glyph glyph-name="uni1EF4" unicode="&#x1ef4;" horiz-adv-x="1316" 
d="M1500 1400l-710 -833l-120 -567h-231l124 585l-356 815h244l260 -618l504 618h285zM495 -123c83 0 148 -65 148 -148s-65 -146 -148 -146s-146 63 -146 146s63 148 146 148z" />
    <glyph glyph-name="uni1EF5" unicode="&#x1ef5;" horiz-adv-x="1083" 
d="M1176 958l-957 -1364h-240l446 622l-310 742h222l222 -553l379 553h238zM706 -123c83 0 148 -65 148 -148s-65 -146 -148 -146s-146 63 -146 146s63 148 146 148z" />
    <glyph glyph-name="uni2007" unicode="&#x2007;" horiz-adv-x="1413" 
 />
    <glyph glyph-name="uni2008" unicode="&#x2008;" horiz-adv-x="510" 
 />
    <glyph glyph-name="uni2009" unicode="&#x2009;" horiz-adv-x="180" 
 />
    <glyph glyph-name="uni200B" unicode="&#x200b;" horiz-adv-x="0" 
 />
    <glyph glyph-name="uniFEFF" unicode="&#xfeff;" horiz-adv-x="0" 
 />
    <glyph glyph-name="uni2010" unicode="&#x2010;" horiz-adv-x="821" 
d="M726 628l-40 -190h-568l40 190h568z" />
    <glyph glyph-name="uni2011" unicode="&#x2011;" horiz-adv-x="821" 
d="M726 628l-40 -190h-568l40 190h568z" />
    <glyph glyph-name="figuredash" unicode="&#x2012;" 
d="M1082 628l-39 -190h-931l39 190h931z" />
    <glyph glyph-name="endash" unicode="&#x2013;" horiz-adv-x="1149" 
d="M1071 628l-39 -190h-931l39 190h931z" />
    <glyph glyph-name="emdash" unicode="&#x2014;" horiz-adv-x="1581" 
d="M1556 628l-38 -190h-1470l38 190h1470z" />
    <glyph glyph-name="quoteleft" unicode="&#x2018;" horiz-adv-x="495" 
d="M431 895h-245l223 545h193z" />
    <glyph glyph-name="quoteright" unicode="&#x2019;" horiz-adv-x="495" 
d="M357 1440h245l-223 -545h-193z" />
    <glyph glyph-name="quotesinglbase" unicode="&#x201a;" horiz-adv-x="495" 
d="M109 271h245l-223 -545h-193z" />
    <glyph glyph-name="quotedblleft" unicode="&#x201c;" horiz-adv-x="885" 
d="M431 895h-245l223 545h193zM821 895h-245l223 545h193z" />
    <glyph glyph-name="quotedblright" unicode="&#x201d;" horiz-adv-x="885" 
d="M747 1440h245l-223 -545h-193zM357 1440h245l-223 -545h-193z" />
    <glyph glyph-name="quotedblbase" unicode="&#x201e;" horiz-adv-x="885" 
d="M499 271h245l-223 -545h-193zM109 271h245l-223 -545h-193z" />
    <glyph glyph-name="dagger" unicode="&#x2020;" horiz-adv-x="780" 
d="M508 627h-173l91 431h-213l36 169h213l45 213h173l-45 -213h213l-36 -169h-213z" />
    <glyph glyph-name="daggerdbl" unicode="&#x2021;" horiz-adv-x="780" 
d="M680 1440l-37 -173h214l-36 -169h-213l-28 -129h213l-36 -169h-213l-36 -173h-173l36 173h-213l36 169h213l28 129h-213l36 169h212l37 173h173z" />
    <glyph glyph-name="bullet" unicode="&#x2022;" horiz-adv-x="819" 
d="M426 821c158 0 288 -128 288 -288s-130 -288 -288 -288c-160 0 -288 128 -288 288s128 288 288 288z" />
    <glyph glyph-name="uni2023" unicode="&#x2023;" horiz-adv-x="1055" 
d="M947 533l-805 -415l176 830z" />
    <glyph glyph-name="ellipsis" unicode="&#x2026;" horiz-adv-x="1610" 
d="M189 325c93 0 174 -80 174 -174s-81 -176 -174 -176s-175 82 -175 176s82 174 175 174zM739 325c93 0 174 -80 174 -174s-81 -176 -174 -176s-175 82 -175 176s82 174 175 174zM1289 325c93 0 174 -80 174 -174s-81 -176 -174 -176s-175 82 -175 176s82 174 175 174z" />
    <glyph glyph-name="perthousand" unicode="&#x2030;" horiz-adv-x="2831" 
d="M606 1425c206 0 354 -145 354 -349c0 -220 -175 -406 -402 -406c-207 0 -355 145 -355 349c0 220 175 406 403 406zM595 1240c-115 0 -195 -96 -195 -210c0 -103 70 -175 168 -175c115 0 195 96 195 210c0 103 -70 175 -168 175zM1694 1400l-1055 -1400h-232l1055 1400
h232zM1543 729c206 0 354 -145 354 -349c0 -220 -175 -406 -402 -406c-207 0 -355 145 -355 349c0 220 175 406 403 406zM1532 544c-115 0 -195 -96 -195 -210c0 -103 70 -175 168 -175c115 0 195 96 195 210c0 103 -70 175 -168 175zM2368 729c206 0 354 -145 354 -349
c0 -220 -175 -406 -402 -406c-207 0 -355 145 -355 349c0 220 175 406 403 406zM2357 544c-115 0 -195 -96 -195 -210c0 -103 70 -175 168 -175c115 0 195 96 195 210c0 103 -70 175 -168 175z" />
    <glyph glyph-name="minute" unicode="&#x2032;" horiz-adv-x="545" 
d="M433 1400h210l-280 -659h-210z" />
    <glyph glyph-name="second" unicode="&#x2033;" horiz-adv-x="895" 
d="M783 1400h210l-280 -659h-210zM433 1400h210l-280 -659h-210z" />
    <glyph glyph-name="uni2034" unicode="&#x2034;" horiz-adv-x="1201" 
d="M761 1400h210l-280 -659h-210zM1089 1400h210l-280 -659h-210zM433 1400h210l-280 -659h-210z" />
    <glyph glyph-name="guilsinglleft" unicode="&#x2039;" horiz-adv-x="637" 
d="M610 912l-286 -401l102 -357h-213l-108 379l270 379h235z" />
    <glyph glyph-name="guilsinglright" unicode="&#x203a;" horiz-adv-x="637" 
d="M50 154l286 401l-102 357h213l108 -379l-270 -379h-235z" />
    <glyph glyph-name="fraction" unicode="&#x2044;" horiz-adv-x="462" 
d="M875 1400l-1055 -1400h-221l1055 1400h221z" />
    <glyph glyph-name="uni2070" unicode="&#x2070;" horiz-adv-x="901" 
d="M619 1415c186 0 309 -127 309 -326c0 -235 -153 -516 -423 -516c-186 0 -309 128 -309 326c0 234 154 516 423 516zM610 1252c-153 0 -234 -192 -234 -338c0 -109 51 -178 138 -178c153 0 234 191 234 338c0 111 -51 178 -138 178z" />
    <glyph glyph-name="uni2071" unicode="&#x2071;" horiz-adv-x="441" 
d="M480 1264l-143 -676h-173l144 676h172zM434 1602c64 0 114 -49 114 -113s-50 -112 -114 -112c-63 0 -112 48 -112 112s49 113 112 113z" />
    <glyph glyph-name="uni2074" unicode="&#x2074;" horiz-adv-x="712" 
d="M698 1105l-46 -214h111l-33 -159h-112l-30 -144h-170l30 144h-356l28 136l368 531h195l-352 -508h151l46 214h170z" />
    <glyph glyph-name="uni2075" unicode="&#x2075;" horiz-adv-x="721" 
d="M773 1400l-33 -157h-314l-36 -148h61c197 0 291 -127 261 -277c-34 -170 -165 -245 -328 -245c-117 0 -216 43 -277 121l107 110c46 -52 108 -75 177 -75c88 0 138 42 148 101c10 61 -21 113 -137 113h-198l105 457h464z" />
    <glyph glyph-name="uni2076" unicode="&#x2076;" horiz-adv-x="743" 
d="M734 1400l-244 -277c154 -2 276 -98 276 -250c0 -163 -135 -299 -328 -299c-165 0 -300 101 -300 259c0 71 27 152 109 248l272 319h215zM459 976c-86 0 -142 -61 -142 -134c0 -68 52 -116 128 -116c84 0 142 61 142 136c0 69 -56 114 -128 114z" />
    <glyph glyph-name="uni2077" unicode="&#x2077;" horiz-adv-x="681" 
d="M821 1400l-28 -141l-417 -671h-203l415 654h-378l33 158h578z" />
    <glyph glyph-name="uni2078" unicode="&#x2078;" horiz-adv-x="787" 
d="M570 1414c148 0 277 -77 277 -205c0 -95 -63 -176 -172 -218c64 -32 107 -85 107 -154c0 -144 -131 -263 -348 -263c-160 0 -290 80 -290 208c0 97 65 180 181 220c-53 31 -87 79 -87 144c0 143 124 268 332 268zM478 930c-86 0 -148 -50 -148 -118c0 -56 55 -89 120 -89
c88 0 152 47 152 117c0 58 -57 90 -124 90zM555 1262c-84 0 -137 -47 -137 -111c0 -53 44 -83 107 -83c81 0 139 47 139 111c0 54 -51 83 -109 83z" />
    <glyph glyph-name="uni2079" unicode="&#x2079;" horiz-adv-x="743" 
d="M227 588l244 277c-154 2 -275 97 -275 250c0 163 135 299 328 299c165 0 300 -101 300 -259c0 -71 -27 -152 -109 -248l-272 -319h-216zM503 1012c86 0 142 61 142 134c0 68 -52 116 -128 116c-84 0 -143 -61 -143 -136c0 -69 57 -114 129 -114z" />
    <glyph glyph-name="uni207F" unicode="&#x207f;" horiz-adv-x="821" 
d="M615 1282c146 0 236 -95 236 -230c0 -24 -3 -50 -9 -76l-84 -388h-173l82 381c3 16 5 31 5 46c0 60 -31 104 -111 104c-86 0 -160 -52 -184 -167l-76 -364h-173l144 676h168l-13 -55c57 56 124 73 188 73z" />
    <glyph glyph-name="uni2080" unicode="&#x2080;" horiz-adv-x="901" 
d="M420 441c186 0 309 -127 309 -326c0 -235 -153 -516 -423 -516c-186 0 -309 128 -309 326c0 234 154 516 423 516zM411 278c-153 0 -234 -192 -234 -338c0 -109 51 -178 138 -178c153 0 234 191 234 338c0 111 -51 178 -138 178z" />
    <glyph glyph-name="uni2081" unicode="&#x2081;" horiz-adv-x="537" 
d="M397 439l-175 -825h-170l126 589l-199 -65l37 177z" />
    <glyph glyph-name="uni2082" unicode="&#x2082;" horiz-adv-x="717" 
d="M135 205l-105 105c55 64 146 130 277 130c181 0 265 -115 265 -232c0 -107 -50 -181 -178 -287l-179 -149h295l-34 -158h-545l29 135l323 271c86 71 113 116 113 166c0 49 -38 92 -111 92c-63 0 -108 -31 -150 -73z" />
    <glyph glyph-name="uni2083" unicode="&#x2083;" horiz-adv-x="721" 
d="M105 208l-86 120c67 68 153 112 283 112c166 0 268 -92 268 -207c0 -94 -63 -178 -163 -217c65 -30 101 -86 101 -154c0 -145 -124 -262 -325 -262c-130 0 -226 43 -278 115l113 107c38 -46 100 -69 168 -69c98 0 149 49 149 113c0 55 -54 83 -130 83h-90l32 150h85
c98 0 160 49 160 109c0 49 -46 79 -114 79c-73 0 -133 -38 -173 -79z" />
    <glyph glyph-name="uni2084" unicode="&#x2084;" horiz-adv-x="712" 
d="M494 131l-46 -214h111l-33 -159h-112l-30 -144h-170l30 144h-356l28 136l368 531h195l-352 -508h151l46 214h170z" />
    <glyph glyph-name="uni2085" unicode="&#x2085;" horiz-adv-x="719" 
d="M571 426l-33 -157h-314l-36 -148h61c197 0 291 -127 261 -277c-34 -170 -165 -245 -328 -245c-117 0 -216 43 -277 121l107 110c46 -52 108 -75 177 -75c88 0 138 42 148 101c10 61 -21 113 -137 113h-198l105 457h464z" />
    <glyph glyph-name="uni2086" unicode="&#x2086;" horiz-adv-x="743" 
d="M532 426l-244 -277c154 -2 276 -98 276 -250c0 -163 -135 -299 -328 -299c-165 0 -300 101 -300 259c0 71 27 152 109 248l272 319h215zM257 2c-86 0 -142 -61 -142 -134c0 -68 52 -116 128 -116c84 0 142 61 142 136c0 69 -56 114 -128 114z" />
    <glyph glyph-name="uni2087" unicode="&#x2087;" horiz-adv-x="680" 
d="M618 426l-28 -141l-417 -671h-203l415 654h-378l33 158h578z" />
    <glyph glyph-name="uni2088" unicode="&#x2088;" horiz-adv-x="788" 
d="M370 440c148 0 277 -77 277 -205c0 -95 -63 -176 -172 -218c64 -32 107 -85 107 -154c0 -144 -131 -263 -348 -263c-160 0 -290 80 -290 208c0 97 65 180 181 220c-53 31 -87 79 -87 144c0 143 124 268 332 268zM278 -44c-86 0 -148 -50 -148 -118c0 -56 55 -89 120 -89
c88 0 152 47 152 117c0 58 -57 90 -124 90zM355 288c-84 0 -137 -47 -137 -111c0 -53 44 -83 107 -83c81 0 139 47 139 111c0 54 -51 83 -109 83z" />
    <glyph glyph-name="uni2089" unicode="&#x2089;" horiz-adv-x="743" 
d="M15 -386l244 277c-154 2 -275 97 -275 250c0 163 135 299 328 299c165 0 300 -101 300 -259c0 -71 -27 -152 -109 -248l-272 -319h-216zM291 38c86 0 142 61 142 134c0 68 -52 116 -128 116c-84 0 -143 -61 -143 -136c0 -69 57 -114 129 -114z" />
    <glyph glyph-name="Euro" unicode="&#x20ac;" horiz-adv-x="1400" 
d="M1182 355l129 -139c-113 -145 -273 -234 -463 -234c-296 0 -502 181 -552 473h-201l36 173h154c2 51 6 105 16 156h-143l36 173h154c110 291 353 466 656 466c141 0 327 -37 476 -233l-161 -139c-103 139 -224 172 -328 172c-180 0 -326 -97 -409 -266h568l-37 -173h-588
c-10 -50 -16 -100 -18 -156h573l-36 -173h-518c45 -172 167 -273 334 -273c134 0 248 74 322 173z" />
    <glyph glyph-name="uni20BA" unicode="&#x20ba;" horiz-adv-x="1400" 
d="M1087 467l178 -95c-129 -300 -356 -372 -613 -372h-413l65 305l-200 -86l40 198l202 87l34 160l-201 -87l39 197l204 89l115 537h219l-92 -433l457 199l-40 -198l-460 -199l-34 -160l459 199l-40 -198l-461 -200l-43 -202h171c172 0 318 42 414 259z" />
    <glyph glyph-name="uni2100" unicode="&#x2100;" horiz-adv-x="2000" 
d="M666 1425c181 0 285 -93 285 -241c0 -24 -3 -50 -8 -76l-80 -377h-169l10 49c-49 -40 -111 -67 -184 -67c-133 0 -224 80 -224 193c0 140 110 233 293 233h187c2 8 2 17 2 25c0 69 -45 108 -143 108c-74 0 -132 -27 -183 -56l-47 140c83 49 162 69 261 69zM570 856
c55 0 116 27 163 72l18 84h-147c-78 0 -124 -34 -124 -85c0 -43 32 -71 90 -71zM1729 1400l-1055 -1400h-221l1055 1400h221zM1866 532l-143 -86c-49 67 -108 76 -150 76c-115 0 -202 -99 -202 -216c0 -101 69 -171 158 -171c57 0 110 22 152 66l110 -108
c-68 -77 -164 -119 -269 -119c-197 0 -328 137 -328 320c0 211 160 389 387 389c132 0 229 -53 285 -151z" />
    <glyph glyph-name="uni2101" unicode="&#x2101;" horiz-adv-x="2000" 
d="M646 1425c181 0 285 -93 285 -241c0 -24 -3 -50 -8 -76l-80 -377h-169l10 49c-49 -40 -111 -67 -184 -67c-133 0 -224 80 -224 193c0 140 110 233 293 233h187c2 8 2 17 2 25c0 69 -45 108 -143 108c-74 0 -132 -27 -183 -56l-47 140c83 49 162 69 261 69zM550 856
c55 0 116 27 163 72l18 84h-147c-78 0 -124 -34 -124 -85c0 -43 32 -71 90 -71zM1705 1400l-1055 -1400h-221l1055 1400h221zM1824 609l-81 -129c-61 37 -154 58 -213 58c-70 0 -110 -22 -114 -60c-6 -51 34 -60 95 -71l47 -8c154 -28 215 -104 203 -208
c-15 -132 -127 -218 -308 -218c-105 0 -227 31 -307 91l86 127c61 -42 138 -73 223 -73c82 0 124 25 129 68c4 36 -25 58 -95 68l-48 7c-154 24 -216 103 -203 211c16 137 126 212 293 212c114 0 213 -27 293 -75z" />
    <glyph glyph-name="afii61248" unicode="&#x2105;" horiz-adv-x="2000" 
d="M921 1273l-143 -86c-49 67 -108 76 -150 76c-115 0 -202 -99 -202 -216c0 -101 69 -171 158 -171c57 0 110 22 152 66l110 -108c-68 -77 -164 -119 -269 -119c-197 0 -328 137 -328 320c0 211 160 389 387 389c132 0 229 -53 285 -151zM1643 1400l-1055 -1400h-221
l1055 1400h221zM1507 684c196 0 337 -133 337 -323c0 -212 -167 -389 -392 -389c-195 0 -337 132 -337 324c0 211 166 388 392 388zM1494 523c-115 0 -202 -98 -202 -217c0 -102 70 -173 170 -173c117 0 205 98 205 217c0 102 -71 173 -173 173z" />
    <glyph glyph-name="uni2106" unicode="&#x2106;" horiz-adv-x="2000" 
d="M925 1273l-143 -86c-49 67 -108 76 -150 76c-115 0 -202 -99 -202 -216c0 -101 69 -171 158 -171c57 0 110 22 152 66l110 -108c-68 -77 -164 -119 -269 -119c-197 0 -328 137 -328 320c0 211 160 389 387 389c132 0 229 -53 285 -151zM1644 1400l-1055 -1400h-221
l1055 1400h221zM1883 675l-84 -396c-46 -219 -194 -298 -360 -298c-158 0 -274 86 -274 245c0 25 3 52 9 81l78 368h173l-81 -380c-4 -18 -6 -33 -6 -48c0 -73 48 -104 118 -104c83 0 153 52 177 167l77 365h173z" />
    <glyph glyph-name="afii61289" unicode="&#x2113;" horiz-adv-x="1057" 
d="M216 365l-77 180c54 20 105 43 154 67l2 464c1 220 130 389 340 389c192 0 325 -136 325 -325c0 -261 -196 -477 -457 -634v-156c0 -129 68 -179 152 -179c65 0 136 29 193 65l83 -167c-77 -52 -174 -95 -294 -95c-217 0 -344 117 -344 372v51c-26 -11 -51 -22 -77 -32z
M505 1076l-1 -335c150 116 241 253 241 399c0 81 -39 129 -110 129c-74 0 -130 -69 -130 -193z" />
    <glyph glyph-name="afii61352" unicode="&#x2116;" horiz-adv-x="2371" 
d="M2331 586l-41 -190h-688l41 190h688zM2086 1417c203 0 346 -135 346 -327c0 -208 -167 -383 -390 -383c-204 0 -345 140 -345 326c0 208 164 384 389 384zM2078 1258c-122 0 -207 -98 -207 -214c0 -104 74 -178 178 -178c123 0 208 98 208 215c0 104 -74 177 -179 177z
M1578 1400l-298 -1400h-211l-538 1046l-222 -1046h-230l298 1400h212l537 -1045l222 1045h230z" />
    <glyph glyph-name="uni2117" unicode="&#x2117;" horiz-adv-x="1900" 
d="M942 -98c-417 0 -768 318 -768 753c0 448 383 863 882 863c417 0 768 -318 768 -753c0 -448 -383 -863 -882 -863zM1042 1334c-387 0 -676 -325 -676 -668c0 -337 270 -580 590 -580c387 0 676 325 676 668c0 337 -270 580 -590 580zM792 1130h334
c230 0 353 -138 318 -302c-35 -165 -174 -243 -373 -243h-208l-66 -311h-187zM1116 961h-173l-45 -210h173c109 0 171 22 185 96c13 65 -31 114 -140 114z" />
    <glyph glyph-name="uni2120" unicode="&#x2120;" horiz-adv-x="1591" 
d="M800 1333l-76 -118c-67 44 -150 58 -203 58c-78 0 -111 -29 -111 -62c0 -41 49 -57 106 -65l35 -5c119 -17 198 -77 198 -174c0 -134 -118 -219 -288 -219c-92 0 -217 27 -295 89l83 118c68 -52 157 -72 221 -72c67 0 118 21 118 63c0 37 -38 51 -115 64l-37 6
c-114 18 -187 79 -187 175c0 122 96 218 273 218c78 0 179 -12 278 -76zM1579 760h-150l94 444l-225 -383h-159l-63 382l-94 -443h-150l136 640h209l72 -410l245 410h221z" />
    <glyph glyph-name="trademark" unicode="&#x2122;" horiz-adv-x="1571" 
d="M1559 760h-150l94 444l-225 -383h-159l-63 382l-94 -443h-150l136 640h209l72 -410l245 410h221zM484 760h-150l106 502h-202l29 138h556l-29 -138h-204z" />
    <glyph glyph-name="Omega" unicode="&#x2126;" horiz-adv-x="1716" 
d="M1624 214l-46 -214h-616l41 192c244 70 399 305 399 561c0 263 -193 456 -468 456c-309 0 -534 -252 -534 -563c0 -221 119 -388 306 -447l-42 -199h-618l46 214h279c-133 113 -207 270 -207 451c0 407 339 759 781 760c412 0 696 -273 696 -652
c0 -214 -91 -413 -267 -559h250z" />
    <glyph glyph-name="estimated" unicode="&#x212e;" horiz-adv-x="2000" 
d="M533 660v-329c0 -104 26 -183 113 -241c116 -78 259 -120 412 -120c251 0 472 115 601 308l64 -49c-145 -213 -389 -339 -665 -339c-442 0 -804 324 -804 810s362 810 804 810s804 -324 804 -810c0 -14 0 -27 -1 -40h-1328zM533 740h1064v316c0 103 -25 181 -108 241
c-120 87 -270 133 -431 133c-153 0 -296 -42 -412 -120c-87 -58 -113 -137 -113 -241v-329z" />
    <glyph glyph-name="uni214D" unicode="&#x214d;" horiz-adv-x="2000" 
d="M819 1400l118 -728h-176l-21 153h-276l-85 -153h-190l424 728h206zM1855 654l-89 -137c-71 50 -166 66 -222 66c-81 0 -116 -31 -116 -68c0 -46 56 -60 117 -72l35 -7c132 -26 216 -88 216 -196c0 -156 -133 -254 -323 -254c-108 0 -246 32 -330 102l97 138
c77 -59 171 -83 245 -83c70 0 122 24 122 71c0 41 -42 55 -124 71l-37 7c-127 24 -206 89 -206 198c0 142 109 251 304 251c86 0 199 -12 311 -87zM685 1224l-134 -242h167zM1747 1400l-1055 -1400h-221l1055 1400h221z" />
    <glyph glyph-name="uni2150" unicode="&#x2150;" horiz-adv-x="1738" 
d="M1440 1400l-1055 -1400h-221l1055 1400h221zM1753 812l-28 -141l-417 -671h-203l415 654h-378l33 158h578zM600 1413l-175 -825h-170l126 589l-199 -65l37 177z" />
    <glyph glyph-name="uni2151" unicode="&#x2151;" horiz-adv-x="1770" 
d="M1440 1400l-1055 -1400h-221l1055 1400h221zM1129 0l244 277c-154 2 -275 97 -275 250c0 163 135 299 328 299c165 0 300 -101 300 -259c0 -71 -27 -152 -109 -248l-272 -319h-216zM1405 424c86 0 142 61 142 134c0 68 -52 116 -128 116c-84 0 -143 -61 -143 -136
c0 -69 57 -114 129 -114zM600 1413l-175 -825h-170l126 589l-199 -65l37 177z" />
    <glyph glyph-name="uni2152" unicode="&#x2152;" horiz-adv-x="2483" 
d="M1440 1400l-1055 -1400h-221l1055 1400h221zM1512 825l-175 -825h-170l126 589l-199 -65l37 177zM2076 827c186 0 309 -127 309 -326c0 -235 -153 -516 -423 -516c-186 0 -309 128 -309 326c0 234 154 516 423 516zM2067 664c-153 0 -234 -192 -234 -338
c0 -109 51 -178 138 -178c153 0 234 191 234 338c0 111 -51 178 -138 178zM600 1413l-175 -825h-170l126 589l-199 -65l37 177z" />
    <glyph glyph-name="onethird" unicode="&#x2153;" horiz-adv-x="1744" 
d="M1440 1400l-1055 -1400h-221l1055 1400h221zM1210 594l-86 120c67 68 153 112 283 112c166 0 268 -92 268 -207c0 -94 -63 -178 -163 -217c65 -30 101 -86 101 -154c0 -145 -124 -262 -325 -262c-130 0 -226 43 -278 115l113 107c38 -46 100 -69 168 -69
c98 0 149 49 149 113c0 55 -54 83 -130 83h-90l32 150h85c98 0 160 49 160 109c0 49 -46 79 -114 79c-73 0 -133 -38 -173 -79zM600 1413l-175 -825h-170l126 589l-199 -65l37 177z" />
    <glyph glyph-name="twothirds" unicode="&#x2154;" horiz-adv-x="1957" 
d="M1653 1400l-1055 -1400h-221l1055 1400h221zM1423 594l-86 120c67 68 153 112 283 112c166 0 268 -92 268 -207c0 -94 -63 -178 -163 -217c65 -30 101 -86 101 -154c0 -145 -124 -262 -325 -262c-130 0 -226 43 -278 115l113 107c38 -46 100 -69 168 -69
c98 0 149 49 149 113c0 55 -54 83 -130 83h-90l32 150h85c98 0 160 49 160 109c0 49 -46 79 -114 79c-73 0 -133 -38 -173 -79zM337 1179l-105 105c55 64 146 130 277 130c181 0 265 -115 265 -232c0 -107 -50 -181 -178 -287l-179 -149h295l-34 -158h-545l29 135l323 271
c86 71 113 116 113 166c0 49 -38 92 -111 92c-63 0 -108 -31 -150 -73z" />
    <glyph glyph-name="uni2155" unicode="&#x2155;" horiz-adv-x="1748" 
d="M1440 1400l-1055 -1400h-221l1055 1400h221zM1675 812l-33 -157h-314l-36 -148h61c197 0 291 -127 261 -277c-34 -170 -165 -245 -328 -245c-117 0 -216 43 -277 121l107 110c46 -52 108 -75 177 -75c88 0 138 42 148 101c10 61 -21 113 -137 113h-198l105 457h464z
M600 1413l-175 -825h-170l126 589l-199 -65l37 177z" />
    <glyph glyph-name="uni2156" unicode="&#x2156;" horiz-adv-x="1961" 
d="M1653 1400l-1055 -1400h-221l1055 1400h221zM1888 812l-33 -157h-314l-36 -148h61c197 0 291 -127 261 -277c-34 -170 -165 -245 -328 -245c-117 0 -216 43 -277 121l107 110c46 -52 108 -75 177 -75c88 0 138 42 148 101c10 61 -21 113 -137 113h-198l105 457h464z
M337 1179l-105 105c55 64 146 130 277 130c181 0 265 -115 265 -232c0 -107 -50 -181 -178 -287l-179 -149h295l-34 -158h-545l29 135l323 271c86 71 113 116 113 166c0 49 -38 92 -111 92c-63 0 -108 -31 -150 -73z" />
    <glyph glyph-name="uni2157" unicode="&#x2157;" horiz-adv-x="1900" 
d="M1592 1400l-1055 -1400h-221l1055 1400h221zM1827 812l-33 -157h-314l-36 -148h61c197 0 291 -127 261 -277c-34 -170 -165 -245 -328 -245c-117 0 -216 43 -277 121l107 110c46 -52 108 -75 177 -75c88 0 138 42 148 101c10 61 -21 113 -137 113h-198l105 457h464z
M308 1182l-86 120c67 68 153 112 283 112c166 0 268 -92 268 -207c0 -94 -63 -178 -163 -217c65 -30 101 -86 101 -154c0 -145 -124 -262 -325 -262c-130 0 -226 43 -278 115l113 107c38 -46 100 -69 168 -69c98 0 149 49 149 113c0 55 -54 83 -130 83h-90l32 150h85
c98 0 160 49 160 109c0 49 -46 79 -114 79c-73 0 -133 -38 -173 -79z" />
    <glyph glyph-name="uni2158" unicode="&#x2158;" horiz-adv-x="1925" 
d="M1617 1400l-1055 -1400h-221l1055 1400h221zM1852 812l-33 -157h-314l-36 -148h61c197 0 291 -127 261 -277c-34 -170 -165 -245 -328 -245c-117 0 -216 43 -277 121l107 110c46 -52 108 -75 177 -75c88 0 138 42 148 101c10 61 -21 113 -137 113h-198l105 457h464z
M698 1105l-46 -214h111l-33 -159h-112l-30 -144h-170l30 144h-356l28 136l368 531h195l-352 -508h151l46 214h170z" />
    <glyph glyph-name="uni2159" unicode="&#x2159;" horiz-adv-x="1660" 
d="M1440 1400l-1055 -1400h-221l1055 1400h221zM1526 812l-244 -277c154 -2 276 -98 276 -250c0 -163 -135 -299 -328 -299c-165 0 -300 101 -300 259c0 71 27 152 109 248l272 319h215zM1251 388c-86 0 -142 -61 -142 -134c0 -68 52 -116 128 -116c84 0 142 61 142 136
c0 69 -56 114 -128 114zM600 1413l-175 -825h-170l126 589l-199 -65l37 177z" />
    <glyph glyph-name="uni215A" unicode="&#x215a;" horiz-adv-x="1816" 
d="M1596 1400l-1055 -1400h-221l1055 1400h221zM1682 812l-244 -277c154 -2 276 -98 276 -250c0 -163 -135 -299 -328 -299c-165 0 -300 101 -300 259c0 71 27 152 109 248l272 319h215zM1407 388c-86 0 -142 -61 -142 -134c0 -68 52 -116 128 -116c84 0 142 61 142 136
c0 69 -56 114 -128 114zM773 1400l-33 -157h-314l-36 -148h61c197 0 291 -127 261 -277c-34 -170 -165 -245 -328 -245c-117 0 -216 43 -277 121l107 110c46 -52 108 -75 177 -75c88 0 138 42 148 101c10 61 -21 113 -137 113h-198l105 457h464z" />
    <glyph glyph-name="oneeighth" unicode="&#x215b;" horiz-adv-x="1784" 
d="M1440 1400l-1055 -1400h-221l1055 1400h221zM1442 826c148 0 277 -77 277 -205c0 -95 -63 -176 -172 -218c64 -32 107 -85 107 -154c0 -144 -131 -263 -348 -263c-160 0 -290 80 -290 208c0 97 65 180 181 220c-53 31 -87 79 -87 144c0 143 124 268 332 268zM1350 342
c-86 0 -148 -50 -148 -118c0 -56 55 -89 120 -89c88 0 152 47 152 117c0 58 -57 90 -124 90zM1427 674c-84 0 -137 -47 -137 -111c0 -53 44 -83 107 -83c81 0 139 47 139 111c0 54 -51 83 -109 83zM600 1413l-175 -825h-170l126 589l-199 -65l37 177z" />
    <glyph glyph-name="threeeighths" unicode="&#x215c;" horiz-adv-x="1936" 
d="M1592 1400l-1055 -1400h-221l1055 1400h221zM1594 826c148 0 277 -77 277 -205c0 -95 -63 -176 -172 -218c64 -32 107 -85 107 -154c0 -144 -131 -263 -348 -263c-160 0 -290 80 -290 208c0 97 65 180 181 220c-53 31 -87 79 -87 144c0 143 124 268 332 268zM1502 342
c-86 0 -148 -50 -148 -118c0 -56 55 -89 120 -89c88 0 152 47 152 117c0 58 -57 90 -124 90zM1579 674c-84 0 -137 -47 -137 -111c0 -53 44 -83 107 -83c81 0 139 47 139 111c0 54 -51 83 -109 83zM308 1182l-86 120c67 68 153 112 283 112c166 0 268 -92 268 -207
c0 -94 -63 -178 -163 -217c65 -30 101 -86 101 -154c0 -145 -124 -262 -325 -262c-130 0 -226 43 -278 115l113 107c38 -46 100 -69 168 -69c98 0 149 49 149 113c0 55 -54 83 -130 83h-90l32 150h85c98 0 160 49 160 109c0 49 -46 79 -114 79c-73 0 -133 -38 -173 -79z" />
    <glyph glyph-name="fiveeighths" unicode="&#x215d;" horiz-adv-x="1940" 
d="M1596 1400l-1055 -1400h-221l1055 1400h221zM1598 826c148 0 277 -77 277 -205c0 -95 -63 -176 -172 -218c64 -32 107 -85 107 -154c0 -144 -131 -263 -348 -263c-160 0 -290 80 -290 208c0 97 65 180 181 220c-53 31 -87 79 -87 144c0 143 124 268 332 268zM1506 342
c-86 0 -148 -50 -148 -118c0 -56 55 -89 120 -89c88 0 152 47 152 117c0 58 -57 90 -124 90zM1583 674c-84 0 -137 -47 -137 -111c0 -53 44 -83 107 -83c81 0 139 47 139 111c0 54 -51 83 -109 83zM773 1400l-33 -157h-314l-36 -148h61c197 0 291 -127 261 -277
c-34 -170 -165 -245 -328 -245c-117 0 -216 43 -277 121l107 110c46 -52 108 -75 177 -75c88 0 138 42 148 101c10 61 -21 113 -137 113h-198l105 457h464z" />
    <glyph glyph-name="seveneighths" unicode="&#x215e;" horiz-adv-x="1830" 
d="M1486 1400l-1055 -1400h-221l1055 1400h221zM1488 826c148 0 277 -77 277 -205c0 -95 -63 -176 -172 -218c64 -32 107 -85 107 -154c0 -144 -131 -263 -348 -263c-160 0 -290 80 -290 208c0 97 65 180 181 220c-53 31 -87 79 -87 144c0 143 124 268 332 268zM1396 342
c-86 0 -148 -50 -148 -118c0 -56 55 -89 120 -89c88 0 152 47 152 117c0 58 -57 90 -124 90zM1473 674c-84 0 -137 -47 -137 -111c0 -53 44 -83 107 -83c81 0 139 47 139 111c0 54 -51 83 -109 83zM821 1400l-28 -141l-417 -671h-203l415 654h-378l33 158h578z" />
    <glyph glyph-name="uni215F" unicode="&#x215f;" horiz-adv-x="1027" 
d="M1440 1400l-1055 -1400h-221l1055 1400h221zM600 1413l-175 -825h-170l126 589l-199 -65l37 177z" />
    <glyph glyph-name="uni2189" unicode="&#x2189;" horiz-adv-x="2080" 
d="M1776 1400l-1055 -1400h-221l1055 1400h221zM1546 594l-86 120c67 68 153 112 283 112c166 0 268 -92 268 -207c0 -94 -63 -178 -163 -217c65 -30 101 -86 101 -154c0 -145 -124 -262 -325 -262c-130 0 -226 43 -278 115l113 107c38 -46 100 -69 168 -69
c98 0 149 49 149 113c0 55 -54 83 -130 83h-90l32 150h85c98 0 160 49 160 109c0 49 -46 79 -114 79c-73 0 -133 -38 -173 -79zM619 1415c186 0 309 -127 309 -326c0 -235 -153 -516 -423 -516c-186 0 -309 128 -309 326c0 234 154 516 423 516zM610 1252
c-153 0 -234 -192 -234 -338c0 -109 51 -178 138 -178c153 0 234 191 234 338c0 111 -51 178 -138 178z" />
    <glyph glyph-name="arrowleft" unicode="&#x2190;" horiz-adv-x="2000" 
d="M1849 570h-1019c-83 0 -148 0 -278 8c97 -78 194 -174 271 -251l169 -169l-134 -134l-641 641l641 641l134 -134l-169 -169c-77 -77 -174 -173 -271 -251c130 8 195 8 278 8h1019v-190z" />
    <glyph glyph-name="arrowup" unicode="&#x2191;" horiz-adv-x="2000" 
d="M974 -111v1019c0 83 0 148 8 278c-78 -97 -174 -194 -251 -271l-169 -169l-134 134l641 641l641 -641l-134 -134l-169 169c-77 77 -173 174 -251 271c8 -130 8 -195 8 -278v-1019h-190z" />
    <glyph glyph-name="arrowright" unicode="&#x2192;" horiz-adv-x="2000" 
d="M245 760h1019c83 0 148 0 278 -8c-97 78 -194 174 -271 251l-169 169l134 134l641 -641l-641 -641l-134 134l169 169c77 77 174 173 271 251c-130 -8 -195 -8 -278 -8h-1019v190z" />
    <glyph glyph-name="arrowdown" unicode="&#x2193;" horiz-adv-x="2000" 
d="M1105 1521v-1019c0 -83 0 -148 -8 -278c78 97 174 194 251 271l169 169l134 -134l-641 -641l-641 641l134 134l169 -169c77 -77 173 -174 251 -271c-8 130 -8 195 -8 278v1019h190z" />
    <glyph glyph-name="uni2196" unicode="&#x2196;" horiz-adv-x="2000" 
d="M1553 35l-720 720c-59 59 -105 105 -191 202c13 -123 14 -260 14 -369v-239h-189v907h906v-190h-239c-109 0 -245 1 -369 15c98 -87 144 -133 202 -191l721 -721z" />
    <glyph glyph-name="uni2197" unicode="&#x2197;" horiz-adv-x="2000" 
d="M406 156l720 720c59 59 105 105 202 191c-123 -13 -260 -14 -369 -14h-239v189h907v-906h-190v239c0 109 1 245 15 369c-87 -98 -133 -144 -191 -202l-721 -721z" />
    <glyph glyph-name="uni2198" unicode="&#x2198;" horiz-adv-x="2000" 
d="M541 1309l720 -720c59 -59 105 -105 191 -202c-13 123 -14 260 -14 369v239h189v-907h-906v190h239c109 0 245 -1 369 -15c-98 87 -144 133 -202 191l-721 721z" />
    <glyph glyph-name="uni2199" unicode="&#x2199;" horiz-adv-x="2000" 
d="M1694 1160l-720 -720c-59 -59 -105 -105 -202 -191c123 13 260 14 369 14h239v-189h-907v906h190v-239c0 -109 -1 -245 -15 -369c87 98 133 144 191 202l721 721z" />
    <glyph glyph-name="partialdiff" unicode="&#x2202;" horiz-adv-x="1186" 
d="M374 1292l96 165c457 -169 644 -519 644 -862c0 -44 -4 -88 -10 -134c-35 -282 -268 -487 -540 -487c-286 0 -488 194 -488 451c0 286 230 528 514 528c123 0 227 -43 300 -119c-67 190 -241 359 -516 458zM613 756c-230 0 -320 -194 -320 -319c0 -155 118 -266 285 -266
c235 0 321 193 321 317c0 160 -119 268 -286 268z" />
    <glyph glyph-name="Delta" unicode="&#x2206;" horiz-adv-x="1392" 
d="M1034 1400l221 -1225l-37 -175h-1247l37 175l744 1225h282zM1020 214l-165 961l-574 -961h739z" />
    <glyph glyph-name="product" unicode="&#x220f;" horiz-adv-x="1823" 
d="M1485 1400v-1665h-226v1451h-656v-1451h-226v1665h1108z" />
    <glyph glyph-name="summation" unicode="&#x2211;" horiz-adv-x="1629" 
d="M1357 1400v-214h-741l503 -546v-125l-508 -566h751v-214h-1082v175l598 662l-593 653v175h1072z" />
    <glyph glyph-name="minus" unicode="&#x2212;" 
d="M1070 628l-40 -190h-900l40 190h900z" />
    <glyph glyph-name="uni2219" unicode="&#x2219;" 
d="M600 821c158 0 288 -128 288 -288s-130 -288 -288 -288c-160 0 -288 128 -288 288s128 288 288 288z" />
    <glyph glyph-name="radical" unicode="&#x221a;" horiz-adv-x="1119" 
d="M1286 1440l-549 -1705h-282l-382 1000h249l273 -735l461 1440h230z" />
    <glyph glyph-name="infinity" unicode="&#x221e;" horiz-adv-x="1718" 
d="M66 520c0 248 184 405 395 405c161 0 269 -112 407 -264c139 152 246 264 407 264c211 0 395 -157 395 -405s-184 -405 -395 -405c-161 0 -268 111 -407 263c-138 -152 -246 -263 -407 -263c-211 0 -395 157 -395 405zM266 520c0 -138 87 -215 195 -215
c81 0 143 67 279 215c-138 150 -198 215 -279 215c-108 0 -195 -77 -195 -215zM1470 520c0 138 -87 215 -195 215c-80 0 -141 -65 -278 -215h1l-1 -1c137 -149 198 -214 278 -214c108 0 195 77 195 215z" />
    <glyph glyph-name="integral" unicode="&#x222b;" horiz-adv-x="403" 
d="M517 1412l-57 -190c-16 4 -33 6 -50 6c-81 0 -125 -53 -125 -148v-1025c0 -192 -97 -345 -321 -345c-44 0 -84 4 -121 13l57 190c16 -4 33 -6 50 -6c81 0 125 53 125 148v1025c0 192 97 345 321 345c44 0 84 -4 121 -13z" />
    <glyph glyph-name="congruent" unicode="&#x2245;" 
d="M1041 428l-41 -190h-900l41 190h900zM1126 828l-41 -190h-900l41 190h900zM1088 1267l92 -142c-96 -76 -185 -113 -302 -113c-174 0 -218 78 -353 78c-66 0 -113 -25 -178 -75l-92 142c96 76 186 113 302 113c175 0 218 -78 353 -78c66 0 113 25 178 75z" />
    <glyph glyph-name="approxequal" unicode="&#x2248;" 
d="M1043 855l92 -142c-96 -76 -185 -113 -302 -113c-174 0 -218 78 -353 78c-66 0 -113 -25 -178 -75l-92 142c96 76 186 113 302 113c175 0 218 -78 353 -78c66 0 113 25 178 75zM957 458l92 -142c-96 -76 -185 -113 -302 -113c-174 0 -218 78 -353 78
c-66 0 -113 -25 -178 -75l-92 142c96 76 186 113 302 113c175 0 218 -78 353 -78c66 0 113 25 178 75z" />
    <glyph glyph-name="uni2259" unicode="&#x2259;" 
d="M1039 428l-41 -190h-900l41 190h900zM1124 828l-41 -190h-900l41 190h900zM1041 1006h-219l-91 166l-156 -166h-234l263 300h286z" />
    <glyph glyph-name="notequal" unicode="&#x2260;" 
d="M1039 428l-41 -190h-478l-145 -238h-200l145 238h-222l41 190h297l128 210h-381l41 190h456l145 238h200l-145 -238h244l-41 -190h-319l-128 -210h403z" />
    <glyph glyph-name="lessequal" unicode="&#x2264;" 
d="M1080 863l-621 -211l532 -210l-45 -211l-745 330l43 205l885 330zM123 190h815l-40 -190h-815z" />
    <glyph glyph-name="greaterequal" unicode="&#x2265;" 
d="M1076 766l-43 -205l-885 -330l49 233l621 211l-532 210l45 211zM139 190h815l-40 -190h-815z" />
    <glyph glyph-name="dotmath" unicode="&#x22c5;" 
d="M600 708c93 0 174 -80 174 -174s-81 -176 -174 -176s-175 82 -175 176s82 174 175 174z" />
    <glyph glyph-name="uni2300" unicode="&#x2205;" horiz-adv-x="1390" 
d="M1109 1058l134 -134l-122 -122c55 -81 87 -178 87 -282c0 -277 -226 -503 -503 -503c-105 0 -202 32 -282 87l-122 -122l-134 134l121 121c-55 81 -87 178 -87 283c0 276 226 504 504 504c104 0 202 -32 282 -88zM391 520c0 -56 14 -108 40 -154l426 427
c-45 26 -97 41 -152 41c-173 0 -314 -142 -314 -314zM705 207c172 0 313 141 313 313c0 54 -15 106 -40 151l-424 -425c45 -25 96 -39 151 -39z" />
    <glyph glyph-name="uni2300" unicode="&#x2300;" horiz-adv-x="1390" 
d="M1109 1058l134 -134l-122 -122c55 -81 87 -178 87 -282c0 -277 -226 -503 -503 -503c-105 0 -202 32 -282 87l-122 -122l-134 134l121 121c-55 81 -87 178 -87 283c0 276 226 504 504 504c104 0 202 -32 282 -88zM391 520c0 -56 14 -108 40 -154l426 427
c-45 26 -97 41 -152 41c-173 0 -314 -142 -314 -314zM705 207c172 0 313 141 313 313c0 54 -15 106 -40 151l-424 -425c45 -25 96 -39 151 -39z" />
    <glyph glyph-name="uni2460" unicode="&#x2460;" horiz-adv-x="2050" 
d="M1082 1594c498 0 900 -401 900 -893c0 -493 -402 -895 -900 -895s-900 402 -900 895c0 492 402 893 900 893zM1082 1398c-386 0 -698 -311 -698 -697c0 -387 312 -699 698 -699s698 312 698 699c0 386 -312 697 -698 697zM1215 1151v-867h-186v609l-225 -83v184z" />
    <glyph glyph-name="uni2461" unicode="&#x2461;" horiz-adv-x="2050" 
d="M1082 1594c498 0 900 -401 900 -893c0 -493 -402 -895 -900 -895s-900 402 -900 895c0 492 402 893 900 893zM1082 1398c-386 0 -698 -311 -698 -697c0 -387 312 -699 698 -699s698 312 698 699c0 386 -312 697 -698 697zM884 879l-114 125c51 63 145 149 312 149
c186 0 305 -112 305 -279c0 -108 -61 -184 -135 -254l-173 -163h328v-173h-596v146l312 296c45 42 70 86 70 135c0 68 -52 114 -127 114c-84 0 -135 -46 -182 -96z" />
    <glyph glyph-name="uni2462" unicode="&#x2462;" horiz-adv-x="2050" 
d="M1082 1594c498 0 900 -401 900 -893c0 -493 -402 -895 -900 -895s-900 402 -900 895c0 492 402 893 900 893zM1082 1398c-386 0 -698 -311 -698 -697c0 -387 312 -699 698 -699s698 312 698 699c0 386 -312 697 -698 697zM1073 1153c190 0 320 -97 320 -246
c0 -92 -50 -158 -134 -193c95 -34 153 -102 153 -194c0 -170 -161 -252 -333 -252c-134 0 -244 46 -312 125l107 121c51 -52 123 -81 197 -81c82 0 148 32 148 99s-74 102 -165 102h-103v161h104c82 0 146 33 146 97c0 61 -58 94 -137 94c-82 0 -142 -40 -179 -83l-113 120
c62 75 159 130 301 130z" />
    <glyph glyph-name="uni2463" unicode="&#x2463;" horiz-adv-x="2050" 
d="M1082 1594c498 0 900 -401 900 -893c0 -493 -402 -895 -900 -895s-900 402 -900 895c0 492 402 893 900 893zM1082 1398c-386 0 -698 -311 -698 -697c0 -387 312 -699 698 -699s698 312 698 699c0 386 -312 697 -698 697zM1296 832v-226h118v-173h-118v-149h-186v149
h-393v132l302 572h206l-285 -531h170v226h186z" />
    <glyph glyph-name="uni2464" unicode="&#x2464;" horiz-adv-x="2050" 
d="M1082 1594c498 0 900 -401 900 -893c0 -493 -402 -895 -900 -895s-900 402 -900 895c0 492 402 893 900 893zM1082 1398c-386 0 -698 -311 -698 -697c0 -387 312 -699 698 -699s698 312 698 699c0 386 -312 697 -698 697zM1365 1138v-172h-353l-4 -149h96
c206 0 313 -108 313 -255c0 -183 -144 -294 -330 -294c-134 0 -244 49 -317 123l99 134c46 -44 133 -86 217 -86c92 0 137 47 137 110c0 57 -40 105 -170 105h-214l10 484h516z" />
    <glyph glyph-name="uni2465" unicode="&#x2465;" horiz-adv-x="2050" 
d="M1082 1594c498 0 900 -401 900 -893c0 -493 -402 -895 -900 -895s-900 402 -900 895c0 492 402 893 900 893zM1082 1398c-386 0 -698 -311 -698 -697c0 -387 312 -699 698 -699s698 312 698 699c0 386 -312 697 -698 697zM1283 1138l-214 -292c9 1 18 2 27 2
c183 0 309 -126 309 -284c0 -171 -145 -296 -335 -296c-191 0 -336 124 -336 291c0 80 31 155 86 234l238 345h225zM1070 689c-80 0 -141 -53 -141 -127c0 -75 61 -127 141 -127c79 0 141 53 141 127s-62 127 -141 127z" />
    <glyph glyph-name="uni2466" unicode="&#x2466;" horiz-adv-x="2050" 
d="M1082 1594c498 0 900 -401 900 -893c0 -493 -402 -895 -900 -895s-900 402 -900 895c0 492 402 893 900 893zM1082 1398c-386 0 -698 -311 -698 -697c0 -387 312 -699 698 -699s698 312 698 699c0 386 -312 697 -698 697zM1427 1138v-146l-360 -708h-221l361 681h-413
v173h633z" />
    <glyph glyph-name="uni2467" unicode="&#x2467;" horiz-adv-x="2050" 
d="M1082 1594c498 0 900 -401 900 -893c0 -493 -402 -895 -900 -895s-900 402 -900 895c0 492 402 893 900 893zM1082 1398c-386 0 -698 -311 -698 -697c0 -387 312 -699 698 -699s698 312 698 699c0 386 -312 697 -698 697zM1082 1153c178 0 326 -92 326 -246
c0 -96 -60 -157 -138 -192c89 -34 160 -96 160 -199c0 -155 -158 -248 -348 -248s-347 93 -347 248c0 103 70 165 159 198c-78 35 -138 97 -138 193c0 154 148 246 326 246zM1082 642c-77 0 -145 -37 -145 -106c0 -68 68 -104 145 -104s146 36 146 104
c0 69 -69 106 -146 106zM1082 988c-70 0 -128 -34 -128 -98s58 -100 128 -100c71 0 129 36 129 100s-58 98 -129 98z" />
    <glyph glyph-name="uni2468" unicode="&#x2468;" horiz-adv-x="2050" 
d="M1082 1594c498 0 900 -401 900 -893c0 -493 -402 -895 -900 -895s-900 402 -900 895c0 492 402 893 900 893zM1082 1398c-386 0 -698 -311 -698 -697c0 -387 312 -699 698 -699s698 312 698 699c0 386 -312 697 -698 697zM878 284l214 291c-9 -1 -18 -1 -27 -1
c-183 0 -309 125 -309 284c0 171 145 295 336 295c190 0 335 -123 335 -290c0 -80 -31 -155 -86 -235l-238 -344h-225zM1092 733c79 0 140 53 140 127s-61 127 -140 127c-80 0 -142 -53 -142 -127s62 -127 142 -127z" />
    <glyph glyph-name="uni24EA" unicode="&#x24ea;" horiz-adv-x="2050" 
d="M1082 1594c498 0 900 -401 900 -893c0 -493 -402 -895 -900 -895s-900 402 -900 895c0 492 402 893 900 893zM1082 1398c-386 0 -698 -311 -698 -697c0 -387 312 -699 698 -699s698 312 698 699c0 386 -312 697 -698 697zM1082 1153c215 0 387 -166 387 -442
c0 -277 -172 -443 -387 -443c-214 0 -386 166 -386 443c0 276 172 442 386 442zM1082 974c-107 0 -192 -91 -192 -264s85 -264 192 -264c108 0 193 91 193 264s-85 264 -193 264z" />
    <glyph glyph-name="uni24FF" unicode="&#x24ff;" horiz-adv-x="2050" 
d="M1081 1153c-214 0 -386 -166 -386 -442c0 -277 172 -443 386 -443c215 0 387 166 387 443c0 276 -172 442 -387 442zM1081 974c108 0 193 -91 193 -264s-85 -264 -193 -264c-107 0 -192 91 -192 264s85 264 192 264zM1081 1576c488 0 882 -393 882 -875
c0 -483 -394 -877 -882 -877s-882 394 -882 877c0 482 394 875 882 875z" />
    <glyph glyph-name="filledbox" unicode="&#x25a0;" horiz-adv-x="1800" 
d="M245 1400h1400v-1400h-1400v1400z" />
    <glyph glyph-name="H22073" unicode="&#x25a1;" horiz-adv-x="1800" 
d="M245 1400h1400v-1400h-1400v1400zM439 1206v-1012h1012v1012h-1012z" />
    <glyph glyph-name="uni25AE" unicode="&#x258c;" horiz-adv-x="1800" 
d="M245 1400h700v-1400h-700v1400z" />
    <glyph glyph-name="uni25AE" unicode="&#x25ae;" horiz-adv-x="1800" 
d="M245 1400h700v-1400h-700v1400z" />
    <glyph glyph-name="triagup" unicode="&#x25b2;" horiz-adv-x="1800" 
d="M870 1420l820 -1420h-1640z" />
    <glyph glyph-name="uni25B3" unicode="&#x25b3;" horiz-adv-x="1800" 
d="M870 1420l820 -1420h-1640zM870 1032l-484 -838h968z" />
    <glyph glyph-name="uni25B4" unicode="&#x25b4;" 
d="M602 1024l414 -716h-829z" />
    <glyph glyph-name="uni25B8" unicode="&#x25b8;" 
d="M1056 665l-717 -415v830z" />
    <glyph glyph-name="triagdn" unicode="&#x25bc;" horiz-adv-x="1800" 
d="M1030 -20l-820 1420h1640z" />
    <glyph glyph-name="uni25BD" unicode="&#x25bd;" horiz-adv-x="1800" 
d="M1030 -20l-820 1420h1640zM1030 368l484 838h-968z" />
    <glyph glyph-name="uni25BE" unicode="&#x25be;" 
d="M677 307l-414 716h829z" />
    <glyph glyph-name="uni25C2" unicode="&#x25c2;" 
d="M223 665l717 415v-830z" />
    <glyph glyph-name="uni25C6" unicode="&#x25c6;" horiz-adv-x="1800" 
d="M958 1438l738 -738l-738 -738l-738 738z" />
    <glyph glyph-name="uni25C7" unicode="&#x25c7;" horiz-adv-x="1800" 
d="M958 1438l738 -738l-738 -738l-738 738zM958 1164l-464 -464l464 -464l464 464z" />
    <glyph glyph-name="lozenge" unicode="&#x25ca;" horiz-adv-x="1537" 
d="M1494 700l-558 -700h-242l-557 700l558 700h242zM1220 700l-409 506l-399 -505l408 -507z" />
    <glyph glyph-name="circle" unicode="&#x25cb;" horiz-adv-x="1800" 
d="M956 -39c-409 0 -739 331 -739 739s330 739 739 739c408 0 739 -331 739 -739s-331 -739 -739 -739zM956 155c301 0 545 244 545 545s-244 545 -545 545c-302 0 -545 -244 -545 -545s243 -545 545 -545z" />
    <glyph glyph-name="H18533" unicode="&#x25cf;" horiz-adv-x="1800" 
d="M956 -39c-409 0 -739 331 -739 739s330 739 739 739c408 0 739 -331 739 -739s-331 -739 -739 -739z" />
    <glyph glyph-name="uni25D0" unicode="&#x25d0;" horiz-adv-x="1800" 
d="M956 -39c-409 0 -739 331 -739 739s330 739 739 739c408 0 739 -331 739 -739s-331 -739 -739 -739zM956 1245v-1090c301 0 545 244 545 545s-244 545 -545 545z" />
    <glyph glyph-name="uni25D6" unicode="&#x25d6;" horiz-adv-x="1800" 
d="M956 1439v-1478c-409 0 -739 331 -739 739s330 739 739 739z" />
    <glyph glyph-name="uni25E7" unicode="&#x25e7;" horiz-adv-x="1800" 
d="M245 1400h1400v-1400h-1400v1400zM945 1206v-1012h506v1012h-506z" />
    <glyph glyph-name="uni2610" unicode="&#x2610;" horiz-adv-x="2200" 
d="M291 1547h1694v-1694h-1694v1694zM451 1387v-1374h1374v1374h-1374z" />
    <glyph glyph-name="uni2611" unicode="&#x2611;" horiz-adv-x="2200" 
d="M291 1547h1694v-1694h-1694v1694zM451 1387v-1374h1374v1374h-1374zM1563 1177l130 -94l-669 -918l-418 506l123 102l287 -347z" />
    <glyph glyph-name="uni2612" unicode="&#x2612;" horiz-adv-x="2200" 
d="M1985 1547v-1694h-1694v1694h1694zM1825 1387h-1374v-1374h1374v1374zM661 337l363 363l-363 363l114 114l363 -364l363 364l114 -114l-364 -363l364 -363l-114 -114l-363 363l-363 -363z" />
    <glyph glyph-name="heart" unicode="&#x2665;" horiz-adv-x="1800" 
d="M1294 1236c177 0 307 -136 307 -314c0 -263 -283 -568 -609 -797c-326 229 -609 534 -609 797c0 178 130 314 307 314c159 0 302 -110 302 -238c0 128 143 238 302 238z" />
    <glyph glyph-name="uni2713" unicode="&#x2713;" horiz-adv-x="2200" 
d="M1675 1311l153 -113l-823 -1110l-453 494l140 129l298 -325z" />
    <glyph glyph-name="uni2715" unicode="&#x2573;" horiz-adv-x="2141" 
d="M1986 -243l-167 -138l-734 934l-1157 -954l-123 158l1143 943l-743 943l167 138l735 -933l1156 953l123 -158l-1143 -943z" />
    <glyph glyph-name="uni2715" unicode="&#x2715;" horiz-adv-x="2141" 
d="M1986 -243l-167 -138l-734 934l-1157 -954l-123 158l1143 943l-743 943l167 138l735 -933l1156 953l123 -158l-1143 -943z" />
    <glyph glyph-name="uni2717" unicode="&#x2717;" horiz-adv-x="2200" 
d="M1274 700l441 -441l-134 -134l-441 441l-441 -441l-134 134l441 441l-441 441l134 134l441 -441l441 441l134 -134z" />
    <glyph glyph-name="uni278A" unicode="&#x2776;" horiz-adv-x="2050" 
d="M1214 1151l-411 -157v-184l225 83v-609h186v867zM1081 1576c488 0 882 -393 882 -875c0 -483 -394 -877 -882 -877s-882 394 -882 877c0 482 394 875 882 875z" />
    <glyph glyph-name="uni278A" unicode="&#x278a;" horiz-adv-x="2050" 
d="M1214 1151l-411 -157v-184l225 83v-609h186v867zM1081 1576c488 0 882 -393 882 -875c0 -483 -394 -877 -882 -877s-882 394 -882 877c0 482 394 875 882 875z" />
    <glyph glyph-name="uni278B" unicode="&#x2777;" horiz-adv-x="2050" 
d="M769 1004l123 -116c44 46 94 87 173 87c75 0 127 -46 127 -114c0 -49 -25 -93 -70 -135l-312 -296v-146h596v173h-328l173 163c74 70 135 146 135 254c0 167 -119 279 -305 279c-167 0 -261 -86 -312 -149zM1081 1576c488 0 882 -393 882 -875
c0 -483 -394 -877 -882 -877s-882 394 -882 877c0 482 394 875 882 875z" />
    <glyph glyph-name="uni278B" unicode="&#x278b;" horiz-adv-x="2050" 
d="M769 1004l123 -116c44 46 94 87 173 87c75 0 127 -46 127 -114c0 -49 -25 -93 -70 -135l-312 -296v-146h596v173h-328l173 163c74 70 135 146 135 254c0 167 -119 279 -305 279c-167 0 -261 -86 -312 -149zM1081 1576c488 0 882 -393 882 -875
c0 -483 -394 -877 -882 -877s-882 394 -882 877c0 482 394 875 882 875z" />
    <glyph glyph-name="uni278C" unicode="&#x2778;" horiz-adv-x="2050" 
d="M1081 1576c488 0 882 -393 882 -875c0 -483 -394 -877 -882 -877s-882 394 -882 877c0 482 394 875 882 875zM1072 1153c-142 0 -239 -55 -301 -130l113 -120c37 43 97 83 179 83c79 0 137 -33 137 -94c0 -64 -64 -97 -146 -97h-104v-161h103c91 0 165 -35 165 -102
s-66 -99 -148 -99c-74 0 -146 29 -197 81l-107 -121c68 -79 178 -125 312 -125c172 0 333 82 333 252c0 92 -58 160 -153 194c84 35 134 101 134 193c0 149 -130 246 -320 246z" />
    <glyph glyph-name="uni278C" unicode="&#x278c;" horiz-adv-x="2050" 
d="M1081 1576c488 0 882 -393 882 -875c0 -483 -394 -877 -882 -877s-882 394 -882 877c0 482 394 875 882 875zM1072 1153c-142 0 -239 -55 -301 -130l113 -120c37 43 97 83 179 83c79 0 137 -33 137 -94c0 -64 -64 -97 -146 -97h-104v-161h103c91 0 165 -35 165 -102
s-66 -99 -148 -99c-74 0 -146 29 -197 81l-107 -121c68 -79 178 -125 312 -125c172 0 333 82 333 252c0 92 -58 160 -153 194c84 35 134 101 134 193c0 149 -130 246 -320 246z" />
    <glyph glyph-name="uni278D" unicode="&#x2779;" horiz-adv-x="2050" 
d="M1081 1576c488 0 882 -393 882 -875c0 -483 -394 -877 -882 -877s-882 394 -882 877c0 482 394 875 882 875zM1295 832h-186v-226h-170l285 531h-206l-302 -572v-132h393v-149h186v149h118v173h-118v226z" />
    <glyph glyph-name="uni278D" unicode="&#x278d;" horiz-adv-x="2050" 
d="M1081 1576c488 0 882 -393 882 -875c0 -483 -394 -877 -882 -877s-882 394 -882 877c0 482 394 875 882 875zM1295 832h-186v-226h-170l285 531h-206l-302 -572v-132h393v-149h186v149h118v173h-118v226z" />
    <glyph glyph-name="uni278E" unicode="&#x277a;" horiz-adv-x="2050" 
d="M1364 1138h-516l-10 -484h214c130 0 170 -48 170 -105c0 -63 -45 -110 -137 -110c-84 0 -171 42 -217 86l-99 -134c73 -74 183 -123 317 -123c186 0 330 111 330 294c0 147 -107 255 -313 255h-96l4 149h353v172zM1081 1576c488 0 882 -393 882 -875
c0 -483 -394 -877 -882 -877s-882 394 -882 877c0 482 394 875 882 875z" />
    <glyph glyph-name="uni278E" unicode="&#x278e;" horiz-adv-x="2050" 
d="M1364 1138h-516l-10 -484h214c130 0 170 -48 170 -105c0 -63 -45 -110 -137 -110c-84 0 -171 42 -217 86l-99 -134c73 -74 183 -123 317 -123c186 0 330 111 330 294c0 147 -107 255 -313 255h-96l4 149h353v172zM1081 1576c488 0 882 -393 882 -875
c0 -483 -394 -877 -882 -877s-882 394 -882 877c0 482 394 875 882 875z" />
    <glyph glyph-name="uni278F" unicode="&#x277b;" horiz-adv-x="2050" 
d="M1081 1576c488 0 882 -393 882 -875c0 -483 -394 -877 -882 -877s-882 394 -882 877c0 482 394 875 882 875zM1282 1138h-225l-238 -345c-55 -79 -86 -154 -86 -234c0 -167 145 -291 336 -291c190 0 335 125 335 296c0 158 -126 284 -309 284c-9 0 -18 -1 -27 -2z
M1069 689c79 0 141 -53 141 -127s-62 -127 -141 -127c-80 0 -141 52 -141 127c0 74 61 127 141 127z" />
    <glyph glyph-name="uni278F" unicode="&#x278f;" horiz-adv-x="2050" 
d="M1081 1576c488 0 882 -393 882 -875c0 -483 -394 -877 -882 -877s-882 394 -882 877c0 482 394 875 882 875zM1282 1138h-225l-238 -345c-55 -79 -86 -154 -86 -234c0 -167 145 -291 336 -291c190 0 335 125 335 296c0 158 -126 284 -309 284c-9 0 -18 -1 -27 -2z
M1069 689c79 0 141 -53 141 -127s-62 -127 -141 -127c-80 0 -141 52 -141 127c0 74 61 127 141 127z" />
    <glyph glyph-name="uni2790" unicode="&#x277c;" horiz-adv-x="2050" 
d="M1426 1138h-633v-173h413l-361 -681h221l360 708v146zM1081 1576c488 0 882 -393 882 -875c0 -483 -394 -877 -882 -877s-882 394 -882 877c0 482 394 875 882 875z" />
    <glyph glyph-name="uni2790" unicode="&#x2790;" horiz-adv-x="2050" 
d="M1426 1138h-633v-173h413l-361 -681h221l360 708v146zM1081 1576c488 0 882 -393 882 -875c0 -483 -394 -877 -882 -877s-882 394 -882 877c0 482 394 875 882 875z" />
    <glyph glyph-name="uni2791" unicode="&#x277d;" horiz-adv-x="2050" 
d="M1081 1576c488 0 882 -393 882 -875c0 -483 -394 -877 -882 -877s-882 394 -882 877c0 482 394 875 882 875zM1081 1153c-178 0 -326 -92 -326 -246c0 -96 60 -158 138 -193c-89 -33 -159 -95 -159 -198c0 -155 157 -248 347 -248s348 93 348 248c0 103 -71 165 -160 199
c78 35 138 96 138 192c0 154 -148 246 -326 246zM1081 642c77 0 146 -37 146 -106c0 -68 -69 -104 -146 -104s-145 36 -145 104c0 69 68 106 145 106zM1081 988c71 0 129 -34 129 -98s-58 -100 -129 -100c-70 0 -128 36 -128 100s58 98 128 98z" />
    <glyph glyph-name="uni2791" unicode="&#x2791;" horiz-adv-x="2050" 
d="M1081 1576c488 0 882 -393 882 -875c0 -483 -394 -877 -882 -877s-882 394 -882 877c0 482 394 875 882 875zM1081 1153c-178 0 -326 -92 -326 -246c0 -96 60 -158 138 -193c-89 -33 -159 -95 -159 -198c0 -155 157 -248 347 -248s348 93 348 248c0 103 -71 165 -160 199
c78 35 138 96 138 192c0 154 -148 246 -326 246zM1081 642c77 0 146 -37 146 -106c0 -68 -69 -104 -146 -104s-145 36 -145 104c0 69 68 106 145 106zM1081 988c71 0 129 -34 129 -98s-58 -100 -129 -100c-70 0 -128 36 -128 100s58 98 128 98z" />
    <glyph glyph-name="uni2792" unicode="&#x277e;" horiz-adv-x="2050" 
d="M1081 1576c488 0 882 -393 882 -875c0 -483 -394 -877 -882 -877s-882 394 -882 877c0 482 394 875 882 875zM877 284h225l238 344c55 80 86 155 86 235c0 167 -145 290 -335 290c-191 0 -336 -124 -336 -295c0 -159 126 -284 309 -284c9 0 18 0 27 1zM1091 733
c-80 0 -142 53 -142 127s62 127 142 127c79 0 140 -53 140 -127s-61 -127 -140 -127z" />
    <glyph glyph-name="uni2792" unicode="&#x2792;" horiz-adv-x="2050" 
d="M1081 1576c488 0 882 -393 882 -875c0 -483 -394 -877 -882 -877s-882 394 -882 877c0 482 394 875 882 875zM877 284h225l238 344c55 80 86 155 86 235c0 167 -145 290 -335 290c-191 0 -336 -124 -336 -295c0 -159 126 -284 309 -284c9 0 18 0 27 1zM1091 733
c-80 0 -142 53 -142 127s62 127 142 127c79 0 140 -53 140 -127s-61 -127 -140 -127z" />
    <glyph glyph-name="uni2B51" unicode="&#x2b51;" horiz-adv-x="1800" 
d="M1138 893h586l-474 -345l182 -559l-475 346l-474 -346l181 559l-476 345h588l181 559z" />
    <glyph glyph-name="uni2B52" unicode="&#x2b52;" horiz-adv-x="1800" 
d="M1138 893h586l-474 -345l182 -559l-475 346l-474 -346l181 559l-476 345h588l181 559zM1045 765l-88 271l-88 -271h-286l231 -168l-88 -272l231 168l231 -168l-88 272l231 168h-286z" />
    <glyph glyph-name="uni2E17" unicode="&#x2e17;" horiz-adv-x="873" 
d="M803 926l-41 -194l-588 -209l42 194zM730 582l-41 -194l-589 -209l42 194z" />
    <glyph glyph-name="uni2E38" unicode="&#x2e38;" horiz-adv-x="780" 
d="M508 1440h173l-91 -431h213l-36 -169h-213l-45 -213h-173l45 213h-213l36 169h213z" />
    <glyph glyph-name="uniEA00" unicode="&#xea00;" horiz-adv-x="1800" 
d="M1138 893h586l-474 -345l182 -559l-475 346l-474 -346l181 559l-476 345h588l181 559zM1045 765l-88 271v-543l231 -168l-88 272l231 168h-286z" />
    <glyph glyph-name="uniEA01" unicode="&#xea01;" horiz-adv-x="1800" 
d="M957 335l-474 -346l181 559l-476 345h588l181 559v-1117z" />
    <glyph glyph-name="uniFB00" unicode="&#xfb00;" horiz-adv-x="1606" 
d="M858 958l-40 -190h-309l-163 -768h-212l163 768h-189l40 190h189l39 181c43 201 163 326 359 326c106 0 189 -33 250 -82l-102 -163c-48 33 -107 48 -150 48c-67 0 -128 -49 -151 -157l-33 -153h309zM1651 958l-40 -190h-309l-163 -768h-212l163 768h-189l40 190h189
l39 181c43 201 163 326 359 326c106 0 189 -33 250 -82l-102 -163c-48 33 -107 48 -150 48c-67 0 -128 -49 -151 -157l-33 -153h309z" />
    <glyph glyph-name="fi" unicode="&#xfb01;" horiz-adv-x="1331" 
d="M858 958l-40 -190h-309l-163 -768h-212l163 768h-189l40 190h189l39 181c43 201 163 326 359 326c106 0 189 -33 250 -82l-102 -163c-48 33 -107 48 -150 48c-67 0 -128 -49 -151 -157l-33 -153h309zM1280 958l-204 -958h-212l204 958h212zM1243 1437
c83 0 148 -65 148 -148s-65 -146 -148 -146s-146 63 -146 146s63 148 146 148z" />
    <glyph glyph-name="fl" unicode="&#xfb02;" horiz-adv-x="1331" 
d="M858 958l-40 -190h-309l-163 -768h-212l163 768h-189l40 190h189l39 181c43 201 163 326 359 326c106 0 189 -33 250 -82l-102 -163c-48 33 -107 48 -150 48c-67 0 -128 -49 -151 -157l-33 -153h309zM1382 1440l-306 -1440h-212l306 1440h212z" />
    <glyph glyph-name="uniFB03" unicode="&#xfb03;" horiz-adv-x="2124" 
d="M858 958l-40 -190h-309l-163 -768h-212l163 768h-189l40 190h189l39 181c43 201 163 326 359 326c106 0 189 -33 250 -82l-102 -163c-48 33 -107 48 -150 48c-67 0 -128 -49 -151 -157l-33 -153h309zM1651 958l-40 -190h-309l-163 -768h-212l163 768h-189l40 190h189
l39 181c43 201 163 326 359 326c106 0 189 -33 250 -82l-102 -163c-48 33 -107 48 -150 48c-67 0 -128 -49 -151 -157l-33 -153h309zM2073 958l-204 -958h-212l204 958h212zM2036 1437c83 0 148 -65 148 -148s-65 -146 -148 -146s-146 63 -146 146s63 148 146 148z" />
    <glyph glyph-name="uniFB04" unicode="&#xfb04;" horiz-adv-x="2124" 
d="M858 958l-40 -190h-309l-163 -768h-212l163 768h-189l40 190h189l39 181c43 201 163 326 359 326c106 0 189 -33 250 -82l-102 -163c-48 33 -107 48 -150 48c-67 0 -128 -49 -151 -157l-33 -153h309zM1651 958l-40 -190h-309l-163 -768h-212l163 768h-189l40 190h189
l39 181c43 201 163 326 359 326c106 0 189 -33 250 -82l-102 -163c-48 33 -107 48 -150 48c-67 0 -128 -49 -151 -157l-33 -153h309zM2175 1440l-306 -1440h-212l306 1440h212z" />
    <glyph glyph-name="uniFB05" unicode="&#xfb05;" horiz-adv-x="1443" 
d="M1448 958l-41 -190h-355l-86 -405c-28 -132 29 -191 122 -191c57 0 114 18 174 55l86 -162c-77 -52 -168 -90 -285 -90c-241 0 -361 143 -308 392l85 401h-186l41 190h189l16 76c6 29 9 56 9 79c0 111 -71 155 -175 155c-118 0 -225 -66 -264 -252l-215 -1016h-211
l221 1043c65 305 263 422 486 422c212 0 367 -121 367 -336c0 -36 -4 -73 -12 -114l-12 -57h354z" />
    <glyph glyph-name="uniFB06" unicode="&#xfb06;" horiz-adv-x="1853" 
d="M947 878l-110 -160c-74 47 -204 82 -301 82c-111 0 -180 -39 -187 -104c-9 -83 56 -102 138 -115l69 -11c224 -37 315 -144 298 -291c-20 -174 -176 -303 -427 -303c-140 0 -309 41 -430 130l116 155c83 -59 185 -103 311 -103c132 0 206 45 214 117
c6 57 -38 92 -141 108l-72 11c-216 31 -311 140 -294 291c22 190 177 297 407 297c166 0 308 -39 409 -104zM1860 958l-41 -190h-357l-86 -405c-28 -132 29 -191 122 -191c57 0 114 18 174 55l86 -162c-77 -52 -168 -90 -285 -90c-241 0 -361 143 -308 392l85 401h-184
l41 190h184l62 290h212l-62 -290h357z" />
    <glyph glyph-name="uni030C.alt001" horiz-adv-x="1" 
d="M-521 1050h-174l82 390h234z" />
    <glyph glyph-name="uni0328.alt001" horiz-adv-x="1" 
d="M-429 -207l94 -141c-61 -51 -124 -71 -191 -71c-139 0 -239 73 -239 185c0 108 64 201 314 309l49 -76c-127 -78 -162 -147 -162 -191c0 -30 20 -49 56 -49c28 0 54 13 79 34z" />
    <glyph glyph-name="uni0328.alt002" horiz-adv-x="1" 
d="M-371 97l5 -82c-176 -61 -224 -130 -224 -189c0 -38 31 -65 89 -65c45 0 87 15 128 42l80 -146c-73 -50 -158 -75 -242 -75c-170 0 -272 86 -272 200c0 139 109 240 436 315z" />
    <glyph glyph-name="uni0328.alt003" horiz-adv-x="1" 
d="M-427 -201l94 -136c-67 -58 -136 -82 -210 -82c-132 0 -224 68 -224 176c0 141 136 225 378 323l39 -80c-154 -75 -213 -138 -213 -193c0 -29 19 -46 51 -46c31 0 58 15 85 38z" />
    <glyph glyph-name="uni0328.alt004" horiz-adv-x="1" 
d="M-382 -198l94 -141c-65 -53 -147 -80 -229 -80c-179 0 -294 97 -294 224c0 104 66 222 397 289l34 -75c-193 -63 -223 -129 -223 -182c0 -46 35 -77 98 -77c45 0 84 15 123 42z" />
    <glyph glyph-name="i.latn_TRK" horiz-adv-x="518" 
d="M467 958l-204 -958h-212l204 958h212zM430 1437c83 0 148 -65 148 -148s-65 -146 -148 -146s-146 63 -146 146s63 148 146 148z" />
    <glyph glyph-name="j.latn_NLD" horiz-adv-x="529" 
d="M477 958l-230 -1085c-42 -197 -170 -292 -326 -292c-64 0 -127 17 -168 38l76 173c27 -11 56 -14 79 -14c59 0 115 41 133 123l224 1057h212zM461 1110h-213l220 300h273z" />
    <glyph glyph-name="Ldot.latn_CAT" 
d="M608 1400l-253 -1186h753l-46 -214h-983l298 1400h231zM906 861c87 0 155 -68 155 -156c0 -87 -68 -153 -155 -153c-88 0 -154 66 -154 153c0 88 66 156 154 156z" />
    <glyph glyph-name="ldot.latn_CAT" horiz-adv-x="680" 
d="M569 1440l-306 -1440h-212l306 1440h212zM648 878c83 0 148 -65 148 -148s-65 -146 -148 -146s-146 63 -146 146s63 148 146 148z" />
    <glyph glyph-name="zero.numr" horiz-adv-x="901" 
d="M619 1415c186 0 309 -127 309 -326c0 -235 -153 -516 -423 -516c-186 0 -309 128 -309 326c0 234 154 516 423 516zM610 1252c-153 0 -234 -192 -234 -338c0 -109 51 -178 138 -178c153 0 234 191 234 338c0 111 -51 178 -138 178z" />
    <glyph glyph-name="one.numr" horiz-adv-x="545" 
d="M600 1413l-175 -825h-170l126 589l-199 -65l37 177z" />
    <glyph glyph-name="two.numr" horiz-adv-x="718" 
d="M337 1179l-105 105c55 64 146 130 277 130c181 0 265 -115 265 -232c0 -107 -50 -181 -178 -287l-179 -149h295l-34 -158h-545l29 135l323 271c86 71 113 116 113 166c0 49 -38 92 -111 92c-63 0 -108 -31 -150 -73z" />
    <glyph glyph-name="three.numr" horiz-adv-x="717" 
d="M308 1182l-86 120c67 68 153 112 283 112c166 0 268 -92 268 -207c0 -94 -63 -178 -163 -217c65 -30 101 -86 101 -154c0 -145 -124 -262 -325 -262c-130 0 -226 43 -278 115l113 107c38 -46 100 -69 168 -69c98 0 149 49 149 113c0 55 -54 83 -130 83h-90l32 150h85
c98 0 160 49 160 109c0 49 -46 79 -114 79c-73 0 -133 -38 -173 -79z" />
    <glyph glyph-name="four.numr" horiz-adv-x="712" 
d="M698 1105l-46 -214h111l-33 -159h-112l-30 -144h-170l30 144h-356l28 136l368 531h195l-352 -508h151l46 214h170z" />
    <glyph glyph-name="five.numr" horiz-adv-x="721" 
d="M773 1400l-33 -157h-314l-36 -148h61c197 0 291 -127 261 -277c-34 -170 -165 -245 -328 -245c-117 0 -216 43 -277 121l107 110c46 -52 108 -75 177 -75c88 0 138 42 148 101c10 61 -21 113 -137 113h-198l105 457h464z" />
    <glyph glyph-name="six.numr" horiz-adv-x="743" 
d="M734 1400l-244 -277c154 -2 276 -98 276 -250c0 -163 -135 -299 -328 -299c-165 0 -300 101 -300 259c0 71 27 152 109 248l272 319h215zM459 976c-86 0 -142 -61 -142 -134c0 -68 52 -116 128 -116c84 0 142 61 142 136c0 69 -56 114 -128 114z" />
    <glyph glyph-name="seven.numr" horiz-adv-x="681" 
d="M821 1400l-28 -141l-417 -671h-203l415 654h-378l33 158h578z" />
    <glyph glyph-name="eight.numr" horiz-adv-x="787" 
d="M570 1414c148 0 277 -77 277 -205c0 -95 -63 -176 -172 -218c64 -32 107 -85 107 -154c0 -144 -131 -263 -348 -263c-160 0 -290 80 -290 208c0 97 65 180 181 220c-53 31 -87 79 -87 144c0 143 124 268 332 268zM478 930c-86 0 -148 -50 -148 -118c0 -56 55 -89 120 -89
c88 0 152 47 152 117c0 58 -57 90 -124 90zM555 1262c-84 0 -137 -47 -137 -111c0 -53 44 -83 107 -83c81 0 139 47 139 111c0 54 -51 83 -109 83z" />
    <glyph glyph-name="nine.numr" horiz-adv-x="743" 
d="M227 588l244 277c-154 2 -275 97 -275 250c0 163 135 299 328 299c165 0 300 -101 300 -259c0 -71 -27 -152 -109 -248l-272 -319h-216zM503 1012c86 0 142 61 142 134c0 68 -52 116 -128 116c-84 0 -143 -61 -143 -136c0 -69 57 -114 129 -114z" />
    <glyph glyph-name="zero.dnom" horiz-adv-x="901" 
d="M494 827c186 0 309 -127 309 -326c0 -235 -153 -516 -423 -516c-186 0 -309 128 -309 326c0 234 154 516 423 516zM485 664c-153 0 -234 -192 -234 -338c0 -109 51 -178 138 -178c153 0 234 191 234 338c0 111 -51 178 -138 178z" />
    <glyph glyph-name="one.dnom" horiz-adv-x="545" 
d="M475 825l-175 -825h-170l126 589l-199 -65l37 177z" />
    <glyph glyph-name="two.dnom" horiz-adv-x="718" 
d="M212 591l-105 105c55 64 146 130 277 130c181 0 265 -115 265 -232c0 -107 -50 -181 -178 -287l-179 -149h295l-34 -158h-545l29 135l323 271c86 71 113 116 113 166c0 49 -38 92 -111 92c-63 0 -108 -31 -150 -73z" />
    <glyph glyph-name="three.dnom" horiz-adv-x="717" 
d="M183 594l-86 120c67 68 153 112 283 112c166 0 268 -92 268 -207c0 -94 -63 -178 -163 -217c65 -30 101 -86 101 -154c0 -145 -124 -262 -325 -262c-130 0 -226 43 -278 115l113 107c38 -46 100 -69 168 -69c98 0 149 49 149 113c0 55 -54 83 -130 83h-90l32 150h85
c98 0 160 49 160 109c0 49 -46 79 -114 79c-73 0 -133 -38 -173 -79z" />
    <glyph glyph-name="four.dnom" horiz-adv-x="712" 
d="M573 517l-46 -214h111l-33 -159h-112l-30 -144h-170l30 144h-356l28 136l368 531h195l-352 -508h151l46 214h170z" />
    <glyph glyph-name="five.dnom" horiz-adv-x="721" 
d="M648 812l-33 -157h-314l-36 -148h61c197 0 291 -127 261 -277c-34 -170 -165 -245 -328 -245c-117 0 -216 43 -277 121l107 110c46 -52 108 -75 177 -75c88 0 138 42 148 101c10 61 -21 113 -137 113h-198l105 457h464z" />
    <glyph glyph-name="six.dnom" horiz-adv-x="743" 
d="M609 812l-244 -277c154 -2 276 -98 276 -250c0 -163 -135 -299 -328 -299c-165 0 -300 101 -300 259c0 71 27 152 109 248l272 319h215zM334 388c-86 0 -142 -61 -142 -134c0 -68 52 -116 128 -116c84 0 142 61 142 136c0 69 -56 114 -128 114z" />
    <glyph glyph-name="seven.dnom" horiz-adv-x="681" 
d="M696 812l-28 -141l-417 -671h-203l415 654h-378l33 158h578z" />
    <glyph glyph-name="eight.dnom" horiz-adv-x="787" 
d="M445 826c148 0 277 -77 277 -205c0 -95 -63 -176 -172 -218c64 -32 107 -85 107 -154c0 -144 -131 -263 -348 -263c-160 0 -290 80 -290 208c0 97 65 180 181 220c-53 31 -87 79 -87 144c0 143 124 268 332 268zM353 342c-86 0 -148 -50 -148 -118c0 -56 55 -89 120 -89
c88 0 152 47 152 117c0 58 -57 90 -124 90zM430 674c-84 0 -137 -47 -137 -111c0 -53 44 -83 107 -83c81 0 139 47 139 111c0 54 -51 83 -109 83z" />
    <glyph glyph-name="nine.dnom" horiz-adv-x="743" 
d="M102 0l244 277c-154 2 -275 97 -275 250c0 163 135 299 328 299c165 0 300 -101 300 -259c0 -71 -27 -152 -109 -248l-272 -319h-216zM378 424c86 0 142 61 142 134c0 68 -52 116 -128 116c-84 0 -143 -61 -143 -136c0 -69 57 -114 129 -114z" />
    <glyph glyph-name="space.frac" horiz-adv-x="108" 
 />
    <glyph glyph-name="b.ordn" horiz-adv-x="867" 
d="M521 570c-94 0 -163 32 -206 86l-15 -68h-172l214 1008h172l-78 -363c42 30 95 50 167 50c172 0 300 -135 300 -310c0 -199 -150 -403 -382 -403zM565 1120c-106 0 -188 -82 -201 -192c-14 -116 53 -196 157 -196c116 0 203 101 203 222c0 99 -63 166 -159 166z" />
    <glyph glyph-name="c.ordn" horiz-adv-x="769" 
d="M829 1130l-143 -86c-49 67 -108 76 -150 76c-115 0 -202 -99 -202 -216c0 -101 69 -171 158 -171c57 0 110 22 152 66l110 -108c-68 -77 -164 -119 -269 -119c-197 0 -328 137 -328 320c0 211 160 389 387 389c132 0 229 -53 285 -151z" />
    <glyph glyph-name="d.ordn" horiz-adv-x="867" 
d="M535 1282c94 0 164 -32 207 -85l85 399h172l-214 -1008h-169l10 47c-46 -39 -104 -65 -183 -65c-165 0 -289 134 -289 310c0 198 149 402 381 402zM492 732c106 0 188 82 201 192c14 116 -53 196 -157 196c-116 0 -203 -101 -203 -222c0 -99 63 -166 159 -166z" />
    <glyph glyph-name="e.ordn" horiz-adv-x="782" 
d="M660 778l85 -116c-75 -63 -160 -92 -273 -92c-204 0 -320 126 -320 296c0 172 113 416 387 416c171 0 287 -106 287 -274c0 -47 -11 -106 -26 -141h-476c2 -95 62 -149 163 -149c65 0 120 19 173 60zM530 1132c-103 0 -158 -67 -184 -138h313v10c0 84 -52 128 -129 128z
" />
    <glyph glyph-name="h.ordn" horiz-adv-x="821" 
d="M615 1282c146 0 236 -95 236 -230c0 -24 -3 -50 -9 -76l-84 -388h-173l82 381c3 16 5 31 5 46c0 60 -31 104 -111 104c-86 0 -160 -52 -184 -167l-76 -364h-173l215 1008h171l-81 -382c56 52 120 68 182 68z" />
    <glyph glyph-name="l.ordn" horiz-adv-x="383" 
d="M515 1596l-214 -1008h-173l214 1008h173z" />
    <glyph glyph-name="m.ordn" horiz-adv-x="1280" 
d="M1071 1282c148 0 239 -95 239 -231c0 -24 -3 -49 -9 -75l-84 -388h-173l82 381c3 16 5 31 5 46c0 60 -31 104 -113 104c-85 0 -158 -52 -182 -167l-78 -364h-173l82 381c17 77 -3 150 -106 150c-86 0 -160 -52 -184 -167l-76 -364h-173l144 676h168l-13 -55
c57 56 124 73 188 73c99 0 171 -44 207 -112c70 85 161 112 249 112z" />
    <glyph glyph-name="r.ordn" horiz-adv-x="615" 
d="M440 1264l-13 -57c56 58 123 75 186 75c36 0 76 -7 109 -21l-58 -166c-27 15 -64 22 -98 22c-86 0 -158 -50 -187 -156l-78 -373h-173l144 676h168z" />
    <glyph glyph-name="s.ordn" horiz-adv-x="685" 
d="M765 1207l-81 -129c-61 37 -154 58 -213 58c-70 0 -110 -22 -114 -60c-6 -51 34 -60 95 -71l47 -8c154 -28 215 -104 203 -208c-15 -132 -127 -218 -308 -218c-105 0 -227 31 -307 91l86 127c61 -42 138 -73 223 -73c82 0 124 25 129 68c4 36 -25 58 -95 68l-48 7
c-154 24 -216 103 -203 211c16 137 126 212 293 212c114 0 213 -27 293 -75z" />
    <glyph glyph-name="t.ordn" horiz-adv-x="676" 
d="M742 1264l-33 -154h-241l-55 -256c-18 -85 18 -122 80 -122c44 0 91 20 129 44l53 -141c-60 -40 -129 -65 -212 -65c-181 0 -261 108 -223 283l56 257h-130l33 154h130l45 202h172l-44 -202h240z" />
    <glyph glyph-name="u.ordn" horiz-adv-x="799" 
d="M883 1273l-84 -396c-46 -219 -194 -298 -360 -298c-158 0 -274 86 -274 245c0 25 3 52 9 81l78 368h173l-81 -380c-4 -18 -6 -33 -6 -48c0 -73 48 -104 118 -104c83 0 153 52 177 167l77 365h173z" />
    <glyph glyph-name="egrave.ordn" horiz-adv-x="782" 
d="M660 778l85 -116c-75 -63 -160 -92 -273 -92c-204 0 -320 126 -320 296c0 172 113 416 387 416c171 0 287 -106 287 -274c0 -47 -11 -106 -26 -141h-476c2 -95 62 -149 163 -149c65 0 120 19 173 60zM514 1364l-183 218h210l138 -218h-165zM530 1132
c-103 0 -158 -67 -184 -138h313v10c0 84 -52 128 -129 128z" />
    <glyph glyph-name="zero.osf" horiz-adv-x="1359" 
d="M722 1084c303 0 533 -198 533 -506c0 -333 -247 -605 -599 -605c-301 0 -531 198 -531 506c0 333 247 605 597 605zM712 886c-229 0 -372 -180 -372 -394c0 -199 137 -321 328 -321c229 0 372 180 372 395c0 198 -137 320 -328 320z" />
    <glyph glyph-name="one.osf" horiz-adv-x="747" 
d="M700 1087l-231 -1087h-212l170 801l-313 -87l44 221z" />
    <glyph glyph-name="two.osf" horiz-adv-x="1086" 
d="M292 738l-136 139c96 104 234 207 446 207c237 0 404 -141 404 -340c0 -210 -109 -303 -367 -449l-161 -91h472l-44 -204h-876l34 161l469 281c179 107 248 163 248 284c0 90 -84 153 -202 153c-125 0 -198 -57 -287 -141z" />
    <glyph glyph-name="three.osf" horiz-adv-x="1089" 
d="M272 724l-134 147c100 126 238 213 455 213c261 0 421 -138 421 -340c0 -171 -103 -309 -279 -384c104 -49 169 -138 169 -265c0 -261 -218 -459 -523 -459c-208 0 -365 72 -449 187l148 141c69 -85 186 -128 305 -128c189 0 301 113 301 259c0 120 -99 172 -243 172
h-154l43 197h135c184 0 323 113 323 248c0 107 -92 172 -219 172c-139 0 -237 -82 -299 -160z" />
    <glyph glyph-name="four.osf" horiz-adv-x="1113" 
d="M842 515l-67 -313h235l-43 -202h-235l-73 -343h-212l73 343h-578l40 183l615 874h227l-582 -855h321l67 313h212z" />
    <glyph glyph-name="five.osf" horiz-adv-x="1104" 
d="M1030 1057l-43 -202h-553l-79 -342h134c338 0 467 -228 424 -465c-54 -296 -275 -416 -517 -416c-195 0 -352 74 -457 224l160 126c82 -108 186 -145 305 -145c165 0 269 96 289 227c19 124 -30 246 -258 246h-327l171 747h751z" />
    <glyph glyph-name="six.osf" horiz-adv-x="1150" 
d="M983 1400l-420 -501c17 4 39 7 64 7c234 0 440 -182 440 -430c0 -273 -222 -500 -528 -500c-262 0 -476 171 -476 434c0 120 40 242 172 403l479 587h269zM580 706c-177 0 -294 -129 -294 -286c0 -144 109 -245 266 -245c171 0 293 128 293 288c0 153 -120 243 -265 243z
" />
    <glyph glyph-name="seven.osf" horiz-adv-x="1069" 
d="M1121 1057l-33 -176l-735 -1224h-254l731 1198h-684l43 202h932z" />
    <glyph glyph-name="eight.osf" horiz-adv-x="1207" 
d="M764 1424c221 0 443 -130 443 -349c0 -164 -107 -310 -292 -381c108 -55 178 -147 178 -266c0 -254 -221 -452 -555 -452c-247 0 -467 136 -467 354c0 173 107 319 302 387c-88 53 -147 135 -147 247c0 239 195 460 538 460zM611 609c-189 0 -308 -112 -308 -248
c0 -113 111 -184 248 -184c193 0 316 106 316 247c0 118 -116 185 -256 185zM749 1222c-190 0 -295 -112 -295 -246c0 -113 94 -177 227 -177c182 0 297 108 297 240c0 117 -113 183 -229 183z" />
    <glyph glyph-name="nine.osf" horiz-adv-x="1150" 
d="M188 -341l420 501c-18 -4 -39 -7 -64 -7c-234 0 -440 182 -440 430c0 273 222 500 528 500c262 0 476 -171 476 -434c0 -120 -40 -242 -172 -403l-479 -587h-269zM591 353c177 0 294 129 294 286c0 144 -109 245 -266 245c-171 0 -293 -128 -293 -288
c0 -153 120 -243 265 -243z" />
    <glyph glyph-name="zero.tf" 
d="M748 1424c270 0 452 -171 452 -499c0 -503 -247 -949 -654 -949c-270 0 -452 171 -452 499c0 503 247 949 654 949zM741 1216c-262 0 -422 -360 -422 -720c0 -212 91 -312 235 -312c261 0 421 360 421 720c0 212 -91 312 -234 312z" />
    <glyph glyph-name="one.tf" 
d="M133 206h337l195 918l-387 -118l48 226l620 190l-259 -1216h356l-44 -206h-910z" />
    <glyph glyph-name="two.tf" 
d="M409 1063l-141 135c81 111 244 226 434 226c290 0 427 -185 427 -379c0 -181 -98 -319 -278 -479l-407 -360h550l-44 -206h-879l36 169l587 526c158 141 209 227 209 332c0 93 -67 190 -215 190c-107 0 -210 -65 -279 -154z" />
    <glyph glyph-name="three.tf" 
d="M396 1063l-136 149c102 125 241 212 461 212c266 0 428 -139 428 -341c0 -171 -103 -309 -281 -383c106 -50 173 -139 173 -266c0 -260 -220 -458 -530 -458c-211 0 -371 72 -456 187l149 143c70 -85 189 -128 310 -128c192 0 306 112 306 257c0 119 -101 171 -248 171
h-157l43 199h137c188 0 328 112 328 246c0 106 -94 171 -223 171c-141 0 -241 -81 -304 -159z" />
    <glyph glyph-name="four.tf" 
d="M994 854l-80 -376h214l-44 -206h-214l-58 -272h-217l58 272h-615l36 175l678 951h256l-658 -920h347l80 376h217z" />
    <glyph glyph-name="five.tf" 
d="M1161 1400l-43 -205h-559l-79 -338h135c342 0 473 -228 430 -466c-54 -296 -277 -416 -522 -416c-197 0 -356 74 -462 224l162 127c83 -107 188 -144 308 -144c166 0 272 95 291 225c19 123 -31 245 -261 245h-330l171 748h759z" />
    <glyph glyph-name="six.tf" 
d="M1013 1400l-423 -501c18 4 38 7 64 7c237 0 446 -181 446 -430c0 -273 -224 -500 -533 -500c-265 0 -482 171 -482 435c0 120 40 242 173 403l482 586h273zM607 705c-178 0 -296 -128 -296 -284c0 -144 111 -244 269 -244c172 0 294 127 294 286c0 152 -121 242 -267 242
z" />
    <glyph glyph-name="seven.tf" 
d="M1245 1400l-33 -178l-739 -1222h-258l736 1195h-691l43 205h942z" />
    <glyph glyph-name="eight.tf" 
d="M753 1424c226 0 453 -134 453 -360c0 -160 -107 -301 -294 -371c109 -56 181 -147 181 -266c0 -254 -225 -451 -565 -451c-252 0 -477 136 -477 355c0 173 108 319 306 386c-90 53 -150 136 -150 248c0 239 198 459 546 459zM601 609c-196 0 -318 -112 -318 -247
c0 -114 115 -185 257 -185c200 0 327 106 327 246c0 119 -120 186 -266 186zM739 1222c-196 0 -304 -111 -304 -245c0 -114 97 -178 235 -178c188 0 307 108 307 239c0 118 -117 184 -238 184z" />
    <glyph glyph-name="nine.tf" 
d="M281 0l423 500c-18 -4 -39 -6 -64 -6c-237 0 -446 181 -446 430c0 273 224 500 533 500c265 0 482 -171 482 -435c0 -120 -40 -242 -173 -403l-482 -586h-273zM687 695c178 0 296 128 296 284c0 144 -111 244 -269 244c-172 0 -294 -127 -294 -286
c0 -152 121 -242 267 -242z" />
    <glyph glyph-name="uni2007.tf" 
 />
    <glyph glyph-name="zero.tosf" 
d="M647 1084c280 0 498 -198 498 -506c0 -333 -235 -605 -564 -605c-278 0 -496 198 -496 506c0 333 235 605 562 605zM637 891c-206 0 -337 -180 -337 -399c0 -203 125 -325 293 -325c206 0 337 180 337 399c0 203 -125 325 -293 325z" />
    <glyph glyph-name="one.tosf" 
d="M153 204h326l129 606l-368 -93l46 218l594 152l-188 -882l341 1l-44 -206h-880z" />
    <glyph glyph-name="two.tosf" 
d="M357 738l-136 139c96 104 234 207 446 207c237 0 404 -141 404 -340c0 -210 -109 -303 -367 -449l-161 -91h472l-44 -204h-876l34 161l469 281c179 107 248 163 248 284c0 90 -84 153 -202 153c-125 0 -198 -57 -287 -141z" />
    <glyph glyph-name="three.tosf" 
d="M328 724l-134 147c100 126 238 213 455 213c261 0 421 -138 421 -340c0 -171 -103 -309 -279 -384c104 -49 169 -138 169 -265c0 -261 -218 -459 -523 -459c-208 0 -365 72 -449 187l148 141c69 -85 186 -128 305 -128c189 0 301 113 301 259c0 120 -99 172 -243 172
h-154l43 197h135c184 0 323 113 323 248c0 107 -92 172 -219 172c-139 0 -237 -82 -299 -160z" />
    <glyph glyph-name="four.tosf" 
d="M905 515l-67 -313h235l-43 -202h-235l-73 -343h-212l73 343h-578l40 183l615 874h227l-582 -855h321l67 313h212z" />
    <glyph glyph-name="five.tosf" 
d="M1083 1057l-43 -202h-553l-79 -342h134c338 0 467 -228 424 -465c-54 -296 -275 -416 -517 -416c-195 0 -352 74 -457 224l160 126c82 -108 186 -145 305 -145c165 0 269 96 289 227c19 124 -30 246 -258 246h-327l171 747h751z" />
    <glyph glyph-name="six.tosf" 
d="M1022 1400l-420 -501c17 4 39 7 64 7c234 0 440 -182 440 -430c0 -273 -222 -500 -528 -500c-262 0 -476 171 -476 434c0 120 40 242 172 403l479 587h269zM619 706c-177 0 -294 -129 -294 -286c0 -144 109 -245 266 -245c171 0 293 128 293 288c0 153 -120 243 -265 243
z" />
    <glyph glyph-name="seven.tosf" 
d="M1186 1057l-33 -176l-735 -1224h-254l731 1198h-684l43 202h932z" />
    <glyph glyph-name="eight.tosf" 
d="M756 1424c221 0 443 -130 443 -349c0 -164 -107 -310 -292 -381c108 -55 178 -147 178 -266c0 -254 -221 -452 -555 -452c-247 0 -467 136 -467 354c0 173 107 319 302 387c-88 53 -147 135 -147 247c0 239 195 460 538 460zM603 609c-189 0 -308 -112 -308 -248
c0 -113 111 -184 248 -184c193 0 316 106 316 247c0 118 -116 185 -256 185zM741 1222c-190 0 -295 -112 -295 -246c0 -113 94 -177 227 -177c182 0 297 108 297 240c0 117 -113 183 -229 183z" />
    <glyph glyph-name="nine.tosf" 
d="M198 -341l420 501c-18 -4 -39 -7 -64 -7c-234 0 -440 182 -440 430c0 273 222 500 528 500c262 0 476 -171 476 -434c0 -120 -40 -242 -172 -403l-479 -587h-269zM601 353c177 0 294 129 294 286c0 144 -109 245 -266 245c-171 0 -293 -128 -293 -288
c0 -153 120 -243 265 -243z" />
    <glyph glyph-name="uni2007.tosf" 
 />
    <glyph glyph-name="exclam.sc" horiz-adv-x="510" 
d="M485 1060l-171 -671h-168l105 671h234zM188 282c82 0 153 -70 153 -153c0 -82 -71 -154 -153 -154s-154 72 -154 154c0 83 72 153 154 153z" />
    <glyph glyph-name="numbersign.sc" horiz-adv-x="1138" 
d="M234 808h167l86 252h179l-86 -252h188l86 252h179l-86 -252h163l-55 -166h-165l-74 -218h163l-54 -167h-166l-88 -257h-178l87 257h-188l-88 -257h-178l87 257h-163l54 167h166l74 218h-165zM523 642l-74 -218h188l74 218h-188z" />
    </font>
</defs>
</svg>
