<?xml version="1.0" standalone="no"?>
<!DOCTYPE svg PUBLIC "-//W3C//DTD SVG 1.1//EN" "http://www.w3.org/Graphics/SVG/1.1/DTD/svg11.dtd" >
<svg xmlns="http://www.w3.org/2000/svg" xmlns:xlink="http://www.w3.org/1999/xlink" version="1.1">
<metadata>
Created by FontForge 20190801 at Wed Aug 28 11:46:12 2013
 By Jimmy Wärting
2013 published by FontShop International GmbH
</metadata>
<defs>
<font id="MarkPro-Heavy" horiz-adv-x="1" >
  <font-face 
    font-family="MarkPro-Heavy"
    font-weight="800"
    font-stretch="normal"
    units-per-em="2000"
    panose-1="2 11 9 4 2 1 1 1 1 2"
    ascent="1580"
    descent="-420"
    x-height="981"
    cap-height="1400"
    bbox="-1361 -492 3054 2242"
    underline-thickness="236"
    underline-position="-260"
    stemh="292"
    stemv="313"
    unicode-range="U+000D-FEFF"
  />
<missing-glyph horiz-adv-x="1153" 
d="M110 0v1400h933v-1400h-933zM346 236h461v928h-461v-928z" />
    <glyph glyph-name=".notdef" horiz-adv-x="1153" 
d="M110 0v1400h933v-1400h-933zM346 236h461v928h-461v-928z" />
    <glyph glyph-name=".null" horiz-adv-x="0" 
 />
    <glyph glyph-name=".null" horiz-adv-x="0" 
 />
    <glyph glyph-name="CR" unicode="&#xd;" horiz-adv-x="449" 
 />
    <glyph glyph-name="space" unicode=" " horiz-adv-x="449" 
 />
    <glyph glyph-name="exclam" unicode="!" horiz-adv-x="580" 
d="M475 1400l-38 -899h-293l-38 899h369zM291 387c110 0 205 -95 205 -205c0 -112 -95 -208 -205 -208c-111 0 -207 96 -207 208c0 110 96 205 207 205z" />
    <glyph glyph-name="quotedbl" unicode="&#x22;" horiz-adv-x="1133" 
d="M178 1440h313v-650h-313v650zM642 1440h313v-650h-313v650z" />
    <glyph glyph-name="numbersign" unicode="#" horiz-adv-x="1461" 
d="M243 1096h182l65 304h284l-65 -304h209l65 304h285l-65 -304h182l-56 -262h-182l-55 -261h181l-55 -262h-182l-66 -311h-285l66 311h-209l-66 -311h-284l66 311h-182l55 262h183l55 261h-182zM653 834l-55 -261h209l55 261h-209z" />
    <glyph glyph-name="dollar" unicode="$" horiz-adv-x="1400" 
d="M1259 1240l-141 -254c-96 56 -233 113 -388 113c-137 0 -232 -38 -234 -118c-2 -87 121 -106 283 -133l66 -11c260 -43 429 -160 429 -370c0 -253 -182 -400 -429 -438v-193h-251v188c-184 16 -358 71 -482 162l157 252c126 -83 275 -139 442 -139c130 0 228 39 230 123
c2 82 -96 105 -276 133l-70 11c-276 43 -436 164 -431 395c5 225 178 377 430 413v183h251v-183c168 -18 289 -66 414 -134z" />
    <glyph glyph-name="percent" unicode="%" horiz-adv-x="1974" 
d="M448 1426c226 0 394 -165 394 -386c0 -222 -168 -386 -394 -386c-225 0 -393 164 -393 386c0 221 168 386 393 386zM448 1192c-84 0 -145 -65 -145 -152s61 -153 145 -153c85 0 146 66 146 153s-61 152 -146 152zM1633 1400l-995 -1400h-305l996 1400h304zM1525 746
c226 0 394 -164 394 -386s-168 -386 -394 -386c-225 0 -393 164 -393 386c0 218 168 386 393 386zM1525 513c-84 0 -146 -66 -146 -153s62 -152 146 -152c85 0 146 65 146 152c0 88 -61 153 -146 153z" />
    <glyph glyph-name="ampersand" unicode="&#x26;" horiz-adv-x="1492" 
d="M1480 0h-419l-128 123c-103 -84 -234 -149 -404 -149c-290 0 -458 151 -458 376c0 161 108 281 235 379c-106 112 -160 201 -160 329c0 216 173 368 435 368c259 0 433 -147 433 -366c0 -144 -124 -254 -260 -351l177 -173l209 263l226 -165l-233 -296zM560 252
c63 0 119 24 173 65l-226 218c-61 -50 -101 -100 -101 -154c0 -79 59 -129 154 -129zM459 1047c0 -42 22 -72 100 -148c84 56 145 105 145 156c0 57 -47 98 -123 98c-77 0 -122 -39 -122 -106z" />
    <glyph glyph-name="quotesingle" unicode="'" horiz-adv-x="669" 
d="M178 1440h313v-650h-313v650z" />
    <glyph glyph-name="parenleft" unicode="(" horiz-adv-x="838" 
d="M694 1456l93 -273c-259 -123 -377 -349 -377 -615s118 -492 377 -615l-93 -273c-359 129 -611 463 -611 888s252 759 611 888z" />
    <glyph glyph-name="parenright" unicode=")" horiz-adv-x="838" 
d="M144 -319l-93 273c259 123 377 349 377 615s-118 492 -377 615l93 273c359 -129 611 -463 611 -888s-252 -759 -611 -888z" />
    <glyph glyph-name="asterisk" unicode="*" horiz-adv-x="949" 
d="M140 1285l220 -81l-8 236h245l-9 -236l221 81l76 -232l-227 -65l146 -185l-198 -143l-132 195l-130 -195l-199 143l145 185l-226 65z" />
    <glyph glyph-name="plus" unicode="+" horiz-adv-x="1200" 
d="M731 60h-262v343h-340v257h340v343h262v-343h340v-257h-340v-343z" />
    <glyph glyph-name="comma" unicode="," horiz-adv-x="565" 
d="M147 363h342l-160 -650h-261z" />
    <glyph glyph-name="hyphen" unicode="-" horiz-adv-x="779" 
d="M690 665v-267h-601v267h601z" />
    <glyph glyph-name="period" unicode="." horiz-adv-x="580" 
d="M291 402c114 0 213 -98 213 -212c0 -116 -99 -216 -213 -216c-115 0 -215 100 -215 216c0 114 100 212 215 212z" />
    <glyph glyph-name="slash" unicode="/" horiz-adv-x="1067" 
d="M1122 1540l-849 -1740h-324l849 1740h324z" />
    <glyph glyph-name="zero" unicode="0" horiz-adv-x="1401" 
d="M700 1425c344 0 617 -271 617 -725c0 -453 -273 -725 -617 -725c-343 0 -616 272 -616 725c0 454 273 725 616 725zM700 1115c-157 0 -279 -143 -279 -415s122 -415 279 -415c158 0 280 143 280 415s-122 415 -280 415z" />
    <glyph glyph-name="one" unicode="1" horiz-adv-x="814" 
d="M679 1422v-1422h-324v975l-313 -119v319z" />
    <glyph glyph-name="two" unicode="2" horiz-adv-x="1142" 
d="M247 959l-192 220c87 106 243 246 511 246c295 0 486 -180 486 -452c0 -167 -65 -273 -210 -418l-254 -254h495v-301h-956v254l485 475c68 66 103 135 103 211c0 105 -77 175 -183 175c-127 0 -210 -74 -285 -156z" />
    <glyph glyph-name="three" unicode="3" horiz-adv-x="1149" 
d="M531 1425c304 0 517 -160 517 -404c0 -146 -75 -255 -203 -316c146 -59 232 -170 232 -317c0 -280 -261 -413 -538 -413c-213 0 -387 74 -497 205l185 211c78 -81 183 -126 296 -126c120 0 217 48 217 150c0 98 -110 149 -243 149h-158v285h160c121 0 215 50 215 145
c0 92 -83 141 -197 141c-130 0 -223 -62 -283 -133l-186 211c105 122 256 212 483 212z" />
    <glyph glyph-name="four" unicode="4" horiz-adv-x="1185" 
d="M975 908v-368h176v-301h-176v-239h-324v239h-617v227l457 933h356l-426 -859h230v144l108 224h216z" />
    <glyph glyph-name="five" unicode="5" horiz-adv-x="1169" 
d="M1009 1400v-298h-548l-6 -220h138c324 0 500 -173 500 -422c0 -300 -227 -486 -532 -486c-215 0 -393 81 -506 195l161 238c69 -66 208 -137 343 -137c130 0 198 67 198 168c0 88 -61 158 -247 158h-346l18 804h827z" />
    <glyph glyph-name="six" unicode="6" horiz-adv-x="1195" 
d="M952 1400l-336 -472c8 1 15 1 23 1c313 0 501 -207 501 -466c0 -282 -235 -488 -546 -488c-309 0 -544 202 -544 479c0 132 51 258 140 390l372 556h390zM594 655c-118 0 -204 -82 -204 -195c0 -115 86 -196 204 -196c119 0 206 81 206 196c0 113 -87 195 -206 195z" />
    <glyph glyph-name="seven" unicode="7" horiz-adv-x="1105" 
d="M1063 1400v-254l-552 -1146h-386l552 1099h-627v301h1013z" />
    <glyph glyph-name="eight" unicode="8" horiz-adv-x="1265" 
d="M632 1425c290 0 526 -151 526 -404c0 -159 -91 -258 -211 -314c137 -55 246 -155 246 -326c0 -255 -253 -406 -561 -406s-561 151 -561 406c0 171 108 271 245 326c-120 56 -210 155 -210 314c0 253 236 404 526 404zM632 582c-112 0 -208 -59 -208 -165
c0 -105 96 -160 208 -160s207 55 207 160c0 106 -95 165 -207 165zM632 1138c-100 0 -180 -52 -180 -148c0 -98 80 -152 180 -152c99 0 179 54 179 152c0 96 -80 148 -179 148z" />
    <glyph glyph-name="nine" unicode="9" horiz-adv-x="1195" 
d="M243 0l335 471h-22c-313 0 -501 207 -501 466c0 282 234 488 545 488c309 0 545 -202 545 -479c0 -132 -52 -258 -141 -390l-372 -556h-389zM600 745c118 0 204 82 204 195c0 115 -86 196 -204 196s-205 -81 -205 -196c0 -113 87 -195 205 -195z" />
    <glyph glyph-name="colon" unicode=":" horiz-adv-x="580" 
d="M291 1008c114 0 213 -99 213 -213c0 -116 -99 -215 -213 -215c-115 0 -215 99 -215 215c0 114 100 213 215 213zM291 402c114 0 213 -98 213 -212c0 -116 -99 -216 -213 -216c-115 0 -215 100 -215 216c0 114 100 212 215 212z" />
    <glyph glyph-name="semicolon" unicode=";" horiz-adv-x="565" 
d="M300 1008c114 0 213 -99 213 -213c0 -116 -99 -215 -213 -215c-115 0 -215 99 -215 215c0 114 100 213 215 213zM147 363h342l-160 -650h-261z" />
    <glyph glyph-name="less" unicode="&#x3c;" horiz-adv-x="1200" 
d="M1012 306v-297l-823 381v284l823 380v-297l-542 -225z" />
    <glyph glyph-name="equal" unicode="=" horiz-adv-x="1200" 
d="M1071 436v-258h-942v258h942zM1071 885v-258h-942v258h942z" />
    <glyph glyph-name="greater" unicode="&#x3e;" horiz-adv-x="1200" 
d="M189 757v297l823 -381v-284l-823 -380v297l542 225z" />
    <glyph glyph-name="question" unicode="?" horiz-adv-x="891" 
d="M445 494h-293v358h102c172 0 259 44 259 131c0 85 -86 127 -257 128c-50 0 -104 -3 -145 -8l-18 312c60 8 137 13 216 13c346 0 549 -160 549 -413c0 -221 -145 -367 -406 -418zM298 388c110 0 205 -95 205 -205c0 -112 -95 -209 -205 -209c-111 0 -207 96 -207 208
c0 111 96 206 207 206z" />
    <glyph glyph-name="at" unicode="@" horiz-adv-x="1895" 
d="M1320 873v-440c0 -81 24 -123 82 -123c84 0 139 72 139 237c0 318 -243 552 -589 552c-347 0 -590 -244 -590 -599c0 -356 237 -600 575 -600c128 0 243 25 343 101l143 -189c-145 -106 -321 -145 -486 -145c-492 0 -840 353 -840 833c0 479 354 832 855 832
c500 0 847 -342 847 -784c0 -273 -160 -465 -409 -465c-148 0 -232 61 -275 135c-46 -65 -119 -113 -231 -113c-211 0 -346 175 -346 395c0 218 140 394 338 394c95 0 160 -40 203 -97v76h241zM938 660c-83 0 -142 -68 -142 -161c0 -92 59 -161 142 -161
c82 0 140 68 140 161s-58 161 -140 161z" />
    <glyph glyph-name="A" unicode="A" horiz-adv-x="1497" 
d="M948 1400l537 -1400h-356l-106 294h-556l-106 -294h-349l537 1400h399zM745 1068l-170 -472h340z" />
    <glyph glyph-name="B" unicode="B" horiz-adv-x="1365" 
d="M127 1400h602c354 0 538 -139 538 -396c0 -138 -81 -246 -193 -296c124 -44 222 -164 222 -307c0 -257 -177 -401 -532 -401h-637v1400zM747 564h-286v-284h286c129 0 204 38 204 143c0 102 -75 141 -204 141zM721 1119h-260v-276h260c120 0 198 35 198 139
c0 102 -78 137 -198 137z" />
    <glyph glyph-name="C" unicode="C" horiz-adv-x="1488" 
d="M806 1426c267 0 503 -125 622 -337l-293 -168c-73 119 -188 185 -333 185c-221 0 -385 -166 -385 -406c0 -260 179 -406 386 -406c142 0 258 65 338 184l274 -194c-128 -191 -341 -310 -609 -310c-432 0 -737 302 -737 726s305 726 737 726z" />
    <glyph glyph-name="D" unicode="D" horiz-adv-x="1522" 
d="M127 1400h599c438 0 727 -278 727 -700s-289 -700 -727 -700h-599v1400zM719 1091h-258v-782h258c260 0 385 165 385 391c0 229 -125 391 -385 391z" />
    <glyph glyph-name="E" unicode="E" horiz-adv-x="1300" 
d="M1199 301v-301h-1072v1400h1068v-301h-734v-242h691v-300h-691v-256h738z" />
    <glyph glyph-name="F" unicode="F" horiz-adv-x="1261" 
d="M1137 837v-302h-676v-535h-334v1400h1058v-301h-724v-262h676z" />
    <glyph glyph-name="G" unicode="G" horiz-adv-x="1560" 
d="M814 1426c222 0 399 -76 521 -203l-238 -234c-70 75 -169 123 -299 123c-224 0 -385 -168 -385 -412c0 -269 178 -420 386 -420c199 0 315 88 354 253h-341v258h672c5 -37 7 -71 7 -105c0 -448 -320 -711 -680 -711c-417 0 -742 288 -742 725c0 425 309 726 745 726z" />
    <glyph glyph-name="H" unicode="H" horiz-adv-x="1511" 
d="M461 1400v-539h589v539h334v-1400h-334v552h-589v-552h-334v1400h334z" />
    <glyph glyph-name="I" unicode="I" horiz-adv-x="588" 
d="M461 1400v-1400h-334v1400h334z" />
    <glyph glyph-name="J" unicode="J" horiz-adv-x="1108" 
d="M988 1400v-874c0 -368 -210 -552 -517 -552c-218 0 -366 87 -446 174l174 253c54 -56 133 -106 247 -106c130 0 208 75 208 260v845h334z" />
    <glyph glyph-name="K" unicode="K" horiz-adv-x="1423" 
d="M1020 0l-441 554h-118v-554h-334v1400h334v-545h121l402 545h411l-543 -683l588 -717h-420z" />
    <glyph glyph-name="L" unicode="L" horiz-adv-x="1190" 
d="M1165 310v-310h-1038v1400h334v-1090h704z" />
    <glyph glyph-name="M" unicode="M" horiz-adv-x="1837" 
d="M1710 1400v-1400h-334v958l-280 -826h-355l-280 823v-955h-334v1400h473l319 -889l317 889h474z" />
    <glyph glyph-name="N" unicode="N" horiz-adv-x="1547" 
d="M1420 1400v-1400h-321l-638 854v-854h-334v1400h320l638 -854v854h335z" />
    <glyph glyph-name="O" unicode="O" horiz-adv-x="1614" 
d="M807 1426c432 0 738 -308 738 -726s-306 -726 -738 -726s-738 308 -738 726s306 726 738 726zM807 1106c-228 0 -390 -166 -390 -406s162 -406 390 -406s390 166 390 406s-162 406 -390 406z" />
    <glyph glyph-name="P" unicode="P" horiz-adv-x="1317" 
d="M730 473h-269v-473h-334v1400h600c346 0 529 -186 529 -467c0 -276 -183 -460 -526 -460zM722 1097h-261v-326h261c120 0 194 56 194 162c0 107 -74 164 -194 164z" />
    <glyph glyph-name="Q" unicode="Q" horiz-adv-x="1636" 
d="M807 1426c432 0 738 -308 738 -726c0 -157 -46 -289 -124 -400l221 -300h-393l-62 82c-107 -67 -233 -108 -380 -108c-432 0 -738 308 -738 726s306 726 738 726zM807 1106c-228 0 -390 -166 -390 -406s162 -406 390 -406c68 0 131 15 185 42l-221 296h364l45 -61
c11 40 17 83 17 129c0 240 -162 406 -390 406z" />
    <glyph glyph-name="R" unicode="R" horiz-adv-x="1347" 
d="M127 1400h609c346 0 530 -172 530 -448c0 -222 -140 -378 -391 -418l402 -534h-398l-369 524h-49v-524h-334v1400zM732 1097h-271v-292h271c120 0 194 47 194 147c0 99 -76 145 -194 145z" />
    <glyph glyph-name="S" unicode="S" horiz-adv-x="1355" 
d="M1260 1277l-149 -274c-100 60 -237 118 -401 118c-127 0 -220 -43 -220 -126c0 -88 133 -109 288 -136l58 -10c272 -47 443 -174 443 -403c0 -333 -287 -472 -587 -472c-233 0 -461 61 -616 178l167 272c107 -73 255 -147 452 -147c126 0 222 43 222 130
c0 84 -94 108 -277 136l-70 11c-288 45 -444 175 -439 427c5 272 237 444 564 444c189 0 353 -31 565 -148z" />
    <glyph glyph-name="T" unicode="T" horiz-adv-x="1213" 
d="M1188 1400v-310h-414v-1090h-334v1090h-415v310h1163z" />
    <glyph glyph-name="U" unicode="U" horiz-adv-x="1453" 
d="M1339 1400v-835c0 -383 -232 -591 -613 -591s-612 208 -612 591v835h335v-822c0 -192 110 -283 277 -283c168 0 278 91 278 283v822h335z" />
    <glyph glyph-name="V" unicode="V" horiz-adv-x="1457" 
d="M1445 1400l-517 -1400h-398l-518 1400h355l364 -1056l366 1056h348z" />
    <glyph glyph-name="W" unicode="W" horiz-adv-x="2178" 
d="M2159 1400l-408 -1400h-398l-264 903l-264 -903h-398l-408 1400h345l267 -1003l280 1003h361l280 -1005l267 1005h340z" />
    <glyph glyph-name="X" unicode="X" horiz-adv-x="1356" 
d="M1334 1400l-453 -693l458 -707h-383l-280 455l-280 -455h-379l458 707l-452 693h383l274 -446l274 446h380z" />
    <glyph glyph-name="Y" unicode="Y" horiz-adv-x="1398" 
d="M1394 1400l-523 -861v-539h-335v537l-532 863h387l314 -559l313 559h376z" />
    <glyph glyph-name="Z" unicode="Z" horiz-adv-x="1284" 
d="M1208 1400v-262l-688 -837h688v-301h-1132v262l687 837h-686v301h1131z" />
    <glyph glyph-name="bracketleft" unicode="[" horiz-adv-x="756" 
d="M705 17v-280h-578v1663h578v-280h-262v-1103h262z" />
    <glyph glyph-name="backslash" unicode="\" horiz-adv-x="1067" 
d="M794 -200l-849 1740h324l849 -1740h-324z" />
    <glyph glyph-name="bracketright" unicode="]" horiz-adv-x="756" 
d="M51 1120v280h578v-1663h-578v280h262v1103h-262z" />
    <glyph glyph-name="asciicircum" unicode="^" horiz-adv-x="1200" 
d="M401 635h-300l357 765h284l357 -765h-307l-196 467z" />
    <glyph glyph-name="underscore" unicode="_" horiz-adv-x="940" 
d="M945 -92v-236h-950v236h950z" />
    <glyph glyph-name="grave" unicode="`" horiz-adv-x="1000" 
d="M786 1105h-293l-278 332h359z" />
    <glyph glyph-name="a" unicode="a" horiz-adv-x="1208" 
d="M1099 981v-981h-303v106c-59 -77 -149 -132 -282 -132c-262 0 -456 228 -456 518c0 288 194 516 457 516c132 0 222 -56 281 -133v106h303zM589 716c-125 0 -209 -97 -209 -225s84 -225 209 -225c123 0 210 95 210 225s-87 225 -210 225z" />
    <glyph glyph-name="b" unicode="b" horiz-adv-x="1208" 
d="M693 1008c262 0 457 -228 457 -516c0 -290 -195 -518 -457 -518c-133 0 -222 54 -281 131v-105h-302v1440h312v-553c59 71 145 121 271 121zM618 716c-123 0 -209 -95 -209 -225s86 -225 209 -225c126 0 210 97 210 225s-84 225 -210 225z" />
    <glyph glyph-name="c" unicode="c" horiz-adv-x="1038" 
d="M587 1008c182 0 325 -81 419 -215l-245 -171c-49 63 -105 94 -181 94c-109 0 -202 -84 -202 -225c0 -142 91 -225 200 -225c74 0 136 33 185 95l244 -174c-94 -133 -238 -213 -420 -213c-313 0 -529 217 -529 517s216 517 529 517z" />
    <glyph glyph-name="d" unicode="d" horiz-adv-x="1207" 
d="M515 1008c125 0 212 -50 271 -121v553h312v-1440h-302v106c-59 -77 -149 -132 -282 -132c-262 0 -456 228 -456 518c0 288 194 516 457 516zM589 716c-125 0 -209 -97 -209 -225s84 -225 209 -225c123 0 210 95 210 225s-87 225 -210 225z" />
    <glyph glyph-name="e" unicode="e" horiz-adv-x="1110" 
d="M561 1008c291 0 490 -210 491 -517c0 -32 -2 -76 -6 -97h-665c26 -107 102 -157 210 -157c73 0 152 30 214 86l202 -188c-102 -102 -251 -161 -432 -161c-308 0 -517 205 -517 511c0 309 205 523 503 523zM562 742c-97 0 -156 -53 -180 -150h357c-25 98 -86 150 -177 150
z" />
    <glyph glyph-name="f" unicode="f" horiz-adv-x="855" 
d="M790 981v-277h-275v-704h-313v704h-169v277h169v76c0 264 145 409 374 409c153 0 254 -46 331 -104l-136 -231c-47 24 -93 43 -153 43c-69 0 -103 -39 -103 -124v-69h275z" />
    <glyph glyph-name="g" unicode="g" horiz-adv-x="1199" 
d="M513 1008c129 0 216 -53 274 -129v102h303v-887c0 -322 -211 -514 -532 -514c-164 0 -331 42 -448 125l111 249c96 -68 199 -100 315 -100c127 0 247 70 247 226v61c-58 -74 -144 -124 -270 -124c-263 0 -455 217 -455 495s192 496 455 496zM587 722
c-122 0 -206 -90 -206 -210c0 -119 84 -210 206 -210c118 0 200 89 200 210s-82 210 -200 210z" />
    <glyph glyph-name="h" unicode="h" horiz-adv-x="1153" 
d="M423 1441v-563c62 89 157 130 279 130c196 0 348 -137 348 -364v-644h-313v533c0 116 -58 181 -155 181c-87 0 -159 -59 -159 -186v-528h-313v1441h313z" />
    <glyph glyph-name="i" unicode="i" horiz-adv-x="532" 
d="M423 981v-981h-313v981h313zM265 1471c105 0 187 -82 187 -188c0 -105 -82 -186 -187 -186c-106 0 -187 81 -187 186c0 106 81 188 187 188z" />
    <glyph glyph-name="j" unicode="j" horiz-adv-x="533" 
d="M424 981v-1046c0 -228 -127 -359 -321 -359c-46 0 -114 10 -150 24l30 277c19 -6 39 -10 63 -10c38 0 66 23 66 88v1026h312zM266 1471c105 0 187 -82 187 -188c0 -105 -82 -186 -187 -186c-106 0 -187 81 -187 186c0 106 81 188 187 188z" />
    <glyph glyph-name="k" unicode="k" horiz-adv-x="1105" 
d="M423 1440v-784h75l232 325h379l-363 -463l364 -518h-378l-242 379h-67v-379h-313v1440h313z" />
    <glyph glyph-name="l" unicode="l" horiz-adv-x="532" 
d="M423 1440v-1440h-313v1440h313z" />
    <glyph glyph-name="m" unicode="m" horiz-adv-x="1781" 
d="M1312 1008c224 0 366 -138 366 -364v-644h-313v533c0 116 -58 181 -156 181c-86 0 -159 -59 -159 -186v-528h-313v533c0 116 -58 181 -155 181c-87 0 -159 -59 -159 -186v-528h-313v981h300v-123c62 103 161 150 292 150c129 0 239 -59 299 -164c66 113 176 164 311 164z
" />
    <glyph glyph-name="n" unicode="n" horiz-adv-x="1153" 
d="M702 1008c196 0 348 -137 348 -364v-644h-313v533c0 116 -58 181 -155 181c-87 0 -159 -59 -159 -186v-528h-313v981h300v-123c62 103 161 150 292 150z" />
    <glyph glyph-name="o" unicode="o" horiz-adv-x="1181" 
d="M590 1008c307 0 533 -220 533 -517s-226 -517 -533 -517c-306 0 -532 220 -532 517s226 517 532 517zM590 716c-122 0 -212 -93 -212 -225s90 -225 212 -225c123 0 213 93 213 225s-90 225 -213 225z" />
    <glyph glyph-name="p" unicode="p" horiz-adv-x="1208" 
d="M693 1008c262 0 457 -228 457 -516c0 -290 -195 -518 -457 -518c-126 0 -212 49 -271 119v-493h-312v1381h302v-106c59 77 148 133 281 133zM618 716c-123 0 -209 -95 -209 -225s86 -225 209 -225c126 0 210 97 210 225s-84 225 -210 225z" />
    <glyph glyph-name="q" unicode="q" horiz-adv-x="1207" 
d="M515 1008c132 0 222 -56 281 -133v106h302v-1381h-312v493c-59 -70 -146 -119 -272 -119c-262 0 -456 228 -456 518c0 288 194 516 457 516zM589 716c-125 0 -209 -97 -209 -225s84 -225 209 -225c123 0 210 95 210 225s-87 225 -210 225z" />
    <glyph glyph-name="r" unicode="r" horiz-adv-x="821" 
d="M678 1008c46 0 86 -8 110 -15l-29 -312c-42 14 -101 26 -157 26c-111 0 -179 -55 -179 -177v-530h-313v981h300v-113c57 95 148 140 268 140z" />
    <glyph glyph-name="s" unicode="s" horiz-adv-x="1017" 
d="M935 923l-87 -244c-97 41 -223 75 -323 76c-82 0 -114 -24 -114 -60c0 -42 62 -52 158 -67l72 -11c210 -32 321 -133 321 -298c0 -215 -168 -344 -454 -344c-168 0 -341 30 -453 103l109 242c98 -58 210 -92 346 -92c97 0 137 22 137 64c0 38 -44 53 -155 70l-57 8
c-236 35 -346 133 -346 309c0 209 157 328 424 328c159 0 261 -22 422 -84z" />
    <glyph glyph-name="t" unicode="t" horiz-adv-x="959" 
d="M864 981v-277h-335v-287c0 -113 60 -151 139 -151c58 0 121 32 170 61l108 -244c-92 -64 -190 -109 -348 -109c-263 0 -382 157 -382 403v327h-183v277h183v286h313v-286h335z" />
    <glyph glyph-name="u" unicode="u" horiz-adv-x="1153" 
d="M1050 981v-561c0 -307 -212 -446 -473 -446c-262 0 -474 139 -474 447v560h313v-533c0 -125 67 -182 161 -182c93 0 161 57 161 182v533h312z" />
    <glyph glyph-name="v" unicode="v" horiz-adv-x="1138" 
d="M1125 981l-375 -981h-357l-380 981h341l219 -640l221 640h331z" />
    <glyph glyph-name="w" unicode="w" horiz-adv-x="1793" 
d="M1053 981l200 -626l191 626h329l-338 -981h-349l-191 587l-189 -587h-347l-339 981h333l189 -623l198 623h313z" />
    <glyph glyph-name="x" unicode="x" horiz-adv-x="1148" 
d="M1121 981l-341 -486l346 -495h-364l-193 282l-187 -282h-360l349 495l-338 486h366l182 -279l180 279h360z" />
    <glyph glyph-name="y" unicode="y" horiz-adv-x="1159" 
d="M1152 981l-724 -1383h-342l336 618l-413 765h359l223 -441l219 441h342z" />
    <glyph glyph-name="z" unicode="z" horiz-adv-x="1039" 
d="M952 981v-231l-433 -473h443v-277h-885v224l443 480h-426v277h858z" />
    <glyph glyph-name="braceleft" unicode="{" horiz-adv-x="881" 
d="M830 1129h-82c-95 0 -155 -57 -150 -162l3 -80c7 -152 -39 -264 -214 -318c175 -55 221 -167 214 -319l-3 -80c-5 -105 55 -161 150 -161h82v-272h-125c-289 0 -433 173 -422 443l4 87c5 109 -75 169 -211 169v265c136 0 216 60 211 169l-4 87c-11 271 133 443 422 443
h125v-271z" />
    <glyph glyph-name="bar" unicode="|" horiz-adv-x="669" 
d="M491 1400v-1665h-313v1665h313z" />
    <glyph glyph-name="braceright" unicode="}" horiz-adv-x="881" 
d="M51 8h82c95 0 155 57 150 162l-3 80c-7 152 39 264 214 318c-175 55 -221 167 -214 319l3 80c5 105 -55 161 -150 161h-82v272h125c289 0 433 -173 422 -443l-4 -87c-5 -109 75 -169 211 -169v-265c-136 0 -216 -60 -211 -169l4 -87c11 -271 -133 -443 -422 -443h-125
v271z" />
    <glyph glyph-name="asciitilde" unicode="~" horiz-adv-x="1200" 
d="M960 709l138 -187c-76 -105 -193 -164 -314 -164c-178 0 -272 101 -375 101c-55 0 -109 -35 -168 -99l-138 186c75 105 193 164 313 164c179 0 273 -100 375 -100c55 0 109 34 169 99z" />
    <glyph glyph-name="uni00A0" unicode="&#xa0;" horiz-adv-x="449" 
 />
    <glyph glyph-name="exclamdown" unicode="&#xa1;" horiz-adv-x="580" 
d="M105 -418l38 899h293l38 -899h-369zM289 595c-110 0 -205 95 -205 205c0 112 95 208 205 208c111 0 207 -96 207 -208c0 -110 -96 -205 -207 -205z" />
    <glyph glyph-name="cent" unicode="&#xa2;" horiz-adv-x="1400" 
d="M221 700c0 252 156 446 397 500v200h251v-195c130 -25 236 -96 311 -199l-235 -169c-53 63 -112 96 -193 96c-120 0 -220 -88 -220 -233s98 -233 218 -233c79 0 146 35 198 97l232 -171c-75 -103 -181 -173 -311 -198v-195h-251v200c-241 54 -397 247 -397 500z" />
    <glyph glyph-name="sterling" unicode="&#xa3;" horiz-adv-x="1400" 
d="M1219 301v-301h-1075v301h154v275h-154v248h154v46c0 374 254 555 555 555c156 0 301 -49 400 -148l-215 -230c-48 45 -112 68 -185 68c-127 0 -231 -73 -231 -251v-40h466v-248h-466v-275h597z" />
    <glyph glyph-name="currency" unicode="&#xa4;" horiz-adv-x="1400" 
d="M112 1116l172 172l160 -160c75 45 163 71 257 71c93 0 181 -26 256 -70l159 159l173 -172l-159 -159c45 -75 71 -163 71 -257s-26 -182 -71 -257l160 -159l-173 -172l-160 158c-75 -45 -163 -70 -256 -70c-94 0 -182 26 -257 71l-159 -159l-172 172l159 160
c-45 75 -70 162 -70 256c0 93 26 181 70 255zM701 444c143 0 256 113 256 256c0 142 -113 255 -256 255c-144 0 -255 -113 -255 -255c0 -143 111 -256 255 -256z" />
    <glyph glyph-name="yen" unicode="&#xa5;" horiz-adv-x="1400" 
d="M1223 455v-198h-354v-257h-324v257h-355v198h355v112h-355v198h271l-426 635h374l298 -470l294 470h364l-418 -635h276v-198h-354v-112h354z" />
    <glyph glyph-name="brokenbar" unicode="&#xa6;" horiz-adv-x="669" 
d="M491 1400v-694h-313v694h313zM491 429v-694h-313v694h313z" />
    <glyph glyph-name="section" unicode="&#xa7;" horiz-adv-x="1299" 
d="M1182 1300l-135 -256c-87 48 -211 100 -361 100c-110 0 -193 -33 -193 -98c0 -75 123 -95 265 -118l52 -8c251 -42 398 -155 398 -331c0 -122 -52 -211 -133 -271c69 -57 106 -133 106 -229c0 -305 -264 -427 -534 -427c-212 0 -416 51 -556 150l152 255
c97 -61 226 -125 409 -125c110 0 193 32 193 103c0 69 -85 82 -248 111l-61 11c-246 44 -403 143 -403 350c0 104 49 191 136 253c-73 58 -110 138 -110 246c0 246 211 409 515 409c163 0 310 -22 508 -125zM623 650l-71 11c-52 -19 -85 -53 -85 -102c0 -74 98 -89 240 -113
c23 -4 65 -11 95 -16c44 20 70 52 70 101c0 77 -87 94 -249 119z" />
    <glyph glyph-name="dieresis" unicode="&#xa8;" horiz-adv-x="1121" 
d="M325 1449c106 0 188 -82 188 -187c0 -106 -82 -187 -188 -187c-105 0 -186 81 -186 187c0 105 81 187 186 187zM789 1449c105 0 187 -82 187 -187c0 -106 -82 -187 -187 -187c-106 0 -187 81 -187 187c0 105 81 187 187 187z" />
    <glyph glyph-name="copyright" unicode="&#xa9;" horiz-adv-x="1818" 
d="M909 1515c457 0 826 -361 826 -804c0 -444 -369 -806 -826 -806s-826 362 -826 806c0 443 369 804 826 804zM909 1258c-307 0 -556 -244 -556 -547c0 -304 249 -549 556 -549s555 245 555 549c0 303 -248 547 -555 547zM1294 890l-223 -107c-33 68 -84 99 -155 99
c-88 0 -152 -68 -152 -172c0 -125 80 -170 152 -170c68 0 122 31 162 99l206 -133c-73 -120 -198 -197 -364 -197c-243 0 -412 164 -412 401c0 239 169 402 412 402c164 0 310 -81 374 -222z" />
    <glyph glyph-name="ordfeminine" unicode="&#xaa;" horiz-adv-x="797" 
d="M379 1293c197 0 336 -96 336 -313v-412h-206v65c-45 -45 -110 -83 -206 -83c-154 0 -250 88 -250 224s110 219 301 219h143c-8 72 -52 111 -140 111c-81 0 -144 -30 -191 -63l-83 162c65 49 165 90 296 90zM359 716c59 0 111 30 145 68v73h-119c-78 0 -111 -33 -111 -71
s28 -70 85 -70z" />
    <glyph glyph-name="guillemotleft" unicode="&#xab;" horiz-adv-x="1112" 
d="M846 532l197 -402h-303l-197 402l197 401h303zM373 532l197 -402h-303l-197 402l197 401h303z" />
    <glyph glyph-name="logicalnot" unicode="&#xac;" horiz-adv-x="1200" 
d="M129 660h942v-572h-263v315h-679v257z" />
    <glyph glyph-name="uni00AD" unicode="&#xad;" horiz-adv-x="779" 
d="M690 665v-267h-601v267h601z" />
    <glyph glyph-name="registered" unicode="&#xae;" horiz-adv-x="999" 
d="M500 1445c264 0 471 -206 471 -459c0 -252 -209 -459 -471 -459c-267 0 -472 207 -472 459c0 253 205 459 472 459zM500 668c172 0 315 145 315 318c0 174 -143 317 -315 317c-176 0 -318 -143 -318 -317c0 -173 142 -318 318 -318zM320 1194h202c115 0 175 -57 175 -142
c0 -64 -42 -112 -119 -127l124 -147h-143l-109 143h-9v-143h-121v416zM520 1088h-79v-68h79c32 0 53 9 53 32c0 24 -21 36 -53 36z" />
    <glyph glyph-name="macron" unicode="&#xaf;" horiz-adv-x="1110" 
d="M203 1136v250h704v-250h-704z" />
    <glyph glyph-name="degree" unicode="&#xb0;" horiz-adv-x="875" 
d="M438 616c-227 0 -410 181 -410 402c0 225 183 408 410 408c226 0 409 -183 409 -408c0 -221 -183 -402 -409 -402zM438 857c86 0 159 72 159 161c0 88 -73 160 -159 160c-88 0 -160 -72 -160 -160c0 -89 72 -161 160 -161z" />
    <glyph glyph-name="plusminus" unicode="&#xb1;" horiz-adv-x="1200" 
d="M731 352h-262v252h-340v258h340v319h262v-319h340v-258h-340v-252zM1071 258v-258h-942v258h942z" />
    <glyph glyph-name="twosuperior" unicode="&#xb2;" horiz-adv-x="730" 
d="M170 1112l-126 153c58 68 159 150 324 150c180 0 299 -105 299 -270c0 -96 -33 -167 -140 -262l-123 -110h281v-205h-593v174l288 265c38 35 58 72 58 110c0 52 -44 86 -97 86c-72 0 -124 -44 -171 -91z" />
    <glyph glyph-name="threesuperior" unicode="&#xb3;" horiz-adv-x="731" 
d="M335 1415c188 0 322 -95 322 -241c0 -86 -43 -150 -120 -187c87 -35 137 -101 137 -187c0 -168 -163 -247 -335 -247c-130 0 -236 44 -305 123l122 142c47 -46 105 -72 171 -72c64 0 116 24 116 75c0 50 -60 76 -132 76h-93v182h96c65 0 115 27 115 74
c0 46 -40 68 -103 68c-78 0 -134 -34 -173 -75l-117 145c69 72 160 124 299 124z" />
    <glyph glyph-name="acute" unicode="&#xb4;" horiz-adv-x="1000" 
d="M508 1105h-293l212 332h359z" />
    <glyph glyph-name="mu" unicode="&#xb5;" horiz-adv-x="1152" 
d="M404 -400h-301v1381h313v-533c0 -116 58 -181 155 -181c87 0 159 59 159 186v528h313v-981h-300v123c-62 -103 -161 -150 -292 -150c-16 0 -32 1 -47 3v-376z" />
    <glyph glyph-name="paragraph" unicode="&#xb6;" horiz-adv-x="1309" 
d="M547 0v559c-302 6 -462 173 -462 424c0 246 161 411 462 416v1h239v-1400h-239zM892 0v1400h239v-1400h-239z" />
    <glyph glyph-name="periodcentered" unicode="&#xb7;" horiz-adv-x="686" 
d="M344 745c115 0 213 -99 213 -213c0 -116 -98 -216 -213 -216s-215 100 -215 216c0 114 100 213 215 213z" />
    <glyph glyph-name="cedilla" unicode="&#xb8;" horiz-adv-x="723" 
d="M557 7l-103 -328h-287l111 328h279z" />
    <glyph glyph-name="onesuperior" unicode="&#xb9;" horiz-adv-x="541" 
d="M435 1413v-845h-222v544l-179 -62v215z" />
    <glyph glyph-name="ordmasculine" unicode="&#xba;" horiz-adv-x="871" 
d="M435 1293c220 0 383 -159 383 -372s-163 -371 -383 -371s-382 158 -382 371s162 372 382 372zM435 1091c-93 0 -162 -70 -162 -170s69 -170 162 -170s163 70 163 170s-70 170 -163 170z" />
    <glyph glyph-name="guillemotright" unicode="&#xbb;" horiz-adv-x="1112" 
d="M266 531l-197 402h303l197 -402l-197 -401h-303zM739 531l-197 402h303l197 -402l-197 -401h-303z" />
    <glyph glyph-name="onequarter" unicode="&#xbc;" horiz-adv-x="1717" 
d="M1387 1400l-883 -1400h-273l883 1400h273zM1593 554v-224h97v-197h-97v-133h-222v133h-370v152l260 546h241l-241 -501h110v86l66 138h156zM435 1413v-845h-222v544l-179 -62v215z" />
    <glyph glyph-name="onehalf" unicode="&#xbd;" horiz-adv-x="1784" 
d="M1387 1400l-883 -1400h-273l883 1400h273zM1224 544l-126 153c58 68 159 150 324 150c180 0 299 -105 299 -270c0 -96 -33 -167 -140 -262l-123 -110h281v-205h-593v174l288 265c38 35 58 72 58 110c0 52 -44 86 -97 86c-72 0 -124 -44 -171 -91zM435 1413v-845h-222v544
l-179 -62v215z" />
    <glyph glyph-name="threequarters" unicode="&#xbe;" horiz-adv-x="1883" 
d="M1554 1400l-883 -1400h-273l883 1400h273zM1760 554v-224h97v-197h-97v-133h-222v133h-370v152l260 546h241l-241 -501h110v86l66 138h156zM335 1415c188 0 322 -95 322 -241c0 -86 -43 -150 -120 -187c87 -35 137 -101 137 -187c0 -168 -163 -247 -335 -247
c-130 0 -236 44 -305 123l122 142c47 -46 105 -72 171 -72c64 0 116 24 116 75c0 50 -60 76 -132 76h-93v182h96c65 0 115 27 115 74c0 46 -40 68 -103 68c-78 0 -134 -34 -173 -75l-117 145c69 72 160 124 299 124z" />
    <glyph glyph-name="questiondown" unicode="&#xbf;" horiz-adv-x="891" 
d="M446 488h293v-358h-102c-172 0 -259 -44 -259 -131c0 -85 86 -127 257 -128c50 0 104 3 145 8l18 -312c-60 -8 -137 -13 -216 -13c-346 0 -549 160 -549 413c0 221 145 366 405 417zM593 594c-110 0 -205 95 -205 205c0 112 95 209 205 209c111 0 207 -96 207 -208
c0 -111 -96 -206 -207 -206z" />
    <glyph glyph-name="Agrave" unicode="&#xc0;" horiz-adv-x="1497" 
d="M948 1400l537 -1400h-356l-106 294h-556l-106 -294h-349l537 1400h399zM745 1068l-170 -472h340zM652 1509l-278 332h359l212 -332h-293z" />
    <glyph glyph-name="Aacute" unicode="&#xc1;" horiz-adv-x="1497" 
d="M948 1400l537 -1400h-356l-106 294h-556l-106 -294h-349l537 1400h399zM745 1068l-170 -472h340zM833 1509h-293l212 332h359z" />
    <glyph glyph-name="Acircumflex" unicode="&#xc2;" horiz-adv-x="1497" 
d="M948 1400l537 -1400h-356l-106 294h-556l-106 -294h-349l537 1400h399zM745 1068l-170 -472h340zM1147 1499h-284l-113 144l-114 -144h-284l225 332h344z" />
    <glyph glyph-name="Atilde" unicode="&#xc3;" horiz-adv-x="1497" 
d="M948 1400l537 -1400h-356l-106 294h-556l-106 -294h-349l537 1400h399zM745 1068l-170 -472h340zM506 1514l-171 165c79 112 176 152 287 152c142 0 198 -72 254 -72c35 0 72 24 115 69l171 -166c-78 -112 -176 -152 -287 -152c-141 0 -197 72 -254 72
c-35 0 -72 -24 -115 -68z" />
    <glyph glyph-name="Adieresis" unicode="&#xc4;" horiz-adv-x="1497" 
d="M948 1400l537 -1400h-356l-106 294h-556l-106 -294h-349l537 1400h399zM745 1068l-170 -472h340zM517 1853c106 0 188 -82 188 -187c0 -106 -82 -187 -188 -187c-105 0 -186 81 -186 187c0 105 81 187 186 187zM981 1853c105 0 187 -82 187 -187
c0 -106 -82 -187 -187 -187c-106 0 -187 81 -187 187c0 105 81 187 187 187z" />
    <glyph glyph-name="Aring" unicode="&#xc5;" horiz-adv-x="1497" 
d="M948 1400l537 -1400h-356l-106 294h-556l-106 -294h-349l537 1400h399zM745 1068l-170 -472h340zM748 1472c-151 0 -275 121 -275 272c0 149 124 271 275 271c153 0 277 -122 277 -271c0 -151 -124 -272 -277 -272zM748 1639c56 0 103 45 103 105c0 58 -47 105 -103 105
c-54 0 -102 -47 -102 -105c0 -60 48 -105 102 -105z" />
    <glyph glyph-name="AE" unicode="&#xc6;" horiz-adv-x="2288" 
d="M2187 301v-301h-1072v265h-532l-178 -265h-395l968 1400h1205v-301h-734v-242h691v-300h-691v-256h738zM786 567h329v488z" />
    <glyph glyph-name="Ccedilla" unicode="&#xc7;" horiz-adv-x="1488" 
d="M806 1426c267 0 503 -125 622 -337l-293 -168c-73 119 -188 185 -333 185c-221 0 -385 -166 -385 -406c0 -260 179 -406 386 -406c142 0 258 65 338 184l274 -194c-105 -157 -267 -265 -470 -299l-96 -306h-307l105 310c-346 64 -578 341 -578 711c0 424 305 726 737 726
z" />
    <glyph glyph-name="Egrave" unicode="&#xc8;" horiz-adv-x="1300" 
d="M1199 301v-301h-1072v1400h1068v-301h-734v-242h691v-300h-691v-256h738zM563 1509l-278 332h359l212 -332h-293z" />
    <glyph glyph-name="Eacute" unicode="&#xc9;" horiz-adv-x="1300" 
d="M1199 301v-301h-1072v1400h1068v-301h-734v-242h691v-300h-691v-256h738zM744 1509h-293l212 332h359z" />
    <glyph glyph-name="Ecircumflex" unicode="&#xca;" horiz-adv-x="1300" 
d="M1199 301v-301h-1072v1400h1068v-301h-734v-242h691v-300h-691v-256h738zM1058 1499h-284l-113 144l-114 -144h-284l225 332h344z" />
    <glyph glyph-name="Edieresis" unicode="&#xcb;" horiz-adv-x="1300" 
d="M1199 301v-301h-1072v1400h1068v-301h-734v-242h691v-300h-691v-256h738zM428 1853c106 0 188 -82 188 -187c0 -106 -82 -187 -188 -187c-105 0 -186 81 -186 187c0 105 81 187 186 187zM892 1853c105 0 187 -82 187 -187c0 -106 -82 -187 -187 -187
c-106 0 -187 81 -187 187c0 105 81 187 187 187z" />
    <glyph glyph-name="Igrave" unicode="&#xcc;" horiz-adv-x="588" 
d="M461 1400v-1400h-334v1400h334zM197 1509l-278 332h359l212 -332h-293z" />
    <glyph glyph-name="Iacute" unicode="&#xcd;" horiz-adv-x="588" 
d="M461 1400v-1400h-334v1400h334zM378 1509h-293l212 332h359z" />
    <glyph glyph-name="Icircumflex" unicode="&#xce;" horiz-adv-x="588" 
d="M461 1400v-1400h-334v1400h334zM692 1499h-284l-113 144l-114 -144h-284l225 332h344z" />
    <glyph glyph-name="Idieresis" unicode="&#xcf;" horiz-adv-x="588" 
d="M461 1400v-1400h-334v1400h334zM62 1853c106 0 188 -82 188 -187c0 -106 -82 -187 -188 -187c-105 0 -186 81 -186 187c0 105 81 187 186 187zM526 1853c105 0 187 -82 187 -187c0 -106 -82 -187 -187 -187c-106 0 -187 81 -187 187c0 105 81 187 187 187z" />
    <glyph glyph-name="Eth" unicode="&#xd0;" horiz-adv-x="1621" 
d="M226 1400h599c438 0 727 -278 727 -700s-289 -700 -727 -700h-599v563h-150v288h150v549zM880 851v-288h-320v-254h258c260 0 385 165 385 391c0 229 -125 391 -385 391h-258v-240h320z" />
    <glyph glyph-name="Ntilde" unicode="&#xd1;" horiz-adv-x="1547" 
d="M1420 1400v-1400h-321l-638 854v-854h-334v1400h320l638 -854v854h335zM542 1514l-171 165c79 112 176 152 287 152c142 0 198 -72 254 -72c35 0 72 24 115 69l171 -166c-78 -112 -176 -152 -287 -152c-141 0 -197 72 -254 72c-35 0 -72 -24 -115 -68z" />
    <glyph glyph-name="Ograve" unicode="&#xd2;" horiz-adv-x="1614" 
d="M807 1426c432 0 738 -308 738 -726s-306 -726 -738 -726s-738 308 -738 726s306 726 738 726zM807 1106c-228 0 -390 -166 -390 -406s162 -406 390 -406s390 166 390 406s-162 406 -390 406zM710 1509l-278 332h359l212 -332h-293z" />
    <glyph glyph-name="Oacute" unicode="&#xd3;" horiz-adv-x="1614" 
d="M807 1426c432 0 738 -308 738 -726s-306 -726 -738 -726s-738 308 -738 726s306 726 738 726zM807 1106c-228 0 -390 -166 -390 -406s162 -406 390 -406s390 166 390 406s-162 406 -390 406zM891 1509h-293l212 332h359z" />
    <glyph glyph-name="Ocircumflex" unicode="&#xd4;" horiz-adv-x="1614" 
d="M807 1426c432 0 738 -308 738 -726s-306 -726 -738 -726s-738 308 -738 726s306 726 738 726zM807 1106c-228 0 -390 -166 -390 -406s162 -406 390 -406s390 166 390 406s-162 406 -390 406zM1205 1499h-284l-113 144l-114 -144h-284l225 332h344z" />
    <glyph glyph-name="Otilde" unicode="&#xd5;" horiz-adv-x="1614" 
d="M807 1426c432 0 738 -308 738 -726s-306 -726 -738 -726s-738 308 -738 726s306 726 738 726zM807 1106c-228 0 -390 -166 -390 -406s162 -406 390 -406s390 166 390 406s-162 406 -390 406zM564 1514l-171 165c79 112 176 152 287 152c142 0 198 -72 254 -72
c35 0 72 24 115 69l171 -166c-78 -112 -176 -152 -287 -152c-141 0 -197 72 -254 72c-35 0 -72 -24 -115 -68z" />
    <glyph glyph-name="Odieresis" unicode="&#xd6;" horiz-adv-x="1614" 
d="M807 1426c432 0 738 -308 738 -726s-306 -726 -738 -726s-738 308 -738 726s306 726 738 726zM807 1106c-228 0 -390 -166 -390 -406s162 -406 390 -406s390 166 390 406s-162 406 -390 406zM575 1853c106 0 188 -82 188 -187c0 -106 -82 -187 -188 -187
c-105 0 -186 81 -186 187c0 105 81 187 186 187zM1039 1853c105 0 187 -82 187 -187c0 -106 -82 -187 -187 -187c-106 0 -187 81 -187 187c0 105 81 187 187 187z" />
    <glyph glyph-name="multiply" unicode="&#xd7;" horiz-adv-x="1200" 
d="M328 76l-183 184l269 269l-271 273l187 187l272 -272l270 270l183 -183l-270 -270l272 -272l-187 -188l-273 272z" />
    <glyph glyph-name="Oslash" unicode="&#xd8;" horiz-adv-x="1628" 
d="M807 1426c162 0 307 -44 424 -120l120 120l189 -189l-119 -118c79 -117 124 -260 124 -419c0 -418 -306 -726 -738 -726c-159 0 -300 41 -416 115l-115 -115l-188 188l110 110c-82 118 -129 264 -129 428c0 418 306 726 738 726zM807 1106c-228 0 -390 -166 -390 -406
c0 -65 12 -124 33 -176l540 540c-54 27 -116 42 -183 42zM1197 700c0 60 -11 115 -30 165l-534 -534c51 -24 110 -37 174 -37c228 0 390 166 390 406z" />
    <glyph glyph-name="Ugrave" unicode="&#xd9;" horiz-adv-x="1453" 
d="M1339 1400v-835c0 -383 -232 -591 -613 -591s-612 208 -612 591v835h335v-822c0 -192 110 -283 277 -283c168 0 278 91 278 283v822h335zM629 1509l-278 332h359l212 -332h-293z" />
    <glyph glyph-name="Uacute" unicode="&#xda;" horiz-adv-x="1453" 
d="M1339 1400v-835c0 -383 -232 -591 -613 -591s-612 208 -612 591v835h335v-822c0 -192 110 -283 277 -283c168 0 278 91 278 283v822h335zM810 1509h-293l212 332h359z" />
    <glyph glyph-name="Ucircumflex" unicode="&#xdb;" horiz-adv-x="1453" 
d="M1339 1400v-835c0 -383 -232 -591 -613 -591s-612 208 -612 591v835h335v-822c0 -192 110 -283 277 -283c168 0 278 91 278 283v822h335zM1124 1499h-284l-113 144l-114 -144h-284l225 332h344z" />
    <glyph glyph-name="Udieresis" unicode="&#xdc;" horiz-adv-x="1453" 
d="M1339 1400v-835c0 -383 -232 -591 -613 -591s-612 208 -612 591v835h335v-822c0 -192 110 -283 277 -283c168 0 278 91 278 283v822h335zM494 1853c106 0 188 -82 188 -187c0 -106 -82 -187 -188 -187c-105 0 -186 81 -186 187c0 105 81 187 186 187zM958 1853
c105 0 187 -82 187 -187c0 -106 -82 -187 -187 -187c-106 0 -187 81 -187 187c0 105 81 187 187 187z" />
    <glyph glyph-name="Yacute" unicode="&#xdd;" horiz-adv-x="1398" 
d="M1394 1400l-523 -861v-539h-335v537l-532 863h387l314 -559l313 559h376zM789 1509h-293l212 332h359z" />
    <glyph glyph-name="Thorn" unicode="&#xde;" horiz-adv-x="1317" 
d="M461 1400v-220h266c346 0 529 -186 529 -466c0 -276 -183 -461 -526 -461h-269v-253h-334v1400h334zM722 877h-261v-326h261c120 0 194 56 194 163c0 106 -74 163 -194 163z" />
    <glyph glyph-name="germandbls" unicode="&#xdf;" horiz-adv-x="1228" 
d="M104 0v986c0 237 125 480 515 480c331 0 511 -198 511 -421c0 -166 -81 -279 -193 -328c130 -42 233 -172 233 -322c0 -253 -179 -421 -470 -421c-76 0 -140 7 -193 24l28 259c36 -13 75 -19 117 -19c121 0 198 63 198 170c0 121 -87 173 -229 173h-45v261h19
c127 0 216 46 216 170c0 102 -81 169 -199 169c-129 0 -195 -84 -195 -205v-976h-313z" />
    <glyph glyph-name="agrave" unicode="&#xe0;" horiz-adv-x="1208" 
d="M1099 981v-981h-303v106c-59 -77 -149 -132 -282 -132c-262 0 -456 228 -456 518c0 288 194 516 457 516c132 0 222 -56 281 -133v106h303zM589 716c-125 0 -209 -97 -209 -225s84 -225 209 -225c123 0 210 95 210 225s-87 225 -210 225zM523 1105l-278 332h359l212 -332
h-293z" />
    <glyph glyph-name="aacute" unicode="&#xe1;" horiz-adv-x="1208" 
d="M1099 981v-981h-303v106c-59 -77 -149 -132 -282 -132c-262 0 -456 228 -456 518c0 288 194 516 457 516c132 0 222 -56 281 -133v106h303zM589 716c-125 0 -209 -97 -209 -225s84 -225 209 -225c123 0 210 95 210 225s-87 225 -210 225zM709 1105h-293l212 332h359z" />
    <glyph glyph-name="acircumflex" unicode="&#xe2;" horiz-adv-x="1208" 
d="M1099 981v-981h-303v106c-59 -77 -149 -132 -282 -132c-262 0 -456 228 -456 518c0 288 194 516 457 516c132 0 222 -56 281 -133v106h303zM589 716c-125 0 -209 -97 -209 -225s84 -225 209 -225c123 0 210 95 210 225s-87 225 -210 225zM1010 1095h-284l-113 144
l-114 -144h-284l225 332h344z" />
    <glyph glyph-name="atilde" unicode="&#xe3;" horiz-adv-x="1208" 
d="M1099 981v-981h-303v106c-59 -77 -149 -132 -282 -132c-262 0 -456 228 -456 518c0 288 194 516 457 516c132 0 222 -56 281 -133v106h303zM589 716c-125 0 -209 -97 -209 -225s84 -225 209 -225c123 0 210 95 210 225s-87 225 -210 225zM365 1110l-171 165
c79 112 176 152 287 152c142 0 198 -72 254 -72c35 0 72 24 115 69l171 -166c-78 -112 -176 -152 -287 -152c-141 0 -197 72 -254 72c-35 0 -72 -24 -115 -68z" />
    <glyph glyph-name="adieresis" unicode="&#xe4;" horiz-adv-x="1208" 
d="M1099 981v-981h-303v106c-59 -77 -149 -132 -282 -132c-262 0 -456 228 -456 518c0 288 194 516 457 516c132 0 222 -56 281 -133v106h303zM589 716c-125 0 -209 -97 -209 -225s84 -225 209 -225c123 0 210 95 210 225s-87 225 -210 225zM378 1449
c106 0 188 -82 188 -187c0 -106 -82 -187 -188 -187c-105 0 -186 81 -186 187c0 105 81 187 186 187zM842 1449c105 0 187 -82 187 -187c0 -106 -82 -187 -187 -187c-106 0 -187 81 -187 187c0 105 81 187 187 187z" />
    <glyph glyph-name="aring" unicode="&#xe5;" horiz-adv-x="1208" 
d="M1099 981v-981h-303v106c-59 -77 -149 -132 -282 -132c-262 0 -456 228 -456 518c0 288 194 516 457 516c132 0 222 -56 281 -133v106h303zM589 716c-125 0 -209 -97 -209 -225s84 -225 209 -225c123 0 210 95 210 225s-87 225 -210 225zM612 1068
c-151 0 -275 121 -275 272c0 149 124 271 275 271c153 0 277 -122 277 -271c0 -151 -124 -272 -277 -272zM612 1235c56 0 103 45 103 105c0 58 -47 105 -103 105c-54 0 -102 -47 -102 -105c0 -60 48 -105 102 -105z" />
    <glyph glyph-name="ae" unicode="&#xe6;" horiz-adv-x="1732" 
d="M1198 1008c287 0 475 -209 476 -517c0 -32 -3 -76 -6 -97h-666c26 -107 102 -157 210 -157c74 0 153 30 214 86l203 -188c-104 -102 -257 -161 -441 -161c-155 0 -285 47 -375 139c-71 -65 -176 -139 -365 -139c-242 0 -390 120 -390 311c0 190 156 303 430 303h190
c-11 95 -71 147 -187 147c-93 0 -203 -40 -270 -81l-104 244c87 58 250 110 419 110c163 0 266 -56 324 -128c80 87 196 128 338 128zM503 213c86 0 155 39 202 88c-9 29 -16 60 -20 93h-151c-107 0 -157 -38 -157 -90s42 -91 126 -91zM1183 742c-91 0 -159 -43 -182 -157
h362c-24 104 -87 157 -180 157z" />
    <glyph glyph-name="ccedilla" unicode="&#xe7;" horiz-adv-x="1038" 
d="M587 1008c182 0 325 -81 419 -215l-245 -171c-49 63 -105 94 -181 94c-109 0 -202 -84 -202 -225c0 -142 91 -225 200 -225c74 0 136 33 185 95l244 -174c-72 -102 -173 -172 -297 -200l-97 -308h-287l106 314c-227 59 -374 250 -374 498c0 300 216 517 529 517z" />
    <glyph glyph-name="egrave" unicode="&#xe8;" horiz-adv-x="1110" 
d="M561 1008c291 0 490 -210 491 -517c0 -32 -2 -76 -6 -97h-665c26 -107 102 -157 210 -157c73 0 152 30 214 86l202 -188c-102 -102 -251 -161 -432 -161c-308 0 -517 205 -517 511c0 309 205 523 503 523zM562 742c-97 0 -156 -53 -180 -150h357c-25 98 -86 150 -177 150
zM470 1105l-278 332h359l212 -332h-293z" />
    <glyph glyph-name="eacute" unicode="&#xe9;" horiz-adv-x="1110" 
d="M561 1008c291 0 490 -210 491 -517c0 -32 -2 -76 -6 -97h-665c26 -107 102 -157 210 -157c73 0 152 30 214 86l202 -188c-102 -102 -251 -161 -432 -161c-308 0 -517 205 -517 511c0 309 205 523 503 523zM562 742c-97 0 -156 -53 -180 -150h357c-25 98 -86 150 -177 150
zM656 1105h-293l212 332h359z" />
    <glyph glyph-name="ecircumflex" unicode="&#xea;" horiz-adv-x="1110" 
d="M561 1008c291 0 490 -210 491 -517c0 -32 -2 -76 -6 -97h-665c26 -107 102 -157 210 -157c73 0 152 30 214 86l202 -188c-102 -102 -251 -161 -432 -161c-308 0 -517 205 -517 511c0 309 205 523 503 523zM562 742c-97 0 -156 -53 -180 -150h357c-25 98 -86 150 -177 150
zM957 1095h-284l-113 144l-114 -144h-284l225 332h344z" />
    <glyph glyph-name="edieresis" unicode="&#xeb;" horiz-adv-x="1110" 
d="M561 1008c291 0 490 -210 491 -517c0 -32 -2 -76 -6 -97h-665c26 -107 102 -157 210 -157c73 0 152 30 214 86l202 -188c-102 -102 -251 -161 -432 -161c-308 0 -517 205 -517 511c0 309 205 523 503 523zM562 742c-97 0 -156 -53 -180 -150h357c-25 98 -86 150 -177 150
zM325 1449c106 0 188 -82 188 -187c0 -106 -82 -187 -188 -187c-105 0 -186 81 -186 187c0 105 81 187 186 187zM789 1449c105 0 187 -82 187 -187c0 -106 -82 -187 -187 -187c-106 0 -187 81 -187 187c0 105 81 187 187 187z" />
    <glyph glyph-name="igrave" unicode="&#xec;" horiz-adv-x="532" 
d="M423 981v-981h-313v981h313zM175 1105l-278 332h359l212 -332h-293z" />
    <glyph glyph-name="iacute" unicode="&#xed;" horiz-adv-x="532" 
d="M423 981v-981h-313v981h313zM361 1105h-293l212 332h359z" />
    <glyph glyph-name="icircumflex" unicode="&#xee;" horiz-adv-x="532" 
d="M423 981v-981h-313v981h313zM662 1095h-284l-113 144l-114 -144h-284l225 332h344z" />
    <glyph glyph-name="idieresis" unicode="&#xef;" horiz-adv-x="532" 
d="M423 981v-981h-313v981h313zM30 1449c106 0 188 -82 188 -187c0 -106 -82 -187 -188 -187c-105 0 -186 81 -186 187c0 105 81 187 186 187zM494 1449c105 0 187 -82 187 -187c0 -106 -82 -187 -187 -187c-106 0 -187 81 -187 187c0 105 81 187 187 187z" />
    <glyph glyph-name="eth" unicode="&#xf0;" horiz-adv-x="1173" 
d="M843 1448l97 -152l-135 -84c195 -184 310 -446 310 -707c0 -305 -214 -531 -532 -531c-300 0 -525 206 -525 480s201 474 456 474c89 0 163 -24 223 -68c-43 80 -103 148 -177 207l-211 -131l-97 152l144 89c-46 27 -96 52 -147 78l184 203c81 -35 157 -77 225 -124z
M590 664c-122 0 -212 -86 -212 -210c0 -122 90 -209 212 -209c123 0 213 87 213 209c0 124 -90 210 -213 210z" />
    <glyph glyph-name="ntilde" unicode="&#xf1;" horiz-adv-x="1153" 
d="M702 1008c196 0 348 -137 348 -364v-644h-313v533c0 116 -58 181 -155 181c-87 0 -159 -59 -159 -186v-528h-313v981h300v-123c62 103 161 150 292 150zM341 1110l-171 165c79 112 176 152 287 152c142 0 198 -72 254 -72c35 0 72 24 115 69l171 -166
c-78 -112 -176 -152 -287 -152c-141 0 -197 72 -254 72c-35 0 -72 -24 -115 -68z" />
    <glyph glyph-name="ograve" unicode="&#xf2;" horiz-adv-x="1181" 
d="M590 1008c307 0 533 -220 533 -517s-226 -517 -533 -517c-306 0 -532 220 -532 517s226 517 532 517zM590 716c-122 0 -212 -93 -212 -225s90 -225 212 -225c123 0 213 93 213 225s-90 225 -213 225zM500 1105l-278 332h359l212 -332h-293z" />
    <glyph glyph-name="oacute" unicode="&#xf3;" horiz-adv-x="1181" 
d="M590 1008c307 0 533 -220 533 -517s-226 -517 -533 -517c-306 0 -532 220 -532 517s226 517 532 517zM590 716c-122 0 -212 -93 -212 -225s90 -225 212 -225c123 0 213 93 213 225s-90 225 -213 225zM686 1105h-293l212 332h359z" />
    <glyph glyph-name="ocircumflex" unicode="&#xf4;" horiz-adv-x="1181" 
d="M590 1008c307 0 533 -220 533 -517s-226 -517 -533 -517c-306 0 -532 220 -532 517s226 517 532 517zM590 716c-122 0 -212 -93 -212 -225s90 -225 212 -225c123 0 213 93 213 225s-90 225 -213 225zM987 1095h-284l-113 144l-114 -144h-284l225 332h344z" />
    <glyph glyph-name="otilde" unicode="&#xf5;" horiz-adv-x="1181" 
d="M590 1008c307 0 533 -220 533 -517s-226 -517 -533 -517c-306 0 -532 220 -532 517s226 517 532 517zM590 716c-122 0 -212 -93 -212 -225s90 -225 212 -225c123 0 213 93 213 225s-90 225 -213 225zM342 1110l-171 165c79 112 176 152 287 152c142 0 198 -72 254 -72
c35 0 72 24 115 69l171 -166c-78 -112 -176 -152 -287 -152c-141 0 -197 72 -254 72c-35 0 -72 -24 -115 -68z" />
    <glyph glyph-name="odieresis" unicode="&#xf6;" horiz-adv-x="1181" 
d="M590 1008c307 0 533 -220 533 -517s-226 -517 -533 -517c-306 0 -532 220 -532 517s226 517 532 517zM590 716c-122 0 -212 -93 -212 -225s90 -225 212 -225c123 0 213 93 213 225s-90 225 -213 225zM355 1449c106 0 188 -82 188 -187c0 -106 -82 -187 -188 -187
c-105 0 -186 81 -186 187c0 105 81 187 186 187zM819 1449c105 0 187 -82 187 -187c0 -106 -82 -187 -187 -187c-106 0 -187 81 -187 187c0 105 81 187 187 187z" />
    <glyph glyph-name="divide" unicode="&#xf7;" horiz-adv-x="1200" 
d="M1071 681v-257h-942v257h942zM602 1105c98 0 181 -83 181 -182s-83 -184 -181 -184c-100 0 -184 85 -184 184s84 182 184 182zM602 366c98 0 181 -83 181 -181c0 -100 -83 -185 -181 -185c-100 0 -184 85 -184 185c0 98 84 181 184 181z" />
    <glyph glyph-name="oslash" unicode="&#xf8;" horiz-adv-x="1181" 
d="M591 1008c103 0 196 -25 276 -70l99 100l174 -171l-96 -96c50 -80 79 -175 79 -280c0 -297 -226 -517 -532 -517c-103 0 -196 25 -275 68l-98 -98l-175 170l95 95c-51 80 -80 176 -80 282c0 297 226 517 533 517zM591 729c-129 0 -225 -99 -225 -238c0 -24 3 -47 8 -69
l294 293c-24 9 -50 14 -77 14zM816 491c0 23 -3 46 -8 67l-293 -293c23 -8 49 -12 76 -12c128 0 225 99 225 238z" />
    <glyph glyph-name="ugrave" unicode="&#xf9;" horiz-adv-x="1153" 
d="M1050 981v-561c0 -307 -212 -446 -473 -446c-262 0 -474 139 -474 447v560h313v-533c0 -125 67 -182 161 -182c93 0 161 57 161 182v533h312zM487 1105l-278 332h359l212 -332h-293z" />
    <glyph glyph-name="uacute" unicode="&#xfa;" horiz-adv-x="1153" 
d="M1050 981v-561c0 -307 -212 -446 -473 -446c-262 0 -474 139 -474 447v560h313v-533c0 -125 67 -182 161 -182c93 0 161 57 161 182v533h312zM673 1105h-293l212 332h359z" />
    <glyph glyph-name="ucircumflex" unicode="&#xfb;" horiz-adv-x="1153" 
d="M1050 981v-561c0 -307 -212 -446 -473 -446c-262 0 -474 139 -474 447v560h313v-533c0 -125 67 -182 161 -182c93 0 161 57 161 182v533h312zM974 1095h-284l-113 144l-114 -144h-284l225 332h344z" />
    <glyph glyph-name="udieresis" unicode="&#xfc;" horiz-adv-x="1153" 
d="M1050 981v-561c0 -307 -212 -446 -473 -446c-262 0 -474 139 -474 447v560h313v-533c0 -125 67 -182 161 -182c93 0 161 57 161 182v533h312zM342 1449c106 0 188 -82 188 -187c0 -106 -82 -187 -188 -187c-105 0 -186 81 -186 187c0 105 81 187 186 187zM806 1449
c105 0 187 -82 187 -187c0 -106 -82 -187 -187 -187c-106 0 -187 81 -187 187c0 105 81 187 187 187z" />
    <glyph glyph-name="yacute" unicode="&#xfd;" horiz-adv-x="1159" 
d="M1152 981l-724 -1383h-342l336 618l-413 765h359l223 -441l219 441h342zM685 1105h-293l212 332h359z" />
    <glyph glyph-name="thorn" unicode="&#xfe;" horiz-adv-x="1208" 
d="M693 1008c262 0 457 -228 457 -516c0 -290 -195 -518 -457 -518c-125 0 -211 48 -270 117v-491h-313v1840h313v-552c59 71 145 120 270 120zM618 716c-123 0 -209 -95 -209 -225s86 -225 209 -225c126 0 210 97 210 225s-84 225 -210 225z" />
    <glyph glyph-name="ydieresis" unicode="&#xff;" horiz-adv-x="1159" 
d="M1152 981l-724 -1383h-342l336 618l-413 765h359l223 -441l219 441h342zM354 1449c106 0 188 -82 188 -187c0 -106 -82 -187 -188 -187c-105 0 -186 81 -186 187c0 105 81 187 186 187zM818 1449c105 0 187 -82 187 -187c0 -106 -82 -187 -187 -187
c-106 0 -187 81 -187 187c0 105 81 187 187 187z" />
    <glyph glyph-name="Amacron" unicode="&#x100;" horiz-adv-x="1497" 
d="M948 1400l537 -1400h-356l-106 294h-556l-106 -294h-349l537 1400h399zM745 1068l-170 -472h340zM397 1540v250h704v-250h-704z" />
    <glyph glyph-name="amacron" unicode="&#x101;" horiz-adv-x="1208" 
d="M1099 981v-981h-303v106c-59 -77 -149 -132 -282 -132c-262 0 -456 228 -456 518c0 288 194 516 457 516c132 0 222 -56 281 -133v106h303zM589 716c-125 0 -209 -97 -209 -225s84 -225 209 -225c123 0 210 95 210 225s-87 225 -210 225zM261 1136v250h704v-250h-704z
" />
    <glyph glyph-name="Abreve" unicode="&#x102;" horiz-adv-x="1497" 
d="M948 1400l537 -1400h-356l-106 294h-556l-106 -294h-349l537 1400h399zM745 1068l-170 -472h340zM352 1818l231 65c29 -102 84 -154 166 -154s137 52 166 154l231 -65c-51 -210 -193 -331 -397 -331c-203 0 -345 121 -397 331z" />
    <glyph glyph-name="abreve" unicode="&#x103;" horiz-adv-x="1208" 
d="M1099 981v-981h-303v106c-59 -77 -149 -132 -282 -132c-262 0 -456 228 -456 518c0 288 194 516 457 516c132 0 222 -56 281 -133v106h303zM589 716c-125 0 -209 -97 -209 -225s84 -225 209 -225c123 0 210 95 210 225s-87 225 -210 225zM216 1414l231 65
c29 -102 84 -154 166 -154s137 52 166 154l231 -65c-51 -210 -193 -331 -397 -331c-203 0 -345 121 -397 331z" />
    <glyph glyph-name="Aogonek" unicode="&#x104;" horiz-adv-x="1497" 
d="M1345 -153l144 -171c-54 -49 -150 -96 -270 -96c-144 0 -261 75 -261 210c0 97 75 168 167 220l-102 284h-556l-106 -294h-349l537 1400h399l537 -1400h-137c-112 -49 -135 -97 -135 -131c0 -36 25 -52 60 -52c22 0 45 9 72 30zM745 1068l-170 -472h340z" />
    <glyph glyph-name="aogonek" unicode="&#x105;" horiz-adv-x="1208" 
d="M1027 -153l144 -171c-54 -49 -150 -96 -270 -96c-144 0 -261 75 -261 210c0 93 70 161 156 213v103c-59 -77 -149 -132 -282 -132c-262 0 -456 228 -456 518c0 288 194 516 457 516c132 0 222 -56 281 -133v106h303v-981h-69c-112 -49 -135 -97 -135 -131
c0 -36 25 -52 60 -52c22 0 45 9 72 30zM589 716c-125 0 -209 -97 -209 -225s84 -225 209 -225c123 0 210 95 210 225s-87 225 -210 225z" />
    <glyph glyph-name="Cacute" unicode="&#x106;" horiz-adv-x="1488" 
d="M806 1426c267 0 503 -125 622 -337l-293 -168c-73 119 -188 185 -333 185c-221 0 -385 -166 -385 -406c0 -260 179 -406 386 -406c142 0 258 65 338 184l274 -194c-128 -191 -341 -310 -609 -310c-432 0 -737 302 -737 726s305 726 737 726zM884 1509h-293l212 332h359z
" />
    <glyph glyph-name="cacute" unicode="&#x107;" horiz-adv-x="1038" 
d="M587 1008c182 0 325 -81 419 -215l-245 -171c-49 63 -105 94 -181 94c-109 0 -202 -84 -202 -225c0 -142 91 -225 200 -225c74 0 136 33 185 95l244 -174c-94 -133 -238 -213 -420 -213c-313 0 -529 217 -529 517s216 517 529 517zM674 1105h-293l212 332h359z" />
    <glyph glyph-name="Ccircumflex" unicode="&#x108;" horiz-adv-x="1488" 
d="M806 1426c267 0 503 -125 622 -337l-293 -168c-73 119 -188 185 -333 185c-221 0 -385 -166 -385 -406c0 -260 179 -406 386 -406c142 0 258 65 338 184l274 -194c-128 -191 -341 -310 -609 -310c-432 0 -737 302 -737 726s305 726 737 726zM1198 1499h-284l-113 144
l-114 -144h-284l225 332h344z" />
    <glyph glyph-name="ccircumflex" unicode="&#x109;" horiz-adv-x="1038" 
d="M587 1008c182 0 325 -81 419 -215l-245 -171c-49 63 -105 94 -181 94c-109 0 -202 -84 -202 -225c0 -142 91 -225 200 -225c74 0 136 33 185 95l244 -174c-94 -133 -238 -213 -420 -213c-313 0 -529 217 -529 517s216 517 529 517zM975 1095h-284l-113 144l-114 -144
h-284l225 332h344z" />
    <glyph glyph-name="Cdotaccent" unicode="&#x10a;" horiz-adv-x="1488" 
d="M806 1426c267 0 503 -125 622 -337l-293 -168c-73 119 -188 185 -333 185c-221 0 -385 -166 -385 -406c0 -260 179 -406 386 -406c142 0 258 65 338 184l274 -194c-128 -191 -341 -310 -609 -310c-432 0 -737 302 -737 726s305 726 737 726zM776 1872
c111 0 197 -87 197 -198c0 -110 -86 -195 -197 -195s-196 85 -196 195c0 111 85 198 196 198z" />
    <glyph glyph-name="cdotaccent" unicode="&#x10b;" horiz-adv-x="1038" 
d="M587 1008c182 0 325 -81 419 -215l-245 -171c-49 63 -105 94 -181 94c-109 0 -202 -84 -202 -225c0 -142 91 -225 200 -225c74 0 136 33 185 95l244 -174c-94 -133 -238 -213 -420 -213c-313 0 -529 217 -529 517s216 517 529 517zM578 1471c105 0 187 -82 187 -188
c0 -105 -82 -186 -187 -186c-106 0 -187 81 -187 186c0 106 81 188 187 188z" />
    <glyph glyph-name="Ccaron" unicode="&#x10c;" horiz-adv-x="1488" 
d="M806 1426c267 0 503 -125 622 -337l-293 -168c-73 119 -188 185 -333 185c-221 0 -385 -166 -385 -406c0 -260 179 -406 386 -406c142 0 258 65 338 184l274 -194c-128 -191 -341 -310 -609 -310c-432 0 -737 302 -737 726s305 726 737 726zM403 1831h284l114 -144
l113 144h284l-226 -332h-344z" />
    <glyph glyph-name="ccaron" unicode="&#x10d;" horiz-adv-x="1038" 
d="M587 1008c182 0 325 -81 419 -215l-245 -171c-49 63 -105 94 -181 94c-109 0 -202 -84 -202 -225c0 -142 91 -225 200 -225c74 0 136 33 185 95l244 -174c-94 -133 -238 -213 -420 -213c-313 0 -529 217 -529 517s216 517 529 517zM181 1427h284l114 -144l113 144h284
l-226 -332h-344z" />
    <glyph glyph-name="Dcaron" unicode="&#x10e;" horiz-adv-x="1522" 
d="M127 1400h599c438 0 727 -278 727 -700s-289 -700 -727 -700h-599v1400zM719 1091h-258v-782h258c260 0 385 165 385 391c0 229 -125 391 -385 391zM310 1831h284l114 -144l113 144h284l-226 -332h-344z" />
    <glyph glyph-name="dcaron" unicode="&#x10f;" horiz-adv-x="1366" 
d="M515 1008c125 0 212 -50 271 -121v553h312v-1440h-302v106c-59 -77 -149 -132 -282 -132c-262 0 -456 228 -456 518c0 288 194 516 457 516zM589 716c-125 0 -209 -97 -209 -225s84 -225 209 -225c123 0 210 95 210 225s-87 225 -210 225zM1423 973h-238v467h299z" />
    <glyph glyph-name="Dcroat" unicode="&#x110;" horiz-adv-x="1621" 
d="M226 1400h599c438 0 727 -278 727 -700s-289 -700 -727 -700h-599v563h-150v288h150v549zM880 851v-288h-320v-254h258c260 0 385 165 385 391c0 229 -125 391 -385 391h-258v-240h320z" />
    <glyph glyph-name="dcroat" unicode="&#x111;" horiz-adv-x="1205" 
d="M1204 1324v-246h-106v-1078h-302v106c-59 -77 -149 -132 -282 -132c-262 0 -456 228 -456 518c0 288 194 516 457 516c125 0 212 -50 271 -121v191h-333v246h333v116h312v-116h106zM589 716c-125 0 -209 -97 -209 -225s84 -225 209 -225c123 0 210 95 210 225
s-87 225 -210 225z" />
    <glyph glyph-name="Emacron" unicode="&#x112;" horiz-adv-x="1300" 
d="M1199 301v-301h-1072v1400h1068v-301h-734v-242h691v-300h-691v-256h738zM308 1540v250h704v-250h-704z" />
    <glyph glyph-name="emacron" unicode="&#x113;" horiz-adv-x="1110" 
d="M561 1008c291 0 490 -210 491 -517c0 -32 -2 -76 -6 -97h-665c26 -107 102 -157 210 -157c73 0 152 30 214 86l202 -188c-102 -102 -251 -161 -432 -161c-308 0 -517 205 -517 511c0 309 205 523 503 523zM562 742c-97 0 -156 -53 -180 -150h357c-25 98 -86 150 -177 150
zM208 1136v250h704v-250h-704z" />
    <glyph glyph-name="Ebreve" unicode="&#x114;" horiz-adv-x="1300" 
d="M1199 301v-301h-1072v1400h1068v-301h-734v-242h691v-300h-691v-256h738zM263 1818l231 65c29 -102 84 -154 166 -154s137 52 166 154l231 -65c-51 -210 -193 -331 -397 -331c-203 0 -345 121 -397 331z" />
    <glyph glyph-name="ebreve" unicode="&#x115;" horiz-adv-x="1110" 
d="M561 1008c291 0 490 -210 491 -517c0 -32 -2 -76 -6 -97h-665c26 -107 102 -157 210 -157c73 0 152 30 214 86l202 -188c-102 -102 -251 -161 -432 -161c-308 0 -517 205 -517 511c0 309 205 523 503 523zM562 742c-97 0 -156 -53 -180 -150h357c-25 98 -86 150 -177 150
zM163 1414l231 65c29 -102 84 -154 166 -154s137 52 166 154l231 -65c-51 -210 -193 -331 -397 -331c-203 0 -345 121 -397 331z" />
    <glyph glyph-name="Edotaccent" unicode="&#x116;" horiz-adv-x="1300" 
d="M1199 301v-301h-1072v1400h1068v-301h-734v-242h691v-300h-691v-256h738zM636 1872c111 0 197 -87 197 -198c0 -110 -86 -195 -197 -195s-196 85 -196 195c0 111 85 198 196 198z" />
    <glyph glyph-name="edotaccent" unicode="&#x117;" horiz-adv-x="1110" 
d="M561 1008c291 0 490 -210 491 -517c0 -32 -2 -76 -6 -97h-665c26 -107 102 -157 210 -157c73 0 152 30 214 86l202 -188c-102 -102 -251 -161 -432 -161c-308 0 -517 205 -517 511c0 309 205 523 503 523zM562 742c-97 0 -156 -53 -180 -150h357c-25 98 -86 150 -177 150
zM560 1471c105 0 187 -82 187 -188c0 -105 -82 -186 -187 -186c-106 0 -187 81 -187 186c0 106 81 188 187 188z" />
    <glyph glyph-name="Eogonek" unicode="&#x118;" horiz-adv-x="1300" 
d="M1199 301v-301h-179c-94 -51 -111 -93 -111 -127s25 -56 67 -56c35 0 66 14 94 39l162 -160c-76 -72 -176 -116 -299 -116c-175 0 -302 84 -302 218c0 90 48 153 122 202h-626v1400h1068v-301h-734v-242h691v-300h-691v-256h738z" />
    <glyph glyph-name="eogonek" unicode="&#x119;" horiz-adv-x="1110" 
d="M839 -144l162 -160c-76 -72 -176 -116 -299 -116c-175 0 -302 84 -302 218c0 78 35 135 93 181c-263 33 -435 228 -435 506c0 309 205 523 503 523c291 0 490 -210 491 -517c0 -32 -2 -76 -6 -97h-665c26 -107 102 -157 210 -157c73 0 152 30 214 86l202 -188
c-51 -51 -111 -87 -182 -118c-123 -53 -147 -107 -147 -144c0 -34 25 -56 67 -56c35 0 66 14 94 39zM562 742c-97 0 -156 -53 -180 -150h357c-25 98 -86 150 -177 150z" />
    <glyph glyph-name="Ecaron" unicode="&#x11a;" horiz-adv-x="1300" 
d="M1199 301v-301h-1072v1400h1068v-301h-734v-242h691v-300h-691v-256h738zM263 1831h284l114 -144l113 144h284l-226 -332h-344z" />
    <glyph glyph-name="ecaron" unicode="&#x11b;" horiz-adv-x="1110" 
d="M561 1008c291 0 490 -210 491 -517c0 -32 -2 -76 -6 -97h-665c26 -107 102 -157 210 -157c73 0 152 30 214 86l202 -188c-102 -102 -251 -161 -432 -161c-308 0 -517 205 -517 511c0 309 205 523 503 523zM562 742c-97 0 -156 -53 -180 -150h357c-25 98 -86 150 -177 150
zM163 1427h284l114 -144l113 144h284l-226 -332h-344z" />
    <glyph glyph-name="Gcircumflex" unicode="&#x11c;" horiz-adv-x="1560" 
d="M814 1426c222 0 399 -76 521 -203l-238 -234c-70 75 -169 123 -299 123c-224 0 -385 -168 -385 -412c0 -269 178 -420 386 -420c199 0 315 88 354 253h-341v258h672c5 -37 7 -71 7 -105c0 -448 -320 -711 -680 -711c-417 0 -742 288 -742 725c0 425 309 726 745 726z
M1186 1499h-284l-113 144l-114 -144h-284l225 332h344z" />
    <glyph glyph-name="gcircumflex" unicode="&#x11d;" horiz-adv-x="1199" 
d="M513 1008c129 0 216 -53 274 -129v102h303v-887c0 -322 -211 -514 -532 -514c-164 0 -331 42 -448 125l111 249c96 -68 199 -100 315 -100c127 0 247 70 247 226v61c-58 -74 -144 -124 -270 -124c-263 0 -455 217 -455 495s192 496 455 496zM587 722
c-122 0 -206 -90 -206 -210c0 -119 84 -210 206 -210c118 0 200 89 200 210s-82 210 -200 210zM989 1095h-284l-113 144l-114 -144h-284l225 332h344z" />
    <glyph glyph-name="Gbreve" unicode="&#x11e;" horiz-adv-x="1560" 
d="M814 1426c222 0 399 -76 521 -203l-238 -234c-70 75 -169 123 -299 123c-224 0 -385 -168 -385 -412c0 -269 178 -420 386 -420c199 0 315 88 354 253h-341v258h672c5 -37 7 -71 7 -105c0 -448 -320 -711 -680 -711c-417 0 -742 288 -742 725c0 425 309 726 745 726z
M391 1818l231 65c29 -102 84 -154 166 -154s137 52 166 154l231 -65c-51 -210 -193 -331 -397 -331c-203 0 -345 121 -397 331z" />
    <glyph glyph-name="gbreve" unicode="&#x11f;" horiz-adv-x="1199" 
d="M513 1008c129 0 216 -53 274 -129v102h303v-887c0 -322 -211 -514 -532 -514c-164 0 -331 42 -448 125l111 249c96 -68 199 -100 315 -100c127 0 247 70 247 226v61c-58 -74 -144 -124 -270 -124c-263 0 -455 217 -455 495s192 496 455 496zM587 722
c-122 0 -206 -90 -206 -210c0 -119 84 -210 206 -210c118 0 200 89 200 210s-82 210 -200 210zM195 1414l231 65c29 -102 84 -154 166 -154s137 52 166 154l231 -65c-51 -210 -193 -331 -397 -331c-203 0 -345 121 -397 331z" />
    <glyph glyph-name="Gdotaccent" unicode="&#x120;" horiz-adv-x="1560" 
d="M814 1426c222 0 399 -76 521 -203l-238 -234c-70 75 -169 123 -299 123c-224 0 -385 -168 -385 -412c0 -269 178 -420 386 -420c199 0 315 88 354 253h-341v258h672c5 -37 7 -71 7 -105c0 -448 -320 -711 -680 -711c-417 0 -742 288 -742 725c0 425 309 726 745 726z
M764 1872c111 0 197 -87 197 -198c0 -110 -86 -195 -197 -195s-196 85 -196 195c0 111 85 198 196 198z" />
    <glyph glyph-name="gdotaccent" unicode="&#x121;" horiz-adv-x="1199" 
d="M513 1008c129 0 216 -53 274 -129v102h303v-887c0 -322 -211 -514 -532 -514c-164 0 -331 42 -448 125l111 249c96 -68 199 -100 315 -100c127 0 247 70 247 226v61c-58 -74 -144 -124 -270 -124c-263 0 -455 217 -455 495s192 496 455 496zM587 722
c-122 0 -206 -90 -206 -210c0 -119 84 -210 206 -210c118 0 200 89 200 210s-82 210 -200 210zM592 1471c105 0 187 -82 187 -188c0 -105 -82 -186 -187 -186c-106 0 -187 81 -187 186c0 106 81 188 187 188z" />
    <glyph glyph-name="Gcommaaccent" unicode="&#x122;" horiz-adv-x="1560" 
d="M814 1426c222 0 399 -76 521 -203l-238 -234c-70 75 -169 123 -299 123c-224 0 -385 -168 -385 -412c0 -269 178 -420 386 -420c199 0 315 88 354 253h-341v258h672c5 -37 7 -71 7 -105c0 -448 -320 -711 -680 -711c-417 0 -742 288 -742 725c0 425 309 726 745 726z
M646 -80h301l-102 -412h-248z" />
    <glyph glyph-name="gcommaaccent" unicode="&#x123;" horiz-adv-x="1199" 
d="M513 1008c129 0 216 -53 274 -129v102h303v-887c0 -322 -211 -514 -532 -514c-164 0 -331 42 -448 125l111 249c96 -68 199 -100 315 -100c127 0 247 70 247 226v61c-58 -74 -144 -124 -270 -124c-263 0 -455 217 -455 495s192 496 455 496zM587 722
c-122 0 -206 -90 -206 -210c0 -119 84 -210 206 -210c118 0 200 89 200 210s-82 210 -200 210zM743 1105h-301l102 412h248z" />
    <glyph glyph-name="Hcircumflex" unicode="&#x124;" horiz-adv-x="1511" 
d="M461 1400v-539h589v539h334v-1400h-334v552h-589v-552h-334v1400h334zM1153 1499h-284l-113 144l-114 -144h-284l225 332h344z" />
    <glyph glyph-name="hcircumflex" unicode="&#x125;" horiz-adv-x="1153" 
d="M423 1441v-563c62 89 157 130 279 130c196 0 348 -137 348 -364v-644h-313v533c0 116 -58 181 -155 181c-87 0 -159 -59 -159 -186v-528h-313v1441h313zM976 1514h-284l-113 144l-114 -144h-284l225 332h344z" />
    <glyph glyph-name="Hbar" unicode="&#x126;" horiz-adv-x="1619" 
d="M1581 1241v-246h-143v-995h-334v552h-589v-552h-334v995h-143v246h143v159h334v-159h589v159h334v-159h143zM515 861h589v134h-589v-134z" />
    <glyph glyph-name="hbar" unicode="&#x127;" horiz-adv-x="1153" 
d="M750 1324v-246h-327v-200c62 89 157 130 279 130c196 0 348 -137 348 -364v-644h-313v533c0 116 -58 181 -155 181c-87 0 -159 -59 -159 -186v-528h-313v1078h-111v246h111v117h313v-117h327z" />
    <glyph glyph-name="Itilde" unicode="&#x128;" horiz-adv-x="588" 
d="M461 1400v-1400h-334v1400h334zM51 1514l-171 165c79 112 176 152 287 152c142 0 198 -72 254 -72c35 0 72 24 115 69l171 -166c-78 -112 -176 -152 -287 -152c-141 0 -197 72 -254 72c-35 0 -72 -24 -115 -68z" />
    <glyph glyph-name="itilde" unicode="&#x129;" horiz-adv-x="532" 
d="M423 981v-981h-313v981h313zM17 1110l-171 165c79 112 176 152 287 152c142 0 198 -72 254 -72c35 0 72 24 115 69l171 -166c-78 -112 -176 -152 -287 -152c-141 0 -197 72 -254 72c-35 0 -72 -24 -115 -68z" />
    <glyph glyph-name="Imacron" unicode="&#x12a;" horiz-adv-x="588" 
d="M461 1400v-1400h-334v1400h334zM-58 1540v250h704v-250h-704z" />
    <glyph glyph-name="imacron" unicode="&#x12b;" horiz-adv-x="532" 
d="M423 981v-981h-313v981h313zM-87 1136v250h704v-250h-704z" />
    <glyph glyph-name="Ibreve" unicode="&#x12c;" horiz-adv-x="588" 
d="M461 1400v-1400h-334v1400h334zM-103 1818l231 65c29 -102 84 -154 166 -154s137 52 166 154l231 -65c-51 -210 -193 -331 -397 -331c-203 0 -345 121 -397 331z" />
    <glyph glyph-name="ibreve" unicode="&#x12d;" horiz-adv-x="532" 
d="M423 981v-981h-313v981h313zM-132 1414l231 65c29 -102 84 -154 166 -154s137 52 166 154l231 -65c-51 -210 -193 -331 -397 -331c-203 0 -345 121 -397 331z" />
    <glyph glyph-name="Iogonek" unicode="&#x12e;" horiz-adv-x="588" 
d="M425 -153l144 -171c-54 -49 -151 -96 -270 -96c-144 0 -261 73 -261 203c0 94 61 164 137 217h-48v1400h334v-1400h-62c-90 -49 -106 -97 -106 -131c0 -36 25 -52 59 -52c23 0 46 9 73 30z" />
    <glyph glyph-name="iogonek" unicode="&#x12f;" horiz-adv-x="532" 
d="M423 981v-981h-54c-90 -49 -106 -97 -106 -131c0 -36 25 -52 59 -52c23 0 46 9 73 30l144 -171c-54 -49 -151 -96 -270 -96c-144 0 -261 73 -261 203c0 94 61 164 137 217h-35v981h313zM265 1471c105 0 187 -82 187 -188c0 -105 -82 -186 -187 -186
c-106 0 -187 81 -187 186c0 106 81 188 187 188z" />
    <glyph glyph-name="Idotaccent" unicode="&#x130;" horiz-adv-x="588" 
d="M461 1400v-1400h-334v1400h334zM270 1872c111 0 197 -87 197 -198c0 -110 -86 -195 -197 -195s-196 85 -196 195c0 111 85 198 196 198z" />
    <glyph glyph-name="dotlessi" unicode="&#x131;" horiz-adv-x="532" 
d="M423 981v-981h-313v981h313z" />
    <glyph glyph-name="IJ" unicode="&#x132;" horiz-adv-x="1696" 
d="M461 1400v-1400h-334v1400h334zM1576 1400v-874c0 -368 -210 -552 -517 -552c-218 0 -366 87 -446 174l174 253c54 -56 133 -106 247 -106c130 0 208 75 208 260v845h334z" />
    <glyph glyph-name="ij" unicode="&#x133;" horiz-adv-x="1066" 
d="M956 981v-1046c0 -228 -127 -359 -321 -359c-46 0 -114 10 -150 24l30 277c19 -6 39 -10 63 -10c38 0 66 23 66 88v1026h312zM798 1471c105 0 187 -82 187 -188c0 -105 -82 -186 -187 -186c-106 0 -187 81 -187 186c0 106 81 188 187 188zM423 981v-981h-313v981h313z
M265 1471c105 0 187 -82 187 -188c0 -105 -82 -186 -187 -186c-106 0 -187 81 -187 186c0 106 81 188 187 188z" />
    <glyph glyph-name="Jcircumflex" unicode="&#x134;" horiz-adv-x="1108" 
d="M988 1400v-874c0 -368 -210 -552 -517 -552c-218 0 -366 87 -446 174l174 253c54 -56 133 -106 247 -106c130 0 208 75 208 260v845h334zM1219 1499h-284l-113 144l-114 -144h-284l225 332h344z" />
    <glyph glyph-name="jcircumflex" unicode="&#x135;" horiz-adv-x="533" 
d="M424 981v-1046c0 -228 -127 -359 -321 -359c-46 0 -114 10 -150 24l30 277c19 -6 39 -10 63 -10c38 0 66 23 66 88v1026h312zM663 1095h-284l-113 144l-114 -144h-284l225 332h344z" />
    <glyph glyph-name="Kcommaaccent" unicode="&#x136;" horiz-adv-x="1423" 
d="M1020 0l-441 554h-118v-554h-334v1400h334v-545h121l402 545h411l-543 -683l588 -717h-420zM576 -80h301l-102 -412h-248z" />
    <glyph glyph-name="kcommaaccent" unicode="&#x137;" horiz-adv-x="1105" 
d="M423 1440v-784h75l232 325h379l-363 -463l364 -518h-378l-242 379h-67v-379h-313v1440h313zM443 -80h301l-102 -412h-248z" />
    <glyph glyph-name="kgreenlandic" unicode="&#x138;" horiz-adv-x="1118" 
d="M423 981v-325h79l242 325h377l-367 -463l369 -518h-377l-252 379h-71v-379h-313v981h313z" />
    <glyph glyph-name="Lacute" unicode="&#x139;" horiz-adv-x="1190" 
d="M1165 310v-310h-1038v1400h334v-1090h704zM378 1509h-293l212 332h359z" />
    <glyph glyph-name="lacute" unicode="&#x13a;" horiz-adv-x="532" 
d="M423 1440v-1440h-313v1440h313zM334 1529h-293l212 332h359z" />
    <glyph glyph-name="Lcommaaccent" unicode="&#x13b;" horiz-adv-x="1190" 
d="M1165 310v-310h-1038v1400h334v-1090h704zM510 -80h301l-102 -412h-248z" />
    <glyph glyph-name="lcommaaccent" unicode="&#x13c;" horiz-adv-x="532" 
d="M423 1440v-1440h-313v1440h313zM137 -80h301l-102 -412h-248z" />
    <glyph glyph-name="Lcaron" unicode="&#x13d;" horiz-adv-x="1190" 
d="M1165 310v-310h-1038v1400h334v-1090h704zM842 933h-238v467h299z" />
    <glyph glyph-name="lcaron" unicode="&#x13e;" horiz-adv-x="679" 
d="M423 1440v-1440h-313v1440h313zM736 973h-238v467h299z" />
    <glyph glyph-name="Ldot" unicode="&#x13f;" horiz-adv-x="1190" 
d="M1165 310v-310h-1038v1400h334v-1090h704zM855 921c111 0 197 -87 197 -198c0 -110 -86 -195 -197 -195s-196 85 -196 195c0 111 85 198 196 198z" />
    <glyph glyph-name="ldot" unicode="&#x140;" horiz-adv-x="786" 
d="M423 1440v-1440h-313v1440h313zM696 904c97 0 173 -76 173 -174s-76 -173 -173 -173c-99 0 -174 75 -174 173s75 174 174 174z" />
    <glyph glyph-name="Lslash" unicode="&#x141;" horiz-adv-x="1289" 
d="M1264 310v-310h-1038v393l-150 -83v322l150 83v685h334v-498l412 230v-322l-412 -230v-270h704z" />
    <glyph glyph-name="lslash" unicode="&#x142;" horiz-adv-x="745" 
d="M529 1440v-453l183 108v-307l-183 -108v-680h-313v496l-183 -108v307l183 108v637h313z" />
    <glyph glyph-name="Nacute" unicode="&#x143;" horiz-adv-x="1547" 
d="M1420 1400v-1400h-321l-638 854v-854h-334v1400h320l638 -854v854h335zM869 1509h-293l212 332h359z" />
    <glyph glyph-name="nacute" unicode="&#x144;" horiz-adv-x="1153" 
d="M702 1008c196 0 348 -137 348 -364v-644h-313v533c0 116 -58 181 -155 181c-87 0 -159 -59 -159 -186v-528h-313v981h300v-123c62 103 161 150 292 150zM685 1105h-293l212 332h359z" />
    <glyph glyph-name="Ncommaaccent" unicode="&#x145;" horiz-adv-x="1547" 
d="M1420 1400v-1400h-321l-638 854v-854h-334v1400h320l638 -854v854h335zM647 -80h301l-102 -412h-248z" />
    <glyph glyph-name="ncommaaccent" unicode="&#x146;" horiz-adv-x="1153" 
d="M702 1008c196 0 348 -137 348 -364v-644h-313v533c0 116 -58 181 -155 181c-87 0 -159 -59 -159 -186v-528h-313v981h300v-123c62 103 161 150 292 150zM451 -80h301l-102 -412h-248z" />
    <glyph glyph-name="Ncaron" unicode="&#x147;" horiz-adv-x="1547" 
d="M1420 1400v-1400h-321l-638 854v-854h-334v1400h320l638 -854v854h335zM388 1831h284l114 -144l113 144h284l-226 -332h-344z" />
    <glyph glyph-name="ncaron" unicode="&#x148;" horiz-adv-x="1153" 
d="M702 1008c196 0 348 -137 348 -364v-644h-313v533c0 116 -58 181 -155 181c-87 0 -159 -59 -159 -186v-528h-313v981h300v-123c62 103 161 150 292 150zM192 1427h284l114 -144l113 144h284l-226 -332h-344z" />
    <glyph glyph-name="napostrophe" unicode="&#x149;" horiz-adv-x="1500" 
d="M147 1440h342l-160 -650h-261zM1049 1008c196 0 348 -137 348 -364v-644h-313v533c0 116 -58 181 -155 181c-87 0 -159 -59 -159 -186v-528h-313v981h300v-123c62 103 161 150 292 150z" />
    <glyph glyph-name="Eng" unicode="&#x14a;" horiz-adv-x="1547" 
d="M1420 1400v-1403c0 -272 -154 -421 -398 -421c-149 0 -251 36 -326 84l118 277c49 -30 102 -50 155 -50c78 0 117 50 118 129l-626 838v-854h-334v1400h320l638 -854v854h335z" />
    <glyph glyph-name="eng" unicode="&#x14b;" horiz-adv-x="1153" 
d="M702 1008c196 0 348 -137 348 -364v-653c0 -228 -127 -359 -322 -359c-41 0 -102 8 -134 20l14 281c19 -6 40 -10 64 -10c35 0 65 21 65 77v533c0 116 -58 181 -155 181c-87 0 -159 -59 -159 -186v-528h-313v981h300v-123c62 103 161 150 292 150z" />
    <glyph glyph-name="Omacron" unicode="&#x14c;" horiz-adv-x="1614" 
d="M807 1426c432 0 738 -308 738 -726s-306 -726 -738 -726s-738 308 -738 726s306 726 738 726zM807 1106c-228 0 -390 -166 -390 -406s162 -406 390 -406s390 166 390 406s-162 406 -390 406zM455 1540v250h704v-250h-704z" />
    <glyph glyph-name="omacron" unicode="&#x14d;" horiz-adv-x="1181" 
d="M590 1008c307 0 533 -220 533 -517s-226 -517 -533 -517c-306 0 -532 220 -532 517s226 517 532 517zM590 716c-122 0 -212 -93 -212 -225s90 -225 212 -225c123 0 213 93 213 225s-90 225 -213 225zM238 1136v250h704v-250h-704z" />
    <glyph glyph-name="Obreve" unicode="&#x14e;" horiz-adv-x="1614" 
d="M807 1426c432 0 738 -308 738 -726s-306 -726 -738 -726s-738 308 -738 726s306 726 738 726zM807 1106c-228 0 -390 -166 -390 -406s162 -406 390 -406s390 166 390 406s-162 406 -390 406zM410 1818l231 65c29 -102 84 -154 166 -154s137 52 166 154l231 -65
c-51 -210 -193 -331 -397 -331c-203 0 -345 121 -397 331z" />
    <glyph glyph-name="obreve" unicode="&#x14f;" horiz-adv-x="1181" 
d="M590 1008c307 0 533 -220 533 -517s-226 -517 -533 -517c-306 0 -532 220 -532 517s226 517 532 517zM590 716c-122 0 -212 -93 -212 -225s90 -225 212 -225c123 0 213 93 213 225s-90 225 -213 225zM193 1414l231 65c29 -102 84 -154 166 -154s137 52 166 154l231 -65
c-51 -210 -193 -331 -397 -331c-203 0 -345 121 -397 331z" />
    <glyph glyph-name="Ohungarumlaut" unicode="&#x150;" horiz-adv-x="1614" 
d="M807 1426c432 0 738 -308 738 -726s-306 -726 -738 -726s-738 308 -738 726s306 726 738 726zM807 1106c-228 0 -390 -166 -390 -406s162 -406 390 -406s390 166 390 406s-162 406 -390 406zM1154 1509h-300l235 332h324zM740 1509h-291l208 332h319z" />
    <glyph glyph-name="ohungarumlaut" unicode="&#x151;" horiz-adv-x="1181" 
d="M590 1008c307 0 533 -220 533 -517s-226 -517 -533 -517c-306 0 -532 220 -532 517s226 517 532 517zM590 716c-122 0 -212 -93 -212 -225s90 -225 212 -225c123 0 213 93 213 225s-90 225 -213 225zM940 1105h-300l235 332h324zM526 1105h-291l208 332h319z" />
    <glyph glyph-name="OE" unicode="&#x152;" horiz-adv-x="2183" 
d="M2082 301v-301h-1287c-438 0 -726 278 -726 700s288 700 726 700h1283v-301h-734v-242h691v-300h-691v-256h738zM417 700c0 -229 126 -391 385 -391h208v782h-208c-259 0 -385 -165 -385 -391z" />
    <glyph glyph-name="oe" unicode="&#x153;" horiz-adv-x="1856" 
d="M1307 1008c290 0 490 -209 491 -517c0 -32 -3 -76 -6 -97h-666c26 -107 102 -157 210 -157c74 0 153 30 214 86l202 -188c-103 -102 -256 -161 -440 -161c-149 0 -273 55 -358 150c-90 -94 -218 -150 -364 -150c-306 0 -532 220 -532 517s226 517 532 517
c147 0 275 -57 365 -151c84 95 207 151 352 151zM590 716c-122 0 -212 -93 -212 -225s90 -225 212 -225c123 0 213 93 213 225s-90 225 -213 225zM1307 742c-96 0 -156 -53 -180 -150h358c-26 98 -87 150 -178 150z" />
    <glyph glyph-name="Racute" unicode="&#x154;" horiz-adv-x="1347" 
d="M127 1400h609c346 0 530 -172 530 -448c0 -222 -140 -378 -391 -418l402 -534h-398l-369 524h-49v-524h-334v1400zM732 1097h-271v-292h271c120 0 194 47 194 147c0 99 -76 145 -194 145zM736 1509h-293l212 332h359z" />
    <glyph glyph-name="racute" unicode="&#x155;" horiz-adv-x="821" 
d="M678 1008c46 0 86 -8 110 -15l-29 -312c-42 14 -101 26 -157 26c-111 0 -179 -55 -179 -177v-530h-313v981h300v-113c57 95 148 140 268 140zM544 1105h-293l212 332h359z" />
    <glyph glyph-name="Rcommaaccent" unicode="&#x156;" horiz-adv-x="1347" 
d="M127 1400h609c346 0 530 -172 530 -448c0 -222 -140 -378 -391 -418l402 -534h-398l-369 524h-49v-524h-334v1400zM732 1097h-271v-292h271c120 0 194 47 194 147c0 99 -76 145 -194 145zM524 -80h301l-102 -412h-248z" />
    <glyph glyph-name="rcommaaccent" unicode="&#x157;" horiz-adv-x="821" 
d="M678 1008c46 0 86 -8 110 -15l-29 -312c-42 14 -101 26 -157 26c-111 0 -179 -55 -179 -177v-530h-313v981h300v-113c57 95 148 140 268 140zM135 -80h301l-102 -412h-248z" />
    <glyph glyph-name="Rcaron" unicode="&#x158;" horiz-adv-x="1347" 
d="M127 1400h609c346 0 530 -172 530 -448c0 -222 -140 -378 -391 -418l402 -534h-398l-369 524h-49v-524h-334v1400zM732 1097h-271v-292h271c120 0 194 47 194 147c0 99 -76 145 -194 145zM255 1831h284l114 -144l113 144h284l-226 -332h-344z" />
    <glyph glyph-name="rcaron" unicode="&#x159;" horiz-adv-x="821" 
d="M678 1008c46 0 86 -8 110 -15l-29 -312c-42 14 -101 26 -157 26c-111 0 -179 -55 -179 -177v-530h-313v981h300v-113c57 95 148 140 268 140zM51 1427h284l114 -144l113 144h284l-226 -332h-344z" />
    <glyph glyph-name="Sacute" unicode="&#x15a;" horiz-adv-x="1355" 
d="M1260 1277l-149 -274c-100 60 -237 118 -401 118c-127 0 -220 -43 -220 -126c0 -88 133 -109 288 -136l58 -10c272 -47 443 -174 443 -403c0 -333 -287 -472 -587 -472c-233 0 -461 61 -616 178l167 272c107 -73 255 -147 452 -147c126 0 222 43 222 130
c0 84 -94 108 -277 136l-70 11c-288 45 -444 175 -439 427c5 272 237 444 564 444c189 0 353 -31 565 -148zM800 1509h-293l212 332h359z" />
    <glyph glyph-name="sacute" unicode="&#x15b;" horiz-adv-x="1017" 
d="M935 923l-87 -244c-97 41 -223 75 -323 76c-82 0 -114 -24 -114 -60c0 -42 62 -52 158 -67l72 -11c210 -32 321 -133 321 -298c0 -215 -168 -344 -454 -344c-168 0 -341 30 -453 103l109 242c98 -58 210 -92 346 -92c97 0 137 22 137 64c0 38 -44 53 -155 70l-57 8
c-236 35 -346 133 -346 309c0 209 157 328 424 328c159 0 261 -22 422 -84zM626 1105h-293l212 332h359z" />
    <glyph glyph-name="Scircumflex" unicode="&#x15c;" horiz-adv-x="1355" 
d="M1260 1277l-149 -274c-100 60 -237 118 -401 118c-127 0 -220 -43 -220 -126c0 -88 133 -109 288 -136l58 -10c272 -47 443 -174 443 -403c0 -333 -287 -472 -587 -472c-233 0 -461 61 -616 178l167 272c107 -73 255 -147 452 -147c126 0 222 43 222 130
c0 84 -94 108 -277 136l-70 11c-288 45 -444 175 -439 427c5 272 237 444 564 444c189 0 353 -31 565 -148zM1114 1499h-284l-113 144l-114 -144h-284l225 332h344z" />
    <glyph glyph-name="scircumflex" unicode="&#x15d;" horiz-adv-x="1017" 
d="M935 923l-87 -244c-97 41 -223 75 -323 76c-82 0 -114 -24 -114 -60c0 -42 62 -52 158 -67l72 -11c210 -32 321 -133 321 -298c0 -215 -168 -344 -454 -344c-168 0 -341 30 -453 103l109 242c98 -58 210 -92 346 -92c97 0 137 22 137 64c0 38 -44 53 -155 70l-57 8
c-236 35 -346 133 -346 309c0 209 157 328 424 328c159 0 261 -22 422 -84zM927 1095h-284l-113 144l-114 -144h-284l225 332h344z" />
    <glyph glyph-name="Scedilla" unicode="&#x15e;" horiz-adv-x="1355" 
d="M1260 1277l-149 -274c-100 60 -237 118 -401 118c-127 0 -220 -43 -220 -126c0 -88 133 -109 288 -136l58 -10c272 -47 443 -174 443 -403c0 -273 -192 -415 -426 -458l-97 -309h-307l103 303c-182 19 -352 76 -476 170l167 272c107 -73 255 -147 452 -147
c126 0 222 43 222 130c0 84 -94 108 -277 136l-70 11c-288 45 -444 175 -439 427c5 272 237 444 564 444c189 0 353 -31 565 -148z" />
    <glyph glyph-name="scedilla" unicode="&#x15f;" horiz-adv-x="1017" 
d="M935 923l-87 -244c-97 41 -223 75 -323 76c-82 0 -114 -24 -114 -60c0 -42 62 -52 158 -67l72 -11c210 -32 321 -133 321 -298c0 -172 -108 -289 -298 -329l-97 -311h-287l102 302c-125 12 -243 42 -327 97l109 242c98 -58 210 -92 346 -92c97 0 137 22 137 64
c0 38 -44 53 -155 70l-57 8c-236 35 -346 133 -346 309c0 209 157 328 424 328c159 0 261 -22 422 -84z" />
    <glyph glyph-name="Scaron" unicode="&#x160;" horiz-adv-x="1355" 
d="M1260 1277l-149 -274c-100 60 -237 118 -401 118c-127 0 -220 -43 -220 -126c0 -88 133 -109 288 -136l58 -10c272 -47 443 -174 443 -403c0 -333 -287 -472 -587 -472c-233 0 -461 61 -616 178l167 272c107 -73 255 -147 452 -147c126 0 222 43 222 130
c0 84 -94 108 -277 136l-70 11c-288 45 -444 175 -439 427c5 272 237 444 564 444c189 0 353 -31 565 -148zM319 1831h284l114 -144l113 144h284l-226 -332h-344z" />
    <glyph glyph-name="scaron" unicode="&#x161;" horiz-adv-x="1017" 
d="M935 923l-87 -244c-97 41 -223 75 -323 76c-82 0 -114 -24 -114 -60c0 -42 62 -52 158 -67l72 -11c210 -32 321 -133 321 -298c0 -215 -168 -344 -454 -344c-168 0 -341 30 -453 103l109 242c98 -58 210 -92 346 -92c97 0 137 22 137 64c0 38 -44 53 -155 70l-57 8
c-236 35 -346 133 -346 309c0 209 157 328 424 328c159 0 261 -22 422 -84zM133 1427h284l114 -144l113 144h284l-226 -332h-344z" />
    <glyph glyph-name="Tcommaaccent" unicode="&#x162;" horiz-adv-x="1213" 
d="M1188 1400v-310h-414v-1090h-15l-101 -321h-307l109 321h-20v1090h-415v310h1163z" />
    <glyph glyph-name="tcommaaccent" unicode="&#x163;" horiz-adv-x="959" 
d="M864 981v-277h-335v-287c0 -113 60 -151 139 -151c58 0 121 32 170 61l108 -244c-71 -50 -146 -87 -248 -102l-95 -302h-287l109 324c-143 56 -209 190 -209 374v327h-183v277h183v286h313v-286h335z" />
    <glyph glyph-name="Tcaron" unicode="&#x164;" horiz-adv-x="1213" 
d="M1188 1400v-310h-414v-1090h-334v1090h-415v310h1163zM220 1831h284l114 -144l113 144h284l-226 -332h-344z" />
    <glyph glyph-name="tcaron" unicode="&#x165;" horiz-adv-x="959" 
d="M864 981v-277h-335v-287c0 -113 60 -151 139 -151c58 0 121 32 170 61l108 -244c-92 -64 -190 -109 -348 -109c-263 0 -382 157 -382 403v327h-183v277h183v286h313v-286h335zM827 1043h-238v467h299z" />
    <glyph glyph-name="Tbar" unicode="&#x166;" horiz-adv-x="1213" 
d="M1009 851v-288h-235v-563h-334v563h-235v288h235v239h-415v310h1163v-310h-414v-239h235z" />
    <glyph glyph-name="tbar" unicode="&#x167;" horiz-adv-x="959" 
d="M864 981v-277h-335v-90h225v-218h-224c7 -97 64 -130 138 -130c58 0 121 32 170 61l108 -244c-92 -64 -190 -109 -348 -109c-263 0 -382 157 -382 403v19h-167v218h167v90h-183v277h183v286h313v-286h335z" />
    <glyph glyph-name="Utilde" unicode="&#x168;" horiz-adv-x="1453" 
d="M1339 1400v-835c0 -383 -232 -591 -613 -591s-612 208 -612 591v835h335v-822c0 -192 110 -283 277 -283c168 0 278 91 278 283v822h335zM483 1514l-171 165c79 112 176 152 287 152c142 0 198 -72 254 -72c35 0 72 24 115 69l171 -166c-78 -112 -176 -152 -287 -152
c-141 0 -197 72 -254 72c-35 0 -72 -24 -115 -68z" />
    <glyph glyph-name="utilde" unicode="&#x169;" horiz-adv-x="1153" 
d="M1050 981v-561c0 -307 -212 -446 -473 -446c-262 0 -474 139 -474 447v560h313v-533c0 -125 67 -182 161 -182c93 0 161 57 161 182v533h312zM329 1110l-171 165c79 112 176 152 287 152c142 0 198 -72 254 -72c35 0 72 24 115 69l171 -166c-78 -112 -176 -152 -287 -152
c-141 0 -197 72 -254 72c-35 0 -72 -24 -115 -68z" />
    <glyph glyph-name="Umacron" unicode="&#x16a;" horiz-adv-x="1453" 
d="M1339 1400v-835c0 -383 -232 -591 -613 -591s-612 208 -612 591v835h335v-822c0 -192 110 -283 277 -283c168 0 278 91 278 283v822h335zM374 1540v250h704v-250h-704z" />
    <glyph glyph-name="umacron" unicode="&#x16b;" horiz-adv-x="1153" 
d="M1050 981v-561c0 -307 -212 -446 -473 -446c-262 0 -474 139 -474 447v560h313v-533c0 -125 67 -182 161 -182c93 0 161 57 161 182v533h312zM225 1136v250h704v-250h-704z" />
    <glyph glyph-name="Ubreve" unicode="&#x16c;" horiz-adv-x="1453" 
d="M1339 1400v-835c0 -383 -232 -591 -613 -591s-612 208 -612 591v835h335v-822c0 -192 110 -283 277 -283c168 0 278 91 278 283v822h335zM329 1818l231 65c29 -102 84 -154 166 -154s137 52 166 154l231 -65c-51 -210 -193 -331 -397 -331c-203 0 -345 121 -397 331z" />
    <glyph glyph-name="ubreve" unicode="&#x16d;" horiz-adv-x="1153" 
d="M1050 981v-561c0 -307 -212 -446 -473 -446c-262 0 -474 139 -474 447v560h313v-533c0 -125 67 -182 161 -182c93 0 161 57 161 182v533h312zM180 1414l231 65c29 -102 84 -154 166 -154s137 52 166 154l231 -65c-51 -210 -193 -331 -397 -331c-203 0 -345 121 -397 331z
" />
    <glyph glyph-name="Uring" unicode="&#x16e;" horiz-adv-x="1453" 
d="M1339 1400v-835c0 -383 -232 -591 -613 -591s-612 208 -612 591v835h335v-822c0 -192 110 -283 277 -283c168 0 278 91 278 283v822h335zM725 1472c-151 0 -275 121 -275 272c0 149 124 271 275 271c153 0 277 -122 277 -271c0 -151 -124 -272 -277 -272zM725 1639
c56 0 103 45 103 105c0 58 -47 105 -103 105c-54 0 -102 -47 -102 -105c0 -60 48 -105 102 -105z" />
    <glyph glyph-name="uring" unicode="&#x16f;" horiz-adv-x="1153" 
d="M1050 981v-561c0 -307 -212 -446 -473 -446c-262 0 -474 139 -474 447v560h313v-533c0 -125 67 -182 161 -182c93 0 161 57 161 182v533h312zM576 1068c-151 0 -275 121 -275 272c0 149 124 271 275 271c153 0 277 -122 277 -271c0 -151 -124 -272 -277 -272zM576 1235
c56 0 103 45 103 105c0 58 -47 105 -103 105c-54 0 -102 -47 -102 -105c0 -60 48 -105 102 -105z" />
    <glyph glyph-name="Uhungarumlaut" unicode="&#x170;" horiz-adv-x="1453" 
d="M1339 1400v-835c0 -383 -232 -591 -613 -591s-612 208 -612 591v835h335v-822c0 -192 110 -283 277 -283c168 0 278 91 278 283v822h335zM1073 1509h-300l235 332h324zM659 1509h-291l208 332h319z" />
    <glyph glyph-name="uhungarumlaut" unicode="&#x171;" horiz-adv-x="1153" 
d="M1050 981v-561c0 -307 -212 -446 -473 -446c-262 0 -474 139 -474 447v560h313v-533c0 -125 67 -182 161 -182c93 0 161 57 161 182v533h312zM927 1105h-300l235 332h324zM513 1105h-291l208 332h319z" />
    <glyph glyph-name="Uogonek" unicode="&#x172;" horiz-adv-x="1453" 
d="M1063 -144l162 -160c-76 -72 -176 -116 -299 -116c-175 0 -302 84 -302 218c0 75 33 132 87 177c-372 5 -597 212 -597 590v835h335v-822c0 -192 110 -283 277 -283c168 0 278 91 278 283v822h335v-835c0 -262 -108 -437 -297 -531c-120 -60 -140 -119 -140 -161
c0 -34 25 -56 67 -56c35 0 66 14 94 39z" />
    <glyph glyph-name="uogonek" unicode="&#x173;" horiz-adv-x="1153" 
d="M865 -144l162 -160c-76 -72 -176 -116 -299 -116c-175 0 -302 84 -302 218c0 76 34 133 90 179c-233 20 -413 160 -413 444v560h313v-533c0 -125 67 -182 161 -182c93 0 161 57 161 182v533h312v-561c0 -200 -89 -326 -224 -396c-98 -51 -122 -110 -122 -151
c0 -34 25 -56 67 -56c35 0 66 14 94 39z" />
    <glyph glyph-name="Wcircumflex" unicode="&#x174;" horiz-adv-x="2178" 
d="M2159 1400l-408 -1400h-398l-264 903l-264 -903h-398l-408 1400h345l267 -1003l280 1003h361l280 -1005l267 1005h340zM1487 1499h-284l-113 144l-114 -144h-284l225 332h344z" />
    <glyph glyph-name="wcircumflex" unicode="&#x175;" horiz-adv-x="1793" 
d="M1053 981l200 -626l191 626h329l-338 -981h-349l-191 587l-189 -587h-347l-339 981h333l189 -623l198 623h313zM1292 1095h-284l-113 144l-114 -144h-284l225 332h344z" />
    <glyph glyph-name="Ycircumflex" unicode="&#x176;" horiz-adv-x="1398" 
d="M1394 1400l-523 -861v-539h-335v537l-532 863h387l314 -559l313 559h376zM1103 1499h-284l-113 144l-114 -144h-284l225 332h344z" />
    <glyph glyph-name="ycircumflex" unicode="&#x177;" horiz-adv-x="1159" 
d="M1152 981l-724 -1383h-342l336 618l-413 765h359l223 -441l219 441h342zM986 1095h-284l-113 144l-114 -144h-284l225 332h344z" />
    <glyph glyph-name="Ydieresis" unicode="&#x178;" horiz-adv-x="1398" 
d="M1394 1400l-523 -861v-539h-335v537l-532 863h387l314 -559l313 559h376zM473 1853c106 0 188 -82 188 -187c0 -106 -82 -187 -188 -187c-105 0 -186 81 -186 187c0 105 81 187 186 187zM937 1853c105 0 187 -82 187 -187c0 -106 -82 -187 -187 -187
c-106 0 -187 81 -187 187c0 105 81 187 187 187z" />
    <glyph glyph-name="Zacute" unicode="&#x179;" horiz-adv-x="1284" 
d="M1208 1400v-262l-688 -837h688v-301h-1132v262l687 837h-686v301h1131zM726 1509h-293l212 332h359z" />
    <glyph glyph-name="zacute" unicode="&#x17a;" horiz-adv-x="1039" 
d="M952 981v-231l-433 -473h443v-277h-885v224l443 480h-426v277h858zM619 1105h-293l212 332h359z" />
    <glyph glyph-name="Zdotaccent" unicode="&#x17b;" horiz-adv-x="1284" 
d="M1208 1400v-262l-688 -837h688v-301h-1132v262l687 837h-686v301h1131zM618 1872c111 0 197 -87 197 -198c0 -110 -86 -195 -197 -195s-196 85 -196 195c0 111 85 198 196 198z" />
    <glyph glyph-name="zdotaccent" unicode="&#x17c;" horiz-adv-x="1039" 
d="M952 981v-231l-433 -473h443v-277h-885v224l443 480h-426v277h858zM523 1471c105 0 187 -82 187 -188c0 -105 -82 -186 -187 -186c-106 0 -187 81 -187 186c0 106 81 188 187 188z" />
    <glyph glyph-name="Zcaron" unicode="&#x17d;" horiz-adv-x="1284" 
d="M1208 1400v-262l-688 -837h688v-301h-1132v262l687 837h-686v301h1131zM245 1831h284l114 -144l113 144h284l-226 -332h-344z" />
    <glyph glyph-name="zcaron" unicode="&#x17e;" horiz-adv-x="1039" 
d="M952 981v-231l-433 -473h443v-277h-885v224l443 480h-426v277h858zM126 1427h284l114 -144l113 144h284l-226 -332h-344z" />
    <glyph glyph-name="longs" unicode="&#x17f;" horiz-adv-x="681" 
d="M477 1466c154 0 255 -46 331 -104l-135 -231c-47 24 -93 43 -153 43c-69 0 -103 -39 -103 -124v-1050h-313v1057c0 264 145 409 373 409z" />
    <glyph glyph-name="uni018F" unicode="&#x18f;" horiz-adv-x="1539" 
d="M732 1426c429 0 738 -304 738 -726s-299 -725 -708 -725c-369 0 -693 254 -693 704c0 46 2 95 7 144h1036c-45 173 -185 289 -364 289c-152 0 -258 -66 -342 -166l-232 235c134 152 318 245 558 245zM762 281c159 0 301 101 348 283h-689c28 -177 161 -283 341 -283z" />
    <glyph glyph-name="florin" unicode="&#x192;" horiz-adv-x="1400" 
d="M1093 850v-250h-250l-23 -244c-24 -250 -141 -381 -364 -381c-140 0 -232 40 -304 89l131 226c40 -19 81 -33 133 -33c69 0 92 41 100 127l20 216h-218v250h242l19 201c23 245 143 374 365 374c140 0 232 -40 304 -89l-131 -226c-40 19 -81 33 -133 33
c-69 0 -91 -41 -100 -127l-16 -166h225z" />
    <glyph glyph-name="uni01B5" unicode="&#x1b5;" horiz-adv-x="1284" 
d="M1105 844v-286h-375l-210 -257h688v-301h-1132v262l266 305h-164v286h384l201 246h-686v301h1131v-262l-253 -294h150z" />
    <glyph glyph-name="uni01B6" unicode="&#x1b6;" horiz-adv-x="1039" 
d="M895 586v-192h-270l-106 -117h443v-277h-885v224l183 179h-114v192h274l100 109h-426v277h858v-231l-164 -164h107z" />
    <glyph glyph-name="uni01CD" unicode="&#x1cd;" horiz-adv-x="1497" 
d="M948 1400l537 -1400h-356l-106 294h-556l-106 -294h-349l537 1400h399zM745 1068l-170 -472h340zM352 1831h284l114 -144l113 144h284l-226 -332h-344z" />
    <glyph glyph-name="uni01CE" unicode="&#x1ce;" horiz-adv-x="1208" 
d="M1099 981v-981h-303v106c-59 -77 -149 -132 -282 -132c-262 0 -456 228 -456 518c0 288 194 516 457 516c132 0 222 -56 281 -133v106h303zM589 716c-125 0 -209 -97 -209 -225s84 -225 209 -225c123 0 210 95 210 225s-87 225 -210 225zM216 1427h284l114 -144l113 144
h284l-226 -332h-344z" />
    <glyph glyph-name="uni01CF" unicode="&#x1cf;" horiz-adv-x="588" 
d="M461 1400v-1400h-334v1400h334zM-103 1831h284l114 -144l113 144h284l-226 -332h-344z" />
    <glyph glyph-name="uni01D0" unicode="&#x1d0;" horiz-adv-x="532" 
d="M423 981v-981h-313v981h313zM-132 1427h284l114 -144l113 144h284l-226 -332h-344z" />
    <glyph glyph-name="uni01D1" unicode="&#x1d1;" horiz-adv-x="1614" 
d="M807 1426c432 0 738 -308 738 -726s-306 -726 -738 -726s-738 308 -738 726s306 726 738 726zM807 1106c-228 0 -390 -166 -390 -406s162 -406 390 -406s390 166 390 406s-162 406 -390 406zM410 1831h284l114 -144l113 144h284l-226 -332h-344z" />
    <glyph glyph-name="uni01D2" unicode="&#x1d2;" horiz-adv-x="1181" 
d="M590 1008c307 0 533 -220 533 -517s-226 -517 -533 -517c-306 0 -532 220 -532 517s226 517 532 517zM590 716c-122 0 -212 -93 -212 -225s90 -225 212 -225c123 0 213 93 213 225s-90 225 -213 225zM193 1427h284l114 -144l113 144h284l-226 -332h-344z" />
    <glyph glyph-name="uni01D3" unicode="&#x1d3;" horiz-adv-x="1453" 
d="M1339 1400v-835c0 -383 -232 -591 -613 -591s-612 208 -612 591v835h335v-822c0 -192 110 -283 277 -283c168 0 278 91 278 283v822h335zM329 1831h284l114 -144l113 144h284l-226 -332h-344z" />
    <glyph glyph-name="uni01D4" unicode="&#x1d4;" horiz-adv-x="1153" 
d="M1050 981v-561c0 -307 -212 -446 -473 -446c-262 0 -474 139 -474 447v560h313v-533c0 -125 67 -182 161 -182c93 0 161 57 161 182v533h312zM180 1427h284l114 -144l113 144h284l-226 -332h-344z" />
    <glyph glyph-name="uni01D5" unicode="&#x1d5;" horiz-adv-x="1453" 
d="M1339 1400v-835c0 -383 -232 -591 -613 -591s-612 208 -612 591v835h335v-822c0 -192 110 -283 277 -283c168 0 278 91 278 283v822h335zM374 1908v250h704v-250h-704zM494 1853c106 0 188 -82 188 -187c0 -106 -82 -187 -188 -187c-105 0 -186 81 -186 187
c0 105 81 187 186 187zM958 1853c105 0 187 -82 187 -187c0 -106 -82 -187 -187 -187c-106 0 -187 81 -187 187c0 105 81 187 187 187z" />
    <glyph glyph-name="uni01D6" unicode="&#x1d6;" horiz-adv-x="1153" 
d="M1050 981v-561c0 -307 -212 -446 -473 -446c-262 0 -474 139 -474 447v560h313v-533c0 -125 67 -182 161 -182c93 0 161 57 161 182v533h312zM342 1449c106 0 188 -82 188 -187c0 -106 -82 -187 -188 -187c-105 0 -186 81 -186 187c0 105 81 187 186 187zM806 1449
c105 0 187 -82 187 -187c0 -106 -82 -187 -187 -187c-106 0 -187 81 -187 187c0 105 81 187 187 187zM222 1513v250h704v-250h-704z" />
    <glyph glyph-name="uni01D7" unicode="&#x1d7;" horiz-adv-x="1453" 
d="M1339 1400v-835c0 -383 -232 -591 -613 -591s-612 208 -612 591v835h335v-822c0 -192 110 -283 277 -283c168 0 278 91 278 283v822h335zM810 1910h-293l212 332h359zM494 1853c106 0 188 -82 188 -187c0 -106 -82 -187 -188 -187c-105 0 -186 81 -186 187
c0 105 81 187 186 187zM958 1853c105 0 187 -82 187 -187c0 -106 -82 -187 -187 -187c-106 0 -187 81 -187 187c0 105 81 187 187 187z" />
    <glyph glyph-name="uni01D8" unicode="&#x1d8;" horiz-adv-x="1153" 
d="M1050 981v-561c0 -307 -212 -446 -473 -446c-262 0 -474 139 -474 447v560h313v-533c0 -125 67 -182 161 -182c93 0 161 57 161 182v533h312zM342 1449c106 0 188 -82 188 -187c0 -106 -82 -187 -188 -187c-105 0 -186 81 -186 187c0 105 81 187 186 187zM806 1449
c105 0 187 -82 187 -187c0 -106 -82 -187 -187 -187c-106 0 -187 81 -187 187c0 105 81 187 187 187zM658 1515h-293l212 332h359z" />
    <glyph glyph-name="uni01D9" unicode="&#x1d9;" horiz-adv-x="1453" 
d="M1339 1400v-835c0 -383 -232 -591 -613 -591s-612 208 -612 591v835h335v-822c0 -192 110 -283 277 -283c168 0 278 91 278 283v822h335zM329 2232h284l114 -144l113 144h284l-226 -332h-344zM494 1853c106 0 188 -82 188 -187c0 -106 -82 -187 -188 -187
c-105 0 -186 81 -186 187c0 105 81 187 186 187zM958 1853c105 0 187 -82 187 -187c0 -106 -82 -187 -187 -187c-106 0 -187 81 -187 187c0 105 81 187 187 187z" />
    <glyph glyph-name="uni01DA" unicode="&#x1da;" horiz-adv-x="1153" 
d="M1050 981v-561c0 -307 -212 -446 -473 -446c-262 0 -474 139 -474 447v560h313v-533c0 -125 67 -182 161 -182c93 0 161 57 161 182v533h312zM342 1449c106 0 188 -82 188 -187c0 -106 -82 -187 -188 -187c-105 0 -186 81 -186 187c0 105 81 187 186 187zM806 1449
c105 0 187 -82 187 -187c0 -106 -82 -187 -187 -187c-106 0 -187 81 -187 187c0 105 81 187 187 187zM177 1837h284l114 -144l113 144h284l-226 -332h-344z" />
    <glyph glyph-name="uni01DB" unicode="&#x1db;" horiz-adv-x="1453" 
d="M1339 1400v-835c0 -383 -232 -591 -613 -591s-612 208 -612 591v835h335v-822c0 -192 110 -283 277 -283c168 0 278 91 278 283v822h335zM629 1910l-278 332h359l212 -332h-293zM494 1853c106 0 188 -82 188 -187c0 -106 -82 -187 -188 -187c-105 0 -186 81 -186 187
c0 105 81 187 186 187zM958 1853c105 0 187 -82 187 -187c0 -106 -82 -187 -187 -187c-106 0 -187 81 -187 187c0 105 81 187 187 187z" />
    <glyph glyph-name="uni01DC" unicode="&#x1dc;" horiz-adv-x="1153" 
d="M1050 981v-561c0 -307 -212 -446 -473 -446c-262 0 -474 139 -474 447v560h313v-533c0 -125 67 -182 161 -182c93 0 161 57 161 182v533h312zM342 1449c106 0 188 -82 188 -187c0 -106 -82 -187 -188 -187c-105 0 -186 81 -186 187c0 105 81 187 186 187zM806 1449
c105 0 187 -82 187 -187c0 -106 -82 -187 -187 -187c-106 0 -187 81 -187 187c0 105 81 187 187 187zM477 1515l-278 332h359l212 -332h-293z" />
    <glyph glyph-name="uni01E2" unicode="&#x1e2;" horiz-adv-x="2288" 
d="M2187 301v-301h-1072v265h-532l-178 -265h-395l968 1400h1205v-301h-734v-242h691v-300h-691v-256h738zM786 567h329v488zM1182 1540v250h704v-250h-704z" />
    <glyph glyph-name="uni01E3" unicode="&#x1e3;" horiz-adv-x="1732" 
d="M1198 1008c287 0 475 -209 476 -517c0 -32 -3 -76 -6 -97h-666c26 -107 102 -157 210 -157c74 0 153 30 214 86l203 -188c-104 -102 -257 -161 -441 -161c-155 0 -285 47 -375 139c-71 -65 -176 -139 -365 -139c-242 0 -390 120 -390 311c0 190 156 303 430 303h190
c-11 95 -71 147 -187 147c-93 0 -203 -40 -270 -81l-104 244c87 58 250 110 419 110c163 0 266 -56 324 -128c80 87 196 128 338 128zM503 213c86 0 155 39 202 88c-9 29 -16 60 -20 93h-151c-107 0 -157 -38 -157 -90s42 -91 126 -91zM1183 742c-91 0 -159 -43 -182 -157
h362c-24 104 -87 157 -180 157zM514 1136v250h704v-250h-704z" />
    <glyph glyph-name="Gcaron" unicode="&#x1e6;" horiz-adv-x="1560" 
d="M814 1426c222 0 399 -76 521 -203l-238 -234c-70 75 -169 123 -299 123c-224 0 -385 -168 -385 -412c0 -269 178 -420 386 -420c199 0 315 88 354 253h-341v258h672c5 -37 7 -71 7 -105c0 -448 -320 -711 -680 -711c-417 0 -742 288 -742 725c0 425 309 726 745 726z
M391 1831h284l114 -144l113 144h284l-226 -332h-344z" />
    <glyph glyph-name="gcaron" unicode="&#x1e7;" horiz-adv-x="1199" 
d="M513 1008c129 0 216 -53 274 -129v102h303v-887c0 -322 -211 -514 -532 -514c-164 0 -331 42 -448 125l111 249c96 -68 199 -100 315 -100c127 0 247 70 247 226v61c-58 -74 -144 -124 -270 -124c-263 0 -455 217 -455 495s192 496 455 496zM587 722
c-122 0 -206 -90 -206 -210c0 -119 84 -210 206 -210c118 0 200 89 200 210s-82 210 -200 210zM195 1427h284l114 -144l113 144h284l-226 -332h-344z" />
    <glyph glyph-name="Aringacute" unicode="&#x1fa;" horiz-adv-x="1497" 
d="M361 0h-349l514 1341c-37 46 -58 105 -58 169c0 149 124 271 275 271c153 0 277 -122 277 -271c0 -60 -20 -115 -53 -160l518 -1350h-356l-106 294h-556zM828 1847h-293l212 332h359zM745 1068l-170 -472h340zM743 1405c56 0 103 45 103 105c0 58 -47 105 -103 105
c-54 0 -102 -47 -102 -105c0 -60 48 -105 102 -105z" />
    <glyph glyph-name="aringacute" unicode="&#x1fb;" horiz-adv-x="1208" 
d="M1099 981v-981h-303v106c-59 -77 -149 -132 -282 -132c-262 0 -456 228 -456 518c0 288 194 516 457 516c132 0 222 -56 281 -133v106h303zM589 716c-125 0 -209 -97 -209 -225s84 -225 209 -225c123 0 210 95 210 225s-87 225 -210 225zM608 1042
c-151 0 -275 121 -275 272c0 149 124 271 275 271c153 0 277 -122 277 -271c0 -151 -124 -272 -277 -272zM608 1209c56 0 103 45 103 105c0 58 -47 105 -103 105c-54 0 -102 -47 -102 -105c0 -60 48 -105 102 -105zM693 1621h-293l212 332h359z" />
    <glyph glyph-name="AEacute" unicode="&#x1fc;" horiz-adv-x="2288" 
d="M2187 301v-301h-1072v265h-532l-178 -265h-395l968 1400h1205v-301h-734v-242h691v-300h-691v-256h738zM786 567h329v488zM1618 1509h-293l212 332h359z" />
    <glyph glyph-name="aeacute" unicode="&#x1fd;" horiz-adv-x="1732" 
d="M1198 1008c287 0 475 -209 476 -517c0 -32 -3 -76 -6 -97h-666c26 -107 102 -157 210 -157c74 0 153 30 214 86l203 -188c-104 -102 -257 -161 -441 -161c-155 0 -285 47 -375 139c-71 -65 -176 -139 -365 -139c-242 0 -390 120 -390 311c0 190 156 303 430 303h190
c-11 95 -71 147 -187 147c-93 0 -203 -40 -270 -81l-104 244c87 58 250 110 419 110c163 0 266 -56 324 -128c80 87 196 128 338 128zM503 213c86 0 155 39 202 88c-9 29 -16 60 -20 93h-151c-107 0 -157 -38 -157 -90s42 -91 126 -91zM1183 742c-91 0 -159 -43 -182 -157
h362c-24 104 -87 157 -180 157zM962 1105h-293l212 332h359z" />
    <glyph glyph-name="Oslashacute" unicode="&#x1fe;" horiz-adv-x="1628" 
d="M807 1426c162 0 307 -44 424 -120l120 120l189 -189l-119 -118c79 -117 124 -260 124 -419c0 -418 -306 -726 -738 -726c-159 0 -300 41 -416 115l-115 -115l-188 188l110 110c-82 118 -129 264 -129 428c0 418 306 726 738 726zM807 1106c-228 0 -390 -166 -390 -406
c0 -65 12 -124 33 -176l540 540c-54 27 -116 42 -183 42zM1197 700c0 60 -11 115 -30 165l-534 -534c51 -24 110 -37 174 -37c228 0 390 166 390 406zM898 1509h-293l212 332h359z" />
    <glyph glyph-name="oslashacute" unicode="&#x1ff;" horiz-adv-x="1181" 
d="M591 1008c103 0 196 -25 276 -70l99 100l174 -171l-96 -96c50 -80 79 -175 79 -280c0 -297 -226 -517 -532 -517c-103 0 -196 25 -275 68l-98 -98l-175 170l95 95c-51 80 -80 176 -80 282c0 297 226 517 533 517zM591 729c-129 0 -225 -99 -225 -238c0 -24 3 -47 8 -69
l294 293c-24 9 -50 14 -77 14zM816 491c0 23 -3 46 -8 67l-293 -293c23 -8 49 -12 76 -12c128 0 225 99 225 238zM685 1105h-293l212 332h359z" />
    <glyph glyph-name="Scommaaccent" unicode="&#x218;" horiz-adv-x="1355" 
d="M1260 1277l-149 -274c-100 60 -237 118 -401 118c-127 0 -220 -43 -220 -126c0 -88 133 -109 288 -136l58 -10c272 -47 443 -174 443 -403c0 -333 -287 -472 -587 -472c-233 0 -461 61 -616 178l167 272c107 -73 255 -147 452 -147c126 0 222 43 222 130
c0 84 -94 108 -277 136l-70 11c-288 45 -444 175 -439 427c5 272 237 444 564 444c189 0 353 -31 565 -148zM571 -80h301l-102 -412h-248z" />
    <glyph glyph-name="scommaaccent" unicode="&#x219;" horiz-adv-x="1017" 
d="M935 923l-87 -244c-97 41 -223 75 -323 76c-82 0 -114 -24 -114 -60c0 -42 62 -52 158 -67l72 -11c210 -32 321 -133 321 -298c0 -215 -168 -344 -454 -344c-168 0 -341 30 -453 103l109 242c98 -58 210 -92 346 -92c97 0 137 22 137 64c0 38 -44 53 -155 70l-57 8
c-236 35 -346 133 -346 309c0 209 157 328 424 328c159 0 261 -22 422 -84zM385 -80h301l-102 -412h-248z" />
    <glyph glyph-name="uni021A" unicode="&#x21a;" horiz-adv-x="1213" 
d="M1188 1400v-310h-414v-1090h-334v1090h-415v310h1163zM473 -80h301l-102 -412h-248z" />
    <glyph glyph-name="uni021B" unicode="&#x21b;" horiz-adv-x="959" 
d="M864 981v-277h-335v-287c0 -113 60 -151 139 -151c58 0 121 32 170 61l108 -244c-92 -64 -190 -109 -348 -109c-263 0 -382 157 -382 403v327h-183v277h183v286h313v-286h335zM421 -80h301l-102 -412h-248z" />
    <glyph glyph-name="uni0232" unicode="&#x232;" horiz-adv-x="1398" 
d="M1394 1400l-523 -861v-539h-335v537l-532 863h387l314 -559l313 559h376zM353 1540v250h704v-250h-704z" />
    <glyph glyph-name="uni0233" unicode="&#x233;" horiz-adv-x="1159" 
d="M1152 981l-724 -1383h-342l336 618l-413 765h359l223 -441l219 441h342zM237 1136v250h704v-250h-704z" />
    <glyph glyph-name="uni0237" unicode="&#x237;" horiz-adv-x="533" 
d="M424 981v-1046c0 -228 -127 -359 -321 -359c-46 0 -114 10 -150 24l30 277c19 -6 39 -10 63 -10c38 0 66 23 66 88v1026h312z" />
    <glyph glyph-name="uni0259" unicode="&#x259;" horiz-adv-x="1110" 
d="M549 -27c-291 0 -490 210 -491 517c0 32 2 76 6 97h665c-26 107 -102 157 -210 157c-73 0 -152 -30 -214 -86l-202 188c102 102 251 161 432 161c308 0 517 -205 517 -511c0 -309 -205 -523 -503 -523zM548 239c97 0 156 53 180 150h-357c25 -98 86 -150 177 -150z" />
    <glyph glyph-name="uni02BB" unicode="&#x2bb;" horiz-adv-x="565" 
d="M418 790h-342l160 650h261z" />
    <glyph glyph-name="afii57929" unicode="&#x2bc;" horiz-adv-x="565" 
d="M147 1440h342l-160 -650h-261z" />
    <glyph glyph-name="uni02BE" unicode="&#x2be;" horiz-adv-x="527" 
d="M89 638v254c83 0 153 71 153 157c0 88 -70 158 -153 158v247c227 0 410 -181 410 -405c0 -227 -183 -411 -410 -411z" />
    <glyph glyph-name="uni02BF" unicode="&#x2bf;" horiz-adv-x="527" 
d="M438 1454v-254c-83 0 -153 -71 -153 -157c0 -88 70 -158 153 -158v-247c-227 0 -410 181 -410 405c0 227 183 411 410 411z" />
    <glyph glyph-name="circumflex" unicode="&#x2c6;" horiz-adv-x="1141" 
d="M970 1096h-283l-114 144l-114 -144h-283l225 332h344z" />
    <glyph glyph-name="caron" unicode="&#x2c7;" horiz-adv-x="1141" 
d="M176 1427h283l114 -144l114 144h283l-225 -332h-344z" />
    <glyph glyph-name="breve" unicode="&#x2d8;" horiz-adv-x="1141" 
d="M173 1414l232 65c29 -102 83 -154 165 -154c83 0 137 52 166 154l232 -65c-52 -210 -194 -331 -398 -331c-203 0 -345 121 -397 331z" />
    <glyph glyph-name="dotaccent" unicode="&#x2d9;" horiz-adv-x="593" 
d="M297 1471c105 0 187 -82 187 -188c0 -105 -82 -186 -187 -186c-106 0 -187 81 -187 186c0 106 81 188 187 188z" />
    <glyph glyph-name="ring" unicode="&#x2da;" horiz-adv-x="1000" 
d="M500 1068c-151 0 -275 121 -275 272c0 149 124 271 275 271c152 0 276 -122 276 -271c0 -151 -124 -272 -276 -272zM500 1235c56 0 103 45 103 105c0 58 -47 105 -103 105c-55 0 -102 -47 -102 -105c0 -60 47 -105 102 -105z" />
    <glyph glyph-name="ogonek" unicode="&#x2db;" horiz-adv-x="1101" 
d="M801 -144l162 -160c-79 -75 -174 -116 -299 -116c-166 0 -293 89 -293 238c0 141 114 215 252 273l201 -78c-133 -56 -184 -96 -184 -144c0 -31 22 -52 65 -52c36 0 67 14 96 39z" />
    <glyph glyph-name="tilde" unicode="&#x2dc;" horiz-adv-x="1141" 
d="M328 1110l-171 165c79 112 176 152 287 152c142 0 198 -72 254 -72c35 0 72 24 115 69l171 -166c-78 -112 -176 -152 -287 -152c-141 0 -197 72 -254 72c-35 0 -72 -24 -115 -68z" />
    <glyph glyph-name="hungarumlaut" unicode="&#x2dd;" horiz-adv-x="1141" 
d="M802 1105h-293l212 332h359zM353 1105h-293l212 332h359z" />
    <glyph glyph-name="gravecomb" unicode="&#x300;" 
d="M-681 1105l-278 332h359l212 -332h-293z" />
    <glyph glyph-name="acutecomb" unicode="&#x301;" 
d="M-495 1105h-293l212 332h359z" />
    <glyph glyph-name="uni0302" unicode="&#x302;" 
d="M-194 1095h-284l-113 144l-114 -144h-284l225 332h344z" />
    <glyph glyph-name="tildecomb" unicode="&#x303;" 
d="M-839 1110l-171 165c79 112 176 152 287 152c142 0 198 -72 254 -72c35 0 72 24 115 69l171 -166c-78 -112 -176 -152 -287 -152c-141 0 -197 72 -254 72c-35 0 -72 -24 -115 -68z" />
    <glyph glyph-name="uni0304" unicode="&#x304;" 
d="M-943 1136v250h704v-250h-704z" />
    <glyph glyph-name="uni0306" unicode="&#x306;" 
d="M-988 1414l231 65c29 -102 84 -154 166 -154s137 52 166 154l231 -65c-51 -210 -193 -331 -397 -331c-203 0 -345 121 -397 331z" />
    <glyph glyph-name="uni0307" unicode="&#x307;" 
d="M-591 1471c105 0 187 -82 187 -188c0 -105 -82 -186 -187 -186c-106 0 -187 81 -187 186c0 106 81 188 187 188z" />
    <glyph glyph-name="uni0308" unicode="&#x308;" 
d="M-826 1449c106 0 188 -82 188 -187c0 -106 -82 -187 -188 -187c-105 0 -186 81 -186 187c0 105 81 187 186 187zM-362 1449c105 0 187 -82 187 -187c0 -106 -82 -187 -187 -187c-106 0 -187 81 -187 187c0 105 81 187 187 187z" />
    <glyph glyph-name="uni030A" unicode="&#x30a;" 
d="M-592 1068c-151 0 -275 121 -275 272c0 149 124 271 275 271c153 0 277 -122 277 -271c0 -151 -124 -272 -277 -272zM-592 1235c56 0 103 45 103 105c0 58 -47 105 -103 105c-54 0 -102 -47 -102 -105c0 -60 48 -105 102 -105z" />
    <glyph glyph-name="uni030B" unicode="&#x30b;" 
d="M-241 1105h-300l235 332h324zM-655 1105h-291l208 332h319z" />
    <glyph glyph-name="uni030C" unicode="&#x30c;" 
d="M-988 1427h284l114 -144l113 144h284l-226 -332h-344z" />
    <glyph glyph-name="uni0312" unicode="&#x312;" 
d="M-440 1105h-301l102 412h248z" />
    <glyph glyph-name="dotbelowcomb" unicode="&#x323;" 
d="M-590 -82c105 0 187 -82 187 -188c0 -105 -82 -186 -187 -186c-106 0 -187 81 -187 186c0 106 81 188 187 188z" />
    <glyph glyph-name="uni0326" unicode="&#x326;" 
d="M-719 -80h301l-102 -412h-248z" />
    <glyph glyph-name="uni0327" unicode="&#x327;" 
d="M-395 7l-103 -328h-287l111 328h279z" />
    <glyph glyph-name="uni0328" unicode="&#x328;" 
d="M-451 -144l162 -160c-76 -72 -176 -116 -299 -116c-175 0 -302 84 -302 218c0 153 140 228 309 291l113 -50c-124 -68 -144 -123 -144 -166c0 -34 25 -56 67 -56c35 0 66 14 94 39z" />
    <glyph glyph-name="uni032E" unicode="&#x32e;" 
d="M-987 -134l231 66c29 -103 83 -154 166 -154c82 0 136 51 166 154l231 -66c-52 -209 -194 -330 -397 -330c-204 0 -346 121 -397 330z" />
    <glyph glyph-name="uni0331" unicode="&#x331;" 
d="M-942 -384v250h704v-250h-704z" />
    <glyph glyph-name="uni0335" unicode="&#x335;" 
d="M-214 644v-246h-751v246h751z" />
    <glyph glyph-name="uni0336" unicode="&#x336;" 
d="M182 644v-246h-1543v246h1543z" />
    <glyph glyph-name="uni0394" unicode="&#x394;" horiz-adv-x="1373" 
d="M886 1400l436 -1138v-262h-1271v262l436 1138h399zM687 1073l-277 -764h553z" />
    <glyph glyph-name="uni03A9" unicode="&#x3a9;" horiz-adv-x="1682" 
d="M51 296h236c-117 116 -184 272 -184 450c0 392 305 680 738 680c432 0 738 -288 738 -680c0 -178 -68 -334 -184 -450h236v-296h-666v270c160 51 265 204 265 409c0 254 -161 427 -389 427c-229 0 -390 -173 -390 -427c0 -205 105 -358 265 -409v-270h-665v296z" />
    <glyph glyph-name="uni03BC" unicode="&#x3bc;" horiz-adv-x="1152" 
d="M404 -400h-301v1381h313v-533c0 -116 58 -181 155 -181c87 0 159 59 159 186v528h313v-981h-300v123c-62 -103 -161 -150 -292 -150c-16 0 -32 1 -47 3v-376z" />
    <glyph glyph-name="pi" unicode="&#x3c0;" horiz-adv-x="1160" 
d="M1057 981v-981h-313v704h-321v-704h-313v981h947z" />
    <glyph glyph-name="uni1E0C" unicode="&#x1e0c;" horiz-adv-x="1522" 
d="M127 1400h599c438 0 727 -278 727 -700s-289 -700 -727 -700h-599v1400zM719 1091h-258v-782h258c260 0 385 165 385 391c0 229 -125 391 -385 391zM730 -82c105 0 187 -82 187 -188c0 -105 -82 -186 -187 -186c-106 0 -187 81 -187 186c0 106 81 188 187 188z" />
    <glyph glyph-name="uni1E0D" unicode="&#x1e0d;" horiz-adv-x="1207" 
d="M515 1008c125 0 212 -50 271 -121v553h312v-1440h-302v106c-59 -77 -149 -132 -282 -132c-262 0 -456 228 -456 518c0 288 194 516 457 516zM589 716c-125 0 -209 -97 -209 -225s84 -225 209 -225c123 0 210 95 210 225s-87 225 -210 225zM611 -82
c105 0 187 -82 187 -188c0 -105 -82 -186 -187 -186c-106 0 -187 81 -187 186c0 106 81 188 187 188z" />
    <glyph glyph-name="uni1E0E" unicode="&#x1e0e;" horiz-adv-x="1522" 
d="M127 1400h599c438 0 727 -278 727 -700s-289 -700 -727 -700h-599v1400zM719 1091h-258v-782h258c260 0 385 165 385 391c0 229 -125 391 -385 391zM378 -384v250h704v-250h-704z" />
    <glyph glyph-name="uni1E0F" unicode="&#x1e0f;" horiz-adv-x="1207" 
d="M515 1008c125 0 212 -50 271 -121v553h312v-1440h-302v106c-59 -77 -149 -132 -282 -132c-262 0 -456 228 -456 518c0 288 194 516 457 516zM589 716c-125 0 -209 -97 -209 -225s84 -225 209 -225c123 0 210 95 210 225s-87 225 -210 225zM258 -384v250h704v-250h-704z
" />
    <glyph glyph-name="uni1E24" unicode="&#x1e24;" horiz-adv-x="1511" 
d="M461 1400v-539h589v539h334v-1400h-334v552h-589v-552h-334v1400h334zM755 -82c105 0 187 -82 187 -188c0 -105 -82 -186 -187 -186c-106 0 -187 81 -187 186c0 106 81 188 187 188z" />
    <glyph glyph-name="uni1E25" unicode="&#x1e25;" horiz-adv-x="1153" 
d="M423 1441v-563c62 89 157 130 279 130c196 0 348 -137 348 -364v-644h-313v533c0 116 -58 181 -155 181c-87 0 -159 -59 -159 -186v-528h-313v1441h313zM581 -82c105 0 187 -82 187 -188c0 -105 -82 -186 -187 -186c-106 0 -187 81 -187 186c0 106 81 188 187 188z" />
    <glyph glyph-name="uni1E28" unicode="&#x1e28;" horiz-adv-x="1511" 
d="M461 1400v-539h589v539h334v-1400h-334v552h-589v-552h-17l-101 -321h-307l109 321h-18v1400h334z" />
    <glyph glyph-name="uni1E29" unicode="&#x1e29;" horiz-adv-x="1153" 
d="M423 1441v-563c62 89 157 130 279 130c196 0 348 -137 348 -364v-644h-313v533c0 116 -58 181 -155 181c-87 0 -159 -59 -159 -186v-528h-18l-101 -321h-287l108 321h-15v1441h313z" />
    <glyph glyph-name="uni1E2A" unicode="&#x1e2a;" horiz-adv-x="1511" 
d="M461 1400v-539h589v539h334v-1400h-334v552h-589v-552h-334v1400h334zM358 -134l231 66c29 -103 83 -154 166 -154c82 0 136 51 166 154l231 -66c-52 -209 -194 -330 -397 -330c-204 0 -346 121 -397 330z" />
    <glyph glyph-name="uni1E2B" unicode="&#x1e2b;" horiz-adv-x="1153" 
d="M423 1441v-563c62 89 157 130 279 130c196 0 348 -137 348 -364v-644h-313v533c0 116 -58 181 -155 181c-87 0 -159 -59 -159 -186v-528h-313v1441h313zM183 -134l231 66c29 -103 83 -154 166 -154c82 0 136 51 166 154l231 -66c-52 -209 -194 -330 -397 -330
c-204 0 -346 121 -397 330z" />
    <glyph glyph-name="uni1E32" unicode="&#x1e32;" horiz-adv-x="1423" 
d="M1020 0l-441 554h-118v-554h-334v1400h334v-545h121l402 545h411l-543 -683l588 -717h-420zM710 -82c105 0 187 -82 187 -188c0 -105 -82 -186 -187 -186c-106 0 -187 81 -187 186c0 106 81 188 187 188z" />
    <glyph glyph-name="uni1E33" unicode="&#x1e33;" horiz-adv-x="1105" 
d="M423 1440v-784h75l232 325h379l-363 -463l364 -518h-378l-242 379h-67v-379h-313v1440h313zM573 -82c105 0 187 -82 187 -188c0 -105 -82 -186 -187 -186c-106 0 -187 81 -187 186c0 106 81 188 187 188z" />
    <glyph glyph-name="uni1E36" unicode="&#x1e36;" horiz-adv-x="1190" 
d="M1165 310v-310h-1038v1400h334v-1090h704zM644 -82c105 0 187 -82 187 -188c0 -105 -82 -186 -187 -186c-106 0 -187 81 -187 186c0 106 81 188 187 188z" />
    <glyph glyph-name="uni1E37" unicode="&#x1e37;" horiz-adv-x="532" 
d="M423 1440v-1440h-313v1440h313zM267 -82c105 0 187 -82 187 -188c0 -105 -82 -186 -187 -186c-106 0 -187 81 -187 186c0 106 81 188 187 188z" />
    <glyph glyph-name="uni1E38" unicode="&#x1e38;" horiz-adv-x="1190" 
d="M1165 310v-310h-1038v1400h334v-1090h704zM644 -82c105 0 187 -82 187 -188c0 -105 -82 -186 -187 -186c-106 0 -187 81 -187 186c0 106 81 188 187 188zM-58 1540v250h704v-250h-704z" />
    <glyph glyph-name="uni1E39" unicode="&#x1e39;" horiz-adv-x="532" 
d="M423 1440v-1440h-313v1440h313zM-97 1567v250h704v-250h-704zM267 -82c105 0 187 -82 187 -188c0 -105 -82 -186 -187 -186c-106 0 -187 81 -187 186c0 106 81 188 187 188z" />
    <glyph glyph-name="uni1E3A" unicode="&#x1e3a;" horiz-adv-x="1190" 
d="M1165 310v-310h-1038v1400h334v-1090h704zM292 -384v250h704v-250h-704z" />
    <glyph glyph-name="uni1E3B" unicode="&#x1e3b;" horiz-adv-x="532" 
d="M423 1440v-1440h-313v1440h313zM-86 -384v250h704v-250h-704z" />
    <glyph glyph-name="uni1E40" unicode="&#x1e40;" horiz-adv-x="1837" 
d="M1710 1400v-1400h-334v958l-280 -826h-355l-280 823v-955h-334v1400h473l319 -889l317 889h474zM895 1872c111 0 197 -87 197 -198c0 -110 -86 -195 -197 -195s-196 85 -196 195c0 111 85 198 196 198z" />
    <glyph glyph-name="uni1E41" unicode="&#x1e41;" horiz-adv-x="1781" 
d="M1312 1008c224 0 366 -138 366 -364v-644h-313v533c0 116 -58 181 -156 181c-86 0 -159 -59 -159 -186v-528h-313v533c0 116 -58 181 -155 181c-87 0 -159 -59 -159 -186v-528h-313v981h300v-123c62 103 161 150 292 150c129 0 239 -59 299 -164c66 113 176 164 311 164z
M915 1448c105 0 187 -82 187 -188c0 -105 -82 -186 -187 -186c-106 0 -187 81 -187 186c0 106 81 188 187 188z" />
    <glyph glyph-name="uni1E42" unicode="&#x1e42;" horiz-adv-x="1837" 
d="M1710 1400v-1400h-334v958l-280 -826h-355l-280 823v-955h-334v1400h473l319 -889l317 889h474zM919 -82c105 0 187 -82 187 -188c0 -105 -82 -186 -187 -186c-106 0 -187 81 -187 186c0 106 81 188 187 188z" />
    <glyph glyph-name="uni1E43" unicode="&#x1e43;" horiz-adv-x="1781" 
d="M1312 1008c224 0 366 -138 366 -364v-644h-313v533c0 116 -58 181 -156 181c-86 0 -159 -59 -159 -186v-528h-313v533c0 116 -58 181 -155 181c-87 0 -159 -59 -159 -186v-528h-313v981h300v-123c62 103 161 150 292 150c129 0 239 -59 299 -164c66 113 176 164 311 164z
M895 -82c105 0 187 -82 187 -188c0 -105 -82 -186 -187 -186c-106 0 -187 81 -187 186c0 106 81 188 187 188z" />
    <glyph glyph-name="uni1E44" unicode="&#x1e44;" horiz-adv-x="1547" 
d="M1420 1400v-1400h-321l-638 854v-854h-334v1400h320l638 -854v854h335zM761 1872c111 0 197 -87 197 -198c0 -110 -86 -195 -197 -195s-196 85 -196 195c0 111 85 198 196 198z" />
    <glyph glyph-name="uni1E45" unicode="&#x1e45;" horiz-adv-x="1153" 
d="M702 1008c196 0 348 -137 348 -364v-644h-313v533c0 116 -58 181 -155 181c-87 0 -159 -59 -159 -186v-528h-313v981h300v-123c62 103 161 150 292 150zM589 1471c105 0 187 -82 187 -188c0 -105 -82 -186 -187 -186c-106 0 -187 81 -187 186c0 106 81 188 187 188z" />
    <glyph glyph-name="uni1E46" unicode="&#x1e46;" horiz-adv-x="1547" 
d="M1420 1400v-1400h-321l-638 854v-854h-334v1400h320l638 -854v854h335zM781 -82c105 0 187 -82 187 -188c0 -105 -82 -186 -187 -186c-106 0 -187 81 -187 186c0 106 81 188 187 188z" />
    <glyph glyph-name="uni1E47" unicode="&#x1e47;" horiz-adv-x="1153" 
d="M702 1008c196 0 348 -137 348 -364v-644h-313v533c0 116 -58 181 -155 181c-87 0 -159 -59 -159 -186v-528h-313v981h300v-123c62 103 161 150 292 150zM581 -82c105 0 187 -82 187 -188c0 -105 -82 -186 -187 -186c-106 0 -187 81 -187 186c0 106 81 188 187 188z" />
    <glyph glyph-name="uni1E48" unicode="&#x1e48;" horiz-adv-x="1547" 
d="M1420 1400v-1400h-321l-638 854v-854h-334v1400h320l638 -854v854h335zM429 -384v250h704v-250h-704z" />
    <glyph glyph-name="uni1E49" unicode="&#x1e49;" horiz-adv-x="1153" 
d="M702 1008c196 0 348 -137 348 -364v-644h-313v533c0 116 -58 181 -155 181c-87 0 -159 -59 -159 -186v-528h-313v981h300v-123c62 103 161 150 292 150zM228 -384v250h704v-250h-704z" />
    <glyph glyph-name="uni1E58" unicode="&#x1e58;" horiz-adv-x="1347" 
d="M127 1400h609c346 0 530 -172 530 -448c0 -222 -140 -378 -391 -418l402 -534h-398l-369 524h-49v-524h-334v1400zM732 1097h-271v-292h271c120 0 194 47 194 147c0 99 -76 145 -194 145zM628 1872c111 0 197 -87 197 -198c0 -110 -86 -195 -197 -195s-196 85 -196 195
c0 111 85 198 196 198z" />
    <glyph glyph-name="uni1E59" unicode="&#x1e59;" horiz-adv-x="821" 
d="M678 1008c46 0 86 -8 110 -15l-29 -312c-42 14 -101 26 -157 26c-111 0 -179 -55 -179 -177v-530h-313v981h300v-113c57 95 148 140 268 140zM448 1471c105 0 187 -82 187 -188c0 -105 -82 -186 -187 -186c-106 0 -187 81 -187 186c0 106 81 188 187 188z" />
    <glyph glyph-name="uni1E5A" unicode="&#x1e5a;" horiz-adv-x="1347" 
d="M127 1400h609c346 0 530 -172 530 -448c0 -222 -140 -378 -391 -418l402 -534h-398l-369 524h-49v-524h-334v1400zM732 1097h-271v-292h271c120 0 194 47 194 147c0 99 -76 145 -194 145zM658 -82c105 0 187 -82 187 -188c0 -105 -82 -186 -187 -186
c-106 0 -187 81 -187 186c0 106 81 188 187 188z" />
    <glyph glyph-name="uni1E5B" unicode="&#x1e5b;" horiz-adv-x="821" 
d="M678 1008c46 0 86 -8 110 -15l-29 -312c-42 14 -101 26 -157 26c-111 0 -179 -55 -179 -177v-530h-313v981h300v-113c57 95 148 140 268 140zM265 -82c105 0 187 -82 187 -188c0 -105 -82 -186 -187 -186c-106 0 -187 81 -187 186c0 106 81 188 187 188z" />
    <glyph glyph-name="uni1E5C" unicode="&#x1e5c;" horiz-adv-x="1347" 
d="M127 1400h609c346 0 530 -172 530 -448c0 -222 -140 -378 -391 -418l402 -534h-398l-369 524h-49v-524h-334v1400zM732 1097h-271v-292h271c120 0 194 47 194 147c0 99 -76 145 -194 145zM658 -82c105 0 187 -82 187 -188c0 -105 -82 -186 -187 -186
c-106 0 -187 81 -187 186c0 106 81 188 187 188zM300 1540v250h704v-250h-704z" />
    <glyph glyph-name="uni1E5D" unicode="&#x1e5d;" horiz-adv-x="821" 
d="M678 1008c46 0 86 -8 110 -15l-29 -312c-42 14 -101 26 -157 26c-111 0 -179 -55 -179 -177v-530h-313v981h300v-113c57 95 148 140 268 140zM96 1136v250h704v-250h-704zM265 -82c105 0 187 -82 187 -188c0 -105 -82 -186 -187 -186c-106 0 -187 81 -187 186
c0 106 81 188 187 188z" />
    <glyph glyph-name="uni1E5E" unicode="&#x1e5e;" horiz-adv-x="1347" 
d="M127 1400h609c346 0 530 -172 530 -448c0 -222 -140 -378 -391 -418l402 -534h-398l-369 524h-49v-524h-334v1400zM732 1097h-271v-292h271c120 0 194 47 194 147c0 99 -76 145 -194 145zM306 -384v250h704v-250h-704z" />
    <glyph glyph-name="uni1E5F" unicode="&#x1e5f;" horiz-adv-x="821" 
d="M678 1008c46 0 86 -8 110 -15l-29 -312c-42 14 -101 26 -157 26c-111 0 -179 -55 -179 -177v-530h-313v981h300v-113c57 95 148 140 268 140zM-88 -384v250h704v-250h-704z" />
    <glyph glyph-name="uni1E62" unicode="&#x1e62;" horiz-adv-x="1355" 
d="M1260 1277l-149 -274c-100 60 -237 118 -401 118c-127 0 -220 -43 -220 -126c0 -88 133 -109 288 -136l58 -10c272 -47 443 -174 443 -403c0 -333 -287 -472 -587 -472c-233 0 -461 61 -616 178l167 272c107 -73 255 -147 452 -147c126 0 222 43 222 130
c0 84 -94 108 -277 136l-70 11c-288 45 -444 175 -439 427c5 272 237 444 564 444c189 0 353 -31 565 -148zM705 -82c105 0 187 -82 187 -188c0 -105 -82 -186 -187 -186c-106 0 -187 81 -187 186c0 106 81 188 187 188z" />
    <glyph glyph-name="uni1E63" unicode="&#x1e63;" horiz-adv-x="1017" 
d="M935 923l-87 -244c-97 41 -223 75 -323 76c-82 0 -114 -24 -114 -60c0 -42 62 -52 158 -67l72 -11c210 -32 321 -133 321 -298c0 -215 -168 -344 -454 -344c-168 0 -341 30 -453 103l109 242c98 -58 210 -92 346 -92c97 0 137 22 137 64c0 38 -44 53 -155 70l-57 8
c-236 35 -346 133 -346 309c0 209 157 328 424 328c159 0 261 -22 422 -84zM515 -82c105 0 187 -82 187 -188c0 -105 -82 -186 -187 -186c-106 0 -187 81 -187 186c0 106 81 188 187 188z" />
    <glyph glyph-name="uni1E6C" unicode="&#x1e6c;" horiz-adv-x="1213" 
d="M1188 1400v-310h-414v-1090h-334v1090h-415v310h1163zM607 -82c105 0 187 -82 187 -188c0 -105 -82 -186 -187 -186c-106 0 -187 81 -187 186c0 106 81 188 187 188z" />
    <glyph glyph-name="uni1E6D" unicode="&#x1e6d;" horiz-adv-x="959" 
d="M864 981v-277h-335v-287c0 -113 60 -151 139 -151c58 0 121 32 170 61l108 -244c-92 -64 -190 -109 -348 -109c-263 0 -382 157 -382 403v327h-183v277h183v286h313v-286h335zM551 -82c105 0 187 -82 187 -188c0 -105 -82 -186 -187 -186c-106 0 -187 81 -187 186
c0 106 81 188 187 188z" />
    <glyph glyph-name="uni1E6E" unicode="&#x1e6e;" horiz-adv-x="1213" 
d="M1188 1400v-310h-414v-1090h-334v1090h-415v310h1163zM255 -384v250h704v-250h-704z" />
    <glyph glyph-name="uni1E6F" unicode="&#x1e6f;" horiz-adv-x="959" 
d="M864 981v-277h-335v-287c0 -113 60 -151 139 -151c58 0 121 32 170 61l108 -244c-92 -64 -190 -109 -348 -109c-263 0 -382 157 -382 403v327h-183v277h183v286h313v-286h335zM198 -384v250h704v-250h-704z" />
    <glyph glyph-name="Wgrave" unicode="&#x1e80;" horiz-adv-x="2178" 
d="M2159 1400l-408 -1400h-398l-264 903l-264 -903h-398l-408 1400h345l267 -1003l280 1003h361l280 -1005l267 1005h340zM992 1509l-278 332h359l212 -332h-293z" />
    <glyph glyph-name="wgrave" unicode="&#x1e81;" horiz-adv-x="1793" 
d="M1053 981l200 -626l191 626h329l-338 -981h-349l-191 587l-189 -587h-347l-339 981h333l189 -623l198 623h313zM805 1105l-278 332h359l212 -332h-293z" />
    <glyph glyph-name="Wacute" unicode="&#x1e82;" horiz-adv-x="2178" 
d="M2159 1400l-408 -1400h-398l-264 903l-264 -903h-398l-408 1400h345l267 -1003l280 1003h361l280 -1005l267 1005h340zM1173 1509h-293l212 332h359z" />
    <glyph glyph-name="wacute" unicode="&#x1e83;" horiz-adv-x="1793" 
d="M1053 981l200 -626l191 626h329l-338 -981h-349l-191 587l-189 -587h-347l-339 981h333l189 -623l198 623h313zM991 1105h-293l212 332h359z" />
    <glyph glyph-name="Wdieresis" unicode="&#x1e84;" horiz-adv-x="2178" 
d="M2159 1400l-408 -1400h-398l-264 903l-264 -903h-398l-408 1400h345l267 -1003l280 1003h361l280 -1005l267 1005h340zM857 1853c106 0 188 -82 188 -187c0 -106 -82 -187 -188 -187c-105 0 -186 81 -186 187c0 105 81 187 186 187zM1321 1853c105 0 187 -82 187 -187
c0 -106 -82 -187 -187 -187c-106 0 -187 81 -187 187c0 105 81 187 187 187z" />
    <glyph glyph-name="wdieresis" unicode="&#x1e85;" horiz-adv-x="1793" 
d="M1053 981l200 -626l191 626h329l-338 -981h-349l-191 587l-189 -587h-347l-339 981h333l189 -623l198 623h313zM660 1449c106 0 188 -82 188 -187c0 -106 -82 -187 -188 -187c-105 0 -186 81 -186 187c0 105 81 187 186 187zM1124 1449c105 0 187 -82 187 -187
c0 -106 -82 -187 -187 -187c-106 0 -187 81 -187 187c0 105 81 187 187 187z" />
    <glyph glyph-name="uni1E88" unicode="&#x1e88;" horiz-adv-x="2178" 
d="M2159 1400l-408 -1400h-398l-264 903l-264 -903h-398l-408 1400h345l267 -1003l280 1003h361l280 -1005l267 1005h340zM1089 -82c105 0 187 -82 187 -188c0 -105 -82 -186 -187 -186c-106 0 -187 81 -187 186c0 106 81 188 187 188z" />
    <glyph glyph-name="uni1E89" unicode="&#x1e89;" horiz-adv-x="1793" 
d="M1053 981l200 -626l191 626h329l-338 -981h-349l-191 587l-189 -587h-347l-339 981h333l189 -623l198 623h313zM897 -82c105 0 187 -82 187 -188c0 -105 -82 -186 -187 -186c-106 0 -187 81 -187 186c0 106 81 188 187 188z" />
    <glyph glyph-name="uni1E92" unicode="&#x1e92;" horiz-adv-x="1284" 
d="M1208 1400v-262l-688 -837h688v-301h-1132v262l687 837h-686v301h1131zM642 -82c105 0 187 -82 187 -188c0 -105 -82 -186 -187 -186c-106 0 -187 81 -187 186c0 106 81 188 187 188z" />
    <glyph glyph-name="uni1E93" unicode="&#x1e93;" horiz-adv-x="1039" 
d="M952 981v-231l-433 -473h443v-277h-885v224l443 480h-426v277h858zM521 -82c105 0 187 -82 187 -188c0 -105 -82 -186 -187 -186c-106 0 -187 81 -187 186c0 106 81 188 187 188z" />
    <glyph glyph-name="uni1E94" unicode="&#x1e94;" horiz-adv-x="1284" 
d="M1208 1400v-262l-688 -837h688v-301h-1132v262l687 837h-686v301h1131zM290 -384v250h704v-250h-704z" />
    <glyph glyph-name="uni1E95" unicode="&#x1e95;" horiz-adv-x="1039" 
d="M952 981v-231l-433 -473h443v-277h-885v224l443 480h-426v277h858zM168 -384v250h704v-250h-704z" />
    <glyph glyph-name="uni1E96" unicode="&#x1e96;" horiz-adv-x="1153" 
d="M423 1441v-563c62 89 157 130 279 130c196 0 348 -137 348 -364v-644h-313v533c0 116 -58 181 -155 181c-87 0 -159 -59 -159 -186v-528h-313v1441h313zM228 -384v250h704v-250h-704z" />
    <glyph glyph-name="uni1E9E" unicode="&#x1e9e;" horiz-adv-x="1431" 
d="M664 542v230l229 305c-48 32 -106 46 -183 46c-171 0 -261 -97 -261 -240v-883h-335v893c0 262 155 533 603 533c300 0 476 -120 594 -268l-285 -369c208 -56 336 -191 336 -381c0 -267 -220 -433 -552 -433c-99 0 -176 6 -242 22l46 294c49 -11 95 -16 145 -16
c173 0 257 45 257 133c0 90 -96 134 -271 134h-81z" />
    <glyph glyph-name="Ygrave" unicode="&#x1ef2;" horiz-adv-x="1398" 
d="M1394 1400l-523 -861v-539h-335v537l-532 863h387l314 -559l313 559h376zM608 1509l-278 332h359l212 -332h-293z" />
    <glyph glyph-name="ygrave" unicode="&#x1ef3;" horiz-adv-x="1159" 
d="M1152 981l-724 -1383h-342l336 618l-413 765h359l223 -441l219 441h342zM499 1105l-278 332h359l212 -332h-293z" />
    <glyph glyph-name="uni1EF4" unicode="&#x1ef4;" horiz-adv-x="1398" 
d="M1394 1400l-523 -861v-539h-335v537l-532 863h387l314 -559l313 559h376zM704 -82c105 0 187 -82 187 -188c0 -105 -82 -186 -187 -186c-106 0 -187 81 -187 186c0 106 81 188 187 188z" />
    <glyph glyph-name="uni1EF5" unicode="&#x1ef5;" horiz-adv-x="1159" 
d="M1152 981l-724 -1383h-342l336 618l-413 765h359l223 -441l219 441h342zM881 -82c105 0 187 -82 187 -188c0 -105 -82 -186 -187 -186c-106 0 -187 81 -187 186c0 106 81 188 187 188z" />
    <glyph glyph-name="uni2007" unicode="&#x2007;" horiz-adv-x="1401" 
 />
    <glyph glyph-name="uni2008" unicode="&#x2008;" horiz-adv-x="580" 
 />
    <glyph glyph-name="uni2009" unicode="&#x2009;" horiz-adv-x="150" 
 />
    <glyph glyph-name="uni200B" unicode="&#x200b;" horiz-adv-x="0" 
 />
    <glyph glyph-name="uniFEFF" unicode="&#xfeff;" horiz-adv-x="0" 
 />
    <glyph glyph-name="uni2010" unicode="&#x2010;" horiz-adv-x="779" 
d="M690 665v-267h-601v267h601z" />
    <glyph glyph-name="uni2011" unicode="&#x2011;" horiz-adv-x="779" 
d="M690 665v-267h-601v267h601z" />
    <glyph glyph-name="figuredash" unicode="&#x2012;" horiz-adv-x="1200" 
d="M1092 660v-257h-985v257h985z" />
    <glyph glyph-name="endash" unicode="&#x2013;" horiz-adv-x="1137" 
d="M1061 660v-257h-985v257h985z" />
    <glyph glyph-name="emdash" unicode="&#x2014;" horiz-adv-x="1576" 
d="M1538 660v-257h-1500v257h1500z" />
    <glyph glyph-name="quoteleft" unicode="&#x2018;" horiz-adv-x="565" 
d="M418 790h-342l160 650h261z" />
    <glyph glyph-name="quoteright" unicode="&#x2019;" horiz-adv-x="565" 
d="M147 1440h342l-160 -650h-261z" />
    <glyph glyph-name="quotesinglbase" unicode="&#x201a;" horiz-adv-x="565" 
d="M147 363h342l-160 -650h-261z" />
    <glyph glyph-name="quotedblleft" unicode="&#x201c;" horiz-adv-x="1043" 
d="M418 790h-342l160 650h261zM896 790h-342l160 650h261z" />
    <glyph glyph-name="quotedblright" unicode="&#x201d;" horiz-adv-x="1043" 
d="M625 1440h342l-160 -650h-261zM147 1440h342l-160 -650h-261z" />
    <glyph glyph-name="quotedblbase" unicode="&#x201e;" horiz-adv-x="1043" 
d="M625 363h342l-160 -650h-261zM147 363h342l-160 -650h-261z" />
    <glyph glyph-name="dagger" unicode="&#x2020;" horiz-adv-x="801" 
d="M519 576h-236v414h-219v229h219v221h236v-221h218v-229h-218v-414z" />
    <glyph glyph-name="daggerdbl" unicode="&#x2021;" horiz-adv-x="801" 
d="M519 1440v-158h218v-215h-218v-132h218v-215h-218v-158h-236v158h-219v215h219v132h-219v215h219v158h236z" />
    <glyph glyph-name="bullet" unicode="&#x2022;" horiz-adv-x="922" 
d="M460 877c191 0 348 -154 348 -346s-157 -347 -348 -347s-346 155 -346 347s155 346 346 346z" />
    <glyph glyph-name="uni2023" unicode="&#x2023;" horiz-adv-x="954" 
d="M905 532l-768 -445v890z" />
    <glyph glyph-name="ellipsis" unicode="&#x2026;" horiz-adv-x="1694" 
d="M291 402c114 0 212 -98 212 -212c0 -116 -98 -216 -212 -216c-116 0 -215 100 -215 216c0 114 99 212 215 212zM848 402c114 0 213 -98 213 -212c0 -116 -99 -216 -213 -216c-116 0 -215 100 -215 216c0 114 99 212 215 212zM1405 402c114 0 213 -98 213 -212
c0 -116 -99 -216 -213 -216c-116 0 -215 100 -215 216c0 114 99 212 215 212z" />
    <glyph glyph-name="perthousand" unicode="&#x2030;" horiz-adv-x="2834" 
d="M448 1426c226 0 394 -165 394 -386c0 -222 -168 -386 -394 -386c-225 0 -393 164 -393 386c0 221 168 386 393 386zM448 1192c-84 0 -145 -65 -145 -152s61 -153 145 -153c85 0 146 66 146 153s-61 152 -146 152zM1633 1400l-995 -1400h-305l996 1400h304zM1525 746
c226 0 394 -166 394 -386c0 -222 -168 -386 -394 -386c-225 0 -393 164 -393 386c0 218 168 386 393 386zM1525 513c-84 0 -146 -66 -146 -153s62 -152 146 -152c85 0 146 65 146 152c0 88 -61 153 -146 153zM2385 746c226 0 394 -164 394 -386s-168 -386 -394 -386
c-225 0 -393 164 -393 386c0 218 168 386 393 386zM2385 513c-84 0 -145 -66 -145 -153s61 -152 145 -152c85 0 146 65 146 152c0 88 -61 153 -146 153z" />
    <glyph glyph-name="minute" unicode="&#x2032;" horiz-adv-x="590" 
d="M218 1400h296l-150 -705h-296z" />
    <glyph glyph-name="second" unicode="&#x2033;" horiz-adv-x="1007" 
d="M635 1400h296l-150 -705h-296zM218 1400h296l-150 -705h-296z" />
    <glyph glyph-name="uni2034" unicode="&#x2034;" horiz-adv-x="1385" 
d="M615 1400h296l-150 -705h-296zM1013 1400h296l-150 -705h-296zM218 1400h296l-150 -705h-296z" />
    <glyph glyph-name="guilsinglleft" unicode="&#x2039;" horiz-adv-x="639" 
d="M373 532l197 -402h-303l-197 402l197 401h303z" />
    <glyph glyph-name="guilsinglright" unicode="&#x203a;" horiz-adv-x="639" 
d="M266 531l-197 402h303l197 -402l-197 -401h-303z" />
    <glyph glyph-name="fraction" unicode="&#x2044;" horiz-adv-x="490" 
d="M823 1400l-883 -1400h-273l883 1400h273z" />
    <glyph glyph-name="uni2070" unicode="&#x2070;" horiz-adv-x="892" 
d="M446 1415c212 0 379 -161 379 -431s-167 -431 -379 -431s-379 161 -379 431s167 431 379 431zM446 1203c-85 0 -148 -75 -148 -219s63 -219 148 -219c84 0 149 75 149 219s-65 219 -149 219z" />
    <glyph glyph-name="uni2071" unicode="&#x2071;" horiz-adv-x="390" 
d="M303 1273v-705h-216v705h216zM194 1625c75 0 132 -57 132 -130c0 -75 -57 -131 -132 -131c-73 0 -130 56 -130 131c0 73 57 130 130 130z" />
    <glyph glyph-name="uni2074" unicode="&#x2074;" horiz-adv-x="742" 
d="M619 1122v-224h97v-197h-97v-133h-222v133h-370v152l260 546h241l-241 -501h110v86l66 138h156z" />
    <glyph glyph-name="uni2075" unicode="&#x2075;" horiz-adv-x="744" 
d="M632 1400v-202h-323l-2 -104h61c202 0 317 -95 317 -247c0 -177 -136 -295 -331 -295c-132 0 -243 49 -310 108l102 168c38 -31 123 -76 207 -76c68 0 103 30 103 79c0 47 -41 76 -133 76h-213l12 493h510z" />
    <glyph glyph-name="uni2076" unicode="&#x2076;" horiz-adv-x="760" 
d="M611 1400l-201 -274c200 -2 306 -126 306 -278c0 -171 -146 -295 -338 -295s-338 121 -338 288c0 81 33 161 88 242l217 317h266zM378 944c-61 0 -104 -42 -104 -98c0 -57 43 -98 104 -98c60 0 105 41 105 98c0 56 -45 98 -105 98z" />
    <glyph glyph-name="uni2077" unicode="&#x2077;" horiz-adv-x="698" 
d="M664 1400v-174l-320 -658h-265l322 627h-361v205h624z" />
    <glyph glyph-name="uni2078" unicode="&#x2078;" horiz-adv-x="805" 
d="M402 1415c179 0 324 -90 324 -241c0 -94 -54 -152 -126 -186c83 -32 148 -91 148 -193c0 -152 -156 -242 -346 -242c-189 0 -345 90 -345 242c0 101 64 161 147 193c-72 34 -126 92 -126 186c0 151 146 241 324 241zM402 906c-59 0 -102 -32 -102 -84s43 -84 102 -84
s103 32 103 84s-44 84 -103 84zM402 1229c-51 0 -88 -29 -88 -77c0 -46 37 -75 88 -75s89 29 89 75c0 48 -38 77 -89 77z" />
    <glyph glyph-name="uni2079" unicode="&#x2079;" horiz-adv-x="760" 
d="M149 568l199 274c-200 2 -304 126 -304 277c0 172 145 296 337 296s338 -121 338 -288c0 -81 -32 -162 -87 -242l-218 -317h-265zM381 1023c62 0 105 42 105 99s-43 98 -105 98c-61 0 -105 -41 -105 -98s44 -99 105 -99z" />
    <glyph glyph-name="uni207F" unicode="&#x207f;" horiz-adv-x="843" 
d="M495 1293c154 0 265 -108 265 -272v-453h-216v385c0 89 -43 137 -117 137c-69 0 -125 -45 -125 -138v-384h-215v705h208v-80c46 70 116 100 200 100z" />
    <glyph glyph-name="uni2080" unicode="&#x2080;" horiz-adv-x="892" 
d="M446 462c212 0 379 -161 379 -431s-167 -431 -379 -431s-379 161 -379 431s167 431 379 431zM446 250c-85 0 -148 -75 -148 -219s63 -219 148 -219c84 0 149 75 149 219s-65 219 -149 219z" />
    <glyph glyph-name="uni2081" unicode="&#x2081;" horiz-adv-x="541" 
d="M435 460v-845h-222v544l-179 -62v215z" />
    <glyph glyph-name="uni2082" unicode="&#x2082;" horiz-adv-x="730" 
d="M170 159l-126 153c58 68 159 150 324 150c180 0 299 -105 299 -270c0 -96 -33 -167 -140 -262l-123 -110h281v-205h-593v174l288 265c38 35 58 72 58 110c0 52 -44 86 -97 86c-72 0 -124 -44 -171 -91z" />
    <glyph glyph-name="uni2083" unicode="&#x2083;" horiz-adv-x="731" 
d="M335 462c188 0 322 -95 322 -241c0 -86 -43 -150 -120 -187c87 -35 137 -101 137 -187c0 -168 -163 -247 -335 -247c-130 0 -236 44 -305 123l122 142c47 -46 105 -72 171 -72c64 0 116 24 116 75c0 50 -60 76 -132 76h-93v182h96c65 0 115 27 115 74
c0 46 -40 68 -103 68c-78 0 -134 -34 -173 -75l-117 145c69 72 160 124 299 124z" />
    <glyph glyph-name="uni2084" unicode="&#x2084;" horiz-adv-x="742" 
d="M619 169v-224h97v-197h-97v-133h-222v133h-370v152l260 546h241l-241 -501h110v86l66 138h156z" />
    <glyph glyph-name="uni2085" unicode="&#x2085;" horiz-adv-x="744" 
d="M632 447v-202h-323l-2 -104h61c202 0 317 -95 317 -247c0 -177 -136 -295 -331 -295c-132 0 -243 49 -310 108l102 168c38 -31 123 -76 207 -76c68 0 103 30 103 79c0 47 -41 76 -133 76h-213l12 493h510z" />
    <glyph glyph-name="uni2086" unicode="&#x2086;" horiz-adv-x="760" 
d="M611 447l-201 -274c200 -2 306 -126 306 -278c0 -171 -146 -295 -338 -295s-338 121 -338 288c0 81 33 161 88 242l217 317h266zM378 -9c-61 0 -104 -42 -104 -98c0 -57 43 -98 104 -98c60 0 105 41 105 98c0 56 -45 98 -105 98z" />
    <glyph glyph-name="uni2087" unicode="&#x2087;" horiz-adv-x="698" 
d="M664 447v-174l-320 -658h-265l322 627h-361v205h624z" />
    <glyph glyph-name="uni2088" unicode="&#x2088;" horiz-adv-x="805" 
d="M402 462c179 0 324 -90 324 -241c0 -94 -54 -152 -126 -186c83 -32 148 -91 148 -193c0 -152 -156 -242 -346 -242c-189 0 -345 90 -345 242c0 101 64 161 147 193c-72 34 -126 92 -126 186c0 151 146 241 324 241zM402 -47c-59 0 -102 -32 -102 -84s43 -84 102 -84
s103 32 103 84s-44 84 -103 84zM402 276c-51 0 -88 -29 -88 -77c0 -46 37 -75 88 -75s89 29 89 75c0 48 -38 77 -89 77z" />
    <glyph glyph-name="uni2089" unicode="&#x2089;" horiz-adv-x="760" 
d="M149 -385l199 274c-200 2 -304 126 -304 277c0 172 145 296 337 296s338 -121 338 -288c0 -81 -32 -162 -87 -242l-218 -317h-265zM381 70c62 0 105 42 105 99s-43 98 -105 98c-61 0 -105 -41 -105 -98s44 -99 105 -99z" />
    <glyph glyph-name="Euro" unicode="&#x20ac;" horiz-adv-x="1400" 
d="M1045 644v-198h-455c64 -117 172 -181 296 -181c117 0 208 46 277 112l159 -243c-113 -100 -256 -159 -432 -159c-320 0 -561 175 -646 471h-167v198h134c-1 18 -1 37 -1 56s0 37 1 56h-134v198h167c85 296 326 471 646 471c170 0 317 -55 435 -160l-164 -244
c-70 69 -161 114 -276 114c-130 0 -235 -68 -296 -181h456v-198h-512c-2 -18 -2 -37 -2 -56s1 -38 2 -56h512z" />
    <glyph glyph-name="uni20BA" unicode="&#x20ba;" horiz-adv-x="1400" 
d="M993 887v-209l-375 -168v-205h136c133 0 231 64 310 201l253 -157c-116 -213 -295 -349 -584 -349h-440v364l-151 -67v208l151 68v110l-151 -68v209l151 68v512h325v-366l375 168v-209l-375 -168v-110z" />
    <glyph glyph-name="uni2100" unicode="&#x2100;" horiz-adv-x="2000" 
d="M489 1425c197 0 336 -96 336 -313v-412h-206v65c-45 -45 -110 -83 -206 -83c-154 0 -250 88 -250 224s110 219 301 219h143c-8 72 -52 111 -140 111c-81 0 -144 -30 -191 -63l-83 162c65 49 165 90 296 90zM469 848c59 0 111 30 145 68v73h-119c-78 0 -111 -33 -111 -71
s28 -70 85 -70zM1617 1400l-883 -1400h-273l883 1400h273zM1541 718c127 0 230 -55 296 -149l-166 -121c-37 45 -79 68 -135 68c-84 0 -154 -64 -154 -170s69 -170 153 -170c55 0 102 25 138 69l164 -122c-67 -93 -169 -148 -296 -148c-225 0 -379 156 -379 371
c0 216 154 372 379 372z" />
    <glyph glyph-name="uni2101" unicode="&#x2101;" horiz-adv-x="2000" 
d="M491 1425c197 0 336 -96 336 -313v-412h-206v65c-45 -45 -110 -83 -206 -83c-154 0 -250 88 -250 224s110 219 301 219h143c-8 72 -52 111 -140 111c-81 0 -144 -30 -191 -63l-83 162c65 49 165 90 296 90zM471 848c59 0 111 30 145 68v73h-119c-78 0 -111 -33 -111 -71
s28 -70 85 -70zM1618 1400l-883 -1400h-273l883 1400h273zM1814 655l-63 -168c-67 29 -157 55 -230 55c-63 0 -89 -19 -89 -48c0 -35 49 -42 113 -52l55 -8c151 -24 233 -95 233 -213c0 -153 -121 -246 -326 -246c-114 0 -239 21 -322 77l77 166c68 -42 146 -67 246 -67
c75 0 107 18 107 51c0 29 -32 42 -112 54l-46 7c-167 24 -248 95 -248 219c0 150 113 236 303 236c114 0 192 -19 302 -63z" />
    <glyph glyph-name="afii61248" unicode="&#x2105;" horiz-adv-x="2000" 
d="M517 1425c127 0 230 -55 296 -149l-166 -121c-37 45 -79 68 -135 68c-84 0 -154 -64 -154 -170s69 -170 153 -170c55 0 102 25 138 69l164 -122c-67 -93 -169 -148 -296 -148c-225 0 -379 156 -379 371c0 216 154 372 379 372zM1561 1400l-883 -1400h-273l883 1400h273z
M1480 718c220 0 383 -159 383 -372s-163 -371 -383 -371s-382 158 -382 371s162 372 382 372zM1480 516c-93 0 -162 -70 -162 -170s69 -170 162 -170s163 70 163 170s-70 170 -163 170z" />
    <glyph glyph-name="uni2106" unicode="&#x2106;" horiz-adv-x="2000" 
d="M503 1425c127 0 230 -55 296 -149l-166 -121c-37 45 -79 68 -135 68c-84 0 -154 -64 -154 -170s69 -170 153 -170c55 0 102 25 138 69l164 -122c-67 -93 -169 -148 -296 -148c-225 0 -379 156 -379 371c0 216 154 372 379 372zM1548 1400l-883 -1400h-273l883 1400h273z
M1877 698v-403c0 -221 -154 -320 -339 -320s-338 99 -338 320v403h215v-384c0 -96 53 -138 123 -138c72 0 124 42 124 138v384h215z" />
    <glyph glyph-name="afii61289" unicode="&#x2113;" horiz-adv-x="1032" 
d="M161 366l-77 261c54 17 106 36 154 56l1 387c0 239 148 396 374 396c199 0 348 -141 348 -345c0 -276 -177 -462 -442 -603v-145c0 -72 49 -111 115 -111c68 0 124 27 178 63l123 -229c-87 -62 -190 -103 -320 -103c-237 0 -377 129 -377 365v35zM519 1049v-213
c104 79 167 167 167 264c0 63 -28 104 -75 104c-55 0 -92 -49 -92 -155z" />
    <glyph glyph-name="afii61352" unicode="&#x2116;" horiz-adv-x="2415" 
d="M2343 577v-244h-726v244h726zM1980 1419c220 0 382 -158 382 -371c0 -212 -162 -371 -382 -371s-382 159 -382 371c0 213 162 371 382 371zM1980 1207c-87 0 -151 -66 -151 -159c0 -92 64 -158 151 -158c86 0 151 66 151 158c0 93 -65 159 -151 159zM1420 1400v-1400
h-321l-638 854v-854h-334v1400h320l638 -854v854h335z" />
    <glyph glyph-name="uni2117" unicode="&#x2117;" horiz-adv-x="1818" 
d="M909 1515c457 0 826 -361 826 -804c0 -444 -369 -806 -826 -806s-826 362 -826 806c0 443 369 804 826 804zM909 1258c-307 0 -556 -244 -556 -547c0 -304 249 -549 556 -549s555 245 555 549c0 303 -248 547 -555 547zM979 1103c227 0 347 -117 347 -284
c0 -161 -120 -276 -344 -276h-138v-230h-244v790h379zM976 896h-132v-151h132c67 0 103 28 103 74c0 48 -36 77 -103 77z" />
    <glyph glyph-name="uni2120" unicode="&#x2120;" horiz-adv-x="1662" 
d="M650 1350l-74 -148c-47 21 -115 49 -195 49c-60 0 -105 -13 -105 -43c0 -38 70 -42 144 -52l26 -3c143 -18 224 -86 224 -187c0 -169 -151 -233 -302 -233c-116 0 -227 24 -304 73l85 148c54 -29 123 -62 221 -62c60 0 106 13 106 46c0 36 -46 42 -135 52l-32 4
c-152 16 -227 83 -227 195c0 132 117 222 290 222c124 0 197 -23 278 -61zM1611 746h-207v393l-119 -335h-197l-123 338v-396h-203v654h283l142 -365l139 365h285v-654z" />
    <glyph glyph-name="trademark" unicode="&#x2122;" horiz-adv-x="1661" 
d="M1610 746h-207v393l-118 -335h-198l-122 338v-396h-204v654h283l142 -365l140 365h284v-654zM461 746h-205v467h-205v187h615v-187h-205v-467z" />
    <glyph glyph-name="Omega" unicode="&#x2126;" horiz-adv-x="1682" 
d="M51 296h236c-117 116 -184 272 -184 450c0 392 305 680 738 680c432 0 738 -288 738 -680c0 -178 -68 -334 -184 -450h236v-296h-666v270c160 51 265 204 265 409c0 254 -161 427 -389 427c-229 0 -390 -173 -390 -427c0 -205 105 -358 265 -409v-270h-665v296z" />
    <glyph glyph-name="estimated" unicode="&#x212e;" horiz-adv-x="2000" 
d="M531 639v-281c0 -133 40 -235 160 -292c92 -44 198 -70 309 -70c243 0 457 112 581 300l97 -76c-147 -217 -397 -346 -678 -346c-450 0 -820 331 -820 826s370 826 820 826s820 -331 820 -826c0 -21 -1 -41 -2 -61h-1287zM531 761h947v274c0 132 -39 234 -157 293
c-96 48 -204 76 -321 76c-111 0 -217 -26 -309 -70c-120 -57 -160 -159 -160 -292v-281z" />
    <glyph glyph-name="uni214D" unicode="&#x214d;" horiz-adv-x="2107" 
d="M1932 701l-86 -172c-53 26 -128 58 -221 58c-66 0 -116 -16 -116 -50c0 -43 80 -45 164 -59l30 -5c163 -27 251 -99 251 -216c0 -197 -172 -270 -343 -270c-134 0 -257 28 -345 85l97 171c61 -34 138 -72 251 -72c66 0 115 15 115 53c0 41 -51 48 -151 60l-34 4
c-177 23 -258 97 -258 228c0 152 132 256 327 256c143 0 226 -27 319 -71zM637 1400l266 -758h-228l-36 121h-260l-36 -121h-225l265 758h254zM508 1202l-73 -247h147zM1692 1400l-883 -1400h-273l883 1400h273z" />
    <glyph glyph-name="uni2150" unicode="&#x2150;" horiz-adv-x="1789" 
d="M1387 1400l-883 -1400h-273l883 1400h273zM1755 832v-174l-320 -658h-265l322 627h-361v205h624zM435 1413v-845h-222v544l-179 -62v215z" />
    <glyph glyph-name="uni2151" unicode="&#x2151;" horiz-adv-x="1814" 
d="M1387 1400l-883 -1400h-273l883 1400h273zM1203 0l199 274c-200 2 -304 126 -304 277c0 172 145 296 337 296s338 -121 338 -288c0 -81 -32 -162 -87 -242l-218 -317h-265zM1435 455c62 0 105 42 105 99s-43 98 -105 98c-61 0 -105 -41 -105 -98s44 -99 105 -99z
M435 1413v-845h-222v544l-179 -62v215z" />
    <glyph glyph-name="uni2152" unicode="&#x2152;" horiz-adv-x="2507" 
d="M1387 1400l-883 -1400h-273l883 1400h273zM1509 845v-845h-222v544l-179 -62v215zM2061 847c212 0 379 -161 379 -431s-167 -431 -379 -431s-379 161 -379 431s167 431 379 431zM2061 635c-85 0 -148 -75 -148 -219s63 -219 148 -219c84 0 149 75 149 219
s-65 219 -149 219zM435 1413v-845h-222v544l-179 -62v215z" />
    <glyph glyph-name="onethird" unicode="&#x2153;" horiz-adv-x="1785" 
d="M1387 1400l-883 -1400h-273l883 1400h273zM1389 847c188 0 322 -95 322 -241c0 -86 -43 -150 -120 -187c87 -35 137 -101 137 -187c0 -168 -163 -247 -335 -247c-130 0 -236 44 -305 123l122 142c47 -46 105 -72 171 -72c64 0 116 24 116 75c0 50 -60 76 -132 76h-93v182
h96c65 0 115 27 115 74c0 46 -40 68 -103 68c-78 0 -134 -34 -173 -75l-117 145c69 72 160 124 299 124zM435 1413v-845h-222v544l-179 -62v215z" />
    <glyph glyph-name="twothirds" unicode="&#x2154;" horiz-adv-x="1981" 
d="M1583 1400l-883 -1400h-273l883 1400h273zM1585 847c188 0 322 -95 322 -241c0 -86 -43 -150 -120 -187c87 -35 137 -101 137 -187c0 -168 -163 -247 -335 -247c-130 0 -236 44 -305 123l122 142c47 -46 105 -72 171 -72c64 0 116 24 116 75c0 50 -60 76 -132 76h-93v182
h96c65 0 115 27 115 74c0 46 -40 68 -103 68c-78 0 -134 -34 -173 -75l-117 145c69 72 160 124 299 124zM170 1112l-126 153c58 68 159 150 324 150c180 0 299 -105 299 -270c0 -96 -33 -167 -140 -262l-123 -110h281v-205h-593v174l288 265c38 35 58 72 58 110
c0 52 -44 86 -97 86c-72 0 -124 -44 -171 -91z" />
    <glyph glyph-name="uni2155" unicode="&#x2155;" horiz-adv-x="1798" 
d="M1387 1400l-883 -1400h-273l883 1400h273zM1686 832v-202h-323l-2 -104h61c202 0 317 -95 317 -247c0 -177 -136 -295 -331 -295c-132 0 -243 49 -310 108l102 168c38 -31 123 -76 207 -76c68 0 103 30 103 79c0 47 -41 76 -133 76h-213l12 493h510zM435 1413v-845h-222
v544l-179 -62v215z" />
    <glyph glyph-name="uni2156" unicode="&#x2156;" horiz-adv-x="1994" 
d="M1583 1400l-883 -1400h-273l883 1400h273zM1882 832v-202h-323l-2 -104h61c202 0 317 -95 317 -247c0 -177 -136 -295 -331 -295c-132 0 -243 49 -310 108l102 168c38 -31 123 -76 207 -76c68 0 103 30 103 79c0 47 -41 76 -133 76h-213l12 493h510zM170 1112l-126 153
c58 68 159 150 324 150c180 0 299 -105 299 -270c0 -96 -33 -167 -140 -262l-123 -110h281v-205h-593v174l288 265c38 35 58 72 58 110c0 52 -44 86 -97 86c-72 0 -124 -44 -171 -91z" />
    <glyph glyph-name="uni2157" unicode="&#x2157;" horiz-adv-x="1965" 
d="M1554 1400l-883 -1400h-273l883 1400h273zM1853 832v-202h-323l-2 -104h61c202 0 317 -95 317 -247c0 -177 -136 -295 -331 -295c-132 0 -243 49 -310 108l102 168c38 -31 123 -76 207 -76c68 0 103 30 103 79c0 47 -41 76 -133 76h-213l12 493h510zM335 1415
c188 0 322 -95 322 -241c0 -86 -43 -150 -120 -187c87 -35 137 -101 137 -187c0 -168 -163 -247 -335 -247c-130 0 -236 44 -305 123l122 142c47 -46 105 -72 171 -72c64 0 116 24 116 75c0 50 -60 76 -132 76h-93v182h96c65 0 115 27 115 74c0 46 -40 68 -103 68
c-78 0 -134 -34 -173 -75l-117 145c69 72 160 124 299 124z" />
    <glyph glyph-name="uni2158" unicode="&#x2158;" horiz-adv-x="1984" 
d="M1572 1400l-883 -1400h-273l883 1400h273zM1871 832v-202h-323l-2 -104h61c202 0 317 -95 317 -247c0 -177 -136 -295 -331 -295c-132 0 -243 49 -310 108l102 168c38 -31 123 -76 207 -76c68 0 103 30 103 79c0 47 -41 76 -133 76h-213l12 493h510zM619 1122v-224h97
v-197h-97v-133h-222v133h-370v152l260 546h241l-241 -501h110v86l66 138h156z" />
    <glyph glyph-name="uni2159" unicode="&#x2159;" horiz-adv-x="1731" 
d="M1387 1400l-883 -1400h-273l883 1400h273zM1582 832l-201 -274c200 -2 306 -126 306 -278c0 -171 -146 -295 -338 -295s-338 121 -338 288c0 81 33 161 88 242l217 317h266zM1349 376c-61 0 -104 -42 -104 -98c0 -57 43 -98 104 -98c60 0 105 41 105 98
c0 56 -45 98 -105 98zM435 1413v-845h-222v544l-179 -62v215z" />
    <glyph glyph-name="uni215A" unicode="&#x215a;" horiz-adv-x="1908" 
d="M1564 1400l-883 -1400h-273l883 1400h273zM1759 832l-201 -274c200 -2 306 -126 306 -278c0 -171 -146 -295 -338 -295s-338 121 -338 288c0 81 33 161 88 242l217 317h266zM1526 376c-61 0 -104 -42 -104 -98c0 -57 43 -98 104 -98c60 0 105 41 105 98
c0 56 -45 98 -105 98zM632 1400v-202h-323l-2 -104h61c202 0 317 -95 317 -247c0 -177 -136 -295 -331 -295c-132 0 -243 49 -310 108l102 168c38 -31 123 -76 207 -76c68 0 103 30 103 79c0 47 -41 76 -133 76h-213l12 493h510z" />
    <glyph glyph-name="oneeighth" unicode="&#x215b;" horiz-adv-x="1850" 
d="M1387 1400l-883 -1400h-273l883 1400h273zM1447 847c179 0 324 -90 324 -241c0 -94 -54 -152 -126 -186c83 -32 148 -91 148 -193c0 -152 -156 -242 -346 -242c-189 0 -345 90 -345 242c0 101 64 161 147 193c-72 34 -126 92 -126 186c0 151 146 241 324 241zM1447 338
c-59 0 -102 -32 -102 -84s43 -84 102 -84s103 32 103 84s-44 84 -103 84zM1447 661c-51 0 -88 -29 -88 -77c0 -46 37 -75 88 -75s89 29 89 75c0 48 -38 77 -89 77zM435 1413v-845h-222v544l-179 -62v215z" />
    <glyph glyph-name="threeeighths" unicode="&#x215c;" horiz-adv-x="2017" 
d="M1554 1400l-883 -1400h-273l883 1400h273zM1614 847c179 0 324 -90 324 -241c0 -94 -54 -152 -126 -186c83 -32 148 -91 148 -193c0 -152 -156 -242 -346 -242c-189 0 -345 90 -345 242c0 101 64 161 147 193c-72 34 -126 92 -126 186c0 151 146 241 324 241zM1614 338
c-59 0 -102 -32 -102 -84s43 -84 102 -84s103 32 103 84s-44 84 -103 84zM1614 661c-51 0 -88 -29 -88 -77c0 -46 37 -75 88 -75s89 29 89 75c0 48 -38 77 -89 77zM335 1415c188 0 322 -95 322 -241c0 -86 -43 -150 -120 -187c87 -35 137 -101 137 -187
c0 -168 -163 -247 -335 -247c-130 0 -236 44 -305 123l122 142c47 -46 105 -72 171 -72c64 0 116 24 116 75c0 50 -60 76 -132 76h-93v182h96c65 0 115 27 115 74c0 46 -40 68 -103 68c-78 0 -134 -34 -173 -75l-117 145c69 72 160 124 299 124z" />
    <glyph glyph-name="fiveeighths" unicode="&#x215d;" horiz-adv-x="2027" 
d="M1564 1400l-883 -1400h-273l883 1400h273zM1624 847c179 0 324 -90 324 -241c0 -94 -54 -152 -126 -186c83 -32 148 -91 148 -193c0 -152 -156 -242 -346 -242c-189 0 -345 90 -345 242c0 101 64 161 147 193c-72 34 -126 92 -126 186c0 151 146 241 324 241zM1624 338
c-59 0 -102 -32 -102 -84s43 -84 102 -84s103 32 103 84s-44 84 -103 84zM1624 661c-51 0 -88 -29 -88 -77c0 -46 37 -75 88 -75s89 29 89 75c0 48 -38 77 -89 77zM632 1400v-202h-323l-2 -104h61c202 0 317 -95 317 -247c0 -177 -136 -295 -331 -295
c-132 0 -243 49 -310 108l102 168c38 -31 123 -76 207 -76c68 0 103 30 103 79c0 47 -41 76 -133 76h-213l12 493h510z" />
    <glyph glyph-name="seveneighths" unicode="&#x215e;" horiz-adv-x="1852" 
d="M1389 1400l-883 -1400h-273l883 1400h273zM1449 847c179 0 324 -90 324 -241c0 -94 -54 -152 -126 -186c83 -32 148 -91 148 -193c0 -152 -156 -242 -346 -242c-189 0 -345 90 -345 242c0 101 64 161 147 193c-72 34 -126 92 -126 186c0 151 146 241 324 241zM1449 338
c-59 0 -102 -32 -102 -84s43 -84 102 -84s103 32 103 84s-44 84 -103 84zM1449 661c-51 0 -88 -29 -88 -77c0 -46 37 -75 88 -75s89 29 89 75c0 48 -38 77 -89 77zM664 1400v-174l-320 -658h-265l322 627h-361v205h624z" />
    <glyph glyph-name="uni215F" unicode="&#x215f;" horiz-adv-x="1054" 
d="M1387 1400l-883 -1400h-273l883 1400h273zM435 1413v-845h-222v544l-179 -62v215z" />
    <glyph glyph-name="uni2189" unicode="&#x2189;" horiz-adv-x="2060" 
d="M1662 1400l-883 -1400h-273l883 1400h273zM1664 847c188 0 322 -95 322 -241c0 -86 -43 -150 -120 -187c87 -35 137 -101 137 -187c0 -168 -163 -247 -335 -247c-130 0 -236 44 -305 123l122 142c47 -46 105 -72 171 -72c64 0 116 24 116 75c0 50 -60 76 -132 76h-93v182
h96c65 0 115 27 115 74c0 46 -40 68 -103 68c-78 0 -134 -34 -173 -75l-117 145c69 72 160 124 299 124zM446 1415c212 0 379 -161 379 -431s-167 -431 -379 -431s-379 161 -379 431s167 431 379 431zM446 1203c-85 0 -148 -75 -148 -219s63 -219 148 -219
c84 0 149 75 149 219s-65 219 -149 219z" />
    <glyph glyph-name="arrowleft" unicode="&#x2190;" horiz-adv-x="2000" 
d="M1843 524h-921c-93 0 -182 0 -289 9c93 -77 162 -141 257 -233l124 -122l-189 -188l-668 668l668 668l189 -188l-124 -122c-95 -92 -164 -156 -257 -233c107 9 196 9 289 9h921v-268z" />
    <glyph glyph-name="arrowup" unicode="&#x2191;" horiz-adv-x="2000" 
d="M866 -138v921c0 93 0 182 9 289c-77 -93 -141 -162 -233 -257l-122 -124l-188 189l668 668l668 -668l-188 -189l-122 124c-92 95 -156 164 -233 257c9 -107 9 -196 9 -289v-921h-268z" />
    <glyph glyph-name="arrowright" unicode="&#x2192;" horiz-adv-x="2000" 
d="M157 792h921c93 0 182 0 289 -9c-93 77 -162 141 -257 233l-124 122l189 188l668 -668l-668 -668l-189 188l124 122c95 92 164 156 257 233c-107 -9 -196 -9 -289 -9h-921v268z" />
    <glyph glyph-name="arrowdown" unicode="&#x2193;" horiz-adv-x="2000" 
d="M1134 1548v-921c0 -93 0 -182 -9 -289c77 93 141 162 233 257l122 124l188 -189l-668 -668l-668 668l188 189l122 -124c92 -95 156 -164 233 -257c-9 107 -9 196 -9 289v921h268z" />
    <glyph glyph-name="uni2196" unicode="&#x2196;" horiz-adv-x="2000" 
d="M1454 -14l-651 652c-66 66 -129 129 -199 211c12 -120 16 -215 17 -347l2 -173h-267v945h945v-267l-173 2c-132 1 -227 5 -347 16c82 -69 146 -133 211 -198l651 -652z" />
    <glyph glyph-name="uni2197" unicode="&#x2197;" horiz-adv-x="2000" 
d="M309 157l652 651c66 65 129 129 210 198c-119 -11 -214 -15 -346 -16l-174 -2v267h946v-946h-268l2 174c2 132 6 227 17 346c-70 -82 -133 -145 -198 -210l-652 -651z" />
    <glyph glyph-name="uni2198" unicode="&#x2198;" horiz-adv-x="2000" 
d="M499 1349l651 -652c65 -66 129 -129 199 -210c-12 119 -16 214 -17 346l-2 174h267v-946h-946v268l174 -2c132 -2 227 -6 346 -17c-81 70 -145 133 -210 198l-651 652z" />
    <glyph glyph-name="uni2199" unicode="&#x2199;" horiz-adv-x="2000" 
d="M1644 1140l-652 -651c-66 -65 -129 -129 -210 -199c119 11 214 15 346 17l174 2v-267h-946v945h268l-2 -174c-2 -132 -6 -226 -17 -346c70 82 133 145 198 210l652 652z" />
    <glyph glyph-name="partialdiff" unicode="&#x2202;" horiz-adv-x="1172" 
d="M245 1255l183 203c394 -168 680 -524 680 -953c0 -305 -214 -531 -534 -531c-298 0 -521 203 -521 474c0 277 199 480 460 480c79 0 150 -20 208 -57c-96 163 -267 280 -476 384zM586 664c-122 0 -213 -86 -213 -210c0 -122 91 -209 213 -209s213 87 213 209
c0 124 -91 210 -213 210z" />
    <glyph glyph-name="Delta" unicode="&#x2206;" horiz-adv-x="1373" 
d="M886 1400l436 -1138v-262h-1271v262l436 1138h399zM687 1073l-277 -764h553z" />
    <glyph glyph-name="product" unicode="&#x220f;" horiz-adv-x="1460" 
d="M1333 1400v-1665h-334v1356h-538v-1356h-334v1665h1206z" />
    <glyph glyph-name="summation" unicode="&#x2211;" horiz-adv-x="1235" 
d="M1158 1400v-310h-602l381 -416v-200l-390 -429h612v-310h-1083v262l519 572l-518 569v262h1081z" />
    <glyph glyph-name="minus" unicode="&#x2212;" horiz-adv-x="1200" 
d="M1071 660v-257h-942v257h942z" />
    <glyph glyph-name="uni2219" unicode="&#x2219;" horiz-adv-x="1200" 
d="M599 877c191 0 348 -154 348 -346s-157 -347 -348 -347s-346 155 -346 347s155 346 346 346z" />
    <glyph glyph-name="radical" unicode="&#x221a;" horiz-adv-x="1351" 
d="M1339 1440l-557 -1705h-399l-370 1000h356l215 -623l402 1328h353z" />
    <glyph glyph-name="infinity" unicode="&#x221e;" horiz-adv-x="1742" 
d="M34 528c0 269 199 439 429 439c165 0 279 -108 408 -249c130 141 243 249 408 249c230 0 429 -170 429 -439s-199 -439 -429 -439c-165 0 -278 107 -408 248c-129 -141 -243 -248 -408 -248c-230 0 -429 170 -429 439zM309 528c0 -119 68 -181 154 -181
c62 0 113 50 232 180v1c-119 130 -170 181 -232 181c-86 0 -154 -63 -154 -181zM1434 528c0 118 -68 181 -155 181c-61 0 -112 -51 -232 -181c120 -131 171 -181 232 -181c87 0 155 62 155 181z" />
    <glyph glyph-name="integral" unicode="&#x222b;" horiz-adv-x="664" 
d="M706 1406l-62 -278c-17 4 -35 6 -54 6c-69 0 -103 -39 -103 -124v-892c0 -264 -145 -409 -373 -409c-60 0 -113 7 -159 20l63 278c16 -4 34 -6 54 -6c68 0 102 39 102 124v892c0 264 145 409 373 409c61 0 113 -7 159 -20z" />
    <glyph glyph-name="congruent" unicode="&#x2245;" horiz-adv-x="1200" 
d="M1071 436v-258h-942v258h942zM1071 885v-258h-942v258h942zM960 1378l138 -187c-76 -105 -193 -164 -314 -164c-178 0 -272 101 -375 101c-55 0 -109 -35 -168 -99l-138 186c75 105 193 164 313 164c179 0 273 -100 375 -100c55 0 109 34 169 99z" />
    <glyph glyph-name="approxequal" unicode="&#x2248;" horiz-adv-x="1200" 
d="M960 926l138 -187c-76 -105 -193 -164 -314 -164c-178 0 -272 101 -375 101c-55 0 -109 -35 -168 -99l-138 186c75 105 193 164 313 164c179 0 273 -100 375 -100c55 0 109 34 169 99zM960 482l138 -187c-76 -105 -193 -164 -314 -164c-178 0 -272 101 -375 101
c-55 0 -109 -35 -168 -99l-138 186c75 105 193 164 313 164c179 0 273 -100 375 -100c55 0 109 34 169 99z" />
    <glyph glyph-name="uni2259" unicode="&#x2259;" horiz-adv-x="1200" 
d="M1071 436v-258h-942v258h942zM1071 885v-258h-942v258h942zM998 1032h-284l-113 144l-114 -144h-284l225 332h344z" />
    <glyph glyph-name="notequal" unicode="&#x2260;" horiz-adv-x="1200" 
d="M1071 436v-258h-488l-77 -178h-267l77 178h-187v258h299l83 191h-382v258h494l78 179h267l-78 -179h181v-258h-293l-83 -191h376z" />
    <glyph glyph-name="lessequal" unicode="&#x2264;" horiz-adv-x="1200" 
d="M1012 1240v-295l-510 -178l510 -178v-295l-823 331v284zM189 0v258h823v-258h-823z" />
    <glyph glyph-name="greaterequal" unicode="&#x2265;" horiz-adv-x="1200" 
d="M189 945v295l823 -331v-284l-823 -331v295l510 178zM1012 258v-258h-823v258h823z" />
    <glyph glyph-name="dotmath" unicode="&#x22c5;" horiz-adv-x="1200" 
d="M601 745c115 0 213 -99 213 -213c0 -116 -98 -216 -213 -216s-215 100 -215 216c0 114 100 213 215 213z" />
    <glyph glyph-name="uni2300" unicode="&#x2205;" horiz-adv-x="1348" 
d="M1039 1067l182 -182l-107 -107c44 -76 70 -164 70 -258c0 -282 -228 -510 -510 -510c-95 0 -183 26 -258 70l-107 -107l-182 182l106 106c-44 76 -70 164 -70 259c0 282 228 511 511 511c94 0 182 -26 258 -71zM420 520c0 -31 5 -61 15 -88l325 325c-27 10 -56 16 -86 16
c-141 0 -254 -113 -254 -253zM674 268c139 0 252 112 252 252c0 29 -5 57 -14 84l-323 -322c27 -9 55 -14 85 -14z" />
    <glyph glyph-name="uni2300" unicode="&#x2300;" horiz-adv-x="1348" 
d="M1039 1067l182 -182l-107 -107c44 -76 70 -164 70 -258c0 -282 -228 -510 -510 -510c-95 0 -183 26 -258 70l-107 -107l-182 182l106 106c-44 76 -70 164 -70 259c0 282 228 511 511 511c94 0 182 -26 258 -71zM420 520c0 -31 5 -61 15 -88l325 325c-27 10 -56 16 -86 16
c-141 0 -254 -113 -254 -253zM674 268c139 0 252 112 252 252c0 29 -5 57 -14 84l-323 -322c27 -9 55 -14 85 -14z" />
    <glyph glyph-name="uni2460" unicode="&#x2460;" horiz-adv-x="2050" 
d="M1026 1615c518 0 936 -410 936 -913c0 -505 -418 -917 -936 -917c-519 0 -937 412 -937 917c0 503 418 913 937 913zM1026 1337c-356 0 -644 -284 -644 -635c0 -354 288 -638 644 -638c355 0 644 284 644 638c0 351 -289 635 -644 635zM1170 1142v-857h-225v551l-189 -65
v219z" />
    <glyph glyph-name="uni2461" unicode="&#x2461;" horiz-adv-x="2050" 
d="M1026 1615c518 0 936 -410 936 -913c0 -505 -418 -917 -936 -917c-519 0 -937 412 -937 917c0 503 418 913 937 913zM1026 1337c-356 0 -644 -284 -644 -635c0 -354 288 -638 644 -638c355 0 644 284 644 638c0 351 -289 635 -644 635zM821 836l-128 156
c58 69 161 153 331 153c183 0 305 -108 305 -275c0 -100 -38 -172 -144 -266l-125 -111h286v-208h-605v177l295 268c39 36 59 73 59 111c0 54 -44 88 -99 88c-74 0 -126 -45 -175 -93z" />
    <glyph glyph-name="uni2462" unicode="&#x2462;" horiz-adv-x="2050" 
d="M1026 1615c518 0 936 -410 936 -913c0 -505 -418 -917 -936 -917c-519 0 -937 412 -937 917c0 503 418 913 937 913zM1026 1337c-356 0 -644 -284 -644 -635c0 -354 288 -638 644 -638c355 0 644 284 644 638c0 351 -289 635 -644 635zM1016 1145c192 0 328 -97 328 -246
c0 -87 -44 -152 -122 -189c89 -36 140 -102 140 -189c0 -171 -166 -252 -342 -252c-133 0 -241 45 -311 125l123 145c49 -48 109 -74 176 -74c65 0 120 25 120 75c0 52 -62 79 -136 79h-95v184h97c68 0 119 28 119 76c0 45 -42 68 -106 68c-80 0 -137 -35 -176 -76l-120 148
c70 73 163 126 305 126z" />
    <glyph glyph-name="uni2463" unicode="&#x2463;" horiz-adv-x="2050" 
d="M1026 1615c518 0 936 -410 936 -913c0 -505 -418 -917 -936 -917c-519 0 -937 412 -937 917c0 503 418 913 937 913zM1026 1337c-356 0 -644 -284 -644 -635c0 -354 288 -638 644 -638c355 0 644 284 644 638c0 351 -289 635 -644 635zM1262 847v-226h99v-201h-99v-135
h-226v135h-379v153l266 556h246l-246 -508h113v80l70 146h156z" />
    <glyph glyph-name="uni2464" unicode="&#x2464;" horiz-adv-x="2050" 
d="M1026 1615c518 0 936 -410 936 -913c0 -505 -418 -917 -936 -917c-519 0 -937 412 -937 917c0 503 418 913 937 913zM1026 1337c-356 0 -644 -284 -644 -635c0 -354 288 -638 644 -638c355 0 644 284 644 638c0 351 -289 635 -644 635zM1308 1129v-206h-329l-3 -105h67
c204 0 320 -96 320 -250c0 -179 -139 -299 -338 -299c-135 0 -248 49 -316 109l103 171c39 -31 126 -77 212 -77c70 0 105 30 105 80c0 47 -41 77 -137 77h-216l12 500h520z" />
    <glyph glyph-name="uni2465" unicode="&#x2465;" horiz-adv-x="2050" 
d="M1026 1615c518 0 936 -410 936 -913c0 -505 -418 -917 -936 -917c-519 0 -937 412 -937 917c0 503 418 913 937 913zM1026 1337c-356 0 -644 -284 -644 -635c0 -354 288 -638 644 -638c355 0 644 284 644 638c0 351 -289 635 -644 635zM1258 1129l-204 -278
c202 -2 311 -128 311 -281c0 -175 -149 -301 -344 -301s-344 123 -344 293c0 82 33 163 90 246l221 321h270zM1021 666c-62 0 -106 -43 -106 -99c0 -57 44 -99 106 -99c61 0 107 42 107 99c0 56 -46 99 -107 99z" />
    <glyph glyph-name="uni2466" unicode="&#x2466;" horiz-adv-x="2050" 
d="M1026 1615c518 0 936 -410 936 -913c0 -505 -418 -917 -936 -917c-519 0 -937 412 -937 917c0 503 418 913 937 913zM1026 1337c-356 0 -644 -284 -644 -635c0 -354 288 -638 644 -638c355 0 644 284 644 638c0 351 -289 635 -644 635zM1369 1129v-177l-328 -667h-270
l330 636h-370v208h638z" />
    <glyph glyph-name="uni2467" unicode="&#x2467;" horiz-adv-x="2050" 
d="M1026 1615c518 0 936 -410 936 -913c0 -505 -418 -917 -936 -917c-519 0 -937 412 -937 917c0 503 418 913 937 913zM1026 1337c-356 0 -644 -284 -644 -635c0 -354 288 -638 644 -638c355 0 644 284 644 638c0 351 -289 635 -644 635zM1026 1145c181 0 330 -92 330 -246
c0 -94 -56 -154 -129 -188c84 -33 151 -94 151 -196c0 -154 -159 -246 -352 -246c-192 0 -352 92 -352 246c0 102 66 163 151 196c-74 34 -129 94 -129 188c0 154 149 246 330 246zM1026 628c-60 0 -104 -32 -104 -85c0 -52 44 -84 104 -84s105 32 105 84
c0 53 -45 85 -105 85zM1026 954c-52 0 -90 -29 -90 -76s38 -77 90 -77s91 30 91 77s-39 76 -91 76z" />
    <glyph glyph-name="uni2468" unicode="&#x2468;" horiz-adv-x="2050" 
d="M1026 1615c518 0 936 -410 936 -913c0 -505 -418 -917 -936 -917c-519 0 -937 412 -937 917c0 503 418 913 937 913zM1026 1337c-356 0 -644 -284 -644 -635c0 -354 288 -638 644 -638c355 0 644 284 644 638c0 351 -289 635 -644 635zM801 285l203 278
c-202 2 -310 127 -310 281c0 174 149 301 344 301s344 -123 344 -293c0 -82 -33 -165 -90 -247l-221 -320h-270zM1038 748c62 0 106 42 106 99s-44 98 -106 98s-107 -41 -107 -98s45 -99 107 -99z" />
    <glyph glyph-name="uni24EA" unicode="&#x24ea;" horiz-adv-x="2050" 
d="M1026 1615c518 0 936 -410 936 -913c0 -505 -418 -917 -936 -917c-519 0 -937 412 -937 917c0 503 418 913 937 913zM1026 1337c-356 0 -644 -284 -644 -635c0 -354 288 -638 644 -638c355 0 644 284 644 638c0 351 -289 635 -644 635zM1025 1145
c217 0 388 -164 388 -438s-171 -438 -388 -438c-216 0 -387 164 -387 438s171 438 387 438zM1025 928c-87 0 -152 -76 -152 -222c0 -145 65 -221 152 -221s153 76 153 221c0 146 -66 222 -153 222z" />
    <glyph glyph-name="uni24FF" unicode="&#x24ff;" horiz-adv-x="2050" 
d="M1025 1145c-216 0 -387 -164 -387 -438s171 -438 387 -438c217 0 388 164 388 438s-171 438 -388 438zM1025 928c87 0 153 -76 153 -222c0 -145 -66 -221 -153 -221s-152 76 -152 221c0 146 65 222 152 222zM1026 1591c505 0 911 -400 911 -889
c0 -492 -406 -893 -911 -893s-912 401 -912 893c0 489 407 889 912 889z" />
    <glyph glyph-name="filledbox" unicode="&#x25a0;" horiz-adv-x="1800" 
d="M200 1400h1400v-1400h-1400v1400z" />
    <glyph glyph-name="H22073" unicode="&#x25a1;" horiz-adv-x="1800" 
d="M200 1400h1400v-1400h-1400v1400zM483 1117v-834h834v834h-834z" />
    <glyph glyph-name="uni25AE" unicode="&#x258c;" horiz-adv-x="1800" 
d="M200 1400h700v-1400h-700v1400z" />
    <glyph glyph-name="uni25AE" unicode="&#x25ae;" horiz-adv-x="1800" 
d="M200 1400h700v-1400h-700v1400z" />
    <glyph glyph-name="triagup" unicode="&#x25b2;" horiz-adv-x="1800" 
d="M900 1420l820 -1420h-1640z" />
    <glyph glyph-name="uni25B3" unicode="&#x25b3;" horiz-adv-x="1800" 
d="M900 1420l820 -1420h-1640zM900 855l-331 -572h662z" />
    <glyph glyph-name="uni25B4" unicode="&#x25b4;" horiz-adv-x="1200" 
d="M601 1070l475 -822h-951z" />
    <glyph glyph-name="uni25B8" unicode="&#x25b8;" horiz-adv-x="1200" 
d="M1073 658l-822 -476v952z" />
    <glyph glyph-name="triagdn" unicode="&#x25bc;" horiz-adv-x="1800" 
d="M900 -20l-820 1420h1640z" />
    <glyph glyph-name="uni25BD" unicode="&#x25bd;" horiz-adv-x="1800" 
d="M900 -20l-820 1420h1640zM900 545l331 572h-662z" />
    <glyph glyph-name="uni25BE" unicode="&#x25be;" horiz-adv-x="1200" 
d="M599 247l-475 822h951z" />
    <glyph glyph-name="uni25C2" unicode="&#x25c2;" horiz-adv-x="1200" 
d="M127 658l822 476v-952z" />
    <glyph glyph-name="uni25C6" unicode="&#x25c6;" horiz-adv-x="1800" 
d="M900 1438l738 -738l-738 -738l-738 738z" />
    <glyph glyph-name="uni25C7" unicode="&#x25c7;" horiz-adv-x="1800" 
d="M900 1438l738 -738l-738 -738l-738 738zM900 1038l-338 -338l338 -338l338 338z" />
    <glyph glyph-name="lozenge" unicode="&#x25ca;" horiz-adv-x="1528" 
d="M1464 700l-558 -700h-285l-557 700l558 700h285zM1077 697l-318 396l-306 -391l317 -396z" />
    <glyph glyph-name="circle" unicode="&#x25cb;" horiz-adv-x="1800" 
d="M900 -39c-409 0 -739 331 -739 739s330 739 739 739c408 0 739 -331 739 -739s-331 -739 -739 -739zM900 244c252 0 456 204 456 456s-204 456 -456 456c-253 0 -456 -204 -456 -456s203 -456 456 -456z" />
    <glyph glyph-name="H18533" unicode="&#x25cf;" horiz-adv-x="1800" 
d="M900 -39c-409 0 -739 331 -739 739s330 739 739 739c408 0 739 -331 739 -739s-331 -739 -739 -739z" />
    <glyph glyph-name="uni25D0" unicode="&#x25d0;" horiz-adv-x="1800" 
d="M900 -39c-409 0 -739 331 -739 739s330 739 739 739c408 0 739 -331 739 -739s-331 -739 -739 -739zM900 1156v-912c252 0 456 204 456 456s-204 456 -456 456z" />
    <glyph glyph-name="uni25D6" unicode="&#x25d6;" horiz-adv-x="1800" 
d="M900 1439v-1478c-409 0 -739 331 -739 739s330 739 739 739z" />
    <glyph glyph-name="uni25E7" unicode="&#x25e7;" horiz-adv-x="1800" 
d="M200 1400h1400v-1400h-1400v1400zM900 1117v-834h417v834h-417z" />
    <glyph glyph-name="uni2610" unicode="&#x2610;" horiz-adv-x="2200" 
d="M253 1547h1694v-1694h-1694v1694zM483 1317v-1234h1234v1234h-1234z" />
    <glyph glyph-name="uni2611" unicode="&#x2611;" horiz-adv-x="2200" 
d="M253 1547h1694v-1694h-1694v1694zM483 1317v-1234h1234v1234h-1234zM1453 1206l177 -125l-638 -899l-414 430l153 151l234 -245z" />
    <glyph glyph-name="uni2612" unicode="&#x2612;" horiz-adv-x="2200" 
d="M1947 1547v-1694h-1694v1694h1694zM1717 1317h-1234v-1234h1234v1234zM630 383l317 317l-317 317l153 153l317 -317l317 317l153 -153l-317 -317l317 -317l-153 -153l-317 317l-317 -317z" />
    <glyph glyph-name="heart" unicode="&#x2665;" horiz-adv-x="1800" 
d="M1223 1275c190 0 329 -145 329 -336c0 -281 -303 -608 -652 -853c-349 245 -652 572 -652 853c0 191 139 336 329 336c170 0 323 -117 323 -254c0 137 153 254 323 254z" />
    <glyph glyph-name="uni2713" unicode="&#x2713;" horiz-adv-x="2200" 
d="M1543 1333l215 -160l-814 -1096l-501 545l197 181l283 -307z" />
    <glyph glyph-name="uni2715" unicode="&#x2573;" horiz-adv-x="2205" 
d="M1316 700l923 -923l-213 -214l-923 924l-924 -924l-213 214l923 923l-923 923l213 214l924 -924l923 924l213 -214z" />
    <glyph glyph-name="uni2715" unicode="&#x2715;" horiz-adv-x="2205" 
d="M1316 700l923 -923l-213 -214l-923 924l-924 -924l-213 214l923 923l-923 923l213 214l924 -924l923 924l213 -214z" />
    <glyph glyph-name="uni2717" unicode="&#x2717;" horiz-adv-x="2200" 
d="M1289 700l397 -397l-189 -189l-397 397l-397 -397l-189 189l397 397l-397 397l189 189l397 -397l397 397l189 -189z" />
    <glyph glyph-name="uni278A" unicode="&#x2776;" horiz-adv-x="2050" 
d="M1170 1142l-414 -152v-219l189 65v-551h225v857zM1026 1591c505 0 911 -400 911 -889c0 -492 -406 -893 -911 -893s-912 401 -912 893c0 489 407 889 912 889z" />
    <glyph glyph-name="uni278A" unicode="&#x278a;" horiz-adv-x="2050" 
d="M1170 1142l-414 -152v-219l189 65v-551h225v857zM1026 1591c505 0 911 -400 911 -889c0 -492 -406 -893 -911 -893s-912 401 -912 893c0 489 407 889 912 889z" />
    <glyph glyph-name="uni278B" unicode="&#x2777;" horiz-adv-x="2050" 
d="M693 992l128 -156c49 48 101 93 175 93c55 0 99 -34 99 -88c0 -38 -20 -75 -59 -111l-295 -268v-177h605v208h-286l125 111c106 94 144 166 144 266c0 167 -122 275 -305 275c-170 0 -273 -84 -331 -153zM1026 1591c505 0 911 -400 911 -889c0 -492 -406 -893 -911 -893
s-912 401 -912 893c0 489 407 889 912 889z" />
    <glyph glyph-name="uni278B" unicode="&#x278b;" horiz-adv-x="2050" 
d="M693 992l128 -156c49 48 101 93 175 93c55 0 99 -34 99 -88c0 -38 -20 -75 -59 -111l-295 -268v-177h605v208h-286l125 111c106 94 144 166 144 266c0 167 -122 275 -305 275c-170 0 -273 -84 -331 -153zM1026 1591c505 0 911 -400 911 -889c0 -492 -406 -893 -911 -893
s-912 401 -912 893c0 489 407 889 912 889z" />
    <glyph glyph-name="uni278C" unicode="&#x2778;" horiz-adv-x="2050" 
d="M1026 1591c505 0 911 -400 911 -889c0 -492 -406 -893 -911 -893s-912 401 -912 893c0 489 407 889 912 889zM1016 1145c-142 0 -235 -53 -305 -126l120 -148c39 41 96 76 176 76c64 0 106 -23 106 -68c0 -48 -51 -76 -119 -76h-97v-184h95c74 0 136 -27 136 -79
c0 -50 -55 -75 -120 -75c-67 0 -127 26 -176 74l-123 -145c70 -80 178 -125 311 -125c176 0 342 81 342 252c0 87 -51 153 -140 189c78 37 122 102 122 189c0 149 -136 246 -328 246z" />
    <glyph glyph-name="uni278C" unicode="&#x278c;" horiz-adv-x="2050" 
d="M1026 1591c505 0 911 -400 911 -889c0 -492 -406 -893 -911 -893s-912 401 -912 893c0 489 407 889 912 889zM1016 1145c-142 0 -235 -53 -305 -126l120 -148c39 41 96 76 176 76c64 0 106 -23 106 -68c0 -48 -51 -76 -119 -76h-97v-184h95c74 0 136 -27 136 -79
c0 -50 -55 -75 -120 -75c-67 0 -127 26 -176 74l-123 -145c70 -80 178 -125 311 -125c176 0 342 81 342 252c0 87 -51 153 -140 189c78 37 122 102 122 189c0 149 -136 246 -328 246z" />
    <glyph glyph-name="uni278D" unicode="&#x2779;" horiz-adv-x="2050" 
d="M1026 1591c505 0 911 -400 911 -889c0 -492 -406 -893 -911 -893s-912 401 -912 893c0 489 407 889 912 889zM1262 847h-156l-70 -146v-80h-113l246 508h-246l-266 -556v-153h379v-135h226v135h99v201h-99v226z" />
    <glyph glyph-name="uni278D" unicode="&#x278d;" horiz-adv-x="2050" 
d="M1026 1591c505 0 911 -400 911 -889c0 -492 -406 -893 -911 -893s-912 401 -912 893c0 489 407 889 912 889zM1262 847h-156l-70 -146v-80h-113l246 508h-246l-266 -556v-153h379v-135h226v135h99v201h-99v226z" />
    <glyph glyph-name="uni278E" unicode="&#x277a;" horiz-adv-x="2050" 
d="M1308 1129h-520l-12 -500h216c96 0 137 -30 137 -77c0 -50 -35 -80 -105 -80c-86 0 -173 46 -212 77l-103 -171c68 -60 181 -109 316 -109c199 0 338 120 338 299c0 154 -116 250 -320 250h-67l3 105h329v206zM1026 1591c505 0 911 -400 911 -889
c0 -492 -406 -893 -911 -893s-912 401 -912 893c0 489 407 889 912 889z" />
    <glyph glyph-name="uni278E" unicode="&#x278e;" horiz-adv-x="2050" 
d="M1308 1129h-520l-12 -500h216c96 0 137 -30 137 -77c0 -50 -35 -80 -105 -80c-86 0 -173 46 -212 77l-103 -171c68 -60 181 -109 316 -109c199 0 338 120 338 299c0 154 -116 250 -320 250h-67l3 105h329v206zM1026 1591c505 0 911 -400 911 -889
c0 -492 -406 -893 -911 -893s-912 401 -912 893c0 489 407 889 912 889z" />
    <glyph glyph-name="uni278F" unicode="&#x277b;" horiz-adv-x="2050" 
d="M1026 1591c505 0 911 -400 911 -889c0 -492 -406 -893 -911 -893s-912 401 -912 893c0 489 407 889 912 889zM1258 1129h-270l-221 -321c-57 -83 -90 -164 -90 -246c0 -170 149 -293 344 -293s344 126 344 301c0 153 -109 279 -311 281zM1021 666c61 0 107 -43 107 -99
c0 -57 -46 -99 -107 -99c-62 0 -106 42 -106 99c0 56 44 99 106 99z" />
    <glyph glyph-name="uni278F" unicode="&#x278f;" horiz-adv-x="2050" 
d="M1026 1591c505 0 911 -400 911 -889c0 -492 -406 -893 -911 -893s-912 401 -912 893c0 489 407 889 912 889zM1258 1129h-270l-221 -321c-57 -83 -90 -164 -90 -246c0 -170 149 -293 344 -293s344 126 344 301c0 153 -109 279 -311 281zM1021 666c61 0 107 -43 107 -99
c0 -57 -46 -99 -107 -99c-62 0 -106 42 -106 99c0 56 44 99 106 99z" />
    <glyph glyph-name="uni2790" unicode="&#x277c;" horiz-adv-x="2050" 
d="M1369 1129h-638v-208h370l-330 -636h270l328 667v177zM1026 1591c505 0 911 -400 911 -889c0 -492 -406 -893 -911 -893s-912 401 -912 893c0 489 407 889 912 889z" />
    <glyph glyph-name="uni2790" unicode="&#x2790;" horiz-adv-x="2050" 
d="M1369 1129h-638v-208h370l-330 -636h270l328 667v177zM1026 1591c505 0 911 -400 911 -889c0 -492 -406 -893 -911 -893s-912 401 -912 893c0 489 407 889 912 889z" />
    <glyph glyph-name="uni2791" unicode="&#x277d;" horiz-adv-x="2050" 
d="M1026 1591c505 0 911 -400 911 -889c0 -492 -406 -893 -911 -893s-912 401 -912 893c0 489 407 889 912 889zM1026 1145c-181 0 -330 -92 -330 -246c0 -94 55 -154 129 -188c-85 -33 -151 -94 -151 -196c0 -154 160 -246 352 -246c193 0 352 92 352 246
c0 102 -67 163 -151 196c73 34 129 94 129 188c0 154 -149 246 -330 246zM1026 628c60 0 105 -32 105 -85c0 -52 -45 -84 -105 -84s-104 32 -104 84c0 53 44 85 104 85zM1026 954c52 0 91 -29 91 -76s-39 -77 -91 -77s-90 30 -90 77s38 76 90 76z" />
    <glyph glyph-name="uni2791" unicode="&#x2791;" horiz-adv-x="2050" 
d="M1026 1591c505 0 911 -400 911 -889c0 -492 -406 -893 -911 -893s-912 401 -912 893c0 489 407 889 912 889zM1026 1145c-181 0 -330 -92 -330 -246c0 -94 55 -154 129 -188c-85 -33 -151 -94 -151 -196c0 -154 160 -246 352 -246c193 0 352 92 352 246
c0 102 -67 163 -151 196c73 34 129 94 129 188c0 154 -149 246 -330 246zM1026 628c60 0 105 -32 105 -85c0 -52 -45 -84 -105 -84s-104 32 -104 84c0 53 44 85 104 85zM1026 954c52 0 91 -29 91 -76s-39 -77 -91 -77s-90 30 -90 77s38 76 90 76z" />
    <glyph glyph-name="uni2792" unicode="&#x277e;" horiz-adv-x="2050" 
d="M1026 1591c505 0 911 -400 911 -889c0 -492 -406 -893 -911 -893s-912 401 -912 893c0 489 407 889 912 889zM801 285h270l221 320c57 82 90 165 90 247c0 170 -149 293 -344 293s-344 -127 -344 -301c0 -154 108 -279 310 -281zM1038 748c-62 0 -107 42 -107 99
s45 98 107 98s106 -41 106 -98s-44 -99 -106 -99z" />
    <glyph glyph-name="uni2792" unicode="&#x2792;" horiz-adv-x="2050" 
d="M1026 1591c505 0 911 -400 911 -889c0 -492 -406 -893 -911 -893s-912 401 -912 893c0 489 407 889 912 889zM801 285h270l221 320c57 82 90 165 90 247c0 170 -149 293 -344 293s-344 -127 -344 -301c0 -154 108 -279 310 -281zM1038 748c-62 0 -107 42 -107 99
s45 98 107 98s106 -41 106 -98s-44 -99 -106 -99z" />
    <glyph glyph-name="uni2B51" unicode="&#x2b51;" horiz-adv-x="1800" 
d="M1094 912h627l-507 -369l195 -598l-508 370l-507 -370l194 598l-509 369h629l193 598z" />
    <glyph glyph-name="uni2B52" unicode="&#x2b52;" horiz-adv-x="1800" 
d="M1094 912h627l-507 -369l195 -598l-508 370l-507 -370l194 598l-509 369h629l193 598zM984 761l-83 259l-83 -259h-275l221 -160l-84 -261l221 161l221 -161l-84 261l221 160h-275z" />
    <glyph glyph-name="uni2E17" unicode="&#x2e17;" horiz-adv-x="838" 
d="M722 978v-246l-606 -221v246zM722 600v-246l-606 -221v246z" />
    <glyph glyph-name="uni2E38" unicode="&#x2e38;" horiz-adv-x="801" 
d="M282 1440h236v-414h219v-229h-219v-221h-236v221h-218v229h218v414z" />
    <glyph glyph-name="uniEA00" unicode="&#xea00;" horiz-adv-x="1800" 
d="M1094 912h627l-507 -369l195 -598l-508 370l-507 -370l194 598l-509 369h629l193 598zM984 761l-83 259v-519l221 -161l-84 261l221 160h-275z" />
    <glyph glyph-name="uniEA01" unicode="&#xea01;" horiz-adv-x="1800" 
d="M901 315l-507 -370l194 598l-509 369h629l193 598v-1195z" />
    <glyph glyph-name="uniFB00" unicode="&#xfb00;" horiz-adv-x="1683" 
d="M790 981v-277h-275v-704h-313v704h-169v277h169v76c0 264 145 409 374 409c153 0 254 -46 331 -104l-136 -231c-47 24 -93 43 -153 43c-69 0 -103 -39 -103 -124v-69h275zM1618 981v-277h-275v-704h-313v704h-169v277h169v76c0 264 145 409 374 409
c153 0 254 -46 331 -104l-136 -231c-47 24 -93 43 -153 43c-69 0 -103 -39 -103 -124v-69h275z" />
    <glyph glyph-name="fi" unicode="&#xfb01;" horiz-adv-x="1387" 
d="M790 981v-277h-275v-704h-313v704h-169v277h169v76c0 264 145 409 374 409c153 0 254 -46 331 -104l-136 -231c-47 24 -93 43 -153 43c-69 0 -103 -39 -103 -124v-69h275zM1278 981v-981h-313v981h313zM1120 1471c105 0 187 -82 187 -188c0 -105 -82 -186 -187 -186
c-106 0 -187 81 -187 186c0 106 81 188 187 188z" />
    <glyph glyph-name="fl" unicode="&#xfb02;" horiz-adv-x="1387" 
d="M790 981v-277h-275v-704h-313v704h-169v277h169v76c0 264 145 409 374 409c153 0 254 -46 331 -104l-136 -231c-47 24 -93 43 -153 43c-69 0 -103 -39 -103 -124v-69h275zM1278 1440v-1440h-313v1440h313z" />
    <glyph glyph-name="uniFB03" unicode="&#xfb03;" horiz-adv-x="2215" 
d="M790 981v-277h-275v-704h-313v704h-169v277h169v76c0 264 145 409 374 409c153 0 254 -46 331 -104l-136 -231c-47 24 -93 43 -153 43c-69 0 -103 -39 -103 -124v-69h275zM1618 981v-277h-275v-704h-313v704h-169v277h169v76c0 264 145 409 374 409
c153 0 254 -46 331 -104l-136 -231c-47 24 -93 43 -153 43c-69 0 -103 -39 -103 -124v-69h275zM2106 981v-981h-313v981h313zM1948 1471c105 0 187 -82 187 -188c0 -105 -82 -186 -187 -186c-106 0 -187 81 -187 186c0 106 81 188 187 188z" />
    <glyph glyph-name="uniFB04" unicode="&#xfb04;" horiz-adv-x="2215" 
d="M790 981v-277h-275v-704h-313v704h-169v277h169v76c0 264 145 409 374 409c153 0 254 -46 331 -104l-136 -231c-47 24 -93 43 -153 43c-69 0 -103 -39 -103 -124v-69h275zM1618 981v-277h-275v-704h-313v704h-169v277h169v76c0 264 145 409 374 409
c153 0 254 -46 331 -104l-136 -231c-47 24 -93 43 -153 43c-69 0 -103 -39 -103 -124v-69h275zM2106 1440v-1440h-313v1440h313z" />
    <glyph glyph-name="uniFB05" unicode="&#xfb05;" horiz-adv-x="1441" 
d="M1346 981v-277h-335v-287c0 -113 60 -151 139 -151c58 0 121 32 170 61l108 -244c-92 -64 -190 -109 -348 -109c-263 0 -382 157 -382 403v327h-135v277h135v40c0 113 -58 165 -141 165c-82 0 -140 -52 -140 -165v-555h-1v-466h-312v1028c0 302 201 438 453 438
c254 0 454 -136 454 -438v-47h335z" />
    <glyph glyph-name="uniFB06" unicode="&#xfb06;" horiz-adv-x="1962" 
d="M935 923l-87 -244c-97 41 -223 75 -323 76c-82 0 -114 -24 -114 -60c0 -42 62 -52 158 -67l72 -11c210 -32 321 -133 321 -298c0 -215 -168 -344 -454 -344c-168 0 -341 30 -453 103l109 242c98 -58 210 -92 346 -92c97 0 137 22 137 64c0 38 -44 53 -155 70l-57 8
c-236 35 -346 133 -346 309c0 209 157 328 424 328c159 0 261 -22 422 -84zM1867 981v-277h-335v-287c0 -113 60 -151 139 -151c58 0 121 32 170 61l108 -244c-92 -64 -190 -109 -348 -109c-263 0 -382 157 -382 403v327h-183v277h183v286h313v-286h335z" />
    <glyph glyph-name="uni030C.alt001" 
d="M-502 973h-238v467h299z" />
    <glyph glyph-name="uni0328.alt001" 
d="M-468 -153l144 -171c-54 -49 -151 -96 -270 -96c-144 0 -261 73 -261 203c0 149 156 239 278 296l95 -73c-100 -51 -118 -102 -118 -137c0 -36 25 -52 59 -52c23 0 46 9 73 30z" />
    <glyph glyph-name="uni0328.alt002" 
d="M-581 89l135 -62c-143 -64 -166 -115 -166 -154c0 -34 25 -56 67 -56c35 0 66 14 94 39l162 -160c-76 -72 -176 -116 -299 -116c-175 0 -302 84 -302 218c0 153 140 228 309 291z" />
    <glyph glyph-name="uni0328.alt003" 
d="M-468 -153l144 -171c-54 -49 -150 -96 -270 -96c-144 0 -261 75 -261 210c0 146 172 232 310 289l95 -73c-125 -51 -150 -102 -150 -137c0 -36 25 -52 60 -52c22 0 45 9 72 30z" />
    <glyph glyph-name="uni0328.alt004" 
d="M-451 -144l162 -160c-76 -72 -176 -116 -299 -116c-175 0 -302 84 -302 218c0 153 140 228 309 291l135 -62c-143 -64 -166 -115 -166 -154c0 -34 25 -56 67 -56c35 0 66 14 94 39z" />
    <glyph glyph-name="i.latn_TRK" horiz-adv-x="532" 
d="M423 981v-981h-313v981h313zM265 1471c105 0 187 -82 187 -188c0 -105 -82 -186 -187 -186c-106 0 -187 81 -187 186c0 106 81 188 187 188z" />
    <glyph glyph-name="j.latn_NLD" horiz-adv-x="533" 
d="M424 981v-1046c0 -228 -127 -359 -321 -359c-46 0 -114 10 -150 24l30 277c19 -6 39 -10 63 -10c38 0 66 23 66 88v1026h312zM362 1105h-293l212 332h359z" />
    <glyph glyph-name="Ldot.latn_CAT" horiz-adv-x="1190" 
d="M1165 310v-310h-1038v1400h334v-1090h704zM855 921c111 0 197 -87 197 -198c0 -110 -86 -195 -197 -195s-196 85 -196 195c0 111 85 198 196 198z" />
    <glyph glyph-name="ldot.latn_CAT" horiz-adv-x="786" 
d="M423 1440v-1440h-313v1440h313zM696 904c97 0 173 -76 173 -174s-76 -173 -173 -173c-99 0 -174 75 -174 173s75 174 174 174z" />
    <glyph glyph-name="zero.numr" horiz-adv-x="892" 
d="M446 1415c212 0 379 -161 379 -431s-167 -431 -379 -431s-379 161 -379 431s167 431 379 431zM446 1203c-85 0 -148 -75 -148 -219s63 -219 148 -219c84 0 149 75 149 219s-65 219 -149 219z" />
    <glyph glyph-name="one.numr" horiz-adv-x="541" 
d="M435 1413v-845h-222v544l-179 -62v215z" />
    <glyph glyph-name="two.numr" horiz-adv-x="730" 
d="M170 1112l-126 153c58 68 159 150 324 150c180 0 299 -105 299 -270c0 -96 -33 -167 -140 -262l-123 -110h281v-205h-593v174l288 265c38 35 58 72 58 110c0 52 -44 86 -97 86c-72 0 -124 -44 -171 -91z" />
    <glyph glyph-name="three.numr" horiz-adv-x="731" 
d="M335 1415c188 0 322 -95 322 -241c0 -86 -43 -150 -120 -187c87 -35 137 -101 137 -187c0 -168 -163 -247 -335 -247c-130 0 -236 44 -305 123l122 142c47 -46 105 -72 171 -72c64 0 116 24 116 75c0 50 -60 76 -132 76h-93v182h96c65 0 115 27 115 74
c0 46 -40 68 -103 68c-78 0 -134 -34 -173 -75l-117 145c69 72 160 124 299 124z" />
    <glyph glyph-name="four.numr" horiz-adv-x="742" 
d="M619 1122v-224h97v-197h-97v-133h-222v133h-370v152l260 546h241l-241 -501h110v86l66 138h156z" />
    <glyph glyph-name="five.numr" horiz-adv-x="744" 
d="M632 1400v-202h-323l-2 -104h61c202 0 317 -95 317 -247c0 -177 -136 -295 -331 -295c-132 0 -243 49 -310 108l102 168c38 -31 123 -76 207 -76c68 0 103 30 103 79c0 47 -41 76 -133 76h-213l12 493h510z" />
    <glyph glyph-name="six.numr" horiz-adv-x="760" 
d="M611 1400l-201 -274c200 -2 306 -126 306 -278c0 -171 -146 -295 -338 -295s-338 121 -338 288c0 81 33 161 88 242l217 317h266zM378 944c-61 0 -104 -42 -104 -98c0 -57 43 -98 104 -98c60 0 105 41 105 98c0 56 -45 98 -105 98z" />
    <glyph glyph-name="seven.numr" horiz-adv-x="698" 
d="M664 1400v-174l-320 -658h-265l322 627h-361v205h624z" />
    <glyph glyph-name="eight.numr" horiz-adv-x="805" 
d="M402 1415c179 0 324 -90 324 -241c0 -94 -54 -152 -126 -186c83 -32 148 -91 148 -193c0 -152 -156 -242 -346 -242c-189 0 -345 90 -345 242c0 101 64 161 147 193c-72 34 -126 92 -126 186c0 151 146 241 324 241zM402 906c-59 0 -102 -32 -102 -84s43 -84 102 -84
s103 32 103 84s-44 84 -103 84zM402 1229c-51 0 -88 -29 -88 -77c0 -46 37 -75 88 -75s89 29 89 75c0 48 -38 77 -89 77z" />
    <glyph glyph-name="nine.numr" horiz-adv-x="760" 
d="M149 568l199 274c-200 2 -304 126 -304 277c0 172 145 296 337 296s338 -121 338 -288c0 -81 -32 -162 -87 -242l-218 -317h-265zM381 1023c62 0 105 42 105 99s-43 98 -105 98c-61 0 -105 -41 -105 -98s44 -99 105 -99z" />
    <glyph glyph-name="zero.dnom" horiz-adv-x="892" 
d="M446 847c212 0 379 -161 379 -431s-167 -431 -379 -431s-379 161 -379 431s167 431 379 431zM446 635c-85 0 -148 -75 -148 -219s63 -219 148 -219c84 0 149 75 149 219s-65 219 -149 219z" />
    <glyph glyph-name="one.dnom" horiz-adv-x="542" 
d="M435 845v-845h-222v544l-179 -62v215z" />
    <glyph glyph-name="two.dnom" horiz-adv-x="732" 
d="M170 544l-126 153c58 68 159 150 324 150c180 0 299 -105 299 -270c0 -96 -33 -167 -140 -262l-123 -110h281v-205h-593v174l288 265c38 35 58 72 58 110c0 52 -44 86 -97 86c-72 0 -124 -44 -171 -91z" />
    <glyph glyph-name="three.dnom" horiz-adv-x="731" 
d="M335 847c188 0 322 -95 322 -241c0 -86 -43 -150 -120 -187c87 -35 137 -101 137 -187c0 -168 -163 -247 -335 -247c-130 0 -236 44 -305 123l122 142c47 -46 105 -72 171 -72c64 0 116 24 116 75c0 50 -60 76 -132 76h-93v182h96c65 0 115 27 115 74
c0 46 -40 68 -103 68c-78 0 -134 -34 -173 -75l-117 145c69 72 160 124 299 124z" />
    <glyph glyph-name="four.dnom" horiz-adv-x="743" 
d="M619 554v-224h97v-197h-97v-133h-222v133h-370v152l260 546h241l-241 -501h110v86l66 138h156z" />
    <glyph glyph-name="five.dnom" horiz-adv-x="745" 
d="M632 832v-202h-323l-2 -104h61c202 0 317 -95 317 -247c0 -177 -136 -295 -331 -295c-132 0 -243 49 -310 108l102 168c38 -31 123 -76 207 -76c68 0 103 30 103 79c0 47 -41 76 -133 76h-213l12 493h510z" />
    <glyph glyph-name="six.dnom" horiz-adv-x="760" 
d="M611 832l-201 -274c200 -2 306 -126 306 -278c0 -171 -146 -295 -338 -295s-338 121 -338 288c0 81 33 161 88 242l217 317h266zM378 376c-61 0 -104 -42 -104 -98c0 -57 43 -98 104 -98c60 0 105 41 105 98c0 56 -45 98 -105 98z" />
    <glyph glyph-name="seven.dnom" horiz-adv-x="698" 
d="M664 832v-174l-320 -658h-265l322 627h-361v205h624z" />
    <glyph glyph-name="eight.dnom" horiz-adv-x="805" 
d="M402 847c179 0 324 -90 324 -241c0 -94 -54 -152 -126 -186c83 -32 148 -91 148 -193c0 -152 -156 -242 -346 -242c-189 0 -345 90 -345 242c0 101 64 161 147 193c-72 34 -126 92 -126 186c0 151 146 241 324 241zM402 338c-59 0 -102 -32 -102 -84s43 -84 102 -84
s103 32 103 84s-44 84 -103 84zM402 661c-51 0 -88 -29 -88 -77c0 -46 37 -75 88 -75s89 29 89 75c0 48 -38 77 -89 77z" />
    <glyph glyph-name="nine.dnom" horiz-adv-x="759" 
d="M149 0l199 274c-200 2 -304 126 -304 277c0 172 145 296 337 296s338 -121 338 -288c0 -81 -32 -162 -87 -242l-218 -317h-265zM381 455c62 0 105 42 105 99s-43 98 -105 98c-61 0 -105 -41 -105 -98s44 -99 105 -99z" />
    <glyph glyph-name="space.frac" horiz-adv-x="89" 
 />
    <glyph glyph-name="b.ordn" horiz-adv-x="885" 
d="M498 1293c193 0 334 -163 334 -371c0 -210 -141 -372 -333 -372c-95 0 -160 37 -204 91v-73h-208v1039h215v-398c44 49 107 84 196 84zM452 1091c-94 0 -159 -71 -159 -170c0 -98 65 -170 159 -170c95 0 159 74 159 170s-64 170 -159 170z" />
    <glyph glyph-name="c.ordn" horiz-adv-x="781" 
d="M432 1293c127 0 230 -55 296 -149l-166 -121c-37 45 -79 68 -135 68c-84 0 -154 -64 -154 -170s69 -170 153 -170c55 0 102 25 138 69l164 -122c-67 -93 -169 -148 -296 -148c-225 0 -379 156 -379 371c0 216 154 372 379 372z" />
    <glyph glyph-name="d.ordn" horiz-adv-x="886" 
d="M387 1293c89 0 152 -35 196 -85v399h215v-1039h-208v73c-44 -54 -109 -91 -204 -91c-192 0 -333 162 -333 372c0 208 141 371 334 371zM433 1091c-95 0 -159 -74 -159 -170s64 -170 159 -170c94 0 159 72 159 170c0 99 -65 170 -159 170z" />
    <glyph glyph-name="e.ordn" horiz-adv-x="817" 
d="M414 1293c207 0 349 -151 349 -372c0 -22 -1 -53 -3 -68h-485c19 -83 78 -122 160 -122c54 0 114 23 160 64l136 -132c-75 -73 -181 -113 -308 -113c-220 0 -370 146 -370 367c0 223 147 376 361 376zM413 1109c-74 0 -120 -43 -137 -117h272c-18 76 -65 117 -135 117z
" />
    <glyph glyph-name="h.ordn" horiz-adv-x="843" 
d="M302 1607v-404c46 63 113 90 193 90c154 0 265 -108 265 -272v-453h-216v385c0 89 -43 137 -117 137c-69 0 -125 -45 -125 -138v-384h-215v1039h215z" />
    <glyph glyph-name="l.ordn" horiz-adv-x="389" 
d="M302 1607v-1039h-215v1039h215z" />
    <glyph glyph-name="m.ordn" horiz-adv-x="1300" 
d="M946 1293c165 0 272 -108 272 -272v-453h-215v385c0 89 -44 137 -118 137c-70 0 -125 -46 -125 -138v-384h-216v385c0 89 -43 137 -117 137c-69 0 -125 -45 -125 -138v-384h-215v705h208v-80c46 70 116 100 200 100c98 0 178 -44 224 -118c49 83 131 118 227 118z" />
    <glyph glyph-name="r.ordn" horiz-adv-x="601" 
d="M489 1293c35 0 64 -6 84 -13l-23 -214c-31 11 -74 20 -113 20c-81 0 -134 -42 -134 -136v-382h-216v705h207v-75c42 65 108 95 195 95z" />
    <glyph glyph-name="s.ordn" horiz-adv-x="741" 
d="M675 1230l-63 -168c-67 29 -157 55 -230 55c-63 0 -89 -19 -89 -48c0 -35 49 -42 113 -52l55 -8c151 -24 233 -95 233 -213c0 -153 -121 -246 -326 -246c-114 0 -239 21 -322 77l77 166c68 -42 146 -67 246 -67c75 0 107 18 107 51c0 29 -32 42 -112 54l-46 7
c-167 24 -248 95 -248 219c0 150 113 236 303 236c114 0 192 -19 302 -63z" />
    <glyph glyph-name="t.ordn" horiz-adv-x="692" 
d="M621 1273v-190h-245v-220c0 -84 44 -112 101 -112c43 0 89 22 126 44l75 -168c-64 -45 -136 -77 -245 -77c-185 0 -272 108 -272 287v246h-133v190h133v207h215v-207h245z" />
    <glyph glyph-name="u.ordn" horiz-adv-x="851" 
d="M764 1273v-403c0 -221 -154 -320 -339 -320s-338 99 -338 320v403h215v-384c0 -96 53 -138 123 -138c72 0 124 42 124 138v384h215z" />
    <glyph glyph-name="egrave.ordn" horiz-adv-x="817" 
d="M414 1293c207 0 349 -151 349 -372c0 -22 -1 -53 -3 -68h-485c19 -83 78 -122 160 -122c54 0 114 23 160 64l136 -132c-75 -73 -181 -113 -308 -113c-220 0 -370 146 -370 367c0 223 147 376 361 376zM351 1365l-198 237h250l151 -237h-203zM413 1109
c-74 0 -120 -43 -137 -117h272c-18 76 -65 117 -135 117z" />
    <glyph glyph-name="zero.osf" horiz-adv-x="1318" 
d="M659 1106c329 0 586 -223 586 -567c0 -343 -257 -565 -586 -565c-328 0 -586 222 -586 565c0 344 258 567 586 567zM659 811c-152 0 -270 -109 -270 -271s118 -271 270 -271s270 109 270 271s-118 271 -270 271z" />
    <glyph glyph-name="one.osf" horiz-adv-x="773" 
d="M656 1109v-1109h-318v692l-298 -89v307z" />
    <glyph glyph-name="two.osf" horiz-adv-x="1119" 
d="M225 669l-178 208c85 100 240 229 496 229c277 0 470 -145 470 -367c0 -173 -109 -294 -309 -405l-88 -49h452v-285h-959v246l378 228c158 95 198 156 198 213c0 82 -77 132 -178 132c-123 0 -210 -71 -282 -150z" />
    <glyph glyph-name="three.osf" horiz-adv-x="1117" 
d="M519 1106c299 0 507 -161 507 -405c0 -146 -73 -254 -200 -315c143 -60 229 -171 229 -318c0 -280 -256 -414 -527 -414c-210 0 -382 75 -491 205l179 204c79 -83 183 -130 296 -130c118 0 211 50 211 155s-108 159 -238 159h-154v279h156c119 0 211 51 211 149
c0 95 -81 145 -193 145c-127 0 -219 -63 -278 -134l-182 206c101 123 250 214 474 214z" />
    <glyph glyph-name="four.osf" horiz-adv-x="1166" 
d="M939 616v-320h198v-296h-198v-321h-318v321h-592v225l399 854h339l-369 -783h223v146l80 174h238z" />
    <glyph glyph-name="five.osf" horiz-adv-x="1147" 
d="M997 1079v-294h-550l-5 -226h142c323 0 497 -176 497 -422c0 -301 -228 -484 -529 -484c-214 0 -391 79 -505 197l162 232c69 -68 207 -138 341 -138c133 0 201 71 201 171c0 89 -60 163 -251 163h-344l16 801h825z" />
    <glyph glyph-name="six.osf" horiz-adv-x="1176" 
d="M940 1400l-337 -474c9 1 18 1 27 1c310 0 499 -206 499 -466c0 -281 -233 -487 -543 -487c-308 0 -542 203 -542 479c0 132 51 257 139 388l374 559h383zM586 657c-121 0 -209 -83 -209 -198c0 -118 88 -201 209 -201s210 83 210 201c0 115 -89 198 -210 198z" />
    <glyph glyph-name="seven.osf" horiz-adv-x="1097" 
d="M1053 1079v-250l-555 -1150h-379l556 1104h-631v296h1009z" />
    <glyph glyph-name="eight.osf" horiz-adv-x="1214" 
d="M607 1426c281 0 510 -156 510 -405c0 -158 -90 -257 -208 -314c135 -55 243 -156 243 -325c0 -252 -246 -408 -545 -408c-300 0 -545 156 -545 408c0 169 107 270 242 325c-117 57 -207 156 -207 314c0 249 229 405 510 405zM607 582c-108 0 -199 -63 -199 -166
s91 -164 199 -164c107 0 198 61 198 164s-91 166 -198 166zM607 1142c-95 0 -171 -56 -171 -151c0 -96 76 -154 171 -154c94 0 170 58 170 154c0 95 -76 151 -170 151z" />
    <glyph glyph-name="nine.osf" horiz-adv-x="1176" 
d="M236 -320l337 473h-27c-310 0 -499 206 -499 466c0 281 233 487 543 487c308 0 542 -203 542 -479c0 -131 -51 -257 -139 -389l-374 -558h-383zM590 422c120 0 209 84 209 199c0 118 -89 201 -209 201c-121 0 -210 -83 -210 -201c0 -115 89 -199 210 -199z" />
    <glyph glyph-name="zero.tf" horiz-adv-x="1200" 
d="M605 1425c309 0 553 -228 553 -725c0 -505 -244 -725 -553 -725c-315 0 -564 220 -564 725c0 506 249 725 564 725zM605 1115c-125 0 -229 -111 -229 -415s104 -415 229 -415c119 0 219 111 219 415c0 295 -100 415 -219 415z" />
    <glyph glyph-name="one.tf" horiz-adv-x="1200" 
d="M189 307h307v684l-320 -112v317l644 226v-1115h295v-307h-926v307z" />
    <glyph glyph-name="two.tf" horiz-adv-x="1200" 
d="M266 959l-192 220c87 106 243 246 511 246c295 0 486 -180 486 -452c0 -167 -65 -273 -210 -418l-254 -254h495v-301h-956v254l485 475c68 66 103 135 103 211c0 105 -77 175 -183 175c-127 0 -210 -74 -285 -156z" />
    <glyph glyph-name="three.tf" horiz-adv-x="1200" 
d="M555 1425c304 0 517 -160 517 -404c0 -146 -75 -255 -203 -316c146 -59 232 -170 232 -317c0 -280 -261 -413 -538 -413c-213 0 -387 74 -497 205l185 211c78 -81 183 -126 296 -126c120 0 217 48 217 150c0 98 -110 149 -243 149h-158v285h160c121 0 215 50 215 145
c0 92 -83 141 -197 141c-130 0 -223 -62 -283 -133l-186 211c105 122 256 212 483 212z" />
    <glyph glyph-name="four.tf" horiz-adv-x="1200" 
d="M984 908v-368h176v-301h-176v-239h-324v239h-617v227l457 933h356l-426 -859h230v144l108 224h216z" />
    <glyph glyph-name="five.tf" horiz-adv-x="1200" 
d="M1023 1400v-298h-548l-6 -220h138c324 0 500 -173 500 -422c0 -300 -227 -486 -532 -486c-215 0 -393 81 -506 195l161 238c69 -66 208 -137 343 -137c130 0 198 67 198 168c0 88 -61 158 -247 158h-346l18 804h827z" />
    <glyph glyph-name="six.tf" horiz-adv-x="1200" 
d="M952 1400l-336 -472c8 1 15 1 23 1c313 0 501 -207 501 -466c0 -282 -235 -488 -546 -488c-309 0 -544 202 -544 479c0 132 51 258 140 390l372 556h390zM594 655c-118 0 -204 -82 -204 -195c0 -115 86 -196 204 -196c119 0 206 81 206 196c0 113 -87 195 -206 195z" />
    <glyph glyph-name="seven.tf" horiz-adv-x="1200" 
d="M1110 1400v-254l-552 -1146h-386l552 1099h-627v301h1013z" />
    <glyph glyph-name="eight.tf" horiz-adv-x="1200" 
d="M600 1425c290 0 526 -151 526 -404c0 -159 -91 -258 -211 -314c137 -55 246 -155 246 -326c0 -255 -253 -406 -561 -406s-561 151 -561 406c0 171 108 271 245 326c-120 56 -210 155 -210 314c0 253 236 404 526 404zM600 582c-112 0 -208 -59 -208 -165
c0 -105 96 -160 208 -160s207 55 207 160c0 106 -95 165 -207 165zM600 1138c-100 0 -180 -52 -180 -148c0 -98 80 -152 180 -152c99 0 179 54 179 152c0 96 -80 148 -179 148z" />
    <glyph glyph-name="nine.tf" horiz-adv-x="1200" 
d="M249 0l335 471h-22c-313 0 -501 207 -501 466c0 282 234 488 545 488c309 0 545 -202 545 -479c0 -132 -52 -258 -141 -390l-372 -556h-389zM606 745c118 0 204 82 204 195c0 115 -86 196 -204 196s-205 -81 -205 -196c0 -113 87 -195 205 -195z" />
    <glyph glyph-name="uni2007.tf" horiz-adv-x="1200" 
 />
    <glyph glyph-name="zero.tosf" horiz-adv-x="1200" 
d="M600 1106c307 0 549 -216 549 -567s-242 -565 -549 -565c-306 0 -549 214 -549 565s243 567 549 567zM600 820c-130 0 -233 -105 -233 -281c0 -175 103 -279 233 -279s232 104 232 279c0 176 -102 281 -232 281z" />
    <glyph glyph-name="one.tosf" horiz-adv-x="1200" 
d="M178 293h304v418l-314 -92v310l632 180v-816h295v-293h-917v293z" />
    <glyph glyph-name="two.tosf" horiz-adv-x="1200" 
d="M265 669l-178 208c85 100 240 229 496 229c277 0 470 -145 470 -367c0 -173 -109 -294 -309 -405l-88 -49h452v-285h-959v246l378 228c158 95 198 156 198 213c0 82 -77 132 -178 132c-123 0 -210 -71 -282 -150z" />
    <glyph glyph-name="three.tosf" horiz-adv-x="1200" 
d="M556 1106c299 0 507 -161 507 -405c0 -146 -73 -254 -200 -315c143 -60 229 -171 229 -318c0 -280 -256 -414 -527 -414c-210 0 -382 75 -491 205l179 204c79 -83 183 -130 296 -130c118 0 211 50 211 155s-108 159 -238 159h-154v279h156c119 0 211 51 211 149
c0 95 -81 145 -193 145c-127 0 -219 -63 -278 -134l-182 206c101 123 250 214 474 214z" />
    <glyph glyph-name="four.tosf" horiz-adv-x="1200" 
d="M967 616v-320h198v-296h-198v-321h-318v321h-592v225l399 854h339l-369 -783h223v146l80 174h238z" />
    <glyph glyph-name="five.tosf" horiz-adv-x="1200" 
d="M1017 1079v-294h-550l-5 -226h142c323 0 497 -176 497 -422c0 -301 -228 -484 -529 -484c-214 0 -391 79 -505 197l162 232c69 -68 207 -138 341 -138c133 0 201 71 201 171c0 89 -60 163 -251 163h-344l16 801h825z" />
    <glyph glyph-name="six.tosf" horiz-adv-x="1200" 
d="M951 1400l-337 -474c9 1 18 1 27 1c310 0 499 -206 499 -466c0 -281 -233 -487 -543 -487c-308 0 -542 203 -542 479c0 132 51 257 139 388l374 559h383zM597 657c-121 0 -209 -83 -209 -198c0 -118 88 -201 209 -201s210 83 210 201c0 115 -89 198 -210 198z" />
    <glyph glyph-name="seven.tosf" horiz-adv-x="1200" 
d="M1115 1079v-250l-555 -1150h-379l556 1104h-631v296h1009z" />
    <glyph glyph-name="eight.tosf" horiz-adv-x="1200" 
d="M604 1426c281 0 510 -156 510 -405c0 -158 -90 -257 -208 -314c135 -55 243 -156 243 -325c0 -252 -246 -408 -545 -408c-300 0 -545 156 -545 408c0 169 107 270 242 325c-117 57 -207 156 -207 314c0 249 229 405 510 405zM604 582c-108 0 -199 -63 -199 -166
s91 -164 199 -164c107 0 198 61 198 164s-91 166 -198 166zM604 1142c-95 0 -171 -56 -171 -151c0 -96 76 -154 171 -154c94 0 170 58 170 154c0 95 -76 151 -170 151z" />
    <glyph glyph-name="nine.tosf" horiz-adv-x="1200" 
d="M249 -320l337 473h-27c-310 0 -499 206 -499 466c0 281 233 487 543 487c308 0 542 -203 542 -479c0 -131 -51 -257 -139 -389l-374 -558h-383zM603 422c120 0 209 84 209 199c0 118 -89 201 -209 201c-121 0 -210 -83 -210 -201c0 -115 89 -199 210 -199z" />
    <glyph glyph-name="uni2007.tosf" horiz-adv-x="1200" 
 />
    <glyph glyph-name="exclam.sc" horiz-adv-x="580" 
d="M456 1082l-32 -659h-268l-32 659h332zM291 334c96 0 178 -83 178 -179c0 -97 -82 -181 -178 -181c-97 0 -181 84 -181 181c0 96 84 179 181 179z" />
    <glyph glyph-name="numbersign.sc" horiz-adv-x="1203" 
d="M211 868h132l47 214h256l-47 -214h147l47 214h257l-47 -214h130l-50 -233h-132l-40 -183h131l-49 -233h-133l-48 -219h-257l48 219h-146l-48 -219h-256l48 219h-131l50 233h132l40 183h-132zM548 635l-40 -183h146l40 183h-146z" />
    <glyph glyph-name="dollar.sc" horiz-adv-x="1200" 
d="M1050 960l-123 -228c-93 47 -196 84 -314 84c-87 0 -151 -19 -151 -62c0 -57 107 -62 226 -83l40 -7c217 -38 339 -138 339 -291c0 -203 -145 -317 -345 -348v-145h-219v141c-149 13 -285 53 -384 120l138 228c105 -60 219 -104 355 -104c86 0 151 18 151 64
c0 54 -71 64 -209 85l-47 7c-236 35 -350 139 -346 313c4 172 137 296 342 325v138h219v-138c134 -15 227 -49 328 -99z" />
    <glyph glyph-name="percent.sc" horiz-adv-x="1610" 
d="M367 1101c182 0 316 -127 316 -301c0 -173 -134 -301 -316 -301c-181 0 -315 128 -315 301c0 174 134 301 315 301zM367 901c-58 0 -101 -45 -101 -101s43 -101 101 -101c59 0 101 45 101 101s-42 101 -101 101zM1353 1082l-832 -1082h-272l832 1082h272zM1242 582
c182 0 316 -127 316 -301c0 -173 -134 -301 -316 -301c-180 0 -315 128 -315 301c0 169 135 301 315 301zM1242 382c-58 0 -101 -46 -101 -101c0 -56 43 -101 101 -101c60 0 102 45 102 101s-42 101 -102 101z" />
    <glyph glyph-name="ampersand.sc" horiz-adv-x="1221" 
d="M1209 0h-364l-92 85c-83 -59 -189 -105 -320 -105c-235 0 -368 122 -368 291c0 122 81 213 178 286c-79 83 -118 151 -118 246c0 179 143 299 361 299c214 0 358 -116 358 -290c0 -113 -97 -199 -204 -271l116 -111l170 194l197 -149l-187 -216zM458 218
c43 0 84 17 123 44l-150 140c-43 -34 -72 -68 -72 -104c0 -48 42 -80 99 -80zM399 804c0 -27 17 -48 71 -101c60 38 102 71 102 105c0 39 -34 68 -86 68c-55 0 -87 -28 -87 -72z" />
    <glyph glyph-name="parenleft.sc" horiz-adv-x="696" 
d="M569 1234l81 -244c-207 -96 -290 -254 -290 -449c0 -194 83 -351 290 -448l-81 -244c-293 94 -504 355 -504 692c0 339 211 598 504 693z" />
    <glyph glyph-name="parenright.sc" horiz-adv-x="696" 
d="M127 -151l-81 244c207 96 290 254 290 449c0 194 -83 351 -290 448l81 244c293 -94 504 -355 504 -692c0 -339 -211 -598 -504 -693z" />
    <glyph glyph-name="asterisk.sc" horiz-adv-x="791" 
d="M127 973l165 -61l-9 170h223l-9 -171l166 62l70 -211l-170 -44l110 -131l-182 -131l-96 144l-97 -144l-180 131l109 131l-169 44z" />
    <glyph glyph-name="slash.sc" horiz-adv-x="954" 
d="M908 1082l-544 -1082h-318l545 1082h317z" />
    <glyph glyph-name="zero.sc" horiz-adv-x="1155" 
d="M578 1101c280 0 500 -210 500 -560c0 -351 -220 -561 -500 -561s-501 210 -501 561c0 350 221 560 501 560zM578 820c-111 0 -195 -96 -195 -279s84 -279 195 -279c110 0 194 96 194 279s-84 279 -194 279z" />
    <glyph glyph-name="one.sc" horiz-adv-x="719" 
d="M595 1099v-1099h-295v700l-261 -88v284z" />
    <glyph glyph-name="two.sc" horiz-adv-x="950" 
d="M216 702l-166 204c76 88 210 195 428 195c238 0 395 -141 395 -364c0 -143 -84 -242 -190 -333l-155 -133h368v-271h-783v230l379 342c50 45 76 91 76 139c0 67 -56 108 -127 108c-94 0 -162 -56 -225 -117z" />
    <glyph glyph-name="three.sc" horiz-adv-x="949" 
d="M435 1101c250 0 426 -124 426 -314c0 -112 -58 -197 -162 -244c117 -45 184 -130 184 -240c0 -220 -214 -323 -442 -323c-172 0 -312 58 -402 160l160 190c62 -62 139 -95 225 -95c85 0 155 28 155 90c0 65 -79 99 -174 99h-122v241h125c86 0 151 32 151 92
c0 57 -53 85 -135 85c-103 0 -175 -44 -225 -96l-158 195c91 93 212 160 394 160z" />
    <glyph glyph-name="four.sc" horiz-adv-x="973" 
d="M814 724v-281h128v-272h-128v-171h-293v171h-490v200l342 711h320l-311 -639h139v77l97 204h196z" />
    <glyph glyph-name="five.sc" horiz-adv-x="966" 
d="M825 1082v-269h-424l-3 -129h93c257 0 405 -119 405 -319c0 -231 -179 -385 -437 -385c-174 0 -321 64 -409 138l134 224c50 -39 162 -98 273 -98c87 0 135 33 135 102c0 55 -45 92 -173 92h-282l15 644h673z" />
    <glyph glyph-name="six.sc" horiz-adv-x="986" 
d="M800 1082l-265 -356c260 -2 401 -164 401 -360c0 -224 -192 -386 -445 -386c-252 0 -445 158 -445 376c0 105 43 210 117 316l284 410h353zM491 485c-79 0 -135 -52 -135 -122c0 -72 56 -124 135 -124s136 52 136 124c0 70 -57 122 -136 122z" />
    <glyph glyph-name="seven.sc" horiz-adv-x="917" 
d="M871 1082v-232l-422 -850h-352l425 810h-476v272h825z" />
    <glyph glyph-name="eight.sc" horiz-adv-x="1040" 
d="M519 1101c234 0 426 -117 426 -314c0 -123 -76 -198 -176 -241c114 -41 205 -118 205 -251c0 -198 -206 -315 -455 -315s-454 117 -454 315c0 133 90 210 203 251c-99 42 -175 118 -175 241c0 197 192 314 426 314zM519 438c-70 0 -132 -38 -132 -106
c0 -66 62 -102 132 -102s132 36 132 102c0 68 -62 106 -132 106zM519 849c-67 0 -117 -33 -117 -94c0 -59 50 -96 117 -96s116 37 116 96c0 61 -49 94 -116 94z" />
    <glyph glyph-name="nine.sc" horiz-adv-x="985" 
d="M186 0l263 355c-259 2 -399 164 -399 360c0 225 192 387 445 387c252 0 444 -158 444 -376c0 -106 -43 -211 -116 -317l-285 -409h-352zM495 596c78 0 134 52 134 123c0 72 -56 124 -134 124s-136 -52 -136 -124c0 -71 58 -123 136 -123z" />
    <glyph glyph-name="question.sc" horiz-adv-x="773" 
d="M416 409h-268v280h88c123 0 180 24 180 73c0 46 -59 71 -182 71c-37 0 -79 -3 -114 -7l-18 270c53 9 120 12 189 12c275 0 437 -137 437 -315c0 -172 -110 -271 -306 -309zM284 334c96 0 178 -83 178 -179c0 -97 -82 -181 -178 -181c-98 0 -181 84 -181 181
c0 96 83 179 181 179z" />
    <glyph glyph-name="at.sc" horiz-adv-x="1479" 
d="M1032 822v-336c0 -50 18 -84 56 -84c55 0 88 57 88 177c0 232 -173 404 -425 404c-261 0 -440 -182 -440 -445c0 -264 174 -445 426 -445c88 0 155 15 236 67l119 -171c-104 -76 -227 -101 -346 -101c-399 0 -668 275 -668 650c0 374 279 649 673 649
c386 0 650 -264 650 -607c0 -218 -131 -369 -323 -369c-115 0 -183 45 -220 100c-33 -44 -85 -75 -165 -75c-168 0 -259 137 -259 302c0 163 97 301 246 301c75 0 121 -33 149 -79v62h203zM740 633c-48 0 -86 -39 -86 -97c0 -56 38 -96 86 -96s85 40 85 96
c0 57 -37 97 -85 97z" />
    <glyph glyph-name="bracketleft.sc" horiz-adv-x="646" 
d="M600 150v-251h-484v1285h484v-251h-199v-783h199z" />
    <glyph glyph-name="backslash.sc" horiz-adv-x="954" 
d="M590 0l-544 1082h317l545 -1082h-318z" />
    <glyph glyph-name="bracketright.sc" horiz-adv-x="646" 
d="M46 933v251h484v-1285h-484v251h199v783h-199z" />
    <glyph glyph-name="a.sc" horiz-adv-x="1226" 
d="M792 1082l422 -1082h-321l-73 201h-420l-72 -201h-316l422 1082h358zM610 784l-118 -328h237z" />
    <glyph glyph-name="b.sc" horiz-adv-x="1137" 
d="M116 1082h500c296 0 433 -120 433 -312c0 -105 -62 -186 -149 -228c97 -36 172 -126 172 -232c0 -191 -135 -310 -428 -310h-528v1082zM623 427h-204v-189h203c92 0 141 31 141 96c0 61 -49 93 -140 93zM604 842h-185v-185h184c87 0 135 30 135 92c0 63 -48 93 -134 93z
" />
    <glyph glyph-name="c.sc" horiz-adv-x="1195" 
d="M648 1102c216 0 408 -103 504 -279l-269 -146c-51 89 -134 135 -240 135c-151 0 -263 -111 -263 -271c0 -184 130 -271 263 -271c104 0 189 45 248 134l248 -172c-103 -156 -273 -252 -491 -252c-341 0 -583 231 -583 561s242 561 583 561z" />
    <glyph glyph-name="d.sc" horiz-adv-x="1242" 
d="M116 1082h488c345 0 573 -215 573 -541s-228 -541 -573 -541h-488v1082zM597 804h-179v-526h179c179 0 265 111 265 263c0 154 -86 263 -265 263z" />
    <glyph glyph-name="e.sc" horiz-adv-x="1080" 
d="M988 257v-257h-872v1082h871v-257h-568v-152h530v-257h-530v-159h569z" />
    <glyph glyph-name="f.sc" horiz-adv-x="1049" 
d="M940 656v-268h-521v-388h-303v1082h864v-269h-561v-157h521z" />
    <glyph glyph-name="g.sc" horiz-adv-x="1255" 
d="M656 1102c176 0 310 -57 403 -149l-213 -209c-49 45 -115 76 -208 76c-154 0 -263 -115 -263 -279c0 -195 129 -288 268 -288c137 0 216 49 247 150h-257v219h550c5 -35 7 -69 7 -102c0 -365 -276 -539 -533 -539c-348 0 -592 234 -592 560c0 329 245 561 591 561z" />
    <glyph glyph-name="h.sc" horiz-adv-x="1251" 
d="M419 1082v-397h413v397h303v-1082h-303v408h-413v-408h-303v1082h303z" />
    <glyph glyph-name="i.sc" horiz-adv-x="535" 
d="M419 1082v-1082h-303v1082h303z" />
    <glyph glyph-name="j.sc" horiz-adv-x="909" 
d="M799 1082v-663c0 -297 -168 -439 -422 -439c-165 0 -289 55 -355 117l147 235c40 -31 99 -63 179 -63c93 0 148 46 148 175v638h303z" />
    <glyph glyph-name="k.sc" horiz-adv-x="1181" 
d="M419 1082v-403h92l277 403h368l-402 -528l438 -554h-372l-311 411h-90v-411h-303v1082h303z" />
    <glyph glyph-name="l.sc" horiz-adv-x="979" 
d="M956 278v-278h-840v1082h303v-804h537z" />
    <glyph glyph-name="m.sc" horiz-adv-x="1516" 
d="M1400 1082v-1082h-292v706l-201 -606h-299l-200 606v-706h-292v1082h412l230 -667l230 667h412z" />
    <glyph glyph-name="n.sc" horiz-adv-x="1290" 
d="M1174 1082v-1082h-293l-462 593v-593h-303v1082h293l462 -593v593h303z" />
    <glyph glyph-name="o.sc" horiz-adv-x="1297" 
d="M649 1102c341 0 583 -238 583 -561s-242 -561 -583 -561c-342 0 -584 238 -584 561s242 561 584 561zM649 812c-160 0 -269 -111 -269 -271c0 -161 109 -271 269 -271c158 0 269 110 269 271c0 160 -111 271 -269 271z" />
    <glyph glyph-name="p.sc" horiz-adv-x="1102" 
d="M617 335h-198v-335h-303v1082h497c284 0 433 -154 433 -378c0 -219 -149 -369 -429 -369zM610 811h-191v-213h191c75 0 130 39 130 106c0 68 -55 107 -130 107z" />
    <glyph glyph-name="q.sc" horiz-adv-x="1313" 
d="M649 1102c341 0 583 -238 583 -561c0 -113 -32 -205 -86 -284l193 -257h-357l-46 60c-81 -49 -176 -80 -287 -80c-341 0 -584 238 -584 561s243 561 584 561zM890 505l21 -29c4 20 7 42 7 65c0 160 -110 271 -269 271c-160 0 -269 -111 -269 -271
c0 -161 109 -271 269 -271c40 0 77 7 110 20l-164 216z" />
    <glyph glyph-name="r.sc" horiz-adv-x="1121" 
d="M612 1081c284 0 433 -142 433 -360c0 -164 -96 -282 -278 -323l304 -398h-360l-264 383h-29v-383h-302v1081h496zM607 817h-189v-191h189c80 0 137 30 137 95s-57 96 -137 96z" />
    </font>
</defs>
</svg>
