<?xml version="1.0" standalone="no"?>
<!DOCTYPE svg PUBLIC "-//W3C//DTD SVG 1.1//EN" "http://www.w3.org/Graphics/SVG/1.1/DTD/svg11.dtd" >
<svg xmlns="http://www.w3.org/2000/svg" xmlns:xlink="http://www.w3.org/1999/xlink" version="1.1">
<metadata>
Created by FontForge 20190801 at Thu Aug 15 14:12:07 2013
 By Jimmy Wärting
2013 published by FontShop International GmbH
</metadata>
<defs>
<font id="MarkPro-HeavyItalic" horiz-adv-x="1" >
  <font-face 
    font-family="MarkPro-HeavyItalic"
    font-weight="800"
    font-style="italic"
    font-stretch="normal"
    units-per-em="2000"
    panose-1="2 11 9 4 2 1 1 1 1 2"
    ascent="1580"
    descent="-420"
    x-height="981"
    cap-height="1400"
    bbox="-1366 -492 2921 2242"
    underline-thickness="236"
    underline-position="-260"
    slope="-12"
    stemh="292"
    stemv="313"
    unicode-range="U+000D-FEFF"
  />
<missing-glyph horiz-adv-x="1138" 
d="M0 0v1400h1138v-1400h-1138zM236 236h666v928h-666v-928z" />
    <glyph glyph-name=".notdef" horiz-adv-x="1138" 
d="M0 0v1400h1138v-1400h-1138zM236 236h666v928h-666v-928z" />
    <glyph glyph-name=".null" horiz-adv-x="0" 
 />
    <glyph glyph-name=".null" horiz-adv-x="0" 
 />
    <glyph glyph-name="CR" unicode="&#xd;" horiz-adv-x="449" 
 />
    <glyph glyph-name="space" unicode=" " horiz-adv-x="449" 
 />
    <glyph glyph-name="exclam" unicode="!" horiz-adv-x="566" 
d="M647 1400l-224 -899h-276l131 899h369zM232 387c110 0 205 -95 205 -205c0 -112 -95 -208 -205 -208c-111 0 -207 96 -207 208c0 110 96 205 207 205z" />
    <glyph glyph-name="quotedbl" unicode="&#x22;" horiz-adv-x="1117" 
d="M372 1440h313l-139 -650h-312zM836 1440h313l-139 -650h-312z" />
    <glyph glyph-name="numbersign" unicode="#" horiz-adv-x="1383" 
d="M297 1096h183l102 304h284l-102 -304h209l102 304h285l-102 -304h181l-88 -262h-181l-88 -261h182l-87 -262h-183l-104 -311h-285l104 311h-209l-104 -311h-284l104 311h-181l87 262h182l88 261h-183zM676 834l-88 -261h209l88 261h-209z" />
    <glyph glyph-name="dollar" unicode="$" horiz-adv-x="1400" 
d="M1365 1226l-157 -244c-130 91 -299 120 -402 120c-151 0 -215 -59 -215 -128c0 -83 99 -111 209 -132l67 -13c237 -46 392 -158 392 -355c0 -261 -212 -432 -522 -451l-39 -187h-251l42 201c-146 25 -298 78 -403 167l172 243c136 -108 310 -149 441 -149
c130 0 227 44 227 132c0 75 -76 104 -225 131l-71 13c-227 42 -371 161 -371 357c0 245 183 439 516 450l38 176h251l-41 -194c108 -20 225 -60 342 -137z" />
    <glyph glyph-name="percent" unicode="%" horiz-adv-x="2025" 
d="M580 1426c212 0 366 -147 366 -354c0 -224 -177 -415 -412 -415c-212 0 -366 147 -366 354c0 224 177 415 412 415zM568 1193c-87 0 -152 -76 -152 -165c0 -81 55 -138 130 -138c87 0 152 76 152 165c0 81 -55 138 -130 138zM1801 1400l-1168 -1400h-319l1168 1400h319z
M1582 742c212 0 365 -146 365 -353c0 -225 -176 -415 -412 -415c-212 0 -365 146 -365 353c0 225 176 415 412 415zM1570 510c-87 0 -152 -76 -152 -165c0 -81 55 -138 130 -138c86 0 152 75 152 165c0 80 -56 138 -130 138z" />
    <glyph glyph-name="ampersand" unicode="&#x26;" horiz-adv-x="1453" 
d="M1183 786l196 -181l-295 -292l250 -313h-387l-86 109c-104 -75 -233 -134 -414 -134c-242 0 -410 124 -410 347c0 217 151 344 320 437c-64 99 -96 182 -96 279c0 218 156 387 439 387c245 0 419 -138 419 -346c0 -190 -158 -304 -329 -396l127 -159zM507 250
c72 0 134 25 192 66l-179 225c-88 -52 -149 -107 -149 -178c0 -73 56 -113 136 -113zM569 1033c0 -33 13 -67 64 -140c102 51 176 101 176 170c0 57 -47 92 -119 92c-84 0 -121 -53 -121 -122z" />
    <glyph glyph-name="quotesingle" unicode="'" horiz-adv-x="653" 
d="M372 1440h313l-139 -650h-312z" />
    <glyph glyph-name="parenleft" unicode="(" horiz-adv-x="795" 
d="M812 1455l65 -274c-304 -116 -465 -431 -465 -748c0 -207 66 -351 220 -482l-129 -266c-267 153 -419 413 -419 753c0 432 269 881 728 1017z" />
    <glyph glyph-name="parenright" unicode=")" horiz-adv-x="795" 
d="M16 -318l-65 274c304 116 465 431 465 748c0 207 -66 351 -220 482l129 266c267 -153 419 -413 419 -753c0 -432 -269 -881 -728 -1017z" />
    <glyph glyph-name="asterisk" unicode="*" horiz-adv-x="946" 
d="M311 1319l201 -104l39 225h245l-60 -248l233 57l27 -239l-237 -41l99 -188l-223 -122l-84 197l-163 -174l-166 163l175 163l-208 88z" />
    <glyph glyph-name="plus" unicode="+" horiz-adv-x="1200" 
d="M631 60h-263l73 343h-339l54 257h340l73 343h263l-73 -343h339l-54 -257h-340z" />
    <glyph glyph-name="comma" unicode="," horiz-adv-x="555" 
d="M113 363h342l-283 -650h-276z" />
    <glyph glyph-name="hyphen" unicode="-" horiz-adv-x="764" 
d="M715 665l-56 -267h-594l57 267h593z" />
    <glyph glyph-name="period" unicode="." horiz-adv-x="566" 
d="M223 402c115 0 213 -98 213 -212c0 -116 -98 -216 -213 -216s-215 100 -215 216c0 114 100 212 215 212z" />
    <glyph glyph-name="slash" unicode="/" horiz-adv-x="1067" 
d="M1231 1540l-1063 -1740h-326l1063 1740h326z" />
    <glyph glyph-name="zero" unicode="0" horiz-adv-x="1393" 
d="M839 1426c310 0 531 -209 531 -562c0 -402 -260 -890 -727 -890c-311 0 -532 210 -532 562c0 401 260 890 728 890zM818 1115c-237 0 -364 -311 -364 -548c0 -176 78 -282 209 -282c236 0 364 310 364 548c0 177 -77 282 -209 282z" />
    <glyph glyph-name="one" unicode="1" horiz-adv-x="792" 
d="M862 1422l-303 -1422h-327l207 979l-317 -103l71 334z" />
    <glyph glyph-name="two" unicode="2" horiz-adv-x="1151" 
d="M368 965l-165 237c100 110 249 223 489 223c314 0 460 -204 460 -408c0 -185 -83 -305 -319 -504l-251 -212h473l-65 -301h-946l57 260l530 441c139 116 184 189 184 268c0 81 -63 146 -173 146c-120 0 -193 -62 -274 -150z" />
    <glyph glyph-name="three" unicode="3" horiz-adv-x="1139" 
d="M347 1008l-149 230c120 116 269 187 491 187c289 0 465 -166 465 -362c0 -159 -109 -306 -277 -373c112 -53 171 -149 171 -262c0 -249 -208 -453 -564 -453c-225 0 -389 75 -478 203l214 203c62 -76 160 -116 272 -116c152 0 225 74 225 169c0 85 -87 130 -204 130h-152
l61 285h150c154 0 243 74 243 164c0 76 -71 122 -178 122c-116 0 -217 -60 -290 -127z" />
    <glyph glyph-name="four" unicode="4" horiz-adv-x="1163" 
d="M1044 908l-78 -368h176l-65 -301h-175l-51 -239h-324l50 239h-599l55 258l599 902h371l-570 -859h208l33 153l142 215h228z" />
    <glyph glyph-name="five" unicode="5" horiz-adv-x="1129" 
d="M1139 1400l-64 -298h-519l-53 -220h88c328 0 503 -215 447 -483c-60 -291 -284 -425 -578 -425c-198 0 -369 73 -471 202l191 215c76 -81 180 -121 296 -121c140 0 215 61 231 151c18 97 -36 175 -215 175h-340l187 804h800z" />
    <glyph glyph-name="six" unicode="6" horiz-adv-x="1191" 
d="M1103 1400l-417 -472c259 -15 448 -170 448 -427c0 -287 -233 -526 -570 -526c-285 0 -520 176 -520 449c0 126 50 272 192 440l454 536h413zM600 655c-128 0 -213 -96 -213 -211c0 -106 76 -180 190 -180c127 0 215 96 215 213c0 106 -81 178 -192 178z" />
    <glyph glyph-name="seven" unicode="7" horiz-adv-x="1089" 
d="M1233 1400l-56 -271l-698 -1129h-388l693 1099h-615l65 301h999z" />
    <glyph glyph-name="eight" unicode="8" horiz-adv-x="1229" 
d="M768 1425c266 0 480 -139 480 -365c0 -158 -105 -293 -287 -364c107 -55 179 -144 179 -263c0 -249 -219 -458 -604 -458c-281 0 -498 138 -498 359c0 167 112 308 309 379c-89 52 -144 135 -144 246c0 251 212 466 565 466zM615 582c-122 0 -220 -75 -220 -186
c0 -90 82 -139 177 -139c124 0 222 70 222 183c0 91 -82 142 -179 142zM744 1138c-116 0 -199 -70 -199 -172c0 -81 64 -128 156 -128c113 0 200 71 200 173c0 82 -69 127 -157 127z" />
    <glyph glyph-name="nine" unicode="9" horiz-adv-x="1190" 
d="M176 0l417 472c-259 14 -447 170 -447 427c0 287 233 526 569 526c286 0 520 -176 520 -449c0 -126 -50 -272 -192 -440l-454 -536h-413zM679 745c128 0 213 96 213 211c0 106 -75 180 -190 180c-127 0 -214 -96 -214 -213c0 -106 81 -178 191 -178z" />
    <glyph glyph-name="colon" unicode=":" horiz-adv-x="566" 
d="M353 1008c114 0 212 -99 212 -213c0 -116 -98 -215 -212 -215c-116 0 -215 99 -215 215c0 114 99 213 215 213zM224 402c115 0 213 -98 213 -212c0 -116 -98 -216 -213 -216s-215 100 -215 216c0 114 100 212 215 212z" />
    <glyph glyph-name="semicolon" unicode=";" horiz-adv-x="555" 
d="M353 1008c114 0 213 -99 213 -213c0 -116 -99 -215 -213 -215c-116 0 -215 99 -215 215c0 114 99 213 215 213zM113 363h342l-283 -650h-276z" />
    <glyph glyph-name="less" unicode="&#x3c;" horiz-adv-x="1200" 
d="M162 390l61 284l903 380l-68 -317l-588 -225l492 -226l-59 -277z" />
    <glyph glyph-name="equal" unicode="=" horiz-adv-x="1200" 
d="M1059 436l-54 -258h-942l54 258h942zM1155 885l-54 -258h-943l55 258h942z" />
    <glyph glyph-name="greater" unicode="&#x3e;" horiz-adv-x="1200" 
d="M1056 673l-61 -284l-903 -380l68 317l588 225l-492 226l59 277z" />
    <glyph glyph-name="question" unicode="?" horiz-adv-x="862" 
d="M440 494h-292l76 358h101c182 0 258 50 258 133c0 81 -102 123 -241 125c-30 0 -91 0 -116 -2l21 313c39 3 83 4 127 4c331 0 557 -143 557 -399c0 -240 -156 -400 -463 -434zM245 388c110 0 205 -95 205 -205c0 -112 -95 -209 -205 -209c-111 0 -207 96 -207 208
c0 111 96 206 207 206z" />
    <glyph glyph-name="at" unicode="@" horiz-adv-x="1829" 
d="M1170 -4l128 -191c-135 -103 -305 -135 -463 -135c-423 0 -747 290 -747 738c0 500 360 920 922 920c418 0 749 -277 749 -694c0 -270 -136 -554 -434 -554c-118 0 -210 52 -257 135c-51 -62 -125 -108 -230 -108c-184 0 -316 138 -316 349c0 229 154 437 368 437
c97 0 162 -38 202 -95l16 75h246l-80 -378c-6 -28 -8 -53 -8 -75c0 -75 30 -112 84 -112c109 0 151 186 151 318c0 291 -211 470 -510 470c-393 0 -637 -310 -637 -678c0 -330 216 -514 505 -514c112 0 211 21 311 92zM925 659c-84 0 -144 -84 -144 -179
c0 -91 55 -142 121 -142c85 0 145 85 145 180c0 84 -50 141 -122 141z" />
    <glyph glyph-name="A" unicode="A" horiz-adv-x="1482" 
d="M1131 1400l233 -1400h-339l-42 294h-541l-165 -294h-366l821 1400h399zM874 1064l-263 -468h329z" />
    <glyph glyph-name="B" unicode="B" horiz-adv-x="1341" 
d="M315 1400h573c295 0 468 -154 468 -342c0 -153 -87 -291 -258 -356c119 -47 194 -182 158 -331c-63 -263 -248 -371 -607 -371h-632zM744 564h-265l-60 -284h265c131 0 210 31 234 127c24 99 -43 157 -174 157zM837 1119h-240l-59 -276h240c165 0 224 72 224 156
c0 74 -63 120 -165 120z" />
    <glyph glyph-name="C" unicode="C" horiz-adv-x="1442" 
d="M1126 463l245 -207c-142 -178 -328 -281 -576 -281c-405 0 -685 269 -685 659c0 454 329 792 783 792c166 0 451 -42 604 -346l-293 -170c-69 130 -181 195 -329 195c-231 0 -417 -187 -417 -446c0 -231 161 -363 348 -363c125 0 234 56 320 167z" />
    <glyph glyph-name="D" unicode="D" horiz-adv-x="1494" 
d="M837 1400c403 0 646 -263 646 -582c0 -459 -306 -818 -862 -818h-604l298 1400h522zM798 1091h-207l-166 -782h234c296 0 471 191 471 464c0 183 -101 318 -332 318z" />
    <glyph glyph-name="E" unicode="E" horiz-adv-x="1266" 
d="M1212 857l-64 -300h-671l-54 -256h712l-64 -301h-1054l298 1400h1048l-64 -301h-706l-52 -242h671z" />
    <glyph glyph-name="F" unicode="F" horiz-adv-x="1229" 
d="M1199 837l-64 -302h-662l-114 -535h-342l298 1400h1035l-65 -301h-692l-56 -262h662z" />
    <glyph glyph-name="G" unicode="G" horiz-adv-x="1550" 
d="M1414 1200l-258 -213c-64 75 -158 125 -288 125c-231 0 -413 -191 -413 -463c0 -231 147 -369 363 -369c184 0 304 86 352 250h-347l56 258h647c3 -42 1 -87 -5 -134c-54 -445 -361 -680 -719 -680c-401 0 -692 265 -692 657c0 463 338 795 785 795
c143 0 371 -33 519 -226z" />
    <glyph glyph-name="H" unicode="H" horiz-adv-x="1499" 
d="M657 1400l-115 -539h572l115 539h342l-299 -1400h-341l117 552h-572l-117 -552h-342l298 1400h342z" />
    <glyph glyph-name="I" unicode="I" horiz-adv-x="585" 
d="M657 1400l-298 -1400h-341l297 1400h342z" />
    <glyph glyph-name="J" unicode="J" horiz-adv-x="1050" 
d="M1128 1400l-190 -894c-83 -390 -296 -532 -569 -532c-179 0 -330 65 -417 177l188 249c48 -58 125 -105 223 -105c123 0 205 72 247 271l176 834h342z" />
    <glyph glyph-name="K" unicode="K" horiz-adv-x="1396" 
d="M657 1400l-116 -545h98l497 545h422l-681 -709l421 -691h-382l-330 554h-109l-118 -554h-342l298 1400h342z" />
    <glyph glyph-name="L" unicode="L" horiz-adv-x="1167" 
d="M657 1400l-232 -1090h679l-66 -310h-1021l298 1400h342z" />
    <glyph glyph-name="M" unicode="M" horiz-adv-x="1804" 
d="M1876 1400l-298 -1400h-339l201 943l-430 -811h-355l-99 807l-199 -939h-340l298 1400h466l114 -898l487 898h494z" />
    <glyph glyph-name="N" unicode="N" horiz-adv-x="1526" 
d="M1598 1400l-298 -1400h-315l-441 879l-186 -879h-341l298 1400h317l440 -880l186 880h340z" />
    <glyph glyph-name="O" unicode="O" horiz-adv-x="1598" 
d="M890 1426c399 0 688 -263 688 -661c0 -431 -321 -791 -782 -791c-399 0 -687 263 -687 661c0 430 321 791 781 791zM872 1105c-244 0 -415 -203 -415 -449c0 -222 148 -362 358 -362c243 0 415 203 415 450c0 221 -149 361 -358 361z" />
    <glyph glyph-name="P" unicode="P" horiz-adv-x="1277" 
d="M728 473h-269l-100 -473h-342l298 1400h536c303 0 470 -183 470 -406c0 -310 -219 -521 -593 -521zM806 1097h-214l-69 -326h223c145 0 233 70 233 185c0 84 -62 141 -173 141z" />
    <glyph glyph-name="Q" unicode="Q" horiz-adv-x="1636" 
d="M890 1426c399 0 688 -263 688 -661c0 -173 -52 -334 -143 -465l193 -300h-379l-51 80c-115 -67 -251 -106 -402 -106c-399 0 -687 263 -687 661c0 430 321 791 781 791zM872 1105c-244 0 -415 -203 -415 -449c0 -222 148 -362 358 -362c75 0 143 19 201 53l-179 285h343
l26 -41c15 48 24 99 24 153c0 221 -149 361 -358 361z" />
    <glyph glyph-name="R" unicode="R" horiz-adv-x="1317" 
d="M315 1400h558c303 0 471 -183 471 -398c0 -206 -115 -431 -475 -472l355 -530h-385l-326 524h-43l-111 -524h-342zM826 1097h-234l-62 -292h252c166 0 220 80 220 165c0 78 -65 127 -176 127z" />
    <glyph glyph-name="S" unicode="S" horiz-adv-x="1334" 
d="M1365 1258l-171 -266c-134 98 -316 128 -418 128c-149 0 -214 -60 -214 -130c0 -87 108 -116 219 -138l63 -12c253 -48 406 -170 406 -377c0 -300 -252 -489 -613 -489c-209 0 -468 61 -626 196l189 265c145 -114 319 -158 463 -158c128 0 223 44 223 135
c0 78 -80 106 -232 135l-68 13c-239 46 -388 173 -388 381c0 273 209 485 578 485c161 0 377 -24 589 -168z" />
    <glyph glyph-name="T" unicode="T" horiz-adv-x="1199" 
d="M1368 1400l-66 -310h-402l-232 -1090h-342l232 1090h-406l66 310h1150z" />
    <glyph glyph-name="U" unicode="U" horiz-adv-x="1431" 
d="M1515 1400l-184 -865c-77 -363 -296 -561 -658 -561c-339 0 -560 164 -560 463c0 47 6 99 17 152l174 811h341l-176 -822c-7 -32 -10 -61 -10 -87c0 -134 87 -196 227 -196c154 0 272 87 313 280l174 825h342z" />
    <glyph glyph-name="V" unicode="V" horiz-adv-x="1453" 
d="M1632 1400l-795 -1400h-400l-228 1400h341l147 -1055l571 1055h364z" />
    <glyph glyph-name="W" unicode="W" horiz-adv-x="2158" 
d="M2328 1400l-691 -1400h-389l-66 908l-433 -908h-406l-125 1400h336l71 -1004l471 1004h343l65 -998l467 998h357z" />
    <glyph glyph-name="X" unicode="X" horiz-adv-x="1341" 
d="M1508 1400l-604 -709l315 -691h-359l-188 443l-364 -443h-403l618 720l-300 680h357l172 -444l360 444h396z" />
    <glyph glyph-name="Y" unicode="Y" horiz-adv-x="1381" 
d="M1570 1400l-695 -862l-115 -538h-341l120 566l-341 834h356l199 -547l420 547h397z" />
    <glyph glyph-name="Z" unicode="Z" horiz-adv-x="1267" 
d="M1370 1400l-58 -270l-816 -829h670l-64 -301h-1116l58 273l815 826h-657l64 301h1104z" />
    <glyph glyph-name="bracketleft" unicode="[" horiz-adv-x="749" 
d="M599 17l-59 -280h-579l354 1663h579l-60 -280h-263l-235 -1103h263z" />
    <glyph glyph-name="backslash" unicode="\" horiz-adv-x="1807" 
d="M1345 -200l-1063 1740h326l1063 -1740h-326z" />
    <glyph glyph-name="bracketright" unicode="]" horiz-adv-x="749" 
d="M183 1120l59 280h579l-354 -1663h-579l60 280h262l235 1103h-262z" />
    <glyph glyph-name="asciicircum" unicode="^" horiz-adv-x="1200" 
d="M457 635h-301l357 765h284l357 -765h-306l-196 467z" />
    <glyph glyph-name="underscore" unicode="_" horiz-adv-x="940" 
d="M821 -92l-50 -236h-950l50 236h950z" />
    <glyph glyph-name="grave" unicode="`" horiz-adv-x="1000" 
d="M926 1105h-293l-278 332h359z" />
    <glyph glyph-name="a" unicode="a" horiz-adv-x="1187" 
d="M581 1008c116 0 213 -37 276 -111l18 84h312l-208 -981h-302l16 73c-61 -59 -139 -99 -245 -99c-234 0 -405 205 -405 457c0 247 178 577 538 577zM557 266c116 0 209 92 224 219c18 148 -78 231 -185 231c-129 0 -227 -115 -227 -253c0 -133 94 -197 188 -197z" />
    <glyph glyph-name="b" unicode="b" horiz-adv-x="1190" 
d="M609 -26c-116 0 -214 37 -276 110l-18 -84h-315l306 1440h315l-105 -492c53 37 121 60 217 60c239 0 414 -205 414 -457c0 -247 -178 -577 -538 -577zM633 715c-117 0 -209 -92 -224 -218c-18 -149 78 -232 184 -232c130 0 228 115 228 253c0 133 -94 197 -188 197z" />
    <glyph glyph-name="c" unicode="c" horiz-adv-x="1032" 
d="M1047 741l-276 -131c-43 80 -110 106 -176 106c-134 0 -226 -115 -226 -252c0 -115 74 -196 178 -196c69 0 130 30 183 91l224 -184c-104 -124 -249 -198 -419 -198c-288 0 -488 196 -488 466c0 306 228 563 564 563c209 0 359 -98 436 -265z" />
    <glyph glyph-name="d" unicode="d" horiz-adv-x="1189" 
d="M580 1008c116 0 213 -37 276 -111l116 543h315l-306 -1440h-305l16 73c-61 -59 -138 -99 -245 -99c-234 0 -404 205 -404 457c0 247 177 577 537 577zM557 266c116 0 209 92 224 219c18 148 -78 231 -185 231c-129 0 -227 -115 -227 -253c0 -133 94 -197 188 -197z" />
    <glyph glyph-name="e" unicode="e" horiz-adv-x="1065" 
d="M739 316l181 -186c-94 -101 -233 -156 -415 -156c-293 0 -466 181 -466 430c0 242 159 604 570 604c247 0 425 -163 425 -405c0 -65 -18 -158 -40 -209h-649c8 -103 77 -157 181 -157c73 0 148 18 213 79zM590 742c-105 0 -170 -70 -206 -150h353v5
c0 97 -57 145 -147 145z" />
    <glyph glyph-name="f" unicode="f" horiz-adv-x="823" 
d="M876 981l-59 -277h-257l-150 -704h-315l150 704h-168l59 277h168l23 106c55 252 187 379 416 379c132 0 242 -42 310 -102l-161 -228c-46 28 -89 41 -126 41c-71 0 -114 -41 -134 -137l-13 -59h257z" />
    <glyph glyph-name="g" unicode="g" horiz-adv-x="1177" 
d="M1178 981l-202 -940c-60 -281 -266 -458 -552 -458c-173 0 -324 46 -466 140l137 244c103 -73 205 -111 308 -111c148 0 246 79 271 203l5 26c-56 -42 -126 -67 -219 -67c-239 0 -413 176 -413 425s164 564 529 564c122 0 214 -39 272 -106l17 80h313zM549 303
c128 0 224 100 224 235c0 104 -79 183 -185 183c-127 0 -222 -100 -222 -234c0 -105 78 -184 183 -184z" />
    <glyph glyph-name="h" unicode="h" horiz-adv-x="1138" 
d="M752 1008c199 0 319 -135 319 -325c0 -34 -4 -71 -12 -109l-123 -574h-314l116 547c4 17 6 35 6 51c0 66 -34 116 -122 116c-85 0 -165 -43 -197 -197l-109 -517h-316l306 1440h315l-113 -527c68 66 149 95 244 95z" />
    <glyph glyph-name="i" unicode="i" horiz-adv-x="524" 
d="M525 981l-209 -981h-316l209 981h316zM429 1471c106 0 188 -82 188 -188c0 -105 -82 -186 -188 -186c-105 0 -187 81 -187 186c0 106 82 188 187 188z" />
    <glyph glyph-name="j" unicode="j" horiz-adv-x="526" 
d="M527 981l-229 -1079c-47 -222 -184 -326 -368 -326c-66 0 -135 14 -185 38l78 271c21 -12 45 -18 67 -18c44 0 89 24 106 102l215 1012h316zM429 1471c106 0 188 -82 188 -188c0 -105 -82 -186 -188 -186c-105 0 -187 81 -187 186c0 106 82 188 187 188z" />
    <glyph glyph-name="k" unicode="k" horiz-adv-x="1088" 
d="M622 1440l-167 -784h61l283 325h385l-453 -484l271 -497h-344l-192 379h-70l-80 -379h-316l306 1440h316z" />
    <glyph glyph-name="l" unicode="l" horiz-adv-x="524" 
d="M622 1440l-306 -1440h-316l306 1440h316z" />
    <glyph glyph-name="m" unicode="m" horiz-adv-x="1757" 
d="M1351 1008c211 0 338 -135 338 -325c0 -34 -3 -71 -11 -109l-124 -574h-314l116 547c4 17 6 35 6 51c0 66 -33 116 -122 116c-90 0 -165 -47 -197 -197l-110 -517h-314l116 547c17 80 2 167 -114 167c-90 0 -165 -47 -197 -197l-110 -517h-314l209 981h296l-22 -96
c72 86 162 123 269 123c133 0 226 -60 275 -152c83 107 193 152 324 152z" />
    <glyph glyph-name="n" unicode="n" horiz-adv-x="1138" 
d="M752 1008c199 0 319 -135 319 -325c0 -34 -4 -71 -12 -109l-123 -574h-314l116 547c4 17 6 35 6 51c0 66 -34 116 -122 116c-90 0 -166 -47 -198 -197l-110 -517h-314l209 981h296l-22 -95c72 86 162 122 269 122z" />
    <glyph glyph-name="o" unicode="o" horiz-adv-x="1158" 
d="M614 1008c277 0 497 -184 497 -473c0 -306 -239 -561 -567 -561c-277 0 -497 183 -497 473c0 305 239 561 567 561zM594 716c-127 0 -226 -109 -226 -250c0 -118 79 -201 193 -201c128 0 229 110 229 251c0 118 -81 200 -196 200z" />
    <glyph glyph-name="p" unicode="p" horiz-adv-x="1189" 
d="M609 -26c-116 0 -213 36 -276 109l-102 -483h-316l294 1381h304l-16 -72c61 58 138 99 245 99c233 0 404 -205 404 -457c0 -247 -177 -577 -537 -577zM633 715c-117 0 -209 -92 -225 -218c-18 -149 79 -232 185 -232c130 0 228 115 228 253c0 133 -94 197 -188 197z" />
    <glyph glyph-name="q" unicode="q" horiz-adv-x="1189" 
d="M581 1008c116 0 213 -37 276 -111l18 84h313l-292 -1382h-317l92 434c-53 -36 -120 -59 -215 -59c-238 0 -413 205 -413 457c0 247 178 577 538 577zM557 266c116 0 209 92 224 219c18 148 -78 231 -185 231c-129 0 -227 -115 -227 -253c0 -133 94 -197 188 -197z" />
    <glyph glyph-name="r" unicode="r" horiz-adv-x="800" 
d="M421 511l-107 -511h-314l209 981h296l-24 -105c70 95 158 132 262 132c43 0 87 -10 131 -25l-88 -303c-42 17 -97 27 -146 27c-102 0 -191 -62 -219 -196z" />
    <glyph glyph-name="s" unicode="s" horiz-adv-x="975" 
d="M977 897l-127 -231c-109 65 -247 88 -307 88c-81 0 -118 -20 -122 -54c-6 -50 37 -58 134 -78l61 -13c215 -44 293 -157 275 -309c-26 -215 -188 -325 -462 -325c-169 0 -350 50 -454 130l134 229c95 -62 221 -106 332 -106c94 0 130 21 134 61c5 42 -33 58 -127 76
l-62 11c-228 40 -306 159 -286 321c26 206 189 310 440 310c160 0 300 -37 437 -110z" />
    <glyph glyph-name="t" unicode="t" horiz-adv-x="952" 
d="M952 981l-59 -277h-322l-63 -295c-21 -101 20 -143 98 -143c55 0 112 24 164 54l98 -250c-103 -66 -216 -96 -334 -96c-295 0 -397 176 -343 427l64 303h-178l59 277h178l61 286h316l-61 -286h322z" />
    <glyph glyph-name="u" unicode="u" horiz-adv-x="1133" 
d="M1140 981l-122 -575c-70 -327 -283 -432 -521 -432c-246 0 -419 124 -419 365c0 40 5 81 15 127l109 515h316l-117 -547c-4 -19 -5 -35 -5 -51c0 -80 50 -117 124 -117c100 0 169 71 195 195l109 520h316z" />
    <glyph glyph-name="v" unicode="v" horiz-adv-x="1127" 
d="M1219 981l-561 -981h-357l-185 981h323l95 -651l345 651h340z" />
    <glyph glyph-name="w" unicode="w" horiz-adv-x="1773" 
d="M1134 981l73 -622l313 622h339l-536 -981h-334l-71 593l-297 -593h-355l-144 981h315l74 -624l319 624h304z" />
    <glyph glyph-name="x" unicode="x" horiz-adv-x="1142" 
d="M1203 981l-449 -504l263 -477h-342l-141 270l-226 -270h-381l452 502l-254 479h345l130 -277l221 277h382z" />
    <glyph glyph-name="y" unicode="y" horiz-adv-x="1161" 
d="M1259 981l-928 -1383h-358l455 655l-316 728h345l170 -429l274 429h358z" />
    <glyph glyph-name="z" unicode="z" horiz-adv-x="1002" 
d="M1018 981l-52 -240l-503 -464h431l-58 -277h-860l49 235l508 469h-415l59 277h841z" />
    <glyph glyph-name="braceleft" unicode="{" horiz-adv-x="876" 
d="M1003 1400l-58 -271h-65c-100 0 -164 -51 -183 -162l-14 -80c-29 -175 -94 -278 -281 -329c161 -60 180 -181 146 -308l-21 -80c-28 -108 21 -161 116 -161h82l-58 -272h-125c-275 0 -385 205 -318 477l13 53c28 109 -39 169 -175 169l56 265c145 0 229 60 248 175
l21 128c41 256 192 396 482 396h134z" />
    <glyph glyph-name="bar" unicode="|" horiz-adv-x="653" 
d="M676 1400l-354 -1665h-313l354 1665h313z" />
    <glyph glyph-name="braceright" unicode="}" horiz-adv-x="876" 
d="M-94 -263l58 271h65c100 0 164 51 183 162l14 80c30 174 93 278 280 329c-161 60 -179 180 -145 308l21 80c28 108 -21 161 -116 161h-82l58 272h125c275 0 385 -205 318 -477l-13 -53c-28 -109 39 -169 175 -169l-56 -265c-145 0 -229 -60 -248 -175l-21 -128
c-41 -256 -192 -396 -482 -396h-134z" />
    <glyph glyph-name="asciitilde" unicode="~" horiz-adv-x="1200" 
d="M1000 707l108 -206c-99 -90 -216 -143 -325 -143c-183 0 -246 101 -362 101c-65 0 -120 -33 -190 -97l-108 205c99 91 216 143 324 143c184 0 247 -100 363 -100c65 0 120 33 190 97z" />
    <glyph glyph-name="uni00A0" unicode="&#xa0;" horiz-adv-x="449" 
 />
    <glyph glyph-name="exclamdown" unicode="&#xa1;" horiz-adv-x="567" 
d="M-80 -418l224 899h276l-131 -899h-369zM335 595c-110 0 -205 95 -205 205c0 112 95 208 205 208c111 0 207 -96 207 -208c0 -110 -96 -205 -207 -205z" />
    <glyph glyph-name="cent" unicode="&#xa2;" horiz-adv-x="1400" 
d="M1273 954l-262 -130c-52 83 -123 107 -190 107c-142 0 -242 -119 -242 -260c0 -121 81 -205 193 -205c73 0 138 30 193 92l212 -180c-94 -112 -223 -181 -373 -192l-39 -186h-251l46 220c-180 68 -292 228 -292 431c0 284 201 526 503 556l41 193h251l-47 -217
c116 -40 203 -119 257 -229z" />
    <glyph glyph-name="sterling" unicode="&#xa3;" horiz-adv-x="1400" 
d="M1197 301l-65 -301h-1055l65 301h145l59 275h-147l53 248h146l23 107c70 329 299 494 588 494c167 0 299 -56 383 -166l-238 -212c-45 46 -96 68 -177 68c-114 0 -203 -65 -237 -228l-13 -63h454l-54 -248h-453l-59 -275h582z" />
    <glyph glyph-name="currency" unicode="&#xa4;" horiz-adv-x="1400" 
d="M1238 1265l144 -181l-179 -148c37 -77 52 -167 41 -262c-12 -96 -49 -183 -105 -256l106 -134l-198 -163l-106 135c-79 -38 -167 -58 -257 -53c-95 5 -179 36 -249 85l-184 -153l-144 181l180 149c-37 77 -52 166 -41 261c12 95 50 182 105 254l-108 136l198 163
l108 -137c79 39 167 59 257 54c94 -5 178 -35 247 -84zM713 446c143 -8 270 98 288 240s-82 260 -224 267c-144 8 -270 -98 -288 -239c-18 -143 80 -261 224 -268z" />
    <glyph glyph-name="yen" unicode="&#xa5;" horiz-adv-x="1400" 
d="M1210 455l-42 -198h-345l-55 -257h-325l55 257h-345l42 198h345l24 112h-346l43 198h266l-284 635h352l189 -469l385 469h382l-547 -635h272l-42 -198h-345l-24 -112h345z" />
    <glyph glyph-name="brokenbar" unicode="&#xa6;" horiz-adv-x="653" 
d="M676 1400l-148 -694h-313l148 694h313zM470 429l-148 -694h-313l148 694h313z" />
    <glyph glyph-name="section" unicode="&#xa7;" horiz-adv-x="1228" 
d="M1284 1296l-176 -246c-75 45 -185 95 -331 95c-106 0 -196 -34 -207 -95c-17 -91 89 -113 203 -134l48 -9c271 -51 379 -179 336 -373c-24 -109 -87 -183 -170 -233c55 -68 73 -154 54 -248c-60 -289 -325 -391 -576 -391c-205 0 -402 58 -512 160l189 239
c77 -58 195 -119 343 -119c110 0 201 32 215 99c17 85 -60 99 -201 126l-56 10c-242 46 -363 173 -323 359c21 100 84 181 177 238c-66 70 -86 166 -63 276c47 231 266 375 551 375c183 0 365 -48 499 -129zM608 648l-62 9c-49 -20 -84 -51 -94 -96c-18 -78 84 -94 217 -116
l78 -13c40 19 68 49 77 90c18 84 -62 104 -216 126z" />
    <glyph glyph-name="dieresis" unicode="&#xa8;" horiz-adv-x="1121" 
d="M495 1449c106 0 188 -82 188 -187c0 -106 -82 -187 -188 -187c-105 0 -186 81 -186 187c0 105 81 187 186 187zM959 1449c105 0 187 -82 187 -187c0 -106 -82 -187 -187 -187c-106 0 -187 81 -187 187c0 105 81 187 187 187z" />
    <glyph glyph-name="copyright" unicode="&#xa9;" horiz-adv-x="1819" 
d="M903 -91c-429 0 -779 320 -779 749c0 457 399 853 886 853c429 0 778 -320 778 -749c0 -457 -398 -853 -885 -853zM993 1256c-330 0 -597 -272 -597 -582c0 -298 239 -510 523 -510c330 0 597 272 597 582c0 298 -239 510 -523 510zM1370 869l-233 -94
c-29 72 -82 107 -157 107c-109 0 -171 -88 -171 -192c0 -102 68 -149 149 -149c59 0 115 30 160 94l196 -124c-78 -123 -198 -200 -371 -200c-211 0 -392 127 -392 364s172 436 436 436c180 0 333 -90 383 -242z" />
    <glyph glyph-name="ordfeminine" unicode="&#xaa;" horiz-adv-x="769" 
d="M503 1293c184 0 307 -93 307 -258c0 -26 -3 -53 -9 -82l-82 -385h-205l10 51c-46 -39 -108 -69 -188 -69c-138 0 -227 81 -227 194c0 149 117 249 314 249h169c1 5 1 10 1 15c0 60 -39 96 -129 96c-76 0 -136 -27 -190 -54l-54 173c88 47 172 70 283 70zM411 717
c51 0 103 26 141 60l16 76h-123c-69 0 -110 -31 -110 -77c0 -34 26 -59 76 -59z" />
    <glyph glyph-name="guillemotleft" unicode="&#xab;" horiz-adv-x="1112" 
d="M1141 933l-304 -434l102 -369h-285l-111 402l282 401h316zM668 933l-304 -434l102 -369h-285l-111 402l282 401h316z" />
    <glyph glyph-name="logicalnot" unicode="&#xac;" horiz-adv-x="1200" 
d="M970 88h-263l67 315h-679l55 257h942z" />
    <glyph glyph-name="uni00AD" unicode="&#xad;" horiz-adv-x="764" 
d="M715 665l-56 -267h-594l57 267h593z" />
    <glyph glyph-name="registered" unicode="&#xae;" horiz-adv-x="1034" 
d="M651 1445c239 0 443 -174 443 -429s-220 -489 -500 -489c-239 0 -444 175 -444 427c0 257 217 491 501 491zM601 669c186 0 335 165 335 338c0 171 -136 296 -292 296c-191 0 -337 -166 -337 -339c0 -172 137 -295 294 -295zM681 1195c109 0 169 -76 153 -153
c-15 -70 -66 -108 -150 -118l108 -145h-133l-92 143h-4l-30 -143h-121l89 416h180zM668 1089h-70l-14 -68h69c32 0 55 8 60 31s-13 37 -45 37z" />
    <glyph glyph-name="macron" unicode="&#xaf;" horiz-adv-x="1110" 
d="M347 1136l54 250h704l-53 -250h-705z" />
    <glyph glyph-name="degree" unicode="&#xb0;" horiz-adv-x="872" 
d="M522 618c-217 0 -382 174 -382 373c0 235 189 433 437 433c216 0 380 -176 380 -377c0 -232 -191 -429 -435 -429zM537 858c86 0 168 75 168 171c0 81 -65 148 -144 148c-86 0 -169 -75 -169 -169c0 -84 64 -150 145 -150z" />
    <glyph glyph-name="plusminus" unicode="&#xb1;" horiz-adv-x="1200" 
d="M705 352h-263l54 252h-339l54 258h340l68 319h263l-68 -319h339l-54 -258h-340zM1025 258l-55 -258h-942l55 258h942z" />
    <glyph glyph-name="twosuperior" unicode="&#xb2;" horiz-adv-x="737" 
d="M326 1125l-113 157c64 66 152 133 308 133c196 0 286 -126 286 -252c0 -110 -42 -184 -201 -304l-115 -87h268l-43 -204h-588l39 179l306 240c80 62 105 102 105 142c0 45 -38 75 -95 75c-72 0 -107 -33 -157 -79z" />
    <glyph glyph-name="threesuperior" unicode="&#xb3;" horiz-adv-x="720" 
d="M300 1154l-92 156c76 67 169 105 303 105c180 0 290 -107 290 -222c0 -90 -65 -180 -162 -218c66 -34 100 -92 100 -155c0 -145 -122 -267 -347 -267c-139 0 -240 45 -295 125l143 134c36 -43 90 -66 155 -66c84 0 118 35 118 80c0 44 -48 71 -111 71h-91l38 182h93
c86 0 128 36 128 81c0 38 -38 62 -98 62c-65 0 -126 -31 -172 -68z" />
    <glyph glyph-name="acute" unicode="&#xb4;" horiz-adv-x="1000" 
d="M653 1104h-299l245 332h366z" />
    <glyph glyph-name="mu" unicode="&#xb5;" horiz-adv-x="1136" 
d="M209 -400h-302l294 1381h314l-116 -547c-4 -17 -6 -35 -6 -51c0 -66 34 -116 122 -116c90 0 166 47 198 197l110 517h314l-209 -981h-296l22 95c-72 -86 -162 -122 -269 -122c-34 0 -66 4 -95 12z" />
    <glyph glyph-name="paragraph" unicode="&#xb6;" horiz-adv-x="1304" 
d="M446 0l119 560c-254 16 -387 181 -387 388c0 194 108 452 529 452h276l-298 -1400h-239zM790 0l298 1400h239l-298 -1400h-239z" />
    <glyph glyph-name="periodcentered" unicode="&#xb7;" horiz-adv-x="657" 
d="M343 745c115 0 213 -99 213 -213c0 -116 -98 -216 -213 -216s-215 100 -215 216c0 114 100 213 215 213z" />
    <glyph glyph-name="cedilla" unicode="&#xb8;" horiz-adv-x="1000" 
d="M587 7l-163 -328h-296l181 328h278z" />
    <glyph glyph-name="onesuperior" unicode="&#xb9;" horiz-adv-x="514" 
d="M623 1413l-179 -845h-221l117 551l-183 -54l47 224z" />
    <glyph glyph-name="ordmasculine" unicode="&#xba;" horiz-adv-x="858" 
d="M546 1293c200 0 356 -134 356 -340c0 -219 -172 -403 -407 -403c-200 0 -356 132 -356 339c0 220 172 404 407 404zM532 1091c-97 0 -172 -83 -172 -189c0 -89 60 -152 147 -152c98 0 175 84 175 190c0 90 -62 151 -150 151z" />
    <glyph glyph-name="guillemotright" unicode="&#xbb;" horiz-adv-x="1113" 
d="M-11 130l304 434l-102 369h285l111 -402l-282 -401h-316zM462 130l304 434l-102 369h285l111 -402l-282 -401h-316z" />
    <glyph glyph-name="onequarter" unicode="&#xbc;" horiz-adv-x="1669" 
d="M1483 1400l-1055 -1400h-286l1055 1400h286zM1561 554l-46 -217h97l-43 -204h-97l-28 -133h-221l28 133h-358l38 175l341 523h250l-321 -494h94l15 70l94 147h157zM623 1413l-179 -845h-221l117 551l-183 -54l47 224z" />
    <glyph glyph-name="onehalf" unicode="&#xbd;" horiz-adv-x="1781" 
d="M1483 1400l-1055 -1400h-286l1055 1400h286zM1245 557l-113 157c64 66 152 133 308 133c196 0 286 -126 286 -252c0 -110 -42 -184 -201 -304l-115 -87h268l-43 -204h-588l39 179l306 240c80 62 105 102 105 142c0 45 -38 75 -95 75c-72 0 -107 -33 -157 -79zM623 1413
l-179 -845h-221l117 551l-183 -54l47 224z" />
    <glyph glyph-name="threequarters" unicode="&#xbe;" horiz-adv-x="1850" 
d="M1664 1400l-1055 -1400h-286l1055 1400h286zM1742 554l-46 -217h97l-43 -204h-97l-28 -133h-221l28 133h-358l38 175l341 523h250l-321 -494h94l15 70l94 147h157zM300 1154l-92 156c76 67 169 105 303 105c180 0 290 -107 290 -222c0 -90 -65 -180 -162 -218
c66 -34 100 -92 100 -155c0 -145 -122 -267 -347 -267c-139 0 -240 45 -295 125l143 134c36 -43 90 -66 155 -66c84 0 118 35 118 80c0 44 -48 71 -111 71h-91l38 182h93c86 0 128 36 128 81c0 38 -38 62 -98 62c-65 0 -126 -31 -172 -68z" />
    <glyph glyph-name="questiondown" unicode="&#xbf;" horiz-adv-x="862" 
d="M422 488h292l-76 -358h-101c-182 0 -258 -50 -258 -133c0 -81 102 -123 241 -125c30 0 91 0 116 2l-21 -313c-39 -3 -83 -4 -127 -4c-331 0 -557 143 -557 399c0 240 155 399 462 434zM617 594c-110 0 -205 95 -205 205c0 112 95 209 205 209c111 0 207 -96 207 -208
c0 -111 -96 -206 -207 -206z" />
    <glyph glyph-name="Agrave" unicode="&#xc0;" horiz-adv-x="1482" 
d="M1131 1400l233 -1400h-339l-42 294h-541l-165 -294h-366l821 1400h399zM874 1064l-263 -468h329zM849 1509l-278 332h359l212 -332h-293z" />
    <glyph glyph-name="Aacute" unicode="&#xc1;" horiz-adv-x="1482" 
d="M1131 1400l233 -1400h-339l-42 294h-541l-165 -294h-366l821 1400h399zM874 1064l-263 -468h329zM1031 1508h-299l245 332h366z" />
    <glyph glyph-name="Acircumflex" unicode="&#xc2;" horiz-adv-x="1482" 
d="M1131 1400l233 -1400h-339l-42 294h-541l-165 -294h-366l821 1400h399zM874 1064l-263 -468h329zM1329 1499h-273l-82 144l-141 -144h-296l293 332h344z" />
    <glyph glyph-name="Atilde" unicode="&#xc3;" horiz-adv-x="1482" 
d="M1131 1400l233 -1400h-339l-42 294h-541l-165 -294h-366l821 1400h399zM874 1064l-263 -468h329zM682 1510l-159 176c93 112 191 145 294 145c154 0 192 -72 255 -72c44 0 80 29 125 73l159 -177c-93 -111 -191 -145 -294 -145c-153 0 -191 72 -255 72
c-44 0 -80 -29 -125 -72z" />
    <glyph glyph-name="Adieresis" unicode="&#xc4;" horiz-adv-x="1482" 
d="M1131 1400l233 -1400h-339l-42 294h-541l-165 -294h-366l821 1400h399zM874 1064l-263 -468h329zM726 1853c106 0 188 -82 188 -187c0 -106 -82 -187 -188 -187c-105 0 -186 81 -186 187c0 105 81 187 186 187zM1190 1853c105 0 187 -82 187 -187
c0 -106 -82 -187 -187 -187c-106 0 -187 81 -187 187c0 105 81 187 187 187z" />
    <glyph glyph-name="Aring" unicode="&#xc5;" horiz-adv-x="1482" 
d="M1131 1400l233 -1400h-339l-42 294h-541l-165 -294h-366l821 1400h399zM874 1064l-263 -468h329zM958 1472c-151 0 -275 121 -275 272c0 149 124 271 275 271c153 0 277 -122 277 -271c0 -151 -124 -272 -277 -272zM958 1639c56 0 103 45 103 105c0 58 -47 105 -103 105
c-54 0 -102 -47 -102 -105c0 -60 48 -105 102 -105z" />
    <glyph glyph-name="AE" unicode="&#xc6;" horiz-adv-x="2302" 
d="M2171 301l-64 -301h-1054l56 265h-537l-234 -265l-430 -1l1290 1401h1201l-64 -301h-706l-52 -242h671l-64 -300h-671l-54 -256h712zM840 567h334l105 497z" />
    <glyph glyph-name="Ccedilla" unicode="&#xc7;" horiz-adv-x="1442" 
d="M1126 463l245 -207c-121 -152 -274 -249 -469 -274l-148 -303h-320l173 317c-301 70 -497 311 -497 638c0 454 329 792 783 792c166 0 451 -42 604 -346l-293 -170c-69 130 -181 195 -329 195c-231 0 -417 -187 -417 -446c0 -231 161 -363 348 -363c125 0 234 56 320 167
z" />
    <glyph glyph-name="Egrave" unicode="&#xc8;" horiz-adv-x="1266" 
d="M1212 857l-64 -300h-671l-54 -256h712l-64 -301h-1054l298 1400h1048l-64 -301h-706l-52 -242h671zM750 1509l-278 332h359l212 -332h-293z" />
    <glyph glyph-name="Eacute" unicode="&#xc9;" horiz-adv-x="1266" 
d="M1212 857l-64 -300h-671l-54 -256h712l-64 -301h-1054l298 1400h1048l-64 -301h-706l-52 -242h671zM932 1508h-299l245 332h366z" />
    <glyph glyph-name="Ecircumflex" unicode="&#xca;" horiz-adv-x="1266" 
d="M1212 857l-64 -300h-671l-54 -256h712l-64 -301h-1054l298 1400h1048l-64 -301h-706l-52 -242h671zM1230 1499h-273l-82 144l-141 -144h-296l293 332h344z" />
    <glyph glyph-name="Edieresis" unicode="&#xcb;" horiz-adv-x="1266" 
d="M1212 857l-64 -300h-671l-54 -256h712l-64 -301h-1054l298 1400h1048l-64 -301h-706l-52 -242h671zM627 1853c106 0 188 -82 188 -187c0 -106 -82 -187 -188 -187c-105 0 -186 81 -186 187c0 105 81 187 186 187zM1091 1853c105 0 187 -82 187 -187
c0 -106 -82 -187 -187 -187c-106 0 -187 81 -187 187c0 105 81 187 187 187z" />
    <glyph glyph-name="Igrave" unicode="&#xcc;" horiz-adv-x="585" 
d="M657 1400l-298 -1400h-341l297 1400h342zM403 1509l-278 332h359l212 -332h-293z" />
    <glyph glyph-name="Iacute" unicode="&#xcd;" horiz-adv-x="585" 
d="M657 1400l-298 -1400h-341l297 1400h342zM585 1508h-299l245 332h366z" />
    <glyph glyph-name="Icircumflex" unicode="&#xce;" horiz-adv-x="585" 
d="M657 1400l-298 -1400h-341l297 1400h342zM883 1499h-273l-82 144l-141 -144h-296l293 332h344z" />
    <glyph glyph-name="Idieresis" unicode="&#xcf;" horiz-adv-x="585" 
d="M657 1400l-298 -1400h-341l297 1400h342zM280 1853c106 0 188 -82 188 -187c0 -106 -82 -187 -188 -187c-105 0 -186 81 -186 187c0 105 81 187 186 187zM744 1853c105 0 187 -82 187 -187c0 -106 -82 -187 -187 -187c-106 0 -187 81 -187 187c0 105 81 187 187 187z" />
    <glyph glyph-name="Eth" unicode="&#xd0;" horiz-adv-x="1602" 
d="M423 1400h522c403 0 646 -263 646 -582c0 -459 -306 -818 -862 -818h-604l120 563h-157l61 288h157zM943 851l-62 -288h-294l-54 -254h234c296 0 471 191 471 464c0 183 -101 318 -332 318h-207l-51 -240h295z" />
    <glyph glyph-name="Ntilde" unicode="&#xd1;" horiz-adv-x="1526" 
d="M1598 1400l-298 -1400h-315l-441 879l-186 -879h-341l298 1400h317l440 -880l186 880h340zM699 1510l-159 176c93 112 191 145 294 145c154 0 192 -72 255 -72c44 0 80 29 125 73l159 -177c-93 -111 -191 -145 -294 -145c-153 0 -191 72 -255 72c-44 0 -80 -29 -125 -72z
" />
    <glyph glyph-name="Ograve" unicode="&#xd2;" horiz-adv-x="1598" 
d="M890 1426c399 0 688 -263 688 -661c0 -431 -321 -791 -782 -791c-399 0 -687 263 -687 661c0 430 321 791 781 791zM872 1105c-244 0 -415 -203 -415 -449c0 -222 148 -362 358 -362c243 0 415 203 415 450c0 221 -149 361 -358 361zM838 1509l-278 332h359l212 -332
h-293z" />
    <glyph glyph-name="Oacute" unicode="&#xd3;" horiz-adv-x="1598" 
d="M890 1426c399 0 688 -263 688 -661c0 -431 -321 -791 -782 -791c-399 0 -687 263 -687 661c0 430 321 791 781 791zM872 1105c-244 0 -415 -203 -415 -449c0 -222 148 -362 358 -362c243 0 415 203 415 450c0 221 -149 361 -358 361zM1020 1508h-299l245 332h366z" />
    <glyph glyph-name="Ocircumflex" unicode="&#xd4;" horiz-adv-x="1598" 
d="M890 1426c399 0 688 -263 688 -661c0 -431 -321 -791 -782 -791c-399 0 -687 263 -687 661c0 430 321 791 781 791zM872 1105c-244 0 -415 -203 -415 -449c0 -222 148 -362 358 -362c243 0 415 203 415 450c0 221 -149 361 -358 361zM1318 1499h-273l-82 144l-141 -144
h-296l293 332h344z" />
    <glyph glyph-name="Otilde" unicode="&#xd5;" horiz-adv-x="1598" 
d="M890 1426c399 0 688 -263 688 -661c0 -431 -321 -791 -782 -791c-399 0 -687 263 -687 661c0 430 321 791 781 791zM872 1105c-244 0 -415 -203 -415 -449c0 -222 148 -362 358 -362c243 0 415 203 415 450c0 221 -149 361 -358 361zM671 1510l-159 176
c93 112 191 145 294 145c154 0 192 -72 255 -72c44 0 80 29 125 73l159 -177c-93 -111 -191 -145 -294 -145c-153 0 -191 72 -255 72c-44 0 -80 -29 -125 -72z" />
    <glyph glyph-name="Odieresis" unicode="&#xd6;" horiz-adv-x="1598" 
d="M890 1426c399 0 688 -263 688 -661c0 -431 -321 -791 -782 -791c-399 0 -687 263 -687 661c0 430 321 791 781 791zM872 1105c-244 0 -415 -203 -415 -449c0 -222 148 -362 358 -362c243 0 415 203 415 450c0 221 -149 361 -358 361zM715 1853c106 0 188 -82 188 -187
c0 -106 -82 -187 -188 -187c-105 0 -186 81 -186 187c0 105 81 187 186 187zM1179 1853c105 0 187 -82 187 -187c0 -106 -82 -187 -187 -187c-106 0 -187 81 -187 187c0 105 81 187 187 187z" />
    <glyph glyph-name="multiply" unicode="&#xd7;" horiz-adv-x="1200" 
d="M999 261l-208 -172l-204 258l-344 -285l-157 198l329 270l-214 272l208 172l204 -257l344 284l157 -197l-329 -271z" />
    <glyph glyph-name="Oslash" unicode="&#xd8;" horiz-adv-x="1598" 
d="M890 1426c170 0 321 -48 437 -134l157 139l170 -194l-157 -140c52 -94 81 -207 81 -332c0 -431 -321 -791 -782 -791c-163 0 -308 44 -422 123l-143 -128l-171 193l139 124c-58 98 -90 216 -90 349c0 430 321 791 781 791zM872 1105c-244 0 -415 -203 -415 -449
c0 -45 6 -87 17 -125l590 526c-55 31 -120 48 -192 48zM1230 744c0 37 -4 72 -12 104l-579 -515c51 -26 110 -39 176 -39c243 0 415 203 415 450z" />
    <glyph glyph-name="Ugrave" unicode="&#xd9;" horiz-adv-x="1431" 
d="M1515 1400l-184 -865c-77 -363 -296 -561 -658 -561c-339 0 -560 164 -560 463c0 47 6 99 17 152l174 811h341l-176 -822c-7 -32 -10 -61 -10 -87c0 -134 87 -196 227 -196c154 0 272 87 313 280l174 825h342zM827 1509l-278 332h359l212 -332h-293z" />
    <glyph glyph-name="Uacute" unicode="&#xda;" horiz-adv-x="1431" 
d="M1515 1400l-184 -865c-77 -363 -296 -561 -658 -561c-339 0 -560 164 -560 463c0 47 6 99 17 152l174 811h341l-176 -822c-7 -32 -10 -61 -10 -87c0 -134 87 -196 227 -196c154 0 272 87 313 280l174 825h342zM1009 1508h-299l245 332h366z" />
    <glyph glyph-name="Ucircumflex" unicode="&#xdb;" horiz-adv-x="1431" 
d="M1515 1400l-184 -865c-77 -363 -296 -561 -658 -561c-339 0 -560 164 -560 463c0 47 6 99 17 152l174 811h341l-176 -822c-7 -32 -10 -61 -10 -87c0 -134 87 -196 227 -196c154 0 272 87 313 280l174 825h342zM1307 1499h-273l-82 144l-141 -144h-296l293 332h344z" />
    <glyph glyph-name="Udieresis" unicode="&#xdc;" horiz-adv-x="1431" 
d="M1515 1400l-184 -865c-77 -363 -296 -561 -658 -561c-339 0 -560 164 -560 463c0 47 6 99 17 152l174 811h341l-176 -822c-7 -32 -10 -61 -10 -87c0 -134 87 -196 227 -196c154 0 272 87 313 280l174 825h342zM704 1853c106 0 188 -82 188 -187
c0 -106 -82 -187 -188 -187c-105 0 -186 81 -186 187c0 105 81 187 186 187zM1168 1853c105 0 187 -82 187 -187c0 -106 -82 -187 -187 -187c-106 0 -187 81 -187 187c0 105 81 187 187 187z" />
    <glyph glyph-name="Yacute" unicode="&#xdd;" horiz-adv-x="1381" 
d="M1570 1400l-695 -862l-115 -538h-341l120 566l-341 834h356l199 -547l420 547h397zM963 1508h-299l245 332h366z" />
    <glyph glyph-name="Thorn" unicode="&#xde;" horiz-adv-x="1285" 
d="M657 1400l-47 -220h201c303 0 471 -183 471 -406c0 -310 -219 -521 -594 -521h-275l-54 -253h-342l298 1400h342zM766 877h-220l-70 -326h231c144 0 232 70 232 185c0 84 -61 141 -173 141z" />
    <glyph glyph-name="germandbls" unicode="&#xdf;" horiz-adv-x="1199" 
d="M-5 0l208 980c63 297 214 486 558 486c321 0 470 -179 470 -374c0 -162 -99 -319 -271 -387c123 -49 198 -203 165 -356c-56 -267 -235 -375 -516 -375c-80 0 -156 13 -203 34l80 251c30 -13 73 -21 114 -21c102 0 193 34 215 157c20 107 -46 186 -183 186h-48l57 261h20
c79 0 137 16 179 51c43 35 66 97 66 145c0 80 -64 143 -161 143c-127 0 -198 -69 -229 -214l-205 -967h-316z" />
    <glyph glyph-name="agrave" unicode="&#xe0;" horiz-adv-x="1187" 
d="M581 1008c116 0 213 -37 276 -111l18 84h312l-208 -981h-302l16 73c-61 -59 -139 -99 -245 -99c-234 0 -405 205 -405 457c0 247 178 577 538 577zM557 266c116 0 209 92 224 219c18 148 -78 231 -185 231c-129 0 -227 -115 -227 -253c0 -133 94 -197 188 -197zM591 1105
l-278 332h359l212 -332h-293z" />
    <glyph glyph-name="aacute" unicode="&#xe1;" horiz-adv-x="1187" 
d="M581 1008c116 0 213 -37 276 -111l18 84h312l-208 -981h-302l16 73c-61 -59 -139 -99 -245 -99c-234 0 -405 205 -405 457c0 247 178 577 538 577zM557 266c116 0 209 92 224 219c18 148 -78 231 -185 231c-129 0 -227 -115 -227 -253c0 -133 94 -197 188 -197zM790 1105
h-299l245 332h366z" />
    <glyph glyph-name="acircumflex" unicode="&#xe2;" horiz-adv-x="1187" 
d="M581 1008c116 0 213 -37 276 -111l18 84h312l-208 -981h-302l16 73c-61 -59 -139 -99 -245 -99c-234 0 -405 205 -405 457c0 247 178 577 538 577zM557 266c116 0 209 92 224 219c18 148 -78 231 -185 231c-129 0 -227 -115 -227 -253c0 -133 94 -197 188 -197z
M1075 1095h-273l-82 144l-141 -144h-296l293 332h344z" />
    <glyph glyph-name="atilde" unicode="&#xe3;" horiz-adv-x="1187" 
d="M581 1008c116 0 213 -37 276 -111l18 84h312l-208 -981h-302l16 73c-61 -59 -139 -99 -245 -99c-234 0 -405 205 -405 457c0 247 178 577 538 577zM557 266c116 0 209 92 224 219c18 148 -78 231 -185 231c-129 0 -227 -115 -227 -253c0 -133 94 -197 188 -197zM441 1106
l-159 176c93 112 191 145 294 145c154 0 192 -72 255 -72c44 0 80 29 125 73l159 -177c-93 -111 -191 -145 -294 -145c-153 0 -191 72 -255 72c-44 0 -80 -29 -125 -72z" />
    <glyph glyph-name="adieresis" unicode="&#xe4;" horiz-adv-x="1187" 
d="M581 1008c116 0 213 -37 276 -111l18 84h312l-208 -981h-302l16 73c-61 -59 -139 -99 -245 -99c-234 0 -405 205 -405 457c0 247 178 577 538 577zM557 266c116 0 209 92 224 219c18 148 -78 231 -185 231c-129 0 -227 -115 -227 -253c0 -133 94 -197 188 -197zM484 1449
c106 0 188 -82 188 -187c0 -106 -82 -187 -188 -187c-105 0 -186 81 -186 187c0 105 81 187 186 187zM948 1449c105 0 187 -82 187 -187c0 -106 -82 -187 -187 -187c-106 0 -187 81 -187 187c0 105 81 187 187 187z" />
    <glyph glyph-name="aring" unicode="&#xe5;" horiz-adv-x="1187" 
d="M581 1008c116 0 213 -37 276 -111l18 84h312l-208 -981h-302l16 73c-61 -59 -139 -99 -245 -99c-234 0 -405 205 -405 457c0 247 178 577 538 577zM557 266c116 0 209 92 224 219c18 148 -78 231 -185 231c-129 0 -227 -115 -227 -253c0 -133 94 -197 188 -197zM704 1068
c-151 0 -275 121 -275 272c0 149 124 271 275 271c153 0 277 -122 277 -271c0 -151 -124 -272 -277 -272zM704 1235c56 0 103 45 103 105c0 58 -47 105 -103 105c-54 0 -102 -47 -102 -105c0 -60 48 -105 102 -105z" />
    <glyph glyph-name="ae" unicode="&#xe6;" horiz-adv-x="1660" 
d="M1335 316l181 -186c-94 -101 -233 -156 -415 -156c-158 0 -280 54 -359 144c-102 -92 -227 -144 -385 -144c-213 0 -345 109 -345 267c0 211 163 347 432 347h225c1 7 1 13 1 20c0 76 -47 127 -173 127c-104 0 -186 -35 -258 -71l-81 248c122 64 240 96 397 96
c137 0 249 -39 316 -129c83 84 194 129 333 129c247 0 425 -163 425 -405c0 -65 -18 -158 -40 -209h-648c8 -103 76 -157 180 -157c74 0 148 18 214 79zM432 213c73 0 159 34 220 93c-5 28 -8 57 -9 88h-164c-93 0 -148 -41 -148 -104c0 -45 35 -77 101 -77zM1185 742
c-108 0 -173 -74 -209 -157h357v12c0 97 -57 145 -148 145z" />
    <glyph glyph-name="ccedilla" unicode="&#xe7;" horiz-adv-x="1032" 
d="M1047 741l-276 -131c-43 80 -110 106 -176 106c-134 0 -226 -115 -226 -252c0 -115 74 -196 178 -196c69 0 130 30 183 91l224 -184c-85 -101 -197 -169 -328 -190l-151 -306h-296l179 325c-190 63 -311 228 -311 439c0 306 228 563 564 563c209 0 359 -98 436 -265z" />
    <glyph glyph-name="egrave" unicode="&#xe8;" horiz-adv-x="1065" 
d="M739 316l181 -186c-94 -101 -233 -156 -415 -156c-293 0 -466 181 -466 430c0 242 159 604 570 604c247 0 425 -163 425 -405c0 -65 -18 -158 -40 -209h-649c8 -103 77 -157 181 -157c73 0 148 18 213 79zM590 742c-105 0 -170 -70 -206 -150h353v5
c0 97 -57 145 -147 145zM543 1105l-278 332h359l212 -332h-293z" />
    <glyph glyph-name="eacute" unicode="&#xe9;" horiz-adv-x="1065" 
d="M739 316l181 -186c-94 -101 -233 -156 -415 -156c-293 0 -466 181 -466 430c0 242 159 604 570 604c247 0 425 -163 425 -405c0 -65 -18 -158 -40 -209h-649c8 -103 77 -157 181 -157c73 0 148 18 213 79zM590 742c-105 0 -170 -70 -206 -150h353v5
c0 97 -57 145 -147 145zM742 1105h-299l245 332h366z" />
    <glyph glyph-name="ecircumflex" unicode="&#xea;" horiz-adv-x="1065" 
d="M739 316l181 -186c-94 -101 -233 -156 -415 -156c-293 0 -466 181 -466 430c0 242 159 604 570 604c247 0 425 -163 425 -405c0 -65 -18 -158 -40 -209h-649c8 -103 77 -157 181 -157c73 0 148 18 213 79zM590 742c-105 0 -170 -70 -206 -150h353v5
c0 97 -57 145 -147 145zM1027 1095h-273l-82 144l-141 -144h-296l293 332h344z" />
    <glyph glyph-name="edieresis" unicode="&#xeb;" horiz-adv-x="1065" 
d="M739 316l181 -186c-94 -101 -233 -156 -415 -156c-293 0 -466 181 -466 430c0 242 159 604 570 604c247 0 425 -163 425 -405c0 -65 -18 -158 -40 -209h-649c8 -103 77 -157 181 -157c73 0 148 18 213 79zM590 742c-105 0 -170 -70 -206 -150h353v5
c0 97 -57 145 -147 145zM436 1449c106 0 188 -82 188 -187c0 -106 -82 -187 -188 -187c-105 0 -186 81 -186 187c0 105 81 187 186 187zM900 1449c105 0 187 -82 187 -187c0 -106 -82 -187 -187 -187c-106 0 -187 81 -187 187c0 105 81 187 187 187z" />
    <glyph glyph-name="igrave" unicode="&#xec;" horiz-adv-x="524" 
d="M525 981l-209 -981h-316l209 981h316zM289 1105l-278 332h359l212 -332h-293z" />
    <glyph glyph-name="iacute" unicode="&#xed;" horiz-adv-x="524" 
d="M525 981l-209 -981h-316l209 981h316zM488 1105h-299l245 332h366z" />
    <glyph glyph-name="icircumflex" unicode="&#xee;" horiz-adv-x="524" 
d="M525 981l-209 -981h-316l209 981h316zM773 1095h-273l-82 144l-141 -144h-296l293 332h344z" />
    <glyph glyph-name="idieresis" unicode="&#xef;" horiz-adv-x="524" 
d="M525 981l-209 -981h-316l209 981h316zM182 1449c106 0 188 -82 188 -187c0 -106 -82 -187 -188 -187c-105 0 -186 81 -186 187c0 105 81 187 186 187zM646 1449c105 0 187 -82 187 -187c0 -106 -82 -187 -187 -187c-106 0 -187 81 -187 187c0 105 81 187 187 187z" />
    <glyph glyph-name="eth" unicode="&#xf0;" horiz-adv-x="1150" 
d="M917 1439l94 -153l-146 -87c154 -168 241 -383 241 -615c0 -43 -4 -86 -9 -129c-34 -279 -260 -480 -558 -480c-292 0 -499 186 -499 444c0 283 221 508 487 508c98 0 180 -26 243 -75c-35 83 -90 151 -161 211l-202 -119l-94 153l134 77c-44 26 -91 51 -140 76l188 209
c85 -36 162 -82 232 -134zM582 660c-138 0 -220 -111 -220 -227c0 -109 80 -189 195 -189c165 0 227 138 227 226c0 111 -81 190 -202 190z" />
    <glyph glyph-name="ntilde" unicode="&#xf1;" horiz-adv-x="1138" 
d="M752 1008c199 0 319 -135 319 -325c0 -34 -4 -71 -12 -109l-123 -574h-314l116 547c4 17 6 35 6 51c0 66 -34 116 -122 116c-90 0 -166 -47 -198 -197l-110 -517h-314l209 981h296l-22 -95c72 86 162 122 269 122zM425 1106l-159 176c93 112 191 145 294 145
c154 0 192 -72 255 -72c44 0 80 29 125 73l159 -177c-93 -111 -191 -145 -294 -145c-153 0 -191 72 -255 72c-44 0 -80 -29 -125 -72z" />
    <glyph glyph-name="ograve" unicode="&#xf2;" horiz-adv-x="1158" 
d="M614 1008c277 0 497 -184 497 -473c0 -306 -239 -561 -567 -561c-277 0 -497 183 -497 473c0 305 239 561 567 561zM594 716c-127 0 -226 -109 -226 -250c0 -118 79 -201 193 -201c128 0 229 110 229 251c0 118 -81 200 -196 200zM565 1103l-278 332h359l212 -332h-293z
" />
    <glyph glyph-name="oacute" unicode="&#xf3;" horiz-adv-x="1158" 
d="M614 1008c277 0 497 -184 497 -473c0 -306 -239 -561 -567 -561c-277 0 -497 183 -497 473c0 305 239 561 567 561zM594 716c-127 0 -226 -109 -226 -250c0 -118 79 -201 193 -201c128 0 229 110 229 251c0 118 -81 200 -196 200zM764 1103h-299l245 332h366z" />
    <glyph glyph-name="ocircumflex" unicode="&#xf4;" horiz-adv-x="1158" 
d="M614 1008c277 0 497 -184 497 -473c0 -306 -239 -561 -567 -561c-277 0 -497 183 -497 473c0 305 239 561 567 561zM594 716c-127 0 -226 -109 -226 -250c0 -118 79 -201 193 -201c128 0 229 110 229 251c0 118 -81 200 -196 200zM1049 1093h-273l-82 144l-141 -144h-296
l293 332h344z" />
    <glyph glyph-name="otilde" unicode="&#xf5;" horiz-adv-x="1158" 
d="M614 1008c277 0 497 -184 497 -473c0 -306 -239 -561 -567 -561c-277 0 -497 183 -497 473c0 305 239 561 567 561zM594 716c-127 0 -226 -109 -226 -250c0 -118 79 -201 193 -201c128 0 229 110 229 251c0 118 -81 200 -196 200zM415 1104l-159 176
c93 112 191 145 294 145c154 0 192 -72 255 -72c44 0 80 29 125 73l159 -177c-93 -111 -191 -145 -294 -145c-153 0 -191 72 -255 72c-44 0 -80 -29 -125 -72z" />
    <glyph glyph-name="odieresis" unicode="&#xf6;" horiz-adv-x="1158" 
d="M614 1008c277 0 497 -184 497 -473c0 -306 -239 -561 -567 -561c-277 0 -497 183 -497 473c0 305 239 561 567 561zM594 716c-127 0 -226 -109 -226 -250c0 -118 79 -201 193 -201c128 0 229 110 229 251c0 118 -81 200 -196 200zM458 1447c106 0 188 -82 188 -187
c0 -106 -82 -187 -188 -187c-105 0 -186 81 -186 187c0 105 81 187 186 187zM922 1447c105 0 187 -82 187 -187c0 -106 -82 -187 -187 -187c-106 0 -187 81 -187 187c0 105 81 187 187 187z" />
    <glyph glyph-name="divide" unicode="&#xf7;" horiz-adv-x="1200" 
d="M1111 681l-54 -257h-942l54 257h942zM678 1105c98 0 182 -83 182 -182s-84 -184 -182 -184c-99 0 -183 85 -183 184s84 182 183 182zM561 366c98 0 182 -83 182 -181c0 -100 -84 -185 -182 -185c-99 0 -183 85 -183 185c0 98 84 181 183 181z" />
    <glyph glyph-name="oslash" unicode="&#xf8;" horiz-adv-x="1158" 
d="M614 1008c105 0 203 -27 283 -76l122 109l157 -174l-118 -105c35 -65 54 -142 54 -227c0 -306 -239 -561 -567 -561c-107 0 -205 26 -285 76l-123 -109l-157 173l120 107c-33 65 -52 141 -52 226c0 305 239 561 566 561zM597 730c-136 0 -241 -116 -241 -266
c0 -14 1 -27 3 -39l323 288c-25 11 -54 17 -85 17zM803 517c0 12 -1 23 -3 35l-320 -286c24 -10 51 -15 80 -15c136 0 243 117 243 266z" />
    <glyph glyph-name="ugrave" unicode="&#xf9;" horiz-adv-x="1133" 
d="M1140 981l-122 -575c-70 -327 -283 -432 -521 -432c-246 0 -419 124 -419 365c0 40 5 81 15 127l109 515h316l-117 -547c-4 -19 -5 -35 -5 -51c0 -80 50 -117 124 -117c100 0 169 71 195 195l109 520h316zM593 1105l-278 332h359l212 -332h-293z" />
    <glyph glyph-name="uacute" unicode="&#xfa;" horiz-adv-x="1133" 
d="M1140 981l-122 -575c-70 -327 -283 -432 -521 -432c-246 0 -419 124 -419 365c0 40 5 81 15 127l109 515h316l-117 -547c-4 -19 -5 -35 -5 -51c0 -80 50 -117 124 -117c100 0 169 71 195 195l109 520h316zM792 1105h-299l245 332h366z" />
    <glyph glyph-name="ucircumflex" unicode="&#xfb;" horiz-adv-x="1133" 
d="M1140 981l-122 -575c-70 -327 -283 -432 -521 -432c-246 0 -419 124 -419 365c0 40 5 81 15 127l109 515h316l-117 -547c-4 -19 -5 -35 -5 -51c0 -80 50 -117 124 -117c100 0 169 71 195 195l109 520h316zM1077 1095h-273l-82 144l-141 -144h-296l293 332h344z" />
    <glyph glyph-name="udieresis" unicode="&#xfc;" horiz-adv-x="1133" 
d="M1140 981l-122 -575c-70 -327 -283 -432 -521 -432c-246 0 -419 124 -419 365c0 40 5 81 15 127l109 515h316l-117 -547c-4 -19 -5 -35 -5 -51c0 -80 50 -117 124 -117c100 0 169 71 195 195l109 520h316zM486 1449c106 0 188 -82 188 -187c0 -106 -82 -187 -188 -187
c-105 0 -186 81 -186 187c0 105 81 187 186 187zM950 1449c105 0 187 -82 187 -187c0 -106 -82 -187 -187 -187c-106 0 -187 81 -187 187c0 105 81 187 187 187z" />
    <glyph glyph-name="yacute" unicode="&#xfd;" horiz-adv-x="1161" 
d="M1259 981l-928 -1383h-358l455 655l-316 728h345l170 -429l274 429h358zM800 1105h-299l245 332h366z" />
    <glyph glyph-name="thorn" unicode="&#xfe;" horiz-adv-x="1189" 
d="M609 -26c-118 0 -214 37 -277 110l-101 -484h-316l391 1840h316l-105 -491c53 36 120 59 216 59c240 0 413 -205 413 -458c0 -247 -178 -576 -537 -576zM632 715c-117 0 -209 -92 -224 -218c-18 -149 78 -232 184 -232c130 0 228 115 228 253c0 133 -94 197 -188 197z
" />
    <glyph glyph-name="ydieresis" unicode="&#xff;" horiz-adv-x="1161" 
d="M1259 981l-928 -1383h-358l455 655l-316 728h345l170 -429l274 429h358zM494 1449c106 0 188 -82 188 -187c0 -106 -82 -187 -188 -187c-105 0 -186 81 -186 187c0 105 81 187 186 187zM958 1449c105 0 187 -82 187 -187c0 -106 -82 -187 -187 -187
c-106 0 -187 81 -187 187c0 105 81 187 187 187z" />
    <glyph glyph-name="Amacron" unicode="&#x100;" horiz-adv-x="1482" 
d="M1131 1400l233 -1400h-339l-42 294h-541l-165 -294h-366l821 1400h399zM874 1064l-263 -468h329zM602 1540l54 250h704l-53 -250h-705z" />
    <glyph glyph-name="amacron" unicode="&#x101;" horiz-adv-x="1187" 
d="M581 1008c116 0 213 -37 276 -111l18 84h312l-208 -981h-302l16 73c-61 -59 -139 -99 -245 -99c-234 0 -405 205 -405 457c0 247 178 577 538 577zM557 266c116 0 209 92 224 219c18 148 -78 231 -185 231c-129 0 -227 -115 -227 -253c0 -133 94 -197 188 -197zM349 1136
l54 250h704l-53 -250h-705z" />
    <glyph glyph-name="Abreve" unicode="&#x102;" horiz-adv-x="1482" 
d="M1131 1400l233 -1400h-339l-42 294h-541l-165 -294h-366l821 1400h399zM874 1064l-263 -468h329zM600 1818l233 65c7 -102 51 -154 133 -154c78 0 139 52 187 154l230 -65c-96 -216 -237 -331 -446 -331c-196 0 -330 121 -337 331z" />
    <glyph glyph-name="abreve" unicode="&#x103;" horiz-adv-x="1187" 
d="M581 1008c116 0 213 -37 276 -111l18 84h312l-208 -981h-302l16 73c-61 -59 -139 -99 -245 -99c-234 0 -405 205 -405 457c0 247 178 577 538 577zM557 266c116 0 209 92 224 219c18 148 -78 231 -185 231c-129 0 -227 -115 -227 -253c0 -133 94 -197 188 -197zM351 1414
l233 65c7 -102 51 -154 133 -154c78 0 139 52 187 154l230 -65c-96 -216 -237 -331 -446 -331c-196 0 -330 121 -337 331z" />
    <glyph glyph-name="Aogonek" unicode="&#x104;" horiz-adv-x="1482" 
d="M1212 -153l123 -171c-54 -49 -144 -96 -251 -96c-151 0 -268 70 -268 197c0 104 69 184 205 251l-38 266h-541l-165 -294h-366l821 1400h399l233 -1400h-129c-131 -54 -153 -107 -153 -140c0 -29 22 -43 54 -43c22 0 46 9 76 30zM874 1064l-263 -468h329z" />
    <glyph glyph-name="aogonek" unicode="&#x105;" horiz-adv-x="1187" 
d="M915 -153l123 -171c-54 -49 -144 -96 -251 -96c-151 0 -268 70 -268 197c0 92 53 165 158 226l16 70c-61 -59 -139 -99 -245 -99c-234 0 -405 205 -405 457c0 247 178 577 538 577c116 0 213 -37 276 -111l18 84h312l-208 -981h-41c-131 -54 -153 -107 -153 -140
c0 -29 22 -43 54 -43c22 0 46 9 76 30zM557 266c116 0 209 92 224 219c18 148 -78 231 -185 231c-129 0 -227 -115 -227 -253c0 -133 94 -197 188 -197z" />
    <glyph glyph-name="Cacute" unicode="&#x106;" horiz-adv-x="1442" 
d="M1126 463l245 -207c-142 -178 -328 -281 -576 -281c-405 0 -685 269 -685 659c0 454 329 792 783 792c166 0 451 -42 604 -346l-293 -170c-69 130 -181 195 -329 195c-231 0 -417 -187 -417 -446c0 -231 161 -363 348 -363c125 0 234 56 320 167zM1010 1508h-299l245 332
h366z" />
    <glyph glyph-name="cacute" unicode="&#x107;" horiz-adv-x="1032" 
d="M1047 741l-276 -131c-43 80 -110 106 -176 106c-134 0 -226 -115 -226 -252c0 -115 74 -196 178 -196c69 0 130 30 183 91l224 -184c-104 -124 -249 -198 -419 -198c-288 0 -488 196 -488 466c0 306 228 563 564 563c209 0 359 -98 436 -265zM732 1105h-299l245 332h366z
" />
    <glyph glyph-name="Ccircumflex" unicode="&#x108;" horiz-adv-x="1442" 
d="M1126 463l245 -207c-142 -178 -328 -281 -576 -281c-405 0 -685 269 -685 659c0 454 329 792 783 792c166 0 451 -42 604 -346l-293 -170c-69 130 -181 195 -329 195c-231 0 -417 -187 -417 -446c0 -231 161 -363 348 -363c125 0 234 56 320 167zM1308 1499h-273l-82 144
l-141 -144h-296l293 332h344z" />
    <glyph glyph-name="ccircumflex" unicode="&#x109;" horiz-adv-x="1032" 
d="M1047 741l-276 -131c-43 80 -110 106 -176 106c-134 0 -226 -115 -226 -252c0 -115 74 -196 178 -196c69 0 130 30 183 91l224 -184c-104 -124 -249 -198 -419 -198c-288 0 -488 196 -488 466c0 306 228 563 564 563c209 0 359 -98 436 -265zM1017 1095h-273l-82 144
l-141 -144h-296l293 332h344z" />
    <glyph glyph-name="Cdotaccent" unicode="&#x10a;" horiz-adv-x="1442" 
d="M1126 463l245 -207c-142 -178 -328 -281 -576 -281c-405 0 -685 269 -685 659c0 454 329 792 783 792c166 0 451 -42 604 -346l-293 -170c-69 130 -181 195 -329 195c-231 0 -417 -187 -417 -446c0 -231 161 -363 348 -363c125 0 234 56 320 167zM934 1871
c112 0 198 -86 198 -197c0 -110 -86 -195 -198 -195c-110 0 -196 85 -196 195c0 111 86 197 196 197z" />
    <glyph glyph-name="cdotaccent" unicode="&#x10b;" horiz-adv-x="1032" 
d="M1047 741l-276 -131c-43 80 -110 106 -176 106c-134 0 -226 -115 -226 -252c0 -115 74 -196 178 -196c69 0 130 30 183 91l224 -184c-104 -124 -249 -198 -419 -198c-288 0 -488 196 -488 466c0 306 228 563 564 563c209 0 359 -98 436 -265zM673 1471
c106 0 188 -82 188 -188c0 -105 -82 -186 -188 -186c-105 0 -187 81 -187 186c0 106 82 188 187 188z" />
    <glyph glyph-name="Ccaron" unicode="&#x10c;" horiz-adv-x="1442" 
d="M1126 463l245 -207c-142 -178 -328 -281 -576 -281c-405 0 -685 269 -685 659c0 454 329 792 783 792c166 0 451 -42 604 -346l-293 -170c-69 130 -181 195 -329 195c-231 0 -417 -187 -417 -446c0 -231 161 -363 348 -363c125 0 234 56 320 167zM585 1831h274l82 -144
l141 144h296l-293 -332h-344z" />
    <glyph glyph-name="ccaron" unicode="&#x10d;" horiz-adv-x="1032" 
d="M1047 741l-276 -131c-43 80 -110 106 -176 106c-134 0 -226 -115 -226 -252c0 -115 74 -196 178 -196c69 0 130 30 183 91l224 -184c-104 -124 -249 -198 -419 -198c-288 0 -488 196 -488 466c0 306 228 563 564 563c209 0 359 -98 436 -265zM307 1427h274l82 -144
l141 144h296l-293 -332h-344z" />
    <glyph glyph-name="Dcaron" unicode="&#x10e;" horiz-adv-x="1494" 
d="M837 1400c403 0 646 -263 646 -582c0 -459 -306 -818 -862 -818h-604l298 1400h522zM798 1091h-207l-166 -782h234c296 0 471 191 471 464c0 183 -101 318 -332 318zM531 1831h274l82 -144l141 144h296l-293 -332h-344z" />
    <glyph glyph-name="dcaron" unicode="&#x10f;" horiz-adv-x="1367" 
d="M580 1008c116 0 213 -37 276 -111l116 543h315l-306 -1440h-305l16 73c-61 -59 -138 -99 -245 -99c-234 0 -404 205 -404 457c0 247 177 577 537 577zM557 266c116 0 209 92 224 219c18 148 -78 231 -185 231c-129 0 -227 -115 -227 -253c0 -133 94 -197 188 -197z
M1522 973h-240l99 467h314z" />
    <glyph glyph-name="Dcroat" unicode="&#x110;" horiz-adv-x="1602" 
d="M423 1400h522c403 0 646 -263 646 -582c0 -459 -306 -818 -862 -818h-604l120 563h-157l61 288h157zM943 851l-62 -288h-294l-54 -254h234c296 0 471 191 471 464c0 183 -101 318 -332 318h-207l-51 -240h295z" />
    <glyph glyph-name="dcroat" unicode="&#x111;" horiz-adv-x="1205" 
d="M1376 1321l-50 -240h-116l-229 -1081h-305l16 73c-61 -59 -138 -99 -245 -99c-234 0 -404 205 -404 457c0 247 177 577 537 577c116 0 213 -37 276 -111l39 184h-311l50 240h312l26 119h315l-26 -119h115zM557 266c116 0 209 92 224 219c18 148 -78 231 -185 231
c-129 0 -227 -115 -227 -253c0 -133 94 -197 188 -197z" />
    <glyph glyph-name="Emacron" unicode="&#x112;" horiz-adv-x="1266" 
d="M1212 857l-64 -300h-671l-54 -256h712l-64 -301h-1054l298 1400h1048l-64 -301h-706l-52 -242h671zM503 1540l54 250h704l-53 -250h-705z" />
    <glyph glyph-name="emacron" unicode="&#x113;" horiz-adv-x="1065" 
d="M739 316l181 -186c-94 -101 -233 -156 -415 -156c-293 0 -466 181 -466 430c0 242 159 604 570 604c247 0 425 -163 425 -405c0 -65 -18 -158 -40 -209h-649c8 -103 77 -157 181 -157c73 0 148 18 213 79zM590 742c-105 0 -170 -70 -206 -150h353v5
c0 97 -57 145 -147 145zM301 1136l54 250h704l-53 -250h-705z" />
    <glyph glyph-name="Ebreve" unicode="&#x114;" horiz-adv-x="1266" 
d="M1212 857l-64 -300h-671l-54 -256h712l-64 -301h-1054l298 1400h1048l-64 -301h-706l-52 -242h671zM501 1818l233 65c7 -102 51 -154 133 -154c78 0 139 52 187 154l230 -65c-96 -216 -237 -331 -446 -331c-196 0 -330 121 -337 331z" />
    <glyph glyph-name="ebreve" unicode="&#x115;" horiz-adv-x="1065" 
d="M739 316l181 -186c-94 -101 -233 -156 -415 -156c-293 0 -466 181 -466 430c0 242 159 604 570 604c247 0 425 -163 425 -405c0 -65 -18 -158 -40 -209h-649c8 -103 77 -157 181 -157c73 0 148 18 213 79zM590 742c-105 0 -170 -70 -206 -150h353v5
c0 97 -57 145 -147 145zM303 1414l233 65c7 -102 51 -154 133 -154c78 0 139 52 187 154l230 -65c-96 -216 -237 -331 -446 -331c-196 0 -330 121 -337 331z" />
    <glyph glyph-name="Edotaccent" unicode="&#x116;" horiz-adv-x="1266" 
d="M1212 857l-64 -300h-671l-54 -256h712l-64 -301h-1054l298 1400h1048l-64 -301h-706l-52 -242h671zM856 1871c112 0 198 -86 198 -197c0 -110 -86 -195 -198 -195c-110 0 -196 85 -196 195c0 111 86 197 196 197z" />
    <glyph glyph-name="edotaccent" unicode="&#x117;" horiz-adv-x="1065" 
d="M739 316l181 -186c-94 -101 -233 -156 -415 -156c-293 0 -466 181 -466 430c0 242 159 604 570 604c247 0 425 -163 425 -405c0 -65 -18 -158 -40 -209h-649c8 -103 77 -157 181 -157c73 0 148 18 213 79zM590 742c-105 0 -170 -70 -206 -150h353v5
c0 97 -57 145 -147 145zM683 1471c106 0 188 -82 188 -188c0 -105 -82 -186 -188 -186c-105 0 -187 81 -187 186c0 106 82 188 187 188z" />
    <glyph glyph-name="Eogonek" unicode="&#x118;" horiz-adv-x="1266" 
d="M1212 857l-64 -300h-671l-54 -256h712l-64 -301h-161c-128 -54 -145 -103 -145 -136c0 -30 25 -49 65 -49c33 0 64 13 94 34l138 -169c-75 -62 -168 -99 -273 -99c-181 0 -307 87 -307 220c0 81 39 145 131 199h-596l298 1400h1048l-64 -301h-706l-52 -242h671z" />
    <glyph glyph-name="eogonek" unicode="&#x119;" horiz-adv-x="1065" 
d="M727 -151l142 -168c-73 -63 -164 -100 -269 -100c-184 0 -313 90 -313 227c0 68 28 127 100 177c-221 42 -348 205 -348 419c0 242 159 604 570 604c247 0 425 -163 425 -405c0 -65 -18 -158 -40 -209h-649c8 -103 77 -157 181 -157c73 0 148 18 213 79l181 -186
c-52 -56 -115 -96 -193 -124c-142 -51 -160 -107 -160 -139s26 -52 68 -52c33 0 63 13 92 34zM590 742c-105 0 -170 -70 -206 -150h353v5c0 97 -57 145 -147 145z" />
    <glyph glyph-name="Ecaron" unicode="&#x11a;" horiz-adv-x="1266" 
d="M1212 857l-64 -300h-671l-54 -256h712l-64 -301h-1054l298 1400h1048l-64 -301h-706l-52 -242h671zM507 1831h274l82 -144l141 144h296l-293 -332h-344z" />
    <glyph glyph-name="ecaron" unicode="&#x11b;" horiz-adv-x="1065" 
d="M739 316l181 -186c-94 -101 -233 -156 -415 -156c-293 0 -466 181 -466 430c0 242 159 604 570 604c247 0 425 -163 425 -405c0 -65 -18 -158 -40 -209h-649c8 -103 77 -157 181 -157c73 0 148 18 213 79zM590 742c-105 0 -170 -70 -206 -150h353v5
c0 97 -57 145 -147 145zM317 1427h274l82 -144l141 144h296l-293 -332h-344z" />
    <glyph glyph-name="Gcircumflex" unicode="&#x11c;" horiz-adv-x="1550" 
d="M1414 1200l-258 -213c-64 75 -158 125 -288 125c-231 0 -413 -191 -413 -463c0 -231 147 -369 363 -369c184 0 304 86 352 250h-347l56 258h647c3 -42 1 -87 -5 -134c-54 -445 -361 -680 -719 -680c-401 0 -692 265 -692 657c0 463 338 795 785 795
c143 0 371 -33 519 -226zM1294 1499h-273l-82 144l-141 -144h-296l293 332h344z" />
    <glyph glyph-name="gcircumflex" unicode="&#x11d;" horiz-adv-x="1177" 
d="M1178 981l-202 -940c-60 -281 -266 -458 -552 -458c-173 0 -324 46 -466 140l137 244c103 -73 205 -111 308 -111c148 0 246 79 271 203l5 26c-56 -42 -126 -67 -219 -67c-239 0 -413 176 -413 425s164 564 529 564c122 0 214 -39 272 -106l17 80h313zM549 303
c128 0 224 100 224 235c0 104 -79 183 -185 183c-127 0 -222 -100 -222 -234c0 -105 78 -184 183 -184zM1060 1095h-273l-82 144l-141 -144h-296l293 332h344z" />
    <glyph glyph-name="Gbreve" unicode="&#x11e;" horiz-adv-x="1550" 
d="M1414 1200l-258 -213c-64 75 -158 125 -288 125c-231 0 -413 -191 -413 -463c0 -231 147 -369 363 -369c184 0 304 86 352 250h-347l56 258h647c3 -42 1 -87 -5 -134c-54 -445 -361 -680 -719 -680c-401 0 -692 265 -692 657c0 463 338 795 785 795
c143 0 371 -33 519 -226zM565 1818l233 65c7 -102 51 -154 133 -154c78 0 139 52 187 154l230 -65c-96 -216 -237 -331 -446 -331c-196 0 -330 121 -337 331z" />
    <glyph glyph-name="gbreve" unicode="&#x11f;" horiz-adv-x="1177" 
d="M1178 981l-202 -940c-60 -281 -266 -458 -552 -458c-173 0 -324 46 -466 140l137 244c103 -73 205 -111 308 -111c148 0 246 79 271 203l5 26c-56 -42 -126 -67 -219 -67c-239 0 -413 176 -413 425s164 564 529 564c122 0 214 -39 272 -106l17 80h313zM549 303
c128 0 224 100 224 235c0 104 -79 183 -185 183c-127 0 -222 -100 -222 -234c0 -105 78 -184 183 -184zM336 1414l233 65c7 -102 51 -154 133 -154c78 0 139 52 187 154l230 -65c-96 -216 -237 -331 -446 -331c-196 0 -330 121 -337 331z" />
    <glyph glyph-name="Gdotaccent" unicode="&#x120;" horiz-adv-x="1550" 
d="M1414 1200l-258 -213c-64 75 -158 125 -288 125c-231 0 -413 -191 -413 -463c0 -231 147 -369 363 -369c184 0 304 86 352 250h-347l56 258h647c3 -42 1 -87 -5 -134c-54 -445 -361 -680 -719 -680c-401 0 -692 265 -692 657c0 463 338 795 785 795
c143 0 371 -33 519 -226zM920 1871c112 0 198 -86 198 -197c0 -110 -86 -195 -198 -195c-110 0 -196 85 -196 195c0 111 86 197 196 197z" />
    <glyph glyph-name="gdotaccent" unicode="&#x121;" horiz-adv-x="1177" 
d="M1178 981l-202 -940c-60 -281 -266 -458 -552 -458c-173 0 -324 46 -466 140l137 244c103 -73 205 -111 308 -111c148 0 246 79 271 203l5 26c-56 -42 -126 -67 -219 -67c-239 0 -413 176 -413 425s164 564 529 564c122 0 214 -39 272 -106l17 80h313zM549 303
c128 0 224 100 224 235c0 104 -79 183 -185 183c-127 0 -222 -100 -222 -234c0 -105 78 -184 183 -184zM716 1471c106 0 188 -82 188 -188c0 -105 -82 -186 -188 -186c-105 0 -187 81 -187 186c0 106 82 188 187 188z" />
    <glyph glyph-name="Gcommaaccent" unicode="&#x122;" horiz-adv-x="1550" 
d="M1414 1200l-258 -213c-64 75 -158 125 -288 125c-231 0 -413 -191 -413 -463c0 -231 147 -369 363 -369c184 0 304 86 352 250h-347l56 258h647c3 -42 1 -87 -5 -134c-54 -445 -361 -680 -719 -680c-401 0 -692 265 -692 657c0 463 338 795 785 795
c143 0 371 -33 519 -226zM623 -80h305l-180 -412h-262z" />
    <glyph glyph-name="gcommaaccent" unicode="&#x123;" horiz-adv-x="1177" 
d="M1178 981l-202 -940c-60 -281 -266 -458 -552 -458c-173 0 -324 46 -466 140l137 244c103 -73 205 -111 308 -111c148 0 246 79 271 203l5 26c-56 -42 -126 -67 -219 -67c-239 0 -413 176 -413 425s164 564 529 564c122 0 214 -39 272 -106l17 80h313zM549 303
c128 0 224 100 224 235c0 104 -79 183 -185 183c-127 0 -222 -100 -222 -234c0 -105 78 -184 183 -184zM833 1105h-306l181 412h262z" />
    <glyph glyph-name="Hcircumflex" unicode="&#x124;" horiz-adv-x="1499" 
d="M657 1400l-115 -539h572l115 539h342l-299 -1400h-341l117 552h-572l-117 -552h-342l298 1400h342zM1342 1499h-273l-82 144l-141 -144h-296l293 332h344z" />
    <glyph glyph-name="hcircumflex" unicode="&#x125;" horiz-adv-x="1138" 
d="M752 1008c199 0 319 -135 319 -325c0 -34 -4 -71 -12 -109l-123 -574h-314l116 547c4 17 6 35 6 51c0 66 -34 116 -122 116c-85 0 -165 -43 -197 -197l-109 -517h-316l306 1440h315l-113 -527c68 66 149 95 244 95zM1162 1514h-273l-82 144l-141 -144h-296l293 332h344z
" />
    <glyph glyph-name="Hbar" unicode="&#x126;" horiz-adv-x="1596" 
d="M1718 1241l-51 -246h-130l-212 -995h-341l117 552h-572l-117 -552h-342l212 995h-138l52 246h138l34 159h342l-34 -159h572l34 159h342l-34 -159h128zM595 861h572l28 134h-572z" />
    <glyph glyph-name="hbar" unicode="&#x127;" horiz-adv-x="1138" 
d="M933 1321l-50 -240h-339l-36 -168c68 66 149 95 244 95c199 0 319 -135 319 -325c0 -34 -4 -71 -12 -109l-123 -574h-314l116 547c4 17 6 35 6 51c0 66 -34 116 -122 116c-85 0 -165 -43 -197 -197l-109 -517h-316l229 1081h-88l50 240h89l26 119h315l-26 -119h338z" />
    <glyph glyph-name="Itilde" unicode="&#x128;" horiz-adv-x="585" 
d="M657 1400l-298 -1400h-341l297 1400h342zM236 1510l-159 176c93 112 191 145 294 145c154 0 192 -72 255 -72c44 0 80 29 125 73l159 -177c-93 -111 -191 -145 -294 -145c-153 0 -191 72 -255 72c-44 0 -80 -29 -125 -72z" />
    <glyph glyph-name="itilde" unicode="&#x129;" horiz-adv-x="524" 
d="M525 981l-209 -981h-316l209 981h316zM139 1106l-159 176c93 112 191 145 294 145c154 0 192 -72 255 -72c44 0 80 29 125 73l159 -177c-93 -111 -191 -145 -294 -145c-153 0 -191 72 -255 72c-44 0 -80 -29 -125 -72z" />
    <glyph glyph-name="Imacron" unicode="&#x12a;" horiz-adv-x="585" 
d="M657 1400l-298 -1400h-341l297 1400h342zM156 1540l54 250h704l-53 -250h-705z" />
    <glyph glyph-name="imacron" unicode="&#x12b;" horiz-adv-x="524" 
d="M525 981l-209 -981h-316l209 981h316zM47 1136l54 250h704l-53 -250h-705z" />
    <glyph glyph-name="Ibreve" unicode="&#x12c;" horiz-adv-x="585" 
d="M657 1400l-298 -1400h-341l297 1400h342zM154 1818l233 65c7 -102 51 -154 133 -154c78 0 139 52 187 154l230 -65c-96 -216 -237 -331 -446 -331c-196 0 -330 121 -337 331z" />
    <glyph glyph-name="ibreve" unicode="&#x12d;" horiz-adv-x="524" 
d="M525 981l-209 -981h-316l209 981h316zM49 1414l233 65c7 -102 51 -154 133 -154c78 0 139 52 187 154l230 -65c-96 -216 -237 -331 -446 -331c-196 0 -330 121 -337 331z" />
    <glyph glyph-name="Iogonek" unicode="&#x12e;" horiz-adv-x="585" 
d="M297 -160l123 -177c-52 -44 -138 -82 -239 -82c-168 0 -273 77 -273 203c0 94 65 164 150 216h-40l297 1400h342l-298 -1400h-54c-122 -52 -138 -109 -138 -140s24 -47 58 -47c21 0 44 8 72 27z" />
    <glyph glyph-name="iogonek" unicode="&#x12f;" horiz-adv-x="524" 
d="M525 981l-209 -981h-38c-122 -52 -138 -109 -138 -140s24 -47 58 -47c21 0 44 8 72 27l123 -177c-52 -44 -138 -82 -239 -82c-168 0 -273 77 -273 203c0 94 65 164 150 216h-31l209 981h316zM429 1471c106 0 188 -82 188 -188c0 -105 -82 -186 -188 -186
c-105 0 -187 81 -187 186c0 106 82 188 187 188z" />
    <glyph glyph-name="Idotaccent" unicode="&#x130;" horiz-adv-x="585" 
d="M657 1400l-298 -1400h-341l297 1400h342zM509 1871c112 0 198 -86 198 -197c0 -110 -86 -195 -198 -195c-110 0 -196 85 -196 195c0 111 86 197 196 197z" />
    <glyph glyph-name="dotlessi" unicode="&#x131;" horiz-adv-x="524" 
d="M525 981l-209 -981h-316l209 981h316z" />
    <glyph glyph-name="IJ" unicode="&#x132;" horiz-adv-x="1635" 
d="M657 1400l-298 -1400h-341l297 1400h342zM1713 1400l-190 -894c-83 -390 -296 -532 -569 -532c-179 0 -330 65 -417 177l188 249c48 -58 125 -105 223 -105c123 0 205 72 247 271l176 834h342z" />
    <glyph glyph-name="ij" unicode="&#x133;" horiz-adv-x="1050" 
d="M1051 981l-229 -1079c-47 -222 -184 -326 -368 -326c-66 0 -135 14 -185 38l78 271c21 -12 45 -18 67 -18c44 0 89 24 106 102l215 1012h316zM953 1471c106 0 188 -82 188 -188c0 -105 -82 -186 -188 -186c-105 0 -187 81 -187 186c0 106 82 188 187 188zM525 981
l-209 -981h-316l209 981h316zM429 1471c106 0 188 -82 188 -188c0 -105 -82 -186 -188 -186c-105 0 -187 81 -187 186c0 106 82 188 187 188z" />
    <glyph glyph-name="Jcircumflex" unicode="&#x134;" horiz-adv-x="1050" 
d="M1128 1400l-190 -894c-83 -390 -296 -532 -569 -532c-179 0 -330 65 -417 177l188 249c48 -58 125 -105 223 -105c123 0 205 72 247 271l176 834h342zM1355 1499h-273l-82 144l-141 -144h-296l293 332h344z" />
    <glyph glyph-name="jcircumflex" unicode="&#x135;" horiz-adv-x="526" 
d="M527 981l-229 -1079c-47 -222 -184 -326 -368 -326c-66 0 -135 14 -185 38l78 271c21 -12 45 -18 67 -18c44 0 89 24 106 102l215 1012h316zM773 1095h-273l-82 144l-141 -144h-296l293 332h344z" />
    <glyph glyph-name="Kcommaaccent" unicode="&#x136;" horiz-adv-x="1396" 
d="M657 1400l-116 -545h98l497 545h422l-681 -709l421 -691h-382l-330 554h-109l-118 -554h-342l298 1400h342zM467 -80h305l-180 -412h-262z" />
    <glyph glyph-name="kcommaaccent" unicode="&#x137;" horiz-adv-x="1088" 
d="M622 1440l-167 -784h61l283 325h385l-453 -484l271 -497h-344l-192 379h-70l-80 -379h-316l306 1440h316zM315 -80h305l-180 -412h-262z" />
    <glyph glyph-name="kgreenlandic" unicode="&#x138;" horiz-adv-x="1087" 
d="M729 497l272 -497h-345l-192 379h-68l-80 -379h-316l209 981h316l-70 -325h59l283 325h386z" />
    <glyph glyph-name="Lacute" unicode="&#x139;" horiz-adv-x="1167" 
d="M657 1400l-232 -1090h679l-66 -310h-1021l298 1400h342zM585 1508h-299l245 332h366z" />
    <glyph glyph-name="lacute" unicode="&#x13a;" horiz-adv-x="524" 
d="M622 1440l-306 -1440h-316l306 1440h316zM555 1508h-299l245 332h366z" />
    <glyph glyph-name="Lcommaaccent" unicode="&#x13b;" horiz-adv-x="1167" 
d="M657 1400l-232 -1090h679l-66 -310h-1021l298 1400h342zM386 -80h305l-180 -412h-262z" />
    <glyph glyph-name="lcommaaccent" unicode="&#x13c;" horiz-adv-x="524" 
d="M622 1440l-306 -1440h-316l306 1440h316zM-10 -80h305l-180 -412h-262z" />
    <glyph glyph-name="Lcaron" unicode="&#x13d;" horiz-adv-x="1167" 
d="M657 1400l-232 -1090h679l-66 -310h-1021l298 1400h342zM948 933h-240l99 467h314z" />
    <glyph glyph-name="lcaron" unicode="&#x13e;" horiz-adv-x="701" 
d="M622 1440l-306 -1440h-316l306 1440h316zM857 973h-240l99 467h314z" />
    <glyph glyph-name="Ldot" unicode="&#x13f;" horiz-adv-x="1167" 
d="M657 1400l-232 -1090h679l-66 -310h-1021l298 1400h342zM898 920c112 0 198 -86 198 -197c0 -110 -86 -195 -198 -195c-110 0 -196 85 -196 195c0 111 86 197 196 197z" />
    <glyph glyph-name="ldot" unicode="&#x140;" horiz-adv-x="783" 
d="M622 1440l-306 -1440h-316l306 1440h316zM733 905c98 0 175 -77 175 -175s-77 -173 -175 -173s-174 75 -174 173s76 175 174 175z" />
    <glyph glyph-name="Lslash" unicode="&#x141;" horiz-adv-x="1270" 
d="M760 1400l-102 -479l423 204l-71 -333l-423 -205l-59 -277h679l-66 -310h-1021l86 403l-169 -81l72 334l168 81l141 663h342z" />
    <glyph glyph-name="lslash" unicode="&#x142;" horiz-adv-x="731" 
d="M726 1440l-94 -441l196 95l-68 -319l-196 -94l-144 -681h-316l108 511l-196 -95l68 319l196 94l130 611h316z" />
    <glyph glyph-name="Nacute" unicode="&#x143;" horiz-adv-x="1526" 
d="M1598 1400l-298 -1400h-315l-441 879l-186 -879h-341l298 1400h317l440 -880l186 880h340zM1048 1508h-299l245 332h366z" />
    <glyph glyph-name="nacute" unicode="&#x144;" horiz-adv-x="1138" 
d="M752 1008c199 0 319 -135 319 -325c0 -34 -4 -71 -12 -109l-123 -574h-314l116 547c4 17 6 35 6 51c0 66 -34 116 -122 116c-90 0 -166 -47 -198 -197l-110 -517h-314l209 981h296l-22 -95c72 86 162 122 269 122zM774 1105h-299l245 332h366z" />
    <glyph glyph-name="Ncommaaccent" unicode="&#x145;" horiz-adv-x="1526" 
d="M1598 1400l-298 -1400h-315l-441 879l-186 -879h-341l298 1400h317l440 -880l186 880h340zM523 -80h305l-180 -412h-262z" />
    <glyph glyph-name="ncommaaccent" unicode="&#x146;" horiz-adv-x="1138" 
d="M752 1008c199 0 319 -135 319 -325c0 -34 -4 -71 -12 -109l-123 -574h-314l116 547c4 17 6 35 6 51c0 66 -34 116 -122 116c-90 0 -166 -47 -198 -197l-110 -517h-314l209 981h296l-22 -95c72 86 162 122 269 122zM299 -80h305l-180 -412h-262z" />
    <glyph glyph-name="Ncaron" unicode="&#x147;" horiz-adv-x="1526" 
d="M1598 1400l-298 -1400h-315l-441 879l-186 -879h-341l298 1400h317l440 -880l186 880h340zM623 1831h274l82 -144l141 144h296l-293 -332h-344z" />
    <glyph glyph-name="ncaron" unicode="&#x148;" horiz-adv-x="1138" 
d="M752 1008c199 0 319 -135 319 -325c0 -34 -4 -71 -12 -109l-123 -574h-314l116 547c4 17 6 35 6 51c0 66 -34 116 -122 116c-90 0 -166 -47 -198 -197l-110 -517h-314l209 981h296l-22 -95c72 86 162 122 269 122zM349 1427h274l82 -144l141 144h296l-293 -332h-344z" />
    <glyph glyph-name="napostrophe" unicode="&#x149;" horiz-adv-x="1485" 
d="M342 1440h342l-283 -650h-276zM1099 1008c199 0 319 -135 319 -325c0 -34 -4 -71 -12 -109l-123 -574h-314l116 547c4 17 6 35 6 51c0 66 -34 116 -122 116c-90 0 -166 -47 -198 -197l-110 -517h-314l209 981h296l-22 -95c72 86 162 122 269 122z" />
    <glyph glyph-name="Eng" unicode="&#x14a;" horiz-adv-x="1526" 
d="M1598 1400l-306 -1441c-50 -238 -205 -376 -455 -376c-129 0 -254 39 -321 100l169 262c41 -33 89 -51 146 -51c77 0 124 50 141 131l-428 854l-186 -879h-341l298 1400h317l440 -880l186 880h340z" />
    <glyph glyph-name="eng" unicode="&#x14b;" horiz-adv-x="1138" 
d="M752 1008c199 0 319 -135 319 -325c0 -34 -4 -71 -12 -109l-138 -644c-46 -217 -193 -298 -339 -298c-76 0 -134 12 -174 32l65 271c18 -8 40 -12 67 -12c37 0 69 23 83 88l115 536c4 17 6 35 6 51c0 66 -34 116 -122 116c-90 0 -166 -47 -198 -197l-110 -517h-314
l209 981h296l-22 -95c72 86 162 122 269 122z" />
    <glyph glyph-name="Omacron" unicode="&#x14c;" horiz-adv-x="1598" 
d="M890 1426c399 0 688 -263 688 -661c0 -431 -321 -791 -782 -791c-399 0 -687 263 -687 661c0 430 321 791 781 791zM872 1105c-244 0 -415 -203 -415 -449c0 -222 148 -362 358 -362c243 0 415 203 415 450c0 221 -149 361 -358 361zM591 1540l54 250h704l-53 -250h-705z
" />
    <glyph glyph-name="omacron" unicode="&#x14d;" horiz-adv-x="1158" 
d="M614 1008c277 0 497 -184 497 -473c0 -306 -239 -561 -567 -561c-277 0 -497 183 -497 473c0 305 239 561 567 561zM594 716c-127 0 -226 -109 -226 -250c0 -118 79 -201 193 -201c128 0 229 110 229 251c0 118 -81 200 -196 200zM323 1134l54 250h704l-53 -250h-705z
" />
    <glyph glyph-name="Obreve" unicode="&#x14e;" horiz-adv-x="1598" 
d="M890 1426c399 0 688 -263 688 -661c0 -431 -321 -791 -782 -791c-399 0 -687 263 -687 661c0 430 321 791 781 791zM872 1105c-244 0 -415 -203 -415 -449c0 -222 148 -362 358 -362c243 0 415 203 415 450c0 221 -149 361 -358 361zM589 1818l233 65
c7 -102 51 -154 133 -154c78 0 139 52 187 154l230 -65c-96 -216 -237 -331 -446 -331c-196 0 -330 121 -337 331z" />
    <glyph glyph-name="obreve" unicode="&#x14f;" horiz-adv-x="1158" 
d="M614 1008c277 0 497 -184 497 -473c0 -306 -239 -561 -567 -561c-277 0 -497 183 -497 473c0 305 239 561 567 561zM594 716c-127 0 -226 -109 -226 -250c0 -118 79 -201 193 -201c128 0 229 110 229 251c0 118 -81 200 -196 200zM325 1412l233 65
c7 -102 51 -154 133 -154c78 0 139 52 187 154l230 -65c-96 -216 -237 -331 -446 -331c-196 0 -330 121 -337 331z" />
    <glyph glyph-name="Ohungarumlaut" unicode="&#x150;" horiz-adv-x="1598" 
d="M890 1426c399 0 688 -263 688 -661c0 -431 -321 -791 -782 -791c-399 0 -687 263 -687 661c0 430 321 791 781 791zM872 1105c-244 0 -415 -203 -415 -449c0 -222 148 -362 358 -362c243 0 415 203 415 450c0 221 -149 361 -358 361zM1279 1509h-306l275 332h326z
M861 1509h-293l244 332h324z" />
    <glyph glyph-name="ohungarumlaut" unicode="&#x151;" horiz-adv-x="1158" 
d="M614 1008c277 0 497 -184 497 -473c0 -306 -239 -561 -567 -561c-277 0 -497 183 -497 473c0 305 239 561 567 561zM594 716c-127 0 -226 -109 -226 -250c0 -118 79 -201 193 -201c128 0 229 110 229 251c0 118 -81 200 -196 200zM1004 1103h-306l275 332h326zM586 1103
h-293l244 332h324z" />
    <glyph glyph-name="OE" unicode="&#x152;" horiz-adv-x="2134" 
d="M2080 857l-64 -300h-671l-54 -256h712l-64 -301h-1192c-403 0 -646 263 -646 582c0 459 306 818 863 818h1267l-64 -301h-706l-52 -242h671zM454 627c0 -183 101 -318 332 -318h165l166 782h-192c-296 0 -471 -191 -471 -464z" />
    <glyph glyph-name="oe" unicode="&#x153;" horiz-adv-x="1802" 
d="M1476 316l182 -186c-95 -101 -233 -156 -416 -156c-150 0 -266 55 -340 146c-92 -91 -216 -146 -358 -146c-277 0 -497 183 -497 473c0 305 239 561 567 561c144 0 271 -59 354 -162c85 96 209 162 378 162c247 0 425 -163 425 -405c0 -65 -18 -158 -40 -209h-649
c8 -103 77 -157 181 -157c73 0 148 18 213 79zM594 716c-127 0 -226 -109 -226 -250c0 -118 79 -201 193 -201c128 0 229 110 229 251c0 118 -81 200 -196 200zM1327 742c-105 0 -169 -70 -206 -150h353v5c0 97 -57 145 -147 145z" />
    <glyph glyph-name="Racute" unicode="&#x154;" horiz-adv-x="1317" 
d="M315 1400h558c303 0 471 -183 471 -398c0 -206 -115 -431 -475 -472l355 -530h-385l-326 524h-43l-111 -524h-342zM826 1097h-234l-62 -292h252c166 0 220 80 220 165c0 78 -65 127 -176 127zM914 1508h-299l245 332h366z" />
    <glyph glyph-name="racute" unicode="&#x155;" horiz-adv-x="800" 
d="M421 511l-107 -511h-314l209 981h296l-24 -105c70 95 158 132 262 132c43 0 87 -10 131 -25l-88 -303c-42 17 -97 27 -146 27c-102 0 -191 -62 -219 -196zM646 1105h-299l245 332h366z" />
    <glyph glyph-name="Rcommaaccent" unicode="&#x156;" horiz-adv-x="1317" 
d="M315 1400h558c303 0 471 -183 471 -398c0 -206 -115 -431 -475 -472l355 -530h-385l-326 524h-43l-111 -524h-342zM826 1097h-234l-62 -292h252c166 0 220 80 220 165c0 78 -65 127 -176 127zM440 -80h305l-180 -412h-262z" />
    <glyph glyph-name="rcommaaccent" unicode="&#x157;" horiz-adv-x="800" 
d="M421 511l-107 -511h-314l209 981h296l-24 -105c70 95 158 132 262 132c43 0 87 -10 131 -25l-88 -303c-42 17 -97 27 -146 27c-102 0 -191 -62 -219 -196zM-11 -80h305l-180 -412h-262z" />
    <glyph glyph-name="Rcaron" unicode="&#x158;" horiz-adv-x="1317" 
d="M315 1400h558c303 0 471 -183 471 -398c0 -206 -115 -431 -475 -472l355 -530h-385l-326 524h-43l-111 -524h-342zM826 1097h-234l-62 -292h252c166 0 220 80 220 165c0 78 -65 127 -176 127zM489 1831h274l82 -144l141 144h296l-293 -332h-344z" />
    <glyph glyph-name="rcaron" unicode="&#x159;" horiz-adv-x="800" 
d="M421 511l-107 -511h-314l209 981h296l-24 -105c70 95 158 132 262 132c43 0 87 -10 131 -25l-88 -303c-42 17 -97 27 -146 27c-102 0 -191 -62 -219 -196zM221 1427h274l82 -144l141 144h296l-293 -332h-344z" />
    <glyph glyph-name="Sacute" unicode="&#x15a;" horiz-adv-x="1334" 
d="M1365 1258l-171 -266c-134 98 -316 128 -418 128c-149 0 -214 -60 -214 -130c0 -87 108 -116 219 -138l63 -12c253 -48 406 -170 406 -377c0 -300 -252 -489 -613 -489c-209 0 -468 61 -626 196l189 265c145 -114 319 -158 463 -158c128 0 223 44 223 135
c0 78 -80 106 -232 135l-68 13c-239 46 -388 173 -388 381c0 273 209 485 578 485c161 0 377 -24 589 -168zM935 1508h-299l245 332h366z" />
    <glyph glyph-name="sacute" unicode="&#x15b;" horiz-adv-x="975" 
d="M977 897l-127 -231c-109 65 -247 88 -307 88c-81 0 -118 -20 -122 -54c-6 -50 37 -58 134 -78l61 -13c215 -44 293 -157 275 -309c-26 -215 -188 -325 -462 -325c-169 0 -350 50 -454 130l134 229c95 -62 221 -106 332 -106c94 0 130 21 134 61c5 42 -33 58 -127 76
l-62 11c-228 40 -306 159 -286 321c26 206 189 310 440 310c160 0 300 -37 437 -110zM691 1105h-299l245 332h366z" />
    <glyph glyph-name="Scircumflex" unicode="&#x15c;" horiz-adv-x="1334" 
d="M1365 1258l-171 -266c-134 98 -316 128 -418 128c-149 0 -214 -60 -214 -130c0 -87 108 -116 219 -138l63 -12c253 -48 406 -170 406 -377c0 -300 -252 -489 -613 -489c-209 0 -468 61 -626 196l189 265c145 -114 319 -158 463 -158c128 0 223 44 223 135
c0 78 -80 106 -232 135l-68 13c-239 46 -388 173 -388 381c0 273 209 485 578 485c161 0 377 -24 589 -168zM1233 1499h-273l-82 144l-141 -144h-296l293 332h344z" />
    <glyph glyph-name="scircumflex" unicode="&#x15d;" horiz-adv-x="975" 
d="M977 897l-127 -231c-109 65 -247 88 -307 88c-81 0 -118 -20 -122 -54c-6 -50 37 -58 134 -78l61 -13c215 -44 293 -157 275 -309c-26 -215 -188 -325 -462 -325c-169 0 -350 50 -454 130l134 229c95 -62 221 -106 332 -106c94 0 130 21 134 61c5 42 -33 58 -127 76
l-62 11c-228 40 -306 159 -286 321c26 206 189 310 440 310c160 0 300 -37 437 -110zM976 1095h-273l-82 144l-141 -144h-296l293 332h344z" />
    <glyph glyph-name="Scedilla" unicode="&#x15e;" horiz-adv-x="1334" 
d="M1365 1258l-171 -266c-134 98 -316 128 -418 128c-149 0 -214 -60 -214 -130c0 -87 108 -116 219 -138l63 -12c253 -48 406 -170 406 -377c0 -259 -187 -435 -470 -478l-149 -306h-320l167 306c-170 23 -348 82 -467 185l189 265c145 -114 319 -158 463 -158
c128 0 223 44 223 135c0 78 -80 106 -232 135l-68 13c-239 46 -388 173 -388 381c0 273 209 485 578 485c161 0 377 -24 589 -168z" />
    <glyph glyph-name="scedilla" unicode="&#x15f;" horiz-adv-x="975" 
d="M977 897l-127 -231c-109 65 -247 88 -307 88c-81 0 -118 -20 -122 -54c-6 -50 37 -58 134 -78l61 -13c215 -44 293 -157 275 -309c-22 -179 -137 -285 -332 -315l-152 -306h-296l170 308c-120 19 -232 61 -306 118l134 229c95 -62 221 -106 332 -106c94 0 130 21 134 61
c5 42 -33 58 -127 76l-62 11c-228 40 -306 159 -286 321c26 206 189 310 440 310c160 0 300 -37 437 -110z" />
    <glyph glyph-name="Scaron" unicode="&#x160;" horiz-adv-x="1334" 
d="M1365 1258l-171 -266c-134 98 -316 128 -418 128c-149 0 -214 -60 -214 -130c0 -87 108 -116 219 -138l63 -12c253 -48 406 -170 406 -377c0 -300 -252 -489 -613 -489c-209 0 -468 61 -626 196l189 265c145 -114 319 -158 463 -158c128 0 223 44 223 135
c0 78 -80 106 -232 135l-68 13c-239 46 -388 173 -388 381c0 273 209 485 578 485c161 0 377 -24 589 -168zM510 1831h274l82 -144l141 144h296l-293 -332h-344z" />
    <glyph glyph-name="scaron" unicode="&#x161;" horiz-adv-x="975" 
d="M977 897l-127 -231c-109 65 -247 88 -307 88c-81 0 -118 -20 -122 -54c-6 -50 37 -58 134 -78l61 -13c215 -44 293 -157 275 -309c-26 -215 -188 -325 -462 -325c-169 0 -350 50 -454 130l134 229c95 -62 221 -106 332 -106c94 0 130 21 134 61c5 42 -33 58 -127 76
l-62 11c-228 40 -306 159 -286 321c26 206 189 310 440 310c160 0 300 -37 437 -110zM266 1427h274l82 -144l141 144h296l-293 -332h-344z" />
    <glyph glyph-name="Tcommaaccent" unicode="&#x162;" horiz-adv-x="1199" 
d="M1368 1400l-66 -310h-402l-232 -1090h-24l-156 -321h-320l175 321h-17l232 1090h-406l66 310h1150z" />
    <glyph glyph-name="tcommaaccent" unicode="&#x163;" horiz-adv-x="952" 
d="M952 981l-59 -277h-322l-63 -295c-21 -101 20 -143 98 -143c55 0 112 24 164 54l98 -250c-82 -52 -169 -82 -261 -92l-148 -299h-296l181 328h1c-148 62 -194 207 -154 394l64 303h-178l59 277h178l61 286h316l-61 -286h322z" />
    <glyph glyph-name="Tcaron" unicode="&#x164;" horiz-adv-x="1199" 
d="M1368 1400l-66 -310h-402l-232 -1090h-342l232 1090h-406l66 310h1150zM481 1831h274l82 -144l141 144h296l-293 -332h-344z" />
    <glyph glyph-name="tcaron" unicode="&#x165;" horiz-adv-x="952" 
d="M952 981l-59 -277h-322l-63 -295c-21 -101 20 -143 98 -143c55 0 112 24 164 54l98 -250c-103 -66 -216 -96 -334 -96c-295 0 -397 176 -343 427l64 303h-178l59 277h178l61 286h316l-61 -286h322zM941 1043h-240l99 467h314z" />
    <glyph glyph-name="Tbar" unicode="&#x166;" horiz-adv-x="1199" 
d="M1082 851l-62 -288h-232l-120 -563h-342l120 563h-219l61 288h219l51 239h-406l66 310h1150l-66 -310h-402l-51 -239h233z" />
    <glyph glyph-name="tbar" unicode="&#x167;" horiz-adv-x="952" 
d="M952 981l-59 -277h-322l-19 -90h238l-46 -218h-239c-15 -92 26 -130 101 -130c55 0 112 24 164 54l98 -250c-103 -66 -216 -96 -334 -96c-293 0 -396 173 -344 422h-131l45 218h132l19 90h-178l59 277h178l61 286h316l-61 -286h322z" />
    <glyph glyph-name="Utilde" unicode="&#x168;" horiz-adv-x="1431" 
d="M1515 1400l-184 -865c-77 -363 -296 -561 -658 -561c-339 0 -560 164 -560 463c0 47 6 99 17 152l174 811h341l-176 -822c-7 -32 -10 -61 -10 -87c0 -134 87 -196 227 -196c154 0 272 87 313 280l174 825h342zM660 1510l-159 176c93 112 191 145 294 145
c154 0 192 -72 255 -72c44 0 80 29 125 73l159 -177c-93 -111 -191 -145 -294 -145c-153 0 -191 72 -255 72c-44 0 -80 -29 -125 -72z" />
    <glyph glyph-name="utilde" unicode="&#x169;" horiz-adv-x="1133" 
d="M1140 981l-122 -575c-70 -327 -283 -432 -521 -432c-246 0 -419 124 -419 365c0 40 5 81 15 127l109 515h316l-117 -547c-4 -19 -5 -35 -5 -51c0 -80 50 -117 124 -117c100 0 169 71 195 195l109 520h316zM443 1106l-159 176c93 112 191 145 294 145
c154 0 192 -72 255 -72c44 0 80 29 125 73l159 -177c-93 -111 -191 -145 -294 -145c-153 0 -191 72 -255 72c-44 0 -80 -29 -125 -72z" />
    <glyph glyph-name="Umacron" unicode="&#x16a;" horiz-adv-x="1431" 
d="M1515 1400l-184 -865c-77 -363 -296 -561 -658 -561c-339 0 -560 164 -560 463c0 47 6 99 17 152l174 811h341l-176 -822c-7 -32 -10 -61 -10 -87c0 -134 87 -196 227 -196c154 0 272 87 313 280l174 825h342zM580 1540l54 250h704l-53 -250h-705z" />
    <glyph glyph-name="umacron" unicode="&#x16b;" horiz-adv-x="1133" 
d="M1140 981l-122 -575c-70 -327 -283 -432 -521 -432c-246 0 -419 124 -419 365c0 40 5 81 15 127l109 515h316l-117 -547c-4 -19 -5 -35 -5 -51c0 -80 50 -117 124 -117c100 0 169 71 195 195l109 520h316zM351 1136l54 250h704l-53 -250h-705z" />
    <glyph glyph-name="Ubreve" unicode="&#x16c;" horiz-adv-x="1431" 
d="M1515 1400l-184 -865c-77 -363 -296 -561 -658 -561c-339 0 -560 164 -560 463c0 47 6 99 17 152l174 811h341l-176 -822c-7 -32 -10 -61 -10 -87c0 -134 87 -196 227 -196c154 0 272 87 313 280l174 825h342zM578 1818l233 65c7 -102 51 -154 133 -154
c78 0 139 52 187 154l230 -65c-96 -216 -237 -331 -446 -331c-196 0 -330 121 -337 331z" />
    <glyph glyph-name="ubreve" unicode="&#x16d;" horiz-adv-x="1133" 
d="M1140 981l-122 -575c-70 -327 -283 -432 -521 -432c-246 0 -419 124 -419 365c0 40 5 81 15 127l109 515h316l-117 -547c-4 -19 -5 -35 -5 -51c0 -80 50 -117 124 -117c100 0 169 71 195 195l109 520h316zM353 1414l233 65c7 -102 51 -154 133 -154c78 0 139 52 187 154
l230 -65c-96 -216 -237 -331 -446 -331c-196 0 -330 121 -337 331z" />
    <glyph glyph-name="Uring" unicode="&#x16e;" horiz-adv-x="1431" 
d="M1515 1400l-184 -865c-77 -363 -296 -561 -658 -561c-339 0 -560 164 -560 463c0 47 6 99 17 152l174 811h341l-176 -822c-7 -32 -10 -61 -10 -87c0 -134 87 -196 227 -196c154 0 272 87 313 280l174 825h342zM936 1472c-151 0 -275 121 -275 272c0 149 124 271 275 271
c153 0 277 -122 277 -271c0 -151 -124 -272 -277 -272zM936 1639c56 0 103 45 103 105c0 58 -47 105 -103 105c-54 0 -102 -47 -102 -105c0 -60 48 -105 102 -105z" />
    <glyph glyph-name="uring" unicode="&#x16f;" horiz-adv-x="1133" 
d="M1140 981l-122 -575c-70 -327 -283 -432 -521 -432c-246 0 -419 124 -419 365c0 40 5 81 15 127l109 515h316l-117 -547c-4 -19 -5 -35 -5 -51c0 -80 50 -117 124 -117c100 0 169 71 195 195l109 520h316zM706 1068c-151 0 -275 121 -275 272c0 149 124 271 275 271
c153 0 277 -122 277 -271c0 -151 -124 -272 -277 -272zM706 1235c56 0 103 45 103 105c0 58 -47 105 -103 105c-54 0 -102 -47 -102 -105c0 -60 48 -105 102 -105z" />
    <glyph glyph-name="Uhungarumlaut" unicode="&#x170;" horiz-adv-x="1431" 
d="M1515 1400l-184 -865c-77 -363 -296 -561 -658 -561c-339 0 -560 164 -560 463c0 47 6 99 17 152l174 811h341l-176 -822c-7 -32 -10 -61 -10 -87c0 -134 87 -196 227 -196c154 0 272 87 313 280l174 825h342zM1268 1509h-306l275 332h326zM850 1509h-293l244 332h324z
" />
    <glyph glyph-name="uhungarumlaut" unicode="&#x171;" horiz-adv-x="1133" 
d="M1140 981l-122 -575c-70 -327 -283 -432 -521 -432c-246 0 -419 124 -419 365c0 40 5 81 15 127l109 515h316l-117 -547c-4 -19 -5 -35 -5 -51c0 -80 50 -117 124 -117c100 0 169 71 195 195l109 520h316zM1032 1105h-306l275 332h326zM614 1105h-293l244 332h324z" />
    <glyph glyph-name="Uogonek" unicode="&#x172;" horiz-adv-x="1431" 
d="M961 -152l143 -167c-76 -64 -169 -101 -277 -101c-180 0 -307 86 -307 216c0 72 27 130 93 180c-305 19 -500 180 -500 461c0 47 6 99 17 152l174 811h341l-176 -822c-7 -32 -10 -61 -10 -87c0 -134 87 -196 227 -196c154 0 272 87 313 280l174 825h342l-184 -865
c-55 -258 -179 -428 -374 -512c-134 -58 -155 -122 -155 -157c0 -31 25 -52 67 -52c33 0 63 13 92 34z" />
    <glyph glyph-name="uogonek" unicode="&#x173;" horiz-adv-x="1133" 
d="M754 -152l143 -167c-76 -64 -169 -101 -277 -101c-180 0 -307 86 -307 216c0 73 28 132 98 184c-199 25 -333 147 -333 359c0 40 5 81 15 127l109 515h316l-117 -547c-4 -19 -5 -35 -5 -51c0 -80 50 -117 124 -117c100 0 169 71 195 195l109 520h316l-122 -575
c-45 -210 -148 -326 -278 -387c-128 -60 -145 -119 -145 -153c0 -31 25 -52 67 -52c33 0 63 13 92 34z" />
    <glyph glyph-name="Wcircumflex" unicode="&#x174;" horiz-adv-x="2158" 
d="M2328 1400l-691 -1400h-389l-66 908l-433 -908h-406l-125 1400h336l71 -1004l471 1004h343l65 -998l467 998h357zM1666 1499h-273l-82 144l-141 -144h-296l293 332h344z" />
    <glyph glyph-name="wcircumflex" unicode="&#x175;" horiz-adv-x="1773" 
d="M1134 981l73 -622l313 622h339l-536 -981h-334l-71 593l-297 -593h-355l-144 981h315l74 -624l319 624h304zM1388 1095h-273l-82 144l-141 -144h-296l293 332h344z" />
    <glyph glyph-name="Ycircumflex" unicode="&#x176;" horiz-adv-x="1381" 
d="M1570 1400l-695 -862l-115 -538h-341l120 566l-341 834h356l199 -547l420 547h397zM1261 1499h-273l-82 144l-141 -144h-296l293 332h344z" />
    <glyph glyph-name="ycircumflex" unicode="&#x177;" horiz-adv-x="1161" 
d="M1259 981l-928 -1383h-358l455 655l-316 728h345l170 -429l274 429h358zM1085 1095h-273l-82 144l-141 -144h-296l293 332h344z" />
    <glyph glyph-name="Ydieresis" unicode="&#x178;" horiz-adv-x="1381" 
d="M1570 1400l-695 -862l-115 -538h-341l120 566l-341 834h356l199 -547l420 547h397zM658 1853c106 0 188 -82 188 -187c0 -106 -82 -187 -188 -187c-105 0 -186 81 -186 187c0 105 81 187 186 187zM1122 1853c105 0 187 -82 187 -187c0 -106 -82 -187 -187 -187
c-106 0 -187 81 -187 187c0 105 81 187 187 187z" />
    <glyph glyph-name="Zacute" unicode="&#x179;" horiz-adv-x="1267" 
d="M1370 1400l-58 -270l-816 -829h670l-64 -301h-1116l58 273l815 826h-657l64 301h1104zM891 1508h-299l245 332h366z" />
    <glyph glyph-name="zacute" unicode="&#x17a;" horiz-adv-x="1002" 
d="M1018 981l-52 -240l-503 -464h431l-58 -277h-860l49 235l508 469h-415l59 277h841zM696 1105h-299l245 332h366z" />
    <glyph glyph-name="Zdotaccent" unicode="&#x17b;" horiz-adv-x="1267" 
d="M1370 1400l-58 -270l-816 -829h670l-64 -301h-1116l58 273l815 826h-657l64 301h1104zM815 1871c112 0 198 -86 198 -197c0 -110 -86 -195 -198 -195c-110 0 -196 85 -196 195c0 111 86 197 196 197z" />
    <glyph glyph-name="zdotaccent" unicode="&#x17c;" horiz-adv-x="1002" 
d="M1018 981l-52 -240l-503 -464h431l-58 -277h-860l49 235l508 469h-415l59 277h841zM637 1471c106 0 188 -82 188 -188c0 -105 -82 -186 -188 -186c-105 0 -187 81 -187 186c0 106 82 188 187 188z" />
    <glyph glyph-name="Zcaron" unicode="&#x17d;" horiz-adv-x="1267" 
d="M1370 1400l-58 -270l-816 -829h670l-64 -301h-1116l58 273l815 826h-657l64 301h1104zM466 1831h274l82 -144l141 144h296l-293 -332h-344z" />
    <glyph glyph-name="zcaron" unicode="&#x17e;" horiz-adv-x="1002" 
d="M1018 981l-52 -240l-503 -464h431l-58 -277h-860l49 235l508 469h-415l59 277h841zM271 1427h274l82 -144l141 144h296l-293 -332h-344z" />
    <glyph glyph-name="longs" unicode="&#x17f;" horiz-adv-x="676" 
d="M953 1364l-161 -228c-46 28 -89 41 -126 41c-70 0 -113 -41 -133 -137l-222 -1040h-316l232 1087c54 252 187 379 417 379c131 0 241 -42 309 -102z" />
    <glyph glyph-name="uni018F" unicode="&#x18f;" horiz-adv-x="1528" 
d="M465 943l-208 242c145 150 328 241 560 241c404 0 691 -265 691 -658c0 -435 -319 -794 -758 -794c-383 0 -646 255 -646 630c0 75 12 142 26 219h1026c-30 177 -163 289 -342 289c-146 0 -257 -67 -349 -169zM767 280c170 0 307 116 365 285h-682
c12 -174 131 -285 317 -285z" />
    <glyph glyph-name="florin" unicode="&#x192;" horiz-adv-x="1400" 
d="M1168 850l-52 -250h-240l-53 -244c-58 -263 -184 -381 -402 -381c-138 0 -225 40 -290 89l159 226c34 -19 69 -33 116 -33c69 0 97 41 116 127l47 216h-228l53 250h229l44 201c56 258 184 374 400 374c139 0 226 -40 290 -89l-159 -226c-33 19 -68 33 -115 33
c-69 0 -97 -41 -116 -127l-37 -166h238z" />
    <glyph glyph-name="uni01B5" unicode="&#x1b5;" horiz-adv-x="1267" 
d="M1370 1400l-58 -270l-291 -286h143l-61 -286h-339l-268 -257h670l-64 -301h-1116l58 273l304 294h-170l61 286h367l253 246h-657l64 301h1104z" />
    <glyph glyph-name="uni01B6" unicode="&#x1b6;" horiz-adv-x="1002" 
d="M1018 981l-52 -240l-184 -155h104l-41 -192h-241l-141 -117h431l-58 -277h-860l49 235l198 168h-106l41 192h247l128 109h-415l59 277h841z" />
    <glyph glyph-name="uni01CD" unicode="&#x1cd;" horiz-adv-x="1482" 
d="M1131 1400l233 -1400h-339l-42 294h-541l-165 -294h-366l821 1400h399zM874 1064l-263 -468h329zM606 1831h274l82 -144l141 144h296l-293 -332h-344z" />
    <glyph glyph-name="uni01CE" unicode="&#x1ce;" horiz-adv-x="1187" 
d="M581 1008c116 0 213 -37 276 -111l18 84h312l-208 -981h-302l16 73c-61 -59 -139 -99 -245 -99c-234 0 -405 205 -405 457c0 247 178 577 538 577zM557 266c116 0 209 92 224 219c18 148 -78 231 -185 231c-129 0 -227 -115 -227 -253c0 -133 94 -197 188 -197zM365 1427
h274l82 -144l141 144h296l-293 -332h-344z" />
    <glyph glyph-name="uni01CF" unicode="&#x1cf;" horiz-adv-x="585" 
d="M657 1400l-298 -1400h-341l297 1400h342zM160 1831h274l82 -144l141 144h296l-293 -332h-344z" />
    <glyph glyph-name="uni01D0" unicode="&#x1d0;" horiz-adv-x="524" 
d="M525 981l-209 -981h-316l209 981h316zM63 1427h274l82 -144l141 144h296l-293 -332h-344z" />
    <glyph glyph-name="uni01D1" unicode="&#x1d1;" horiz-adv-x="1598" 
d="M890 1426c399 0 688 -263 688 -661c0 -431 -321 -791 -782 -791c-399 0 -687 263 -687 661c0 430 321 791 781 791zM872 1105c-244 0 -415 -203 -415 -449c0 -222 148 -362 358 -362c243 0 415 203 415 450c0 221 -149 361 -358 361zM595 1831h274l82 -144l141 144h296
l-293 -332h-344z" />
    <glyph glyph-name="uni01D2" unicode="&#x1d2;" horiz-adv-x="1158" 
d="M614 1008c277 0 497 -184 497 -473c0 -306 -239 -561 -567 -561c-277 0 -497 183 -497 473c0 305 239 561 567 561zM594 716c-127 0 -226 -109 -226 -250c0 -118 79 -201 193 -201c128 0 229 110 229 251c0 118 -81 200 -196 200zM339 1425h274l82 -144l141 144h296
l-293 -332h-344z" />
    <glyph glyph-name="uni01D3" unicode="&#x1d3;" horiz-adv-x="1431" 
d="M1515 1400l-184 -865c-77 -363 -296 -561 -658 -561c-339 0 -560 164 -560 463c0 47 6 99 17 152l174 811h341l-176 -822c-7 -32 -10 -61 -10 -87c0 -134 87 -196 227 -196c154 0 272 87 313 280l174 825h342zM584 1831h274l82 -144l141 144h296l-293 -332h-344z" />
    <glyph glyph-name="uni01D4" unicode="&#x1d4;" horiz-adv-x="1133" 
d="M1140 981l-122 -575c-70 -327 -283 -432 -521 -432c-246 0 -419 124 -419 365c0 40 5 81 15 127l109 515h316l-117 -547c-4 -19 -5 -35 -5 -51c0 -80 50 -117 124 -117c100 0 169 71 195 195l109 520h316zM367 1427h274l82 -144l141 144h296l-293 -332h-344z" />
    <glyph glyph-name="uni01D5" unicode="&#x1d5;" horiz-adv-x="1431" 
d="M1515 1400l-184 -865c-77 -363 -296 -561 -658 -561c-339 0 -560 164 -560 463c0 47 6 99 17 152l174 811h341l-176 -822c-7 -32 -10 -61 -10 -87c0 -134 87 -196 227 -196c154 0 272 87 313 280l174 825h342zM602 1908l54 250h704l-53 -250h-705zM704 1853
c106 0 188 -82 188 -187c0 -106 -82 -187 -188 -187c-105 0 -186 81 -186 187c0 105 81 187 186 187zM1168 1853c105 0 187 -82 187 -187c0 -106 -82 -187 -187 -187c-106 0 -187 81 -187 187c0 105 81 187 187 187z" />
    <glyph glyph-name="uni01D6" unicode="&#x1d6;" horiz-adv-x="1133" 
d="M1140 981l-122 -575c-70 -327 -283 -432 -521 -432c-246 0 -419 124 -419 365c0 40 5 81 15 127l109 515h316l-117 -547c-4 -19 -5 -35 -5 -51c0 -80 50 -117 124 -117c100 0 169 71 195 195l109 520h316zM486 1449c106 0 188 -82 188 -187c0 -106 -82 -187 -188 -187
c-105 0 -186 81 -186 187c0 105 81 187 186 187zM950 1449c105 0 187 -82 187 -187c0 -106 -82 -187 -187 -187c-106 0 -187 81 -187 187c0 105 81 187 187 187zM418 1513l54 250h704l-53 -250h-705z" />
    <glyph glyph-name="uni01D7" unicode="&#x1d7;" horiz-adv-x="1431" 
d="M1515 1400l-184 -865c-77 -363 -296 -561 -658 -561c-339 0 -560 164 -560 463c0 47 6 99 17 152l174 811h341l-176 -822c-7 -32 -10 -61 -10 -87c0 -134 87 -196 227 -196c154 0 272 87 313 280l174 825h342zM1044 1909h-299l245 332h366zM704 1853
c106 0 188 -82 188 -187c0 -106 -82 -187 -188 -187c-105 0 -186 81 -186 187c0 105 81 187 186 187zM1168 1853c105 0 187 -82 187 -187c0 -106 -82 -187 -187 -187c-106 0 -187 81 -187 187c0 105 81 187 187 187z" />
    <glyph glyph-name="uni01D8" unicode="&#x1d8;" horiz-adv-x="1133" 
d="M1140 981l-122 -575c-70 -327 -283 -432 -521 -432c-246 0 -419 124 -419 365c0 40 5 81 15 127l109 515h316l-117 -547c-4 -19 -5 -35 -5 -51c0 -80 50 -117 124 -117c100 0 169 71 195 195l109 520h316zM486 1449c106 0 188 -82 188 -187c0 -106 -82 -187 -188 -187
c-105 0 -186 81 -186 187c0 105 81 187 186 187zM950 1449c105 0 187 -82 187 -187c0 -106 -82 -187 -187 -187c-106 0 -187 81 -187 187c0 105 81 187 187 187zM860 1514h-299l245 332h366z" />
    <glyph glyph-name="uni01D9" unicode="&#x1d9;" horiz-adv-x="1431" 
d="M1515 1400l-184 -865c-77 -363 -296 -561 -658 -561c-339 0 -560 164 -560 463c0 47 6 99 17 152l174 811h341l-176 -822c-7 -32 -10 -61 -10 -87c0 -134 87 -196 227 -196c154 0 272 87 313 280l174 825h342zM619 2232h274l82 -144l141 144h296l-293 -332h-344z
M704 1853c106 0 188 -82 188 -187c0 -106 -82 -187 -188 -187c-105 0 -186 81 -186 187c0 105 81 187 186 187zM1168 1853c105 0 187 -82 187 -187c0 -106 -82 -187 -187 -187c-106 0 -187 81 -187 187c0 105 81 187 187 187z" />
    <glyph glyph-name="uni01DA" unicode="&#x1da;" horiz-adv-x="1133" 
d="M1140 981l-122 -575c-70 -327 -283 -432 -521 -432c-246 0 -419 124 -419 365c0 40 5 81 15 127l109 515h316l-117 -547c-4 -19 -5 -35 -5 -51c0 -80 50 -117 124 -117c100 0 169 71 195 195l109 520h316zM486 1449c106 0 188 -82 188 -187c0 -106 -82 -187 -188 -187
c-105 0 -186 81 -186 187c0 105 81 187 186 187zM950 1449c105 0 187 -82 187 -187c0 -106 -82 -187 -187 -187c-106 0 -187 81 -187 187c0 105 81 187 187 187zM435 1837h274l82 -144l141 144h296l-293 -332h-344z" />
    <glyph glyph-name="uni01DB" unicode="&#x1db;" horiz-adv-x="1431" 
d="M1515 1400l-184 -865c-77 -363 -296 -561 -658 -561c-339 0 -560 164 -560 463c0 47 6 99 17 152l174 811h341l-176 -822c-7 -32 -10 -61 -10 -87c0 -134 87 -196 227 -196c154 0 272 87 313 280l174 825h342zM862 1910l-278 332h359l212 -332h-293zM704 1853
c106 0 188 -82 188 -187c0 -106 -82 -187 -188 -187c-105 0 -186 81 -186 187c0 105 81 187 186 187zM1168 1853c105 0 187 -82 187 -187c0 -106 -82 -187 -187 -187c-106 0 -187 81 -187 187c0 105 81 187 187 187z" />
    <glyph glyph-name="uni01DC" unicode="&#x1dc;" horiz-adv-x="1133" 
d="M1140 981l-122 -575c-70 -327 -283 -432 -521 -432c-246 0 -419 124 -419 365c0 40 5 81 15 127l109 515h316l-117 -547c-4 -19 -5 -35 -5 -51c0 -80 50 -117 124 -117c100 0 169 71 195 195l109 520h316zM486 1449c106 0 188 -82 188 -187c0 -106 -82 -187 -188 -187
c-105 0 -186 81 -186 187c0 105 81 187 186 187zM950 1449c105 0 187 -82 187 -187c0 -106 -82 -187 -187 -187c-106 0 -187 81 -187 187c0 105 81 187 187 187zM678 1515l-278 332h359l212 -332h-293z" />
    <glyph glyph-name="uni01E2" unicode="&#x1e2;" horiz-adv-x="2302" 
d="M2171 301l-64 -301h-1054l56 265h-537l-234 -265l-430 -1l1290 1401h1201l-64 -301h-706l-52 -242h671l-64 -300h-671l-54 -256h712zM840 567h334l105 497zM1401 1540l54 250h704l-53 -250h-705z" />
    <glyph glyph-name="uni01E3" unicode="&#x1e3;" horiz-adv-x="1660" 
d="M1335 316l181 -186c-94 -101 -233 -156 -415 -156c-158 0 -280 54 -359 144c-102 -92 -227 -144 -385 -144c-213 0 -345 109 -345 267c0 211 163 347 432 347h225c1 7 1 13 1 20c0 76 -47 127 -173 127c-104 0 -186 -35 -258 -71l-81 248c122 64 240 96 397 96
c137 0 249 -39 316 -129c83 84 194 129 333 129c247 0 425 -163 425 -405c0 -65 -18 -158 -40 -209h-648c8 -103 76 -157 180 -157c74 0 148 18 214 79zM432 213c73 0 159 34 220 93c-5 28 -8 57 -9 88h-164c-93 0 -148 -41 -148 -104c0 -45 35 -77 101 -77zM1185 742
c-108 0 -173 -74 -209 -157h357v12c0 97 -57 145 -148 145zM549 1136l54 250h704l-53 -250h-705z" />
    <glyph glyph-name="Gcaron" unicode="&#x1e6;" horiz-adv-x="1550" 
d="M1414 1200l-258 -213c-64 75 -158 125 -288 125c-231 0 -413 -191 -413 -463c0 -231 147 -369 363 -369c184 0 304 86 352 250h-347l56 258h647c3 -42 1 -87 -5 -134c-54 -445 -361 -680 -719 -680c-401 0 -692 265 -692 657c0 463 338 795 785 795
c143 0 371 -33 519 -226zM571 1831h274l82 -144l141 144h296l-293 -332h-344z" />
    <glyph glyph-name="gcaron" unicode="&#x1e7;" horiz-adv-x="1177" 
d="M1178 981l-202 -940c-60 -281 -266 -458 -552 -458c-173 0 -324 46 -466 140l137 244c103 -73 205 -111 308 -111c148 0 246 79 271 203l5 26c-56 -42 -126 -67 -219 -67c-239 0 -413 176 -413 425s164 564 529 564c122 0 214 -39 272 -106l17 80h313zM549 303
c128 0 224 100 224 235c0 104 -79 183 -185 183c-127 0 -222 -100 -222 -234c0 -105 78 -184 183 -184zM350 1427h274l82 -144l141 144h296l-293 -332h-344z" />
    <glyph glyph-name="Aringacute" unicode="&#x1fa;" horiz-adv-x="1482" 
d="M277 0h-366l800 1365c-27 42 -42 91 -42 145c0 149 124 271 275 271c153 0 277 -122 277 -271c0 -74 -30 -140 -77 -189l220 -1321h-339l-42 294h-541zM1015 1846h-299l245 332h366zM874 1064l-263 -468h329zM944 1405c56 0 103 45 103 105c0 58 -47 105 -103 105
c-54 0 -102 -47 -102 -105c0 -60 48 -105 102 -105z" />
    <glyph glyph-name="aringacute" unicode="&#x1fb;" horiz-adv-x="1187" 
d="M581 1008c116 0 213 -37 276 -111l18 84h312l-208 -981h-302l16 73c-61 -59 -139 -99 -245 -99c-234 0 -405 205 -405 457c0 247 178 577 538 577zM557 266c116 0 209 92 224 219c18 148 -78 231 -185 231c-129 0 -227 -115 -227 -253c0 -133 94 -197 188 -197zM726 1042
c-151 0 -275 121 -275 272c0 149 124 271 275 271c153 0 277 -122 277 -271c0 -151 -124 -272 -277 -272zM726 1209c56 0 103 45 103 105c0 58 -47 105 -103 105c-54 0 -102 -47 -102 -105c0 -60 48 -105 102 -105zM797 1620h-299l245 332h366z" />
    <glyph glyph-name="AEacute" unicode="&#x1fc;" horiz-adv-x="2302" 
d="M2171 301l-64 -301h-1054l56 265h-537l-234 -265l-430 -1l1290 1401h1201l-64 -301h-706l-52 -242h671l-64 -300h-671l-54 -256h712zM840 567h334l105 497zM1830 1508h-299l245 332h366z" />
    <glyph glyph-name="aeacute" unicode="&#x1fd;" horiz-adv-x="1660" 
d="M1335 316l181 -186c-94 -101 -233 -156 -415 -156c-158 0 -280 54 -359 144c-102 -92 -227 -144 -385 -144c-213 0 -345 109 -345 267c0 211 163 347 432 347h225c1 7 1 13 1 20c0 76 -47 127 -173 127c-104 0 -186 -35 -258 -71l-81 248c122 64 240 96 397 96
c137 0 249 -39 316 -129c83 84 194 129 333 129c247 0 425 -163 425 -405c0 -65 -18 -158 -40 -209h-648c8 -103 76 -157 180 -157c74 0 148 18 214 79zM432 213c73 0 159 34 220 93c-5 28 -8 57 -9 88h-164c-93 0 -148 -41 -148 -104c0 -45 35 -77 101 -77zM1185 742
c-108 0 -173 -74 -209 -157h357v12c0 97 -57 145 -148 145zM990 1105h-299l245 332h366z" />
    <glyph glyph-name="Oslashacute" unicode="&#x1fe;" horiz-adv-x="1598" 
d="M890 1426c170 0 321 -48 437 -134l157 139l170 -194l-157 -140c52 -94 81 -207 81 -332c0 -431 -321 -791 -782 -791c-163 0 -308 44 -422 123l-143 -128l-171 193l139 124c-58 98 -90 216 -90 349c0 430 321 791 781 791zM872 1105c-244 0 -415 -203 -415 -449
c0 -45 6 -87 17 -125l590 526c-55 31 -120 48 -192 48zM1230 744c0 37 -4 72 -12 104l-579 -515c51 -26 110 -39 176 -39c243 0 415 203 415 450zM1027 1508h-299l245 332h366z" />
    <glyph glyph-name="oslashacute" unicode="&#x1ff;" horiz-adv-x="1158" 
d="M614 1008c105 0 203 -27 283 -76l122 109l157 -174l-118 -105c35 -65 54 -142 54 -227c0 -306 -239 -561 -567 -561c-107 0 -205 26 -285 76l-123 -109l-157 173l120 107c-33 65 -52 141 -52 226c0 305 239 561 566 561zM597 730c-136 0 -241 -116 -241 -266
c0 -14 1 -27 3 -39l323 288c-25 11 -54 17 -85 17zM803 517c0 12 -1 23 -3 35l-320 -286c24 -10 51 -15 80 -15c136 0 243 117 243 266zM783 1103h-299l245 332h366z" />
    <glyph glyph-name="Scommaaccent" unicode="&#x218;" horiz-adv-x="1334" 
d="M1365 1258l-171 -266c-134 98 -316 128 -418 128c-149 0 -214 -60 -214 -130c0 -87 108 -116 219 -138l63 -12c253 -48 406 -170 406 -377c0 -300 -252 -489 -613 -489c-209 0 -468 61 -626 196l189 265c145 -114 319 -158 463 -158c128 0 223 44 223 135
c0 78 -80 106 -232 135l-68 13c-239 46 -388 173 -388 381c0 273 209 485 578 485c161 0 377 -24 589 -168zM471 -80h305l-180 -412h-262z" />
    <glyph glyph-name="scommaaccent" unicode="&#x219;" horiz-adv-x="975" 
d="M977 897l-127 -231c-109 65 -247 88 -307 88c-81 0 -118 -20 -122 -54c-6 -50 37 -58 134 -78l61 -13c215 -44 293 -157 275 -309c-26 -215 -188 -325 -462 -325c-169 0 -350 50 -454 130l134 229c95 -62 221 -106 332 -106c94 0 130 21 134 61c5 42 -33 58 -127 76
l-62 11c-228 40 -306 159 -286 321c26 206 189 310 440 310c160 0 300 -37 437 -110zM262 -80h305l-180 -412h-262z" />
    <glyph glyph-name="uni021A" unicode="&#x21a;" horiz-adv-x="1199" 
d="M1368 1400l-66 -310h-402l-232 -1090h-342l232 1090h-406l66 310h1150zM328 -80h305l-180 -412h-262z" />
    <glyph glyph-name="uni021B" unicode="&#x21b;" horiz-adv-x="952" 
d="M952 981l-59 -277h-322l-63 -295c-21 -101 20 -143 98 -143c55 0 112 24 164 54l98 -250c-103 -66 -216 -96 -334 -96c-295 0 -397 176 -343 427l64 303h-178l59 277h178l61 286h316l-61 -286h322zM314 -80h305l-180 -412h-262z" />
    <glyph glyph-name="uni0232" unicode="&#x232;" horiz-adv-x="1381" 
d="M1570 1400l-695 -862l-115 -538h-341l120 566l-341 834h356l199 -547l420 547h397zM534 1540l54 250h704l-53 -250h-705z" />
    <glyph glyph-name="uni0233" unicode="&#x233;" horiz-adv-x="1161" 
d="M1259 981l-928 -1383h-358l455 655l-316 728h345l170 -429l274 429h358zM359 1136l54 250h704l-53 -250h-705z" />
    <glyph glyph-name="uni0237" unicode="&#x237;" horiz-adv-x="526" 
d="M527 981l-229 -1079c-47 -222 -184 -326 -368 -326c-66 0 -135 14 -185 38l78 271c21 -12 45 -18 67 -18c44 0 89 24 106 102l215 1012h316z" />
    <glyph glyph-name="uni0259" unicode="&#x259;" horiz-adv-x="1065" 
d="M326 665l-181 186c94 101 233 156 415 156c293 0 466 -181 466 -430c0 -242 -159 -604 -570 -604c-247 0 -425 163 -425 405c0 65 18 158 40 209h649c-8 103 -77 157 -181 157c-73 0 -148 -18 -213 -79zM475 239c105 0 170 70 206 150h-353v-5c0 -97 57 -145 147 -145z
" />
    <glyph glyph-name="uni02BB" unicode="&#x2bb;" horiz-adv-x="555" 
d="M478 790h-342l283 650h276z" />
    <glyph glyph-name="afii57929" unicode="&#x2bc;" horiz-adv-x="555" 
d="M342 1440h342l-283 -650h-276z" />
    <glyph glyph-name="uni02BE" unicode="&#x2be;" horiz-adv-x="535" 
d="M237 1206l52 244c192 -21 335 -185 335 -381c0 -235 -186 -429 -435 -429c-18 0 -47 3 -71 6l54 251c10 -2 23 -3 34 -3c82 0 158 75 158 166c0 79 -58 142 -127 146z" />
    <glyph glyph-name="uni02BF" unicode="&#x2bf;" horiz-adv-x="535" 
d="M534 887l-52 -244c-192 21 -335 185 -335 381c0 235 186 429 435 429c18 0 47 -3 71 -6l-54 -251c-10 2 -23 3 -34 3c-82 0 -158 -75 -158 -166c0 -79 58 -142 127 -146z" />
    <glyph glyph-name="circumflex" unicode="&#x2c6;" horiz-adv-x="1141" 
d="M1088 1095h-273l-82 144l-141 -144h-296l293 332h344z" />
    <glyph glyph-name="caron" unicode="&#x2c7;" horiz-adv-x="1141" 
d="M356 1427h274l82 -144l141 144h296l-293 -332h-344z" />
    <glyph glyph-name="breve" unicode="&#x2d8;" horiz-adv-x="1141" 
d="M374 1414l233 65c7 -102 51 -154 133 -154c78 0 139 52 187 154l230 -65c-96 -216 -237 -331 -446 -331c-196 0 -330 121 -337 331z" />
    <glyph glyph-name="dotaccent" unicode="&#x2d9;" horiz-adv-x="591" 
d="M464 1471c106 0 188 -82 188 -188c0 -105 -82 -186 -188 -186c-105 0 -187 81 -187 186c0 106 82 188 187 188z" />
    <glyph glyph-name="ring" unicode="&#x2da;" horiz-adv-x="1000" 
d="M673 1068c-151 0 -275 121 -275 272c0 149 124 271 275 271c153 0 277 -122 277 -271c0 -151 -124 -272 -277 -272zM673 1235c56 0 103 45 103 105c0 58 -47 105 -103 105c-54 0 -102 -47 -102 -105c0 -60 48 -105 102 -105z" />
    <glyph glyph-name="ogonek" unicode="&#x2db;" horiz-adv-x="1101" 
d="M804 -152l143 -167c-76 -64 -169 -101 -277 -101c-180 0 -307 86 -307 216c0 129 89 215 337 290l109 -56c-146 -67 -164 -128 -164 -164c0 -31 25 -52 67 -52c33 0 63 13 92 34z" />
    <glyph glyph-name="tilde" unicode="&#x2dc;" horiz-adv-x="1141" 
d="M482 1106l-159 176c93 112 191 145 294 145c154 0 192 -72 255 -72c44 0 80 29 125 73l159 -177c-93 -111 -191 -145 -294 -145c-153 0 -191 72 -255 72c-44 0 -80 -29 -125 -72z" />
    <glyph glyph-name="hungarumlaut" unicode="&#x2dd;" horiz-adv-x="1141" 
d="M952 1105h-306l275 332h326zM534 1105h-293l244 332h324z" />
    <glyph glyph-name="gravecomb" unicode="&#x300;" 
d="M-593 1103l-278 332h359l212 -332h-293z" />
    <glyph glyph-name="acutecomb" unicode="&#x301;" 
d="M-394 1103h-299l245 332h366z" />
    <glyph glyph-name="uni0302" unicode="&#x302;" 
d="M-109 1093h-273l-82 144l-141 -144h-296l293 332h344z" />
    <glyph glyph-name="tildecomb" unicode="&#x303;" 
d="M-743 1104l-159 176c93 112 191 145 294 145c154 0 192 -72 255 -72c44 0 80 29 125 73l159 -177c-93 -111 -191 -145 -294 -145c-153 0 -191 72 -255 72c-44 0 -80 -29 -125 -72z" />
    <glyph glyph-name="uni0304" unicode="&#x304;" 
d="M-835 1134l54 250h704l-53 -250h-705z" />
    <glyph glyph-name="uni0306" unicode="&#x306;" 
d="M-833 1412l233 65c7 -102 51 -154 133 -154c78 0 139 52 187 154l230 -65c-96 -216 -237 -331 -446 -331c-196 0 -330 121 -337 331z" />
    <glyph glyph-name="uni0307" unicode="&#x307;" 
d="M-453 1469c106 0 188 -82 188 -188c0 -105 -82 -186 -188 -186c-105 0 -187 81 -187 186c0 106 82 188 187 188z" />
    <glyph glyph-name="uni0308" unicode="&#x308;" 
d="M-700 1447c106 0 188 -82 188 -187c0 -106 -82 -187 -188 -187c-105 0 -186 81 -186 187c0 105 81 187 186 187zM-236 1447c105 0 187 -82 187 -187c0 -106 -82 -187 -187 -187c-106 0 -187 81 -187 187c0 105 81 187 187 187z" />
    <glyph glyph-name="uni030A" unicode="&#x30a;" 
d="M-480 1066c-151 0 -275 121 -275 272c0 149 124 271 275 271c153 0 277 -122 277 -271c0 -151 -124 -272 -277 -272zM-480 1233c56 0 103 45 103 105c0 58 -47 105 -103 105c-54 0 -102 -47 -102 -105c0 -60 48 -105 102 -105z" />
    <glyph glyph-name="uni030B" unicode="&#x30b;" 
d="M-154 1103h-306l275 332h326zM-572 1103h-293l244 332h324z" />
    <glyph glyph-name="uni030C" unicode="&#x30c;" 
d="M-819 1425h274l82 -144l141 144h296l-293 -332h-344z" />
    <glyph glyph-name="uni0312" unicode="&#x312;" 
d="M-336 1103h-306l181 412h262z" />
    <glyph glyph-name="dotbelowcomb" unicode="&#x323;" 
d="M-544 -82c106 0 188 -82 188 -188c0 -105 -82 -186 -188 -186c-105 0 -187 81 -187 186c0 106 82 188 187 188z" />
    <glyph glyph-name="uni0326" unicode="&#x326;" 
d="M-712 -80h305l-180 -412h-262z" />
    <glyph glyph-name="uni0327" unicode="&#x327;" 
d="M-314 7l-163 -328h-296l181 328h278z" />
    <glyph glyph-name="uni0328" unicode="&#x328;" 
d="M-395 -152l143 -167c-76 -64 -169 -101 -277 -101c-180 0 -307 86 -307 216c0 129 89 215 337 290l109 -56c-146 -67 -164 -128 -164 -164c0 -31 25 -52 67 -52c33 0 63 13 92 34z" />
    <glyph glyph-name="uni032E" unicode="&#x32e;" 
d="M-952 -134l233 66c7 -103 50 -154 133 -154c77 0 138 51 187 154l230 -66c-96 -215 -238 -330 -446 -330c-197 0 -330 121 -337 330z" />
    <glyph glyph-name="uni0331" unicode="&#x331;" 
d="M-978 -384l54 250h704l-54 -250h-704z" />
    <glyph glyph-name="uni0335" unicode="&#x335;" 
d="M-183 641l-50 -240h-742l50 240h742z" />
    <glyph glyph-name="uni0336" unicode="&#x336;" 
d="M208 644l-51 -246h-1523l52 246h1522z" />
    <glyph glyph-name="uni0394" unicode="&#x394;" horiz-adv-x="1369" 
d="M1078 1400l194 -1138l-56 -262h-1272l56 262l679 1138h399zM936 309l-113 765l-439 -765h552z" />
    <glyph glyph-name="uni03A9" unicode="&#x3a9;" horiz-adv-x="1672" 
d="M1606 296l-63 -296h-657l58 272c200 55 320 255 320 464c0 214 -145 370 -365 370c-255 0 -423 -216 -423 -465c0 -180 92 -314 241 -362l-60 -279h-655l63 296h246c-112 107 -175 253 -175 418c0 404 350 710 776 711c415 0 710 -258 710 -620
c0 -190 -79 -372 -228 -509h212z" />
    <glyph glyph-name="uni03BC" unicode="&#x3bc;" horiz-adv-x="1136" 
d="M209 -400h-302l294 1381h314l-116 -547c-4 -17 -6 -35 -6 -51c0 -66 34 -116 122 -116c90 0 166 47 198 197l110 517h314l-209 -981h-296l22 95c-72 -86 -162 -122 -269 -122c-34 0 -66 4 -95 12z" />
    <glyph glyph-name="pi" unicode="&#x3c0;" horiz-adv-x="1132" 
d="M1139 981l-208 -981h-313l150 704h-306l-149 -704h-313l209 981h930z" />
    <glyph glyph-name="uni1E0C" unicode="&#x1e0c;" horiz-adv-x="1494" 
d="M837 1400c403 0 646 -263 646 -582c0 -459 -306 -818 -862 -818h-604l298 1400h522zM798 1091h-207l-166 -782h234c296 0 471 191 471 464c0 183 -101 318 -332 318zM618 -82c106 0 188 -82 188 -188c0 -105 -82 -186 -188 -186c-105 0 -187 81 -187 186
c0 106 82 188 187 188z" />
    <glyph glyph-name="uni1E0D" unicode="&#x1e0d;" horiz-adv-x="1189" 
d="M580 1008c116 0 213 -37 276 -111l116 543h315l-306 -1440h-305l16 73c-61 -59 -138 -99 -245 -99c-234 0 -404 205 -404 457c0 247 177 577 537 577zM557 266c116 0 209 92 224 219c18 148 -78 231 -185 231c-129 0 -227 -115 -227 -253c0 -133 94 -197 188 -197z
M508 -82c106 0 188 -82 188 -188c0 -105 -82 -186 -188 -186c-105 0 -187 81 -187 186c0 106 82 188 187 188z" />
    <glyph glyph-name="uni1E0E" unicode="&#x1e0e;" horiz-adv-x="1494" 
d="M837 1400c403 0 646 -263 646 -582c0 -459 -306 -818 -862 -818h-604l298 1400h522zM798 1091h-207l-166 -782h234c296 0 471 191 471 464c0 183 -101 318 -332 318zM229 -384l54 250h704l-54 -250h-704z" />
    <glyph glyph-name="uni1E0F" unicode="&#x1e0f;" horiz-adv-x="1189" 
d="M580 1008c116 0 213 -37 276 -111l116 543h315l-306 -1440h-305l16 73c-61 -59 -138 -99 -245 -99c-234 0 -404 205 -404 457c0 247 177 577 537 577zM557 266c116 0 209 92 224 219c18 148 -78 231 -185 231c-129 0 -227 -115 -227 -253c0 -133 94 -197 188 -197z
M118 -384l54 250h704l-54 -250h-704z" />
    <glyph glyph-name="uni1E24" unicode="&#x1e24;" horiz-adv-x="1499" 
d="M657 1400l-115 -539h572l115 539h342l-299 -1400h-341l117 552h-572l-117 -552h-342l298 1400h342zM600 -82c106 0 188 -82 188 -188c0 -105 -82 -186 -188 -186c-105 0 -187 81 -187 186c0 106 82 188 187 188z" />
    <glyph glyph-name="uni1E25" unicode="&#x1e25;" horiz-adv-x="1138" 
d="M752 1008c199 0 319 -135 319 -325c0 -34 -4 -71 -12 -109l-123 -574h-314l116 547c4 17 6 35 6 51c0 66 -34 116 -122 116c-85 0 -165 -43 -197 -197l-109 -517h-316l306 1440h315l-113 -527c68 66 149 95 244 95zM425 -82c106 0 188 -82 188 -188
c0 -105 -82 -186 -188 -186c-105 0 -187 81 -187 186c0 106 82 188 187 188z" />
    <glyph glyph-name="uni1E28" unicode="&#x1e28;" horiz-adv-x="1499" 
d="M657 1400l-115 -539h572l115 539h342l-299 -1400h-341l117 552h-572l-117 -552h-23l-156 -321h-320l175 321h-18l298 1400h342z" />
    <glyph glyph-name="uni1E29" unicode="&#x1e29;" horiz-adv-x="1138" 
d="M752 1008c199 0 319 -135 319 -325c0 -34 -4 -71 -12 -109l-123 -574h-314l116 547c4 17 6 35 6 51c0 66 -34 116 -122 116c-85 0 -165 -43 -197 -197l-109 -517h-20l-159 -321h-296l177 321h-18l306 1440h315l-113 -527c68 66 149 95 244 95z" />
    <glyph glyph-name="uni1E2A" unicode="&#x1e2a;" horiz-adv-x="1499" 
d="M657 1400l-115 -539h572l115 539h342l-299 -1400h-341l117 552h-572l-117 -552h-342l298 1400h342zM237 -134l233 66c7 -103 50 -154 133 -154c77 0 138 51 187 154l230 -66c-96 -215 -238 -330 -446 -330c-197 0 -330 121 -337 330z" />
    <glyph glyph-name="uni1E2B" unicode="&#x1e2b;" horiz-adv-x="1138" 
d="M752 1008c199 0 319 -135 319 -325c0 -34 -4 -71 -12 -109l-123 -574h-314l116 547c4 17 6 35 6 51c0 66 -34 116 -122 116c-85 0 -165 -43 -197 -197l-109 -517h-316l306 1440h315l-113 -527c68 66 149 95 244 95zM61 -134l233 66c7 -103 50 -154 133 -154
c77 0 138 51 187 154l230 -66c-96 -215 -238 -330 -446 -330c-197 0 -330 121 -337 330z" />
    <glyph glyph-name="uni1E32" unicode="&#x1e32;" horiz-adv-x="1396" 
d="M657 1400l-116 -545h98l497 545h422l-681 -709l421 -691h-382l-330 554h-109l-118 -554h-342l298 1400h342zM591 -82c106 0 188 -82 188 -188c0 -105 -82 -186 -188 -186c-105 0 -187 81 -187 186c0 106 82 188 187 188z" />
    <glyph glyph-name="uni1E33" unicode="&#x1e33;" horiz-adv-x="1088" 
d="M622 1440l-167 -784h61l283 325h385l-453 -484l271 -497h-344l-192 379h-70l-80 -379h-316l306 1440h316zM439 -82c106 0 188 -82 188 -188c0 -105 -82 -186 -188 -186c-105 0 -187 81 -187 186c0 106 82 188 187 188z" />
    <glyph glyph-name="uni1E36" unicode="&#x1e36;" horiz-adv-x="1167" 
d="M657 1400l-232 -1090h679l-66 -310h-1021l298 1400h342zM510 -82c106 0 188 -82 188 -188c0 -105 -82 -186 -188 -186c-105 0 -187 81 -187 186c0 106 82 188 187 188z" />
    <glyph glyph-name="uni1E37" unicode="&#x1e37;" horiz-adv-x="524" 
d="M622 1440l-306 -1440h-316l306 1440h316zM114 -82c106 0 188 -82 188 -188c0 -105 -82 -186 -188 -186c-105 0 -187 81 -187 186c0 106 82 188 187 188z" />
    <glyph glyph-name="uni1E38" unicode="&#x1e38;" horiz-adv-x="1167" 
d="M657 1400l-232 -1090h679l-66 -310h-1021l298 1400h342zM510 -82c106 0 188 -82 188 -188c0 -105 -82 -186 -188 -186c-105 0 -187 81 -187 186c0 106 82 188 187 188zM156 1540l54 250h704l-53 -250h-705z" />
    <glyph glyph-name="uni1E39" unicode="&#x1e39;" horiz-adv-x="524" 
d="M622 1440l-306 -1440h-316l306 1440h316zM135 1555l54 250h704l-53 -250h-705zM114 -82c106 0 188 -82 188 -188c0 -105 -82 -186 -188 -186c-105 0 -187 81 -187 186c0 106 82 188 187 188z" />
    <glyph glyph-name="uni1E3A" unicode="&#x1e3a;" horiz-adv-x="1167" 
d="M657 1400l-232 -1090h679l-66 -310h-1021l298 1400h342zM121 -384l54 250h704l-54 -250h-704z" />
    <glyph glyph-name="uni1E3B" unicode="&#x1e3b;" horiz-adv-x="524" 
d="M622 1440l-306 -1440h-316l306 1440h316zM-276 -384l54 250h704l-54 -250h-704z" />
    <glyph glyph-name="uni1E40" unicode="&#x1e40;" horiz-adv-x="1804" 
d="M1876 1400l-298 -1400h-339l201 943l-430 -811h-355l-99 807l-199 -939h-340l298 1400h466l114 -898l487 898h494zM1086 1871c112 0 198 -86 198 -197c0 -110 -86 -195 -198 -195c-110 0 -196 85 -196 195c0 111 86 197 196 197z" />
    <glyph glyph-name="uni1E41" unicode="&#x1e41;" horiz-adv-x="1757" 
d="M1351 1008c211 0 338 -135 338 -325c0 -34 -3 -71 -11 -109l-124 -574h-314l116 547c4 17 6 35 6 51c0 66 -33 116 -122 116c-90 0 -165 -47 -197 -197l-110 -517h-314l116 547c17 80 2 167 -114 167c-90 0 -165 -47 -197 -197l-110 -517h-314l209 981h296l-22 -96
c72 86 162 123 269 123c133 0 226 -60 275 -152c83 107 193 152 324 152zM1039 1448c106 0 188 -82 188 -188c0 -105 -82 -186 -188 -186c-105 0 -187 81 -187 186c0 106 82 188 187 188z" />
    <glyph glyph-name="uni1E42" unicode="&#x1e42;" horiz-adv-x="1804" 
d="M1876 1400l-298 -1400h-339l201 943l-430 -811h-355l-99 807l-199 -939h-340l298 1400h466l114 -898l487 898h494zM772 -82c106 0 188 -82 188 -188c0 -105 -82 -186 -188 -186c-105 0 -187 81 -187 186c0 106 82 188 187 188z" />
    <glyph glyph-name="uni1E43" unicode="&#x1e43;" horiz-adv-x="1757" 
d="M1351 1008c211 0 338 -135 338 -325c0 -34 -3 -71 -11 -109l-124 -574h-314l116 547c4 17 6 35 6 51c0 66 -33 116 -122 116c-90 0 -165 -47 -197 -197l-110 -517h-314l116 547c17 80 2 167 -114 167c-90 0 -165 -47 -197 -197l-110 -517h-314l209 981h296l-22 -96
c72 86 162 123 269 123c133 0 226 -60 275 -152c83 107 193 152 324 152zM729 -82c106 0 188 -82 188 -188c0 -105 -82 -186 -188 -186c-105 0 -187 81 -187 186c0 106 82 188 187 188z" />
    <glyph glyph-name="uni1E44" unicode="&#x1e44;" horiz-adv-x="1526" 
d="M1598 1400l-298 -1400h-315l-441 879l-186 -879h-341l298 1400h317l440 -880l186 880h340zM972 1871c112 0 198 -86 198 -197c0 -110 -86 -195 -198 -195c-110 0 -196 85 -196 195c0 111 86 197 196 197z" />
    <glyph glyph-name="uni1E45" unicode="&#x1e45;" horiz-adv-x="1138" 
d="M752 1008c199 0 319 -135 319 -325c0 -34 -4 -71 -12 -109l-123 -574h-314l116 547c4 17 6 35 6 51c0 66 -34 116 -122 116c-90 0 -166 -47 -198 -197l-110 -517h-314l209 981h296l-22 -95c72 86 162 122 269 122zM715 1471c106 0 188 -82 188 -188
c0 -105 -82 -186 -188 -186c-105 0 -187 81 -187 186c0 106 82 188 187 188z" />
    <glyph glyph-name="uni1E46" unicode="&#x1e46;" horiz-adv-x="1526" 
d="M1598 1400l-298 -1400h-315l-441 879l-186 -879h-341l298 1400h317l440 -880l186 880h340zM647 -82c106 0 188 -82 188 -188c0 -105 -82 -186 -188 -186c-105 0 -187 81 -187 186c0 106 82 188 187 188z" />
    <glyph glyph-name="uni1E47" unicode="&#x1e47;" horiz-adv-x="1138" 
d="M752 1008c199 0 319 -135 319 -325c0 -34 -4 -71 -12 -109l-123 -574h-314l116 547c4 17 6 35 6 51c0 66 -34 116 -122 116c-90 0 -166 -47 -198 -197l-110 -517h-314l209 981h296l-22 -95c72 86 162 122 269 122zM423 -82c106 0 188 -82 188 -188
c0 -105 -82 -186 -188 -186c-105 0 -187 81 -187 186c0 106 82 188 187 188z" />
    <glyph glyph-name="uni1E48" unicode="&#x1e48;" horiz-adv-x="1526" 
d="M1598 1400l-298 -1400h-315l-441 879l-186 -879h-341l298 1400h317l440 -880l186 880h340zM258 -384l54 250h704l-54 -250h-704z" />
    <glyph glyph-name="uni1E49" unicode="&#x1e49;" horiz-adv-x="1138" 
d="M752 1008c199 0 319 -135 319 -325c0 -34 -4 -71 -12 -109l-123 -574h-314l116 547c4 17 6 35 6 51c0 66 -34 116 -122 116c-90 0 -166 -47 -198 -197l-110 -517h-314l209 981h296l-22 -95c72 86 162 122 269 122zM33 -384l54 250h704l-54 -250h-704z" />
    <glyph glyph-name="uni1E58" unicode="&#x1e58;" horiz-adv-x="1317" 
d="M315 1400h558c303 0 471 -183 471 -398c0 -206 -115 -431 -475 -472l355 -530h-385l-326 524h-43l-111 -524h-342zM826 1097h-234l-62 -292h252c166 0 220 80 220 165c0 78 -65 127 -176 127zM838 1871c112 0 198 -86 198 -197c0 -110 -86 -195 -198 -195
c-110 0 -196 85 -196 195c0 111 86 197 196 197z" />
    <glyph glyph-name="uni1E59" unicode="&#x1e59;" horiz-adv-x="800" 
d="M421 511l-107 -511h-314l209 981h296l-24 -105c70 95 158 132 262 132c43 0 87 -10 131 -25l-88 -303c-42 17 -97 27 -146 27c-102 0 -191 -62 -219 -196zM587 1471c106 0 188 -82 188 -188c0 -105 -82 -186 -188 -186c-105 0 -187 81 -187 186c0 106 82 188 187 188z
" />
    <glyph glyph-name="uni1E5A" unicode="&#x1e5a;" horiz-adv-x="1317" 
d="M315 1400h558c303 0 471 -183 471 -398c0 -206 -115 -431 -475 -472l355 -530h-385l-326 524h-43l-111 -524h-342zM826 1097h-234l-62 -292h252c166 0 220 80 220 165c0 78 -65 127 -176 127zM564 -82c106 0 188 -82 188 -188c0 -105 -82 -186 -188 -186
c-105 0 -187 81 -187 186c0 106 82 188 187 188z" />
    <glyph glyph-name="uni1E5B" unicode="&#x1e5b;" horiz-adv-x="800" 
d="M421 511l-107 -511h-314l209 981h296l-24 -105c70 95 158 132 262 132c43 0 87 -10 131 -25l-88 -303c-42 17 -97 27 -146 27c-102 0 -191 -62 -219 -196zM113 -82c106 0 188 -82 188 -188c0 -105 -82 -186 -188 -186c-105 0 -187 81 -187 186c0 106 82 188 187 188z" />
    <glyph glyph-name="uni1E5C" unicode="&#x1e5c;" horiz-adv-x="1317" 
d="M315 1400h558c303 0 471 -183 471 -398c0 -206 -115 -431 -475 -472l355 -530h-385l-326 524h-43l-111 -524h-342zM826 1097h-234l-62 -292h252c166 0 220 80 220 165c0 78 -65 127 -176 127zM564 -82c106 0 188 -82 188 -188c0 -105 -82 -186 -188 -186
c-105 0 -187 81 -187 186c0 106 82 188 187 188zM485 1540l54 250h704l-53 -250h-705z" />
    <glyph glyph-name="uni1E5D" unicode="&#x1e5d;" horiz-adv-x="800" 
d="M421 511l-107 -511h-314l209 981h296l-24 -105c70 95 158 132 262 132c43 0 87 -10 131 -25l-88 -303c-42 17 -97 27 -146 27c-102 0 -191 -62 -219 -196zM205 1136l54 250h704l-53 -250h-705zM113 -82c106 0 188 -82 188 -188c0 -105 -82 -186 -188 -186
c-105 0 -187 81 -187 186c0 106 82 188 187 188z" />
    <glyph glyph-name="uni1E5E" unicode="&#x1e5e;" horiz-adv-x="1317" 
d="M315 1400h558c303 0 471 -183 471 -398c0 -206 -115 -431 -475 -472l355 -530h-385l-326 524h-43l-111 -524h-342zM826 1097h-234l-62 -292h252c166 0 220 80 220 165c0 78 -65 127 -176 127zM175 -384l54 250h704l-54 -250h-704z" />
    <glyph glyph-name="uni1E5F" unicode="&#x1e5f;" horiz-adv-x="800" 
d="M421 511l-107 -511h-314l209 981h296l-24 -105c70 95 158 132 262 132c43 0 87 -10 131 -25l-88 -303c-42 17 -97 27 -146 27c-102 0 -191 -62 -219 -196zM-277 -384l54 250h704l-54 -250h-704z" />
    <glyph glyph-name="uni1E62" unicode="&#x1e62;" horiz-adv-x="1334" 
d="M1365 1258l-171 -266c-134 98 -316 128 -418 128c-149 0 -214 -60 -214 -130c0 -87 108 -116 219 -138l63 -12c253 -48 406 -170 406 -377c0 -300 -252 -489 -613 -489c-209 0 -468 61 -626 196l189 265c145 -114 319 -158 463 -158c128 0 223 44 223 135
c0 78 -80 106 -232 135l-68 13c-239 46 -388 173 -388 381c0 273 209 485 578 485c161 0 377 -24 589 -168zM595 -82c106 0 188 -82 188 -188c0 -105 -82 -186 -188 -186c-105 0 -187 81 -187 186c0 106 82 188 187 188z" />
    <glyph glyph-name="uni1E63" unicode="&#x1e63;" horiz-adv-x="975" 
d="M977 897l-127 -231c-109 65 -247 88 -307 88c-81 0 -118 -20 -122 -54c-6 -50 37 -58 134 -78l61 -13c215 -44 293 -157 275 -309c-26 -215 -188 -325 -462 -325c-169 0 -350 50 -454 130l134 229c95 -62 221 -106 332 -106c94 0 130 21 134 61c5 42 -33 58 -127 76
l-62 11c-228 40 -306 159 -286 321c26 206 189 310 440 310c160 0 300 -37 437 -110zM386 -82c106 0 188 -82 188 -188c0 -105 -82 -186 -188 -186c-105 0 -187 81 -187 186c0 106 82 188 187 188z" />
    <glyph glyph-name="uni1E6C" unicode="&#x1e6c;" horiz-adv-x="1199" 
d="M1368 1400l-66 -310h-402l-232 -1090h-342l232 1090h-406l66 310h1150zM452 -82c106 0 188 -82 188 -188c0 -105 -82 -186 -188 -186c-105 0 -187 81 -187 186c0 106 82 188 187 188z" />
    <glyph glyph-name="uni1E6D" unicode="&#x1e6d;" horiz-adv-x="952" 
d="M952 981l-59 -277h-322l-63 -295c-21 -101 20 -143 98 -143c55 0 112 24 164 54l98 -250c-103 -66 -216 -96 -334 -96c-295 0 -397 176 -343 427l64 303h-178l59 277h178l61 286h316l-61 -286h322zM438 -82c106 0 188 -82 188 -188c0 -105 -82 -186 -188 -186
c-105 0 -187 81 -187 186c0 106 82 188 187 188z" />
    <glyph glyph-name="uni1E6E" unicode="&#x1e6e;" horiz-adv-x="1199" 
d="M1368 1400l-66 -310h-402l-232 -1090h-342l232 1090h-406l66 310h1150zM63 -384l54 250h704l-54 -250h-704z" />
    <glyph glyph-name="uni1E6F" unicode="&#x1e6f;" horiz-adv-x="952" 
d="M952 981l-59 -277h-322l-63 -295c-21 -101 20 -143 98 -143c55 0 112 24 164 54l98 -250c-103 -66 -216 -96 -334 -96c-295 0 -397 176 -343 427l64 303h-178l59 277h178l61 286h316l-61 -286h322zM48 -384l54 250h704l-54 -250h-704z" />
    <glyph glyph-name="Wgrave" unicode="&#x1e80;" horiz-adv-x="2158" 
d="M2328 1400l-691 -1400h-389l-66 908l-433 -908h-406l-125 1400h336l71 -1004l471 1004h343l65 -998l467 998h357zM1186 1509l-278 332h359l212 -332h-293z" />
    <glyph glyph-name="wgrave" unicode="&#x1e81;" horiz-adv-x="1773" 
d="M1134 981l73 -622l313 622h339l-536 -981h-334l-71 593l-297 -593h-355l-144 981h315l74 -624l319 624h304zM904 1105l-278 332h359l212 -332h-293z" />
    <glyph glyph-name="Wacute" unicode="&#x1e82;" horiz-adv-x="2158" 
d="M2328 1400l-691 -1400h-389l-66 908l-433 -908h-406l-125 1400h336l71 -1004l471 1004h343l65 -998l467 998h357zM1368 1508h-299l245 332h366z" />
    <glyph glyph-name="wacute" unicode="&#x1e83;" horiz-adv-x="1773" 
d="M1134 981l73 -622l313 622h339l-536 -981h-334l-71 593l-297 -593h-355l-144 981h315l74 -624l319 624h304zM1103 1105h-299l245 332h366z" />
    <glyph glyph-name="Wdieresis" unicode="&#x1e84;" horiz-adv-x="2158" 
d="M2328 1400l-691 -1400h-389l-66 908l-433 -908h-406l-125 1400h336l71 -1004l471 1004h343l65 -998l467 998h357zM1063 1853c106 0 188 -82 188 -187c0 -106 -82 -187 -188 -187c-105 0 -186 81 -186 187c0 105 81 187 186 187zM1527 1853c105 0 187 -82 187 -187
c0 -106 -82 -187 -187 -187c-106 0 -187 81 -187 187c0 105 81 187 187 187z" />
    <glyph glyph-name="wdieresis" unicode="&#x1e85;" horiz-adv-x="1773" 
d="M1134 981l73 -622l313 622h339l-536 -981h-334l-71 593l-297 -593h-355l-144 981h315l74 -624l319 624h304zM797 1449c106 0 188 -82 188 -187c0 -106 -82 -187 -188 -187c-105 0 -186 81 -186 187c0 105 81 187 186 187zM1261 1449c105 0 187 -82 187 -187
c0 -106 -82 -187 -187 -187c-106 0 -187 81 -187 187c0 105 81 187 187 187z" />
    <glyph glyph-name="uni1E88" unicode="&#x1e88;" horiz-adv-x="2158" 
d="M2328 1400l-691 -1400h-389l-66 908l-433 -908h-406l-125 1400h336l71 -1004l471 1004h343l65 -998l467 998h357zM982 -82c106 0 188 -82 188 -188c0 -105 -82 -186 -188 -186c-105 0 -187 81 -187 186c0 106 82 188 187 188z" />
    <glyph glyph-name="uni1E89" unicode="&#x1e89;" horiz-adv-x="1773" 
d="M1134 981l73 -622l313 622h339l-536 -981h-334l-71 593l-297 -593h-355l-144 981h315l74 -624l319 624h304zM770 -82c106 0 188 -82 188 -188c0 -105 -82 -186 -188 -186c-105 0 -187 81 -187 186c0 106 82 188 187 188z" />
    <glyph glyph-name="uni1E92" unicode="&#x1e92;" horiz-adv-x="1267" 
d="M1370 1400l-58 -270l-816 -829h670l-64 -301h-1116l58 273l815 826h-657l64 301h1104zM529 -82c106 0 188 -82 188 -188c0 -105 -82 -186 -188 -186c-105 0 -187 81 -187 186c0 106 82 188 187 188z" />
    <glyph glyph-name="uni1E93" unicode="&#x1e93;" horiz-adv-x="1002" 
d="M1018 981l-52 -240l-503 -464h431l-58 -277h-860l49 235l508 469h-415l59 277h841zM375 -82c106 0 188 -82 188 -188c0 -105 -82 -186 -188 -186c-105 0 -187 81 -187 186c0 106 82 188 187 188z" />
    <glyph glyph-name="uni1E94" unicode="&#x1e94;" horiz-adv-x="1267" 
d="M1370 1400l-58 -270l-816 -829h670l-64 -301h-1116l58 273l815 826h-657l64 301h1104zM140 -384l54 250h704l-54 -250h-704z" />
    <glyph glyph-name="uni1E95" unicode="&#x1e95;" horiz-adv-x="1002" 
d="M1018 981l-52 -240l-503 -464h431l-58 -277h-860l49 235l508 469h-415l59 277h841zM-15 -384l54 250h704l-54 -250h-704z" />
    <glyph glyph-name="uni1E96" unicode="&#x1e96;" horiz-adv-x="1138" 
d="M752 1008c199 0 319 -135 319 -325c0 -34 -4 -71 -12 -109l-123 -574h-314l116 547c4 17 6 35 6 51c0 66 -34 116 -122 116c-85 0 -165 -43 -197 -197l-109 -517h-316l306 1440h315l-113 -527c68 66 149 95 244 95zM35 -384l54 250h704l-54 -250h-704z" />
    <glyph glyph-name="uni1E9E" unicode="&#x1e9e;" horiz-adv-x="1428" 
d="M5 0l193 907c60 283 237 519 641 519c264 0 484 -141 581 -301l-358 -355c199 -69 303 -210 280 -395c-32 -251 -250 -401 -553 -401c-107 0 -224 13 -312 40l97 291c58 -20 131 -29 201 -29c143 0 211 40 221 118c12 90 -76 150 -273 150h-62l49 233l285 294
c-55 42 -128 52 -183 52c-141 0 -248 -99 -281 -253l-185 -870h-341z" />
    <glyph glyph-name="Ygrave" unicode="&#x1ef2;" horiz-adv-x="1381" 
d="M1570 1400l-695 -862l-115 -538h-341l120 566l-341 834h356l199 -547l420 547h397zM781 1509l-278 332h359l212 -332h-293z" />
    <glyph glyph-name="ygrave" unicode="&#x1ef3;" horiz-adv-x="1161" 
d="M1259 981l-928 -1383h-358l455 655l-316 728h345l170 -429l274 429h358zM601 1105l-278 332h359l212 -332h-293z" />
    <glyph glyph-name="uni1EF4" unicode="&#x1ef4;" horiz-adv-x="1381" 
d="M1570 1400l-695 -862l-115 -538h-341l120 566l-341 834h356l199 -547l420 547h397zM544 -82c106 0 188 -82 188 -188c0 -105 -82 -186 -188 -186c-105 0 -187 81 -187 186c0 106 82 188 187 188z" />
    <glyph glyph-name="uni1EF5" unicode="&#x1ef5;" horiz-adv-x="1161" 
d="M1259 981l-928 -1383h-358l455 655l-316 728h345l170 -429l274 429h358zM786 -82c106 0 188 -82 188 -188c0 -105 -82 -186 -188 -186c-105 0 -187 81 -187 186c0 106 82 188 187 188z" />
    <glyph glyph-name="uni2007" unicode="&#x2007;" horiz-adv-x="1393" 
 />
    <glyph glyph-name="uni2008" unicode="&#x2008;" horiz-adv-x="566" 
 />
    <glyph glyph-name="uni2009" unicode="&#x2009;" horiz-adv-x="150" 
 />
    <glyph glyph-name="uni200B" unicode="&#x200b;" horiz-adv-x="0" 
 />
    <glyph glyph-name="uniFEFF" unicode="&#xfeff;" horiz-adv-x="0" 
 />
    <glyph glyph-name="uni2010" unicode="&#x2010;" horiz-adv-x="764" 
d="M715 665l-56 -267h-594l57 267h593z" />
    <glyph glyph-name="uni2011" unicode="&#x2011;" horiz-adv-x="764" 
d="M715 665l-56 -267h-594l57 267h593z" />
    <glyph glyph-name="figuredash" unicode="&#x2012;" horiz-adv-x="1200" 
d="M1113 660l-54 -257h-973l54 257h973z" />
    <glyph glyph-name="endash" unicode="&#x2013;" horiz-adv-x="1119" 
d="M1082 660l-54 -257h-973l54 257h973z" />
    <glyph glyph-name="emdash" unicode="&#x2014;" horiz-adv-x="1554" 
d="M1552 660l-53 -257h-1480l53 257h1480z" />
    <glyph glyph-name="quoteleft" unicode="&#x2018;" horiz-adv-x="555" 
d="M478 790h-342l283 650h276z" />
    <glyph glyph-name="quoteright" unicode="&#x2019;" horiz-adv-x="555" 
d="M342 1440h342l-283 -650h-276z" />
    <glyph glyph-name="quotesinglbase" unicode="&#x201a;" horiz-adv-x="555" 
d="M113 363h342l-283 -650h-276z" />
    <glyph glyph-name="quotedblleft" unicode="&#x201c;" horiz-adv-x="1033" 
d="M478 790h-342l283 650h276zM956 790h-342l283 650h276z" />
    <glyph glyph-name="quotedblright" unicode="&#x201d;" horiz-adv-x="1033" 
d="M820 1440h342l-283 -650h-276zM342 1440h342l-283 -650h-276z" />
    <glyph glyph-name="quotedblbase" unicode="&#x201e;" horiz-adv-x="1033" 
d="M591 363h342l-283 -650h-276zM113 363h342l-283 -650h-276z" />
    <glyph glyph-name="dagger" unicode="&#x2020;" horiz-adv-x="794" 
d="M533 576h-235l87 414h-218l48 229h219l47 221h236l-47 -221h218l-49 -229h-218z" />
    <glyph glyph-name="daggerdbl" unicode="&#x2021;" horiz-adv-x="795" 
d="M717 1440l-34 -158h219l-46 -215h-218l-28 -132h218l-46 -215h-218l-33 -158h-236l33 158h-219l46 215h219l28 132h-219l46 215h218l34 158h236z" />
    <glyph glyph-name="bullet" unicode="&#x2022;" horiz-adv-x="904" 
d="M465 877c191 0 347 -154 347 -346s-156 -347 -347 -347c-192 0 -347 155 -347 347s155 346 347 346z" />
    <glyph glyph-name="uni2023" unicode="&#x2023;" horiz-adv-x="954" 
d="M910 532l-860 -444l188 887z" />
    <glyph glyph-name="ellipsis" unicode="&#x2026;" horiz-adv-x="1680" 
d="M223 402c114 0 212 -98 212 -212c0 -116 -98 -216 -212 -216c-116 0 -215 100 -215 216c0 114 99 212 215 212zM780 402c114 0 212 -98 212 -212c0 -116 -98 -216 -212 -216c-116 0 -215 100 -215 216c0 114 99 212 215 212zM1337 402c114 0 213 -98 213 -212
c0 -116 -99 -216 -213 -216c-116 0 -215 100 -215 216c0 114 99 212 215 212z" />
    <glyph glyph-name="perthousand" unicode="&#x2030;" horiz-adv-x="2861" 
d="M580 1426c212 0 366 -147 366 -354c0 -224 -177 -415 -412 -415c-212 0 -366 147 -366 354c0 224 177 415 412 415zM568 1193c-87 0 -152 -76 -152 -165c0 -81 55 -138 130 -138c87 0 152 76 152 165c0 81 -55 138 -130 138zM1801 1400l-1168 -1400h-319l1168 1400h319z
M1582 742c212 0 365 -146 365 -353c0 -225 -176 -415 -412 -415c-212 0 -365 146 -365 353c0 225 176 415 412 415zM1570 510c-87 0 -152 -76 -152 -165c0 -81 55 -138 130 -138c86 0 152 75 152 165c0 80 -56 138 -130 138zM2418 742c211 0 365 -146 365 -353
c0 -225 -177 -415 -412 -415c-212 0 -366 146 -366 353c0 225 177 415 413 415zM2405 510c-87 0 -152 -76 -152 -165c0 -81 55 -138 130 -138c87 0 152 75 152 165c0 80 -55 138 -130 138z" />
    <glyph glyph-name="minute" unicode="&#x2032;" horiz-adv-x="594" 
d="M405 1400h309l-300 -705h-309z" />
    <glyph glyph-name="second" unicode="&#x2033;" horiz-adv-x="1024" 
d="M835 1400h309l-300 -705h-309zM405 1400h309l-300 -705h-309z" />
    <glyph glyph-name="uni2034" unicode="&#x2034;" horiz-adv-x="1410" 
d="M813 1400h309l-300 -705h-309zM1221 1400h309l-300 -705h-309zM405 1400h309l-300 -705h-309z" />
    <glyph glyph-name="guilsinglleft" unicode="&#x2039;" horiz-adv-x="639" 
d="M668 933l-304 -434l102 -369h-285l-111 402l282 401h316z" />
    <glyph glyph-name="guilsinglright" unicode="&#x203a;" horiz-adv-x="640" 
d="M-11 130l304 434l-102 369h285l111 -402l-282 -401h-316z" />
    <glyph glyph-name="fraction" unicode="&#x2044;" horiz-adv-x="490" 
d="M922 1400l-1055 -1400h-286l1055 1400h286z" />
    <glyph glyph-name="uni2070" unicode="&#x2070;" horiz-adv-x="880" 
d="M608 1415c186 0 330 -117 330 -337c0 -236 -154 -526 -442 -526c-186 0 -330 118 -330 338c0 235 155 525 442 525zM594 1204c-127 0 -193 -165 -193 -292c0 -95 40 -148 109 -148c127 0 194 166 194 292c0 94 -40 148 -110 148z" />
    <glyph glyph-name="uni2071" unicode="&#x2071;" horiz-adv-x="434" 
d="M494 1273l-150 -705h-215l149 705h216zM429 1625c74 0 132 -57 132 -130c0 -75 -58 -131 -132 -131c-73 0 -131 56 -131 131c0 73 58 130 131 130z" />
    <glyph glyph-name="uni2074" unicode="&#x2074;" horiz-adv-x="725" 
d="M740 1122l-46 -217h97l-43 -204h-97l-28 -133h-221l28 133h-358l38 175l341 523h250l-321 -494h94l15 70l94 147h157z" />
    <glyph glyph-name="uni2075" unicode="&#x2075;" horiz-adv-x="712" 
d="M786 1400l-42 -202h-305l-26 -104h42c195 0 312 -123 276 -287c-38 -171 -172 -255 -361 -255c-120 0 -227 43 -288 115l123 150c44 -41 107 -66 175 -66c79 0 117 28 126 71c11 51 -23 86 -119 86h-208l115 492h492z" />
    <glyph glyph-name="uni2076" unicode="&#x2076;" horiz-adv-x="752" 
d="M786 1400l-251 -276c154 -14 259 -101 259 -253c0 -174 -143 -318 -352 -318c-178 0 -324 106 -324 271c0 76 32 171 120 271l266 305h282zM462 944c-66 0 -109 -49 -109 -107c0 -52 37 -89 96 -89c66 0 111 48 111 107c0 50 -40 89 -98 89z" />
    <glyph glyph-name="uni2077" unicode="&#x2077;" horiz-adv-x="684" 
d="M844 1400l-38 -186l-410 -646h-264l405 628h-353l43 204h617z" />
    <glyph glyph-name="uni2078" unicode="&#x2078;" horiz-adv-x="778" 
d="M570 1415c165 0 292 -82 292 -213c0 -95 -64 -177 -174 -220c66 -33 110 -85 110 -157c0 -145 -132 -272 -374 -272c-176 0 -306 83 -306 215c0 97 68 180 186 223c-53 31 -85 80 -85 146c0 152 133 278 351 278zM472 906c-56 0 -109 -34 -109 -94c0 -46 43 -71 89 -71
c56 0 109 33 109 92c0 48 -42 73 -89 73zM547 1228c-56 0 -98 -37 -98 -84c0 -41 32 -67 78 -67c55 0 99 37 99 84c0 41 -35 67 -79 67z" />
    <glyph glyph-name="uni2079" unicode="&#x2079;" horiz-adv-x="751" 
d="M175 568l251 276c-154 14 -258 101 -258 253c0 174 142 318 352 318c177 0 323 -106 323 -272c0 -75 -31 -170 -119 -270l-266 -305h-283zM501 1024c65 0 109 49 109 106c0 53 -38 90 -97 90c-67 0 -111 -48 -111 -107c0 -51 40 -89 99 -89z" />
    <glyph glyph-name="uni207F" unicode="&#x207f;" horiz-adv-x="816" 
d="M627 1293c146 0 234 -98 234 -236c0 -25 -2 -52 -8 -80l-89 -409h-215l84 394c3 14 5 27 5 40c0 50 -27 88 -94 88c-68 0 -129 -36 -153 -149l-78 -373h-215l150 705h204l-14 -60c53 57 117 80 189 80z" />
    <glyph glyph-name="uni2080" unicode="&#x2080;" horiz-adv-x="880" 
d="M403 462c186 0 330 -117 330 -337c0 -236 -154 -526 -442 -526c-186 0 -330 118 -330 338c0 235 155 525 442 525zM389 251c-127 0 -193 -165 -193 -292c0 -95 40 -148 109 -148c127 0 194 166 194 292c0 94 -40 148 -110 148z" />
    <glyph glyph-name="uni2081" unicode="&#x2081;" horiz-adv-x="516" 
d="M419 460l-179 -845h-221l117 551l-183 -54l47 224z" />
    <glyph glyph-name="uni2082" unicode="&#x2082;" horiz-adv-x="736" 
d="M121 172l-113 157c64 66 152 133 308 133c196 0 286 -126 286 -252c0 -110 -42 -184 -201 -304l-115 -87h268l-43 -204h-588l39 179l306 240c80 62 105 102 105 142c0 45 -38 75 -95 75c-72 0 -107 -33 -157 -79z" />
    <glyph glyph-name="uni2083" unicode="&#x2083;" horiz-adv-x="720" 
d="M97 201l-92 156c76 67 169 105 303 105c180 0 290 -107 290 -222c0 -90 -65 -180 -162 -218c66 -34 100 -92 100 -155c0 -145 -122 -267 -347 -267c-139 0 -240 45 -295 125l143 134c36 -43 90 -66 155 -66c84 0 118 35 118 80c0 44 -48 71 -111 71h-91l38 182h93
c86 0 128 36 128 81c0 38 -38 62 -98 62c-65 0 -126 -31 -172 -68z" />
    <glyph glyph-name="uni2084" unicode="&#x2084;" horiz-adv-x="725" 
d="M537 169l-46 -217h97l-43 -204h-97l-28 -133h-221l28 133h-358l38 175l341 523h250l-321 -494h94l15 70l94 147h157z" />
    <glyph glyph-name="uni2085" unicode="&#x2085;" horiz-adv-x="713" 
d="M582 447l-42 -202h-305l-26 -104h42c195 0 312 -123 276 -287c-38 -171 -172 -255 -361 -255c-120 0 -227 43 -288 115l123 150c44 -41 107 -66 175 -66c79 0 117 28 126 71c11 51 -23 86 -119 86h-208l115 492h492z" />
    <glyph glyph-name="uni2086" unicode="&#x2086;" horiz-adv-x="752" 
d="M582 447l-251 -276c154 -14 259 -101 259 -253c0 -174 -143 -318 -352 -318c-178 0 -324 106 -324 271c0 76 32 171 120 271l266 305h282zM258 -9c-66 0 -109 -49 -109 -107c0 -52 37 -89 96 -89c66 0 111 48 111 107c0 50 -40 89 -98 89z" />
    <glyph glyph-name="uni2087" unicode="&#x2087;" horiz-adv-x="686" 
d="M641 447l-38 -186l-410 -646h-264l405 628h-353l43 204h617z" />
    <glyph glyph-name="uni2088" unicode="&#x2088;" horiz-adv-x="779" 
d="M366 462c165 0 292 -82 292 -213c0 -95 -64 -177 -174 -220c66 -33 110 -85 110 -157c0 -145 -132 -272 -374 -272c-176 0 -306 83 -306 215c0 97 68 180 186 223c-53 31 -85 80 -85 146c0 152 133 278 351 278zM268 -47c-56 0 -109 -34 -109 -94c0 -46 43 -71 89 -71
c56 0 109 33 109 92c0 48 -42 73 -89 73zM343 275c-56 0 -98 -37 -98 -84c0 -41 32 -67 78 -67c55 0 99 37 99 84c0 41 -35 67 -79 67z" />
    <glyph glyph-name="uni2089" unicode="&#x2089;" horiz-adv-x="752" 
d="M-26 -385l251 276c-154 14 -258 101 -258 253c0 174 142 318 352 318c177 0 323 -106 323 -272c0 -75 -31 -170 -119 -270l-266 -305h-283zM300 71c65 0 109 49 109 106c0 53 -38 90 -97 90c-67 0 -111 -48 -111 -107c0 -51 40 -89 99 -89z" />
    <glyph glyph-name="Euro" unicode="&#x20ac;" horiz-adv-x="1400" 
d="M1143 375l136 -241c-109 -97 -245 -156 -399 -156c-314 0 -544 176 -605 470h-186l41 198h129c1 34 5 79 11 112h-125l42 198h134c114 295 368 466 680 466c124 0 302 -26 456 -180l-192 -233c-95 104 -204 124 -280 124c-128 0 -241 -65 -314 -177h474l-43 -198h-508
c-8 -34 -10 -77 -11 -112h496l-41 -198h-417c51 -114 150 -181 275 -181c99 0 183 45 247 108z" />
    <glyph glyph-name="uni20BA" unicode="&#x20ba;" horiz-adv-x="1400" 
d="M1022 506l246 -173c-127 -234 -306 -333 -611 -333h-468l73 345l-163 -68l46 218l164 69l24 116l-164 -69l46 219l165 69l107 505h329l-76 -354l358 150l-46 -218l-358 -151l-25 -116l358 151l-45 -219l-359 -151l-41 -191h99c134 0 260 34 341 201z" />
    <glyph glyph-name="uni2100" unicode="&#x2100;" horiz-adv-x="2000" 
d="M631 1426c184 0 307 -93 307 -258c0 -26 -3 -53 -9 -82l-82 -385h-205l10 51c-46 -39 -108 -69 -188 -69c-138 0 -227 81 -227 194c0 149 117 249 314 249h169c1 5 1 10 1 15c0 60 -39 96 -129 96c-76 0 -136 -27 -190 -54l-54 173c88 47 172 70 283 70zM539 850
c51 0 103 26 141 60l16 76h-123c-69 0 -110 -31 -110 -77c0 -34 26 -59 76 -59zM1746 1400l-1055 -1400h-286l1055 1400h286zM1877 529l-188 -93c-35 60 -86 77 -134 77c-100 0 -172 -87 -172 -190c0 -87 57 -149 136 -149c52 0 98 22 137 67l151 -129
c-73 -87 -177 -138 -296 -138c-207 0 -349 141 -349 334c0 221 164 405 404 405c148 0 255 -67 311 -184z" />
    <glyph glyph-name="uni2101" unicode="&#x2101;" horiz-adv-x="2000" 
d="M636 1426c184 0 307 -93 307 -258c0 -26 -3 -53 -9 -82l-82 -385h-205l10 51c-46 -39 -108 -69 -188 -69c-138 0 -227 81 -227 194c0 149 117 249 314 249h169c1 5 1 10 1 15c0 60 -39 96 -129 96c-76 0 -136 -27 -190 -54l-54 173c88 47 172 70 283 70zM544 850
c51 0 103 26 141 60l16 76h-123c-69 0 -110 -31 -110 -77c0 -34 26 -59 76 -59zM1738 1400l-1055 -1400h-286l1055 1400h286zM1845 635l-91 -159c-75 45 -173 62 -220 62c-62 0 -91 -16 -95 -44c-5 -39 29 -45 97 -59l45 -9c156 -31 214 -112 201 -221
c-18 -151 -135 -233 -330 -233c-119 0 -248 35 -325 94l95 158c67 -44 155 -76 237 -76c72 0 101 17 105 50c3 31 -25 45 -93 57l-46 8c-163 28 -221 113 -207 228c19 147 135 224 315 224c115 0 216 -27 312 -80z" />
    <glyph glyph-name="afii61248" unicode="&#x2105;" horiz-adv-x="2000" 
d="M928 1240l-188 -93c-35 60 -86 77 -134 77c-100 0 -172 -87 -172 -190c0 -87 57 -149 136 -149c52 0 98 22 137 67l151 -129c-73 -87 -177 -138 -296 -138c-207 0 -349 141 -349 334c0 221 164 405 404 405c148 0 255 -67 311 -184zM1685 1400l-1055 -1400h-286
l1055 1400h286zM1521 715c200 0 356 -134 356 -340c0 -219 -172 -403 -407 -403c-200 0 -356 132 -356 339c0 220 172 404 407 404zM1507 513c-97 0 -172 -83 -172 -189c0 -89 60 -152 147 -152c98 0 175 84 175 190c0 90 -62 151 -150 151z" />
    <glyph glyph-name="uni2106" unicode="&#x2106;" horiz-adv-x="2000" 
d="M932 1240l-188 -93c-35 60 -86 77 -134 77c-100 0 -172 -87 -172 -190c0 -87 57 -149 136 -149c52 0 98 22 137 67l151 -129c-73 -87 -177 -138 -296 -138c-207 0 -349 141 -349 334c0 221 164 405 404 405c148 0 255 -67 311 -184zM1680 1400l-1055 -1400h-286
l1055 1400h286zM1920 705l-87 -413c-49 -234 -203 -311 -376 -311s-298 90 -298 261c0 28 3 58 10 90l79 373h216l-84 -394c-3 -14 -4 -27 -4 -39c0 -62 39 -89 98 -89c76 0 131 51 151 147l80 375h215z" />
    <glyph glyph-name="afii61289" unicode="&#x2113;" horiz-adv-x="1032" 
d="M174 366l-77 261c54 17 106 36 154 56l1 387c0 239 148 396 374 396c200 0 348 -141 348 -345c0 -276 -177 -462 -442 -603v-145c0 -72 49 -111 115 -111c68 0 124 27 178 63l123 -229c-86 -62 -190 -103 -320 -103c-237 0 -377 129 -377 365v35zM532 1049v-213
c104 79 167 167 167 264c0 63 -28 104 -75 104c-55 0 -92 -49 -92 -155z" />
    <glyph glyph-name="afii61352" unicode="&#x2116;" horiz-adv-x="2382" 
d="M2344 577l-53 -244h-726l53 244h726zM2091 1418c212 0 362 -141 362 -341c0 -217 -174 -399 -408 -399c-213 0 -361 142 -361 340c0 217 169 400 407 400zM2079 1206c-98 0 -163 -79 -163 -173c0 -83 59 -142 141 -142c97 0 163 79 163 173c0 83 -59 142 -141 142z
M1598 1400l-298 -1400h-315l-441 879l-186 -879h-341l298 1400h317l440 -880l186 880h340z" />
    <glyph glyph-name="uni2117" unicode="&#x2117;" horiz-adv-x="1819" 
d="M903 -91c-429 0 -779 320 -779 749c0 457 399 853 886 853c429 0 778 -320 778 -749c0 -457 -398 -853 -885 -853zM993 1256c-330 0 -597 -272 -597 -582c0 -298 239 -510 523 -510c330 0 597 272 597 582c0 298 -239 510 -523 510zM750 1103h329
c249 0 343 -167 311 -313c-36 -168 -172 -247 -366 -247h-149l-48 -230h-245zM1063 896h-113l-32 -151h112c67 0 108 19 118 70c9 43 -19 81 -85 81z" />
    <glyph glyph-name="uni2120" unicode="&#x2120;" horiz-adv-x="1645" 
d="M805 1331l-88 -141c-65 45 -160 59 -208 59c-64 0 -94 -18 -94 -42c0 -39 57 -49 109 -57l27 -5c129 -24 201 -86 201 -179c0 -144 -126 -232 -304 -232c-112 0 -240 32 -317 90l97 141c76 -50 157 -72 233 -72c55 0 96 14 96 47c0 32 -39 41 -112 54l-29 5
c-122 21 -195 83 -195 183c0 134 105 228 285 228c78 0 188 -8 299 -79zM1651 746h-207l84 393l-190 -335h-198l-50 338l-84 -396h-204l139 654h275l64 -365l217 365h293z" />
    <glyph glyph-name="trademark" unicode="&#x2122;" horiz-adv-x="1656" 
d="M1662 746h-207l84 393l-190 -335h-198l-50 338l-84 -396h-204l139 654h275l65 -365l216 365h293zM513 746h-205l99 467h-205l40 187h615l-40 -187h-205z" />
    <glyph glyph-name="Omega" unicode="&#x2126;" horiz-adv-x="1672" 
d="M1606 296l-63 -296h-657l58 272c200 55 320 255 320 464c0 214 -145 370 -365 370c-255 0 -423 -216 -423 -465c0 -180 92 -314 241 -362l-60 -279h-655l63 296h246c-112 107 -175 253 -175 418c0 404 350 710 776 711c415 0 710 -258 710 -620
c0 -190 -79 -372 -228 -509h212z" />
    <glyph glyph-name="estimated" unicode="&#x212e;" horiz-adv-x="2000" 
d="M594 639v-281c0 -133 40 -235 160 -292c92 -44 197 -70 309 -70c243 0 456 112 581 300l97 -76c-148 -217 -397 -346 -678 -346c-451 0 -820 331 -820 826s369 826 820 826c450 0 820 -331 820 -826c0 -21 -1 -41 -2 -61h-1287zM594 761h947v274c0 132 -39 234 -157 293
c-96 48 -204 76 -321 76c-112 0 -217 -26 -309 -70c-120 -57 -160 -159 -160 -292v-281z" />
    <glyph glyph-name="uni214D" unicode="&#x214d;" horiz-adv-x="2107" 
d="M1976 679l-105 -167c-69 53 -178 69 -226 69c-62 0 -93 -18 -93 -46c0 -43 66 -50 120 -64l23 -6c144 -37 217 -100 217 -204c0 -171 -141 -275 -341 -275c-134 0 -275 38 -357 106l117 166c86 -58 167 -84 257 -84c54 0 91 16 91 52c0 37 -41 47 -117 61l-27 5
c-136 25 -214 97 -214 211c0 159 122 268 321 268c84 0 209 -8 334 -92zM830 1400l110 -758h-212l-13 125h-263l-64 -125h-231l426 758h247zM672 1195l-123 -240h147zM1831 1400l-1055 -1400h-286l1055 1400h286z" />
    <glyph glyph-name="uni2150" unicode="&#x2150;" horiz-adv-x="1759" 
d="M1483 1400l-1055 -1400h-286l1055 1400h286zM1795 832l-38 -186l-410 -646h-264l405 628h-353l43 204h617zM623 1413l-179 -845h-221l117 551l-183 -54l47 224z" />
    <glyph glyph-name="uni2151" unicode="&#x2151;" horiz-adv-x="1803" 
d="M1483 1400l-1055 -1400h-286l1055 1400h286zM1109 0l251 276c-154 14 -258 101 -258 253c0 174 142 318 352 318c177 0 323 -106 323 -272c0 -75 -31 -170 -119 -270l-266 -305h-283zM1435 456c65 0 109 49 109 106c0 53 -38 90 -97 90c-67 0 -111 -48 -111 -107
c0 -51 40 -89 99 -89zM623 1413l-179 -845h-221l117 551l-183 -54l47 224z" />
    <glyph glyph-name="uni2152" unicode="&#x2152;" horiz-adv-x="2446" 
d="M1483 1400l-1055 -1400h-286l1055 1400h286zM1546 845l-179 -845h-221l117 551l-183 -54l47 224zM2047 847c186 0 330 -117 330 -337c0 -236 -154 -526 -442 -526c-186 0 -330 118 -330 338c0 235 155 525 442 525zM2033 636c-127 0 -193 -165 -193 -292
c0 -95 40 -148 109 -148c127 0 194 166 194 292c0 94 -40 148 -110 148zM623 1413l-179 -845h-221l117 551l-183 -54l47 224z" />
    <glyph glyph-name="onethird" unicode="&#x2153;" horiz-adv-x="1774" 
d="M1483 1400l-1055 -1400h-286l1055 1400h286zM1227 586l-92 156c76 67 169 105 303 105c180 0 290 -107 290 -222c0 -90 -65 -180 -162 -218c66 -34 100 -92 100 -155c0 -145 -122 -267 -347 -267c-139 0 -240 45 -295 125l143 134c36 -43 90 -66 155 -66
c84 0 118 35 118 80c0 44 -48 71 -111 71h-91l38 182h93c86 0 128 36 128 81c0 38 -38 62 -98 62c-65 0 -126 -31 -172 -68zM623 1413l-179 -845h-221l117 551l-183 -54l47 224z" />
    <glyph glyph-name="twothirds" unicode="&#x2154;" horiz-adv-x="2024" 
d="M1733 1400l-1055 -1400h-286l1055 1400h286zM1477 586l-92 156c76 67 169 105 303 105c180 0 290 -107 290 -222c0 -90 -65 -180 -162 -218c66 -34 100 -92 100 -155c0 -145 -122 -267 -347 -267c-139 0 -240 45 -295 125l143 134c36 -43 90 -66 155 -66
c84 0 118 35 118 80c0 44 -48 71 -111 71h-91l38 182h93c86 0 128 36 128 81c0 38 -38 62 -98 62c-65 0 -126 -31 -172 -68zM326 1125l-113 157c64 66 152 133 308 133c196 0 286 -126 286 -252c0 -110 -42 -184 -201 -304l-115 -87h268l-43 -204h-588l39 179l306 240
c80 62 105 102 105 142c0 45 -38 75 -95 75c-72 0 -107 -33 -157 -79z" />
    <glyph glyph-name="uni2155" unicode="&#x2155;" horiz-adv-x="1764" 
d="M1483 1400l-1055 -1400h-286l1055 1400h286zM1712 832l-42 -202h-305l-26 -104h42c195 0 312 -123 276 -287c-38 -171 -172 -255 -361 -255c-120 0 -227 43 -288 115l123 150c44 -41 107 -66 175 -66c79 0 117 28 126 71c11 51 -23 86 -119 86h-208l115 492h492z
M623 1413l-179 -845h-221l117 551l-183 -54l47 224z" />
    <glyph glyph-name="uni2156" unicode="&#x2156;" horiz-adv-x="2014" 
d="M1733 1400l-1055 -1400h-286l1055 1400h286zM1962 832l-42 -202h-305l-26 -104h42c195 0 312 -123 276 -287c-38 -171 -172 -255 -361 -255c-120 0 -227 43 -288 115l123 150c44 -41 107 -66 175 -66c79 0 117 28 126 71c11 51 -23 86 -119 86h-208l115 492h492z
M326 1125l-113 157c64 66 152 133 308 133c196 0 286 -126 286 -252c0 -110 -42 -184 -201 -304l-115 -87h268l-43 -204h-588l39 179l306 240c80 62 105 102 105 142c0 45 -38 75 -95 75c-72 0 -107 -33 -157 -79z" />
    <glyph glyph-name="uni2157" unicode="&#x2157;" horiz-adv-x="1945" 
d="M1664 1400l-1055 -1400h-286l1055 1400h286zM1893 832l-42 -202h-305l-26 -104h42c195 0 312 -123 276 -287c-38 -171 -172 -255 -361 -255c-120 0 -227 43 -288 115l123 150c44 -41 107 -66 175 -66c79 0 117 28 126 71c11 51 -23 86 -119 86h-208l115 492h492z
M300 1154l-92 156c76 67 169 105 303 105c180 0 290 -107 290 -222c0 -90 -65 -180 -162 -218c66 -34 100 -92 100 -155c0 -145 -122 -267 -347 -267c-139 0 -240 45 -295 125l143 134c36 -43 90 -66 155 -66c84 0 118 35 118 80c0 44 -48 71 -111 71h-91l38 182h93
c86 0 128 36 128 81c0 38 -38 62 -98 62c-65 0 -126 -31 -172 -68z" />
    <glyph glyph-name="uni2158" unicode="&#x2158;" horiz-adv-x="1959" 
d="M1677 1400l-1055 -1400h-286l1055 1400h286zM1907 832l-42 -202h-305l-26 -104h42c195 0 312 -123 276 -287c-38 -171 -172 -255 -361 -255c-120 0 -227 43 -288 115l123 150c44 -41 107 -66 175 -66c79 0 117 28 126 71c11 51 -23 86 -119 86h-208l115 492h492z
M740 1122l-46 -217h97l-43 -204h-97l-28 -133h-221l28 133h-358l38 175l341 523h250l-321 -494h94l15 70l94 147h157z" />
    <glyph glyph-name="uni2159" unicode="&#x2159;" horiz-adv-x="1694" 
d="M1483 1400l-1055 -1400h-286l1055 1400h286zM1603 832l-251 -276c154 -14 259 -101 259 -253c0 -174 -143 -318 -352 -318c-178 0 -324 106 -324 271c0 76 32 171 120 271l266 305h282zM1279 376c-66 0 -109 -49 -109 -107c0 -52 37 -89 96 -89c66 0 111 48 111 107
c0 50 -40 89 -98 89zM623 1413l-179 -845h-221l117 551l-183 -54l47 224z" />
    <glyph glyph-name="uni215A" unicode="&#x215a;" horiz-adv-x="1859" 
d="M1648 1400l-1055 -1400h-286l1055 1400h286zM1768 832l-251 -276c154 -14 259 -101 259 -253c0 -174 -143 -318 -352 -318c-178 0 -324 106 -324 271c0 76 32 171 120 271l266 305h282zM1444 376c-66 0 -109 -49 -109 -107c0 -52 37 -89 96 -89c66 0 111 48 111 107
c0 50 -40 89 -98 89zM786 1400l-42 -202h-305l-26 -104h42c195 0 312 -123 276 -287c-38 -171 -172 -255 -361 -255c-120 0 -227 43 -288 115l123 150c44 -41 107 -66 175 -66c79 0 117 28 126 71c11 51 -23 86 -119 86h-208l115 492h492z" />
    <glyph glyph-name="oneeighth" unicode="&#x215b;" horiz-adv-x="1791" 
d="M1483 1400l-1055 -1400h-286l1055 1400h286zM1458 847c165 0 292 -82 292 -213c0 -95 -64 -177 -174 -220c66 -33 110 -85 110 -157c0 -145 -132 -272 -374 -272c-176 0 -306 83 -306 215c0 97 68 180 186 223c-53 31 -85 80 -85 146c0 152 133 278 351 278zM1360 338
c-56 0 -109 -34 -109 -94c0 -46 43 -71 89 -71c56 0 109 33 109 92c0 48 -42 73 -89 73zM1435 660c-56 0 -98 -37 -98 -84c0 -41 32 -67 78 -67c55 0 99 37 99 84c0 41 -35 67 -79 67zM623 1413l-179 -845h-221l117 551l-183 -54l47 224z" />
    <glyph glyph-name="threeeighths" unicode="&#x215c;" horiz-adv-x="1972" 
d="M1664 1400l-1055 -1400h-286l1055 1400h286zM1639 847c165 0 292 -82 292 -213c0 -95 -64 -177 -174 -220c66 -33 110 -85 110 -157c0 -145 -132 -272 -374 -272c-176 0 -306 83 -306 215c0 97 68 180 186 223c-53 31 -85 80 -85 146c0 152 133 278 351 278zM1541 338
c-56 0 -109 -34 -109 -94c0 -46 43 -71 89 -71c56 0 109 33 109 92c0 48 -42 73 -89 73zM1616 660c-56 0 -98 -37 -98 -84c0 -41 32 -67 78 -67c55 0 99 37 99 84c0 41 -35 67 -79 67zM300 1154l-92 156c76 67 169 105 303 105c180 0 290 -107 290 -222
c0 -90 -65 -180 -162 -218c66 -34 100 -92 100 -155c0 -145 -122 -267 -347 -267c-139 0 -240 45 -295 125l143 134c36 -43 90 -66 155 -66c84 0 118 35 118 80c0 44 -48 71 -111 71h-91l38 182h93c86 0 128 36 128 81c0 38 -38 62 -98 62c-65 0 -126 -31 -172 -68z" />
    <glyph glyph-name="fiveeighths" unicode="&#x215d;" horiz-adv-x="1956" 
d="M1648 1400l-1055 -1400h-286l1055 1400h286zM1623 847c165 0 292 -82 292 -213c0 -95 -64 -177 -174 -220c66 -33 110 -85 110 -157c0 -145 -132 -272 -374 -272c-176 0 -306 83 -306 215c0 97 68 180 186 223c-53 31 -85 80 -85 146c0 152 133 278 351 278zM1525 338
c-56 0 -109 -34 -109 -94c0 -46 43 -71 89 -71c56 0 109 33 109 92c0 48 -42 73 -89 73zM1600 660c-56 0 -98 -37 -98 -84c0 -41 32 -67 78 -67c55 0 99 37 99 84c0 41 -35 67 -79 67zM786 1400l-42 -202h-305l-26 -104h42c195 0 312 -123 276 -287
c-38 -171 -172 -255 -361 -255c-120 0 -227 43 -288 115l123 150c44 -41 107 -66 175 -66c79 0 117 28 126 71c11 51 -23 86 -119 86h-208l115 492h492z" />
    <glyph glyph-name="seveneighths" unicode="&#x215e;" horiz-adv-x="1852" 
d="M1544 1400l-1055 -1400h-286l1055 1400h286zM1519 847c165 0 292 -82 292 -213c0 -95 -64 -177 -174 -220c66 -33 110 -85 110 -157c0 -145 -132 -272 -374 -272c-176 0 -306 83 -306 215c0 97 68 180 186 223c-53 31 -85 80 -85 146c0 152 133 278 351 278zM1421 338
c-56 0 -109 -34 -109 -94c0 -46 43 -71 89 -71c56 0 109 33 109 92c0 48 -42 73 -89 73zM1496 660c-56 0 -98 -37 -98 -84c0 -41 32 -67 78 -67c55 0 99 37 99 84c0 41 -35 67 -79 67zM844 1400l-38 -186l-410 -646h-264l405 628h-353l43 204h617z" />
    <glyph glyph-name="uni215F" unicode="&#x215f;" horiz-adv-x="1051" 
d="M1483 1400l-1055 -1400h-286l1055 1400h286zM623 1413l-179 -845h-221l117 551l-183 -54l47 224z" />
    <glyph glyph-name="uni2189" unicode="&#x2189;" horiz-adv-x="2093" 
d="M1802 1400l-1055 -1400h-286l1055 1400h286zM1546 586l-92 156c76 67 169 105 303 105c180 0 290 -107 290 -222c0 -90 -65 -180 -162 -218c66 -34 100 -92 100 -155c0 -145 -122 -267 -347 -267c-139 0 -240 45 -295 125l143 134c36 -43 90 -66 155 -66
c84 0 118 35 118 80c0 44 -48 71 -111 71h-91l38 182h93c86 0 128 36 128 81c0 38 -38 62 -98 62c-65 0 -126 -31 -172 -68zM608 1415c186 0 330 -117 330 -337c0 -236 -154 -526 -442 -526c-186 0 -330 118 -330 338c0 235 155 525 442 525zM594 1204
c-127 0 -193 -165 -193 -292c0 -95 40 -148 109 -148c127 0 194 166 194 292c0 94 -40 148 -110 148z" />
    <glyph glyph-name="arrowleft" unicode="&#x2190;" horiz-adv-x="2000" 
d="M1861 524h-921c-93 0 -183 0 -289 9c92 -77 162 -141 256 -233l124 -122l-188 -188l-669 668l669 668l188 -188l-124 -122c-94 -92 -164 -156 -256 -233c106 9 196 9 289 9h921v-268z" />
    <glyph glyph-name="arrowup" unicode="&#x2191;" horiz-adv-x="2000" 
d="M947 -138v921c0 93 0 182 9 289c-77 -93 -141 -162 -233 -257l-122 -124l-188 189l668 668l668 -668l-188 -189l-122 124c-92 95 -156 164 -233 257c9 -107 9 -196 9 -289v-921h-268z" />
    <glyph glyph-name="arrowright" unicode="&#x2192;" horiz-adv-x="2000" 
d="M211 792h921c93 0 182 0 289 -9c-93 77 -162 141 -257 233l-124 122l189 188l668 -668l-668 -668l-189 188l124 122c95 92 164 156 257 233c-107 -9 -196 -9 -289 -9h-921v268z" />
    <glyph glyph-name="arrowdown" unicode="&#x2193;" horiz-adv-x="2000" 
d="M1158 1548v-921c0 -93 0 -182 -9 -289c77 93 141 162 233 257l122 124l189 -189l-669 -668l-668 668l189 189l121 -124c92 -95 156 -164 233 -257c-9 107 -9 196 -9 289v921h268z" />
    <glyph glyph-name="uni2196" unicode="&#x2196;" horiz-adv-x="2000" 
d="M1535 -14l-651 652c-66 66 -129 129 -199 211c12 -120 15 -215 17 -347l2 -173h-267v945h945v-267l-173 2c-133 1 -227 5 -347 16c82 -69 146 -133 211 -198l651 -652z" />
    <glyph glyph-name="uni2197" unicode="&#x2197;" horiz-adv-x="2000" 
d="M345 157l652 651c66 65 128 129 210 198c-120 -11 -214 -15 -347 -16l-173 -2v267h946v-946h-268l2 174c2 132 6 227 17 346c-70 -82 -133 -145 -198 -210l-652 -651z" />
    <glyph glyph-name="uni2198" unicode="&#x2198;" horiz-adv-x="2000" 
d="M556 1349l651 -652c65 -66 129 -129 199 -210c-12 119 -16 214 -17 346l-2 174h267v-946h-946v268l174 -2c132 -2 227 -6 346 -17c-81 70 -145 133 -210 198l-651 652z" />
    <glyph glyph-name="uni2199" unicode="&#x2199;" horiz-adv-x="2000" 
d="M1753 1140l-652 -651c-66 -65 -129 -129 -210 -199c119 11 214 15 346 17l174 2v-267h-946v945h268l-2 -174c-2 -132 -6 -226 -17 -346c70 82 133 145 198 210l652 652z" />
    <glyph glyph-name="partialdiff" unicode="&#x2202;" horiz-adv-x="1157" 
d="M314 1250l188 209c378 -161 611 -494 611 -875c0 -43 -3 -85 -9 -129c-35 -280 -260 -480 -558 -480c-296 0 -506 186 -506 444c0 283 224 508 494 508c98 0 180 -26 243 -75c-74 180 -246 288 -463 398zM589 660c-142 0 -227 -111 -227 -227c0 -109 83 -189 202 -189
c165 0 227 138 227 226c0 111 -81 190 -202 190z" />
    <glyph glyph-name="Delta" unicode="&#x2206;" horiz-adv-x="1369" 
d="M1078 1400l194 -1138l-56 -262h-1272l56 262l679 1138h399zM936 309l-113 765l-439 -765h552z" />
    <glyph glyph-name="product" unicode="&#x220f;" horiz-adv-x="1804" 
d="M1522 1400v-1665h-335v1356h-538v-1356h-334v1665h1207z" />
    <glyph glyph-name="summation" unicode="&#x2211;" horiz-adv-x="1555" 
d="M1320 1400v-310h-588l381 -416v-200l-389 -429h598v-310h-1069v262l519 572l-518 569v262h1066z" />
    <glyph glyph-name="minus" unicode="&#x2212;" horiz-adv-x="1200" 
d="M1098 660l-54 -257h-942l54 257h942z" />
    <glyph glyph-name="uni2219" unicode="&#x2219;" horiz-adv-x="1200" 
d="M600 877c191 0 347 -154 347 -346s-156 -347 -347 -347c-192 0 -347 155 -347 347s155 346 347 346z" />
    <glyph glyph-name="radical" unicode="&#x221a;" horiz-adv-x="1202" 
d="M1390 1440l-557 -1705h-399l-370 1000h356l214 -623l402 1328h354z" />
    <glyph glyph-name="infinity" unicode="&#x221e;" horiz-adv-x="1760" 
d="M51 528c0 269 199 439 429 439c165 0 279 -108 408 -249c130 141 243 249 408 249c230 0 429 -170 429 -439s-199 -439 -429 -439c-165 0 -278 107 -408 248c-129 -141 -243 -248 -408 -248c-230 0 -429 170 -429 439zM326 528c0 -119 68 -181 154 -181
c61 0 113 50 232 180v1c-119 130 -171 181 -232 181c-86 0 -154 -63 -154 -181zM1450 528c0 118 -68 181 -154 181c-61 0 -113 -51 -232 -181c119 -131 171 -181 232 -181c86 0 154 62 154 181z" />
    <glyph glyph-name="integral" unicode="&#x222b;" horiz-adv-x="427" 
d="M589 1406l-63 -278c-17 4 -34 6 -54 6c-68 0 -103 -39 -103 -124v-892c0 -264 -144 -409 -373 -409c-60 0 -112 7 -159 20l63 278c17 -4 34 -6 54 -6c69 0 103 39 103 124v892c0 264 145 409 373 409c60 0 113 -7 159 -20z" />
    <glyph glyph-name="congruent" unicode="&#x2245;" horiz-adv-x="1200" 
d="M1064 436l-54 -258h-942l54 258h942zM1160 885l-54 -258h-943l55 258h942zM1119 1376l108 -206c-99 -90 -216 -143 -325 -143c-183 0 -246 101 -362 101c-65 0 -120 -33 -190 -97l-108 205c99 91 216 143 324 143c184 0 247 -100 363 -100c65 0 120 33 190 97z" />
    <glyph glyph-name="approxequal" unicode="&#x2248;" horiz-adv-x="1200" 
d="M1062 924l108 -206c-99 -90 -216 -143 -325 -143c-183 0 -246 101 -362 101c-65 0 -120 -33 -190 -97l-108 205c99 91 216 143 324 143c184 0 247 -100 363 -100c65 0 120 33 190 97zM967 480l108 -206c-99 -90 -216 -143 -325 -143c-183 0 -246 101 -362 101
c-65 0 -120 -33 -190 -97l-108 205c99 91 216 143 324 143c184 0 247 -100 363 -100c65 0 120 33 190 97z" />
    <glyph glyph-name="uni2259" unicode="&#x2259;" horiz-adv-x="1200" 
d="M1059 436l-54 -258h-942l54 258h942zM1155 885l-54 -258h-943l55 258h942zM1091 1032h-273l-82 144l-141 -144h-296l293 332h344z" />
    <glyph glyph-name="notequal" unicode="&#x2260;" horiz-adv-x="1200" 
d="M1059 436l-54 -258h-465l-99 -178h-267l99 178h-210l54 258h299l107 191h-365l55 258h453l100 179h267l-100 -179h222l-54 -258h-311l-107 -191h376z" />
    <glyph glyph-name="lessequal" unicode="&#x2264;" horiz-adv-x="1200" 
d="M1097 935l-546 -178l470 -178l-60 -285l-752 331l60 284l892 331zM131 258h822l-54 -258h-822z" />
    <glyph glyph-name="greaterequal" unicode="&#x2265;" horiz-adv-x="1200" 
d="M1108 909l-61 -284l-892 -331l65 304l545 179l-470 178l61 285zM147 258h822l-54 -258h-822z" />
    <glyph glyph-name="dotmath" unicode="&#x22c5;" horiz-adv-x="1200" 
d="M601 745c115 0 213 -99 213 -213c0 -116 -98 -216 -213 -216s-215 100 -215 216c0 114 100 213 215 213z" />
    <glyph glyph-name="uni2300" unicode="&#x2205;" horiz-adv-x="1287" 
d="M1015 1067l182 -182l-107 -107c44 -76 70 -164 70 -258c0 -282 -228 -510 -510 -510c-95 0 -183 26 -258 70l-107 -107l-182 182l106 106c-44 76 -70 164 -70 259c0 282 228 511 511 511c94 0 183 -26 259 -71zM397 520c0 -31 5 -60 15 -87l325 325c-27 10 -57 15 -87 15
c-141 0 -253 -113 -253 -253zM650 268c140 0 253 112 253 252c0 29 -5 57 -14 84l-323 -322c26 -9 54 -14 84 -14z" />
    <glyph glyph-name="uni2300" unicode="&#x2300;" horiz-adv-x="1287" 
d="M1015 1067l182 -182l-107 -107c44 -76 70 -164 70 -258c0 -282 -228 -510 -510 -510c-95 0 -183 26 -258 70l-107 -107l-182 182l106 106c-44 76 -70 164 -70 259c0 282 228 511 511 511c94 0 183 -26 259 -71zM397 520c0 -31 5 -60 15 -87l325 325c-27 10 -57 15 -87 15
c-141 0 -253 -113 -253 -253zM650 268c140 0 253 112 253 252c0 29 -5 57 -14 84l-323 -322c26 -9 54 -14 84 -14z" />
    <glyph glyph-name="uni2460" unicode="&#x2460;" horiz-adv-x="2050" 
d="M1078 1615c519 0 936 -410 936 -913c0 -505 -417 -917 -936 -917c-518 0 -936 412 -936 917c0 503 418 913 936 913zM1078 1337c-355 0 -643 -284 -643 -635c0 -354 288 -638 643 -638c356 0 644 284 644 638c0 351 -288 635 -644 635zM1223 1142v-857h-226v551l-188 -65
v219z" />
    <glyph glyph-name="uni2461" unicode="&#x2461;" horiz-adv-x="2050" 
d="M1078 1615c519 0 936 -410 936 -913c0 -505 -417 -917 -936 -917c-518 0 -936 412 -936 917c0 503 418 913 936 913zM1078 1337c-355 0 -643 -284 -643 -635c0 -354 288 -638 643 -638c356 0 644 284 644 638c0 351 -288 635 -644 635zM874 836l-128 156
c58 69 161 153 330 153c184 0 306 -108 306 -275c0 -100 -39 -173 -144 -266l-125 -111h286v-208h-605v177l295 268c39 36 59 73 59 111c0 54 -44 88 -100 88c-73 0 -125 -45 -174 -93z" />
    <glyph glyph-name="uni2462" unicode="&#x2462;" horiz-adv-x="2050" 
d="M1078 1615c519 0 936 -410 936 -913c0 -505 -417 -917 -936 -917c-518 0 -936 412 -936 917c0 503 418 913 936 913zM1078 1337c-355 0 -643 -284 -643 -635c0 -354 288 -638 643 -638c356 0 644 284 644 638c0 351 -288 635 -644 635zM1069 1145c192 0 328 -97 328 -246
c0 -87 -44 -152 -123 -189c90 -36 141 -102 141 -189c0 -171 -166 -252 -342 -252c-133 0 -242 45 -311 125l123 145c49 -48 108 -74 175 -74c66 0 120 25 120 75c0 52 -61 79 -135 79h-95v184h97c67 0 119 28 119 76c0 45 -42 68 -106 68c-80 0 -137 -35 -176 -76l-120 148
c70 73 163 126 305 126z" />
    <glyph glyph-name="uni2463" unicode="&#x2463;" horiz-adv-x="2050" 
d="M1079 1615c518 0 935 -410 935 -913c0 -505 -417 -917 -935 -917c-519 0 -937 412 -937 917c0 503 418 913 937 913zM1079 1337c-356 0 -644 -284 -644 -635c0 -354 288 -638 644 -638c355 0 643 284 643 638c0 351 -288 635 -643 635zM1314 847v-226h99v-201h-99v-135
h-225v135h-379v153l266 556h246l-246 -508h113v80l70 146h155z" />
    <glyph glyph-name="uni2464" unicode="&#x2464;" horiz-adv-x="2050" 
d="M1078 1615c519 0 936 -410 936 -913c0 -505 -417 -917 -936 -917c-518 0 -936 412 -936 917c0 503 418 913 936 913zM1078 1337c-355 0 -643 -284 -643 -635c0 -354 288 -638 643 -638c356 0 644 284 644 638c0 351 -288 635 -644 635zM1361 1129v-206h-329l-3 -105h67
c203 0 320 -96 320 -250c0 -179 -139 -299 -338 -299c-136 0 -248 49 -316 109l103 171c39 -31 126 -77 212 -77c69 0 105 30 105 80c0 47 -41 77 -137 77h-217l13 500h520z" />
    <glyph glyph-name="uni2465" unicode="&#x2465;" horiz-adv-x="2050" 
d="M1078 1615c519 0 936 -410 936 -913c0 -505 -417 -917 -936 -917c-518 0 -936 412 -936 917c0 503 418 913 936 913zM1078 1337c-355 0 -643 -284 -643 -635c0 -354 288 -638 643 -638c356 0 644 284 644 638c0 351 -288 635 -644 635zM1311 1129l-204 -278
c203 -2 311 -129 311 -281c0 -175 -150 -301 -344 -301c-196 0 -344 123 -344 293c0 82 32 164 89 246l221 321h271zM1074 666c-62 0 -106 -43 -106 -99c0 -57 44 -99 106 -99c61 0 107 42 107 99c0 56 -46 99 -107 99z" />
    <glyph glyph-name="uni2466" unicode="&#x2466;" horiz-adv-x="2050" 
d="M1078 1615c519 0 936 -410 936 -913c0 -505 -417 -917 -936 -917c-518 0 -936 412 -936 917c0 503 418 913 936 913zM1078 1337c-355 0 -643 -284 -643 -635c0 -354 288 -638 643 -638c356 0 644 284 644 638c0 351 -288 635 -644 635zM1421 1129v-177l-327 -667h-271
l331 636h-370v208h637z" />
    <glyph glyph-name="uni2467" unicode="&#x2467;" horiz-adv-x="2050" 
d="M1078 1615c519 0 936 -410 936 -913c0 -505 -417 -917 -936 -917c-518 0 -936 412 -936 917c0 503 418 913 936 913zM1078 1337c-355 0 -643 -284 -643 -635c0 -354 288 -638 643 -638c356 0 644 284 644 638c0 351 -288 635 -644 635zM1078 1145c182 0 331 -92 331 -246
c0 -94 -56 -153 -130 -188c85 -33 152 -93 152 -196c0 -154 -159 -246 -353 -246c-192 0 -351 92 -351 246c0 103 66 163 151 196c-74 35 -129 94 -129 188c0 154 149 246 329 246zM1078 628c-59 0 -103 -32 -103 -85c0 -52 44 -84 103 -84c61 0 106 32 106 84
c0 53 -45 85 -106 85zM1078 954c-51 0 -90 -29 -90 -76s39 -77 90 -77c53 0 91 30 91 77s-38 76 -91 76z" />
    <glyph glyph-name="uni2468" unicode="&#x2468;" horiz-adv-x="2050" 
d="M1078 1615c519 0 936 -410 936 -913c0 -505 -417 -917 -936 -917c-518 0 -936 412 -936 917c0 503 418 913 936 913zM1078 1337c-355 0 -643 -284 -643 -635c0 -354 288 -638 643 -638c356 0 644 284 644 638c0 351 -288 635 -644 635zM853 285l203 278
c-201 2 -309 127 -309 281c0 174 148 301 344 301c195 0 344 -123 344 -293c0 -82 -33 -165 -90 -247l-221 -320h-271zM1091 748c62 0 106 42 106 99s-44 98 -106 98s-107 -41 -107 -98s45 -99 107 -99z" />
    <glyph glyph-name="uni24EA" unicode="&#x24ea;" horiz-adv-x="2050" 
d="M1078 1615c519 0 936 -410 936 -913c0 -505 -417 -917 -936 -917c-518 0 -936 412 -936 917c0 503 418 913 936 913zM1078 1337c-355 0 -643 -284 -643 -635c0 -354 288 -638 643 -638c356 0 644 284 644 638c0 351 -288 635 -644 635zM1078 1145
c217 0 387 -164 387 -438s-170 -438 -387 -438c-216 0 -387 164 -387 438s171 438 387 438zM1078 928c-87 0 -152 -76 -152 -222c0 -145 65 -221 152 -221s153 76 153 221c0 146 -66 222 -153 222z" />
    <glyph glyph-name="uni24FF" unicode="&#x24ff;" horiz-adv-x="2050" 
d="M1076 1145c-216 0 -387 -164 -387 -438s171 -438 387 -438c217 0 388 164 388 438s-171 438 -388 438zM1076 928c87 0 153 -76 153 -222c0 -145 -66 -221 -153 -221s-152 76 -152 221c0 146 65 222 152 222zM1077 1591c505 0 911 -400 911 -889
c0 -492 -406 -893 -911 -893s-912 401 -912 893c0 489 407 889 912 889z" />
    <glyph glyph-name="filledbox" unicode="&#x25a0;" horiz-adv-x="1800" 
d="M239 1400h1400v-1400h-1400v1400z" />
    <glyph glyph-name="H22073" unicode="&#x25a1;" horiz-adv-x="1800" 
d="M239 1400h1400v-1400h-1400v1400zM522 1117v-834h835v834h-835z" />
    <glyph glyph-name="uni25AE" unicode="&#x258c;" horiz-adv-x="1800" 
d="M239 1400h700v-1400h-700v1400z" />
    <glyph glyph-name="uni25AE" unicode="&#x25ae;" horiz-adv-x="1800" 
d="M239 1400h700v-1400h-700v1400z" />
    <glyph glyph-name="triagup" unicode="&#x25b2;" horiz-adv-x="1800" 
d="M891 1420l820 -1420h-1640z" />
    <glyph glyph-name="uni25B3" unicode="&#x25b3;" horiz-adv-x="1800" 
d="M891 1420l820 -1420h-1640zM891 855l-330 -572h661z" />
    <glyph glyph-name="uni25B4" unicode="&#x25b4;" horiz-adv-x="1200" 
d="M580 1070l475 -822h-951z" />
    <glyph glyph-name="uni25B8" unicode="&#x25b8;" horiz-adv-x="1200" 
d="M1112 658l-822 -476v952z" />
    <glyph glyph-name="triagdn" unicode="&#x25bc;" horiz-adv-x="1800" 
d="M995 -20l-820 1420h1640z" />
    <glyph glyph-name="uni25BD" unicode="&#x25bd;" horiz-adv-x="1800" 
d="M995 -20l-820 1420h1640zM995 545l330 572h-661z" />
    <glyph glyph-name="uni25BE" unicode="&#x25be;" horiz-adv-x="1200" 
d="M691 247l-475 822h951z" />
    <glyph glyph-name="uni25C2" unicode="&#x25c2;" horiz-adv-x="1201" 
d="M159 658l823 476v-952z" />
    <glyph glyph-name="uni25C6" unicode="&#x25c6;" horiz-adv-x="1800" 
d="M950 1438l738 -738l-738 -738l-738 738z" />
    <glyph glyph-name="uni25C7" unicode="&#x25c7;" horiz-adv-x="1800" 
d="M950 1438l738 -738l-738 -738l-738 738zM950 1038l-338 -338l338 -338l338 338z" />
    <glyph glyph-name="lozenge" unicode="&#x25ca;" horiz-adv-x="1521" 
d="M1505 700l-558 -700h-285l-557 700l558 700h285zM1118 697l-318 396l-306 -391l317 -396z" />
    <glyph glyph-name="circle" unicode="&#x25cb;" horiz-adv-x="1800" 
d="M952 -39c-409 0 -739 331 -739 739s330 739 739 739c408 0 739 -331 739 -739s-331 -739 -739 -739zM952 244c252 0 456 204 456 456s-204 456 -456 456c-253 0 -457 -204 -457 -456s204 -456 457 -456z" />
    <glyph glyph-name="H18533" unicode="&#x25cf;" horiz-adv-x="1800" 
d="M952 -39c-409 0 -739 331 -739 739s330 739 739 739c408 0 739 -331 739 -739s-331 -739 -739 -739z" />
    <glyph glyph-name="uni25D0" unicode="&#x25d0;" horiz-adv-x="1800" 
d="M952 -39c-409 0 -739 331 -739 739s330 739 739 739c408 0 739 -331 739 -739s-331 -739 -739 -739zM952 1156v-912c252 0 456 204 456 456s-204 456 -456 456z" />
    <glyph glyph-name="uni25D6" unicode="&#x25d6;" horiz-adv-x="1800" 
d="M952 1439v-1478c-409 0 -739 331 -739 739s330 739 739 739z" />
    <glyph glyph-name="uni25E7" unicode="&#x25e7;" horiz-adv-x="1800" 
d="M239 1400h1400v-1400h-1400v1400zM939 1117v-834h418v834h-418z" />
    <glyph glyph-name="uni2610" unicode="&#x2610;" horiz-adv-x="2200" 
d="M295 1547h1694v-1694h-1694v1694zM525 1317v-1234h1233v1234h-1233z" />
    <glyph glyph-name="uni2611" unicode="&#x2611;" horiz-adv-x="2200" 
d="M295 1547h1694v-1694h-1694v1694zM525 1317v-1234h1233v1234h-1233zM1495 1206l176 -125l-637 -899l-415 430l154 151l233 -245z" />
    <glyph glyph-name="uni2612" unicode="&#x2612;" horiz-adv-x="2200" 
d="M1989 1547v-1694h-1694v1694h1694zM1758 1317h-1233v-1234h1233v1234zM672 383l316 317l-316 317l153 153l317 -317l316 317l153 -153l-316 -317l316 -317l-153 -153l-316 317l-317 -317z" />
    <glyph glyph-name="heart" unicode="&#x2665;" horiz-adv-x="1800" 
d="M1319 1275c190 0 329 -145 329 -336c0 -281 -303 -608 -652 -853c-349 245 -652 572 -652 853c0 191 139 336 329 336c170 0 323 -117 323 -254c0 137 153 254 323 254z" />
    <glyph glyph-name="uni2713" unicode="&#x2713;" horiz-adv-x="2200" 
d="M1636 1333l215 -160l-814 -1096l-501 545l197 181l282 -307z" />
    <glyph glyph-name="uni2715" unicode="&#x2573;" horiz-adv-x="2205" 
d="M2078 -223l-238 -197l-713 907l-1141 -941l-181 231l1119 923l-727 923l238 197l714 -907l1140 941l181 -231l-1119 -923z" />
    <glyph glyph-name="uni2715" unicode="&#x2715;" horiz-adv-x="2205" 
d="M2078 -223l-238 -197l-713 907l-1141 -941l-181 231l1119 923l-727 923l238 197l714 -907l1140 941l181 -231l-1119 -923z" />
    <glyph glyph-name="uni2717" unicode="&#x2717;" horiz-adv-x="2200" 
d="M1329 700l397 -397l-189 -189l-397 397l-397 -397l-189 189l397 397l-397 397l189 189l397 -397l397 397l189 -189z" />
    <glyph glyph-name="uni278A" unicode="&#x2776;" horiz-adv-x="2050" 
d="M1221 1142l-414 -152v-219l189 65v-551h225v857zM1077 1591c505 0 911 -400 911 -889c0 -492 -406 -893 -911 -893s-912 401 -912 893c0 489 407 889 912 889z" />
    <glyph glyph-name="uni278A" unicode="&#x278a;" horiz-adv-x="2050" 
d="M1221 1142l-414 -152v-219l189 65v-551h225v857zM1077 1591c505 0 911 -400 911 -889c0 -492 -406 -893 -911 -893s-912 401 -912 893c0 489 407 889 912 889z" />
    <glyph glyph-name="uni278B" unicode="&#x2777;" horiz-adv-x="2050" 
d="M744 992l128 -156c49 48 101 93 175 93c55 0 99 -34 99 -88c0 -38 -20 -75 -59 -111l-295 -268v-177h606v208h-287l125 111c106 94 144 166 144 266c0 167 -122 275 -305 275c-169 0 -273 -84 -331 -153zM1077 1591c505 0 911 -400 911 -889c0 -492 -406 -893 -911 -893
s-912 401 -912 893c0 489 407 889 912 889z" />
    <glyph glyph-name="uni278B" unicode="&#x278b;" horiz-adv-x="2050" 
d="M744 992l128 -156c49 48 101 93 175 93c55 0 99 -34 99 -88c0 -38 -20 -75 -59 -111l-295 -268v-177h606v208h-287l125 111c106 94 144 166 144 266c0 167 -122 275 -305 275c-169 0 -273 -84 -331 -153zM1077 1591c505 0 911 -400 911 -889c0 -492 -406 -893 -911 -893
s-912 401 -912 893c0 489 407 889 912 889z" />
    <glyph glyph-name="uni278C" unicode="&#x2778;" horiz-adv-x="2050" 
d="M1077 1591c505 0 911 -400 911 -889c0 -492 -406 -893 -911 -893s-912 401 -912 893c0 489 407 889 912 889zM1067 1145c-142 0 -235 -53 -305 -126l120 -148c39 41 96 76 176 76c64 0 106 -23 106 -68c0 -48 -51 -76 -118 -76h-98v-184h95c74 0 136 -27 136 -79
c0 -50 -54 -75 -120 -75c-67 0 -127 26 -175 74l-124 -145c70 -80 178 -125 311 -125c176 0 342 81 342 252c0 87 -51 153 -140 189c79 37 123 102 123 189c0 149 -137 246 -329 246z" />
    <glyph glyph-name="uni278C" unicode="&#x278c;" horiz-adv-x="2050" 
d="M1077 1591c505 0 911 -400 911 -889c0 -492 -406 -893 -911 -893s-912 401 -912 893c0 489 407 889 912 889zM1067 1145c-142 0 -235 -53 -305 -126l120 -148c39 41 96 76 176 76c64 0 106 -23 106 -68c0 -48 -51 -76 -118 -76h-98v-184h95c74 0 136 -27 136 -79
c0 -50 -54 -75 -120 -75c-67 0 -127 26 -175 74l-124 -145c70 -80 178 -125 311 -125c176 0 342 81 342 252c0 87 -51 153 -140 189c79 37 123 102 123 189c0 149 -137 246 -329 246z" />
    <glyph glyph-name="uni278D" unicode="&#x2779;" horiz-adv-x="2050" 
d="M1077 1591c505 0 911 -400 911 -889c0 -492 -406 -893 -911 -893s-912 401 -912 893c0 489 407 889 912 889zM1313 847h-155l-71 -146v-80h-113l247 508h-247l-266 -556v-153h379v-135h226v135h99v201h-99v226z" />
    <glyph glyph-name="uni278D" unicode="&#x278d;" horiz-adv-x="2050" 
d="M1077 1591c505 0 911 -400 911 -889c0 -492 -406 -893 -911 -893s-912 401 -912 893c0 489 407 889 912 889zM1313 847h-155l-71 -146v-80h-113l247 508h-247l-266 -556v-153h379v-135h226v135h99v201h-99v226z" />
    <glyph glyph-name="uni278E" unicode="&#x277a;" horiz-adv-x="2050" 
d="M1359 1129h-520l-12 -500h217c95 0 136 -30 136 -77c0 -50 -35 -80 -105 -80c-86 0 -173 46 -212 77l-103 -171c68 -60 181 -109 316 -109c199 0 338 120 338 299c0 154 -116 250 -320 250h-67l3 105h329v206zM1077 1591c505 0 911 -400 911 -889
c0 -492 -406 -893 -911 -893s-912 401 -912 893c0 489 407 889 912 889z" />
    <glyph glyph-name="uni278E" unicode="&#x278e;" horiz-adv-x="2050" 
d="M1359 1129h-520l-12 -500h217c95 0 136 -30 136 -77c0 -50 -35 -80 -105 -80c-86 0 -173 46 -212 77l-103 -171c68 -60 181 -109 316 -109c199 0 338 120 338 299c0 154 -116 250 -320 250h-67l3 105h329v206zM1077 1591c505 0 911 -400 911 -889
c0 -492 -406 -893 -911 -893s-912 401 -912 893c0 489 407 889 912 889z" />
    <glyph glyph-name="uni278F" unicode="&#x277b;" horiz-adv-x="2050" 
d="M1077 1591c505 0 911 -400 911 -889c0 -492 -406 -893 -911 -893s-912 401 -912 893c0 489 407 889 912 889zM1309 1129h-270l-221 -321c-57 -83 -90 -164 -90 -246c0 -170 149 -293 344 -293s344 126 344 301c0 153 -109 279 -311 281zM1072 666c61 0 107 -43 107 -99
c0 -57 -46 -99 -107 -99c-62 0 -106 42 -106 99c0 56 44 99 106 99z" />
    <glyph glyph-name="uni278F" unicode="&#x278f;" horiz-adv-x="2050" 
d="M1077 1591c505 0 911 -400 911 -889c0 -492 -406 -893 -911 -893s-912 401 -912 893c0 489 407 889 912 889zM1309 1129h-270l-221 -321c-57 -83 -90 -164 -90 -246c0 -170 149 -293 344 -293s344 126 344 301c0 153 -109 279 -311 281zM1072 666c61 0 107 -43 107 -99
c0 -57 -46 -99 -107 -99c-62 0 -106 42 -106 99c0 56 44 99 106 99z" />
    <glyph glyph-name="uni2790" unicode="&#x277c;" horiz-adv-x="2050" 
d="M1420 1129h-638v-208h370l-330 -636h270l328 667v177zM1077 1591c505 0 911 -400 911 -889c0 -492 -406 -893 -911 -893s-912 401 -912 893c0 489 407 889 912 889z" />
    <glyph glyph-name="uni2790" unicode="&#x2790;" horiz-adv-x="2050" 
d="M1420 1129h-638v-208h370l-330 -636h270l328 667v177zM1077 1591c505 0 911 -400 911 -889c0 -492 -406 -893 -911 -893s-912 401 -912 893c0 489 407 889 912 889z" />
    <glyph glyph-name="uni2791" unicode="&#x277d;" horiz-adv-x="2050" 
d="M1077 1591c505 0 911 -400 911 -889c0 -492 -406 -893 -911 -893s-912 401 -912 893c0 489 407 889 912 889zM1077 1145c-181 0 -330 -92 -330 -246c0 -95 55 -154 129 -188c-84 -33 -150 -94 -150 -196c0 -154 159 -246 351 -246c193 0 352 92 352 246
c0 102 -67 163 -151 196c73 34 129 94 129 188c0 154 -149 246 -330 246zM1077 628c60 0 105 -32 105 -85c0 -52 -45 -84 -105 -84s-104 32 -104 84c0 53 44 85 104 85zM1077 954c52 0 91 -29 91 -76s-39 -77 -91 -77s-90 30 -90 77s38 76 90 76z" />
    <glyph glyph-name="uni2791" unicode="&#x2791;" horiz-adv-x="2050" 
d="M1077 1591c505 0 911 -400 911 -889c0 -492 -406 -893 -911 -893s-912 401 -912 893c0 489 407 889 912 889zM1077 1145c-181 0 -330 -92 -330 -246c0 -95 55 -154 129 -188c-84 -33 -150 -94 -150 -196c0 -154 159 -246 351 -246c193 0 352 92 352 246
c0 102 -67 163 -151 196c73 34 129 94 129 188c0 154 -149 246 -330 246zM1077 628c60 0 105 -32 105 -85c0 -52 -45 -84 -105 -84s-104 32 -104 84c0 53 44 85 104 85zM1077 954c52 0 91 -29 91 -76s-39 -77 -91 -77s-90 30 -90 77s38 76 90 76z" />
    <glyph glyph-name="uni2792" unicode="&#x277e;" horiz-adv-x="2050" 
d="M1077 1591c505 0 911 -400 911 -889c0 -492 -406 -893 -911 -893s-912 401 -912 893c0 489 407 889 912 889zM852 285h270l222 320c57 82 89 165 89 247c0 170 -149 293 -344 293s-344 -127 -344 -301c0 -154 108 -279 310 -281zM1089 748c-62 0 -107 42 -107 99
s45 98 107 98s106 -41 106 -98s-44 -99 -106 -99z" />
    <glyph glyph-name="uni2792" unicode="&#x2792;" horiz-adv-x="2050" 
d="M1077 1591c505 0 911 -400 911 -889c0 -492 -406 -893 -911 -893s-912 401 -912 893c0 489 407 889 912 889zM852 285h270l222 320c57 82 89 165 89 247c0 170 -149 293 -344 293s-344 -127 -344 -301c0 -154 108 -279 310 -281zM1089 748c-62 0 -107 42 -107 99
s45 98 107 98s106 -41 106 -98s-44 -99 -106 -99z" />
    <glyph glyph-name="uni2B51" unicode="&#x2b51;" horiz-adv-x="1800" 
d="M1156 912h628l-507 -369l194 -598l-508 370l-507 -370l194 598l-508 369h628l193 598z" />
    <glyph glyph-name="uni2B52" unicode="&#x2b52;" horiz-adv-x="1800" 
d="M1156 912h628l-507 -369l194 -598l-508 370l-507 -370l194 598l-508 369h628l193 598zM1046 761l-83 259l-83 -259h-274l221 -160l-85 -261l221 161l221 -161l-84 261l221 160h-275z" />
    <glyph glyph-name="uni2E17" unicode="&#x2e17;" horiz-adv-x="781" 
d="M776 989l-55 -259l-606 -221l55 259zM691 588l-55 -259l-606 -221l54 259z" />
    <glyph glyph-name="uni2E38" unicode="&#x2e38;" horiz-adv-x="794" 
d="M481 1440h235l-87 -414h218l-48 -229h-219l-47 -221h-236l47 221h-218l49 229h218z" />
    <glyph glyph-name="uniEA00" unicode="&#xea00;" horiz-adv-x="1800" 
d="M1156 912h628l-507 -369l194 -598l-508 370l-507 -370l194 598l-508 369h628l193 598zM1046 761l-83 259v-519l221 -161l-84 261l221 160h-275z" />
    <glyph glyph-name="uniEA01" unicode="&#xea01;" horiz-adv-x="1800" 
d="M963 315l-507 -370l194 598l-508 369h628l193 598v-1195z" />
    <glyph glyph-name="uniFB00" unicode="&#xfb00;" horiz-adv-x="1626" 
d="M876 981l-59 -277h-257l-150 -704h-315l150 704h-168l59 277h168l23 106c55 252 187 379 416 379c132 0 242 -42 310 -102l-161 -228c-46 28 -89 41 -126 41c-71 0 -114 -41 -134 -137l-13 -59h257zM1679 981l-59 -277h-257l-150 -704h-315l150 704h-168l59 277h168
l23 106c55 252 187 379 416 379c132 0 242 -42 310 -102l-161 -228c-46 28 -89 41 -126 41c-71 0 -114 -41 -134 -137l-13 -59h257z" />
    <glyph glyph-name="fi" unicode="&#xfb01;" horiz-adv-x="1347" 
d="M876 981l-59 -277h-257l-150 -704h-315l150 704h-168l59 277h168l23 106c55 252 187 379 416 379c132 0 242 -42 310 -102l-161 -228c-46 28 -89 41 -126 41c-71 0 -114 -41 -134 -137l-13 -59h257zM1348 981l-209 -981h-316l209 981h316zM1252 1471
c106 0 188 -82 188 -188c0 -105 -82 -186 -188 -186c-105 0 -187 81 -187 186c0 106 82 188 187 188z" />
    <glyph glyph-name="fl" unicode="&#xfb02;" horiz-adv-x="1347" 
d="M876 981l-59 -277h-257l-150 -704h-315l150 704h-168l59 277h168l23 106c55 252 187 379 416 379c132 0 242 -42 310 -102l-161 -228c-46 28 -89 41 -126 41c-71 0 -114 -41 -134 -137l-13 -59h257zM1445 1440l-306 -1440h-316l306 1440h316z" />
    <glyph glyph-name="uniFB03" unicode="&#xfb03;" horiz-adv-x="2150" 
d="M876 981l-59 -277h-257l-150 -704h-315l150 704h-168l59 277h168l23 106c55 252 187 379 416 379c132 0 242 -42 310 -102l-161 -228c-46 28 -89 41 -126 41c-71 0 -114 -41 -134 -137l-13 -59h257zM1679 981l-59 -277h-257l-150 -704h-315l150 704h-168l59 277h168
l23 106c55 252 187 379 416 379c132 0 242 -42 310 -102l-161 -228c-46 28 -89 41 -126 41c-71 0 -114 -41 -134 -137l-13 -59h257zM2151 981l-209 -981h-316l209 981h316zM2055 1471c106 0 188 -82 188 -188c0 -105 -82 -186 -188 -186c-105 0 -187 81 -187 186
c0 106 82 188 187 188z" />
    <glyph glyph-name="uniFB04" unicode="&#xfb04;" horiz-adv-x="2150" 
d="M876 981l-59 -277h-257l-150 -704h-315l150 704h-168l59 277h168l23 106c55 252 187 379 416 379c132 0 242 -42 310 -102l-161 -228c-46 28 -89 41 -126 41c-71 0 -114 -41 -134 -137l-13 -59h257zM1679 981l-59 -277h-257l-150 -704h-315l150 704h-168l59 277h168
l23 106c55 252 187 379 416 379c132 0 242 -42 310 -102l-161 -228c-46 28 -89 41 -126 41c-71 0 -114 -41 -134 -137l-13 -59h257zM2248 1440l-306 -1440h-316l306 1440h316z" />
    <glyph glyph-name="uniFB05" unicode="&#xfb05;" horiz-adv-x="1432" 
d="M1432 981l-59 -277h-322l-62 -295c-22 -101 19 -143 97 -143c56 0 112 24 164 54l98 -250c-103 -66 -216 -96 -334 -96c-293 0 -396 176 -342 427l65 303h-143l59 277h144l10 45c4 19 6 37 6 52c0 72 -44 106 -112 106c-92 0 -152 -59 -179 -186l-213 -998h-314l221 1034
c70 327 275 432 505 432c237 0 404 -123 404 -362c0 -39 -5 -78 -14 -123h321z" />
    <glyph glyph-name="uniFB06" unicode="&#xfb06;" horiz-adv-x="1913" 
d="M977 897l-127 -231c-109 65 -247 88 -307 88c-81 0 -118 -20 -122 -54c-6 -50 37 -58 134 -78l61 -13c215 -44 293 -157 275 -309c-26 -215 -188 -325 -462 -325c-169 0 -350 50 -454 130l134 229c95 -62 221 -106 332 -106c94 0 130 21 134 61c5 42 -33 58 -127 76
l-62 11c-228 40 -306 159 -286 321c26 206 189 310 440 310c160 0 300 -37 437 -110zM1913 981l-59 -277h-322l-63 -295c-21 -101 20 -143 98 -143c55 0 112 24 164 54l98 -250c-103 -66 -216 -96 -334 -96c-295 0 -397 176 -343 427l64 303h-178l59 277h178l61 286h316
l-61 -286h322z" />
    <glyph glyph-name="uni030C.alt001" 
d="M-481 973h-240l99 467h314z" />
    <glyph glyph-name="uni0328.alt001" 
d="M-411 -160l123 -177c-52 -44 -138 -82 -239 -82c-168 0 -273 77 -273 203c0 148 161 234 308 292l89 -76c-122 -52 -138 -109 -138 -140s24 -47 58 -47c21 0 44 8 72 27z" />
    <glyph glyph-name="uni0328.alt002" 
d="M-482 87l124 -68c-171 -62 -193 -119 -193 -155c0 -30 25 -49 65 -49c33 0 64 13 94 34l138 -169c-75 -62 -168 -99 -273 -99c-181 0 -307 87 -307 220c0 129 99 214 352 286z" />
    <glyph glyph-name="uni0328.alt003" 
d="M-407 -153l123 -171c-54 -49 -144 -96 -251 -96c-151 0 -268 70 -268 197c0 136 118 231 348 309l86 -80c-144 -56 -168 -112 -168 -146c0 -29 22 -43 54 -43c22 0 46 9 76 30z" />
    <glyph glyph-name="uni0328.alt004" 
d="M-395 -151l142 -168c-73 -63 -164 -100 -269 -100c-184 0 -313 90 -313 227c0 119 86 208 340 278l133 -66c-177 -63 -193 -119 -193 -153c0 -32 26 -52 68 -52c33 0 63 13 92 34z" />
    <glyph glyph-name="i.latn_TRK" horiz-adv-x="524" 
d="M525 981l-209 -981h-316l209 981h316zM429 1471c106 0 188 -82 188 -188c0 -105 -82 -186 -188 -186c-105 0 -187 81 -187 186c0 106 82 188 187 188z" />
    <glyph glyph-name="j.latn_NLD" horiz-adv-x="526" 
d="M527 981l-229 -1079c-47 -222 -184 -326 -368 -326c-66 0 -135 14 -185 38l78 271c21 -12 45 -18 67 -18c44 0 89 24 106 102l215 1012h316zM488 1105h-299l245 332h366z" />
    <glyph glyph-name="Ldot.latn_CAT" horiz-adv-x="1167" 
d="M657 1400l-232 -1090h679l-66 -310h-1021l298 1400h342zM898 920c112 0 198 -86 198 -197c0 -110 -86 -195 -198 -195c-110 0 -196 85 -196 195c0 111 86 197 196 197z" />
    <glyph glyph-name="ldot.latn_CAT" horiz-adv-x="783" 
d="M622 1440l-306 -1440h-316l306 1440h316zM733 905c98 0 175 -77 175 -175s-77 -173 -175 -173s-174 75 -174 173s76 175 174 175z" />
    <glyph glyph-name="zero.numr" horiz-adv-x="880" 
d="M608 1415c186 0 330 -117 330 -337c0 -236 -154 -526 -442 -526c-186 0 -330 118 -330 338c0 235 155 525 442 525zM594 1204c-127 0 -193 -165 -193 -292c0 -95 40 -148 109 -148c127 0 194 166 194 292c0 94 -40 148 -110 148z" />
    <glyph glyph-name="one.numr" horiz-adv-x="514" 
d="M623 1413l-179 -845h-221l117 551l-183 -54l47 224z" />
    <glyph glyph-name="two.numr" horiz-adv-x="737" 
d="M326 1125l-113 157c64 66 152 133 308 133c196 0 286 -126 286 -252c0 -110 -42 -184 -201 -304l-115 -87h268l-43 -204h-588l39 179l306 240c80 62 105 102 105 142c0 45 -38 75 -95 75c-72 0 -107 -33 -157 -79z" />
    <glyph glyph-name="three.numr" horiz-adv-x="720" 
d="M300 1154l-92 156c76 67 169 105 303 105c180 0 290 -107 290 -222c0 -90 -65 -180 -162 -218c66 -34 100 -92 100 -155c0 -145 -122 -267 -347 -267c-139 0 -240 45 -295 125l143 134c36 -43 90 -66 155 -66c84 0 118 35 118 80c0 44 -48 71 -111 71h-91l38 182h93
c86 0 128 36 128 81c0 38 -38 62 -98 62c-65 0 -126 -31 -172 -68z" />
    <glyph glyph-name="four.numr" horiz-adv-x="725" 
d="M740 1122l-46 -217h97l-43 -204h-97l-28 -133h-221l28 133h-358l38 175l341 523h250l-321 -494h94l15 70l94 147h157z" />
    <glyph glyph-name="five.numr" horiz-adv-x="712" 
d="M786 1400l-42 -202h-305l-26 -104h42c195 0 312 -123 276 -287c-38 -171 -172 -255 -361 -255c-120 0 -227 43 -288 115l123 150c44 -41 107 -66 175 -66c79 0 117 28 126 71c11 51 -23 86 -119 86h-208l115 492h492z" />
    <glyph glyph-name="six.numr" horiz-adv-x="752" 
d="M786 1400l-251 -276c154 -14 259 -101 259 -253c0 -174 -143 -318 -352 -318c-178 0 -324 106 -324 271c0 76 32 171 120 271l266 305h282zM462 944c-66 0 -109 -49 -109 -107c0 -52 37 -89 96 -89c66 0 111 48 111 107c0 50 -40 89 -98 89z" />
    <glyph glyph-name="seven.numr" horiz-adv-x="684" 
d="M844 1400l-38 -186l-410 -646h-264l405 628h-353l43 204h617z" />
    <glyph glyph-name="eight.numr" horiz-adv-x="778" 
d="M570 1415c165 0 292 -82 292 -213c0 -95 -64 -177 -174 -220c66 -33 110 -85 110 -157c0 -145 -132 -272 -374 -272c-176 0 -306 83 -306 215c0 97 68 180 186 223c-53 31 -85 80 -85 146c0 152 133 278 351 278zM472 906c-56 0 -109 -34 -109 -94c0 -46 43 -71 89 -71
c56 0 109 33 109 92c0 48 -42 73 -89 73zM547 1228c-56 0 -98 -37 -98 -84c0 -41 32 -67 78 -67c55 0 99 37 99 84c0 41 -35 67 -79 67z" />
    <glyph glyph-name="nine.numr" horiz-adv-x="751" 
d="M175 568l251 276c-154 14 -258 101 -258 253c0 174 142 318 352 318c177 0 323 -106 323 -272c0 -75 -31 -170 -119 -270l-266 -305h-283zM501 1024c65 0 109 49 109 106c0 53 -38 90 -97 90c-67 0 -111 -48 -111 -107c0 -51 40 -89 99 -89z" />
    <glyph glyph-name="zero.dnom" horiz-adv-x="880" 
d="M481 847c186 0 330 -117 330 -337c0 -236 -154 -526 -442 -526c-186 0 -330 118 -330 338c0 235 155 525 442 525zM467 636c-127 0 -193 -165 -193 -292c0 -95 40 -148 109 -148c127 0 194 166 194 292c0 94 -40 148 -110 148z" />
    <glyph glyph-name="one.dnom" horiz-adv-x="520" 
d="M499 845l-179 -845h-221l117 551l-183 -54l47 224z" />
    <glyph glyph-name="two.dnom" horiz-adv-x="737" 
d="M201 557l-113 157c64 66 152 133 308 133c196 0 286 -126 286 -252c0 -110 -42 -184 -201 -304l-115 -87h268l-43 -204h-588l39 179l306 240c80 62 105 102 105 142c0 45 -38 75 -95 75c-72 0 -107 -33 -157 -79z" />
    <glyph glyph-name="three.dnom" horiz-adv-x="722" 
d="M176 586l-92 156c76 67 169 105 303 105c180 0 290 -107 290 -222c0 -90 -65 -180 -162 -218c66 -34 100 -92 100 -155c0 -145 -122 -267 -347 -267c-139 0 -240 45 -295 125l143 134c36 -43 90 -66 155 -66c84 0 118 35 118 80c0 44 -48 71 -111 71h-91l38 182h93
c86 0 128 36 128 81c0 38 -38 62 -98 62c-65 0 -126 -31 -172 -68z" />
    <glyph glyph-name="four.dnom" horiz-adv-x="725" 
d="M617 554l-46 -217h97l-43 -204h-97l-28 -133h-221l28 133h-358l38 175l341 523h250l-321 -494h94l15 70l94 147h157z" />
    <glyph glyph-name="five.dnom" horiz-adv-x="714" 
d="M661 832l-42 -202h-305l-26 -104h42c195 0 312 -123 276 -287c-38 -171 -172 -255 -361 -255c-120 0 -227 43 -288 115l123 150c44 -41 107 -66 175 -66c79 0 117 28 126 71c11 51 -23 86 -119 86h-208l115 492h492z" />
    <glyph glyph-name="six.dnom" horiz-adv-x="753" 
d="M662 832l-251 -276c154 -14 259 -101 259 -253c0 -174 -143 -318 -352 -318c-178 0 -324 106 -324 271c0 76 32 171 120 271l266 305h282zM338 376c-66 0 -109 -49 -109 -107c0 -52 37 -89 96 -89c66 0 111 48 111 107c0 50 -40 89 -98 89z" />
    <glyph glyph-name="seven.dnom" horiz-adv-x="686" 
d="M721 832l-38 -186l-410 -646h-264l405 628h-353l43 204h617z" />
    <glyph glyph-name="eight.dnom" horiz-adv-x="778" 
d="M444 847c165 0 292 -82 292 -213c0 -95 -64 -177 -174 -220c66 -33 110 -85 110 -157c0 -145 -132 -272 -374 -272c-176 0 -306 83 -306 215c0 97 68 180 186 223c-53 31 -85 80 -85 146c0 152 133 278 351 278zM346 338c-56 0 -109 -34 -109 -94c0 -46 43 -71 89 -71
c56 0 109 33 109 92c0 48 -42 73 -89 73zM421 660c-56 0 -98 -37 -98 -84c0 -41 32 -67 78 -67c55 0 99 37 99 84c0 41 -35 67 -79 67z" />
    <glyph glyph-name="nine.dnom" horiz-adv-x="752" 
d="M58 0l251 276c-154 14 -258 101 -258 253c0 174 142 318 352 318c177 0 323 -106 323 -272c0 -75 -31 -170 -119 -270l-266 -305h-283zM384 456c65 0 109 49 109 106c0 53 -38 90 -97 90c-67 0 -111 -48 -111 -107c0 -51 40 -89 99 -89z" />
    <glyph glyph-name="space.frac" horiz-adv-x="89" 
 />
    <glyph glyph-name="b.ordn" horiz-adv-x="871" 
d="M529 550c-86 0 -156 27 -202 80l-13 -62h-215l220 1039h216l-76 -359c39 27 89 45 160 45c173 0 299 -146 299 -328c0 -183 -133 -415 -389 -415zM553 1090c-90 0 -159 -70 -171 -166c-13 -109 55 -174 139 -174c99 0 173 88 173 193c0 97 -67 147 -141 147z" />
    <glyph glyph-name="c.ordn" horiz-adv-x="787" 
d="M854 1107l-188 -93c-35 60 -86 77 -134 77c-100 0 -172 -87 -172 -190c0 -87 57 -149 136 -149c52 0 98 22 137 67l151 -129c-73 -87 -177 -138 -296 -138c-207 0 -349 141 -349 334c0 221 164 405 404 405c148 0 255 -67 311 -184z" />
    <glyph glyph-name="d.ordn" horiz-adv-x="872" 
d="M525 1293c85 0 156 -28 201 -81l85 395h215l-221 -1039h-208l10 49c-44 -40 -100 -67 -177 -67c-170 0 -294 145 -294 327c0 183 133 416 389 416zM501 751c90 0 159 70 171 166c13 109 -55 174 -139 174c-99 0 -173 -88 -173 -193c0 -97 67 -147 141 -147z" />
    <glyph glyph-name="e.ordn" horiz-adv-x="790" 
d="M642 789l121 -131c-69 -71 -167 -108 -295 -108c-211 0 -335 130 -335 308c0 176 115 435 408 435c178 0 305 -116 305 -291c0 -47 -13 -112 -29 -149h-473c6 -79 57 -122 139 -122c56 0 110 15 159 58zM529 1109c-82 0 -131 -54 -158 -114h270v3c0 74 -44 111 -112 111z
" />
    <glyph glyph-name="h.ordn" horiz-adv-x="816" 
d="M627 1293c146 0 234 -98 234 -236c0 -25 -2 -52 -8 -80l-89 -409h-215l84 394c3 14 5 27 5 40c0 50 -27 88 -94 88c-68 0 -129 -36 -153 -149l-78 -373h-215l221 1039h215l-82 -380c50 47 109 66 175 66z" />
    <glyph glyph-name="l.ordn" horiz-adv-x="381" 
d="M535 1607l-221 -1039h-215l220 1039h216z" />
    <glyph glyph-name="m.ordn" horiz-adv-x="1269" 
d="M1072 1293c152 0 243 -98 243 -237c0 -25 -3 -51 -9 -79l-89 -409h-216l85 394c3 14 5 27 5 40c0 50 -27 88 -96 88c-68 0 -129 -36 -153 -149l-78 -373h-215l84 394c15 68 -4 128 -89 128c-68 0 -129 -36 -153 -149l-78 -373h-215l150 705h204l-14 -60
c53 57 117 80 189 80c98 0 168 -44 205 -112c62 80 145 112 240 112z" />
    <glyph glyph-name="r.ordn" horiz-adv-x="603" 
d="M391 938l-77 -370h-216l150 705h204l-15 -67c51 63 114 87 186 87c33 0 67 -7 100 -19l-62 -209c-30 13 -70 20 -104 20c-78 0 -143 -46 -166 -147z" />
    <glyph glyph-name="s.ordn" horiz-adv-x="699" 
d="M787 1213l-91 -159c-75 45 -173 62 -220 62c-62 0 -91 -16 -95 -44c-5 -39 29 -45 97 -59l45 -9c156 -31 214 -112 201 -221c-18 -151 -135 -233 -330 -233c-119 0 -248 35 -325 94l95 158c67 -44 155 -76 237 -76c72 0 101 17 105 50c3 31 -25 45 -93 57l-46 8
c-163 28 -221 113 -207 228c19 147 135 224 315 224c115 0 216 -27 312 -80z" />
    <glyph glyph-name="t.ordn" horiz-adv-x="711" 
d="M774 1273l-41 -190h-235l-48 -224c-16 -76 15 -108 73 -108c42 0 87 20 124 42l65 -175c-72 -46 -151 -68 -237 -68c-206 0 -282 123 -243 304l50 229h-131l40 190h132l45 207h215l-45 -207h236z" />
    <glyph glyph-name="u.ordn" horiz-adv-x="805" 
d="M906 1283l-87 -413c-49 -234 -203 -311 -376 -311s-298 90 -298 261c0 28 3 58 10 90l79 373h216l-84 -394c-3 -14 -4 -27 -4 -39c0 -62 39 -89 98 -89c76 0 131 51 151 147l80 375h215z" />
    <glyph glyph-name="egrave.ordn" horiz-adv-x="790" 
d="M642 789l121 -131c-69 -71 -167 -108 -295 -108c-211 0 -335 130 -335 308c0 176 115 435 408 435c178 0 305 -116 305 -291c0 -47 -13 -112 -29 -149h-473c6 -79 57 -122 139 -122c56 0 110 15 159 58zM499 1365l-198 237h250l151 -237h-203zM529 1109
c-82 0 -131 -54 -158 -114h270v3c0 74 -44 111 -112 111z" />
    <glyph glyph-name="zero.osf" horiz-adv-x="1310" 
d="M697 1106c308 0 554 -193 554 -515c0 -333 -244 -617 -618 -617c-307 0 -554 193 -554 515c0 332 244 617 618 617zM682 811c-169 0 -284 -135 -284 -298c0 -155 111 -245 251 -245c169 0 284 135 284 297c0 157 -112 246 -251 246z" />
    <glyph glyph-name="one.osf" horiz-adv-x="754" 
d="M780 1109l-236 -1109h-318l151 712l-310 -75l66 314z" />
    <glyph glyph-name="two.osf" horiz-adv-x="1129" 
d="M289 673l-161 222c97 98 254 211 490 211c270 0 444 -153 444 -349c0 -155 -61 -287 -353 -427l-94 -45h424l-62 -285h-942l51 236l421 238c183 104 222 159 222 231s-72 114 -159 114c-112 0 -200 -66 -281 -146z" />
    <glyph glyph-name="three.osf" horiz-adv-x="1103" 
d="M269 691l-146 226c117 117 266 189 483 189c284 0 457 -165 457 -361c0 -159 -109 -307 -274 -374c109 -53 167 -149 167 -262c0 -250 -206 -454 -556 -454c-210 0 -381 77 -469 206l210 188c61 -76 157 -116 267 -116c151 0 223 79 223 179c0 89 -85 135 -201 135h-149
l61 280h148c151 0 239 76 239 168c0 78 -69 124 -174 124c-115 0 -215 -61 -286 -128z" />
    <glyph glyph-name="four.osf" horiz-adv-x="1126" 
d="M929 616l-69 -320h198l-63 -296h-198l-68 -321h-318l68 321h-557l55 257l494 822h339l-461 -783h193l36 165l88 155h263z" />
    <glyph glyph-name="five.osf" horiz-adv-x="1092" 
d="M1047 1079l-63 -294h-515l-53 -226h88c325 0 497 -215 441 -481c-60 -291 -282 -425 -571 -425c-196 0 -365 73 -467 203l190 211c75 -83 178 -122 293 -122c139 0 213 63 230 154c18 98 -34 179 -213 179h-338l188 801h790z" />
    <glyph glyph-name="six.osf" horiz-adv-x="1164" 
d="M1082 1400l-415 -473c257 -14 445 -169 445 -426c0 -287 -231 -526 -564 -526c-282 0 -513 175 -513 448c0 125 49 271 190 439l452 538h405zM585 657c-129 0 -213 -98 -213 -215c0 -106 75 -182 189 -182c127 0 215 97 215 217c0 107 -81 180 -191 180z" />
    <glyph glyph-name="seven.osf" horiz-adv-x="1069" 
d="M1153 1079l-55 -267l-695 -1133h-375l689 1104h-616l64 296h988z" />
    <glyph glyph-name="eight.osf" horiz-adv-x="1194" 
d="M753 1425c261 0 471 -141 471 -368c0 -156 -104 -291 -283 -361c106 -55 176 -144 176 -262c0 -249 -217 -459 -597 -459c-278 0 -490 138 -490 358c0 167 111 309 306 380c-87 53 -141 134 -141 245c0 251 210 467 558 467zM599 582c-117 0 -212 -75 -212 -187
c0 -89 79 -138 170 -138c118 0 214 70 214 183c0 91 -79 142 -172 142zM728 1138c-109 0 -190 -70 -190 -172c0 -81 61 -128 148 -128c106 0 191 71 191 173c0 82 -66 127 -149 127z" />
    <glyph glyph-name="nine.osf" horiz-adv-x="1164" 
d="M103 -320l413 473c-256 14 -443 169 -443 426c0 288 231 527 564 527c282 0 513 -176 513 -449c0 -125 -50 -271 -190 -438l-452 -539h-405zM600 423c128 0 213 98 213 215c0 106 -75 182 -189 182c-127 0 -215 -97 -215 -217c0 -107 80 -180 191 -180z" />
    <glyph glyph-name="zero.tf" horiz-adv-x="1200" 
d="M736 1425c281 0 484 -175 484 -515c0 -445 -231 -935 -668 -935c-280 0 -483 175 -483 515c0 444 231 935 667 935zM720 1115c-204 0 -317 -341 -317 -589c0 -162 64 -241 166 -241c204 0 317 340 317 588c0 163 -64 242 -166 242z" />
    <glyph glyph-name="one.tf" horiz-adv-x="1200" 
d="M139 307h291l146 683l-335 -99l68 323l682 208l-237 -1115h312l-66 -307h-926z" />
    <glyph glyph-name="two.tf" horiz-adv-x="1200" 
d="M372 965l-165 237c100 110 249 223 489 223c314 0 460 -204 460 -408c0 -185 -83 -305 -319 -504l-251 -212h473l-65 -301h-946l57 260l530 441c139 116 184 189 184 268c0 81 -63 146 -173 146c-120 0 -193 -62 -274 -150z" />
    <glyph glyph-name="three.tf" horiz-adv-x="1200" 
d="M370 1008l-149 230c120 116 269 187 491 187c289 0 465 -166 465 -362c0 -159 -109 -306 -277 -373c112 -53 171 -149 171 -262c0 -249 -208 -453 -564 -453c-225 0 -389 75 -478 203l214 203c62 -76 160 -116 272 -116c152 0 225 74 225 169c0 85 -87 130 -204 130h-152
l61 285h150c154 0 243 74 243 164c0 76 -71 122 -178 122c-116 0 -217 -60 -290 -127z" />
    <glyph glyph-name="four.tf" horiz-adv-x="1200" 
d="M1064 908l-78 -368h176l-65 -301h-175l-51 -239h-324l50 239h-599l55 258l599 902h371l-570 -859h208l33 153l142 215h228z" />
    <glyph glyph-name="five.tf" horiz-adv-x="1200" 
d="M1176 1400l-64 -298h-519l-53 -220h88c328 0 503 -215 447 -483c-60 -291 -284 -425 -578 -425c-198 0 -369 73 -471 202l191 215c76 -81 180 -121 296 -121c140 0 215 61 231 151c18 97 -36 175 -215 175h-340l187 804h800z" />
    <glyph glyph-name="six.tf" horiz-adv-x="1200" 
d="M1109 1400l-417 -472c259 -15 448 -170 448 -427c0 -287 -233 -526 -570 -526c-285 0 -520 176 -520 449c0 126 50 272 192 440l454 536h413zM606 655c-128 0 -213 -96 -213 -211c0 -106 76 -180 190 -180c127 0 215 96 215 213c0 106 -81 178 -192 178z" />
    <glyph glyph-name="seven.tf" horiz-adv-x="1200" 
d="M1286 1400l-56 -271l-698 -1129h-388l693 1099h-615l65 301h999z" />
    <glyph glyph-name="eight.tf" horiz-adv-x="1200" 
d="M753 1425c266 0 480 -139 480 -365c0 -158 -105 -293 -287 -364c107 -55 179 -144 179 -263c0 -249 -219 -458 -604 -458c-281 0 -498 138 -498 359c0 167 112 308 309 379c-89 52 -144 135 -144 246c0 251 212 466 565 466zM600 582c-122 0 -220 -75 -220 -186
c0 -90 82 -139 177 -139c124 0 222 70 222 183c0 91 -82 142 -179 142zM729 1138c-116 0 -199 -70 -199 -172c0 -81 64 -128 156 -128c113 0 200 71 200 173c0 82 -69 127 -157 127z" />
    <glyph glyph-name="nine.tf" horiz-adv-x="1199" 
d="M179 0l417 472c-259 14 -447 170 -447 427c0 287 233 526 569 526c286 0 520 -176 520 -449c0 -126 -50 -272 -192 -440l-454 -536h-413zM682 745c128 0 213 96 213 211c0 106 -75 180 -190 180c-127 0 -214 -96 -214 -213c0 -106 81 -178 191 -178z" />
    <glyph glyph-name="uni2007.tf" horiz-adv-x="1200" 
 />
    <glyph glyph-name="zero.tosf" horiz-adv-x="1200" 
d="M646 1104c294 0 510 -198 510 -506c0 -333 -224 -622 -576 -622c-294 0 -510 198 -510 506c0 332 224 622 576 622zM633 818c-148 0 -246 -143 -246 -315c0 -151 87 -241 206 -241c148 0 246 143 246 315c0 151 -87 241 -206 241z" />
    <glyph glyph-name="one.tosf" horiz-adv-x="1200" 
d="M149 293h292l89 414l-323 -79l66 318l660 163l-174 -816h307l-62 -293h-918z" />
    <glyph glyph-name="two.tosf" horiz-adv-x="1200" 
d="M318 673l-161 222c97 98 254 211 490 211c270 0 444 -153 444 -349c0 -155 -61 -287 -353 -427l-94 -45h424l-62 -285h-942l51 236l421 238c183 104 222 159 222 231s-72 114 -159 114c-112 0 -200 -66 -281 -146z" />
    <glyph glyph-name="three.tosf" horiz-adv-x="1200" 
d="M312 691l-146 226c117 117 266 189 483 189c284 0 457 -165 457 -361c0 -159 -109 -307 -274 -374c109 -53 167 -149 167 -262c0 -250 -206 -454 -556 -454c-210 0 -381 77 -469 206l210 188c61 -76 157 -116 267 -116c151 0 223 79 223 179c0 89 -85 135 -201 135h-149
l61 280h148c151 0 239 76 239 168c0 78 -69 124 -174 124c-115 0 -215 -61 -286 -128z" />
    <glyph glyph-name="four.tosf" horiz-adv-x="1200" 
d="M981 616l-69 -320h198l-63 -296h-198l-68 -321h-318l68 321h-557l55 257l494 822h339l-461 -783h193l36 165l88 155h263z" />
    <glyph glyph-name="five.tosf" horiz-adv-x="1200" 
d="M1111 1079l-63 -294h-515l-53 -226h88c325 0 497 -215 441 -481c-60 -291 -282 -425 -571 -425c-196 0 -365 73 -467 203l190 211c75 -83 178 -122 293 -122c139 0 213 63 230 154c18 98 -34 179 -213 179h-338l188 801h790z" />
    </font>
</defs>
</svg>
